<svg xmlns="http://www.w3.org/2000/svg" width="193" height="141" fill="none" viewBox="0 0 193 141">
    <g opacity=".25">
        <path fill="#F27C4F" d="M20.17.604a3.446 3.446 0 0 0-3.445 3.445c0 1.9 1.543 3.444 3.444 3.444s3.47-1.543 3.445-3.444c-.026-1.9-1.557-3.445-3.445-3.445Zm0 15.145a5.161 5.161 0 0 0-5.167 5.167 5.161 5.161 0 0 0 5.166 5.166c2.858 0 5.205-2.309 5.167-5.166-.038-2.909-2.322-5.167-5.167-5.167Z"/>
        <path fill="#3E4FE5" d="M138.122 15.749a5.161 5.161 0 0 0-5.166 5.167 5.161 5.161 0 0 0 5.166 5.166c2.858 0 5.205-2.309 5.167-5.166-.038-2.858-2.322-5.167-5.167-5.167ZM3.317 34.31a3.446 3.446 0 0 0-3.445 3.445c0 1.9 1.544 3.444 3.445 3.444 1.9 0 3.444-1.543 3.444-3.444-.05-1.94-1.556-3.445-3.444-3.445Z"/>
        <path fill="#F27C4F" d="M20.17 32.589a5.161 5.161 0 0 0-5.167 5.166 5.161 5.161 0 0 0 5.166 5.167c2.858 0 5.205-2.309 5.167-5.166-.038-2.91-2.322-5.167-5.167-5.167Z"/>
        <path fill="#C7579A" d="M104.418 32.589a5.161 5.161 0 0 0-5.167 5.166 5.161 5.161 0 0 0 5.167 5.167c2.857 0 5.205-2.309 5.167-5.166-.039-2.91-2.322-5.167-5.167-5.167Z"/>
        <path fill="#3E4FE5" d="M138.122 30.878a6.893 6.893 0 0 0-6.889 6.889 6.893 6.893 0 0 0 6.889 6.889c3.802 0 6.94-3.087 6.889-6.89-.051-3.8-3.1-6.888-6.889-6.888Zm16.852 3.432a3.447 3.447 0 0 0-3.444 3.445c0 1.9 1.544 3.444 3.444 3.444 1.901 0 3.47-1.543 3.445-3.444-.026-1.9-1.556-3.445-3.445-3.445Z"/>
        <path fill="#C7579A" d="M3.317 49.44a5.161 5.161 0 0 0-5.167 5.167 5.161 5.161 0 0 0 5.167 5.167 5.161 5.161 0 0 0 5.166-5.167c-.076-2.909-2.321-5.167-5.166-5.167Z"/>
        <path fill="#3E4FE5" d="M20.17 49.44a5.161 5.161 0 0 0-5.167 5.167 5.161 5.161 0 0 0 5.166 5.167c2.858 0 5.205-2.31 5.167-5.167-.038-2.909-2.322-5.167-5.167-5.167Zm16.852 1.721a3.446 3.446 0 0 0-3.445 3.445c0 1.9 1.544 3.444 3.445 3.444 1.9 0 3.47-1.544 3.444-3.444-.026-1.901-1.556-3.445-3.444-3.445Z"/>
        <path fill="#F27C4F" d="M53.873 51.161a3.446 3.446 0 0 0-3.444 3.445c0 1.9 1.544 3.444 3.444 3.444 1.901 0 3.47-1.544 3.445-3.444-.026-1.901-1.556-3.445-3.445-3.445Z"/>
        <path fill="#C7579A" d="M70.726 49.44a5.161 5.161 0 0 0-5.167 5.167 5.161 5.161 0 0 0 5.167 5.167c2.858 0 5.205-2.31 5.167-5.167-.039-2.909-2.322-5.167-5.167-5.167Zm16.839 1.721a3.446 3.446 0 0 0-3.444 3.445c0 1.9 1.544 3.444 3.444 3.444 1.901 0 3.47-1.544 3.445-3.444-.026-1.901-1.557-3.445-3.445-3.445Zm16.853-1.721a5.161 5.161 0 0 0-5.167 5.167 5.161 5.161 0 0 0 5.167 5.167c2.857 0 5.205-2.31 5.167-5.167-.039-2.909-2.322-5.167-5.167-5.167Z"/>
        <path fill="#3E4FE5" d="M121.27 47.718a6.893 6.893 0 0 0-6.889 6.889 6.893 6.893 0 0 0 6.889 6.889c3.801 0 6.94-3.088 6.889-6.89-.051-3.801-3.1-6.888-6.889-6.888Zm16.852-1.711a8.608 8.608 0 0 0-8.611 8.61 8.608 8.608 0 0 0 8.611 8.612c4.759 0 8.662-3.853 8.611-8.611-.051-4.759-3.878-8.611-8.611-8.611Zm16.853 1.711a6.893 6.893 0 0 0-6.889 6.889 6.893 6.893 0 0 0 6.889 6.889c3.801 0 6.94-3.088 6.888-6.89-.051-3.801-3.1-6.888-6.888-6.888Zm16.851 1.722a5.161 5.161 0 0 0-5.166 5.167 5.161 5.161 0 0 0 5.166 5.167c2.858 0 5.205-2.31 5.167-5.167-.038-2.909-2.322-5.167-5.167-5.167Zm16.853 1.721a3.446 3.446 0 0 0-3.444 3.445c0 1.9 1.543 3.444 3.444 3.444s3.47-1.544 3.445-3.444c-.026-1.901-1.557-3.445-3.445-3.445Z"/>
        <path fill="#C7579A" d="M3.317 64.571a6.893 6.893 0 0 0-6.889 6.89 6.893 6.893 0 0 0 6.889 6.888 6.893 6.893 0 0 0 6.889-6.889c-.102-3.878-3.1-6.889-6.89-6.889Zm16.853 1.722a5.161 5.161 0 0 0-5.167 5.167 5.161 5.161 0 0 0 5.166 5.166c2.858 0 5.205-2.309 5.167-5.166-.038-2.909-2.322-5.167-5.167-5.167Z"/>
        <path fill="#3E4FE5" d="M37.022 68.014a3.446 3.446 0 0 0-3.445 3.444c0 1.9 1.544 3.445 3.445 3.445 1.9 0 3.47-1.544 3.444-3.445-.026-1.9-1.556-3.444-3.444-3.444Zm16.851-1.721a5.161 5.161 0 0 0-5.166 5.167 5.161 5.161 0 0 0 5.166 5.166c2.858 0 5.205-2.309 5.167-5.166-.038-2.909-2.322-5.167-5.166-5.167Z"/>
        <path fill="#F27C4F" d="M70.726 66.293a5.161 5.161 0 0 0-5.167 5.167 5.161 5.161 0 0 0 5.167 5.166c2.858 0 5.205-2.309 5.167-5.166-.039-2.909-2.322-5.167-5.167-5.167Zm16.84 0a5.161 5.161 0 0 0-5.167 5.167 5.161 5.161 0 0 0 5.167 5.166c2.857 0 5.204-2.309 5.166-5.166-.038-2.858-2.322-5.167-5.166-5.167Z"/>
        <path fill="#C7579A" d="M104.417 64.571a6.893 6.893 0 0 0-6.888 6.89 6.893 6.893 0 0 0 6.888 6.888c3.802 0 6.94-3.087 6.889-6.889-.051-3.801-3.1-6.889-6.889-6.889Zm16.853 0a6.893 6.893 0 0 0-6.889 6.89 6.893 6.893 0 0 0 6.889 6.888c3.801 0 6.94-3.087 6.889-6.889-.051-3.801-3.1-6.889-6.889-6.889Z"/>
        <path fill="#3E4FE5" d="M138.122 64.571a6.893 6.893 0 0 0-6.889 6.89 6.893 6.893 0 0 0 6.889 6.888c3.802 0 6.94-3.087 6.889-6.889-.051-3.801-3.1-6.889-6.889-6.889ZM3.317 81.422a6.893 6.893 0 0 0-6.889 6.889A6.893 6.893 0 0 0 3.317 95.2a6.893 6.893 0 0 0 6.889-6.89c-.102-3.877-3.1-6.888-6.89-6.888Z"/>
        <path fill="#C7579A" d="M20.17 81.422a6.893 6.893 0 0 0-6.89 6.889 6.893 6.893 0 0 0 6.89 6.889c3.801 0 6.94-3.088 6.888-6.89-.05-3.877-3.1-6.888-6.889-6.888Zm16.851 1.723a5.161 5.161 0 0 0-5.166 5.167 5.161 5.161 0 0 0 5.166 5.167c2.858 0 5.205-2.31 5.167-5.167-.038-2.857-2.322-5.166-5.167-5.166Z"/>
        <path fill="#3E4FE5" d="M53.873 83.145a5.161 5.161 0 0 0-5.166 5.167 5.161 5.161 0 0 0 5.166 5.167c2.858 0 5.205-2.31 5.167-5.167-.038-2.909-2.322-5.166-5.166-5.166Z"/>
        <path fill="#F27C4F" d="M70.726 81.422a6.893 6.893 0 0 0-6.889 6.889 6.893 6.893 0 0 0 6.889 6.889c3.802 0 6.94-3.088 6.889-6.89-.051-3.877-3.1-6.888-6.889-6.888Zm16.84 0a6.893 6.893 0 0 0-6.89 6.889 6.893 6.893 0 0 0 6.89 6.889c3.801 0 6.94-3.088 6.888-6.89-.05-3.8-3.1-6.888-6.888-6.888Zm16.852 1.723a5.161 5.161 0 0 0-5.167 5.167 5.161 5.161 0 0 0 5.167 5.167c2.857 0 5.205-2.31 5.167-5.167-.039-2.909-2.322-5.166-5.167-5.166Zm16.852 0a5.161 5.161 0 0 0-5.167 5.167 5.161 5.161 0 0 0 5.167 5.167c2.857 0 5.205-2.31 5.166-5.167-.038-2.857-2.321-5.166-5.166-5.166Z"/>
        <path fill="#C7579A" d="M138.122 83.145a5.161 5.161 0 0 0-5.166 5.167 5.161 5.161 0 0 0 5.166 5.167c2.858 0 5.205-2.31 5.167-5.167-.038-2.857-2.322-5.166-5.167-5.166Z"/>
        <path fill="#3E4FE5" d="M3.317 99.997a5.161 5.161 0 0 0-5.167 5.167 5.161 5.161 0 0 0 5.167 5.166 5.161 5.161 0 0 0 5.166-5.166c-.076-2.909-2.321-5.167-5.166-5.167Z"/>
        <path fill="#C7579A" d="M20.17 98.274a6.893 6.893 0 0 0-6.89 6.889 6.893 6.893 0 0 0 6.89 6.889c3.801 0 6.94-3.087 6.888-6.889-.05-3.878-3.1-6.889-6.889-6.889Zm16.851 1.723a5.161 5.161 0 0 0-5.166 5.167 5.161 5.161 0 0 0 5.166 5.166c2.858 0 5.205-2.309 5.167-5.166-.038-2.858-2.322-5.167-5.167-5.167Zm16.852-1.723a6.893 6.893 0 0 0-6.888 6.889 6.893 6.893 0 0 0 6.889 6.889c3.801 0 6.94-3.087 6.888-6.889-.05-3.801-3.1-6.889-6.889-6.889Z"/>
        <path fill="#FFC72C" d="M70.726 98.274a6.893 6.893 0 0 0-6.889 6.889 6.893 6.893 0 0 0 6.889 6.889c3.802 0 6.94-3.087 6.889-6.889-.051-3.878-3.1-6.889-6.889-6.889Zm16.84-1.724a8.607 8.607 0 0 0-8.611 8.612 8.608 8.608 0 0 0 8.61 8.611c4.76 0 8.663-3.853 8.612-8.611-.064-4.848-3.878-8.611-8.611-8.611Z"/>
        <path fill="#F27C4F" d="M104.417 98.274a6.893 6.893 0 0 0-6.888 6.889 6.893 6.893 0 0 0 6.888 6.889c3.802 0 6.94-3.087 6.889-6.889-.051-3.801-3.1-6.889-6.889-6.889Zm16.853 1.723a5.161 5.161 0 0 0-5.167 5.167 5.161 5.161 0 0 0 5.167 5.166c2.857 0 5.205-2.309 5.166-5.166-.038-2.858-2.321-5.167-5.166-5.167Zm16.852 0a5.161 5.161 0 0 0-5.166 5.167 5.161 5.161 0 0 0 5.166 5.166c2.858 0 5.205-2.309 5.167-5.166-.038-2.858-2.322-5.167-5.167-5.167Z"/>
        <path fill="#C7579A" d="M154.975 99.997a5.161 5.161 0 0 0-5.167 5.167 5.161 5.161 0 0 0 5.167 5.166c2.857 0 5.204-2.309 5.166-5.166-.038-2.909-2.322-5.167-5.166-5.167ZM3.317 116.85a5.161 5.161 0 0 0-5.167 5.166 5.161 5.161 0 0 0 5.167 5.167 5.161 5.161 0 0 0 5.166-5.167c-.076-2.908-2.321-5.166-5.166-5.166Zm16.853-1.722a6.893 6.893 0 0 0-6.89 6.889 6.893 6.893 0 0 0 6.89 6.889c3.801 0 6.94-3.088 6.888-6.889-.05-3.878-3.1-6.889-6.889-6.889Zm16.851 0a6.893 6.893 0 0 0-6.889 6.889 6.893 6.893 0 0 0 6.89 6.889c3.8 0 6.94-3.088 6.888-6.889-.05-3.802-3.1-6.889-6.889-6.889Z"/>
        <path fill="#FFC72C" d="M53.873 115.128a6.893 6.893 0 0 0-6.888 6.889 6.893 6.893 0 0 0 6.889 6.889c3.801 0 6.94-3.088 6.888-6.889-.05-3.802-3.1-6.889-6.889-6.889Zm16.853-1.725a8.608 8.608 0 0 0-8.611 8.611 8.608 8.608 0 0 0 8.611 8.612c4.758 0 8.662-3.853 8.611-8.612-.064-4.847-3.878-8.611-8.61-8.611Z"/>
        <path fill="#FFC72C" d="M87.566 113.403a8.608 8.608 0 0 0-8.611 8.611 8.608 8.608 0 0 0 8.61 8.612c4.76 0 8.663-3.853 8.612-8.612-.064-4.847-3.878-8.611-8.611-8.611Z"/>
        <path fill="#FFC72C" d="M104.418 113.403a8.608 8.608 0 0 0-8.612 8.611 8.608 8.608 0 0 0 8.612 8.612c4.758 0 8.662-3.853 8.611-8.612-.064-4.847-3.879-8.611-8.611-8.611Zm16.852 1.725a6.892 6.892 0 0 0-6.889 6.889 6.893 6.893 0 0 0 6.889 6.889c3.801 0 6.94-3.088 6.889-6.889-.051-3.802-3.1-6.889-6.889-6.889Z"/>
        <path fill="#F27C4F" d="M138.122 115.128a6.893 6.893 0 0 0-6.889 6.889 6.894 6.894 0 0 0 6.889 6.889c3.802 0 6.94-3.088 6.889-6.889-.051-3.802-3.1-6.889-6.889-6.889Zm16.853 1.722a5.161 5.161 0 0 0-5.167 5.166 5.161 5.161 0 0 0 5.167 5.167c2.857 0 5.204-2.309 5.166-5.167-.038-2.908-2.322-5.166-5.166-5.166Zm16.852 1.723a3.445 3.445 0 0 0 0 6.889c1.901 0 3.47-1.543 3.444-3.444-.025-1.901-1.556-3.445-3.444-3.445Z"/>
        <path fill="#C7579A" d="M3.317 131.979a6.892 6.892 0 0 0-6.889 6.888 6.893 6.893 0 0 0 6.889 6.889 6.893 6.893 0 0 0 6.889-6.889c-.102-3.878-3.1-6.888-6.89-6.888Zm16.853 0a6.892 6.892 0 0 0-6.89 6.888 6.893 6.893 0 0 0 6.89 6.889c3.801 0 6.94-3.087 6.888-6.889-.05-3.878-3.1-6.888-6.889-6.888Z"/>
        <path fill="#FFC72C" d="M37.021 131.979a6.892 6.892 0 0 0-6.889 6.888 6.893 6.893 0 0 0 6.89 6.889c3.8 0 6.94-3.087 6.888-6.889-.05-3.801-3.1-6.888-6.889-6.888Zm16.853-1.722a8.608 8.608 0 0 0-8.611 8.611 8.608 8.608 0 0 0 8.61 8.611c4.76 0 8.663-3.853 8.612-8.611-.064-4.848-3.878-8.611-8.611-8.611Z"/>
        <path fill="#FFC72C" d="M70.726 128.535c-5.702 0-10.333 4.631-10.333 10.333 0 5.703 4.63 10.321 10.333 10.321s10.397-4.618 10.334-10.321c-.077-5.817-4.657-10.333-10.334-10.333Z"/>
        <path fill="#FFC72C" d="M87.566 128.535c-5.703 0-10.334 4.631-10.334 10.333 0 5.703 4.631 10.321 10.334 10.321 5.702 0 10.397-4.618 10.333-10.321-.076-5.817-4.656-10.333-10.333-10.333Z"/>
        <path fill="#FFC72C" d="M104.418 128.535c-5.703 0-10.334 4.631-10.334 10.333 0 5.703 4.631 10.321 10.334 10.321 5.702 0 10.397-4.618 10.333-10.321-.076-5.817-4.656-10.333-10.333-10.333Z"/>
        <path fill="#FFC72C" d="M121.27 130.257a8.607 8.607 0 0 0-8.611 8.611 8.607 8.607 0 0 0 8.611 8.611c4.758 0 8.662-3.853 8.611-8.611-.051-4.758-3.878-8.611-8.611-8.611Z"/>
        <path fill="#FFC72C" d="M138.122 130.257a8.608 8.608 0 0 0-8.611 8.611 8.608 8.608 0 0 0 8.611 8.611c4.759 0 8.662-3.853 8.611-8.611-.051-4.758-3.878-8.611-8.611-8.611Z"/>
        <path fill="#F27C4F" d="M154.975 131.979a6.892 6.892 0 0 0-6.889 6.888 6.892 6.892 0 0 0 6.889 6.889c3.801 0 6.94-3.087 6.888-6.889-.051-3.801-3.1-6.888-6.888-6.888Z"/>
    </g>
</svg>