<svg width="58" height="36" viewBox="0 0 58 36" fill="none" xmlns="http://www.w3.org/2000/svg">
<path d="M55.037 0H2.96296C1.32656 0 0 1.32656 0 2.96296V33.037C0 34.6734 1.32657 36 2.96296 36H55.037C56.6734 36 58 34.6734 58 33.037V2.96296C58 1.32656 56.6734 0 55.037 0Z" fill="#3E4FE5"/>
<mask id="mask0_9975_195126" style="mask-type:alpha" maskUnits="userSpaceOnUse" x="0" y="0" width="58" height="36">
<path d="M55.037 0H2.96296C1.32656 0 0 1.32656 0 2.96296V33.037C0 34.6734 1.32657 36 2.96296 36H55.037C56.6734 36 58 34.6734 58 33.037V2.96296C58 1.32656 56.6734 0 55.037 0Z" fill="#212721"/>
</mask>
<g mask="url(#mask0_9975_195126)">
<g opacity="0.25">
<path d="M2.92293 17C2.60883 17 2.35376 17.2489 2.35376 17.5553C2.35376 17.8618 2.60883 18.1106 2.92293 18.1106C3.23702 18.1106 3.49631 17.8618 3.49209 17.5553C3.48788 17.2489 3.23492 17 2.92293 17Z" fill="#F27C4F"/>
<path d="M2.92309 19.4414C2.45089 19.4414 2.06934 19.8137 2.06934 20.2744C2.06934 20.7351 2.45089 21.1073 2.92309 21.1073C3.39529 21.1073 3.78316 20.7351 3.77684 20.2744C3.77051 19.8054 3.39318 19.4414 2.92309 19.4414Z" fill="#F27C4F"/>
<path d="M22.4138 19.4414C21.9416 19.4414 21.5601 19.8137 21.5601 20.2744C21.5601 20.7351 21.9416 21.1073 22.4138 21.1073C22.886 21.1073 23.2739 20.7351 23.2676 20.2744C23.2612 19.8137 22.8839 19.4414 22.4138 19.4414Z" fill="#3E4FE5"/>
<path d="M0.138259 22.4336C-0.175837 22.4336 -0.430908 22.6825 -0.430908 22.9889C-0.430908 23.2954 -0.175837 23.5442 0.138259 23.5442C0.452356 23.5442 0.707427 23.2954 0.707427 22.9889C0.698995 22.6763 0.450248 22.4336 0.138259 22.4336Z" fill="#3E4FE5"/>
<path d="M2.92309 22.1562C2.45089 22.1562 2.06934 22.5285 2.06934 22.9892C2.06934 23.4499 2.45089 23.8222 2.92309 23.8222C3.39529 23.8222 3.78316 23.4499 3.77684 22.9892C3.77051 22.5203 3.39318 22.1562 2.92309 22.1562Z" fill="#F27C4F"/>
<path d="M16.8445 22.1562C16.3723 22.1562 15.9907 22.5285 15.9907 22.9892C15.9907 23.4499 16.3723 23.8222 16.8445 23.8222C17.3167 23.8222 17.7045 23.4499 17.6982 22.9892C17.6919 22.5203 17.3146 22.1562 16.8445 22.1562Z" fill="#C7579A"/>
<path d="M22.414 21.8809C21.7858 21.8809 21.2756 22.3786 21.2756 22.9915C21.2756 23.6044 21.7858 24.1021 22.414 24.1021C23.0422 24.1021 23.5607 23.6044 23.5523 22.9915C23.5439 22.3786 23.0401 21.8809 22.414 21.8809Z" fill="#3E4FE5"/>
<path d="M25.1983 22.4336C24.8842 22.4336 24.6292 22.6825 24.6292 22.9889C24.6292 23.2954 24.8842 23.5442 25.1983 23.5442C25.5124 23.5442 25.7717 23.2954 25.7675 22.9889C25.7633 22.6825 25.5103 22.4336 25.1983 22.4336Z" fill="#3E4FE5"/>
<path d="M0.138419 24.873C-0.333779 24.873 -0.715332 25.2453 -0.715332 25.706C-0.715332 26.1667 -0.333779 26.539 0.138419 26.539C0.610617 26.539 0.99217 26.1667 0.99217 25.706C0.979522 25.2371 0.608509 24.873 0.138419 24.873Z" fill="#C7579A"/>
<path d="M2.92309 24.873C2.45089 24.873 2.06934 25.2453 2.06934 25.706C2.06934 26.1667 2.45089 26.539 2.92309 26.539C3.39529 26.539 3.78316 26.1667 3.77684 25.706C3.77051 25.2371 3.39318 24.873 2.92309 24.873Z" fill="#3E4FE5"/>
<path d="M5.70784 25.1504C5.39374 25.1504 5.13867 25.3993 5.13867 25.7057C5.13867 26.0122 5.39374 26.261 5.70784 26.261C6.02194 26.261 6.28122 26.0122 6.27701 25.7057C6.27279 25.3993 6.01983 25.1504 5.70784 25.1504Z" fill="#3E4FE5"/>
<path d="M8.49251 25.1504C8.17841 25.1504 7.92334 25.3993 7.92334 25.7057C7.92334 26.0122 8.17841 26.261 8.49251 26.261C8.8066 26.261 9.06589 26.0122 9.06168 25.7057C9.05746 25.3993 8.8045 25.1504 8.49251 25.1504Z" fill="#F27C4F"/>
<path d="M11.2771 24.873C10.8049 24.873 10.4233 25.2453 10.4233 25.706C10.4233 26.1667 10.8049 26.539 11.2771 26.539C11.7493 26.539 12.1372 26.1667 12.1308 25.706C12.1245 25.2371 11.7472 24.873 11.2771 24.873Z" fill="#C7579A"/>
<path d="M14.0596 25.1504C13.7455 25.1504 13.4905 25.3993 13.4905 25.7057C13.4905 26.0122 13.7455 26.261 14.0596 26.261C14.3737 26.261 14.633 26.0122 14.6288 25.7057C14.6246 25.3993 14.3716 25.1504 14.0596 25.1504Z" fill="#C7579A"/>
<path d="M16.8445 24.873C16.3723 24.873 15.9907 25.2453 15.9907 25.706C15.9907 26.1667 16.3723 26.539 16.8445 26.539C17.3167 26.539 17.7045 26.1667 17.6982 25.706C17.6919 25.2371 17.3146 24.873 16.8445 24.873Z" fill="#C7579A"/>
<path d="M19.6291 24.5957C19.0009 24.5957 18.4907 25.0934 18.4907 25.7063C18.4907 26.3192 19.0009 26.817 19.6291 26.817C20.2572 26.817 20.7758 26.3192 20.7674 25.7063C20.759 25.0934 20.2551 24.5957 19.6291 24.5957Z" fill="#3E4FE5"/>
<path d="M22.4139 24.3203C21.6276 24.3203 20.991 24.9414 20.991 25.7086C20.991 26.4758 21.6276 27.0969 22.4139 27.0969C23.2002 27.0969 23.8452 26.4758 23.8368 25.7086C23.8284 24.9414 23.196 24.3203 22.4139 24.3203Z" fill="#3E4FE5"/>
<path d="M25.1986 24.5957C24.5704 24.5957 24.0603 25.0934 24.0603 25.7063C24.0603 26.3192 24.5704 26.817 25.1986 26.817C25.8268 26.817 26.3454 26.3192 26.337 25.7063C26.3285 25.0934 25.8247 24.5957 25.1986 24.5957Z" fill="#3E4FE5"/>
<path d="M27.9831 24.873C27.5109 24.873 27.1294 25.2453 27.1294 25.706C27.1294 26.1667 27.5109 26.539 27.9831 26.539C28.4553 26.539 28.8432 26.1667 28.8369 25.706C28.8306 25.2371 28.4532 24.873 27.9831 24.873Z" fill="#3E4FE5"/>
<path d="M30.7681 25.1504C30.454 25.1504 30.199 25.3993 30.199 25.7057C30.199 26.0122 30.454 26.261 30.7681 26.261C31.0822 26.261 31.3415 26.0122 31.3373 25.7057C31.3331 25.3993 31.0801 25.1504 30.7681 25.1504Z" fill="#3E4FE5"/>
<path d="M0.138335 27.3125C-0.489857 27.3125 -1 27.8102 -1 28.4231C-1 29.036 -0.489857 29.5338 0.138335 29.5338C0.766527 29.5338 1.27667 29.036 1.27667 28.4231C1.25981 27.7979 0.764419 27.3125 0.138335 27.3125Z" fill="#C7579A"/>
<path d="M2.92309 27.5898C2.45089 27.5898 2.06934 27.9621 2.06934 28.4228C2.06934 28.8835 2.45089 29.2558 2.92309 29.2558C3.39529 29.2558 3.78316 28.8835 3.77684 28.4228C3.77051 27.9539 3.39318 27.5898 2.92309 27.5898Z" fill="#C7579A"/>
<path d="M5.70784 27.8672C5.39374 27.8672 5.13867 28.116 5.13867 28.4225C5.13867 28.729 5.39374 28.9778 5.70784 28.9778C6.02194 28.9778 6.28122 28.729 6.27701 28.4225C6.27279 28.116 6.01983 27.8672 5.70784 27.8672Z" fill="#3E4FE5"/>
<path d="M8.49242 27.5898C8.02022 27.5898 7.63867 27.9621 7.63867 28.4228C7.63867 28.8835 8.02022 29.2558 8.49242 29.2558C8.96462 29.2558 9.3525 28.8835 9.34617 28.4228C9.33985 27.9539 8.96251 27.5898 8.49242 27.5898Z" fill="#3E4FE5"/>
<path d="M11.2773 27.5898C10.8051 27.5898 10.4236 27.9621 10.4236 28.4228C10.4236 28.8835 10.8051 29.2558 11.2773 29.2558C11.7495 29.2558 12.1374 28.8835 12.1311 28.4228C12.1248 27.9539 11.7474 27.5898 11.2773 27.5898Z" fill="#F27C4F"/>
<path d="M14.0598 27.5898C13.5876 27.5898 13.2061 27.9621 13.2061 28.4228C13.2061 28.8835 13.5876 29.2558 14.0598 29.2558C14.532 29.2558 14.9199 28.8835 14.9136 28.4228C14.9072 27.9621 14.5299 27.5898 14.0598 27.5898Z" fill="#F27C4F"/>
<path d="M16.8444 27.3125C16.2162 27.3125 15.7061 27.8102 15.7061 28.4231C15.7061 29.036 16.2162 29.5338 16.8444 29.5338C17.4726 29.5338 17.9912 29.036 17.9827 28.4231C17.9743 27.8102 17.4705 27.3125 16.8444 27.3125Z" fill="#C7579A"/>
<path d="M19.6291 27.3125C19.0009 27.3125 18.4907 27.8102 18.4907 28.4231C18.4907 29.036 19.0009 29.5338 19.6291 29.5338C20.2572 29.5338 20.7758 29.036 20.7674 28.4231C20.759 27.8102 20.2551 27.3125 19.6291 27.3125Z" fill="#C7579A"/>
<path d="M22.414 27.3125C21.7858 27.3125 21.2756 27.8102 21.2756 28.4231C21.2756 29.036 21.7858 29.5338 22.414 29.5338C23.0422 29.5338 23.5607 29.036 23.5523 28.4231C23.5439 27.8102 23.0401 27.3125 22.414 27.3125Z" fill="#3E4FE5"/>
<path d="M0.138335 30.0293C-0.489857 30.0293 -1 30.527 -1 31.1399C-1 31.7528 -0.489857 32.2505 0.138335 32.2505C0.766527 32.2505 1.27667 31.7528 1.27667 31.1399C1.25981 30.5147 0.764419 30.0293 0.138335 30.0293Z" fill="#3E4FE5"/>
<path d="M2.923 30.0293C2.29481 30.0293 1.78467 30.527 1.78467 31.1399C1.78467 31.7528 2.29481 32.2505 2.923 32.2505C3.55119 32.2505 4.06977 31.7528 4.06134 31.1399C4.05291 30.5147 3.54909 30.0293 2.923 30.0293Z" fill="#C7579A"/>
<path d="M5.70775 30.3086C5.23556 30.3086 4.854 30.6809 4.854 31.1416C4.854 31.6023 5.23556 31.9745 5.70775 31.9745C6.17995 31.9745 6.56783 31.6023 6.56151 31.1416C6.55518 30.6809 6.17785 30.3086 5.70775 30.3086Z" fill="#C7579A"/>
<path d="M8.49242 30.3086C8.02022 30.3086 7.63867 30.6809 7.63867 31.1416C7.63867 31.6023 8.02022 31.9745 8.49242 31.9745C8.96462 31.9745 9.3525 31.6023 9.34617 31.1416C9.33985 30.6726 8.96251 30.3086 8.49242 30.3086Z" fill="#3E4FE5"/>
<path d="M11.2773 30.0293C10.6491 30.0293 10.1389 30.527 10.1389 31.1399C10.1389 31.7528 10.6491 32.2505 11.2773 32.2505C11.9054 32.2505 12.424 31.7528 12.4156 31.1399C12.4072 30.5147 11.9033 30.0293 11.2773 30.0293Z" fill="#F27C4F"/>
<path d="M14.0597 30.0293C13.4315 30.0293 12.9214 30.527 12.9214 31.1399C12.9214 31.7528 13.4315 32.2505 14.0597 32.2505C14.6879 32.2505 15.2065 31.7528 15.1981 31.1399C15.1896 30.527 14.6858 30.0293 14.0597 30.0293Z" fill="#F27C4F"/>
<path d="M16.8445 30.3086C16.3723 30.3086 15.9907 30.6809 15.9907 31.1416C15.9907 31.6023 16.3723 31.9745 16.8445 31.9745C17.3167 31.9745 17.7045 31.6023 17.6982 31.1416C17.6919 30.6726 17.3146 30.3086 16.8445 30.3086Z" fill="#F27C4F"/>
<path d="M19.6291 30.3086C19.1569 30.3086 18.7754 30.6809 18.7754 31.1416C18.7754 31.6023 19.1569 31.9745 19.6291 31.9745C20.1013 31.9745 20.4892 31.6023 20.4829 31.1416C20.4766 30.6809 20.0992 30.3086 19.6291 30.3086Z" fill="#F27C4F"/>
<path d="M22.4138 30.3086C21.9416 30.3086 21.5601 30.6809 21.5601 31.1416C21.5601 31.6023 21.9416 31.9745 22.4138 31.9745C22.886 31.9745 23.2739 31.6023 23.2676 31.1416C23.2612 30.6809 22.8839 30.3086 22.4138 30.3086Z" fill="#C7579A"/>
<path d="M0.138419 33.0234C-0.333779 33.0234 -0.715332 33.3957 -0.715332 33.8564C-0.715332 34.3171 -0.333779 34.6894 0.138419 34.6894C0.610617 34.6894 0.99217 34.3171 0.99217 33.8564C0.979522 33.3875 0.608509 33.0234 0.138419 33.0234Z" fill="#3E4FE5"/>
<path d="M2.923 32.7461C2.29481 32.7461 1.78467 33.2438 1.78467 33.8567C1.78467 34.4696 2.29481 34.9673 2.923 34.9673C3.55119 34.9673 4.06977 34.4696 4.06134 33.8567C4.05291 33.2315 3.54909 32.7461 2.923 32.7461Z" fill="#C7579A"/>
<path d="M5.70775 33.0234C5.23556 33.0234 4.854 33.3957 4.854 33.8564C4.854 34.3171 5.23556 34.6894 5.70775 34.6894C6.17995 34.6894 6.56783 34.3171 6.56151 33.8564C6.55518 33.3957 6.17785 33.0234 5.70775 33.0234Z" fill="#C7579A"/>
<path d="M8.49234 32.7461C7.86415 32.7461 7.354 33.2438 7.354 33.8567C7.354 34.4696 7.86415 34.9673 8.49234 34.9673C9.12053 34.9673 9.63911 34.4696 9.63067 33.8567C9.62224 33.2438 9.11842 32.7461 8.49234 32.7461Z" fill="#C7579A"/>
<path d="M11.2773 32.7461C10.6491 32.7461 10.1389 33.2438 10.1389 33.8567C10.1389 34.4696 10.6491 34.9673 11.2773 34.9673C11.9054 34.9673 12.424 34.4696 12.4156 33.8567C12.4072 33.2315 11.9033 32.7461 11.2773 32.7461Z" fill="#FFC72C"/>
<path d="M14.0596 32.4688C13.2733 32.4688 12.6367 33.0899 12.6367 33.857C12.6367 34.6242 13.2733 35.2453 14.0596 35.2453C14.8459 35.2453 15.491 34.6242 15.4826 33.857C15.472 33.0755 14.8417 32.4688 14.0596 32.4688Z" fill="#FFC72C"/>
<path d="M16.8444 32.7461C16.2162 32.7461 15.7061 33.2438 15.7061 33.8567C15.7061 34.4696 16.2162 34.9673 16.8444 34.9673C17.4726 34.9673 17.9912 34.4696 17.9827 33.8567C17.9743 33.2438 17.4705 32.7461 16.8444 32.7461Z" fill="#F27C4F"/>
<path d="M19.6291 33.0234C19.1569 33.0234 18.7754 33.3957 18.7754 33.8564C18.7754 34.3171 19.1569 34.6894 19.6291 34.6894C20.1013 34.6894 20.4892 34.3171 20.4829 33.8564C20.4766 33.3957 20.0992 33.0234 19.6291 33.0234Z" fill="#F27C4F"/>
<path d="M22.4138 33.0234C21.9416 33.0234 21.5601 33.3957 21.5601 33.8564C21.5601 34.3171 21.9416 34.6894 22.4138 34.6894C22.886 34.6894 23.2739 34.3171 23.2676 33.8564C23.2612 33.3957 22.8839 33.0234 22.4138 33.0234Z" fill="#F27C4F"/>
<path d="M25.1985 33.0234C24.7263 33.0234 24.3447 33.3957 24.3447 33.8564C24.3447 34.3171 24.7263 34.6894 25.1985 34.6894C25.6707 34.6894 26.0586 34.3171 26.0522 33.8564C26.0459 33.3875 25.6686 33.0234 25.1985 33.0234Z" fill="#C7579A"/>
<path d="M0.138419 35.7422C-0.333779 35.7422 -0.715332 36.1145 -0.715332 36.5752C-0.715332 37.0359 -0.333779 37.4081 0.138419 37.4081C0.610617 37.4081 0.99217 37.0359 0.99217 36.5752C0.979522 36.1062 0.608509 35.7422 0.138419 35.7422Z" fill="#C7579A"/>
<path d="M2.92325 35.4648C2.29505 35.4648 1.78491 35.9626 1.78491 36.5755C1.78491 37.1884 2.29505 37.6861 2.92325 37.6861C3.55144 37.6861 4.07001 37.1884 4.06158 36.5755C4.05315 35.9502 3.54933 35.4648 2.92325 35.4648Z" fill="#C7579A"/>
<path d="M5.70767 35.4648C5.07948 35.4648 4.56934 35.9626 4.56934 36.5755C4.56934 37.1884 5.07948 37.6861 5.70767 37.6861C6.33586 37.6861 6.85444 37.1884 6.84601 36.5755C6.83757 35.9626 6.33376 35.4648 5.70767 35.4648Z" fill="#C7579A"/>
<path d="M8.49234 35.4648C7.86415 35.4648 7.354 35.9626 7.354 36.5755C7.354 37.1884 7.86415 37.6861 8.49234 37.6861C9.12053 37.6861 9.63911 37.1884 9.63067 36.5755C9.62224 35.9626 9.11842 35.4648 8.49234 35.4648Z" fill="#FFC72C"/>
<path d="M11.2772 35.1855C10.4909 35.1855 9.85425 35.8067 9.85425 36.5738C9.85425 37.341 10.4909 37.9621 11.2772 37.9621C12.0635 37.9621 12.7085 37.341 12.7001 36.5738C12.6895 35.7923 12.0592 35.1855 11.2772 35.1855Z" fill="#FFC72C"/>
<path d="M14.0596 35.1855C13.2733 35.1855 12.6367 35.8067 12.6367 36.5738C12.6367 37.341 13.2733 37.9621 14.0596 37.9621C14.8459 37.9621 15.491 37.341 15.4826 36.5738C15.472 35.7923 14.8417 35.1855 14.0596 35.1855Z" fill="#FFC72C"/>
<path d="M16.8445 35.1855C16.0583 35.1855 15.4216 35.8067 15.4216 36.5738C15.4216 37.341 16.0583 37.9621 16.8445 37.9621C17.6308 37.9621 18.2759 37.341 18.2675 36.5738C18.2569 35.7923 17.6266 35.1855 16.8445 35.1855Z" fill="#FFC72C"/>
<path d="M19.6291 35.4648C19.0009 35.4648 18.4907 35.9626 18.4907 36.5755C18.4907 37.1884 19.0009 37.6861 19.6291 37.6861C20.2572 37.6861 20.7758 37.1884 20.7674 36.5755C20.759 35.9626 20.2551 35.4648 19.6291 35.4648Z" fill="#FFC72C"/>
<path d="M22.414 35.4648C21.7858 35.4648 21.2756 35.9626 21.2756 36.5755C21.2756 37.1884 21.7858 37.6861 22.414 37.6861C23.0422 37.6861 23.5607 37.1884 23.5523 36.5755C23.5439 35.9626 23.0401 35.4648 22.414 35.4648Z" fill="#F27C4F"/>
<path d="M25.1985 35.7422C24.7263 35.7422 24.3447 36.1145 24.3447 36.5752C24.3447 37.0359 24.7263 37.4081 25.1985 37.4081C25.6707 37.4081 26.0586 37.0359 26.0522 36.5752C26.0459 36.1062 25.6686 35.7422 25.1985 35.7422Z" fill="#F27C4F"/>
</g>
<path d="M12.9511 12.0625H7.41841C6.89244 12.0625 6.46606 12.4785 6.46606 12.9917V16.6245C6.46606 17.1377 6.89244 17.5537 7.41841 17.5537H12.9511C13.4771 17.5537 13.9034 17.1377 13.9034 16.6245V12.9917C13.9034 12.4785 13.4771 12.0625 12.9511 12.0625Z" fill="url(#paint0_linear_9975_195126)"/>
<path d="M13.7837 14.1634H13.9031V15.4349H13.7837V14.1634ZM6.58505 14.1634H6.46571V15.4349H6.58505V14.1634ZM9.95048 12.0629H8.95995V12.1793H9.95048V12.0629ZM10.361 12.1793H11.3516V12.0629H10.361V12.1793ZM9.95048 17.4353H8.95995V17.5517H9.95048V17.4353ZM10.361 17.5517H11.3516V17.4353H10.361V17.5517ZM6.68769 17.0184C6.62324 16.9043 6.58267 16.7739 6.58267 16.6318V15.8121H6.46332V16.6318C6.46332 16.8414 6.53732 17.0324 6.65904 17.1884L6.69007 17.0184H6.68769ZM7.40135 17.4353C7.20324 17.4353 7.02184 17.3631 6.88102 17.2466L6.72826 17.2723C6.90011 17.4446 7.13641 17.5517 7.40135 17.5517H8.79526V17.4353H7.40135ZM13.6119 12.3214C13.4424 12.163 13.2133 12.0629 12.9603 12.0629H11.5115V12.1793H12.9603C13.1465 12.1793 13.3183 12.2445 13.4567 12.347L13.6119 12.3214ZM13.6572 12.3703L13.631 12.5216C13.7241 12.652 13.7813 12.8104 13.7813 12.9804V13.7815H13.9007V12.9804C13.9007 12.7452 13.8076 12.531 13.6572 12.3679V12.3703ZM7.40135 12.0605C7.13164 12.0605 6.89057 12.1747 6.71872 12.3516L6.8667 12.3773C7.00991 12.2538 7.19608 12.1793 7.40135 12.1793H8.79526V12.0629H7.40135V12.0605ZM6.66143 12.4192C6.53732 12.5752 6.46094 12.7685 6.46094 12.9804V13.7815H6.58028V12.9804C6.58028 12.8383 6.62085 12.7056 6.69007 12.5892L6.66143 12.4215V12.4192ZM13.4329 17.2839C13.2992 17.377 13.1369 17.4329 12.9579 17.4329H11.5091V17.5494H12.9579C13.2013 17.5494 13.4209 17.4562 13.588 17.3095L13.4329 17.2839ZM13.779 15.8121V16.6318C13.779 16.7995 13.7264 16.9555 13.6357 17.0836L13.662 17.235C13.8076 17.072 13.8983 16.8624 13.8983 16.6295V15.8098H13.779V15.8121ZM11.6404 14.0237H13.8983V13.9072H11.6404C11.4065 13.9072 11.2203 14.0749 11.2203 14.3241V16.5666C11.2203 16.732 11.1248 16.8391 10.9553 16.8391H9.32513C9.15567 16.8391 9.0602 16.7297 9.0602 16.5666V13.0666C9.0602 12.9059 9.18908 12.7941 9.349 12.7941H9.97435C10.1438 12.7941 10.2106 12.7336 10.2106 12.5682V12.0652H10.0913V12.5682C10.0913 12.6404 10.0794 12.6777 9.99106 12.6777H9.35139C9.13896 12.6777 8.94085 12.8407 8.94085 13.0689V13.6557C8.94085 13.8118 8.83345 13.9119 8.67114 13.9119H6.46332V14.0283H8.67114C8.82867 14.0283 8.94085 14.1285 8.94085 14.2985V15.3161C8.94085 15.4279 8.8597 15.5676 8.68546 15.5676H6.46094V15.6841H8.68546C8.85493 15.6841 8.94085 15.8098 8.94085 15.9309V16.6039C8.94085 16.7972 9.11032 16.9602 9.32752 16.9602H10.0913V17.5564H10.2106V16.9602H10.9577C11.1773 16.9602 11.342 16.7972 11.342 16.6039V15.9216C11.342 15.7609 11.4781 15.6841 11.5926 15.6841H13.8983V15.5676C13.8983 15.5676 11.7311 15.5536 11.6022 15.5676C11.4733 15.5676 11.342 15.4815 11.342 15.3068V14.3287C11.342 14.1448 11.4685 14.0283 11.6404 14.0283" fill="#616164"/>
<path d="M47.2412 30.482L45.5704 34.3733H44.4796L43.6561 31.2691C43.606 31.0781 43.563 31.0083 43.4103 30.9268C43.1621 30.7964 42.7539 30.6729 42.3911 30.5961L42.4174 30.482H44.1741C44.3984 30.482 44.5989 30.6264 44.6491 30.8779L45.0835 33.1297L46.1575 30.482H47.2412ZM51.5136 33.1018C51.5184 32.0748 50.0576 32.0166 50.0672 31.5602C50.0695 31.4205 50.2056 31.2714 50.5039 31.2342C50.6519 31.2155 51.0577 31.1992 51.5207 31.4088L51.7021 30.5844C51.4539 30.4959 51.1341 30.4121 50.7379 30.4121C49.7187 30.4121 49.0002 30.9407 48.9955 31.6999C48.9883 32.2588 49.5086 32.5708 49.9001 32.7595C50.3011 32.9504 50.4371 33.0739 50.4347 33.2439C50.4323 33.5047 50.1125 33.6211 49.8165 33.6234C49.2986 33.6328 48.9979 33.486 48.7568 33.3789L48.5706 34.2312C48.8117 34.3384 49.2556 34.4338 49.7187 34.4385C50.8023 34.4385 51.5112 33.9169 51.516 33.1088L51.5136 33.1018ZM54.2083 34.3779H55.163L54.33 30.4866H53.4493C53.2512 30.4866 53.0841 30.5984 53.0101 30.7707L51.4635 34.3756H52.5447L52.7595 33.7934H54.0818L54.2059 34.3756L54.2083 34.3779ZM53.0579 32.9993L53.6021 31.5392L53.9147 32.9993H53.0579ZM48.7186 30.4866L47.8641 34.3779H46.833L47.6851 30.4866H48.7162H48.7186Z" fill="white"/>
</g>
<defs>
<linearGradient id="paint0_linear_9975_195126" x1="6.67372" y1="17.2067" x2="13.5834" y2="12.2495" gradientUnits="userSpaceOnUse">
<stop stop-color="#D4C48E"/>
<stop offset="0.1" stop-color="#D5C793"/>
<stop offset="0.24" stop-color="#DBCFA3"/>
<stop offset="0.39" stop-color="#E4DEBD"/>
<stop offset="0.52" stop-color="#EDEDD9"/>
<stop offset="0.73" stop-color="#DFD6B0"/>
<stop offset="0.9" stop-color="#D7C997"/>
<stop offset="1" stop-color="#D4C48E"/>
</linearGradient>
</defs>
</svg>
