<svg width="167" height="128" viewBox="0 0 167 128" fill="none" xmlns="http://www.w3.org/2000/svg">
<g opacity="0.1">
<path d="M15.8555 0.540039C14.1848 0.540039 12.8281 1.86372 12.8281 3.49371C12.8281 5.1237 14.1848 6.44738 15.8555 6.44738C17.5261 6.44738 18.9053 5.1237 18.8828 3.49371C18.8604 1.86372 17.5149 0.540039 15.8555 0.540039Z" fill="#F27C4F"/>
<path d="M15.8731 13.5039C13.3615 13.5039 11.332 15.484 11.332 17.9344C11.332 20.3849 13.3615 22.3649 15.8731 22.3649C18.3847 22.3649 20.4477 20.3849 20.4141 17.9344C20.3805 15.4402 18.3734 13.5039 15.8731 13.5039Z" fill="#F27C4F"/>
<path d="M119.549 13.5039C117.037 13.5039 115.008 15.484 115.008 17.9344C115.008 20.3849 117.037 22.3649 119.549 22.3649C122.06 22.3649 124.124 20.3849 124.09 17.9344C124.056 15.484 122.049 13.5039 119.549 13.5039Z" fill="#3E4FE5"/>
<path d="M1.0547 29.4609C-0.61595 29.4609 -1.97266 30.7846 -1.97266 32.4146C-1.97266 34.0446 -0.61595 35.3683 1.0547 35.3683C2.72536 35.3683 4.08206 34.0446 4.08206 32.4146C4.03721 30.7518 2.71414 29.4609 1.0547 29.4609" fill="#3E4FE5"/>
<path d="M15.8731 27.9648C13.3615 27.9648 11.332 29.9449 11.332 32.3954C11.332 34.8458 13.3615 36.8259 15.8731 36.8259C18.3847 36.8259 20.4477 34.8458 20.4141 32.3954C20.3805 29.9011 18.3734 27.9648 15.8731 27.9648Z" fill="#F27C4F"/>
<path d="M89.9238 27.9648C87.4123 27.9648 85.3828 29.9449 85.3828 32.3954C85.3828 34.8458 87.4123 36.8259 89.9238 36.8259C92.4354 36.8259 94.4985 34.8458 94.4649 32.3954C94.4312 29.9011 92.4242 27.9648 89.9238 27.9648Z" fill="#C7579A"/>
<path d="M119.523 26.5107C116.182 26.5107 113.469 29.1581 113.469 32.4181C113.469 35.6781 116.182 38.3254 119.523 38.3254C122.865 38.3254 125.623 35.6781 125.578 32.4181C125.533 29.1581 122.854 26.5107 119.523 26.5107Z" fill="#3E4FE5"/>
<path d="M134.344 29.4609C132.673 29.4609 131.316 30.7846 131.316 32.4146C131.316 34.0446 132.673 35.3683 134.344 35.3683C136.014 35.3683 137.394 34.0446 137.371 32.4146C137.349 30.7846 136.003 29.4609 134.344 29.4609Z" fill="#3E4FE5"/>
<path d="M1.05666 42.4258C-1.45492 42.4258 -3.48438 44.4058 -3.48438 46.8563C-3.48438 49.3067 -1.45492 51.2868 1.05666 51.2868C3.56825 51.2868 5.5977 49.3067 5.5977 46.8563C5.53042 44.3621 3.55704 42.4258 1.05666 42.4258" fill="#C7579A"/>
<path d="M15.8731 42.4258C13.3615 42.4258 11.332 44.4058 11.332 46.8563C11.332 49.3067 13.3615 51.2868 15.8731 51.2868C18.3847 51.2868 20.4477 49.3067 20.4141 46.8563C20.3805 44.3621 18.3734 42.4258 15.8731 42.4258Z" fill="#3E4FE5"/>
<path d="M30.6914 43.8809C29.0208 43.8809 27.6641 45.2045 27.6641 46.8345C27.6641 48.4645 29.0208 49.7882 30.6914 49.7882C32.3621 49.7882 33.7412 48.4645 33.7188 46.8345C33.6964 45.2045 32.3509 43.8809 30.6914 43.8809Z" fill="#3E4FE5"/>
<path d="M45.4844 43.8809C43.8137 43.8809 42.457 45.2045 42.457 46.8345C42.457 48.4645 43.8137 49.7882 45.4844 49.7882C47.155 49.7882 48.5342 48.4645 48.5117 46.8345C48.4893 45.2045 47.1438 43.8809 45.4844 43.8809Z" fill="#F27C4F"/>
<path d="M60.2949 42.4258C57.7834 42.4258 55.7539 44.4058 55.7539 46.8563C55.7539 49.3067 57.7834 51.2868 60.2949 51.2868C62.8065 51.2868 64.8696 49.3067 64.836 46.8563C64.8023 44.3621 62.7953 42.4258 60.2949 42.4258Z" fill="#C7579A"/>
<path d="M75.1094 43.8809C73.4387 43.8809 72.082 45.2045 72.082 46.8345C72.082 48.4645 73.4387 49.7882 75.1094 49.7882C76.78 49.7882 78.1592 48.4645 78.1367 46.8345C78.1143 45.2045 76.7688 43.8809 75.1094 43.8809Z" fill="#C7579A"/>
<path d="M89.9238 42.4258C87.4123 42.4258 85.3828 44.4058 85.3828 46.8563C85.3828 49.3067 87.4123 51.2868 89.9238 51.2868C92.4354 51.2868 94.4985 49.3067 94.4649 46.8563C94.4312 44.3621 92.4242 42.4258 89.9238 42.4258Z" fill="#C7579A"/>
<path d="M104.73 40.9307C101.389 40.9307 98.6758 43.578 98.6758 46.838C98.6758 50.098 101.389 52.7453 104.73 52.7453C108.072 52.7453 110.83 50.098 110.785 46.838C110.74 43.578 108.061 40.9307 104.73 40.9307Z" fill="#3E4FE5"/>
<path d="M119.541 39.4766C115.359 39.4766 111.973 42.7803 111.973 46.8607C111.973 50.9412 115.359 54.2449 119.541 54.2449C123.723 54.2449 127.154 50.9412 127.109 46.8607C127.065 42.7803 123.701 39.4766 119.541 39.4766Z" fill="#3E4FE5"/>
<path d="M134.367 40.9307C131.026 40.9307 128.312 43.578 128.312 46.838C128.312 50.098 131.026 52.7453 134.367 52.7453C137.709 52.7453 140.467 50.098 140.422 46.838C140.377 43.578 137.697 40.9307 134.367 40.9307Z" fill="#3E4FE5"/>
<path d="M149.158 42.4258C146.647 42.4258 144.617 44.4058 144.617 46.8563C144.617 49.3067 146.647 51.2868 149.158 51.2868C151.67 51.2868 153.733 49.3067 153.699 46.8563C153.666 44.3621 151.659 42.4258 149.158 42.4258Z" fill="#3E4FE5"/>
<path d="M163.969 43.8809C162.298 43.8809 160.941 45.2045 160.941 46.8345C160.941 48.4645 162.298 49.7882 163.969 49.7882C165.639 49.7882 167.019 48.4645 166.996 46.8345C166.974 45.2045 165.628 43.8809 163.969 43.8809Z" fill="#3E4FE5"/>
<path d="M1.05472 55.3916C-2.28659 55.3916 -5 58.039 -5 61.2989C-5 64.5589 -2.28659 67.2063 1.05472 67.2063C4.39602 67.2063 7.10943 64.5589 7.10943 61.2989C7.01973 57.9733 4.38481 55.3916 1.05472 55.3916Z" fill="#C7579A"/>
<path d="M15.8731 56.8867C13.3615 56.8867 11.332 58.8668 11.332 61.3172C11.332 63.7677 13.3615 65.7477 15.8731 65.7477C18.3847 65.7477 20.4477 63.7677 20.4141 61.3172C20.3805 58.823 18.3734 56.8867 15.8731 56.8867Z" fill="#C7579A"/>
<path d="M30.668 58.3418C28.9973 58.3418 27.6406 59.6655 27.6406 61.2955C27.6406 62.9255 28.9973 64.2491 30.668 64.2491C32.3386 64.2491 33.7178 62.9255 33.6953 61.2955C33.6729 59.6655 32.3274 58.3418 30.668 58.3418Z" fill="#3E4FE5"/>
<path d="M45.4981 56.8867C42.9865 56.8867 40.957 58.8668 40.957 61.3172C40.957 63.7677 42.9865 65.7477 45.4981 65.7477C48.0097 65.7477 50.0727 63.7677 50.0391 61.3172C50.0055 58.823 47.9984 56.8867 45.4981 56.8867Z" fill="#3E4FE5"/>
<path d="M60.2949 56.8867C57.7834 56.8867 55.7539 58.8668 55.7539 61.3172C55.7539 63.7677 57.7834 65.7477 60.2949 65.7477C62.8065 65.7477 64.8696 63.7677 64.836 61.3172C64.8023 58.823 62.7953 56.8867 60.2949 56.8867Z" fill="#F27C4F"/>
<path d="M75.084 56.8867C72.5724 56.8867 70.543 58.8668 70.543 61.3172C70.543 63.7677 72.5724 65.7477 75.084 65.7477C77.5956 65.7477 79.6587 63.7677 79.6251 61.3172C79.5914 58.8668 77.5844 56.8867 75.084 56.8867Z" fill="#F27C4F"/>
<path d="M89.8985 55.3916C86.5572 55.3916 83.8438 58.039 83.8438 61.2989C83.8438 64.5589 86.5572 67.2063 89.8985 67.2063C93.2398 67.2063 95.998 64.5589 95.9532 61.2989C95.9083 58.039 93.2286 55.3916 89.8985 55.3916Z" fill="#C7579A"/>
<path d="M104.73 55.3916C101.389 55.3916 98.6758 58.039 98.6758 61.2989C98.6758 64.5589 101.389 67.2063 104.73 67.2063C108.072 67.2063 110.83 64.5589 110.785 61.2989C110.74 58.039 108.061 55.3916 104.73 55.3916Z" fill="#C7579A"/>
<path d="M119.523 55.3916C116.182 55.3916 113.469 58.039 113.469 61.2989C113.469 64.5589 116.182 67.2063 119.523 67.2063C122.865 67.2063 125.623 64.5589 125.578 61.2989C125.533 58.039 122.854 55.3916 119.523 55.3916Z" fill="#3E4FE5"/>
<path d="M1.05472 69.8525C-2.28659 69.8525 -5 72.4999 -5 75.7599C-5 79.0198 -2.28659 81.6672 1.05472 81.6672C4.39602 81.6672 7.10943 79.0198 7.10943 75.7599C7.01973 72.4343 4.38481 69.8525 1.05472 69.8525Z" fill="#3E4FE5"/>
<path d="M15.8711 69.8525C12.5298 69.8525 9.81641 72.4999 9.81641 75.7599C9.81641 79.0198 12.5298 81.6672 15.8711 81.6672C19.2124 81.6672 21.9707 79.0198 21.9258 75.7599C21.881 72.4343 19.2012 69.8525 15.8711 69.8525" fill="#C7579A"/>
<path d="M30.666 71.3486C28.1545 71.3486 26.125 73.3287 26.125 75.7791C26.125 78.2296 28.1545 80.2096 30.666 80.2096C33.1776 80.2096 35.2407 78.2296 35.2071 75.7791C35.1734 73.3287 33.1664 71.3486 30.666 71.3486Z" fill="#C7579A"/>
<path d="M45.4981 71.3486C42.9865 71.3486 40.957 73.3287 40.957 75.7791C40.957 78.2296 42.9865 80.2096 45.4981 80.2096C48.0097 80.2096 50.0727 78.2296 50.0391 75.7791C50.0055 73.2849 47.9984 71.3486 45.4981 71.3486Z" fill="#3E4FE5"/>
<path d="M60.3125 69.8525C56.9712 69.8525 54.2578 72.4999 54.2578 75.7599C54.2578 79.0198 56.9712 81.6672 60.3125 81.6672C63.6538 81.6672 66.4121 79.0198 66.3672 75.7599C66.3224 72.4343 63.6426 69.8525 60.3125 69.8525Z" fill="#F27C4F"/>
<path d="M75.1055 69.8525C71.7642 69.8525 69.0508 72.4999 69.0508 75.7599C69.0508 79.0198 71.7642 81.6672 75.1055 81.6672C78.4468 81.6672 81.2051 79.0198 81.1602 75.7599C81.1154 72.4999 78.4356 69.8525 75.1055 69.8525Z" fill="#F27C4F"/>
<path d="M89.9238 71.3486C87.4123 71.3486 85.3828 73.3287 85.3828 75.7791C85.3828 78.2296 87.4123 80.2096 89.9238 80.2096C92.4354 80.2096 94.4985 78.2296 94.4649 75.7791C94.4312 73.2849 92.4242 71.3486 89.9238 71.3486Z" fill="#F27C4F"/>
<path d="M104.713 71.3486C102.201 71.3486 100.172 73.3287 100.172 75.7791C100.172 78.2296 102.201 80.2096 104.713 80.2096C107.224 80.2096 109.288 78.2296 109.254 75.7791C109.22 73.3287 107.213 71.3486 104.713 71.3486Z" fill="#F27C4F"/>
<path d="M119.549 71.3486C117.037 71.3486 115.008 73.3287 115.008 75.7791C115.008 78.2296 117.037 80.2096 119.549 80.2096C122.06 80.2096 124.124 78.2296 124.09 75.7791C124.056 73.3287 122.049 71.3486 119.549 71.3486Z" fill="#C7579A"/>
<path d="M1.05666 85.7676C-1.45492 85.7676 -3.48438 87.7476 -3.48438 90.1981C-3.48438 92.6485 -1.45492 94.6286 1.05666 94.6286C3.56825 94.6286 5.5977 92.6485 5.5977 90.1981C5.53042 87.7039 3.55704 85.7676 1.05666 85.7676" fill="#3E4FE5"/>
<path d="M15.8711 84.3125C12.5298 84.3125 9.81641 86.9599 9.81641 90.2198C9.81641 93.4798 12.5298 96.1272 15.8711 96.1272C19.2124 96.1272 21.9707 93.4798 21.9258 90.2198C21.881 86.8942 19.2012 84.3125 15.8711 84.3125" fill="#C7579A"/>
<path d="M30.666 85.7676C28.1545 85.7676 26.125 87.7476 26.125 90.1981C26.125 92.6485 28.1545 94.6286 30.666 94.6286C33.1776 94.6286 35.2407 92.6485 35.2071 90.1981C35.1734 87.7476 33.1664 85.7676 30.666 85.7676Z" fill="#C7579A"/>
<path d="M45.4766 84.3125C42.1353 84.3125 39.4219 86.9599 39.4219 90.2198C39.4219 93.4798 42.1353 96.1272 45.4766 96.1272C48.8179 96.1272 51.5762 93.4798 51.5313 90.2198C51.4865 86.9599 48.8067 84.3125 45.4766 84.3125" fill="#C7579A"/>
<path d="M60.3125 84.3125C56.9712 84.3125 54.2578 86.9599 54.2578 90.2198C54.2578 93.4798 56.9712 96.1272 60.3125 96.1272C63.6538 96.1272 66.4121 93.4798 66.3672 90.2198C66.3224 86.8942 63.6426 84.3125 60.3125 84.3125" fill="#FFC72C"/>
<path d="M75.0957 82.8164C70.9135 82.8164 67.5273 86.1201 67.5273 90.2006C67.5273 94.281 70.9135 97.5847 75.0957 97.5847C79.278 97.5847 82.709 94.281 82.6641 90.2006C82.6081 86.0436 79.2555 82.8164 75.0957 82.8164" fill="#FFC72C"/>
<path d="M89.8985 84.3125C86.5572 84.3125 83.8438 86.9599 83.8438 90.2198C83.8438 93.4798 86.5572 96.1272 89.8985 96.1272C93.2398 96.1272 95.998 93.4798 95.9532 90.2198C95.9083 86.9599 93.2286 84.3125 89.8985 84.3125" fill="#F27C4F"/>
<path d="M104.713 85.7676C102.201 85.7676 100.172 87.7476 100.172 90.1981C100.172 92.6485 102.201 94.6286 104.713 94.6286C107.224 94.6286 109.288 92.6485 109.254 90.1981C109.22 87.7476 107.213 85.7676 104.713 85.7676Z" fill="#F27C4F"/>
<path d="M119.549 85.7676C117.037 85.7676 115.008 87.7476 115.008 90.1981C115.008 92.6485 117.037 94.6286 119.549 94.6286C122.06 94.6286 124.124 92.6485 124.09 90.1981C124.056 87.7476 122.049 85.7676 119.549 85.7676Z" fill="#F27C4F"/>
<path d="M134.342 85.7676C131.83 85.7676 129.801 87.7476 129.801 90.1981C129.801 92.6485 131.83 94.6286 134.342 94.6286C136.853 94.6286 138.916 92.6485 138.883 90.1981C138.849 87.7039 136.842 85.7676 134.342 85.7676Z" fill="#C7579A"/>
<path d="M1.05666 100.229C-1.45492 100.229 -3.48438 102.209 -3.48438 104.659C-3.48438 107.109 -1.45492 109.09 1.05666 109.09C3.56825 109.09 5.5977 107.109 5.5977 104.659C5.53042 102.165 3.55704 100.229 1.05666 100.229" fill="#C7579A"/>
<path d="M15.8711 98.7734C12.5298 98.7734 9.81641 101.421 9.81641 104.681C9.81641 107.941 12.5298 110.588 15.8711 110.588C19.2124 110.588 21.9707 107.941 21.9258 104.681C21.881 101.355 19.2012 98.7734 15.8711 98.7734" fill="#C7579A"/>
<path d="M30.6836 98.7734C27.3423 98.7734 24.6289 101.421 24.6289 104.681C24.6289 107.941 27.3423 110.588 30.6836 110.588C34.0249 110.588 36.7832 107.941 36.7383 104.681C36.6935 101.421 34.0137 98.7734 30.6836 98.7734Z" fill="#C7579A"/>
<path d="M45.4766 98.7734C42.1353 98.7734 39.4219 101.421 39.4219 104.681C39.4219 107.941 42.1353 110.588 45.4766 110.588C48.8179 110.588 51.5762 107.941 51.5313 104.681C51.4865 101.421 48.8067 98.7734 45.4766 98.7734Z" fill="#FFC72C"/>
<path d="M60.2871 97.2773C56.1049 97.2773 52.7188 100.581 52.7188 104.662C52.7188 108.742 56.1049 112.046 60.2871 112.046C64.4694 112.046 67.9004 108.742 67.8555 104.662C67.7995 100.505 64.447 97.2773 60.2871 97.2773Z" fill="#FFC72C"/>
<path d="M75.0957 97.2773C70.9135 97.2773 67.5273 100.581 67.5273 104.662C67.5273 108.742 70.9135 112.046 75.0957 112.046C79.278 112.046 82.709 108.742 82.6641 104.662C82.6081 100.505 79.2555 97.2773 75.0957 97.2773Z" fill="#FFC72C"/>
<path d="M89.9121 97.2773C85.7299 97.2773 82.3438 100.581 82.3438 104.662C82.3438 108.742 85.7299 112.046 89.9121 112.046C94.0944 112.046 97.5254 108.742 97.4805 104.662C97.4245 100.505 94.072 97.2773 89.9121 97.2773Z" fill="#FFC72C"/>
<path d="M104.73 98.7734C101.389 98.7734 98.6758 101.421 98.6758 104.681C98.6758 107.941 101.389 110.588 104.73 110.588C108.072 110.588 110.83 107.941 110.785 104.681C110.74 101.421 108.061 98.7734 104.73 98.7734Z" fill="#FFC72C"/>
<path d="M119.523 98.7734C116.182 98.7734 113.469 101.421 113.469 104.681C113.469 107.941 116.182 110.588 119.523 110.588C122.865 110.588 125.623 107.941 125.578 104.681C125.533 101.421 122.854 98.7734 119.523 98.7734Z" fill="#F27C4F"/>
<path d="M134.342 100.229C131.83 100.229 129.801 102.209 129.801 104.659C129.801 107.109 131.83 109.09 134.342 109.09C136.853 109.09 138.916 107.109 138.883 104.659C138.849 102.165 136.842 100.229 134.342 100.229Z" fill="#F27C4F"/>
<path d="M149.16 101.683C147.49 101.683 146.133 103.006 146.133 104.636C146.133 106.266 147.49 107.59 149.16 107.59C150.831 107.59 152.21 106.266 152.188 104.636C152.165 103.006 150.82 101.683 149.16 101.683Z" fill="#F27C4F"/>
<path d="M1.05472 113.193C-2.28659 113.193 -5 115.841 -5 119.101C-5 122.361 -2.28659 125.008 1.05472 125.008C4.39602 125.008 7.10943 122.361 7.10943 119.101C7.01973 115.775 4.38481 113.193 1.05472 113.193Z" fill="#C7579A"/>
<path d="M15.8711 113.193C12.5298 113.193 9.81641 115.841 9.81641 119.101C9.81641 122.361 12.5298 125.008 15.8711 125.008C19.2124 125.008 21.9707 122.361 21.9258 119.101C21.881 115.775 19.2012 113.193 15.8711 113.193" fill="#C7579A"/>
<path d="M30.6836 113.193C27.3423 113.193 24.6289 115.841 24.6289 119.101C24.6289 122.361 27.3423 125.008 30.6836 125.008C34.0249 125.008 36.7832 122.361 36.7383 119.101C36.6935 115.841 34.0137 113.193 30.6836 113.193Z" fill="#FFC72C"/>
<path d="M45.4942 111.738C41.3119 111.738 37.9258 115.042 37.9258 119.122C37.9258 123.203 41.3119 126.507 45.4942 126.507C49.6764 126.507 53.1074 123.203 53.0626 119.122C53.0065 114.965 49.654 111.738 45.4942 111.738Z" fill="#FFC72C"/>
<path d="M60.3086 110.243C55.2967 110.243 51.2266 114.214 51.2266 119.104C51.2266 123.994 55.2967 127.954 60.3086 127.954C65.3206 127.954 69.4468 123.994 69.3907 119.104C69.3234 114.116 65.2982 110.243 60.3086 110.243Z" fill="#FFC72C"/>
<path d="M75.0938 110.243C70.0818 110.243 66.0117 114.214 66.0117 119.104C66.0117 123.994 70.0818 127.954 75.0938 127.954C80.1057 127.954 84.2319 123.994 84.1759 119.104C84.1086 114.116 80.0833 110.243 75.0938 110.243Z" fill="#FFC72C"/>
<path d="M89.9102 110.243C84.8982 110.243 80.8281 114.214 80.8281 119.104C80.8281 123.994 84.8982 127.954 89.9102 127.954C94.9222 127.954 99.0483 123.994 98.9923 119.104C98.925 114.116 94.8997 110.243 89.9102 110.243Z" fill="#FFC72C"/>
<path d="M104.729 111.738C100.546 111.738 97.1602 115.042 97.1602 119.122C97.1602 123.203 100.546 126.507 104.729 126.507C108.911 126.507 112.342 123.203 112.297 119.122C112.252 115.042 108.888 111.738 104.729 111.738Z" fill="#FFC72C"/>
<path d="M119.541 111.738C115.359 111.738 111.973 115.042 111.973 119.122C111.973 123.203 115.359 126.507 119.541 126.507C123.723 126.507 127.154 123.203 127.109 119.122C127.065 115.042 123.701 111.738 119.541 111.738Z" fill="#FFC72C"/>
<path d="M134.336 113.193C130.995 113.193 128.281 115.841 128.281 119.101C128.281 122.361 130.995 125.008 134.336 125.008C137.677 125.008 140.436 122.361 140.391 119.101C140.346 115.841 137.666 113.193 134.336 113.193Z" fill="#F27C4F"/>
</g>
</svg>
