<svg width="29" height="29" viewBox="0 0 29 29" fill="none" xmlns="http://www.w3.org/2000/svg">
<path d="M2.36747 14.5704C2.36747 7.02662 8.18936 0.885709 15.3547 0.855278V0.703125H13.7629C7.3806 0.703125 1.82678 5.47161 0.734797 12.0842C0.4955 13.5342 0.463694 15.0466 0.666643 16.5818C0.683303 16.7021 0.699963 16.8207 0.718137 16.9394C1.76317 23.6068 7.34122 28.4392 13.7674 28.4392H15.3531V28.287C8.18785 28.2581 2.36747 22.1172 2.36747 14.5719V14.5704Z" fill="#E78E42"/>
<path d="M4.26519 21.997C2.96874 19.8501 2.21602 17.3031 2.21602 14.5719C2.21602 12.6715 2.57951 10.8609 3.23833 9.21154H1.52842C1.16947 10.1199 0.899882 11.08 0.733283 12.0842C0.493985 13.5342 0.46218 15.0466 0.665128 16.5818C0.681788 16.7021 0.698448 16.8207 0.716623 16.9394C1.2346 20.2381 2.86273 23.0864 5.15271 25.1237C5.5783 25.1237 5.82365 24.6414 5.57678 24.293C5.06941 23.5748 4.62868 22.8064 4.26368 21.997H4.26519Z" fill="#F19C49"/>
<path d="M15.4046 0.703125C8.12121 0.703125 2.21602 6.9125 2.21602 14.5704C2.21602 15.9915 2.41897 17.3609 2.7976 18.6511H1.09829C1.30275 19.3617 1.56022 20.0433 1.86464 20.6961H3.57002C5.72218 25.282 10.2128 28.4376 15.4046 28.4376C22.6881 28.4376 28.5932 22.2283 28.5932 14.5704C28.5932 6.9125 22.6896 0.703125 15.4046 0.703125Z" fill="#FFC72C"/>
<path d="M6.40372 20.1514C7.06557 21.3214 8.02125 22.3028 9.16473 23.0042C10.699 23.9461 12.4846 24.4877 14.3899 24.4877C20.1239 24.4877 24.7736 19.5991 24.7736 13.5707C24.7736 11.5273 24.2389 9.61627 23.309 7.98062C22.6638 6.84708 21.7445 5.89155 20.6419 5.20078C20.6328 5.19469 6.40221 20.1468 6.40523 20.1529L6.40372 20.1514Z" fill="#F9B537"/>
<path d="M24.766 13.9116C24.8205 12.1572 24.4813 10.4912 23.8346 9.00461C23.5831 8.42491 22.8516 8.2971 22.423 8.74747L9.80538 22.0152C9.37676 22.4656 9.49793 23.2355 10.0492 23.5003C11.4638 24.1819 13.048 24.5395 14.7185 24.4817C20.1588 24.293 24.5888 19.634 24.766 13.9131V13.9116Z" fill="#E78E42"/>
<path d="M23.7467 20.1149C23.9767 20.1149 24.1632 19.9275 24.1632 19.6964C24.1632 19.4653 23.9767 19.278 23.7467 19.278C23.5167 19.278 23.3302 19.4653 23.3302 19.6964C23.3302 19.9275 23.5167 20.1149 23.7467 20.1149Z" fill="#FEE9A5"/>
<path d="M18.8275 4.25286C17.7431 3.84966 16.5769 3.62903 15.3622 3.62903C9.62666 3.62903 4.97551 8.51924 4.97551 14.5506C4.97551 15.8287 5.18452 17.055 5.56769 18.1947L18.8275 4.25286Z" fill="#FFD86B"/>
<path d="M19.7695 10.7818H20.6268C21.1341 10.7818 21.5431 10.3207 21.5521 9.76234C21.5521 9.19328 21.1341 8.74291 20.6268 8.74291H19.7695C19.2531 8.74291 18.8442 9.20393 18.8442 9.76234C18.8442 10.3207 19.2622 10.7818 19.7695 10.7818Z" fill="#F19C49"/>
<path d="M11.9651 17.0976C11.9394 17.0976 11.229 17.0976 11.1079 17.0976C10.0053 17.0976 9.10717 18.0882 9.10717 19.3039C9.10717 20.5196 10.0053 21.5101 11.1079 21.5101C11.229 21.5101 11.9394 21.5101 11.9651 21.5101C13.0677 21.5101 13.9658 20.5196 13.9658 19.3039C13.9386 18.0577 13.0677 17.0976 11.9651 17.0976Z" fill="#F19C49"/>
<path d="M16.7389 7.88781C16.7223 7.88324 16.7056 7.87868 16.689 7.87411C16.6602 7.86651 16.6299 7.8589 16.5996 7.85433C16.5723 7.84825 16.5451 7.8452 16.5178 7.84064C16.4951 7.8376 16.4724 7.83303 16.4497 7.83151C16.3967 7.82542 16.3436 7.82238 16.2891 7.82238H15.4319C14.7185 7.82238 14.1021 8.2971 13.8265 8.97418C13.8235 8.96657 13.8204 8.95745 13.8189 8.94984C13.8144 8.93919 13.8113 8.92701 13.8083 8.91636C13.778 8.8342 13.7417 8.75508 13.7038 8.67748C13.7023 8.67292 13.6993 8.66988 13.6977 8.66531C13.6614 8.5938 13.6205 8.52533 13.5766 8.4599C13.5705 8.44925 13.563 8.44012 13.5569 8.43099C13.513 8.36557 13.466 8.30471 13.416 8.24537C13.413 8.24232 13.4115 8.23928 13.4085 8.23624C13.2964 8.10691 13.1707 7.99279 13.0344 7.89694C12.7269 7.6824 12.3634 7.55763 11.9697 7.55763C11.9469 7.55763 11.2336 7.55763 11.1124 7.55763C10.0098 7.55763 9.11172 8.54815 9.11172 9.76386C9.11172 10.9796 10.0098 11.9701 11.1124 11.9701H11.8182C11.8409 11.9701 11.8636 11.967 11.8864 11.967C11.9136 11.967 11.9409 11.9701 11.9697 11.9701C12.6588 11.9701 13.2676 11.5836 13.6281 10.9963C13.6644 10.937 13.6977 10.8776 13.728 10.8137C13.7674 10.7331 13.8007 10.6494 13.831 10.5627C14.1082 11.2337 14.7216 11.7038 15.4334 11.7038C15.55 11.7008 16.0135 11.7038 16.1392 11.7038C16.1604 11.7038 16.1801 11.7008 16.2013 11.6992C16.2316 11.7008 16.2603 11.7038 16.2906 11.7038C17.2872 11.6749 18.052 10.8305 18.052 9.76234C18.052 8.86615 17.4947 8.10843 16.742 7.88781H16.7389Z" fill="#F19C49"/>
<path d="M20.6268 13.5084C20.601 13.5084 19.8937 13.5084 19.7695 13.5084C19.2531 13.5084 18.8442 13.9694 18.8442 14.5278C18.8442 15.0862 19.2622 15.5472 19.7695 15.5472C19.8968 15.5502 20.6071 15.5472 20.6268 15.5472C21.1341 15.5563 21.5431 15.0968 21.5521 14.5278C21.5521 13.9587 21.1341 13.5084 20.6268 13.5084Z" fill="#E89043"/>
<path d="M16.2876 12.5863C16.2619 12.5863 15.5515 12.5863 15.4304 12.5863C14.7155 12.5863 14.0991 13.0625 13.825 13.7396C13.6008 13.0975 13.1283 12.6061 12.5331 12.4128C12.4861 12.3976 12.4392 12.3839 12.3907 12.3733C12.371 12.3687 12.3513 12.3642 12.3316 12.3611C12.2907 12.352 12.2483 12.3459 12.2059 12.3398C12.1877 12.3368 12.1681 12.3352 12.1499 12.3322C12.0893 12.3261 12.0287 12.3216 11.9666 12.3216H11.1094C10.0068 12.3216 9.10869 13.3121 9.10869 14.5278C9.10869 15.7435 10.0068 16.734 11.1094 16.734H11.9666C12.8133 16.734 13.5372 16.1497 13.8295 15.3281C14.1067 15.9991 14.7201 16.4693 15.4319 16.4693C15.5485 16.4662 16.2588 16.4693 16.2891 16.4693C17.2857 16.4403 18.0505 15.5959 18.0505 14.5278C18.0505 13.4597 17.2584 12.5863 16.2891 12.5863H16.2876Z" fill="#F19C49"/>
<path d="M20.6268 18.2844C20.601 18.2844 19.8937 18.2844 19.7695 18.2844C19.2622 18.2844 18.8442 18.7455 18.8442 19.3039C18.8442 19.8623 19.2622 20.3233 19.7695 20.3233H20.6268C21.1341 20.3233 21.5431 19.8623 21.5521 19.3039C21.5521 18.7348 21.1341 18.2844 20.6268 18.2844Z" fill="#E89043"/>
<path d="M16.2967 18.2844C16.2709 18.2844 15.5637 18.2844 15.4395 18.2844C14.9321 18.2844 14.5141 18.7455 14.5141 19.3039C14.5141 19.8623 14.9321 20.3233 15.4395 20.3233H16.2967C16.8041 20.3233 17.2221 19.8623 17.2221 19.3039C17.2221 18.7455 16.8041 18.2844 16.2967 18.2844Z" fill="#E89043"/>
<path d="M6.0054 19.3145C6.09172 19.2232 6.11747 19.0924 6.07506 18.9752C5.64191 17.7717 5.40261 16.4677 5.40261 15.1044C5.40261 9.06243 10.0613 4.16309 15.8075 4.16309C17.0949 4.16309 18.3277 4.4111 19.4666 4.85995C19.5908 4.90864 19.7317 4.87973 19.8241 4.78236L19.8922 4.71084C18.5276 4.01855 16.9979 3.62903 15.3804 3.62903C9.63423 3.62903 4.97551 8.52685 4.97551 14.5704C4.97551 16.2699 5.34657 17.8782 6.0054 19.3145Z" fill="#F19C49"/>
<path d="M11.9651 17.0976C10.8625 17.0976 9.9644 18.0882 9.9644 19.3039C9.9644 20.5196 10.8625 21.5101 11.9651 21.5101C13.0677 21.5101 13.9658 20.5196 13.9658 19.3039C13.9386 18.0577 13.0677 17.0976 11.9651 17.0976Z" fill="#FFC72C"/>
<path d="M11.9651 7.55611C10.8625 7.55611 9.9644 8.54663 9.9644 9.76234C9.9644 10.978 10.8625 11.9686 11.9651 11.9686C13.0677 11.9686 13.9658 10.978 13.9658 9.76234C13.9386 8.5162 13.0677 7.55611 11.9651 7.55611Z" fill="#FFC72C"/>
<path d="M11.9651 12.3216C10.8625 12.3216 9.9644 13.3121 9.9644 14.5278C9.9644 15.7435 10.8625 16.734 11.9651 16.734C13.0677 16.734 13.9658 15.7435 13.9658 14.5278C13.9386 13.2923 13.0677 12.3216 11.9651 12.3216Z" fill="#FFC72C"/>
<path d="M21.5521 9.76234C21.5521 9.19328 21.1341 8.74291 20.6268 8.74291C20.1194 8.74291 19.7014 9.20393 19.7014 9.76234C19.7014 10.3207 20.1194 10.7818 20.6268 10.7818C21.1341 10.7818 21.5431 10.3207 21.5521 9.76234Z" fill="#FFC72C"/>
<path d="M18.049 9.76234C18.049 8.6927 17.2569 7.82086 16.2876 7.82086C15.3183 7.82086 14.5262 8.69422 14.5262 9.76234C14.5262 10.8305 15.3183 11.7038 16.2876 11.7038C17.2842 11.6749 18.049 10.8305 18.049 9.76234Z" fill="#FFC72C"/>
<path d="M21.5521 14.5278C21.5521 13.9587 21.1341 13.5084 20.6268 13.5084C20.1194 13.5084 19.7014 13.9694 19.7014 14.5278C19.7014 15.0862 20.1194 15.5472 20.6268 15.5472C21.1341 15.5563 21.5431 15.0968 21.5521 14.5278Z" fill="#FFC72C"/>
<path d="M18.049 14.5278C18.049 13.4581 17.2569 12.5863 16.2876 12.5863C15.3183 12.5863 14.5262 13.4597 14.5262 14.5278C14.5262 15.5959 15.3183 16.4693 16.2876 16.4693C17.2842 16.4403 18.049 15.5959 18.049 14.5278Z" fill="#FFC72C"/>
<path d="M21.5521 19.3039C21.5521 18.7348 21.1341 18.2844 20.6268 18.2844C20.1194 18.2844 19.7014 18.7455 19.7014 19.3039C19.7014 19.8623 20.1194 20.3233 20.6268 20.3233C21.1341 20.3233 21.5431 19.8623 21.5521 19.3039Z" fill="#FFC72C"/>
<path d="M17.2206 19.3039C17.2206 18.7348 16.8026 18.2844 16.2952 18.2844C15.7878 18.2844 15.3698 18.7455 15.3698 19.3039C15.3698 19.8623 15.7878 20.3233 16.2952 20.3233C16.8026 20.3233 17.2206 19.8623 17.2206 19.3039Z" fill="#FFC72C"/>
<path d="M9.9644 14.5278C9.9644 14.54 9.9644 14.5506 9.9644 14.5628C9.96743 14.7743 10.2294 14.8732 10.3748 14.7195L12.2665 12.7293C12.4028 12.5863 12.3165 12.3429 12.1181 12.3261C12.0681 12.3216 12.0166 12.32 11.9651 12.32C10.8625 12.32 9.9644 13.3106 9.9644 14.5263V14.5278Z" fill="#FEE9A5"/>
<path d="M16.2876 7.82086C15.3183 7.82086 14.5262 8.69422 14.5262 9.76234V9.76842C14.5262 9.97992 14.7897 10.0788 14.9351 9.92514L16.5496 8.22711C16.6859 8.08408 16.5996 7.83912 16.4042 7.82542C16.3649 7.82238 16.327 7.82086 16.2876 7.82086Z" fill="#FEE9A5"/>
<path d="M12.7269 8.21189L10.4687 10.587C10.3173 10.7468 10.2976 10.9963 10.4294 11.1728C10.7959 11.6582 11.3487 11.9686 11.9651 11.9686C13.0677 11.9686 13.9658 10.978 13.9658 9.76234C13.9522 9.1522 13.7371 8.61206 13.3903 8.21798C13.2161 8.02018 12.9087 8.0217 12.7269 8.21189Z" fill="#FEE9A5"/>
<path d="M17.7264 3.909C18.1005 4.00181 18.4685 4.1144 18.826 4.2483C18.9865 4.30764 19.1637 4.2696 19.2849 4.14331L20.5768 2.78458C20.7934 2.55787 20.7222 2.18053 20.4374 2.05273C20.0755 1.88992 19.7029 1.74538 19.3243 1.61757C19.1592 1.56127 18.9759 1.60996 18.8548 1.73777L17.5189 3.14367C17.2781 3.39624 17.3963 3.82835 17.7279 3.909H17.7264Z" fill="#FEE9A5"/>
<path d="M3.95471 9.71365L10.7853 2.53201C10.8201 2.49549 10.8474 2.45593 10.8686 2.41485C10.9852 2.18206 10.7383 1.92644 10.499 2.0299C7.33213 3.40689 4.79831 6.07566 3.48975 9.40782C3.37918 9.6893 3.73813 9.93427 3.94865 9.71973L3.95471 9.71365Z" fill="#FEE9A5"/>
<path d="M5.56921 18.219C5.44199 17.8432 5.33446 17.4567 5.24661 17.0642C5.16937 16.7157 4.75893 16.5925 4.51812 16.8451L3.21561 18.2145C3.10354 18.3331 3.06113 18.5035 3.10808 18.6587C3.22773 19.0574 3.36404 19.4469 3.51549 19.8273C3.63817 20.1331 4.03801 20.2061 4.26368 19.9673L5.46925 18.6998C5.5889 18.5735 5.62676 18.3864 5.56921 18.2175V18.219Z" fill="#FEE9A5"/>
<path d="M6.61273 6.51386C7.12966 6.51386 7.54871 6.09287 7.54871 5.57355C7.54871 5.05424 7.12966 4.63325 6.61273 4.63325C6.0958 4.63325 5.67674 5.05424 5.67674 5.57355C5.67674 6.09287 6.0958 6.51386 6.61273 6.51386Z" fill="white"/>
<path d="M23.7225 7.38114C23.568 7.54242 23.5498 7.79347 23.6801 7.97453C25.0432 9.86732 25.8338 12.2379 25.7823 14.8062C25.6656 20.6322 21.1432 25.3854 15.603 25.5087C13.1616 25.5635 10.908 24.7312 9.10869 23.3009C8.93755 23.1655 8.69219 23.1838 8.54074 23.342C8.54074 23.342 7.82739 24.1013 7.39877 24.5669C7.22157 24.7601 7.24278 25.0644 7.44572 25.2318C9.63878 27.0485 12.4013 28.1349 15.4031 28.1349C22.5078 28.1349 28.2888 22.0502 28.2888 14.5719C28.2888 11.4269 27.2665 8.52989 25.5536 6.22629C25.3855 5.99958 25.0538 5.9798 24.8599 6.18369L23.721 7.38114H23.7225Z" fill="#F9B537"/>
<path d="M15.4046 28.1349C16.4739 28.1349 17.5144 27.9964 18.5079 27.7362C18.5897 27.7149 18.6654 27.6693 18.723 27.6084L27.7951 18.0562C27.8511 17.9969 27.8905 17.9238 27.9102 17.8447C28.1586 16.7964 28.2903 15.6994 28.2903 14.5704C28.2903 11.4254 27.268 8.52837 25.5551 6.22477C25.387 5.99806 25.0553 5.97828 24.8614 6.18217L23.7225 7.37961C23.568 7.5409 23.5498 7.79195 23.6801 7.97301C25.0432 9.8658 25.8338 12.2364 25.7823 14.8047C25.6656 20.6306 21.1432 25.3839 15.603 25.5072C13.1616 25.5619 10.908 24.7297 9.10869 23.2994C8.93755 23.164 8.69219 23.1823 8.54074 23.3405C8.54074 23.3405 7.82739 24.0997 7.39877 24.5669C7.22157 24.7601 7.24278 25.0629 7.44572 25.2302C9.63878 27.047 12.4013 28.1333 15.4031 28.1333L15.4046 28.1349Z" fill="#F19C49"/>
<path d="M22.7062 22.0411C23.2232 22.0411 23.6422 21.6201 23.6422 21.1008C23.6422 20.5815 23.2232 20.1605 22.7062 20.1605C22.1893 20.1605 21.7702 20.5815 21.7702 21.1008C21.7702 21.6201 22.1893 22.0411 22.7062 22.0411Z" fill="#FEE9A5"/>
</svg>
