<svg width="129" height="121" viewBox="0 0 129 121" fill="none" xmlns="http://www.w3.org/2000/svg">
<circle cx="60.5" cy="60.25" r="60" fill="#F9F4E8"/>
<mask id="mask0_7336_121530" style="mask-type:alpha" maskUnits="userSpaceOnUse" x="0" y="0" width="121" height="121">
<circle cx="60.5" cy="60.25" r="60" fill="#F9F4E8"/>
</mask>
<g mask="url(#mask0_7336_121530)">
<path d="M-8.5 50.2515C-8.5 45.8324 -4.91761 42.25 -0.498509 42.25L71.5149 42.25C75.934 42.25 79.5164 45.8324 79.5164 50.2515V90.2589C79.5164 94.678 75.934 98.2604 71.5149 98.2604L-0.498511 98.2604C-4.91761 98.2604 -8.5 94.678 -8.5 90.2589L-8.5 50.2515Z" fill="white"/>
<path d="M59.5127 80.2571C59.5127 79.1523 60.4083 78.2567 61.513 78.2567H65.5138C66.6186 78.2567 67.5142 79.1523 67.5142 80.2571V84.2578C67.5142 85.3626 66.6186 86.2582 65.5138 86.2582H61.513C60.4083 86.2582 59.5127 85.3626 59.5127 84.2578V80.2571Z" fill="white"/>
<path d="M3.50224 76.2563H15.5045M3.50224 86.2582H25.5063M-0.498512 98.2604L71.5149 98.2604C75.934 98.2604 79.5164 94.678 79.5164 90.2589V50.2515C79.5164 45.8324 75.934 42.25 71.5149 42.25L-0.498509 42.25C-4.91761 42.25 -8.5 45.8324 -8.5 50.2515L-8.5 90.2589C-8.5 94.678 -4.91761 98.2604 -0.498512 98.2604ZM61.513 86.2582H65.5138C66.6186 86.2582 67.5142 85.3626 67.5142 84.2578V80.2571C67.5142 79.1523 66.6186 78.2567 65.5138 78.2567H61.513C60.4083 78.2567 59.5127 79.1523 59.5127 80.2571V84.2578C59.5127 85.3626 60.4083 86.2582 61.513 86.2582Z" stroke="#323FB7" stroke-width="1.5" stroke-linecap="round"/>
<path d="M-5.17871 53.9512L35.5081 53.9512L76.1949 53.9512" stroke="#353131" stroke-width="1.5" stroke-linecap="square"/>
</g>
<path d="M30.6842 30.7601C29.5405 26.4916 32.0736 22.1041 36.3421 20.9603L105.902 2.32187C110.17 1.17812 114.558 3.71125 115.702 7.97978L126.056 46.624C127.2 50.8925 124.667 55.28 120.398 56.4238L50.8387 75.0622C46.5702 76.206 42.1827 73.6729 41.0389 69.4043L30.6842 30.7601Z" fill="white"/>
<path d="M104.145 42.1403C103.859 41.0732 104.493 39.9763 105.56 39.6903L109.424 38.6549C110.491 38.3689 111.588 39.0022 111.874 40.0694L112.91 43.9338C113.196 45.0009 112.562 46.0978 111.495 46.3837L107.631 47.4192C106.564 47.7051 105.467 47.0718 105.181 46.0047L104.145 42.1403Z" fill="white"/>
<path d="M49.008 52.7724L60.6013 49.666M51.5967 62.4335L72.851 56.7384M50.8387 75.0622L120.398 56.4238C124.667 55.28 127.2 50.8925 126.056 46.624L115.702 7.97978C114.558 3.71125 110.17 1.17812 105.902 2.32187L36.3421 20.9603C32.0736 22.1041 29.5405 26.4916 30.6842 30.7601L41.0389 69.4043C42.1827 73.6729 46.5702 76.206 50.8387 75.0622ZM107.631 47.4192L111.495 46.3837C112.562 46.0978 113.196 45.0009 112.91 43.9338L111.874 40.0694C111.588 39.0022 110.491 38.3689 109.424 38.6549L105.56 39.6903C104.493 39.9763 103.859 41.0732 104.145 42.1403L105.181 46.0047C105.467 47.0718 106.564 47.7051 107.631 47.4192Z" stroke="#323FB7" stroke-width="1.5" stroke-linecap="round"/>
<path d="M34.8506 33.4746L74.151 22.9441L113.452 12.4135" stroke="#353131" stroke-width="1.5" stroke-linecap="square"/>
</svg>
