<svg xmlns="http://www.w3.org/2000/svg" width="35" height="10" fill="currentColor" viewBox="0 0 35 10"><path d="M.379 0h3.754c2.416 0 3.894 1.83 3.894 4.504 0 2.077-.903 4.763-3.953 4.763H.367V0H.38Zm1.255 8.2h2.428c1.63 0 2.686-1.28 2.686-3.614 0-2.334-1.067-3.507-2.78-3.507H1.634V8.2ZM15.886 9.267H9.048V0h6.745v1.114H10.29v2.839h5.08v1.114h-5.08v3.097h5.595v1.103ZM16.776 0h4.082c1.725 0 2.616 1.067 2.616 2.334 0 .61-.223 1.455-1.243 1.936.61.246 1.677.668 1.677 2.264 0 1.478-1.102 2.733-3.155 2.733h-3.988V0h.011Zm1.256 3.93h2.263c1.197 0 1.936-.364 1.936-1.502 0-.868-.528-1.349-1.924-1.349h-2.275v2.85Zm0 4.27h2.674c1.302 0 1.959-.658 1.959-1.69 0-1.302-1.15-1.56-2.17-1.56h-2.463V8.2ZM26.126 0h-1.255v9.267h1.255V0Z"/><path d="M26.748 0h7.519v1.114h-3.132v8.153H29.88V1.114h-3.132V0Z" color="currentColor"/></svg>