<svg width="428" height="926" viewBox="0 0 428 926" fill="none" xmlns="http://www.w3.org/2000/svg">
<path d="M57.45 339.001C57.448 339.288 57.5314 339.569 57.6895 339.809C57.8476 340.049 58.0734 340.236 58.3381 340.347C58.6029 340.459 58.8948 340.489 59.1767 340.434C59.4586 340.379 59.7179 340.242 59.9217 340.039C60.1255 339.837 60.2646 339.579 60.3214 339.297C60.3781 339.016 60.35 338.724 60.2405 338.458C60.1311 338.192 59.9453 337.965 59.7066 337.806C59.4679 337.646 59.1872 337.561 58.9 337.561C58.5187 337.566 58.1544 337.719 57.8838 337.987C57.6133 338.256 57.4577 338.619 57.45 339.001Z" fill="#323FB7"/>
<path d="M92.8 339C92.8 338.426 92.6297 337.865 92.3106 337.387C91.9915 336.91 91.5379 336.539 91.0075 336.319C90.477 336.1 89.8934 336.043 89.3305 336.156C88.7677 336.269 88.251 336.546 87.8458 336.953C87.4407 337.359 87.1653 337.877 87.0545 338.44C86.9437 339.003 87.0026 339.587 87.2236 340.116C87.4447 340.646 87.8179 341.098 88.2961 341.416C88.7743 341.733 89.336 341.902 89.91 341.9C90.675 341.889 91.4055 341.58 91.9455 341.038C92.4856 340.496 92.7922 339.765 92.8 339Z" fill="#323FB7"/>
<path d="M125.25 339C125.25 338.142 124.996 337.303 124.519 336.589C124.042 335.875 123.364 335.319 122.571 334.991C121.778 334.662 120.905 334.576 120.063 334.744C119.222 334.911 118.448 335.324 117.841 335.931C117.234 336.538 116.821 337.312 116.653 338.153C116.486 338.995 116.572 339.868 116.9 340.661C117.229 341.454 117.785 342.132 118.499 342.609C119.213 343.086 120.052 343.34 120.91 343.34C122.057 343.327 123.153 342.866 123.965 342.055C124.776 341.244 125.237 340.147 125.25 339Z" fill="#323FB7"/>
<path d="M156.26 339C156.26 338.142 156.006 337.303 155.529 336.589C155.052 335.875 154.374 335.319 153.581 334.991C152.788 334.662 151.915 334.576 151.073 334.744C150.232 334.911 149.458 335.324 148.851 335.931C148.244 336.538 147.831 337.312 147.663 338.153C147.496 338.995 147.582 339.868 147.91 340.661C148.239 341.454 148.795 342.132 149.509 342.609C150.223 343.086 151.062 343.34 151.92 343.34C153.067 343.327 154.163 342.866 154.975 342.055C155.786 341.244 156.247 340.147 156.26 339Z" fill="#323FB7"/>
<path d="M185.82 339C185.82 338.426 185.65 337.865 185.331 337.387C185.011 336.91 184.558 336.539 184.027 336.319C183.497 336.1 182.913 336.043 182.351 336.156C181.788 336.269 181.271 336.546 180.866 336.953C180.461 337.359 180.185 337.877 180.075 338.44C179.964 339.003 180.023 339.587 180.244 340.116C180.465 340.646 180.838 341.098 181.316 341.416C181.794 341.733 182.356 341.902 182.93 341.9C183.695 341.889 184.426 341.58 184.966 341.038C185.506 340.496 185.812 339.765 185.82 339Z" fill="#323FB7"/>
<path d="M212.49 339.001C212.488 339.288 212.572 339.57 212.73 339.81C212.889 340.05 213.115 340.237 213.38 340.348C213.646 340.459 213.938 340.489 214.22 340.433C214.503 340.378 214.762 340.239 214.965 340.036C215.169 339.832 215.307 339.573 215.363 339.291C215.418 339.009 215.389 338.716 215.278 338.451C215.167 338.186 214.979 337.959 214.739 337.801C214.499 337.642 214.218 337.559 213.93 337.561C213.549 337.563 213.184 337.716 212.915 337.985C212.645 338.255 212.493 338.619 212.49 339.001Z" fill="#323FB7"/>
<path d="M243.49 339.001C243.488 339.288 243.571 339.569 243.73 339.809C243.888 340.049 244.113 340.236 244.378 340.347C244.643 340.459 244.935 340.489 245.217 340.434C245.499 340.379 245.758 340.242 245.962 340.039C246.166 339.837 246.305 339.579 246.361 339.297C246.418 339.016 246.39 338.724 246.281 338.458C246.171 338.192 245.985 337.965 245.747 337.806C245.508 337.646 245.227 337.561 244.94 337.561C244.559 337.566 244.194 337.719 243.924 337.987C243.653 338.256 243.498 338.619 243.49 339.001Z" fill="#323FB7"/>
<path d="M278.84 339C278.84 338.426 278.67 337.865 278.351 337.387C278.031 336.91 277.578 336.539 277.047 336.319C276.517 336.1 275.933 336.043 275.371 336.156C274.808 336.269 274.291 336.546 273.886 336.953C273.481 337.359 273.205 337.877 273.095 338.44C272.984 339.003 273.043 339.587 273.264 340.116C273.485 340.646 273.858 341.098 274.336 341.416C274.814 341.733 275.376 341.902 275.95 341.9C276.715 341.889 277.446 341.58 277.986 341.038C278.526 340.496 278.832 339.765 278.84 339Z" fill="#323FB7"/>
<path d="M309.85 339C309.85 338.426 309.68 337.865 309.361 337.388C309.043 336.912 308.59 336.54 308.06 336.32C307.53 336.101 306.947 336.043 306.384 336.155C305.822 336.267 305.305 336.543 304.899 336.949C304.494 337.355 304.218 337.871 304.106 338.434C303.994 338.996 304.051 339.579 304.271 340.109C304.49 340.639 304.862 341.092 305.339 341.411C305.816 341.73 306.377 341.9 306.95 341.9C307.717 341.892 308.45 341.584 308.992 341.042C309.534 340.499 309.842 339.766 309.85 339Z" fill="#323FB7"/>
<path d="M340.85 339.001C340.848 338.43 340.677 337.872 340.358 337.398C340.039 336.924 339.587 336.555 339.059 336.338C338.531 336.121 337.95 336.065 337.39 336.178C336.83 336.29 336.316 336.567 335.913 336.971C335.51 337.376 335.236 337.891 335.125 338.451C335.014 339.011 335.072 339.592 335.291 340.119C335.51 340.647 335.88 341.098 336.355 341.415C336.831 341.732 337.389 341.901 337.96 341.901C338.725 341.891 339.456 341.582 339.996 341.04C340.536 340.498 340.842 339.766 340.85 339.001Z" fill="#323FB7"/>
<path d="M367.52 339.001C367.518 339.288 367.601 339.569 367.76 339.809C367.918 340.049 368.143 340.236 368.408 340.347C368.673 340.459 368.965 340.489 369.247 340.434C369.529 340.379 369.788 340.242 369.992 340.039C370.196 339.837 370.335 339.579 370.391 339.297C370.448 339.016 370.42 338.724 370.311 338.458C370.201 338.192 370.015 337.965 369.777 337.806C369.538 337.646 369.257 337.561 368.97 337.561C368.588 337.563 368.222 337.715 367.951 337.985C367.68 338.254 367.525 338.619 367.52 339.001Z" fill="#323FB7"/>
<path d="M398.53 339.001C398.528 339.288 398.612 339.57 398.77 339.81C398.929 340.05 399.155 340.237 399.421 340.348C399.686 340.459 399.978 340.489 400.26 340.433C400.543 340.378 400.802 340.239 401.005 340.036C401.209 339.832 401.347 339.573 401.403 339.291C401.458 339.009 401.429 338.716 401.318 338.451C401.207 338.186 401.019 337.959 400.779 337.801C400.539 337.642 400.258 337.559 399.97 337.561C399.589 337.563 399.224 337.716 398.955 337.985C398.685 338.255 398.533 338.619 398.53 339.001Z" fill="#323FB7"/>
<path d="M57.45 308.001C57.45 308.288 57.535 308.568 57.6943 308.806C57.8536 309.045 58.0801 309.231 58.3451 309.34C58.61 309.45 58.9016 309.479 59.1828 309.423C59.4641 309.367 59.7225 309.229 59.9253 309.026C60.128 308.823 60.2661 308.565 60.3221 308.284C60.378 308.002 60.3493 307.711 60.2396 307.446C60.1298 307.181 59.944 306.954 59.7055 306.795C59.4671 306.636 59.1867 306.551 58.9 306.551C58.517 306.556 58.1512 306.71 57.8804 306.981C57.6096 307.252 57.4551 307.618 57.45 308.001Z" fill="#323FB7"/>
<path d="M88.46 308.001C88.46 308.288 88.545 308.568 88.7043 308.806C88.8637 309.045 89.0901 309.231 89.3551 309.34C89.62 309.45 89.9116 309.479 90.1928 309.423C90.4741 309.367 90.7325 309.229 90.9353 309.026C91.1381 308.823 91.2762 308.565 91.3321 308.284C91.388 308.002 91.3593 307.711 91.2496 307.446C91.1398 307.181 90.954 306.954 90.7155 306.795C90.4771 306.636 90.1967 306.551 89.91 306.551C89.5262 306.553 89.1589 306.707 88.8876 306.978C88.6162 307.25 88.4626 307.617 88.46 308.001Z" fill="#323FB7"/>
<path d="M123.81 308C123.812 307.426 123.644 306.864 123.326 306.386C123.009 305.908 122.556 305.535 122.027 305.313C121.497 305.092 120.914 305.034 120.35 305.144C119.787 305.255 119.27 305.531 118.863 305.936C118.456 306.341 118.179 306.858 118.066 307.42C117.954 307.983 118.011 308.567 118.23 309.097C118.449 309.628 118.821 310.081 119.298 310.4C119.775 310.72 120.336 310.89 120.91 310.89C121.675 310.882 122.407 310.575 122.949 310.035C123.49 309.495 123.8 308.765 123.81 308Z" fill="#323FB7"/>
<path d="M154.81 307.999C154.81 307.428 154.641 306.869 154.323 306.394C154.005 305.919 153.554 305.548 153.026 305.329C152.498 305.111 151.917 305.053 151.356 305.165C150.796 305.276 150.281 305.552 149.877 305.956C149.472 306.36 149.197 306.875 149.086 307.436C148.974 307.996 149.031 308.577 149.25 309.105C149.469 309.633 149.839 310.085 150.314 310.402C150.79 310.72 151.348 310.889 151.92 310.889C152.683 310.879 153.412 310.571 153.952 310.031C154.492 309.492 154.8 308.763 154.81 307.999Z" fill="#323FB7"/>
<path d="M181.48 308.001C181.48 308.288 181.565 308.568 181.724 308.806C181.884 309.045 182.11 309.231 182.375 309.34C182.64 309.45 182.932 309.479 183.213 309.423C183.494 309.367 183.753 309.229 183.955 309.026C184.158 308.823 184.296 308.565 184.352 308.284C184.408 308.002 184.379 307.711 184.27 307.446C184.16 307.181 183.974 306.954 183.736 306.795C183.497 306.636 183.217 306.551 182.93 306.551C182.546 306.553 182.179 306.707 181.908 306.978C181.636 307.25 181.483 307.617 181.48 308.001Z" fill="#323FB7"/>
<path d="M216.83 308C216.832 307.426 216.664 306.864 216.346 306.386C216.029 305.908 215.576 305.535 215.047 305.313C214.517 305.092 213.934 305.034 213.37 305.144C212.807 305.255 212.29 305.531 211.883 305.936C211.476 306.341 211.199 306.858 211.086 307.42C210.974 307.983 211.031 308.567 211.25 309.097C211.469 309.628 211.841 310.081 212.318 310.4C212.795 310.72 213.356 310.89 213.93 310.89C214.695 310.882 215.427 310.575 215.969 310.035C216.51 309.495 216.82 308.765 216.83 308Z" fill="#323FB7"/>
<path d="M247.83 307.999C247.83 307.428 247.661 306.869 247.343 306.394C247.025 305.919 246.574 305.548 246.046 305.329C245.518 305.111 244.937 305.053 244.376 305.165C243.816 305.276 243.301 305.552 242.897 305.956C242.492 306.36 242.217 306.875 242.106 307.436C241.994 307.996 242.051 308.577 242.27 309.105C242.489 309.633 242.859 310.085 243.334 310.402C243.81 310.72 244.368 310.889 244.94 310.889C245.703 310.879 246.432 310.571 246.972 310.031C247.512 309.492 247.82 308.763 247.83 307.999Z" fill="#323FB7"/>
<path d="M278.84 308C278.842 307.425 278.673 306.863 278.355 306.385C278.038 305.906 277.585 305.533 277.054 305.313C276.524 305.092 275.94 305.034 275.377 305.145C274.813 305.257 274.296 305.533 273.889 305.939C273.483 306.345 273.207 306.863 273.095 307.427C272.984 307.99 273.042 308.574 273.263 309.104C273.483 309.635 273.857 310.087 274.335 310.405C274.814 310.723 275.376 310.892 275.95 310.89C276.713 310.879 277.442 310.572 277.982 310.032C278.522 309.492 278.83 308.763 278.84 308Z" fill="#323FB7"/>
<path d="M309.85 308C309.852 307.426 309.684 306.864 309.366 306.386C309.049 305.908 308.597 305.535 308.067 305.313C307.537 305.092 306.954 305.034 306.39 305.144C305.827 305.255 305.31 305.531 304.903 305.936C304.496 306.341 304.219 306.858 304.107 307.42C303.994 307.983 304.051 308.567 304.27 309.097C304.489 309.628 304.861 310.081 305.338 310.4C305.815 310.72 306.376 310.89 306.95 310.89C307.715 310.882 308.447 310.575 308.989 310.035C309.53 309.495 309.84 308.765 309.85 308Z" fill="#323FB7"/>
<path d="M336.51 308.001C336.51 308.288 336.595 308.568 336.754 308.806C336.914 309.045 337.14 309.231 337.405 309.34C337.67 309.45 337.962 309.479 338.243 309.423C338.524 309.367 338.783 309.229 338.985 309.026C339.188 308.823 339.326 308.565 339.382 308.284C339.438 308.002 339.409 307.711 339.3 307.446C339.19 307.181 339.004 306.954 338.766 306.795C338.527 306.636 338.247 306.551 337.96 306.551C337.577 306.556 337.211 306.71 336.94 306.981C336.67 307.252 336.515 307.618 336.51 308.001Z" fill="#323FB7"/>
<path d="M367.52 308.001C367.52 308.288 367.605 308.568 367.764 308.806C367.924 309.045 368.15 309.231 368.415 309.34C368.68 309.45 368.972 309.479 369.253 309.423C369.534 309.367 369.793 309.229 369.995 309.026C370.198 308.823 370.336 308.565 370.392 308.284C370.448 308.002 370.419 307.711 370.31 307.446C370.2 307.181 370.014 306.954 369.776 306.795C369.537 306.636 369.257 306.551 368.97 306.551C368.586 306.553 368.219 306.707 367.948 306.978C367.676 307.25 367.523 307.617 367.52 308.001Z" fill="#323FB7"/>
<path d="M402.87 308C402.872 307.426 402.704 306.864 402.386 306.386C402.069 305.908 401.617 305.535 401.087 305.313C400.557 305.092 399.974 305.034 399.41 305.144C398.847 305.255 398.33 305.531 397.923 305.936C397.516 306.341 397.239 306.858 397.127 307.42C397.014 307.983 397.071 308.567 397.29 309.097C397.509 309.628 397.881 310.081 398.358 310.4C398.835 310.72 399.396 310.89 399.97 310.89C400.735 310.882 401.467 310.575 402.009 310.035C402.55 309.495 402.86 308.765 402.87 308Z" fill="#323FB7"/>
<path d="M61.79 276.999C61.79 276.428 61.6205 275.869 61.303 275.394C60.9854 274.919 60.534 274.548 60.006 274.329C59.4779 274.111 58.8968 274.053 58.3362 274.165C57.7756 274.276 57.2606 274.552 56.8565 274.956C56.4523 275.36 56.1771 275.875 56.0655 276.436C55.954 276.996 56.0113 277.577 56.23 278.105C56.4487 278.633 56.8192 279.085 57.2944 279.402C57.7697 279.72 58.3284 279.889 58.9 279.889C59.6641 279.882 60.3946 279.575 60.9349 279.034C61.4752 278.494 61.7822 277.763 61.79 276.999Z" fill="#323FB7"/>
<path d="M92.8 277C92.802 276.425 92.6333 275.863 92.3154 275.385C91.9975 274.906 91.5447 274.533 91.0144 274.313C90.4841 274.092 89.9002 274.034 89.3367 274.145C88.7732 274.257 88.2556 274.533 87.8494 274.939C87.4432 275.345 87.1668 275.863 87.0552 276.427C86.9437 276.99 87.0019 277.574 87.2227 278.104C87.4434 278.635 87.8167 279.087 88.2951 279.405C88.7735 279.723 89.3356 279.892 89.91 279.89C90.674 279.882 91.4046 279.575 91.9449 279.035C92.4852 278.494 92.7922 277.764 92.8 277Z" fill="#323FB7"/>
<path d="M123.81 277C123.812 276.426 123.644 275.864 123.326 275.386C123.009 274.908 122.556 274.535 122.027 274.313C121.497 274.092 120.914 274.034 120.35 274.144C119.787 274.255 119.27 274.531 118.863 274.936C118.456 275.341 118.179 275.858 118.066 276.42C117.954 276.983 118.011 277.567 118.23 278.097C118.449 278.628 118.821 279.081 119.298 279.4C119.775 279.72 120.336 279.89 120.91 279.89C121.675 279.882 122.407 279.575 122.949 279.035C123.49 278.495 123.8 277.765 123.81 277Z" fill="#323FB7"/>
<path d="M154.81 276.999C154.81 276.428 154.641 275.869 154.323 275.394C154.005 274.919 153.554 274.548 153.026 274.329C152.498 274.111 151.917 274.053 151.356 274.165C150.796 274.276 150.281 274.552 149.877 274.956C149.472 275.36 149.197 275.875 149.086 276.436C148.974 276.996 149.031 277.577 149.25 278.105C149.469 278.633 149.839 279.085 150.314 279.402C150.79 279.72 151.348 279.889 151.92 279.889C152.684 279.882 153.415 279.575 153.955 279.034C154.495 278.494 154.802 277.763 154.81 276.999Z" fill="#323FB7"/>
<path d="M185.82 277C185.822 276.425 185.653 275.863 185.335 275.385C185.018 274.906 184.565 274.533 184.034 274.313C183.504 274.092 182.92 274.034 182.357 274.145C181.793 274.257 181.276 274.533 180.869 274.939C180.463 275.345 180.187 275.863 180.075 276.427C179.964 276.99 180.022 277.574 180.243 278.104C180.463 278.635 180.837 279.087 181.315 279.405C181.794 279.723 182.356 279.892 182.93 279.89C183.694 279.882 184.425 279.575 184.965 279.035C185.505 278.494 185.812 277.764 185.82 277Z" fill="#323FB7"/>
<path d="M216.83 277C216.832 276.426 216.664 275.864 216.346 275.386C216.029 274.908 215.576 274.535 215.047 274.313C214.517 274.092 213.934 274.034 213.37 274.144C212.807 274.255 212.29 274.531 211.883 274.936C211.476 275.341 211.199 275.858 211.086 276.42C210.974 276.983 211.031 277.567 211.25 278.097C211.469 278.628 211.841 279.081 212.318 279.4C212.795 279.72 213.356 279.89 213.93 279.89C214.695 279.882 215.427 279.575 215.969 279.035C216.51 278.495 216.82 277.765 216.83 277Z" fill="#323FB7"/>
<path d="M247.83 276.999C247.83 276.428 247.661 275.869 247.343 275.394C247.025 274.919 246.574 274.548 246.046 274.329C245.518 274.111 244.937 274.053 244.376 274.165C243.816 274.276 243.301 274.552 242.897 274.956C242.492 275.36 242.217 275.875 242.106 276.436C241.994 276.996 242.051 277.577 242.27 278.105C242.489 278.633 242.859 279.085 243.334 279.402C243.81 279.72 244.368 279.889 244.94 279.889C245.704 279.882 246.435 279.575 246.975 279.034C247.515 278.494 247.822 277.763 247.83 276.999Z" fill="#323FB7"/>
<path d="M278.84 277C278.842 276.425 278.673 275.863 278.355 275.385C278.038 274.906 277.585 274.533 277.054 274.313C276.524 274.092 275.94 274.034 275.377 274.145C274.813 274.257 274.296 274.533 273.889 274.939C273.483 275.345 273.207 275.863 273.095 276.427C272.984 276.99 273.042 277.574 273.263 278.104C273.483 278.635 273.857 279.087 274.335 279.405C274.814 279.723 275.376 279.892 275.95 279.89C276.714 279.882 277.445 279.575 277.985 279.035C278.525 278.494 278.832 277.764 278.84 277Z" fill="#323FB7"/>
<path d="M305.51 277.001C305.51 277.288 305.595 277.569 305.755 277.807C305.915 278.046 306.142 278.232 306.407 278.341C306.673 278.451 306.965 278.479 307.247 278.422C307.528 278.365 307.786 278.226 307.989 278.023C308.191 277.819 308.329 277.559 308.383 277.278C308.438 276.996 308.408 276.704 308.297 276.439C308.185 276.174 307.998 275.948 307.758 275.79C307.519 275.632 307.237 275.549 306.95 275.551C306.568 275.556 306.203 275.711 305.934 275.982C305.665 276.253 305.513 276.619 305.51 277.001Z" fill="#323FB7"/>
<path d="M336.51 277.001C336.51 277.288 336.595 277.568 336.754 277.806C336.914 278.045 337.14 278.231 337.405 278.34C337.67 278.45 337.962 278.479 338.243 278.423C338.524 278.367 338.783 278.229 338.985 278.026C339.188 277.823 339.326 277.565 339.382 277.284C339.438 277.002 339.409 276.711 339.3 276.446C339.19 276.181 339.004 275.954 338.766 275.795C338.527 275.636 338.247 275.551 337.96 275.551C337.578 275.558 337.213 275.714 336.943 275.984C336.673 276.254 336.518 276.619 336.51 277.001Z" fill="#323FB7"/>
<path d="M371.86 277C371.862 276.425 371.693 275.863 371.375 275.385C371.058 274.906 370.605 274.533 370.074 274.313C369.544 274.092 368.96 274.034 368.397 274.145C367.833 274.257 367.316 274.533 366.909 274.939C366.503 275.345 366.227 275.863 366.115 276.427C366.004 276.99 366.062 277.574 366.283 278.104C366.503 278.635 366.877 279.087 367.355 279.405C367.834 279.723 368.396 279.892 368.97 279.89C369.734 279.882 370.465 279.575 371.005 279.035C371.545 278.494 371.852 277.764 371.86 277Z" fill="#323FB7"/>
<path d="M402.87 277C402.872 276.426 402.704 275.864 402.386 275.386C402.069 274.908 401.617 274.535 401.087 274.313C400.557 274.092 399.974 274.034 399.41 274.144C398.847 274.255 398.33 274.531 397.923 274.936C397.516 275.341 397.239 275.858 397.127 276.42C397.014 276.983 397.071 277.567 397.29 278.097C397.509 278.628 397.881 279.081 398.358 279.4C398.835 279.72 399.396 279.89 399.97 279.89C400.735 279.882 401.467 279.575 402.009 279.035C402.55 278.495 402.86 277.765 402.87 277Z" fill="#323FB7"/>
<path d="M153.37 246.001C153.37 245.714 153.285 245.434 153.126 245.195C152.966 244.957 152.74 244.771 152.475 244.661C152.21 244.551 151.918 244.523 151.637 244.579C151.356 244.635 151.097 244.773 150.895 244.975C150.692 245.178 150.554 245.437 150.498 245.718C150.442 245.999 150.471 246.291 150.58 246.556C150.69 246.821 150.876 247.047 151.114 247.206C151.353 247.366 151.633 247.451 151.92 247.451C152.303 247.446 152.669 247.291 152.94 247.02C153.21 246.75 153.365 246.384 153.37 246.001Z" fill="#323FB7"/>
<path d="M185.82 246C185.82 245.426 185.65 244.865 185.331 244.387C185.011 243.91 184.558 243.539 184.027 243.319C183.497 243.1 182.913 243.043 182.351 243.156C181.788 243.269 181.271 243.546 180.866 243.953C180.461 244.359 180.185 244.877 180.075 245.44C179.964 246.003 180.023 246.587 180.244 247.116C180.465 247.646 180.838 248.098 181.316 248.416C181.794 248.733 182.356 248.902 182.93 248.9C183.695 248.889 184.426 248.58 184.966 248.038C185.506 247.496 185.812 246.765 185.82 246Z" fill="#323FB7"/>
<path d="M216.83 246C216.83 245.426 216.66 244.865 216.341 244.388C216.023 243.912 215.57 243.54 215.04 243.32C214.51 243.101 213.927 243.043 213.364 243.155C212.802 243.267 212.285 243.543 211.879 243.949C211.474 244.355 211.198 244.871 211.086 245.434C210.974 245.996 211.031 246.579 211.251 247.109C211.47 247.639 211.842 248.092 212.319 248.411C212.796 248.73 213.356 248.9 213.93 248.9C214.697 248.892 215.43 248.584 215.972 248.042C216.514 247.499 216.822 246.766 216.83 246Z" fill="#323FB7"/>
<path d="M243.49 246.001C243.488 246.288 243.571 246.569 243.73 246.809C243.888 247.049 244.113 247.236 244.378 247.347C244.643 247.459 244.935 247.489 245.217 247.434C245.499 247.379 245.758 247.242 245.962 247.039C246.166 246.837 246.305 246.579 246.361 246.297C246.418 246.016 246.39 245.724 246.281 245.458C246.171 245.192 245.985 244.965 245.747 244.806C245.508 244.646 245.227 244.561 244.94 244.561C244.559 244.566 244.194 244.719 243.924 244.987C243.653 245.256 243.498 245.619 243.49 246.001Z" fill="#323FB7"/>
<path d="M274.5 246.001C274.498 246.288 274.581 246.569 274.74 246.809C274.898 247.049 275.123 247.236 275.388 247.347C275.653 247.459 275.945 247.489 276.227 247.434C276.509 247.379 276.768 247.242 276.972 247.039C277.176 246.837 277.315 246.579 277.371 246.297C277.428 246.016 277.4 245.724 277.291 245.458C277.181 245.192 276.995 244.965 276.757 244.806C276.518 244.646 276.237 244.561 275.95 244.561C275.568 244.563 275.202 244.715 274.931 244.985C274.66 245.254 274.505 245.619 274.5 246.001Z" fill="#323FB7"/>
<path d="M309.85 246C309.85 245.426 309.68 244.865 309.361 244.388C309.043 243.912 308.59 243.54 308.06 243.32C307.53 243.101 306.947 243.043 306.384 243.155C305.822 243.267 305.305 243.543 304.899 243.949C304.494 244.355 304.218 244.871 304.106 245.434C303.994 245.996 304.051 246.579 304.271 247.109C304.49 247.639 304.862 248.092 305.339 248.411C305.816 248.73 306.377 248.9 306.95 248.9C307.717 248.892 308.45 248.584 308.992 248.042C309.534 247.499 309.842 246.766 309.85 246Z" fill="#323FB7"/>
<path d="M340.85 246.001C340.848 245.43 340.677 244.872 340.358 244.398C340.039 243.924 339.587 243.555 339.059 243.338C338.531 243.121 337.95 243.065 337.39 243.178C336.83 243.29 336.316 243.567 335.913 243.971C335.51 244.376 335.236 244.891 335.125 245.451C335.014 246.011 335.072 246.592 335.291 247.119C335.51 247.647 335.88 248.098 336.355 248.415C336.831 248.732 337.389 248.901 337.96 248.901C338.725 248.891 339.456 248.582 339.996 248.04C340.536 247.498 340.842 246.766 340.85 246.001Z" fill="#323FB7"/>
<path d="M373.3 246C373.3 245.141 373.045 244.302 372.568 243.588C372.091 242.874 371.412 242.318 370.619 241.99C369.825 241.661 368.952 241.576 368.11 241.744C367.268 241.913 366.494 242.327 365.888 242.935C365.281 243.543 364.869 244.317 364.702 245.16C364.536 246.002 364.623 246.875 364.953 247.668C365.283 248.461 365.841 249.138 366.556 249.614C367.271 250.089 368.111 250.342 368.97 250.34C370.115 250.325 371.209 249.862 372.018 249.051C372.827 248.24 373.287 247.145 373.3 246Z" fill="#323FB7"/>
<path d="M404.31 246C404.31 245.142 404.055 244.303 403.578 243.589C403.102 242.875 402.424 242.319 401.631 241.991C400.838 241.662 399.965 241.576 399.123 241.744C398.281 241.911 397.508 242.324 396.901 242.931C396.294 243.538 395.881 244.312 395.713 245.153C395.546 245.995 395.632 246.868 395.96 247.661C396.289 248.454 396.845 249.132 397.559 249.609C398.272 250.086 399.112 250.34 399.97 250.34C401.117 250.327 402.213 249.866 403.024 249.055C403.835 248.244 404.297 247.147 404.31 246Z" fill="#323FB7"/>
<path d="M243.49 215.001C243.49 215.288 243.575 215.568 243.734 215.806C243.894 216.045 244.12 216.231 244.385 216.34C244.65 216.45 244.942 216.479 245.223 216.423C245.504 216.367 245.763 216.229 245.965 216.026C246.168 215.823 246.306 215.565 246.362 215.284C246.418 215.002 246.389 214.711 246.28 214.446C246.17 214.181 245.984 213.954 245.746 213.795C245.507 213.636 245.227 213.551 244.94 213.551C244.558 213.558 244.193 213.714 243.923 213.984C243.653 214.254 243.498 214.619 243.49 215.001Z" fill="#323FB7"/>
<path d="M278.84 215C278.842 214.425 278.673 213.863 278.355 213.385C278.038 212.907 277.585 212.533 277.054 212.313C276.524 212.092 275.94 212.034 275.377 212.145C274.813 212.257 274.296 212.533 273.889 212.939C273.483 213.345 273.207 213.863 273.095 214.427C272.984 214.99 273.042 215.574 273.263 216.104C273.483 216.635 273.857 217.087 274.335 217.405C274.814 217.723 275.376 217.892 275.95 217.89C276.713 217.879 277.442 217.572 277.982 217.032C278.522 216.492 278.83 215.763 278.84 215Z" fill="#323FB7"/>
<path d="M311.29 215C311.29 214.142 311.035 213.303 310.558 212.589C310.082 211.875 309.404 211.319 308.611 210.991C307.818 210.662 306.945 210.576 306.103 210.744C305.261 210.911 304.488 211.324 303.881 211.931C303.274 212.538 302.861 213.312 302.693 214.153C302.526 214.995 302.612 215.868 302.94 216.661C303.269 217.454 303.825 218.132 304.539 218.609C305.252 219.086 306.092 219.34 306.95 219.34C308.097 219.327 309.193 218.866 310.004 218.055C310.815 217.244 311.277 216.147 311.29 215Z" fill="#323FB7"/>
<path d="M342.3 215C342.3 214.142 342.046 213.303 341.569 212.589C341.092 211.875 340.414 211.319 339.621 210.991C338.828 210.662 337.955 210.576 337.113 210.744C336.272 210.911 335.498 211.324 334.891 211.931C334.284 212.538 333.871 213.312 333.704 214.153C333.536 214.995 333.622 215.868 333.95 216.661C334.279 217.454 334.835 218.132 335.549 218.609C336.263 219.086 337.102 219.34 337.96 219.34C339.107 219.327 340.203 218.866 341.015 218.055C341.826 217.244 342.287 216.147 342.3 215Z" fill="#323FB7"/>
<path d="M374.75 214.999C374.752 213.853 374.414 212.732 373.778 211.779C373.143 210.825 372.239 210.081 371.18 209.642C370.122 209.202 368.957 209.087 367.833 209.31C366.709 209.533 365.676 210.085 364.866 210.895C364.055 211.705 363.504 212.738 363.281 213.862C363.058 214.986 363.173 216.151 363.613 217.21C364.052 218.268 364.796 219.172 365.749 219.808C366.703 220.443 367.824 220.781 368.97 220.779C370.498 220.764 371.959 220.15 373.04 219.069C374.12 217.988 374.734 216.527 374.75 214.999Z" fill="#323FB7"/>
<path d="M405.76 214.999C405.762 213.854 405.424 212.733 404.789 211.78C404.154 210.826 403.25 210.083 402.193 209.643C401.135 209.203 399.97 209.087 398.846 209.309C397.723 209.532 396.69 210.082 395.879 210.892C395.069 211.701 394.516 212.733 394.292 213.856C394.068 214.979 394.182 216.144 394.62 217.203C395.058 218.261 395.8 219.166 396.752 219.803C397.705 220.439 398.824 220.779 399.97 220.779C401.498 220.761 402.959 220.147 404.041 219.067C405.122 217.987 405.739 216.527 405.76 214.999Z" fill="#323FB7"/>
<path d="M277.39 183.94C277.39 183.653 277.305 183.372 277.145 183.134C276.985 182.895 276.758 182.709 276.493 182.6C276.227 182.49 275.935 182.462 275.653 182.519C275.372 182.576 275.114 182.715 274.911 182.918C274.709 183.122 274.571 183.382 274.517 183.664C274.462 183.945 274.492 184.237 274.603 184.502C274.715 184.767 274.902 184.993 275.142 185.151C275.381 185.309 275.663 185.392 275.95 185.39C276.332 185.385 276.697 185.23 276.966 184.959C277.235 184.688 277.387 184.322 277.39 183.94Z" fill="#323FB7"/>
<path d="M311.29 183.94C311.29 183.081 311.035 182.242 310.558 181.528C310.082 180.815 309.404 180.258 308.611 179.93C307.818 179.601 306.945 179.516 306.103 179.683C305.261 179.85 304.488 180.264 303.881 180.871C303.274 181.478 302.861 182.251 302.693 183.093C302.526 183.935 302.612 184.807 302.94 185.6C303.269 186.393 303.825 187.071 304.539 187.548C305.252 188.025 306.092 188.28 306.95 188.28C308.097 188.267 309.193 187.805 310.004 186.994C310.815 186.183 311.277 185.087 311.29 183.94Z" fill="#323FB7"/>
<path d="M343.74 183.94C343.74 182.795 343.4 181.675 342.763 180.723C342.127 179.77 341.222 179.028 340.163 178.59C339.105 178.152 337.94 178.038 336.817 178.262C335.693 178.487 334.662 179.039 333.852 179.85C333.043 180.661 332.492 181.693 332.27 182.817C332.048 183.941 332.164 185.105 332.604 186.163C333.043 187.221 333.787 188.124 334.74 188.759C335.694 189.394 336.814 189.732 337.96 189.73C339.489 189.712 340.95 189.096 342.03 188.014C343.111 186.932 343.724 185.469 343.74 183.94Z" fill="#323FB7"/>
<path d="M374.75 183.94C374.75 182.795 374.41 181.675 373.773 180.723C373.137 179.77 372.232 179.028 371.173 178.59C370.115 178.152 368.95 178.038 367.827 178.262C366.703 178.487 365.672 179.039 364.862 179.85C364.053 180.661 363.502 181.693 363.28 182.817C363.058 183.941 363.174 185.105 363.614 186.163C364.053 187.221 364.797 188.124 365.75 188.759C366.704 189.394 367.824 189.732 368.97 189.73C370.499 189.712 371.96 189.096 373.04 188.014C374.121 186.932 374.734 185.469 374.75 183.94Z" fill="#323FB7"/>
<path d="M405.76 183.94C405.76 182.795 405.42 181.676 404.784 180.724C404.148 179.771 403.244 179.029 402.186 178.591C401.128 178.153 399.964 178.038 398.84 178.262C397.717 178.485 396.686 179.037 395.876 179.846C395.066 180.656 394.515 181.688 394.291 182.811C394.068 183.934 394.182 185.098 394.621 186.156C395.059 187.214 395.801 188.118 396.753 188.755C397.705 189.391 398.825 189.73 399.97 189.73C401.499 189.71 402.96 189.093 404.041 188.012C405.123 186.93 405.739 185.47 405.76 183.94Z" fill="#323FB7"/>
<path d="M280.28 152.93C280.28 152.071 280.025 151.232 279.548 150.518C279.071 149.804 278.392 149.247 277.599 148.919C276.805 148.591 275.932 148.506 275.09 148.674C274.248 148.842 273.474 149.257 272.868 149.865C272.261 150.473 271.849 151.247 271.682 152.089C271.516 152.932 271.603 153.805 271.933 154.598C272.263 155.39 272.821 156.068 273.536 156.543C274.251 157.019 275.091 157.272 275.95 157.27C277.095 157.254 278.189 156.792 278.998 155.981C279.807 155.17 280.267 154.075 280.28 152.93Z" fill="#323FB7"/>
<path d="M312.74 152.931C312.74 151.785 312.4 150.666 311.764 149.714C311.128 148.762 310.224 148.02 309.166 147.581C308.108 147.143 306.944 147.028 305.82 147.252C304.697 147.475 303.666 148.027 302.856 148.836C302.046 149.646 301.495 150.678 301.271 151.801C301.048 152.924 301.162 154.088 301.601 155.146C302.039 156.204 302.781 157.109 303.733 157.745C304.685 158.381 305.805 158.721 306.95 158.721C308.48 158.702 309.942 158.087 311.024 157.005C312.106 155.923 312.722 154.461 312.74 152.931Z" fill="#323FB7"/>
<path d="M343.74 152.931C343.74 151.785 343.4 150.665 342.763 149.713C342.127 148.76 341.222 148.018 340.163 147.58C339.105 147.142 337.94 147.028 336.817 147.253C335.693 147.477 334.662 148.029 333.852 148.84C333.043 149.651 332.492 150.683 332.27 151.807C332.048 152.931 332.164 154.095 332.604 155.153C333.043 156.211 333.787 157.115 334.74 157.75C335.694 158.385 336.814 158.723 337.96 158.721C339.49 158.705 340.952 158.09 342.033 157.007C343.114 155.924 343.727 154.46 343.74 152.931Z" fill="#323FB7"/>
<path d="M374.75 152.931C374.75 151.785 374.41 150.665 373.773 149.713C373.137 148.76 372.232 148.018 371.173 147.58C370.115 147.142 368.95 147.028 367.827 147.253C366.703 147.477 365.672 148.029 364.862 148.84C364.053 149.651 363.502 150.683 363.28 151.807C363.058 152.931 363.174 154.095 363.614 155.153C364.053 156.211 364.797 157.115 365.75 157.75C366.704 158.385 367.824 158.723 368.97 158.721C370.5 158.705 371.962 158.09 373.043 157.007C374.124 155.924 374.737 154.46 374.75 152.931Z" fill="#323FB7"/>
<path d="M405.76 152.931C405.76 151.785 405.42 150.666 404.784 149.714C404.148 148.762 403.244 148.02 402.186 147.581C401.128 147.143 399.964 147.028 398.84 147.252C397.717 147.475 396.686 148.027 395.876 148.836C395.066 149.646 394.515 150.678 394.291 151.801C394.068 152.924 394.182 154.088 394.621 155.146C395.059 156.204 395.801 157.109 396.753 157.745C397.705 158.381 398.825 158.721 399.97 158.721C401.5 158.702 402.962 158.087 404.044 157.005C405.126 155.923 405.742 154.461 405.76 152.931Z" fill="#323FB7"/>
<path d="M212.49 121.931C212.49 122.218 212.575 122.498 212.735 122.737C212.895 122.976 213.122 123.162 213.387 123.271C213.653 123.381 213.945 123.409 214.227 123.352C214.508 123.295 214.766 123.156 214.969 122.952C215.171 122.748 215.309 122.489 215.363 122.207C215.418 121.925 215.388 121.633 215.277 121.369C215.165 121.104 214.978 120.878 214.738 120.72C214.499 120.562 214.217 120.479 213.93 120.481C213.548 120.486 213.183 120.64 212.914 120.912C212.645 121.183 212.493 121.548 212.49 121.931Z" fill="#323FB7"/>
<path d="M247.83 121.929C247.83 121.357 247.661 120.799 247.343 120.323C247.025 119.848 246.574 119.478 246.046 119.259C245.518 119.04 244.937 118.983 244.376 119.095C243.816 119.206 243.301 119.481 242.897 119.886C242.492 120.29 242.217 120.805 242.106 121.365C241.994 121.926 242.051 122.507 242.27 123.035C242.489 123.563 242.859 124.014 243.334 124.332C243.81 124.65 244.368 124.819 244.94 124.819C245.703 124.809 246.432 124.501 246.972 123.961C247.512 123.421 247.82 122.692 247.83 121.929Z" fill="#323FB7"/>
<path d="M278.84 121.93C278.842 121.355 278.673 120.793 278.355 120.315C278.038 119.836 277.585 119.463 277.054 119.242C276.524 119.021 275.94 118.963 275.377 119.075C274.813 119.186 274.296 119.463 273.889 119.869C273.483 120.275 273.207 120.793 273.095 121.356C272.984 121.92 273.042 122.504 273.263 123.034C273.483 123.564 273.857 124.017 274.335 124.335C274.814 124.653 275.376 124.821 275.95 124.82C276.713 124.809 277.442 124.501 277.982 123.962C278.522 123.422 278.83 122.693 278.84 121.93Z" fill="#323FB7"/>
<path d="M311.29 121.93C311.29 121.071 311.035 120.232 310.558 119.519C310.082 118.805 309.404 118.249 308.611 117.92C307.818 117.592 306.945 117.506 306.103 117.673C305.261 117.841 304.488 118.254 303.881 118.861C303.274 119.468 302.861 120.241 302.693 121.083C302.526 121.925 302.612 122.798 302.94 123.591C303.269 124.384 303.825 125.062 304.539 125.538C305.252 126.015 306.092 126.27 306.95 126.27C308.097 126.257 309.193 125.795 310.004 124.984C310.815 124.173 311.277 123.077 311.29 121.93Z" fill="#323FB7"/>
<path d="M342.3 121.93C342.3 121.071 342.046 120.232 341.569 119.519C341.092 118.805 340.414 118.249 339.621 117.92C338.828 117.592 337.955 117.506 337.113 117.673C336.272 117.841 335.498 118.254 334.891 118.861C334.284 119.468 333.871 120.241 333.704 121.083C333.536 121.925 333.622 122.798 333.95 123.591C334.279 124.384 334.835 125.062 335.549 125.538C336.263 126.015 337.102 126.27 337.96 126.27C339.107 126.257 340.203 125.795 341.015 124.984C341.826 124.173 342.287 123.077 342.3 121.93Z" fill="#323FB7"/>
<path d="M374.75 121.929C374.752 120.783 374.414 119.662 373.778 118.708C373.143 117.755 372.239 117.011 371.18 116.572C370.122 116.132 368.957 116.017 367.833 116.24C366.709 116.463 365.676 117.014 364.866 117.825C364.055 118.635 363.504 119.668 363.281 120.792C363.058 121.916 363.173 123.081 363.613 124.139C364.052 125.198 364.796 126.102 365.749 126.737C366.703 127.373 367.824 127.711 368.97 127.709C370.498 127.693 371.959 127.079 373.04 125.999C374.12 124.918 374.734 123.457 374.75 121.929Z" fill="#323FB7"/>
<path d="M405.76 121.929C405.762 120.783 405.424 119.663 404.789 118.709C404.154 117.756 403.25 117.012 402.193 116.573C401.135 116.133 399.97 116.017 398.846 116.239C397.723 116.461 396.69 117.012 395.879 117.821C395.069 118.631 394.516 119.662 394.292 120.786C394.068 121.909 394.182 123.074 394.62 124.132C395.058 125.191 395.8 126.096 396.752 126.732C397.705 127.369 398.824 127.709 399.97 127.709C401.498 127.691 402.959 127.076 404.041 125.997C405.122 124.917 405.739 123.457 405.76 121.929Z" fill="#323FB7"/>
<path d="M185.82 90.9197C185.822 90.3453 185.653 89.7833 185.335 89.3048C185.018 88.8264 184.565 88.4532 184.034 88.2324C183.504 88.0117 182.92 87.9534 182.357 88.065C181.793 88.1766 181.276 88.453 180.869 88.8592C180.463 89.2653 180.187 89.783 180.075 90.3465C179.964 90.9099 180.022 91.4938 180.243 92.0242C180.463 92.5545 180.837 93.0073 181.315 93.3252C181.794 93.6431 182.356 93.8117 182.93 93.8097C183.694 93.8019 184.425 93.4949 184.965 92.9547C185.505 92.4144 185.812 91.6838 185.82 90.9197Z" fill="#323FB7"/>
<path d="M212.49 90.9205C212.488 91.2081 212.572 91.4898 212.73 91.7298C212.889 91.9698 213.115 92.1572 213.38 92.2682C213.646 92.3792 213.938 92.4087 214.22 92.3531C214.503 92.2975 214.762 92.1592 214.965 91.9558C215.169 91.7524 215.307 91.4931 215.363 91.2109C215.418 90.9287 215.389 90.6363 215.278 90.371C215.167 90.1056 214.979 89.8793 214.739 89.7207C214.499 89.5621 214.218 89.4785 213.93 89.4805C213.549 89.4831 213.184 89.6357 212.915 89.9052C212.645 90.1746 212.493 90.5394 212.49 90.9205Z" fill="#323FB7"/>
<path d="M247.83 90.9193C247.83 90.3477 247.661 89.789 247.343 89.3137C247.025 88.8384 246.574 88.468 246.046 88.2493C245.518 88.0305 244.937 87.9733 244.376 88.0848C243.816 88.1963 243.301 88.4716 242.897 88.8758C242.492 89.2799 242.217 89.7949 242.106 90.3555C241.994 90.9161 242.051 91.4972 242.27 92.0253C242.489 92.5533 242.859 93.0047 243.334 93.3222C243.81 93.6398 244.368 93.8093 244.94 93.8093C245.704 93.8015 246.435 93.4945 246.975 92.9542C247.515 92.4139 247.822 91.6833 247.83 90.9193Z" fill="#323FB7"/>
<path d="M278.84 90.9211C278.842 90.3446 278.672 89.7806 278.352 89.3012C278.032 88.8217 277.576 88.4486 277.042 88.2294C276.509 88.0103 275.923 87.955 275.358 88.0707C274.793 88.1864 274.276 88.4679 273.872 88.8791C273.468 89.2903 273.195 89.8126 273.089 90.3793C272.983 90.946 273.049 91.5315 273.277 92.0608C273.506 92.5901 273.887 93.0393 274.372 93.3511C274.857 93.6629 275.424 93.823 276 93.8111C276.755 93.7904 277.473 93.4778 278.003 92.9389C278.532 92.3999 278.833 91.6767 278.84 90.9211Z" fill="#323FB7"/>
<path d="M309.85 90.9198C309.852 90.3458 309.684 89.7841 309.366 89.3059C309.049 88.8277 308.597 88.4544 308.067 88.2334C307.537 88.0124 306.954 87.9535 306.39 88.0643C305.827 88.175 305.31 88.4504 304.903 88.8556C304.496 89.2608 304.219 89.7775 304.107 90.3403C303.994 90.9031 304.051 91.4867 304.27 92.0172C304.489 92.5477 304.861 93.0012 305.338 93.3203C305.815 93.6394 306.376 93.8098 306.95 93.8098C307.715 93.802 308.447 93.4953 308.989 92.9553C309.53 92.4153 309.84 91.6847 309.85 90.9198Z" fill="#323FB7"/>
<path d="M342.3 90.9199C342.3 90.0598 342.045 89.2192 341.566 88.5046C341.087 87.7901 340.407 87.2339 339.612 86.9066C338.816 86.5793 337.942 86.4957 337.099 86.6664C336.256 86.8372 335.482 87.2545 334.877 87.8655C334.272 88.4764 333.862 89.2535 333.699 90.098C333.536 90.9425 333.627 91.8163 333.962 92.6086C334.297 93.4009 334.859 94.076 335.578 94.548C336.297 95.02 337.14 95.2678 338 95.2599C339.14 95.2366 340.226 94.7706 341.029 93.9606C341.831 93.1506 342.287 92.0601 342.3 90.9199Z" fill="#323FB7"/>
<path d="M373.3 90.9199C373.3 90.0598 373.045 89.2192 372.566 88.5046C372.087 87.7901 371.407 87.2339 370.612 86.9066C369.816 86.5793 368.942 86.4957 368.099 86.6664C367.256 86.8372 366.482 87.2545 365.877 87.8655C365.272 88.4764 364.862 89.2535 364.699 90.098C364.536 90.9425 364.627 91.8163 364.962 92.6086C365.297 93.4009 365.859 94.076 366.578 94.548C367.297 95.02 368.14 95.2678 369 95.2599C370.14 95.2366 371.226 94.7706 372.029 93.9606C372.831 93.1506 373.287 92.0601 373.3 90.9199Z" fill="#323FB7"/>
<path d="M405.76 90.9188C405.76 89.7724 405.42 88.6518 404.782 87.699C404.144 86.7462 403.238 86.0041 402.179 85.5668C401.119 85.1294 399.953 85.0165 398.829 85.2424C397.705 85.4682 396.674 86.0227 395.865 86.8354C395.057 87.6482 394.508 88.6826 394.288 89.8078C394.068 90.9329 394.186 92.098 394.629 93.1554C395.072 94.2129 395.819 95.1151 396.775 95.7477C397.731 96.3802 398.854 96.7148 400 96.7088C401.524 96.6804 402.977 96.0603 404.052 94.9798C405.127 93.8992 405.739 92.4429 405.76 90.9188Z" fill="#323FB7"/>
<path d="M243.49 59.9207C243.49 60.2075 243.575 60.4878 243.734 60.7263C243.894 60.9647 244.12 61.1506 244.385 61.2603C244.65 61.3701 244.942 61.3988 245.223 61.3428C245.504 61.2869 245.763 61.1488 245.965 60.946C246.168 60.7432 246.306 60.4849 246.362 60.2036C246.418 59.9223 246.389 59.6308 246.28 59.3658C246.17 59.1009 245.984 58.8744 245.746 58.7151C245.507 58.5557 245.227 58.4707 244.94 58.4707C244.557 58.4759 244.191 58.6303 243.92 58.9011C243.65 59.1719 243.495 59.5377 243.49 59.9207Z" fill="#323FB7"/>
<path d="M278.84 59.9211C278.842 59.3446 278.672 58.7806 278.352 58.3012C278.032 57.8217 277.576 57.4486 277.042 57.2294C276.509 57.0103 275.923 56.955 275.358 57.0707C274.793 57.1864 274.276 57.4679 273.872 57.8791C273.468 58.2903 273.195 58.8126 273.089 59.3793C272.983 59.946 273.049 60.5314 273.277 61.0608C273.506 61.5901 273.887 62.0393 274.372 62.3511C274.857 62.6629 275.424 62.823 276 62.8111C276.755 62.788 277.471 62.4745 278 61.9361C278.529 61.3977 278.83 60.6759 278.84 59.9211Z" fill="#323FB7"/>
<path d="M309.85 59.9198C309.852 59.3458 309.684 58.7841 309.366 58.3059C309.049 57.8277 308.597 57.4544 308.067 57.2334C307.537 57.0124 306.954 56.9535 306.39 57.0643C305.827 57.175 305.31 57.4504 304.903 57.8556C304.496 58.2608 304.219 58.7775 304.107 59.3403C303.994 59.9031 304.051 60.4867 304.27 61.0172C304.489 61.5477 304.861 62.0012 305.338 62.3203C305.815 62.6394 306.376 62.8098 306.95 62.8098C307.715 62.802 308.447 62.4953 308.989 61.9553C309.53 61.4153 309.84 60.6847 309.85 59.9198Z" fill="#323FB7"/>
<path d="M340.85 59.921C340.85 59.3477 340.679 58.7874 340.36 58.3113C340.041 57.8352 339.587 57.4649 339.057 57.2474C338.526 57.0298 337.943 56.975 337.381 57.0898C336.82 57.2046 336.305 57.4838 335.902 57.892C335.5 58.3002 335.228 58.8189 335.121 59.3821C335.014 59.9453 335.077 60.5276 335.302 61.0549C335.527 61.5823 335.903 62.0308 336.384 62.3435C336.864 62.6562 337.427 62.8189 338 62.811C338.756 62.7904 339.475 62.4781 340.007 61.9394C340.538 61.4007 340.84 60.6775 340.85 59.921Z" fill="#323FB7"/>
<path d="M373.3 59.9201C373.302 59.0596 373.048 58.218 372.571 57.5021C372.093 56.7863 371.414 56.2285 370.619 55.8997C369.823 55.5709 368.948 55.4858 368.105 55.6554C367.261 55.825 366.487 56.2416 365.881 56.8522C365.274 57.4627 364.863 58.2398 364.699 59.0845C364.536 59.9293 364.627 60.8037 364.961 61.5966C365.295 62.3895 365.858 63.0651 366.577 63.5375C367.296 64.01 368.14 64.2581 369 64.2501C370.139 64.2294 371.225 63.7656 372.028 62.9572C372.831 62.1488 373.287 61.0594 373.3 59.9201Z" fill="#323FB7"/>
<path d="M404.31 59.9202C404.312 59.0601 404.058 58.2189 403.581 57.5032C403.104 56.7876 402.426 56.2298 401.631 55.9006C400.836 55.5715 399.962 55.4859 399.118 55.6547C398.275 55.8235 397.501 56.239 396.894 56.8486C396.287 57.4582 395.875 58.2343 395.711 59.0784C395.546 59.9225 395.635 60.7966 395.968 61.5896C396.301 62.3827 396.862 63.059 397.58 63.5327C398.298 64.0064 399.14 64.2562 400 64.2502C401.14 64.2295 402.227 63.7661 403.032 62.9579C403.836 62.1498 404.295 61.0604 404.31 59.9202Z" fill="#323FB7"/>
<path d="M61.79 680.05C61.79 679.479 61.6205 678.92 61.303 678.445C60.9854 677.969 60.534 677.599 60.006 677.38C59.4779 677.161 58.8968 677.104 58.3362 677.216C57.7756 677.327 57.2606 677.602 56.8565 678.007C56.4523 678.411 56.1771 678.926 56.0655 679.486C55.954 680.047 56.0113 680.628 56.23 681.156C56.4487 681.684 56.8192 682.136 57.2944 682.453C57.7697 682.771 58.3284 682.94 58.9 682.94C59.6633 682.93 60.3924 682.622 60.9321 682.082C61.4719 681.543 61.7797 680.813 61.79 680.05Z" fill="#323FB7"/>
<path d="M87 680.05C87 680.624 87.1701 681.185 87.4887 681.661C87.8074 682.138 88.2603 682.51 88.7902 682.73C89.3201 682.949 89.9032 683.007 90.4658 682.895C91.0283 682.783 91.545 682.507 91.9506 682.101C92.3562 681.695 92.6324 681.179 92.7443 680.616C92.8562 680.054 92.7987 679.471 92.5793 678.941C92.3598 678.411 91.9881 677.958 91.5112 677.639C91.0343 677.32 90.4736 677.15 89.9 677.15C89.1333 677.158 88.4002 677.466 87.858 678.008C87.3159 678.551 87.0078 679.284 87 680.05Z" fill="#323FB7"/>
<path d="M123.81 680.051C123.812 679.477 123.644 678.915 123.326 678.437C123.009 677.959 122.556 677.585 122.027 677.364C121.497 677.143 120.914 677.084 120.35 677.195C119.787 677.306 119.27 677.581 118.863 677.986C118.456 678.392 118.179 678.908 118.066 679.471C117.954 680.034 118.011 680.618 118.23 681.148C118.449 681.679 118.821 682.132 119.298 682.451C119.775 682.77 120.336 682.941 120.91 682.941C121.675 682.933 122.407 682.626 122.949 682.086C123.49 681.546 123.8 680.816 123.81 680.051Z" fill="#323FB7"/>
<path d="M154.81 680.05C154.81 679.479 154.641 678.92 154.323 678.445C154.005 677.969 153.554 677.599 153.026 677.38C152.498 677.161 151.917 677.104 151.356 677.216C150.796 677.327 150.281 677.602 149.877 678.007C149.472 678.411 149.197 678.926 149.086 679.486C148.974 680.047 149.031 680.628 149.25 681.156C149.469 681.684 149.839 682.136 150.314 682.453C150.79 682.771 151.348 682.94 151.92 682.94C152.683 682.93 153.412 682.622 153.952 682.082C154.492 681.543 154.8 680.813 154.81 680.05Z" fill="#323FB7"/>
<path d="M185.82 680.051C185.822 679.476 185.653 678.914 185.335 678.436C185.018 677.957 184.565 677.584 184.034 677.363C183.504 677.143 182.92 677.084 182.357 677.196C181.793 677.307 181.276 677.584 180.869 677.99C180.463 678.396 180.187 678.914 180.075 679.477C179.964 680.041 180.022 680.625 180.243 681.155C180.463 681.685 180.837 682.138 181.315 682.456C181.794 682.774 182.356 682.943 182.93 682.941C183.693 682.93 184.422 682.622 184.962 682.083C185.502 681.543 185.81 680.814 185.82 680.051Z" fill="#323FB7"/>
<path d="M216.83 680.051C216.832 679.477 216.664 678.915 216.346 678.437C216.029 677.959 215.576 677.585 215.047 677.364C214.517 677.143 213.934 677.084 213.37 677.195C212.807 677.306 212.29 677.581 211.883 677.986C211.476 678.392 211.199 678.908 211.086 679.471C210.974 680.034 211.031 680.618 211.25 681.148C211.469 681.679 211.841 682.132 212.318 682.451C212.795 682.77 213.356 682.941 213.93 682.941C214.695 682.933 215.427 682.626 215.969 682.086C216.51 681.546 216.82 680.816 216.83 680.051Z" fill="#323FB7"/>
<path d="M247.83 680.05C247.83 679.479 247.661 678.92 247.343 678.445C247.025 677.969 246.574 677.599 246.046 677.38C245.518 677.161 244.937 677.104 244.376 677.216C243.816 677.327 243.301 677.602 242.897 678.007C242.492 678.411 242.217 678.926 242.106 679.486C241.994 680.047 242.051 680.628 242.27 681.156C242.489 681.684 242.859 682.136 243.334 682.453C243.81 682.771 244.368 682.94 244.94 682.94C245.703 682.93 246.432 682.622 246.972 682.082C247.512 681.543 247.82 680.813 247.83 680.05Z" fill="#323FB7"/>
<path d="M278.84 680.051C278.842 679.476 278.673 678.914 278.355 678.436C278.038 677.957 277.585 677.584 277.054 677.363C276.524 677.143 275.94 677.084 275.377 677.196C274.813 677.307 274.296 677.584 273.889 677.99C273.483 678.396 273.207 678.914 273.095 679.477C272.984 680.041 273.042 680.625 273.263 681.155C273.483 681.685 273.857 682.138 274.335 682.456C274.814 682.774 275.376 682.943 275.95 682.941C276.713 682.93 277.442 682.622 277.982 682.083C278.522 681.543 278.83 680.814 278.84 680.051Z" fill="#323FB7"/>
<path d="M308.4 680.05C308.402 679.763 308.319 679.481 308.16 679.242C308.002 679.002 307.777 678.814 307.512 678.703C307.247 678.592 306.955 678.562 306.673 678.616C306.391 678.671 306.132 678.809 305.928 679.011C305.724 679.213 305.585 679.472 305.529 679.753C305.472 680.035 305.5 680.327 305.609 680.592C305.719 680.858 305.905 681.085 306.143 681.245C306.382 681.405 306.663 681.49 306.95 681.49C307.332 681.487 307.698 681.335 307.969 681.066C308.24 680.797 308.395 680.432 308.4 680.05Z" fill="#323FB7"/>
<path d="M339.41 680.05C339.412 679.763 339.329 679.481 339.17 679.242C339.012 679.002 338.787 678.814 338.522 678.703C338.257 678.592 337.965 678.562 337.683 678.616C337.401 678.671 337.142 678.809 336.938 679.011C336.734 679.213 336.595 679.472 336.539 679.753C336.482 680.035 336.51 680.327 336.619 680.592C336.729 680.858 336.915 681.085 337.153 681.245C337.392 681.405 337.673 681.49 337.96 681.49C338.341 681.485 338.706 681.332 338.976 681.063C339.247 680.794 339.402 680.431 339.41 680.05Z" fill="#323FB7"/>
<path d="M371.86 680.051C371.862 679.476 371.693 678.914 371.375 678.436C371.058 677.957 370.605 677.584 370.074 677.363C369.544 677.143 368.96 677.084 368.397 677.196C367.833 677.307 367.316 677.584 366.909 677.99C366.503 678.396 366.227 678.914 366.115 679.477C366.004 680.041 366.062 680.625 366.283 681.155C366.503 681.685 366.877 682.138 367.355 682.456C367.834 682.774 368.396 682.943 368.97 682.941C369.733 682.93 370.462 682.622 371.002 682.083C371.542 681.543 371.85 680.814 371.86 680.051Z" fill="#323FB7"/>
<path d="M402.87 680.051C402.872 679.477 402.704 678.915 402.386 678.437C402.069 677.959 401.617 677.585 401.087 677.364C400.557 677.143 399.974 677.084 399.41 677.195C398.847 677.306 398.33 677.581 397.923 677.986C397.516 678.392 397.239 678.908 397.127 679.471C397.014 680.034 397.071 680.618 397.29 681.148C397.509 681.679 397.881 682.132 398.358 682.451C398.835 682.77 399.396 682.941 399.97 682.941C400.735 682.933 401.467 682.626 402.009 682.086C402.55 681.546 402.86 680.816 402.87 680.051Z" fill="#323FB7"/>
<path d="M91.35 649.001C91.3499 648.714 91.2646 648.433 91.1049 648.194C90.9451 647.956 90.718 647.77 90.4525 647.66C90.187 647.551 89.8949 647.523 89.6134 647.579C89.3318 647.636 89.0735 647.775 88.8711 647.979C88.6687 648.183 88.5314 648.442 88.4766 648.724C88.4218 649.006 88.4519 649.298 88.5632 649.563C88.6745 649.827 88.8619 650.053 89.1017 650.211C89.3414 650.369 89.6228 650.453 89.91 650.451C90.292 650.446 90.6567 650.291 90.9259 650.02C91.1951 649.749 91.3474 649.383 91.35 649.001Z" fill="#323FB7"/>
<path d="M122.36 649.001C122.36 648.714 122.275 648.434 122.116 648.195C121.956 647.957 121.73 647.771 121.465 647.661C121.2 647.551 120.908 647.523 120.627 647.579C120.346 647.635 120.087 647.773 119.885 647.975C119.682 648.178 119.544 648.437 119.488 648.718C119.432 648.999 119.461 649.291 119.57 649.556C119.68 649.821 119.866 650.047 120.104 650.206C120.343 650.366 120.623 650.451 120.91 650.451C121.293 650.446 121.659 650.291 121.93 650.02C122.2 649.75 122.355 649.384 122.36 649.001Z" fill="#323FB7"/>
<path d="M154.81 648.999C154.81 648.428 154.641 647.869 154.323 647.394C154.005 646.919 153.554 646.548 153.026 646.329C152.498 646.111 151.917 646.053 151.356 646.165C150.796 646.276 150.281 646.552 149.877 646.956C149.472 647.36 149.197 647.875 149.086 648.436C148.974 648.996 149.031 649.577 149.25 650.105C149.469 650.633 149.839 651.085 150.314 651.402C150.79 651.72 151.348 651.889 151.92 651.889C152.683 651.879 153.412 651.571 153.952 651.031C154.492 650.492 154.8 649.763 154.81 648.999Z" fill="#323FB7"/>
<path d="M185.82 649C185.822 648.425 185.653 647.863 185.335 647.385C185.018 646.906 184.565 646.533 184.034 646.313C183.504 646.092 182.92 646.034 182.357 646.145C181.793 646.257 181.276 646.533 180.869 646.939C180.463 647.345 180.187 647.863 180.075 648.427C179.964 648.99 180.022 649.574 180.243 650.104C180.463 650.635 180.837 651.087 181.315 651.405C181.794 651.723 182.356 651.892 182.93 651.89C183.693 651.879 184.422 651.572 184.962 651.032C185.502 650.492 185.81 649.763 185.82 649Z" fill="#323FB7"/>
<path d="M215.38 649.001C215.38 648.714 215.295 648.434 215.136 648.195C214.976 647.957 214.75 647.771 214.485 647.661C214.22 647.551 213.928 647.523 213.647 647.579C213.366 647.635 213.107 647.773 212.905 647.975C212.702 648.178 212.564 648.437 212.508 648.718C212.452 648.999 212.481 649.291 212.59 649.556C212.7 649.821 212.886 650.047 213.124 650.206C213.363 650.366 213.643 650.451 213.93 650.451C214.313 650.446 214.679 650.291 214.95 650.02C215.22 649.75 215.375 649.384 215.38 649.001Z" fill="#323FB7"/>
<path d="M246.39 649.001C246.39 648.714 246.305 648.434 246.146 648.195C245.986 647.957 245.76 647.771 245.495 647.661C245.23 647.551 244.938 647.523 244.657 647.579C244.376 647.635 244.117 647.773 243.915 647.975C243.712 648.178 243.574 648.437 243.518 648.718C243.462 648.999 243.491 649.291 243.6 649.556C243.71 649.821 243.896 650.047 244.134 650.206C244.373 650.366 244.653 650.451 244.94 650.451C245.322 650.443 245.687 650.288 245.957 650.018C246.227 649.747 246.382 649.383 246.39 649.001Z" fill="#323FB7"/>
<path d="M278.84 649C278.842 648.425 278.673 647.863 278.355 647.385C278.038 646.906 277.585 646.533 277.054 646.313C276.524 646.092 275.94 646.034 275.377 646.145C274.813 646.257 274.296 646.533 273.889 646.939C273.483 647.345 273.207 647.863 273.095 648.427C272.984 648.99 273.042 649.574 273.263 650.104C273.483 650.635 273.857 651.087 274.335 651.405C274.814 651.723 275.376 651.892 275.95 651.89C276.713 651.879 277.442 651.572 277.982 651.032C278.522 650.492 278.83 649.763 278.84 649Z" fill="#323FB7"/>
<path d="M309.85 649C309.852 648.426 309.684 647.864 309.366 647.386C309.049 646.908 308.597 646.535 308.067 646.313C307.537 646.092 306.954 646.034 306.39 646.144C305.827 646.255 305.31 646.531 304.903 646.936C304.496 647.341 304.219 647.858 304.107 648.42C303.994 648.983 304.051 649.567 304.27 650.097C304.489 650.628 304.861 651.081 305.338 651.4C305.815 651.719 306.376 651.89 306.95 651.89C307.715 651.882 308.447 651.575 308.989 651.035C309.53 650.495 309.84 649.765 309.85 649Z" fill="#323FB7"/>
<path d="M342.3 649C342.3 648.142 342.046 647.303 341.569 646.589C341.092 645.875 340.414 645.319 339.621 644.991C338.828 644.662 337.955 644.576 337.113 644.744C336.272 644.911 335.498 645.324 334.891 645.931C334.284 646.538 333.871 647.312 333.704 648.153C333.536 648.995 333.622 649.868 333.95 650.661C334.279 651.454 334.835 652.132 335.549 652.609C336.263 653.086 337.102 653.34 337.96 653.34C339.107 653.327 340.203 652.866 341.015 652.055C341.826 651.244 342.287 650.147 342.3 649Z" fill="#323FB7"/>
<path d="M374.75 648.999C374.752 647.853 374.414 646.732 373.778 645.779C373.143 644.825 372.239 644.081 371.18 643.642C370.122 643.202 368.957 643.087 367.833 643.31C366.709 643.533 365.676 644.085 364.866 644.895C364.055 645.705 363.504 646.738 363.281 647.862C363.058 648.986 363.173 650.151 363.613 651.21C364.052 652.268 364.796 653.172 365.749 653.808C366.703 654.443 367.824 654.781 368.97 654.779C370.498 654.764 371.959 654.15 373.04 653.069C374.12 651.988 374.734 650.527 374.75 648.999Z" fill="#323FB7"/>
<path d="M404.31 649C404.31 648.142 404.055 647.303 403.578 646.589C403.102 645.875 402.424 645.319 401.631 644.991C400.838 644.662 399.965 644.576 399.123 644.744C398.281 644.911 397.508 645.324 396.901 645.931C396.294 646.538 395.881 647.312 395.713 648.153C395.546 648.995 395.632 649.868 395.96 650.661C396.289 651.454 396.845 652.132 397.559 652.609C398.272 653.086 399.112 653.34 399.97 653.34C401.117 653.327 402.213 652.866 403.024 652.055C403.835 651.244 404.297 650.147 404.31 649Z" fill="#323FB7"/>
<path d="M122.36 618.001C122.36 617.714 122.275 617.434 122.116 617.195C121.956 616.957 121.73 616.771 121.465 616.661C121.2 616.551 120.908 616.523 120.627 616.579C120.346 616.635 120.087 616.773 119.885 616.975C119.682 617.178 119.544 617.437 119.488 617.718C119.432 617.999 119.461 618.291 119.57 618.556C119.68 618.821 119.866 619.047 120.104 619.206C120.343 619.366 120.623 619.451 120.91 619.451C121.294 619.448 121.661 619.295 121.932 619.023C122.204 618.752 122.357 618.385 122.36 618.001Z" fill="#323FB7"/>
<path d="M154.81 618.001C154.808 617.43 154.637 616.872 154.318 616.398C153.999 615.924 153.547 615.555 153.019 615.338C152.491 615.121 151.91 615.065 151.35 615.178C150.79 615.29 150.276 615.566 149.873 615.971C149.47 616.376 149.196 616.891 149.085 617.451C148.974 618.011 149.032 618.592 149.251 619.119C149.47 619.647 149.84 620.098 150.315 620.415C150.79 620.732 151.349 620.901 151.92 620.901C152.685 620.891 153.416 620.581 153.956 620.04C154.496 619.498 154.802 618.766 154.81 618.001Z" fill="#323FB7"/>
<path d="M187.26 618C187.26 617.141 187.005 616.302 186.528 615.588C186.051 614.874 185.372 614.318 184.579 613.99C183.785 613.661 182.912 613.576 182.07 613.744C181.228 613.913 180.454 614.327 179.848 614.935C179.241 615.543 178.829 616.317 178.662 617.16C178.496 618.002 178.583 618.875 178.913 619.668C179.243 620.461 179.801 621.138 180.516 621.614C181.231 622.089 182.071 622.342 182.93 622.34C184.075 622.325 185.169 621.862 185.978 621.051C186.787 620.24 187.247 619.145 187.26 618Z" fill="#323FB7"/>
<path d="M216.83 618C216.83 617.426 216.66 616.865 216.341 616.388C216.023 615.912 215.57 615.54 215.04 615.32C214.51 615.101 213.927 615.043 213.364 615.155C212.802 615.267 212.285 615.543 211.879 615.949C211.474 616.355 211.198 616.871 211.086 617.434C210.974 617.996 211.031 618.58 211.251 619.109C211.47 619.639 211.842 620.092 212.319 620.411C212.796 620.73 213.356 620.9 213.93 620.9C214.697 620.892 215.43 620.584 215.972 620.042C216.514 619.499 216.822 618.766 216.83 618Z" fill="#323FB7"/>
<path d="M246.39 618.001C246.39 617.714 246.305 617.434 246.146 617.195C245.986 616.957 245.76 616.771 245.495 616.661C245.23 616.551 244.938 616.523 244.657 616.579C244.376 616.635 244.117 616.773 243.915 616.975C243.712 617.178 243.574 617.437 243.518 617.718C243.462 617.999 243.491 618.291 243.6 618.556C243.71 618.821 243.896 619.047 244.134 619.206C244.373 619.366 244.653 619.451 244.94 619.451C245.323 619.446 245.689 619.291 245.96 619.02C246.23 618.75 246.385 618.384 246.39 618.001Z" fill="#323FB7"/>
<path d="M277.39 618.001C277.39 617.714 277.305 617.433 277.145 617.194C276.985 616.956 276.758 616.77 276.493 616.66C276.227 616.551 275.935 616.523 275.653 616.579C275.372 616.636 275.114 616.775 274.911 616.979C274.709 617.183 274.571 617.442 274.517 617.724C274.462 618.006 274.492 618.298 274.603 618.563C274.715 618.827 274.902 619.053 275.142 619.211C275.381 619.369 275.663 619.453 275.95 619.451C276.332 619.446 276.697 619.291 276.966 619.02C277.235 618.749 277.387 618.383 277.39 618.001Z" fill="#323FB7"/>
<path d="M309.85 618C309.85 617.426 309.68 616.865 309.361 616.388C309.043 615.912 308.59 615.54 308.06 615.32C307.53 615.101 306.947 615.043 306.384 615.155C305.822 615.267 305.305 615.543 304.899 615.949C304.494 616.355 304.218 616.871 304.106 617.434C303.994 617.996 304.051 618.58 304.271 619.109C304.49 619.639 304.862 620.092 305.339 620.411C305.816 620.73 306.377 620.9 306.95 620.9C307.717 620.892 308.45 620.584 308.992 620.042C309.534 619.499 309.842 618.766 309.85 618Z" fill="#323FB7"/>
<path d="M340.85 618.001C340.848 617.43 340.677 616.872 340.358 616.398C340.039 615.924 339.587 615.555 339.059 615.338C338.531 615.121 337.95 615.065 337.39 615.178C336.83 615.29 336.316 615.566 335.913 615.971C335.51 616.376 335.236 616.891 335.125 617.451C335.014 618.011 335.072 618.592 335.291 619.119C335.51 619.647 335.88 620.098 336.355 620.415C336.831 620.732 337.389 620.901 337.96 620.901C338.725 620.891 339.456 620.581 339.996 620.04C340.536 619.498 340.842 618.766 340.85 618.001Z" fill="#323FB7"/>
<path d="M371.86 618C371.86 617.426 371.69 616.865 371.371 616.387C371.052 615.91 370.598 615.539 370.068 615.319C369.537 615.1 368.953 615.043 368.391 615.156C367.828 615.269 367.311 615.546 366.906 615.953C366.501 616.359 366.225 616.877 366.115 617.44C366.004 618.003 366.063 618.587 366.284 619.116C366.505 619.646 366.878 620.098 367.356 620.416C367.834 620.733 368.396 620.902 368.97 620.9C369.735 620.889 370.466 620.58 371.006 620.038C371.546 619.496 371.852 618.765 371.86 618Z" fill="#323FB7"/>
<path d="M402.87 618C402.87 617.426 402.7 616.865 402.381 616.388C402.063 615.912 401.61 615.54 401.08 615.32C400.55 615.101 399.967 615.043 399.404 615.155C398.842 615.267 398.325 615.543 397.919 615.949C397.514 616.355 397.238 616.871 397.126 617.434C397.014 617.996 397.071 618.58 397.291 619.109C397.51 619.639 397.882 620.092 398.359 620.411C398.836 620.73 399.397 620.9 399.97 620.9C400.737 620.892 401.47 620.584 402.012 620.042C402.554 619.499 402.862 618.766 402.87 618Z" fill="#323FB7"/>
<path d="M184.37 586.999C184.372 586.711 184.288 586.43 184.13 586.19C183.971 585.95 183.745 585.762 183.479 585.651C183.214 585.54 182.922 585.511 182.64 585.566C182.357 585.622 182.098 585.76 181.895 585.964C181.691 586.167 181.553 586.426 181.497 586.709C181.442 586.991 181.471 587.283 181.582 587.549C181.693 587.814 181.881 588.04 182.121 588.199C182.361 588.357 182.642 588.441 182.93 588.439C183.311 588.436 183.676 588.284 183.945 588.014C184.215 587.745 184.367 587.38 184.37 586.999Z" fill="#323FB7"/>
<path d="M216.83 587C216.832 586.426 216.664 585.864 216.346 585.386C216.029 584.908 215.576 584.535 215.047 584.313C214.517 584.092 213.934 584.034 213.37 584.144C212.807 584.255 212.29 584.531 211.883 584.936C211.476 585.341 211.199 585.858 211.086 586.42C210.974 586.983 211.031 587.567 211.25 588.097C211.469 588.628 211.841 589.081 212.318 589.4C212.795 589.719 213.356 589.89 213.93 589.89C214.695 589.882 215.427 589.575 215.969 589.035C216.51 588.495 216.82 587.765 216.83 587Z" fill="#323FB7"/>
<path d="M247.83 586.999C247.83 586.428 247.661 585.869 247.343 585.394C247.025 584.919 246.574 584.548 246.046 584.329C245.518 584.111 244.937 584.053 244.376 584.165C243.816 584.276 243.301 584.552 242.897 584.956C242.492 585.36 242.217 585.875 242.106 586.436C241.994 586.996 242.051 587.577 242.27 588.105C242.489 588.633 242.859 589.085 243.334 589.402C243.81 589.72 244.368 589.889 244.94 589.889C245.703 589.879 246.432 589.571 246.972 589.031C247.512 588.492 247.82 587.763 247.83 586.999Z" fill="#323FB7"/>
<path d="M277.39 586.999C277.392 586.711 277.308 586.43 277.15 586.19C276.991 585.95 276.765 585.762 276.499 585.651C276.234 585.54 275.942 585.511 275.66 585.566C275.377 585.622 275.118 585.76 274.915 585.964C274.711 586.167 274.573 586.426 274.517 586.709C274.462 586.991 274.491 587.283 274.602 587.549C274.713 587.814 274.901 588.04 275.141 588.199C275.381 588.357 275.662 588.441 275.95 588.439C276.331 588.436 276.696 588.284 276.965 588.014C277.235 587.745 277.387 587.38 277.39 586.999Z" fill="#323FB7"/>
<path d="M308.4 586.999C308.402 586.712 308.319 586.431 308.16 586.191C308.002 585.951 307.777 585.764 307.512 585.652C307.247 585.541 306.955 585.511 306.673 585.566C306.391 585.621 306.132 585.758 305.928 585.96C305.724 586.163 305.585 586.421 305.529 586.702C305.472 586.984 305.5 587.276 305.609 587.542C305.719 587.807 305.905 588.034 306.143 588.194C306.382 588.354 306.663 588.439 306.95 588.439C307.332 588.436 307.698 588.284 307.969 588.015C308.24 587.746 308.395 587.381 308.4 586.999Z" fill="#323FB7"/>
<path d="M340.85 586.999C340.85 586.428 340.681 585.869 340.363 585.394C340.045 584.919 339.594 584.548 339.066 584.329C338.538 584.111 337.957 584.053 337.396 584.165C336.836 584.276 336.321 584.552 335.917 584.956C335.512 585.36 335.237 585.875 335.126 586.436C335.014 586.996 335.071 587.577 335.29 588.105C335.509 588.633 335.879 589.085 336.354 589.402C336.83 589.72 337.388 589.889 337.96 589.889C338.723 589.879 339.452 589.571 339.992 589.031C340.532 588.492 340.84 587.763 340.85 586.999Z" fill="#323FB7"/>
<path d="M371.86 587C371.862 586.425 371.693 585.863 371.375 585.385C371.058 584.906 370.605 584.533 370.074 584.313C369.544 584.092 368.96 584.034 368.397 584.145C367.833 584.257 367.316 584.533 366.909 584.939C366.503 585.345 366.227 585.863 366.115 586.427C366.004 586.99 366.062 587.574 366.283 588.104C366.503 588.635 366.877 589.087 367.355 589.405C367.834 589.723 368.396 589.892 368.97 589.89C369.733 589.879 370.462 589.572 371.002 589.032C371.542 588.492 371.85 587.763 371.86 587Z" fill="#323FB7"/>
<path d="M402.87 587C402.872 586.426 402.704 585.864 402.386 585.386C402.069 584.908 401.617 584.535 401.087 584.313C400.557 584.092 399.974 584.034 399.41 584.144C398.847 584.255 398.33 584.531 397.923 584.936C397.516 585.341 397.239 585.858 397.127 586.42C397.014 586.983 397.071 587.567 397.29 588.097C397.509 588.628 397.881 589.081 398.358 589.4C398.835 589.719 399.396 589.89 399.97 589.89C400.735 589.882 401.467 589.575 402.009 589.035C402.55 588.495 402.86 587.765 402.87 587Z" fill="#323FB7"/>
<path d="M371.86 556C371.862 555.425 371.693 554.863 371.375 554.385C371.058 553.906 370.605 553.533 370.074 553.313C369.544 553.092 368.96 553.034 368.397 553.145C367.833 553.257 367.316 553.533 366.909 553.939C366.503 554.345 366.227 554.863 366.115 555.427C366.004 555.99 366.062 556.574 366.283 557.104C366.503 557.635 366.877 558.087 367.355 558.405C367.834 558.723 368.396 558.892 368.97 558.89C369.733 558.879 370.462 558.572 371.002 558.032C371.542 557.492 371.85 556.763 371.86 556Z" fill="#323FB7"/>
<path d="M402.87 556C402.872 555.426 402.704 554.864 402.386 554.386C402.069 553.908 401.617 553.535 401.087 553.313C400.557 553.092 399.974 553.034 399.41 553.144C398.847 553.255 398.33 553.531 397.923 553.936C397.516 554.341 397.239 554.858 397.127 555.42C397.014 555.983 397.071 556.567 397.29 557.097C397.509 557.628 397.881 558.081 398.358 558.4C398.835 558.719 399.396 558.89 399.97 558.89C400.735 558.882 401.467 558.575 402.009 558.035C402.55 557.495 402.86 556.765 402.87 556Z" fill="#323FB7"/>
<path d="M404.31 525C404.31 524.142 404.055 523.303 403.578 522.589C403.102 521.875 402.424 521.319 401.631 520.991C400.838 520.662 399.965 520.576 399.123 520.744C398.281 520.911 397.508 521.324 396.901 521.931C396.294 522.538 395.881 523.312 395.713 524.153C395.546 524.995 395.632 525.868 395.96 526.661C396.289 527.454 396.845 528.132 397.559 528.609C398.272 529.086 399.112 529.34 399.97 529.34C401.117 529.327 402.213 528.866 403.024 528.055C403.835 527.244 404.297 526.147 404.31 525Z" fill="#323FB7"/>
<path d="M308.4 493.999C308.402 493.712 308.319 493.431 308.16 493.191C308.002 492.951 307.777 492.764 307.512 492.652C307.247 492.541 306.955 492.511 306.673 492.566C306.391 492.621 306.132 492.758 305.928 492.96C305.724 493.163 305.585 493.421 305.529 493.702C305.472 493.984 305.5 494.276 305.609 494.542C305.719 494.807 305.905 495.034 306.143 495.194C306.382 495.354 306.663 495.439 306.95 495.439C307.332 495.436 307.698 495.284 307.969 495.015C308.24 494.746 308.395 494.381 308.4 493.999Z" fill="#323FB7"/>
<path d="M339.41 493.999C339.412 493.712 339.329 493.431 339.17 493.191C339.012 492.951 338.787 492.764 338.522 492.652C338.257 492.541 337.965 492.511 337.683 492.566C337.401 492.621 337.142 492.758 336.938 492.96C336.734 493.163 336.595 493.421 336.539 493.702C336.482 493.984 336.51 494.276 336.619 494.542C336.729 494.807 336.915 495.034 337.153 495.194C337.392 495.354 337.673 495.439 337.96 495.439C338.341 495.434 338.706 495.281 338.976 495.012C339.247 494.744 339.402 494.38 339.41 493.999Z" fill="#323FB7"/>
<path d="M371.86 493.999C371.86 493.424 371.689 492.862 371.368 492.384C371.048 491.906 370.593 491.535 370.06 491.316C369.528 491.098 368.943 491.043 368.379 491.158C367.816 491.274 367.299 491.554 366.895 491.963C366.491 492.373 366.218 492.893 366.111 493.459C366.004 494.024 366.067 494.608 366.292 495.137C366.518 495.666 366.896 496.116 367.378 496.43C367.86 496.744 368.425 496.907 369 496.899C369.76 496.881 370.483 496.569 371.016 496.028C371.55 495.486 371.852 494.759 371.86 493.999Z" fill="#323FB7"/>
<path d="M404.31 494C404.31 493.142 404.055 492.303 403.578 491.589C403.102 490.875 402.424 490.319 401.631 489.991C400.838 489.662 399.965 489.576 399.123 489.744C398.281 489.911 397.508 490.324 396.901 490.931C396.294 491.538 395.881 492.312 395.713 493.153C395.546 493.995 395.632 494.868 395.96 495.661C396.289 496.454 396.845 497.132 397.559 497.609C398.272 498.086 399.112 498.34 399.97 498.34C401.117 498.327 402.213 497.866 403.024 497.055C403.835 496.244 404.297 495.147 404.31 494Z" fill="#323FB7"/>
<path d="M339.41 897.091C339.41 896.804 339.325 896.524 339.166 896.285C339.006 896.047 338.78 895.861 338.515 895.751C338.25 895.641 337.958 895.613 337.677 895.668C337.396 895.724 337.137 895.863 336.935 896.065C336.732 896.268 336.594 896.526 336.538 896.808C336.482 897.089 336.511 897.381 336.62 897.646C336.73 897.91 336.916 898.137 337.154 898.296C337.393 898.456 337.673 898.541 337.96 898.541C338.342 898.533 338.707 898.378 338.977 898.107C339.247 897.837 339.402 897.473 339.41 897.091Z" fill="#323FB7"/>
<path d="M371.86 897.089C371.858 896.514 371.685 895.953 371.364 895.476C371.042 895 370.586 894.63 370.053 894.413C369.521 894.197 368.936 894.143 368.373 894.259C367.81 894.376 367.295 894.656 366.892 895.066C366.489 895.476 366.217 895.997 366.11 896.562C366.004 897.127 366.068 897.71 366.293 898.239C366.519 898.768 366.897 899.217 367.379 899.53C367.861 899.844 368.425 900.007 369 899.999C369.762 899.983 370.488 899.67 371.023 899.126C371.557 898.583 371.858 897.851 371.86 897.089Z" fill="#323FB7"/>
<path d="M404.31 897.09C404.31 896.232 404.055 895.393 403.578 894.679C403.102 893.965 402.424 893.409 401.631 893.08C400.838 892.752 399.965 892.666 399.123 892.833C398.281 893.001 397.508 893.414 396.901 894.021C396.294 894.628 395.881 895.401 395.713 896.243C395.546 897.085 395.632 897.958 395.96 898.751C396.289 899.544 396.845 900.222 397.559 900.699C398.272 901.176 399.112 901.43 399.97 901.43C401.117 901.417 402.213 900.956 403.024 900.144C403.835 899.333 404.297 898.237 404.31 897.09Z" fill="#323FB7"/>
<path d="M370.41 866.079C370.41 865.792 370.325 865.511 370.165 865.272C370.005 865.034 369.778 864.848 369.513 864.738C369.247 864.629 368.955 864.601 368.673 864.658C368.392 864.714 368.134 864.853 367.931 865.057C367.729 865.261 367.591 865.52 367.537 865.802C367.482 866.084 367.512 866.376 367.623 866.641C367.735 866.905 367.922 867.131 368.162 867.289C368.401 867.448 368.683 867.531 368.97 867.529C369.352 867.524 369.717 867.369 369.986 867.098C370.255 866.827 370.407 866.461 370.41 866.079Z" fill="#323FB7"/>
<path d="M402.87 866.079C402.866 865.505 402.692 864.945 402.369 864.47C402.047 863.995 401.591 863.627 401.059 863.411C400.527 863.196 399.943 863.143 399.381 863.26C398.819 863.376 398.304 863.657 397.902 864.066C397.499 864.476 397.228 864.995 397.121 865.559C397.014 866.123 397.077 866.706 397.301 867.234C397.526 867.763 397.902 868.212 398.383 868.526C398.863 868.84 399.426 869.005 400 868.999C400.765 868.983 401.493 868.669 402.03 868.124C402.566 867.578 402.868 866.844 402.87 866.079Z" fill="#323FB7"/>
<path d="M401.42 835.081C401.422 834.794 401.339 834.513 401.18 834.273C401.022 834.033 400.797 833.846 400.532 833.734C400.267 833.623 399.975 833.593 399.693 833.648C399.411 833.703 399.152 833.84 398.948 834.042C398.744 834.245 398.605 834.503 398.549 834.785C398.492 835.066 398.52 835.358 398.629 835.624C398.739 835.889 398.925 836.116 399.163 836.276C399.402 836.436 399.683 836.521 399.97 836.521C400.352 836.519 400.718 836.366 400.989 836.097C401.26 835.828 401.415 835.463 401.42 835.081Z" fill="#323FB7"/>
<path d="M57.45 742.059C57.45 742.346 57.535 742.627 57.6943 742.865C57.8536 743.103 58.0801 743.289 58.3451 743.399C58.61 743.509 58.9016 743.537 59.1828 743.482C59.4641 743.426 59.7225 743.288 59.9253 743.085C60.128 742.882 60.2661 742.624 60.3221 742.342C60.378 742.061 60.3493 741.769 60.2396 741.505C60.1298 741.24 59.944 741.013 59.7055 740.854C59.4671 740.694 59.1867 740.609 58.9 740.609C58.5178 740.617 58.1534 740.772 57.8831 741.043C57.6129 741.313 57.4576 741.677 57.45 742.059Z" fill="#323FB7"/>
<path d="M87 742.06C86.998 742.634 87.1664 743.196 87.4839 743.674C87.8013 744.152 88.2536 744.525 88.7833 744.746C89.313 744.967 89.8964 745.026 90.4596 744.915C91.0228 744.805 91.5405 744.529 91.9471 744.124C92.3536 743.719 92.6308 743.202 92.7435 742.639C92.8562 742.077 92.7994 741.493 92.5802 740.962C92.361 740.432 91.9893 739.978 91.5122 739.659C91.0351 739.34 90.474 739.17 89.9 739.17C89.135 739.178 88.4034 739.484 87.8615 740.024C87.3196 740.564 87.0104 741.295 87 742.06Z" fill="#323FB7"/>
<path d="M125.25 742.061C125.25 741.202 124.996 740.363 124.519 739.65C124.042 738.936 123.364 738.38 122.571 738.051C121.778 737.723 120.905 737.637 120.063 737.804C119.222 737.972 118.448 738.385 117.841 738.992C117.234 739.599 116.821 740.372 116.653 741.214C116.486 742.056 116.572 742.928 116.9 743.722C117.229 744.515 117.785 745.192 118.499 745.669C119.213 746.146 120.052 746.401 120.91 746.401C122.057 746.388 123.153 745.926 123.965 745.115C124.776 744.304 125.237 743.208 125.25 742.061Z" fill="#323FB7"/>
<path d="M156.26 742.061C156.26 741.202 156.006 740.363 155.529 739.65C155.052 738.936 154.374 738.38 153.581 738.051C152.788 737.723 151.915 737.637 151.073 737.804C150.232 737.972 149.458 738.385 148.851 738.992C148.244 739.599 147.831 740.372 147.663 741.214C147.496 742.056 147.582 742.928 147.91 743.722C148.239 744.515 148.795 745.192 149.509 745.669C150.223 746.146 151.062 746.401 151.92 746.401C153.067 746.388 154.163 745.926 154.975 745.115C155.786 744.304 156.247 743.208 156.26 742.061Z" fill="#323FB7"/>
<path d="M185.82 742.06C185.822 741.486 185.653 740.924 185.335 740.445C185.018 739.967 184.565 739.594 184.034 739.373C183.504 739.152 182.92 739.094 182.357 739.206C181.793 739.317 181.276 739.594 180.869 740C180.463 740.406 180.187 740.924 180.075 741.487C179.964 742.051 180.022 742.634 180.243 743.165C180.463 743.695 180.837 744.148 181.315 744.466C181.794 744.784 182.356 744.952 182.93 744.95C183.693 744.94 184.422 744.632 184.962 744.092C185.502 743.553 185.81 742.824 185.82 742.06Z" fill="#323FB7"/>
<path d="M215.38 742.06C215.382 741.772 215.299 741.491 215.14 741.251C214.982 741.012 214.757 740.824 214.492 740.713C214.227 740.602 213.935 740.571 213.653 740.626C213.371 740.681 213.112 740.818 212.908 741.021C212.704 741.223 212.565 741.482 212.509 741.763C212.452 742.045 212.48 742.337 212.589 742.602C212.699 742.868 212.885 743.095 213.123 743.255C213.362 743.414 213.643 743.5 213.93 743.5C214.312 743.497 214.678 743.345 214.949 743.076C215.22 742.806 215.375 742.442 215.38 742.06Z" fill="#323FB7"/>
<path d="M246.39 742.06C246.392 741.772 246.309 741.491 246.15 741.251C245.992 741.012 245.767 740.824 245.502 740.713C245.237 740.602 244.945 740.571 244.663 740.626C244.381 740.681 244.122 740.818 243.918 741.021C243.714 741.223 243.575 741.482 243.519 741.763C243.462 742.045 243.49 742.337 243.599 742.602C243.709 742.868 243.895 743.095 244.133 743.255C244.372 743.414 244.653 743.5 244.94 743.5C245.321 743.495 245.686 743.341 245.956 743.073C246.227 742.804 246.382 742.441 246.39 742.06Z" fill="#323FB7"/>
<path d="M278.84 742.061C278.832 741.486 278.654 740.927 278.327 740.454C278.001 739.982 277.542 739.616 277.008 739.405C276.474 739.193 275.889 739.145 275.328 739.267C274.766 739.388 274.254 739.673 273.855 740.086C273.455 740.499 273.188 741.022 273.086 741.587C272.984 742.152 273.053 742.735 273.283 743.262C273.512 743.788 273.893 744.234 274.377 744.544C274.861 744.853 275.426 745.012 276 745.001C276.763 744.977 277.487 744.657 278.017 744.108C278.548 743.559 278.843 742.824 278.84 742.061Z" fill="#323FB7"/>
<path d="M309.85 742.059C309.842 741.485 309.664 740.926 309.338 740.454C309.013 739.981 308.554 739.616 308.02 739.404C307.487 739.192 306.903 739.143 306.342 739.264C305.78 739.384 305.268 739.669 304.868 740.081C304.469 740.493 304.2 741.014 304.097 741.579C303.994 742.144 304.061 742.726 304.29 743.253C304.518 743.779 304.897 744.226 305.38 744.537C305.862 744.848 306.426 745.009 307 744.999C307.765 744.978 308.491 744.659 309.024 744.109C309.556 743.56 309.853 742.824 309.85 742.059Z" fill="#323FB7"/>
<path d="M340.85 742.06C340.84 741.489 340.661 740.934 340.336 740.465C340.01 739.995 339.553 739.633 339.022 739.423C338.491 739.213 337.909 739.165 337.351 739.286C336.793 739.406 336.283 739.689 335.885 740.099C335.488 740.509 335.221 741.028 335.118 741.59C335.015 742.151 335.081 742.731 335.307 743.256C335.533 743.78 335.91 744.226 336.389 744.536C336.868 744.847 337.429 745.008 338 745C338.765 744.98 339.491 744.66 340.024 744.111C340.556 743.561 340.853 742.826 340.85 742.06Z" fill="#323FB7"/>
<path d="M370.41 742.061C370.412 741.772 370.327 741.489 370.167 741.249C370.007 741.008 369.779 740.821 369.512 740.711C369.245 740.601 368.951 740.573 368.668 740.631C368.385 740.689 368.126 740.831 367.924 741.037C367.722 741.244 367.586 741.506 367.534 741.79C367.482 742.074 367.516 742.367 367.631 742.632C367.747 742.897 367.939 743.121 368.183 743.276C368.427 743.431 368.711 743.509 369 743.501C369.376 743.491 369.733 743.335 369.996 743.066C370.259 742.797 370.408 742.437 370.41 742.061Z" fill="#323FB7"/>
<path d="M401.42 742.061C401.422 741.773 401.338 741.49 401.178 741.25C401.019 741.01 400.791 740.822 400.525 740.712C400.258 740.601 399.965 740.573 399.682 740.63C399.399 740.688 399.14 740.828 398.938 741.033C398.735 741.239 398.598 741.5 398.545 741.783C398.492 742.067 398.524 742.36 398.638 742.625C398.752 742.89 398.943 743.115 399.185 743.271C399.428 743.427 399.712 743.507 400 743.501C400.377 743.491 400.735 743.335 401 743.067C401.264 742.799 401.415 742.438 401.42 742.061Z" fill="#323FB7"/>
<path d="M60.35 711.05C60.35 710.763 60.2649 710.482 60.1056 710.244C59.9463 710.006 59.7198 709.82 59.4548 709.71C59.1899 709.6 58.8983 709.572 58.6171 709.627C58.3358 709.683 58.0774 709.822 57.8746 710.024C57.6719 710.227 57.5338 710.485 57.4778 710.767C57.4219 711.048 57.4506 711.34 57.5603 711.605C57.6701 711.869 57.8559 712.096 58.0944 712.255C58.3328 712.415 58.6132 712.5 58.9 712.5C59.2821 712.492 59.6465 712.337 59.9168 712.066C60.1871 711.796 60.3423 711.432 60.35 711.05Z" fill="#323FB7"/>
<path d="M88.46 711.049C88.458 711.337 88.5414 711.618 88.6995 711.858C88.8576 712.097 89.0834 712.285 89.3481 712.396C89.6129 712.507 89.9048 712.538 90.1867 712.483C90.4686 712.428 90.7279 712.291 90.9317 712.088C91.1355 711.886 91.2746 711.627 91.3314 711.346C91.3881 711.064 91.36 710.772 91.2506 710.507C91.1411 710.241 90.9553 710.014 90.7166 709.854C90.4779 709.695 90.1972 709.609 89.91 709.609C89.528 709.612 89.1621 709.764 88.8911 710.033C88.62 710.303 88.4652 710.667 88.46 711.049Z" fill="#323FB7"/>
<path d="M119.47 711.049C119.468 711.337 119.552 711.619 119.71 711.859C119.869 712.099 120.095 712.286 120.36 712.397C120.626 712.508 120.918 712.538 121.2 712.482C121.483 712.426 121.742 712.288 121.945 712.085C122.149 711.881 122.287 711.622 122.343 711.34C122.398 711.058 122.369 710.765 122.258 710.5C122.147 710.235 121.959 710.008 121.719 709.85C121.479 709.691 121.198 709.607 120.91 709.609C120.529 709.612 120.164 709.765 119.895 710.034C119.625 710.304 119.473 710.668 119.47 711.049Z" fill="#323FB7"/>
<path d="M154.81 711.05C154.81 710.479 154.641 709.92 154.323 709.445C154.005 708.969 153.554 708.599 153.026 708.38C152.498 708.161 151.917 708.104 151.356 708.216C150.796 708.327 150.281 708.602 149.877 709.007C149.472 709.411 149.197 709.926 149.086 710.486C148.974 711.047 149.031 711.628 149.25 712.156C149.469 712.684 149.839 713.136 150.314 713.453C150.79 713.771 151.348 713.94 151.92 713.94C152.684 713.932 153.415 713.625 153.955 713.085C154.495 712.545 154.802 711.814 154.81 711.05Z" fill="#323FB7"/>
<path d="M184.37 711.05C184.37 710.762 184.285 710.482 184.125 710.243C183.965 710.004 183.738 709.818 183.473 709.709C183.207 709.6 182.915 709.571 182.633 709.628C182.352 709.685 182.094 709.824 181.891 710.028C181.689 710.232 181.551 710.491 181.497 710.773C181.442 711.055 181.472 711.347 181.583 711.611C181.695 711.876 181.882 712.102 182.122 712.26C182.361 712.418 182.643 712.502 182.93 712.5C183.312 712.494 183.677 712.34 183.946 712.068C184.215 711.797 184.367 711.432 184.37 711.05Z" fill="#323FB7"/>
<path d="M216.83 711.051C216.832 710.477 216.664 709.915 216.346 709.437C216.029 708.959 215.576 708.585 215.047 708.364C214.517 708.143 213.934 708.084 213.37 708.195C212.807 708.306 212.29 708.581 211.883 708.986C211.476 709.392 211.199 709.908 211.086 710.471C210.974 711.034 211.031 711.618 211.25 712.148C211.469 712.679 211.841 713.132 212.318 713.451C212.795 713.77 213.356 713.941 213.93 713.941C214.695 713.933 215.427 713.626 215.969 713.086C216.51 712.546 216.82 711.816 216.83 711.051Z" fill="#323FB7"/>
<path d="M247.83 711.05C247.83 710.479 247.661 709.92 247.343 709.445C247.025 708.969 246.574 708.599 246.046 708.38C245.518 708.161 244.937 708.104 244.376 708.216C243.816 708.327 243.301 708.602 242.897 709.007C242.492 709.411 242.217 709.926 242.106 710.486C241.994 711.047 242.051 711.628 242.27 712.156C242.489 712.684 242.859 713.136 243.334 713.453C243.81 713.771 244.368 713.94 244.94 713.94C245.704 713.932 246.435 713.625 246.975 713.085C247.515 712.545 247.822 711.814 247.83 711.05Z" fill="#323FB7"/>
<path d="M278.84 711.051C278.842 710.476 278.673 709.914 278.355 709.436C278.038 708.957 277.585 708.584 277.054 708.363C276.524 708.143 275.94 708.084 275.377 708.196C274.813 708.307 274.296 708.584 273.889 708.99C273.483 709.396 273.207 709.914 273.095 710.477C272.984 711.041 273.042 711.625 273.263 712.155C273.483 712.685 273.857 713.138 274.335 713.456C274.814 713.774 275.376 713.943 275.95 713.941C276.714 713.933 277.445 713.626 277.985 713.086C278.525 712.545 278.832 711.815 278.84 711.051Z" fill="#323FB7"/>
<path d="M309.85 711.051C309.852 710.477 309.684 709.915 309.366 709.437C309.049 708.959 308.597 708.585 308.067 708.364C307.537 708.143 306.954 708.084 306.39 708.195C305.827 708.306 305.31 708.581 304.903 708.986C304.496 709.392 304.219 709.908 304.107 710.471C303.994 711.034 304.051 711.618 304.27 712.148C304.489 712.679 304.861 713.132 305.338 713.451C305.815 713.77 306.376 713.941 306.95 713.941C307.715 713.933 308.447 713.626 308.989 713.086C309.53 712.546 309.84 711.816 309.85 711.051Z" fill="#323FB7"/>
<path d="M339.41 711.051C339.41 710.763 339.324 710.481 339.163 710.241C339.001 710.002 338.773 709.816 338.505 709.708C338.238 709.6 337.944 709.573 337.662 709.632C337.38 709.692 337.122 709.834 336.92 710.041C336.719 710.248 336.585 710.51 336.533 710.793C336.482 711.077 336.516 711.37 336.632 711.634C336.748 711.898 336.94 712.122 337.184 712.276C337.427 712.431 337.712 712.509 338 712.501C338.375 712.483 338.73 712.324 338.991 712.054C339.253 711.785 339.403 711.426 339.41 711.051Z" fill="#323FB7"/>
<path d="M370.41 711.051C370.41 710.763 370.324 710.481 370.163 710.241C370.001 710.002 369.773 709.816 369.505 709.708C369.238 709.6 368.944 709.573 368.662 709.632C368.38 709.692 368.122 709.834 367.92 710.041C367.719 710.248 367.585 710.51 367.533 710.793C367.482 711.077 367.516 711.37 367.632 711.634C367.748 711.898 367.94 712.122 368.184 712.276C368.427 712.431 368.712 712.509 369 712.501C369.377 712.488 369.734 712.33 369.997 712.06C370.26 711.789 370.408 711.428 370.41 711.051Z" fill="#323FB7"/>
<path d="M402.87 711.051C402.872 710.477 402.704 709.915 402.386 709.437C402.069 708.959 401.617 708.585 401.087 708.364C400.557 708.143 399.974 708.084 399.41 708.195C398.847 708.306 398.33 708.581 397.923 708.986C397.516 709.392 397.239 709.908 397.127 710.471C397.014 711.034 397.071 711.618 397.29 712.148C397.509 712.679 397.881 713.132 398.358 713.451C398.835 713.77 399.396 713.941 399.97 713.941C400.735 713.933 401.467 713.626 402.009 713.086C402.55 712.546 402.86 711.816 402.87 711.051Z" fill="#323FB7"/>
<path d="M277.39 463.001C277.39 462.714 277.305 462.433 277.145 462.194C276.985 461.955 276.758 461.77 276.493 461.66C276.227 461.551 275.935 461.523 275.653 461.579C275.372 461.636 275.114 461.775 274.911 461.979C274.709 462.183 274.571 462.442 274.517 462.724C274.462 463.006 274.492 463.298 274.603 463.563C274.715 463.827 274.902 464.053 275.142 464.211C275.381 464.369 275.663 464.453 275.95 464.451C276.332 464.446 276.697 464.291 276.966 464.02C277.235 463.749 277.387 463.383 277.39 463.001Z" fill="#323FB7"/>
<path d="M308.4 463.001C308.4 462.714 308.315 462.434 308.156 462.195C307.996 461.957 307.77 461.771 307.505 461.661C307.24 461.551 306.948 461.523 306.667 461.579C306.386 461.635 306.127 461.773 305.925 461.975C305.722 462.178 305.584 462.437 305.528 462.718C305.472 462.999 305.501 463.291 305.61 463.556C305.72 463.821 305.906 464.047 306.144 464.206C306.383 464.366 306.663 464.451 306.95 464.451C307.333 464.446 307.699 464.291 307.97 464.02C308.24 463.75 308.395 463.384 308.4 463.001Z" fill="#323FB7"/>
<path d="M340.85 462.999C340.85 462.428 340.681 461.869 340.363 461.394C340.045 460.919 339.594 460.548 339.066 460.329C338.538 460.111 337.957 460.053 337.396 460.165C336.836 460.276 336.321 460.552 335.917 460.956C335.512 461.36 335.237 461.875 335.126 462.436C335.014 462.996 335.071 463.577 335.29 464.105C335.509 464.633 335.879 465.085 336.354 465.402C336.83 465.72 337.388 465.889 337.96 465.889C338.724 465.882 339.455 465.575 339.995 465.034C340.535 464.494 340.842 463.763 340.85 462.999Z" fill="#323FB7"/>
<path d="M371.86 463C371.862 462.425 371.693 461.863 371.375 461.385C371.058 460.906 370.605 460.533 370.074 460.313C369.544 460.092 368.96 460.034 368.397 460.145C367.833 460.257 367.316 460.533 366.909 460.939C366.503 461.345 366.227 461.863 366.115 462.427C366.004 462.99 366.062 463.574 366.283 464.104C366.503 464.635 366.877 465.087 367.355 465.405C367.834 465.723 368.396 465.892 368.97 465.89C369.734 465.882 370.465 465.575 371.005 465.035C371.545 464.494 371.852 463.764 371.86 463Z" fill="#323FB7"/>
<path d="M404.31 463C404.31 462.142 404.055 461.303 403.578 460.589C403.102 459.875 402.424 459.319 401.631 458.991C400.838 458.662 399.965 458.576 399.123 458.744C398.281 458.911 397.508 459.324 396.901 459.931C396.294 460.538 395.881 461.312 395.713 462.153C395.546 462.995 395.632 463.868 395.96 464.661C396.289 465.454 396.845 466.132 397.559 466.609C398.272 467.086 399.112 467.34 399.97 467.34C401.117 467.327 402.213 466.866 403.024 466.055C403.835 465.244 404.297 464.147 404.31 463Z" fill="#323FB7"/>
<path d="M340.85 432.001C340.848 431.43 340.677 430.872 340.358 430.398C340.039 429.924 339.587 429.555 339.059 429.338C338.531 429.121 337.95 429.065 337.39 429.178C336.83 429.29 336.316 429.567 335.913 429.971C335.51 430.376 335.236 430.891 335.125 431.451C335.014 432.011 335.072 432.592 335.291 433.119C335.51 433.647 335.88 434.098 336.355 434.415C336.831 434.732 337.389 434.901 337.96 434.901C338.725 434.891 339.456 434.582 339.996 434.04C340.536 433.498 340.842 432.766 340.85 432.001Z" fill="#323FB7"/>
<path d="M373.3 432C373.3 431.141 373.045 430.302 372.568 429.588C372.091 428.874 371.412 428.318 370.619 427.99C369.825 427.661 368.952 427.576 368.11 427.744C367.268 427.913 366.494 428.327 365.888 428.935C365.281 429.543 364.869 430.317 364.702 431.16C364.536 432.002 364.623 432.875 364.953 433.668C365.283 434.461 365.841 435.138 366.556 435.614C367.271 436.089 368.111 436.342 368.97 436.34C370.115 436.325 371.209 435.862 372.018 435.051C372.827 434.24 373.287 433.145 373.3 432Z" fill="#323FB7"/>
<path d="M402.87 432C402.87 431.426 402.7 430.865 402.381 430.388C402.063 429.912 401.61 429.54 401.08 429.32C400.55 429.101 399.967 429.043 399.404 429.155C398.842 429.267 398.325 429.543 397.919 429.949C397.514 430.355 397.238 430.871 397.126 431.434C397.014 431.996 397.071 432.579 397.291 433.109C397.51 433.639 397.882 434.092 398.359 434.411C398.836 434.73 399.397 434.9 399.97 434.9C400.737 434.892 401.47 434.584 402.012 434.042C402.554 433.499 402.862 432.766 402.87 432Z" fill="#323FB7"/>
<path d="M246.39 400.999C246.392 400.712 246.309 400.431 246.15 400.191C245.992 399.951 245.767 399.764 245.502 399.652C245.237 399.541 244.945 399.511 244.663 399.566C244.381 399.621 244.122 399.758 243.918 399.96C243.714 400.163 243.575 400.421 243.519 400.702C243.462 400.984 243.49 401.276 243.599 401.542C243.709 401.807 243.895 402.034 244.133 402.194C244.372 402.354 244.653 402.439 244.94 402.439C245.321 402.434 245.686 402.281 245.956 402.012C246.227 401.744 246.382 401.38 246.39 400.999Z" fill="#323FB7"/>
<path d="M278.84 401C278.842 400.425 278.673 399.863 278.355 399.385C278.038 398.906 277.585 398.533 277.054 398.313C276.524 398.092 275.94 398.034 275.377 398.145C274.813 398.257 274.296 398.533 273.889 398.939C273.483 399.345 273.207 399.863 273.095 400.427C272.984 400.99 273.042 401.574 273.263 402.104C273.483 402.635 273.857 403.087 274.335 403.405C274.814 403.723 275.376 403.892 275.95 403.89C276.713 403.879 277.442 403.572 277.982 403.032C278.522 402.492 278.83 401.763 278.84 401Z" fill="#323FB7"/>
<path d="M309.85 401C309.852 400.426 309.684 399.864 309.366 399.386C309.049 398.908 308.597 398.535 308.067 398.313C307.537 398.092 306.954 398.034 306.39 398.144C305.827 398.255 305.31 398.531 304.903 398.936C304.496 399.341 304.219 399.858 304.107 400.42C303.994 400.983 304.051 401.567 304.27 402.097C304.489 402.628 304.861 403.081 305.338 403.4C305.815 403.72 306.376 403.89 306.95 403.89C307.715 403.882 308.447 403.575 308.989 403.035C309.53 402.495 309.84 401.765 309.85 401Z" fill="#323FB7"/>
<path d="M342.3 401C342.3 400.142 342.046 399.303 341.569 398.589C341.092 397.875 340.414 397.319 339.621 396.991C338.828 396.662 337.955 396.576 337.113 396.744C336.272 396.911 335.498 397.324 334.891 397.931C334.284 398.538 333.871 399.312 333.704 400.153C333.536 400.995 333.622 401.868 333.95 402.661C334.279 403.454 334.835 404.132 335.549 404.609C336.263 405.086 337.102 405.34 337.96 405.34C339.107 405.327 340.203 404.866 341.015 404.055C341.826 403.244 342.287 402.147 342.3 401Z" fill="#323FB7"/>
<path d="M373.3 401C373.3 400.141 373.045 399.302 372.568 398.588C372.091 397.874 371.412 397.318 370.619 396.99C369.825 396.661 368.952 396.576 368.11 396.744C367.268 396.913 366.494 397.327 365.888 397.935C365.281 398.543 364.869 399.317 364.702 400.16C364.536 401.002 364.623 401.875 364.953 402.668C365.283 403.461 365.841 404.138 366.556 404.614C367.271 405.089 368.111 405.342 368.97 405.34C370.115 405.325 371.209 404.862 372.018 404.051C372.827 403.24 373.287 402.145 373.3 401Z" fill="#323FB7"/>
<path d="M402.87 401C402.872 400.426 402.704 399.864 402.386 399.386C402.069 398.908 401.617 398.535 401.087 398.313C400.557 398.092 399.974 398.034 399.41 398.144C398.847 398.255 398.33 398.531 397.923 398.936C397.516 399.341 397.239 399.858 397.127 400.42C397.014 400.983 397.071 401.567 397.29 402.097C397.509 402.628 397.881 403.081 398.358 403.4C398.835 403.72 399.396 403.89 399.97 403.89C400.735 403.882 401.467 403.575 402.009 403.035C402.55 402.495 402.86 401.765 402.87 401Z" fill="#323FB7"/>
<path d="M215.38 370.001C215.38 369.714 215.295 369.434 215.136 369.195C214.976 368.957 214.75 368.771 214.485 368.661C214.22 368.551 213.928 368.523 213.647 368.579C213.366 368.635 213.107 368.773 212.905 368.975C212.702 369.178 212.564 369.437 212.508 369.718C212.452 369.999 212.481 370.291 212.59 370.556C212.7 370.821 212.886 371.047 213.124 371.206C213.363 371.366 213.643 371.451 213.93 371.451C214.313 371.446 214.679 371.291 214.95 371.02C215.22 370.75 215.375 370.384 215.38 370.001Z" fill="#323FB7"/>
<path d="M247.83 369.999C247.83 369.428 247.661 368.869 247.343 368.394C247.025 367.919 246.574 367.548 246.046 367.329C245.518 367.111 244.937 367.053 244.376 367.165C243.816 367.276 243.301 367.552 242.897 367.956C242.492 368.36 242.217 368.875 242.106 369.436C241.994 369.996 242.051 370.577 242.27 371.105C242.489 371.633 242.859 372.085 243.334 372.402C243.81 372.72 244.368 372.889 244.94 372.889C245.704 372.882 246.435 372.575 246.975 372.034C247.515 371.494 247.822 370.763 247.83 369.999Z" fill="#323FB7"/>
<path d="M278.84 370C278.842 369.425 278.673 368.863 278.355 368.385C278.038 367.906 277.585 367.533 277.054 367.313C276.524 367.092 275.94 367.034 275.377 367.145C274.813 367.257 274.296 367.533 273.889 367.939C273.483 368.345 273.207 368.863 273.095 369.427C272.984 369.99 273.042 370.574 273.263 371.104C273.483 371.635 273.857 372.087 274.335 372.405C274.814 372.723 275.376 372.892 275.95 372.89C276.714 372.882 277.445 372.575 277.985 372.035C278.525 371.494 278.832 370.764 278.84 370Z" fill="#323FB7"/>
<path d="M311.29 370C311.29 369.142 311.035 368.303 310.558 367.589C310.082 366.875 309.404 366.319 308.611 365.991C307.818 365.662 306.945 365.576 306.103 365.744C305.261 365.911 304.488 366.324 303.881 366.931C303.274 367.538 302.861 368.312 302.693 369.153C302.526 369.995 302.612 370.868 302.94 371.661C303.269 372.454 303.825 373.132 304.539 373.609C305.252 374.086 306.092 374.34 306.95 374.34C308.097 374.327 309.193 373.866 310.004 373.055C310.815 372.244 311.277 371.147 311.29 370Z" fill="#323FB7"/>
<path d="M342.3 370C342.3 369.142 342.046 368.303 341.569 367.589C341.092 366.875 340.414 366.319 339.621 365.991C338.828 365.662 337.955 365.576 337.113 365.744C336.272 365.911 335.498 366.324 334.891 366.931C334.284 367.538 333.871 368.312 333.704 369.153C333.536 369.995 333.622 370.868 333.95 371.661C334.279 372.454 334.835 373.132 335.549 373.609C336.263 374.086 337.102 374.34 337.96 374.34C339.107 374.327 340.203 373.866 341.015 373.055C341.826 372.244 342.287 371.147 342.3 370Z" fill="#323FB7"/>
<path d="M374.75 370.001C374.75 368.855 374.41 367.736 373.773 366.783C373.137 365.831 372.232 365.089 371.173 364.651C370.115 364.213 368.95 364.099 367.827 364.323C366.703 364.547 365.672 365.1 364.862 365.91C364.053 366.721 363.502 367.754 363.28 368.877C363.058 370.001 363.174 371.166 363.614 372.224C364.053 373.281 364.797 374.185 365.75 374.82C366.704 375.455 367.824 375.793 368.97 375.791C370.499 375.773 371.96 375.157 373.04 374.074C374.121 372.992 374.734 371.53 374.75 370.001Z" fill="#323FB7"/>
<path d="M402.87 370C402.872 369.426 402.704 368.864 402.386 368.386C402.069 367.908 401.617 367.535 401.087 367.313C400.557 367.092 399.974 367.034 399.41 367.144C398.847 367.255 398.33 367.531 397.923 367.936C397.516 368.341 397.239 368.858 397.127 369.42C397.014 369.983 397.071 370.567 397.29 371.097C397.509 371.628 397.881 372.081 398.358 372.4C398.835 372.72 399.396 372.89 399.97 372.89C400.735 372.882 401.467 372.575 402.009 372.035C402.55 371.495 402.86 370.765 402.87 370Z" fill="#323FB7"/>
</svg>
