<svg width="484" height="1000" viewBox="0 0 484 1000" fill="none" xmlns="http://www.w3.org/2000/svg">
<path d="M84.0118 365.933C84.0096 366.243 84.0996 366.547 84.2703 366.806C84.441 367.065 84.6846 367.267 84.9705 367.387C85.2563 367.507 85.5713 367.54 85.8756 367.481C86.1799 367.421 86.4598 367.273 86.6798 367.055C86.8998 366.836 87.0499 366.557 87.1112 366.253C87.1725 365.95 87.1421 365.634 87.024 365.348C86.9058 365.061 86.7052 364.816 86.4476 364.643C86.19 364.471 85.887 364.379 85.5769 364.379C85.1654 364.384 84.7721 364.55 84.4801 364.84C84.188 365.13 84.0201 365.522 84.0118 365.933Z" fill="#D8DCFA"/>
<path d="M122.171 365.931C122.171 365.312 121.987 364.706 121.643 364.191C121.298 363.676 120.809 363.275 120.236 363.038C119.663 362.801 119.033 362.74 118.426 362.862C117.818 362.983 117.261 363.283 116.823 363.721C116.386 364.16 116.089 364.719 115.969 365.327C115.849 365.935 115.913 366.565 116.152 367.137C116.39 367.708 116.793 368.197 117.309 368.539C117.825 368.882 118.432 369.064 119.051 369.062C119.877 369.05 120.666 368.717 121.249 368.132C121.832 367.547 122.163 366.757 122.171 365.931Z" fill="#D8DCFA"/>
<path d="M157.202 365.931C157.202 365.004 156.927 364.099 156.412 363.328C155.897 362.558 155.166 361.957 154.31 361.603C153.454 361.248 152.512 361.155 151.603 361.336C150.694 361.517 149.859 361.963 149.204 362.618C148.549 363.273 148.103 364.108 147.922 365.017C147.741 365.926 147.834 366.868 148.189 367.724C148.543 368.58 149.144 369.311 149.914 369.826C150.684 370.341 151.59 370.616 152.517 370.616C153.755 370.602 154.938 370.104 155.814 369.228C156.689 368.352 157.188 367.169 157.202 365.931Z" fill="#D8DCFA"/>
<path d="M190.67 365.931C190.67 365.004 190.396 364.099 189.881 363.328C189.366 362.558 188.634 361.957 187.778 361.603C186.922 361.248 185.98 361.155 185.072 361.336C184.163 361.517 183.328 361.963 182.673 362.618C182.018 363.273 181.572 364.108 181.391 365.017C181.21 365.926 181.303 366.868 181.657 367.724C182.012 368.58 182.612 369.311 183.383 369.826C184.153 370.341 185.059 370.616 185.986 370.616C187.224 370.602 188.407 370.104 189.283 369.228C190.158 368.352 190.656 367.169 190.67 365.931Z" fill="#D8DCFA"/>
<path d="M222.581 365.931C222.581 365.312 222.397 364.706 222.053 364.191C221.708 363.676 221.219 363.275 220.646 363.038C220.073 362.801 219.444 362.74 218.836 362.862C218.228 362.983 217.671 363.283 217.233 363.721C216.796 364.16 216.499 364.719 216.379 365.327C216.26 365.935 216.323 366.565 216.562 367.137C216.8 367.708 217.203 368.197 217.719 368.539C218.236 368.882 218.842 369.064 219.461 369.062C220.287 369.05 221.076 368.717 221.659 368.132C222.242 367.547 222.573 366.757 222.581 365.931Z" fill="#D8DCFA"/>
<path d="M251.367 365.933C251.365 366.244 251.455 366.548 251.626 366.807C251.798 367.066 252.042 367.268 252.328 367.388C252.615 367.508 252.93 367.54 253.235 367.48C253.54 367.42 253.82 367.27 254.039 367.051C254.259 366.831 254.408 366.551 254.468 366.247C254.528 365.942 254.496 365.627 254.376 365.34C254.257 365.054 254.054 364.809 253.795 364.638C253.536 364.467 253.232 364.377 252.922 364.379C252.51 364.382 252.117 364.546 251.826 364.837C251.535 365.128 251.37 365.522 251.367 365.933Z" fill="#D8DCFA"/>
<path d="M284.832 365.933C284.83 366.243 284.92 366.547 285.091 366.806C285.261 367.065 285.505 367.267 285.791 367.387C286.077 367.507 286.392 367.54 286.696 367.481C287 367.421 287.28 367.273 287.5 367.055C287.72 366.836 287.87 366.557 287.932 366.253C287.993 365.95 287.962 365.634 287.844 365.348C287.726 365.061 287.526 364.816 287.268 364.643C287.01 364.471 286.707 364.379 286.397 364.379C285.986 364.384 285.592 364.55 285.3 364.84C285.008 365.13 284.84 365.522 284.832 365.933Z" fill="#D8DCFA"/>
<path d="M322.991 365.931C322.991 365.312 322.807 364.706 322.463 364.191C322.118 363.676 321.629 363.275 321.056 363.038C320.484 362.801 319.854 362.74 319.246 362.862C318.639 362.983 318.081 363.283 317.644 363.721C317.206 364.16 316.909 364.719 316.789 365.327C316.67 365.935 316.733 366.565 316.972 367.137C317.21 367.708 317.613 368.197 318.13 368.539C318.646 368.882 319.252 369.064 319.872 369.062C320.697 369.05 321.486 368.717 322.069 368.132C322.652 367.547 322.983 366.757 322.991 365.931Z" fill="#D8DCFA"/>
<path d="M356.464 365.931C356.464 365.312 356.28 364.707 355.936 364.192C355.592 363.677 355.103 363.276 354.531 363.039C353.959 362.802 353.33 362.74 352.723 362.861C352.116 362.982 351.558 363.28 351.12 363.718C350.682 364.155 350.384 364.713 350.263 365.32C350.142 365.928 350.204 366.557 350.441 367.129C350.678 367.701 351.08 368.19 351.594 368.534C352.109 368.878 352.714 369.062 353.334 369.062C354.161 369.053 354.952 368.721 355.538 368.135C356.123 367.55 356.455 366.759 356.464 365.931Z" fill="#D8DCFA"/>
<path d="M389.927 365.933C389.925 365.316 389.74 364.714 389.396 364.203C389.052 363.691 388.564 363.293 387.993 363.059C387.423 362.824 386.796 362.764 386.192 362.885C385.587 363.007 385.033 363.305 384.597 363.742C384.162 364.178 383.866 364.734 383.747 365.339C383.627 365.944 383.69 366.571 383.926 367.14C384.162 367.709 384.562 368.196 385.075 368.538C385.588 368.881 386.191 369.063 386.807 369.063C387.633 369.052 388.421 368.718 389.004 368.133C389.587 367.549 389.918 366.759 389.927 365.933Z" fill="#D8DCFA"/>
<path d="M418.715 365.933C418.713 366.243 418.803 366.547 418.973 366.806C419.144 367.065 419.388 367.267 419.674 367.387C419.959 367.507 420.274 367.54 420.579 367.481C420.883 367.421 421.163 367.273 421.383 367.055C421.603 366.836 421.753 366.557 421.814 366.253C421.876 365.95 421.845 365.634 421.727 365.348C421.609 365.061 421.408 364.816 421.151 364.643C420.893 364.471 420.59 364.379 420.28 364.379C419.868 364.382 419.473 364.546 419.18 364.837C418.888 365.127 418.721 365.521 418.715 365.933Z" fill="#D8DCFA"/>
<path d="M452.191 365.933C452.189 366.244 452.28 366.548 452.451 366.807C452.622 367.066 452.866 367.268 453.153 367.388C453.439 367.508 453.755 367.54 454.059 367.48C454.364 367.42 454.644 367.27 454.863 367.051C455.083 366.831 455.232 366.551 455.292 366.247C455.352 365.942 455.32 365.627 455.201 365.34C455.081 365.054 454.878 364.809 454.619 364.638C454.36 364.467 454.056 364.377 453.746 364.379C453.334 364.382 452.941 364.546 452.65 364.837C452.359 365.128 452.194 365.522 452.191 365.933Z" fill="#D8DCFA"/>
<path d="M84.0117 332.468C84.0117 332.777 84.1035 333.08 84.2755 333.337C84.4475 333.595 84.6919 333.795 84.9779 333.914C85.2639 334.032 85.5786 334.063 85.8823 334.003C86.1859 333.942 86.4648 333.793 86.6837 333.574C86.9026 333.355 87.0516 333.076 87.112 332.773C87.1724 332.469 87.1414 332.155 87.0229 331.869C86.9045 331.583 86.7039 331.338 86.4465 331.166C86.1891 330.994 85.8865 330.902 85.5769 330.902C85.1635 330.908 84.7687 331.075 84.4763 331.367C84.184 331.659 84.0173 332.054 84.0117 332.468Z" fill="#D8DCFA"/>
<path d="M117.488 332.468C117.488 332.777 117.58 333.08 117.752 333.337C117.924 333.595 118.168 333.795 118.454 333.914C118.74 334.032 119.055 334.063 119.359 334.003C119.662 333.942 119.941 333.793 120.16 333.574C120.379 333.355 120.528 333.076 120.589 332.773C120.649 332.469 120.618 332.155 120.5 331.869C120.381 331.583 120.18 331.338 119.923 331.166C119.666 330.994 119.363 330.902 119.053 330.902C118.639 330.905 118.243 331.071 117.95 331.364C117.657 331.657 117.491 332.053 117.488 332.468Z" fill="#D8DCFA"/>
<path d="M155.647 332.465C155.65 331.846 155.468 331.24 155.125 330.723C154.782 330.207 154.294 329.804 153.723 329.566C153.151 329.327 152.521 329.263 151.913 329.383C151.305 329.503 150.746 329.8 150.307 330.237C149.869 330.675 149.569 331.232 149.448 331.84C149.326 332.447 149.387 333.077 149.624 333.65C149.861 334.223 150.262 334.712 150.777 335.057C151.292 335.401 151.897 335.585 152.517 335.585C153.343 335.577 154.133 335.246 154.718 334.663C155.302 334.08 155.636 333.291 155.647 332.465Z" fill="#D8DCFA"/>
<path d="M189.11 332.467C189.11 331.85 188.927 331.247 188.585 330.734C188.242 330.221 187.755 329.821 187.184 329.585C186.614 329.349 185.987 329.287 185.382 329.408C184.777 329.528 184.221 329.825 183.785 330.261C183.349 330.698 183.051 331.253 182.931 331.859C182.811 332.464 182.872 333.091 183.109 333.661C183.345 334.231 183.745 334.718 184.258 335.061C184.771 335.404 185.374 335.587 185.991 335.587C186.815 335.576 187.602 335.243 188.184 334.661C188.767 334.078 189.099 333.291 189.11 332.467Z" fill="#D8DCFA"/>
<path d="M217.898 332.468C217.898 332.777 217.99 333.08 218.162 333.337C218.334 333.595 218.579 333.795 218.865 333.914C219.151 334.032 219.465 334.063 219.769 334.003C220.073 333.942 220.351 333.793 220.57 333.574C220.789 333.355 220.938 333.076 220.999 332.773C221.059 332.469 221.028 332.155 220.91 331.869C220.791 331.583 220.591 331.338 220.333 331.166C220.076 330.994 219.773 330.902 219.464 330.902C219.049 330.905 218.653 331.071 218.36 331.364C218.067 331.657 217.901 332.053 217.898 332.468Z" fill="#D8DCFA"/>
<path d="M256.058 332.465C256.06 331.846 255.878 331.24 255.535 330.723C255.193 330.207 254.704 329.804 254.133 329.566C253.561 329.327 252.931 329.263 252.323 329.383C251.715 329.503 251.156 329.8 250.718 330.237C250.279 330.675 249.979 331.232 249.858 331.84C249.736 332.447 249.798 333.077 250.034 333.65C250.271 334.223 250.672 334.712 251.187 335.057C251.702 335.401 252.308 335.585 252.927 335.585C253.753 335.577 254.543 335.246 255.128 334.663C255.713 334.08 256.046 333.291 256.058 332.465Z" fill="#D8DCFA"/>
<path d="M289.517 332.467C289.517 331.85 289.334 331.247 288.991 330.734C288.648 330.221 288.161 329.821 287.591 329.585C287.021 329.349 286.393 329.287 285.788 329.408C285.183 329.528 284.627 329.825 284.191 330.261C283.755 330.698 283.458 331.253 283.337 331.859C283.217 332.464 283.279 333.091 283.515 333.661C283.751 334.231 284.151 334.718 284.664 335.061C285.177 335.404 285.78 335.587 286.397 335.587C287.221 335.576 288.008 335.243 288.59 334.661C289.173 334.078 289.505 333.291 289.517 332.467Z" fill="#D8DCFA"/>
<path d="M322.991 332.465C322.993 331.845 322.811 331.239 322.468 330.722C322.125 330.206 321.636 329.803 321.064 329.565C320.491 329.326 319.861 329.263 319.253 329.384C318.645 329.504 318.086 329.803 317.647 330.241C317.209 330.68 316.911 331.238 316.79 331.847C316.67 332.455 316.733 333.085 316.971 333.657C317.209 334.23 317.612 334.719 318.128 335.062C318.645 335.405 319.252 335.587 319.872 335.585C320.696 335.574 321.483 335.242 322.065 334.659C322.648 334.076 322.98 333.289 322.991 332.465Z" fill="#D8DCFA"/>
<path d="M356.464 332.465C356.466 331.846 356.284 331.24 355.942 330.723C355.599 330.207 355.111 329.804 354.539 329.566C353.967 329.327 353.337 329.263 352.729 329.383C352.121 329.503 351.563 329.8 351.124 330.237C350.685 330.675 350.386 331.232 350.264 331.84C350.142 332.447 350.204 333.077 350.44 333.65C350.677 334.223 351.078 334.712 351.593 335.057C352.108 335.401 352.714 335.585 353.333 335.585C354.159 335.577 354.949 335.246 355.534 334.663C356.119 334.08 356.453 333.291 356.464 332.465Z" fill="#D8DCFA"/>
<path d="M385.242 332.468C385.242 332.777 385.334 333.08 385.506 333.337C385.678 333.595 385.922 333.795 386.208 333.914C386.494 334.032 386.809 334.063 387.113 334.003C387.416 333.942 387.695 333.793 387.914 333.574C388.133 333.355 388.282 333.076 388.342 332.773C388.403 332.469 388.372 332.155 388.253 331.869C388.135 331.583 387.934 331.338 387.677 331.166C387.42 330.994 387.117 330.902 386.807 330.902C386.394 330.908 385.999 331.075 385.707 331.367C385.414 331.659 385.248 332.054 385.242 332.468Z" fill="#D8DCFA"/>
<path d="M418.715 332.468C418.715 332.777 418.807 333.08 418.979 333.337C419.151 333.595 419.395 333.795 419.681 333.914C419.967 334.032 420.282 334.063 420.585 334.003C420.889 333.942 421.168 333.793 421.387 333.574C421.606 333.355 421.755 333.076 421.815 332.773C421.876 332.469 421.845 332.155 421.726 331.869C421.608 331.583 421.407 331.338 421.15 331.166C420.892 330.994 420.59 330.902 420.28 330.902C419.866 330.905 419.469 331.071 419.176 331.364C418.884 331.657 418.718 332.053 418.715 332.468Z" fill="#D8DCFA"/>
<path d="M456.874 332.465C456.876 331.846 456.694 331.24 456.352 330.723C456.009 330.207 455.521 329.804 454.949 329.566C454.377 329.327 453.748 329.263 453.14 329.383C452.532 329.503 451.973 329.8 451.534 330.237C451.095 330.675 450.796 331.232 450.674 331.84C450.553 332.447 450.614 333.077 450.851 333.65C451.087 334.223 451.488 334.712 452.003 335.057C452.518 335.401 453.124 335.585 453.744 335.585C454.569 335.577 455.359 335.246 455.944 334.663C456.529 334.08 456.863 333.291 456.874 332.465Z" fill="#D8DCFA"/>
<path d="M88.7001 299.002C88.7001 298.385 88.5171 297.782 88.1744 297.269C87.8316 296.756 87.3444 296.356 86.7743 296.12C86.2043 295.884 85.5771 295.822 84.9719 295.943C84.3668 296.063 83.8109 296.36 83.3746 296.797C82.9384 297.233 82.6412 297.789 82.5209 298.394C82.4005 298.999 82.4623 299.626 82.6984 300.196C82.9345 300.766 83.3344 301.253 83.8474 301.596C84.3604 301.939 84.9635 302.122 85.5805 302.122C86.4053 302.114 87.1939 301.782 87.7771 301.199C88.3603 300.616 88.6917 299.827 88.7001 299.002Z" fill="#D8DCFA"/>
<path d="M122.171 299.004C122.173 298.384 121.991 297.778 121.648 297.261C121.305 296.745 120.816 296.342 120.243 296.104C119.671 295.865 119.041 295.802 118.432 295.923C117.824 296.043 117.265 296.342 116.827 296.78C116.389 297.219 116.09 297.777 115.97 298.386C115.849 298.994 115.912 299.624 116.151 300.197C116.389 300.769 116.792 301.258 117.308 301.601C117.825 301.944 118.431 302.126 119.051 302.124C119.876 302.116 120.665 301.784 121.248 301.201C121.831 300.618 122.162 299.829 122.171 299.004Z" fill="#D8DCFA"/>
<path d="M155.647 299.004C155.65 298.385 155.468 297.779 155.125 297.262C154.782 296.746 154.294 296.343 153.723 296.105C153.151 295.866 152.521 295.803 151.913 295.922C151.305 296.042 150.746 296.339 150.307 296.776C149.869 297.214 149.569 297.771 149.448 298.379C149.326 298.987 149.387 299.616 149.624 300.189C149.861 300.762 150.262 301.251 150.777 301.596C151.292 301.94 151.897 302.124 152.517 302.124C153.343 302.116 154.133 301.785 154.718 301.202C155.302 300.619 155.636 299.83 155.647 299.004Z" fill="#D8DCFA"/>
<path d="M189.11 299.002C189.11 298.385 188.927 297.782 188.585 297.269C188.242 296.756 187.755 296.356 187.184 296.12C186.614 295.884 185.987 295.822 185.382 295.943C184.777 296.063 184.221 296.36 183.785 296.797C183.349 297.233 183.051 297.789 182.931 298.394C182.811 298.999 182.872 299.626 183.109 300.196C183.345 300.766 183.745 301.253 184.258 301.596C184.771 301.939 185.374 302.122 185.991 302.122C186.815 302.114 187.604 301.782 188.187 301.199C188.77 300.616 189.102 299.827 189.11 299.002Z" fill="#D8DCFA"/>
<path d="M222.581 299.004C222.583 298.384 222.401 297.778 222.058 297.261C221.715 296.745 221.226 296.342 220.654 296.104C220.081 295.865 219.451 295.802 218.843 295.923C218.234 296.043 217.676 296.342 217.237 296.78C216.799 297.219 216.5 297.777 216.38 298.386C216.259 298.994 216.322 299.624 216.561 300.197C216.799 300.769 217.202 301.258 217.718 301.601C218.235 301.944 218.841 302.126 219.461 302.124C220.286 302.116 221.075 301.784 221.658 301.201C222.241 300.618 222.573 299.829 222.581 299.004Z" fill="#D8DCFA"/>
<path d="M256.058 299.004C256.06 298.385 255.878 297.779 255.535 297.262C255.193 296.746 254.704 296.343 254.133 296.105C253.561 295.866 252.931 295.803 252.323 295.922C251.715 296.042 251.156 296.339 250.718 296.776C250.279 297.214 249.979 297.771 249.858 298.379C249.736 298.987 249.798 299.616 250.034 300.189C250.271 300.762 250.672 301.251 251.187 301.596C251.702 301.94 252.308 302.124 252.927 302.124C253.753 302.116 254.543 301.785 255.128 301.202C255.713 300.619 256.046 299.83 256.058 299.004Z" fill="#D8DCFA"/>
<path d="M289.517 299.002C289.517 298.385 289.334 297.782 288.991 297.269C288.648 296.756 288.161 296.356 287.591 296.12C287.021 295.884 286.393 295.822 285.788 295.943C285.183 296.063 284.627 296.36 284.191 296.797C283.755 297.233 283.458 297.789 283.337 298.394C283.217 298.999 283.279 299.626 283.515 300.196C283.751 300.766 284.151 301.253 284.664 301.596C285.177 301.939 285.78 302.122 286.397 302.122C287.222 302.114 288.01 301.782 288.593 301.199C289.177 300.616 289.508 299.827 289.517 299.002Z" fill="#D8DCFA"/>
<path d="M322.991 299.004C322.993 298.384 322.811 297.778 322.468 297.261C322.125 296.745 321.636 296.342 321.064 296.104C320.491 295.865 319.861 295.802 319.253 295.923C318.645 296.043 318.086 296.342 317.647 296.78C317.209 297.219 316.911 297.777 316.79 298.386C316.67 298.994 316.733 299.624 316.971 300.197C317.209 300.769 317.612 301.258 318.128 301.601C318.645 301.944 319.252 302.126 319.872 302.124C320.696 302.116 321.485 301.784 322.068 301.201C322.651 300.618 322.983 299.829 322.991 299.004Z" fill="#D8DCFA"/>
<path d="M351.781 299.007C351.781 299.317 351.873 299.62 352.046 299.877C352.218 300.135 352.463 300.336 352.75 300.454C353.037 300.572 353.352 300.602 353.656 300.541C353.96 300.48 354.239 300.33 354.457 300.11C354.675 299.89 354.824 299.61 354.883 299.305C354.942 299.001 354.909 298.686 354.789 298.4C354.669 298.114 354.467 297.871 354.208 297.7C353.949 297.529 353.646 297.439 353.336 297.441C352.923 297.447 352.53 297.614 352.239 297.907C351.948 298.199 351.784 298.594 351.781 299.007Z" fill="#D8DCFA"/>
<path d="M385.242 299.007C385.242 299.316 385.334 299.619 385.506 299.876C385.678 300.134 385.922 300.334 386.208 300.453C386.494 300.571 386.809 300.602 387.113 300.542C387.416 300.481 387.695 300.332 387.914 300.113C388.133 299.894 388.282 299.616 388.342 299.312C388.403 299.008 388.372 298.694 388.253 298.408C388.135 298.122 387.934 297.877 387.677 297.705C387.42 297.533 387.117 297.441 386.807 297.441C386.395 297.45 386.002 297.617 385.71 297.909C385.418 298.201 385.25 298.594 385.242 299.007Z" fill="#D8DCFA"/>
<path d="M423.397 299.004C423.4 298.384 423.218 297.778 422.874 297.261C422.531 296.745 422.042 296.342 421.47 296.104C420.898 295.865 420.267 295.802 419.659 295.923C419.051 296.043 418.492 296.342 418.054 296.78C417.615 297.219 417.317 297.777 417.196 298.386C417.076 298.994 417.139 299.624 417.377 300.197C417.615 300.769 418.018 301.258 418.535 301.601C419.051 301.944 419.658 302.126 420.278 302.124C421.103 302.116 421.891 301.784 422.474 301.201C423.058 300.618 423.389 299.829 423.397 299.004Z" fill="#D8DCFA"/>
<path d="M456.874 299.004C456.876 298.385 456.694 297.779 456.352 297.262C456.009 296.746 455.521 296.343 454.949 296.105C454.377 295.866 453.748 295.803 453.14 295.922C452.532 296.042 451.973 296.339 451.534 296.776C451.095 297.214 450.796 297.771 450.674 298.379C450.553 298.987 450.614 299.616 450.851 300.189C451.087 300.762 451.488 301.251 452.003 301.596C452.518 301.94 453.124 302.124 453.744 302.124C454.569 302.116 455.359 301.785 455.944 301.202C456.529 300.619 456.863 299.83 456.874 299.004Z" fill="#D8DCFA"/>
<path d="M187.552 265.542C187.552 265.232 187.46 264.93 187.288 264.672C187.116 264.415 186.872 264.214 186.586 264.096C186.3 263.977 185.985 263.946 185.682 264.007C185.378 264.067 185.099 264.216 184.88 264.435C184.661 264.654 184.512 264.933 184.452 265.236C184.392 265.54 184.423 265.855 184.541 266.141C184.659 266.427 184.86 266.671 185.117 266.843C185.375 267.015 185.677 267.107 185.987 267.107C186.4 267.101 186.795 266.935 187.088 266.642C187.38 266.35 187.547 265.955 187.552 265.542Z" fill="#D8DCFA"/>
<path d="M222.581 265.544C222.581 264.925 222.397 264.319 222.053 263.804C221.708 263.289 221.219 262.888 220.646 262.651C220.073 262.415 219.444 262.353 218.836 262.475C218.228 262.597 217.671 262.896 217.233 263.335C216.796 263.774 216.499 264.332 216.379 264.94C216.26 265.548 216.323 266.178 216.562 266.75C216.8 267.322 217.203 267.81 217.719 268.152C218.236 268.495 218.842 268.677 219.461 268.675C220.287 268.664 221.076 268.33 221.659 267.745C222.242 267.16 222.573 266.37 222.581 265.544Z" fill="#D8DCFA"/>
<path d="M256.058 265.544C256.058 264.925 255.874 264.32 255.53 263.805C255.186 263.291 254.697 262.889 254.125 262.652C253.553 262.415 252.924 262.353 252.317 262.474C251.709 262.595 251.152 262.893 250.714 263.331C250.276 263.769 249.978 264.326 249.857 264.934C249.736 265.541 249.798 266.17 250.035 266.742C250.272 267.314 250.673 267.803 251.188 268.147C251.703 268.491 252.308 268.675 252.927 268.675C253.755 268.666 254.546 268.334 255.131 267.749C255.717 267.163 256.049 266.372 256.058 265.544Z" fill="#D8DCFA"/>
<path d="M284.832 265.539C284.83 265.849 284.92 266.152 285.091 266.411C285.261 266.67 285.505 266.872 285.791 266.992C286.077 267.113 286.392 267.145 286.696 267.086C287 267.027 287.28 266.879 287.5 266.66C287.72 266.442 287.87 266.163 287.932 265.859C287.993 265.555 287.962 265.24 287.844 264.953C287.726 264.666 287.526 264.421 287.268 264.249C287.01 264.076 286.707 263.984 286.397 263.984C285.986 263.99 285.592 264.155 285.3 264.445C285.008 264.735 284.84 265.127 284.832 265.539Z" fill="#D8DCFA"/>
<path d="M318.305 265.539C318.303 265.849 318.393 266.152 318.563 266.411C318.734 266.67 318.978 266.872 319.263 266.992C319.549 267.113 319.864 267.145 320.169 267.086C320.473 267.027 320.753 266.879 320.973 266.66C321.193 266.442 321.343 266.163 321.404 265.859C321.465 265.555 321.435 265.24 321.317 264.953C321.199 264.666 320.998 264.421 320.741 264.249C320.483 264.076 320.18 263.984 319.87 263.984C319.458 263.987 319.063 264.151 318.77 264.442C318.477 264.733 318.31 265.126 318.305 265.539Z" fill="#D8DCFA"/>
<path d="M356.464 265.544C356.464 264.925 356.28 264.32 355.936 263.805C355.592 263.291 355.103 262.889 354.531 262.652C353.959 262.415 353.33 262.353 352.723 262.474C352.116 262.595 351.558 262.893 351.12 263.331C350.682 263.769 350.384 264.326 350.263 264.934C350.142 265.541 350.204 266.17 350.441 266.742C350.678 267.314 351.08 267.803 351.594 268.147C352.109 268.491 352.714 268.675 353.334 268.675C354.161 268.666 354.952 268.334 355.538 267.749C356.123 267.163 356.455 266.372 356.464 265.544Z" fill="#D8DCFA"/>
<path d="M389.927 265.542C389.925 264.926 389.74 264.324 389.396 263.812C389.052 263.301 388.564 262.902 387.993 262.668C387.423 262.434 386.796 262.373 386.192 262.495C385.587 262.616 385.033 262.914 384.597 263.351C384.162 263.788 383.866 264.344 383.747 264.949C383.627 265.553 383.69 266.18 383.926 266.749C384.162 267.319 384.562 267.805 385.075 268.148C385.588 268.49 386.191 268.673 386.807 268.673C387.633 268.662 388.421 268.328 389.004 267.743C389.587 267.158 389.918 266.368 389.927 265.542Z" fill="#D8DCFA"/>
<path d="M424.955 265.544C424.955 264.617 424.68 263.711 424.165 262.94C423.65 262.17 422.918 261.569 422.061 261.215C421.204 260.861 420.262 260.769 419.353 260.95C418.444 261.132 417.609 261.579 416.954 262.235C416.299 262.892 415.854 263.727 415.675 264.637C415.495 265.546 415.589 266.489 415.946 267.344C416.302 268.2 416.904 268.931 417.676 269.445C418.448 269.958 419.354 270.231 420.281 270.229C421.518 270.212 422.698 269.713 423.572 268.838C424.445 267.962 424.941 266.78 424.955 265.544Z" fill="#D8DCFA"/>
<path d="M458.428 265.544C458.428 264.618 458.153 263.712 457.639 262.941C457.124 262.171 456.392 261.571 455.536 261.216C454.68 260.861 453.738 260.769 452.829 260.949C451.921 261.13 451.086 261.576 450.431 262.232C449.776 262.887 449.329 263.721 449.149 264.63C448.968 265.539 449.061 266.481 449.415 267.337C449.77 268.193 450.37 268.925 451.141 269.439C451.911 269.954 452.817 270.229 453.743 270.229C454.981 270.215 456.165 269.717 457.04 268.841C457.916 267.966 458.414 266.782 458.428 265.544Z" fill="#D8DCFA"/>
<path d="M284.832 232.081C284.832 232.39 284.924 232.693 285.096 232.95C285.268 233.208 285.512 233.408 285.798 233.527C286.084 233.645 286.399 233.676 286.703 233.616C287.006 233.556 287.285 233.406 287.504 233.188C287.723 232.969 287.872 232.69 287.932 232.386C287.993 232.083 287.962 231.768 287.843 231.482C287.725 231.196 287.524 230.951 287.267 230.779C287.009 230.607 286.707 230.516 286.397 230.516C285.985 230.524 285.591 230.691 285.3 230.983C285.008 231.275 284.84 231.668 284.832 232.081Z" fill="#D8DCFA"/>
<path d="M322.991 232.079C322.993 231.459 322.811 230.852 322.468 230.335C322.125 229.819 321.636 229.416 321.064 229.178C320.491 228.94 319.861 228.877 319.253 228.997C318.645 229.118 318.086 229.416 317.647 229.854C317.209 230.293 316.911 230.852 316.79 231.46C316.67 232.068 316.733 232.698 316.971 233.271C317.209 233.843 317.612 234.332 318.128 234.675C318.645 235.018 319.252 235.2 319.872 235.198C320.696 235.187 321.483 234.855 322.065 234.272C322.648 233.69 322.98 232.903 322.991 232.079Z" fill="#D8DCFA"/>
<path d="M358.018 232.079C358.018 231.153 357.743 230.247 357.228 229.477C356.714 228.706 355.982 228.106 355.126 227.751C354.27 227.397 353.328 227.304 352.419 227.485C351.51 227.665 350.676 228.111 350.021 228.767C349.365 229.422 348.919 230.257 348.738 231.165C348.558 232.074 348.65 233.016 349.005 233.872C349.36 234.728 349.96 235.46 350.73 235.975C351.501 236.489 352.407 236.764 353.333 236.764C354.571 236.75 355.755 236.252 356.63 235.376C357.506 234.501 358.004 233.317 358.018 232.079Z" fill="#D8DCFA"/>
<path d="M391.495 232.079C391.495 231.153 391.22 230.247 390.705 229.477C390.19 228.706 389.459 228.106 388.603 227.751C387.747 227.397 386.805 227.304 385.896 227.485C384.987 227.665 384.152 228.111 383.497 228.767C382.842 229.422 382.396 230.257 382.215 231.165C382.034 232.074 382.127 233.016 382.482 233.872C382.836 234.728 383.437 235.46 384.207 235.975C384.977 236.489 385.883 236.764 386.81 236.764C388.048 236.75 389.231 236.252 390.107 235.376C390.982 234.501 391.48 233.317 391.495 232.079Z" fill="#D8DCFA"/>
<path d="M426.523 232.077C426.525 230.84 426.16 229.63 425.475 228.601C424.789 227.571 423.813 226.769 422.67 226.294C421.528 225.82 420.27 225.695 419.057 225.936C417.843 226.177 416.729 226.772 415.854 227.647C414.979 228.522 414.384 229.636 414.143 230.85C413.902 232.063 414.027 233.321 414.501 234.463C414.976 235.606 415.778 236.582 416.808 237.268C417.837 237.953 419.047 238.318 420.284 238.316C421.934 238.299 423.511 237.637 424.677 236.47C425.844 235.304 426.506 233.727 426.523 232.077Z" fill="#D8DCFA"/>
<path d="M459.992 232.077C459.994 230.841 459.629 229.631 458.944 228.602C458.259 227.573 457.283 226.77 456.141 226.295C455 225.821 453.743 225.695 452.529 225.935C451.316 226.175 450.202 226.77 449.327 227.643C448.451 228.517 447.855 229.63 447.613 230.843C447.371 232.056 447.494 233.313 447.967 234.456C448.44 235.598 449.241 236.575 450.269 237.262C451.297 237.949 452.506 238.316 453.742 238.316C455.392 238.297 456.969 237.633 458.136 236.468C459.304 235.302 459.97 233.727 459.992 232.077Z" fill="#D8DCFA"/>
<path d="M321.423 198.553C321.423 198.243 321.331 197.94 321.159 197.683C320.986 197.425 320.741 197.225 320.455 197.106C320.168 196.988 319.853 196.958 319.549 197.019C319.245 197.08 318.966 197.231 318.748 197.451C318.529 197.671 318.381 197.95 318.322 198.255C318.263 198.559 318.295 198.874 318.415 199.16C318.535 199.446 318.738 199.689 318.996 199.86C319.255 200.031 319.559 200.121 319.869 200.119C320.281 200.113 320.675 199.946 320.966 199.653C321.256 199.361 321.421 198.966 321.423 198.553Z" fill="#D8DCFA"/>
<path d="M358.018 198.552C358.018 197.625 357.743 196.72 357.228 195.949C356.714 195.179 355.982 194.578 355.126 194.224C354.27 193.869 353.328 193.776 352.419 193.957C351.51 194.138 350.676 194.584 350.021 195.239C349.365 195.894 348.919 196.729 348.738 197.638C348.558 198.547 348.65 199.489 349.005 200.345C349.36 201.201 349.96 201.932 350.73 202.447C351.501 202.962 352.407 203.237 353.333 203.237C354.571 203.223 355.755 202.725 356.63 201.849C357.506 200.974 358.004 199.79 358.018 198.552Z" fill="#D8DCFA"/>
<path d="M393.047 198.551C393.047 197.314 392.68 196.105 391.993 195.077C391.305 194.049 390.329 193.248 389.186 192.775C388.043 192.303 386.786 192.18 385.574 192.422C384.361 192.664 383.247 193.26 382.374 194.135C381.5 195.01 380.906 196.125 380.666 197.338C380.426 198.551 380.551 199.808 381.026 200.95C381.5 202.092 382.303 203.067 383.332 203.753C384.362 204.438 385.571 204.803 386.808 204.801C388.458 204.781 390.035 204.116 391.201 202.948C392.368 201.78 393.03 200.201 393.047 198.551Z" fill="#D8DCFA"/>
<path d="M426.523 198.551C426.523 197.314 426.157 196.105 425.469 195.077C424.782 194.049 423.805 193.248 422.663 192.775C421.52 192.303 420.263 192.18 419.05 192.422C417.837 192.664 416.724 193.26 415.85 194.135C414.977 195.01 414.382 196.125 414.142 197.338C413.902 198.551 414.028 199.808 414.502 200.95C414.977 202.092 415.78 203.067 416.809 203.753C417.838 204.438 419.048 204.803 420.284 204.801C421.935 204.781 423.512 204.116 424.678 202.948C425.844 201.78 426.507 200.201 426.523 198.551Z" fill="#D8DCFA"/>
<path d="M459.992 198.551C459.992 197.315 459.626 196.106 458.939 195.078C458.252 194.051 457.276 193.25 456.134 192.777C454.992 192.304 453.735 192.18 452.523 192.421C451.31 192.662 450.197 193.257 449.323 194.131C448.449 195.005 447.853 196.119 447.612 197.331C447.371 198.544 447.495 199.8 447.968 200.942C448.441 202.085 449.242 203.061 450.27 203.747C451.298 204.434 452.506 204.801 453.742 204.801C455.393 204.778 456.97 204.113 458.137 202.945C459.304 201.778 459.97 200.201 459.992 198.551Z" fill="#D8DCFA"/>
<path d="M324.545 165.079C324.545 164.152 324.27 163.246 323.755 162.475C323.24 161.705 322.507 161.104 321.651 160.75C320.794 160.396 319.852 160.304 318.943 160.485C318.034 160.667 317.199 161.114 316.544 161.771C315.889 162.427 315.444 163.262 315.264 164.172C315.085 165.081 315.179 166.024 315.535 166.88C315.892 167.735 316.494 168.466 317.266 168.98C318.038 169.493 318.944 169.766 319.871 169.764C321.108 169.747 322.288 169.248 323.162 168.373C324.035 167.497 324.531 166.316 324.545 165.079Z" fill="#D8DCFA"/>
<path d="M359.586 165.078C359.586 163.842 359.219 162.634 358.533 161.606C357.846 160.578 356.87 159.777 355.728 159.304C354.586 158.831 353.329 158.707 352.117 158.948C350.904 159.189 349.791 159.785 348.917 160.659C348.042 161.533 347.447 162.646 347.206 163.859C346.965 165.071 347.089 166.328 347.562 167.47C348.035 168.612 348.836 169.588 349.864 170.275C350.891 170.961 352.1 171.328 353.336 171.328C354.987 171.308 356.566 170.644 357.734 169.476C358.901 168.308 359.566 166.73 359.586 165.078Z" fill="#D8DCFA"/>
<path d="M393.047 165.078C393.047 163.841 392.68 162.633 391.993 161.605C391.305 160.577 390.329 159.776 389.186 159.303C388.043 158.83 386.786 158.707 385.574 158.949C384.361 159.191 383.247 159.787 382.374 160.663C381.5 161.538 380.906 162.652 380.666 163.865C380.426 165.078 380.551 166.335 381.026 167.477C381.5 168.619 382.303 169.595 383.332 170.28C384.362 170.965 385.571 171.33 386.808 171.328C388.459 171.311 390.038 170.647 391.204 169.478C392.371 168.309 393.033 166.729 393.047 165.078Z" fill="#D8DCFA"/>
<path d="M426.523 165.078C426.523 163.841 426.157 162.633 425.469 161.605C424.782 160.577 423.805 159.776 422.663 159.303C421.52 158.83 420.263 158.707 419.05 158.949C417.837 159.191 416.724 159.787 415.85 160.663C414.977 161.538 414.382 162.652 414.142 163.865C413.902 165.078 414.028 166.335 414.502 167.477C414.977 168.619 415.78 169.595 416.809 170.28C417.838 170.965 419.048 171.33 420.284 171.328C421.936 171.311 423.514 170.647 424.681 169.478C425.848 168.309 426.509 166.729 426.523 165.078Z" fill="#D8DCFA"/>
<path d="M459.992 165.078C459.992 163.842 459.626 162.634 458.939 161.606C458.252 160.578 457.276 159.777 456.134 159.304C454.992 158.831 453.735 158.707 452.523 158.948C451.31 159.189 450.197 159.785 449.323 160.659C448.449 161.533 447.853 162.646 447.612 163.859C447.371 165.071 447.495 166.328 447.968 167.47C448.441 168.612 449.242 169.588 450.27 170.275C451.298 170.961 452.506 171.328 453.742 171.328C455.394 171.308 456.972 170.644 458.14 169.476C459.308 168.308 459.972 166.73 459.992 165.078Z" fill="#D8DCFA"/>
<path d="M251.367 131.616C251.367 131.926 251.459 132.229 251.632 132.487C251.804 132.744 252.049 132.945 252.336 133.063C252.623 133.181 252.938 133.212 253.242 133.15C253.546 133.089 253.824 132.939 254.043 132.719C254.261 132.499 254.41 132.219 254.469 131.915C254.528 131.61 254.495 131.295 254.375 131.01C254.255 130.724 254.053 130.48 253.794 130.309C253.535 130.139 253.232 130.049 252.922 130.051C252.509 130.056 252.115 130.224 251.825 130.516C251.534 130.809 251.37 131.204 251.367 131.616Z" fill="#D8DCFA"/>
<path d="M289.517 131.616C289.517 130.999 289.334 130.396 288.991 129.883C288.648 129.37 288.161 128.97 287.591 128.734C287.021 128.497 286.393 128.436 285.788 128.556C285.183 128.676 284.627 128.974 284.191 129.41C283.755 129.846 283.458 130.402 283.337 131.007C283.217 131.612 283.279 132.239 283.515 132.809C283.751 133.38 284.151 133.867 284.664 134.21C285.177 134.552 285.78 134.735 286.397 134.735C287.221 134.724 288.008 134.392 288.59 133.809C289.173 133.227 289.505 132.44 289.517 131.616Z" fill="#D8DCFA"/>
<path d="M322.991 131.614C322.993 130.994 322.811 130.387 322.468 129.871C322.125 129.354 321.636 128.951 321.064 128.713C320.491 128.475 319.861 128.412 319.253 128.532C318.645 128.653 318.086 128.951 317.647 129.39C317.209 129.828 316.911 130.387 316.79 130.995C316.67 131.603 316.733 132.234 316.971 132.806C317.209 133.378 317.612 133.867 318.128 134.21C318.645 134.553 319.252 134.736 319.872 134.733C320.696 134.722 321.483 134.39 322.065 133.807C322.648 133.225 322.98 132.438 322.991 131.614Z" fill="#D8DCFA"/>
<path d="M358.018 131.614C358.018 130.688 357.743 129.782 357.228 129.012C356.714 128.241 355.982 127.641 355.126 127.286C354.27 126.932 353.328 126.839 352.419 127.02C351.51 127.2 350.676 127.647 350.021 128.302C349.365 128.957 348.919 129.792 348.738 130.7C348.558 131.609 348.65 132.551 349.005 133.407C349.36 134.263 349.96 134.995 350.73 135.51C351.501 136.024 352.407 136.299 353.333 136.299C354.571 136.285 355.755 135.787 356.63 134.912C357.506 134.036 358.004 132.853 358.018 131.614Z" fill="#D8DCFA"/>
<path d="M391.495 131.614C391.495 130.688 391.22 129.782 390.705 129.012C390.19 128.241 389.459 127.641 388.603 127.286C387.747 126.932 386.805 126.839 385.896 127.02C384.987 127.2 384.152 127.647 383.497 128.302C382.842 128.957 382.396 129.792 382.215 130.7C382.034 131.609 382.127 132.551 382.482 133.407C382.836 134.263 383.437 134.995 384.207 135.51C384.977 136.024 385.883 136.299 386.81 136.299C388.048 136.285 389.231 135.787 390.107 134.912C390.982 134.036 391.48 132.853 391.495 131.614Z" fill="#D8DCFA"/>
<path d="M426.523 131.616C426.525 130.379 426.16 129.169 425.475 128.14C424.789 127.11 423.813 126.308 422.67 125.833C421.528 125.359 420.27 125.234 419.057 125.475C417.843 125.716 416.729 126.311 415.854 127.186C414.979 128.061 414.384 129.175 414.143 130.389C413.902 131.602 414.027 132.86 414.501 134.002C414.976 135.145 415.778 136.121 416.808 136.807C417.837 137.492 419.047 137.858 420.284 137.855C421.934 137.839 423.511 137.176 424.677 136.009C425.844 134.843 426.506 133.266 426.523 131.616Z" fill="#D8DCFA"/>
<path d="M459.992 131.616C459.994 130.38 459.629 129.17 458.944 128.141C458.259 127.112 457.283 126.309 456.141 125.834C455 125.36 453.743 125.234 452.529 125.474C451.316 125.714 450.202 126.309 449.327 127.182C448.451 128.056 447.855 129.169 447.613 130.382C447.371 131.595 447.494 132.852 447.967 133.995C448.44 135.137 449.241 136.114 450.269 136.801C451.297 137.489 452.506 137.855 453.742 137.855C455.392 137.836 456.969 137.173 458.136 136.007C459.304 134.841 459.97 133.266 459.992 131.616Z" fill="#D8DCFA"/>
<path d="M222.581 98.1451C222.583 97.525 222.401 96.9183 222.058 96.4019C221.715 95.8854 221.226 95.4825 220.654 95.2443C220.081 95.006 219.451 94.9431 218.843 95.0635C218.234 95.184 217.676 95.4823 217.237 95.9208C216.799 96.3592 216.5 96.918 216.38 97.5262C216.259 98.1345 216.322 98.7648 216.561 99.3372C216.799 99.9096 217.202 100.398 217.718 100.742C218.235 101.085 218.841 101.267 219.461 101.265C220.286 101.256 221.075 100.925 221.658 100.342C222.241 99.7584 222.573 98.9698 222.581 98.1451Z" fill="#D8DCFA"/>
<path d="M251.367 98.1443C251.365 98.4547 251.455 98.7588 251.626 99.0179C251.798 99.2769 252.042 99.4792 252.328 99.599C252.615 99.7188 252.93 99.7507 253.235 99.6907C253.54 99.6306 253.82 99.4813 254.039 99.2618C254.259 99.0422 254.408 98.7624 254.468 98.4577C254.528 98.1531 254.496 97.8375 254.376 97.5511C254.257 97.2647 254.054 97.0203 253.795 96.8492C253.536 96.678 253.232 96.5877 252.922 96.5899C252.51 96.5927 252.117 96.7574 251.826 97.0483C251.535 97.3392 251.37 97.7329 251.367 98.1443Z" fill="#D8DCFA"/>
<path d="M289.517 98.143C289.517 97.526 289.334 96.9229 288.991 96.4099C288.648 95.8969 288.161 95.497 287.591 95.2609C287.021 95.0248 286.393 94.963 285.788 95.0834C285.183 95.2038 284.627 95.5009 284.191 95.9371C283.755 96.3734 283.458 96.9293 283.337 97.5344C283.217 98.1396 283.279 98.7668 283.515 99.3368C283.751 99.9069 284.151 100.394 284.664 100.737C285.177 101.08 285.78 101.263 286.397 101.263C287.222 101.254 288.01 100.923 288.593 100.34C289.177 99.7564 289.508 98.9678 289.517 98.143Z" fill="#D8DCFA"/>
<path d="M322.991 98.1444C322.993 97.5221 322.81 96.9133 322.464 96.3958C322.118 95.8783 321.626 95.4755 321.051 95.2389C320.475 95.0023 319.842 94.9427 319.233 95.0676C318.623 95.1925 318.064 95.4963 317.628 95.9402C317.192 96.384 316.898 96.9478 316.784 97.5596C316.669 98.1713 316.74 98.8032 316.987 99.3746C317.233 99.946 317.645 100.431 318.168 100.767C318.692 101.104 319.303 101.277 319.926 101.264C320.741 101.242 321.516 100.904 322.088 100.322C322.659 99.7407 322.983 98.96 322.991 98.1444Z" fill="#D8DCFA"/>
<path d="M356.464 98.1412C356.466 97.5216 356.284 96.9153 355.942 96.3991C355.599 95.8829 355.111 95.48 354.539 95.2414C353.967 95.0028 353.337 94.9393 352.729 95.0588C352.121 95.1784 351.563 95.4757 351.124 95.913C350.685 96.3504 350.386 96.9082 350.264 97.5157C350.142 98.1232 350.204 98.7532 350.44 99.3258C350.677 99.8984 351.078 100.388 351.593 100.732C352.108 101.077 352.714 101.261 353.333 101.261C354.159 101.252 354.949 100.921 355.534 100.338C356.119 99.7555 356.453 98.9669 356.464 98.1412Z" fill="#D8DCFA"/>
<path d="M391.495 98.1416C391.494 97.2132 391.219 96.3058 390.702 95.5345C390.185 94.7631 389.451 94.1627 388.592 93.8095C387.734 93.4562 386.79 93.366 385.88 93.5503C384.97 93.7346 384.135 94.185 383.482 94.8445C382.828 95.504 382.386 96.3428 382.21 97.2544C382.034 98.166 382.133 99.1093 382.494 99.9645C382.855 100.82 383.463 101.548 384.239 102.058C385.015 102.567 385.925 102.835 386.853 102.826C388.084 102.801 389.256 102.298 390.122 101.424C390.989 100.55 391.481 99.3724 391.495 98.1416Z" fill="#D8DCFA"/>
<path d="M424.955 98.1416C424.955 97.2132 424.68 96.3058 424.163 95.5345C423.646 94.7631 422.912 94.1627 422.053 93.8095C421.195 93.4562 420.251 93.366 419.341 93.5503C418.431 93.7346 417.596 94.185 416.943 94.8445C416.289 95.504 415.847 96.3428 415.671 97.2544C415.495 98.166 415.594 99.1093 415.955 99.9645C416.316 100.82 416.923 101.548 417.7 102.058C418.476 102.567 419.386 102.835 420.314 102.826C421.544 102.801 422.717 102.298 423.583 101.424C424.45 100.55 424.942 99.3724 424.955 98.1416Z" fill="#D8DCFA"/>
<path d="M459.992 98.1405C459.992 96.903 459.625 95.6934 458.936 94.6649C458.248 93.6364 457.27 92.8353 456.126 92.3633C454.982 91.8912 453.724 91.7693 452.511 92.0131C451.298 92.2569 450.184 92.8554 449.311 93.7327C448.439 94.61 447.846 95.7267 447.608 96.9412C447.371 98.1557 447.499 99.4133 447.977 100.555C448.455 101.696 449.261 102.67 450.293 103.353C451.326 104.036 452.537 104.397 453.775 104.39C455.42 104.36 456.988 103.69 458.148 102.524C459.309 101.358 459.97 99.7856 459.992 98.1405Z" fill="#D8DCFA"/>
<path d="M284.832 64.6785C284.832 64.988 284.924 65.2906 285.096 65.548C285.268 65.8054 285.512 66.006 285.798 66.1245C286.084 66.243 286.399 66.274 286.703 66.2136C287.006 66.1532 287.285 66.0041 287.504 65.7852C287.723 65.5663 287.872 65.2874 287.932 64.9838C287.993 64.6802 287.962 64.3655 287.843 64.0795C287.725 63.7935 287.524 63.549 287.267 63.3771C287.009 63.2051 286.707 63.1133 286.397 63.1133C285.984 63.1189 285.589 63.2856 285.297 63.5779C285.004 63.8702 284.838 64.2651 284.832 64.6785Z" fill="#D8DCFA"/>
<path d="M322.991 64.6796C322.993 64.0572 322.81 63.4485 322.464 62.9309C322.118 62.4134 321.626 62.0106 321.051 61.7741C320.475 61.5375 319.842 61.4779 319.233 61.6028C318.623 61.7277 318.064 62.0315 317.628 62.4753C317.192 62.9192 316.898 63.483 316.784 64.0947C316.669 64.7065 316.74 65.3384 316.987 65.9098C317.233 66.4812 317.645 66.9661 318.168 67.3026C318.692 67.6391 319.303 67.812 319.926 67.7991C320.74 67.7742 321.513 67.4359 322.085 66.8547C322.656 66.2735 322.98 65.4943 322.991 64.6796Z" fill="#D8DCFA"/>
<path d="M356.464 64.6763C356.466 64.0567 356.284 63.4505 355.942 62.9342C355.599 62.418 355.111 62.0151 354.539 61.7766C353.967 61.538 353.337 61.4744 352.729 61.594C352.121 61.7136 351.563 62.0108 351.124 62.4482C350.685 62.8856 350.386 63.4433 350.264 64.0508C350.142 64.6584 350.204 65.2883 350.44 65.861C350.677 66.4336 351.078 66.9231 351.593 67.2676C352.108 67.612 352.714 67.7959 353.333 67.7959C354.159 67.7875 354.949 67.4565 355.534 66.8736C356.119 66.2906 356.453 65.5021 356.464 64.6763Z" fill="#D8DCFA"/>
<path d="M389.927 64.6818C389.927 64.063 389.742 63.4581 389.398 62.9442C389.053 62.4303 388.563 62.0306 387.991 61.7958C387.418 61.561 386.789 61.5018 386.182 61.6257C385.576 61.7496 385.02 62.051 384.586 62.4916C384.151 62.9322 383.858 63.4921 383.742 64.1001C383.627 64.708 383.695 65.3366 383.938 65.9058C384.18 66.475 384.587 66.9592 385.106 67.2967C385.624 67.6343 386.232 67.8099 386.85 67.8014C387.667 67.7791 388.443 67.442 389.016 66.8605C389.59 66.2791 389.916 65.4984 389.927 64.6818Z" fill="#D8DCFA"/>
<path d="M424.955 64.6797C424.958 63.7509 424.683 62.8424 424.168 62.0696C423.653 61.2969 422.919 60.6948 422.061 60.3399C421.202 59.985 420.258 59.8932 419.347 60.0763C418.437 60.2593 417.601 60.709 416.947 61.368C416.292 62.0271 415.848 62.8659 415.672 63.7778C415.495 64.6896 415.593 65.6335 415.954 66.4894C416.315 67.3452 416.922 68.0745 417.698 68.5845C418.475 69.0945 419.385 69.3623 420.314 69.3537C421.543 69.3313 422.716 68.8307 423.583 67.9581C424.449 67.0854 424.942 65.9095 424.955 64.6797Z" fill="#D8DCFA"/>
<path d="M458.428 64.6798C458.43 63.7514 458.156 62.8434 457.642 62.0708C457.127 61.2983 456.394 60.6962 455.536 60.341C454.678 59.9857 453.734 59.8933 452.824 60.0755C451.914 60.2576 451.078 60.7062 450.423 61.3642C449.768 62.0222 449.323 62.8599 449.145 63.7711C448.968 64.6823 449.064 65.6258 449.424 66.4819C449.783 67.3379 450.388 68.068 451.163 68.5793C451.938 69.0906 452.847 69.3602 453.776 69.3538C455.006 69.3315 456.18 68.8312 457.048 67.9589C457.917 67.0865 458.411 65.9106 458.428 64.6798Z" fill="#D8DCFA"/>
<path d="M88.7001 734.073C88.7001 733.456 88.5171 732.853 88.1744 732.34C87.8316 731.827 87.3444 731.427 86.7743 731.191C86.2043 730.955 85.5771 730.893 84.9719 731.013C84.3668 731.133 83.8109 731.431 83.3746 731.867C82.9384 732.303 82.6412 732.859 82.5209 733.464C82.4005 734.069 82.4623 734.696 82.6984 735.267C82.9345 735.837 83.3344 736.324 83.8474 736.667C84.3604 737.009 84.9635 737.192 85.5805 737.192C86.4044 737.181 87.1914 736.849 87.774 736.266C88.3567 735.684 88.6889 734.897 88.7001 734.073Z" fill="#D8DCFA"/>
<path d="M115.91 734.072C115.91 734.691 116.094 735.296 116.438 735.811C116.782 736.326 117.271 736.727 117.843 736.964C118.415 737.201 119.044 737.263 119.651 737.142C120.258 737.021 120.816 736.723 121.254 736.285C121.692 735.847 121.99 735.29 122.111 734.682C122.232 734.075 122.17 733.446 121.933 732.874C121.696 732.302 121.294 731.813 120.78 731.469C120.265 731.125 119.66 730.941 119.041 730.941C118.213 730.95 117.422 731.282 116.836 731.868C116.251 732.453 115.919 733.244 115.91 734.072Z" fill="#D8DCFA"/>
<path d="M155.647 734.075C155.65 733.455 155.468 732.849 155.125 732.333C154.782 731.816 154.294 731.414 153.723 731.175C153.151 730.936 152.521 730.873 151.913 730.992C151.305 731.112 150.746 731.409 150.307 731.847C149.869 732.284 149.569 732.842 149.448 733.449C149.326 734.057 149.387 734.687 149.624 735.259C149.861 735.832 150.262 736.322 150.777 736.666C151.292 737.01 151.897 737.194 152.517 737.194C153.343 737.186 154.133 736.855 154.718 736.272C155.302 735.689 155.636 734.9 155.647 734.075Z" fill="#D8DCFA"/>
<path d="M189.11 734.073C189.11 733.456 188.927 732.853 188.585 732.34C188.242 731.827 187.755 731.427 187.184 731.191C186.614 730.955 185.987 730.893 185.382 731.013C184.777 731.133 184.221 731.431 183.785 731.867C183.349 732.303 183.051 732.859 182.931 733.464C182.811 734.069 182.872 734.696 183.109 735.267C183.345 735.837 183.745 736.324 184.258 736.667C184.771 737.009 185.374 737.192 185.991 737.192C186.815 737.181 187.602 736.849 188.184 736.266C188.767 735.684 189.099 734.897 189.11 734.073Z" fill="#D8DCFA"/>
<path d="M222.581 734.075C222.583 733.455 222.401 732.848 222.058 732.332C221.715 731.815 221.226 731.412 220.654 731.174C220.081 730.936 219.451 730.873 218.843 730.993C218.234 731.114 217.676 731.412 217.237 731.85C216.799 732.289 216.5 732.848 216.38 733.456C216.259 734.064 216.322 734.694 216.561 735.267C216.799 735.839 217.202 736.328 217.718 736.671C218.235 737.014 218.841 737.196 219.461 737.194C220.285 737.183 221.072 736.851 221.655 736.268C222.238 735.686 222.57 734.899 222.581 734.075Z" fill="#D8DCFA"/>
<path d="M256.058 734.075C256.06 733.455 255.878 732.849 255.535 732.333C255.193 731.816 254.704 731.414 254.133 731.175C253.561 730.936 252.931 730.873 252.323 730.992C251.715 731.112 251.156 731.409 250.718 731.847C250.279 732.284 249.979 732.842 249.858 733.449C249.736 734.057 249.798 734.687 250.034 735.259C250.271 735.832 250.672 736.322 251.187 736.666C251.702 737.01 252.308 737.194 252.927 737.194C253.753 737.186 254.543 736.855 255.128 736.272C255.713 735.689 256.046 734.9 256.058 734.075Z" fill="#D8DCFA"/>
<path d="M289.517 734.073C289.517 733.456 289.334 732.853 288.991 732.34C288.648 731.827 288.161 731.427 287.591 731.191C287.021 730.955 286.393 730.893 285.788 731.013C285.183 731.133 284.627 731.431 284.191 731.867C283.755 732.303 283.458 732.859 283.337 733.464C283.217 734.069 283.279 734.696 283.515 735.267C283.751 735.837 284.151 736.324 284.664 736.667C285.177 737.009 285.78 737.192 286.397 737.192C287.221 737.181 288.008 736.849 288.59 736.266C289.173 735.684 289.505 734.897 289.517 734.073Z" fill="#D8DCFA"/>
<path d="M322.991 734.075C322.993 733.455 322.811 732.848 322.468 732.332C322.125 731.815 321.636 731.412 321.064 731.174C320.491 730.936 319.861 730.873 319.253 730.993C318.645 731.114 318.086 731.412 317.647 731.85C317.209 732.289 316.911 732.848 316.79 733.456C316.67 734.064 316.733 734.694 316.971 735.267C317.209 735.839 317.612 736.328 318.128 736.671C318.645 737.014 319.252 737.196 319.872 737.194C320.696 737.183 321.483 736.851 322.065 736.268C322.648 735.686 322.98 734.899 322.991 734.075Z" fill="#D8DCFA"/>
<path d="M354.9 734.072C354.902 733.762 354.812 733.458 354.641 733.2C354.471 732.941 354.227 732.738 353.941 732.618C353.655 732.498 353.34 732.466 353.036 732.525C352.732 732.584 352.452 732.732 352.232 732.951C352.012 733.169 351.862 733.448 351.8 733.752C351.739 734.056 351.769 734.371 351.888 734.658C352.006 734.944 352.206 735.189 352.464 735.362C352.722 735.534 353.025 735.626 353.335 735.626C353.747 735.624 354.142 735.459 354.435 735.169C354.727 734.878 354.894 734.484 354.9 734.072Z" fill="#D8DCFA"/>
<path d="M388.373 734.072C388.375 733.762 388.285 733.458 388.114 733.2C387.943 732.941 387.7 732.738 387.414 732.618C387.128 732.498 386.813 732.466 386.509 732.525C386.204 732.584 385.924 732.732 385.704 732.951C385.484 733.169 385.334 733.448 385.273 733.752C385.212 734.056 385.242 734.371 385.36 734.658C385.478 734.944 385.679 735.189 385.937 735.362C386.194 735.534 386.497 735.626 386.807 735.626C387.219 735.621 387.612 735.456 387.904 735.166C388.196 734.876 388.364 734.484 388.373 734.072Z" fill="#D8DCFA"/>
<path d="M423.397 734.075C423.4 733.455 423.218 732.848 422.874 732.332C422.531 731.815 422.042 731.412 421.47 731.174C420.898 730.936 420.267 730.873 419.659 730.993C419.051 731.114 418.492 731.412 418.054 731.85C417.615 732.289 417.317 732.848 417.196 733.456C417.076 734.064 417.139 734.694 417.377 735.267C417.615 735.839 418.018 736.328 418.535 736.671C419.051 737.014 419.658 737.196 420.278 737.194C421.102 737.183 421.889 736.851 422.471 736.268C423.054 735.686 423.386 734.899 423.397 734.075Z" fill="#D8DCFA"/>
<path d="M456.874 734.075C456.876 733.455 456.694 732.849 456.352 732.333C456.009 731.816 455.521 731.414 454.949 731.175C454.377 730.936 453.748 730.873 453.14 730.992C452.532 731.112 451.973 731.409 451.534 731.847C451.095 732.284 450.796 732.842 450.674 733.449C450.553 734.057 450.614 734.687 450.851 735.259C451.087 735.832 451.488 736.322 452.003 736.666C452.518 737.01 453.124 737.194 453.744 737.194C454.569 737.186 455.359 736.855 455.944 736.272C456.529 735.689 456.863 734.9 456.874 734.075Z" fill="#D8DCFA"/>
<path d="M120.607 700.557C120.607 700.247 120.515 699.944 120.342 699.687C120.17 699.429 119.925 699.228 119.638 699.11C119.352 698.992 119.036 698.962 118.732 699.023C118.428 699.084 118.15 699.234 117.931 699.454C117.713 699.674 117.565 699.954 117.505 700.259C117.446 700.563 117.479 700.878 117.599 701.164C117.719 701.45 117.921 701.693 118.18 701.864C118.439 702.035 118.743 702.125 119.053 702.123C119.465 702.117 119.859 701.95 120.149 701.657C120.44 701.365 120.604 700.97 120.607 700.557Z" fill="#D8DCFA"/>
<path d="M154.08 700.557C154.08 700.248 153.988 699.945 153.816 699.688C153.644 699.43 153.399 699.23 153.113 699.111C152.827 698.993 152.513 698.962 152.209 699.022C151.905 699.083 151.627 699.232 151.408 699.451C151.189 699.669 151.04 699.948 150.979 700.252C150.919 700.556 150.95 700.87 151.068 701.156C151.187 701.442 151.387 701.687 151.645 701.859C151.902 702.031 152.205 702.123 152.514 702.123C152.928 702.117 153.323 701.95 153.615 701.658C153.907 701.366 154.074 700.971 154.08 700.557Z" fill="#D8DCFA"/>
<path d="M189.11 700.557C189.11 699.94 188.927 699.337 188.585 698.824C188.242 698.311 187.755 697.911 187.184 697.675C186.614 697.439 185.987 697.377 185.382 697.497C184.777 697.618 184.221 697.915 183.785 698.351C183.349 698.788 183.051 699.343 182.931 699.949C182.811 700.554 182.872 701.181 183.109 701.751C183.345 702.321 183.745 702.808 184.258 703.151C184.771 703.494 185.374 703.677 185.991 703.677C186.815 703.665 187.602 703.333 188.184 702.751C188.767 702.168 189.099 701.381 189.11 700.557Z" fill="#D8DCFA"/>
<path d="M222.581 700.555C222.583 699.935 222.401 699.328 222.058 698.812C221.715 698.296 221.226 697.893 220.654 697.654C220.081 697.416 219.451 697.353 218.843 697.474C218.234 697.594 217.676 697.892 217.237 698.331C216.799 698.769 216.5 699.328 216.38 699.936C216.259 700.545 216.322 701.175 216.561 701.747C216.799 702.32 217.202 702.809 217.718 703.152C218.235 703.495 218.841 703.677 219.461 703.675C220.285 703.664 221.072 703.331 221.655 702.749C222.238 702.166 222.57 701.379 222.581 700.555Z" fill="#D8DCFA"/>
<path d="M254.49 700.557C254.49 700.248 254.398 699.945 254.226 699.688C254.054 699.43 253.81 699.23 253.524 699.111C253.238 698.993 252.923 698.962 252.619 699.022C252.316 699.083 252.037 699.232 251.818 699.451C251.599 699.669 251.45 699.948 251.389 700.252C251.329 700.556 251.36 700.87 251.479 701.156C251.597 701.442 251.798 701.687 252.055 701.859C252.312 702.031 252.615 702.123 252.925 702.123C253.338 702.117 253.733 701.95 254.025 701.658C254.317 701.366 254.484 700.971 254.49 700.557Z" fill="#D8DCFA"/>
<path d="M287.962 700.557C287.962 700.248 287.871 699.945 287.699 699.688C287.527 699.43 287.282 699.23 286.996 699.111C286.71 698.993 286.395 698.962 286.092 699.022C285.788 699.083 285.509 699.232 285.29 699.451C285.072 699.669 284.923 699.948 284.862 700.252C284.802 700.556 284.833 700.87 284.951 701.156C285.07 701.442 285.27 701.687 285.528 701.859C285.785 702.031 286.088 702.123 286.397 702.123C286.81 702.114 287.203 701.947 287.495 701.655C287.787 701.363 287.954 700.97 287.962 700.557Z" fill="#D8DCFA"/>
<path d="M322.991 700.555C322.993 699.935 322.811 699.328 322.468 698.812C322.125 698.296 321.636 697.893 321.064 697.654C320.491 697.416 319.861 697.353 319.253 697.474C318.645 697.594 318.086 697.892 317.647 698.331C317.209 698.769 316.911 699.328 316.79 699.936C316.67 700.545 316.733 701.175 316.971 701.747C317.209 702.32 317.612 702.809 318.128 703.152C318.645 703.495 319.252 703.677 319.872 703.675C320.696 703.664 321.483 703.331 322.065 702.749C322.648 702.166 322.98 701.379 322.991 700.555Z" fill="#D8DCFA"/>
<path d="M356.464 700.555C356.466 699.936 356.284 699.329 355.942 698.813C355.599 698.297 355.111 697.894 354.539 697.655C353.967 697.417 353.337 697.353 352.729 697.473C352.121 697.592 351.563 697.89 351.124 698.327C350.685 698.764 350.386 699.322 350.264 699.93C350.142 700.537 350.204 701.167 350.44 701.74C350.677 702.312 351.078 702.802 351.593 703.146C352.108 703.491 352.714 703.675 353.333 703.675C354.159 703.666 354.949 703.335 355.534 702.752C356.119 702.17 356.453 701.381 356.464 700.555Z" fill="#D8DCFA"/>
<path d="M391.495 700.556C391.495 699.629 391.22 698.724 390.705 697.953C390.19 697.183 389.459 696.582 388.603 696.228C387.747 695.873 386.805 695.78 385.896 695.961C384.987 696.142 384.152 696.588 383.497 697.243C382.842 697.898 382.396 698.733 382.215 699.642C382.034 700.551 382.127 701.493 382.482 702.349C382.836 703.205 383.437 703.936 384.207 704.451C384.977 704.966 385.883 705.241 386.81 705.241C388.048 705.227 389.231 704.729 390.107 703.853C390.982 702.977 391.48 701.794 391.495 700.556Z" fill="#D8DCFA"/>
<path d="M426.523 700.554C426.525 699.317 426.16 698.107 425.475 697.077C424.789 696.048 423.813 695.245 422.67 694.771C421.528 694.296 420.27 694.172 419.057 694.413C417.843 694.653 416.729 695.249 415.854 696.124C414.979 696.998 414.384 698.113 414.143 699.326C413.902 700.54 414.027 701.797 414.501 702.94C414.976 704.082 415.778 705.058 416.808 705.744C417.837 706.43 419.047 706.795 420.284 706.793C421.934 706.776 423.511 706.113 424.677 704.947C425.844 703.78 426.506 702.203 426.523 700.554Z" fill="#D8DCFA"/>
<path d="M458.428 700.556C458.428 699.629 458.153 698.724 457.639 697.953C457.124 697.183 456.392 696.582 455.536 696.228C454.68 695.873 453.738 695.78 452.829 695.961C451.921 696.142 451.086 696.588 450.431 697.243C449.776 697.898 449.329 698.733 449.149 699.642C448.968 700.551 449.061 701.493 449.415 702.349C449.77 703.205 450.37 703.936 451.141 704.451C451.911 704.966 452.817 705.241 453.743 705.241C454.981 705.227 456.165 704.729 457.04 703.853C457.916 702.977 458.414 701.794 458.428 700.556Z" fill="#D8DCFA"/>
<path d="M154.08 667.093C154.08 666.783 153.988 666.48 153.816 666.223C153.644 665.966 153.399 665.765 153.113 665.646C152.827 665.528 152.513 665.497 152.209 665.557C151.905 665.618 151.627 665.767 151.408 665.986C151.189 666.205 151.04 666.484 150.979 666.787C150.919 667.091 150.95 667.405 151.068 667.691C151.187 667.977 151.387 668.222 151.645 668.394C151.902 668.566 152.205 668.658 152.514 668.658C152.929 668.655 153.325 668.489 153.618 668.196C153.911 667.903 154.077 667.507 154.08 667.093Z" fill="#D8DCFA"/>
<path d="M189.11 667.093C189.108 666.477 188.923 665.875 188.579 665.363C188.235 664.851 187.747 664.453 187.177 664.219C186.607 663.984 185.98 663.924 185.375 664.046C184.771 664.167 184.216 664.465 183.781 664.902C183.346 665.339 183.05 665.894 182.93 666.499C182.811 667.104 182.873 667.731 183.11 668.3C183.346 668.87 183.746 669.356 184.259 669.699C184.771 670.041 185.374 670.224 185.991 670.224C186.816 670.212 187.605 669.879 188.188 669.294C188.771 668.709 189.102 667.919 189.11 667.093Z" fill="#D8DCFA"/>
<path d="M224.135 667.095C224.135 666.168 223.86 665.262 223.345 664.491C222.83 663.72 222.097 663.12 221.241 662.766C220.384 662.411 219.442 662.319 218.532 662.501C217.623 662.683 216.789 663.13 216.134 663.786C215.479 664.442 215.034 665.278 214.854 666.188C214.675 667.097 214.769 668.039 215.125 668.895C215.482 669.751 216.084 670.482 216.856 670.995C217.627 671.509 218.534 671.782 219.461 671.78C220.697 671.763 221.878 671.264 222.751 670.388C223.625 669.513 224.121 668.331 224.135 667.095Z" fill="#D8DCFA"/>
<path d="M256.058 667.095C256.058 666.476 255.874 665.871 255.53 665.356C255.186 664.841 254.697 664.44 254.125 664.203C253.553 663.966 252.924 663.904 252.317 664.025C251.709 664.146 251.152 664.444 250.714 664.882C250.276 665.32 249.978 665.877 249.857 666.485C249.736 667.092 249.798 667.721 250.035 668.293C250.272 668.865 250.673 669.354 251.188 669.698C251.703 670.042 252.308 670.226 252.927 670.226C253.755 670.217 254.546 669.885 255.131 669.299C255.717 668.714 256.049 667.923 256.058 667.095Z" fill="#D8DCFA"/>
<path d="M287.962 667.093C287.962 666.783 287.871 666.48 287.699 666.223C287.527 665.966 287.282 665.765 286.996 665.646C286.71 665.528 286.395 665.497 286.092 665.557C285.788 665.618 285.509 665.767 285.29 665.986C285.072 666.205 284.923 666.484 284.862 666.787C284.802 667.091 284.833 667.405 284.951 667.691C285.07 667.977 285.27 668.222 285.528 668.394C285.785 668.566 286.088 668.658 286.397 668.658C286.811 668.652 287.205 668.485 287.498 668.193C287.79 667.901 287.957 667.506 287.962 667.093Z" fill="#D8DCFA"/>
<path d="M321.423 667.093C321.423 666.782 321.331 666.479 321.159 666.222C320.986 665.964 320.741 665.764 320.455 665.645C320.168 665.527 319.853 665.497 319.549 665.558C319.245 665.619 318.966 665.77 318.748 665.99C318.529 666.21 318.381 666.49 318.322 666.794C318.263 667.098 318.295 667.413 318.415 667.699C318.535 667.985 318.738 668.229 318.996 668.399C319.255 668.57 319.559 668.66 319.869 668.658C320.281 668.652 320.675 668.485 320.966 668.192C321.256 667.9 321.421 667.505 321.423 667.093Z" fill="#D8DCFA"/>
<path d="M356.464 667.095C356.464 666.476 356.28 665.871 355.936 665.356C355.592 664.841 355.103 664.44 354.531 664.203C353.959 663.966 353.33 663.904 352.723 664.025C352.116 664.146 351.558 664.444 351.12 664.882C350.682 665.32 350.384 665.877 350.263 666.485C350.142 667.092 350.204 667.721 350.441 668.293C350.678 668.865 351.08 669.354 351.594 669.698C352.109 670.042 352.714 670.226 353.334 670.226C354.161 670.217 354.952 669.885 355.538 669.299C356.123 668.714 356.455 667.923 356.464 667.095Z" fill="#D8DCFA"/>
<path d="M389.927 667.093C389.925 666.477 389.74 665.875 389.396 665.363C389.052 664.851 388.564 664.453 387.993 664.219C387.423 663.984 386.796 663.924 386.192 664.046C385.587 664.167 385.033 664.465 384.597 664.902C384.162 665.339 383.866 665.894 383.747 666.499C383.627 667.104 383.69 667.731 383.926 668.3C384.162 668.87 384.562 669.356 385.075 669.699C385.588 670.041 386.191 670.224 386.807 670.224C387.633 670.212 388.421 669.879 389.004 669.294C389.587 668.709 389.918 667.919 389.927 667.093Z" fill="#D8DCFA"/>
<path d="M423.397 667.095C423.397 666.476 423.214 665.87 422.869 665.355C422.525 664.84 422.035 664.439 421.463 664.202C420.89 663.965 420.26 663.904 419.652 664.026C419.045 664.147 418.487 664.447 418.05 664.886C417.612 665.324 417.315 665.883 417.196 666.491C417.076 667.099 417.14 667.729 417.378 668.301C417.617 668.872 418.02 669.361 418.536 669.703C419.052 670.046 419.658 670.228 420.278 670.226C421.104 670.214 421.892 669.881 422.475 669.296C423.058 668.711 423.389 667.921 423.397 667.095Z" fill="#D8DCFA"/>
<path d="M456.874 667.095C456.874 666.476 456.69 665.871 456.346 665.356C456.002 664.841 455.514 664.44 454.942 664.203C454.37 663.966 453.74 663.904 453.133 664.025C452.526 664.146 451.968 664.444 451.53 664.882C451.092 665.32 450.794 665.877 450.673 666.485C450.553 667.092 450.615 667.721 450.852 668.293C451.088 668.865 451.49 669.354 452.005 669.698C452.519 670.042 453.125 670.226 453.744 670.226C454.571 670.217 455.363 669.885 455.948 669.299C456.533 668.714 456.866 667.923 456.874 667.095Z" fill="#D8DCFA"/>
<path d="M221.013 633.631C221.015 633.32 220.925 633.016 220.754 632.757C220.583 632.498 220.338 632.296 220.052 632.176C219.766 632.056 219.45 632.024 219.145 632.084C218.841 632.144 218.561 632.294 218.341 632.513C218.122 632.733 217.972 633.013 217.912 633.317C217.852 633.622 217.884 633.937 218.004 634.224C218.124 634.51 218.326 634.755 218.585 634.926C218.844 635.097 219.148 635.187 219.459 635.185C219.87 635.182 220.264 635.018 220.555 634.727C220.846 634.436 221.01 634.042 221.013 633.631Z" fill="#D8DCFA"/>
<path d="M256.058 633.629C256.06 633.01 255.878 632.404 255.535 631.887C255.193 631.371 254.704 630.968 254.133 630.73C253.561 630.491 252.931 630.428 252.323 630.547C251.715 630.667 251.156 630.964 250.718 631.401C250.279 631.839 249.979 632.396 249.858 633.004C249.736 633.611 249.798 634.241 250.034 634.814C250.271 635.387 250.672 635.876 251.187 636.221C251.702 636.565 252.308 636.749 252.927 636.749C253.753 636.741 254.543 636.41 255.128 635.827C255.713 635.244 256.046 634.455 256.058 633.629Z" fill="#D8DCFA"/>
<path d="M289.517 633.631C289.517 633.014 289.334 632.411 288.991 631.898C288.648 631.385 288.161 630.985 287.591 630.749C287.021 630.513 286.393 630.451 285.788 630.572C285.183 630.692 284.627 630.989 284.191 631.425C283.755 631.862 283.458 632.418 283.337 633.023C283.217 633.628 283.279 634.255 283.515 634.825C283.751 635.395 284.151 635.882 284.664 636.225C285.177 636.568 285.78 636.751 286.397 636.751C287.221 636.74 288.008 636.407 288.59 635.825C289.173 635.242 289.505 634.455 289.517 633.631Z" fill="#D8DCFA"/>
<path d="M321.423 633.631C321.425 633.32 321.335 633.016 321.164 632.757C320.993 632.498 320.749 632.296 320.462 632.176C320.176 632.056 319.86 632.024 319.555 632.084C319.251 632.144 318.971 632.294 318.751 632.513C318.532 632.733 318.383 633.013 318.323 633.317C318.262 633.622 318.294 633.937 318.414 634.224C318.534 634.51 318.736 634.755 318.995 634.926C319.254 635.097 319.558 635.187 319.869 635.185C320.28 635.182 320.674 635.018 320.965 634.727C321.256 634.436 321.42 634.042 321.423 633.631Z" fill="#D8DCFA"/>
<path d="M354.9 633.631C354.902 633.321 354.812 633.017 354.641 632.758C354.471 632.499 354.227 632.297 353.941 632.177C353.655 632.057 353.34 632.024 353.036 632.083C352.732 632.143 352.452 632.291 352.232 632.509C352.012 632.728 351.862 633.007 351.8 633.311C351.739 633.614 351.769 633.93 351.888 634.216C352.006 634.503 352.206 634.748 352.464 634.921C352.722 635.093 353.025 635.185 353.335 635.185C353.747 635.182 354.142 635.018 354.435 634.727C354.727 634.437 354.894 634.043 354.9 633.631Z" fill="#D8DCFA"/>
<path d="M389.927 633.631C389.927 633.014 389.744 632.411 389.401 631.898C389.058 631.385 388.571 630.985 388.001 630.749C387.431 630.513 386.804 630.451 386.198 630.572C385.593 630.692 385.038 630.989 384.601 631.425C384.165 631.862 383.868 632.418 383.747 633.023C383.627 633.628 383.689 634.255 383.925 634.825C384.161 635.395 384.561 635.882 385.074 636.225C385.587 636.568 386.19 636.751 386.807 636.751C387.631 636.74 388.418 636.407 389.001 635.825C389.583 635.242 389.916 634.455 389.927 633.631Z" fill="#D8DCFA"/>
<path d="M423.397 633.629C423.4 633.009 423.218 632.403 422.874 631.886C422.531 631.37 422.042 630.967 421.47 630.729C420.898 630.49 420.267 630.427 419.659 630.548C419.051 630.668 418.492 630.967 418.054 631.405C417.615 631.844 417.317 632.402 417.196 633.011C417.076 633.619 417.139 634.249 417.377 634.822C417.615 635.394 418.018 635.883 418.535 636.226C419.051 636.569 419.658 636.751 420.278 636.749C421.102 636.738 421.889 636.406 422.471 635.823C423.054 635.24 423.386 634.453 423.397 633.629Z" fill="#D8DCFA"/>
<path d="M456.874 633.629C456.876 633.01 456.694 632.404 456.352 631.887C456.009 631.371 455.521 630.968 454.949 630.73C454.377 630.491 453.748 630.428 453.14 630.547C452.532 630.667 451.973 630.964 451.534 631.401C451.095 631.839 450.796 632.396 450.674 633.004C450.553 633.611 450.614 634.241 450.851 634.814C451.087 635.387 451.488 635.876 452.003 636.221C452.518 636.565 453.124 636.749 453.744 636.749C454.569 636.741 455.359 636.41 455.944 635.827C456.529 635.244 456.863 634.455 456.874 633.629Z" fill="#D8DCFA"/>
<path d="M423.397 600.168C423.4 599.548 423.218 598.942 422.874 598.425C422.531 597.909 422.042 597.506 421.47 597.268C420.898 597.029 420.267 596.967 419.659 597.087C419.051 597.207 418.492 597.506 418.054 597.944C417.615 598.383 417.317 598.941 417.196 599.55C417.076 600.158 417.139 600.788 417.377 601.361C417.615 601.933 418.018 602.422 418.535 602.765C419.051 603.108 419.658 603.29 420.278 603.288C421.102 603.277 421.889 602.945 422.471 602.362C423.054 601.779 423.386 600.992 423.397 600.168Z" fill="#D8DCFA"/>
<path d="M456.874 600.168C456.876 599.549 456.694 598.943 456.352 598.426C456.009 597.91 455.521 597.507 454.949 597.269C454.377 597.03 453.748 596.967 453.14 597.086C452.532 597.206 451.973 597.503 451.534 597.94C451.095 598.378 450.796 598.935 450.674 599.543C450.553 600.151 450.614 600.781 450.851 601.353C451.087 601.926 451.488 602.415 452.003 602.76C452.518 603.104 453.124 603.288 453.744 603.288C454.569 603.28 455.359 602.949 455.944 602.366C456.529 601.783 456.863 600.994 456.874 600.168Z" fill="#D8DCFA"/>
<path d="M458.428 566.704C458.428 565.778 458.153 564.872 457.639 564.102C457.124 563.331 456.392 562.731 455.536 562.376C454.68 562.022 453.738 561.929 452.829 562.11C451.921 562.29 451.086 562.736 450.431 563.392C449.776 564.047 449.329 564.882 449.149 565.79C448.968 566.699 449.061 567.641 449.415 568.497C449.77 569.353 450.37 570.085 451.141 570.6C451.911 571.114 452.817 571.389 453.743 571.389C454.981 571.375 456.165 570.877 457.04 570.001C457.916 569.126 458.414 567.942 458.428 566.704Z" fill="#D8DCFA"/>
<path d="M354.9 533.24C354.902 532.93 354.812 532.626 354.641 532.368C354.471 532.109 354.227 531.906 353.941 531.786C353.655 531.666 353.34 531.634 353.036 531.693C352.732 531.752 352.452 531.9 352.232 532.119C352.012 532.337 351.862 532.616 351.8 532.92C351.739 533.224 351.769 533.539 351.888 533.826C352.006 534.112 352.206 534.357 352.464 534.53C352.722 534.702 353.025 534.794 353.335 534.794C353.747 534.792 354.142 534.627 354.435 534.337C354.727 534.046 354.894 533.652 354.9 533.24Z" fill="#D8DCFA"/>
<path d="M388.373 533.24C388.375 532.93 388.285 532.626 388.114 532.368C387.943 532.109 387.7 531.906 387.414 531.786C387.128 531.666 386.813 531.634 386.509 531.693C386.204 531.752 385.924 531.9 385.704 532.119C385.484 532.337 385.334 532.616 385.273 532.92C385.212 533.224 385.242 533.539 385.36 533.826C385.478 534.112 385.679 534.357 385.937 534.53C386.194 534.702 386.497 534.794 386.807 534.794C387.219 534.789 387.612 534.624 387.904 534.334C388.196 534.044 388.364 533.652 388.373 533.24Z" fill="#D8DCFA"/>
<path d="M423.397 533.243C423.397 532.622 423.213 532.015 422.867 531.5C422.521 530.984 422.029 530.583 421.455 530.347C420.88 530.112 420.249 530.052 419.64 530.177C419.032 530.301 418.474 530.603 418.038 531.046C417.602 531.488 417.308 532.05 417.192 532.66C417.076 533.27 417.144 533.9 417.388 534.472C417.631 535.043 418.039 535.529 418.56 535.867C419.08 536.206 419.689 536.382 420.31 536.374C421.13 536.354 421.911 536.017 422.487 535.433C423.063 534.849 423.389 534.064 423.397 533.243Z" fill="#D8DCFA"/>
<path d="M458.428 533.243C458.428 532.317 458.153 531.411 457.639 530.641C457.124 529.87 456.392 529.27 455.536 528.915C454.68 528.561 453.738 528.468 452.829 528.649C451.921 528.829 451.086 529.276 450.431 529.931C449.776 530.586 449.329 531.421 449.149 532.329C448.968 533.238 449.061 534.18 449.415 535.036C449.77 535.892 450.37 536.624 451.141 537.139C451.911 537.653 452.817 537.928 453.743 537.928C454.981 537.914 456.165 537.416 457.04 536.54C457.916 535.665 458.414 534.481 458.428 533.243Z" fill="#D8DCFA"/>
<path d="M388.373 968.354C388.373 968.045 388.281 967.742 388.109 967.485C387.937 967.227 387.692 967.027 387.406 966.908C387.12 966.79 386.806 966.759 386.502 966.819C386.198 966.88 385.92 967.029 385.701 967.248C385.482 967.466 385.333 967.745 385.272 968.049C385.212 968.353 385.243 968.667 385.361 968.953C385.48 969.239 385.68 969.484 385.938 969.656C386.195 969.828 386.498 969.919 386.807 969.919C387.22 969.911 387.613 969.744 387.905 969.452C388.197 969.16 388.364 968.767 388.373 968.354Z" fill="#D8DCFA"/>
<path d="M423.397 968.354C423.395 967.733 423.209 967.127 422.861 966.613C422.514 966.099 422.022 965.699 421.447 965.465C420.873 965.231 420.241 965.174 419.634 965.299C419.026 965.425 418.469 965.728 418.034 966.17C417.6 966.613 417.306 967.175 417.191 967.785C417.076 968.394 417.145 969.025 417.389 969.595C417.633 970.166 418.04 970.651 418.561 970.989C419.081 971.327 419.69 971.503 420.31 971.495C421.133 971.478 421.917 971.14 422.494 970.553C423.07 969.966 423.395 969.177 423.397 968.354Z" fill="#D8DCFA"/>
<path d="M458.428 968.353C458.428 967.426 458.153 966.52 457.639 965.75C457.124 964.98 456.392 964.379 455.536 964.025C454.68 963.67 453.738 963.577 452.829 963.758C451.921 963.939 451.086 964.385 450.431 965.04C449.776 965.695 449.329 966.53 449.149 967.439C448.968 968.348 449.061 969.29 449.415 970.146C449.77 971.002 450.37 971.733 451.141 972.248C451.911 972.763 452.817 973.038 453.743 973.038C454.981 973.023 456.165 972.525 457.04 971.65C457.916 970.774 458.414 969.591 458.428 968.353Z" fill="#D8DCFA"/>
<path d="M421.837 934.878C421.837 934.568 421.745 934.265 421.573 934.007C421.4 933.749 421.155 933.549 420.869 933.431C420.582 933.312 420.267 933.282 419.963 933.343C419.659 933.405 419.38 933.555 419.162 933.775C418.943 933.995 418.795 934.275 418.736 934.579C418.677 934.883 418.709 935.198 418.829 935.484C418.949 935.77 419.152 936.014 419.411 936.184C419.669 936.355 419.973 936.445 420.283 936.443C420.695 936.437 421.089 936.27 421.38 935.978C421.67 935.685 421.835 935.29 421.837 934.878Z" fill="#D8DCFA"/>
<path d="M456.874 934.878C456.87 934.259 456.682 933.654 456.334 933.142C455.986 932.629 455.493 932.231 454.919 931.999C454.345 931.766 453.714 931.709 453.108 931.835C452.501 931.961 451.945 932.264 451.511 932.706C451.077 933.147 450.783 933.708 450.668 934.317C450.553 934.926 450.621 935.555 450.863 936.125C451.106 936.695 451.512 937.181 452.03 937.52C452.549 937.859 453.156 938.037 453.776 938.03C454.602 938.013 455.388 937.674 455.967 937.085C456.546 936.496 456.871 935.704 456.874 934.878Z" fill="#D8DCFA"/>
<path d="M455.306 901.42C455.308 901.11 455.218 900.806 455.048 900.547C454.877 900.288 454.633 900.086 454.347 899.966C454.062 899.846 453.747 899.813 453.442 899.873C453.138 899.932 452.858 900.08 452.638 900.298C452.418 900.517 452.268 900.796 452.207 901.1C452.145 901.404 452.176 901.719 452.294 902.005C452.412 902.292 452.613 902.537 452.87 902.71C453.128 902.882 453.431 902.974 453.741 902.974C454.153 902.971 454.548 902.807 454.841 902.516C455.133 902.226 455.3 901.832 455.306 901.42Z" fill="#D8DCFA"/>
<path d="M84.0117 801.007C84.0117 801.316 84.1035 801.619 84.2755 801.876C84.4475 802.134 84.6919 802.334 84.9779 802.453C85.2639 802.571 85.5786 802.602 85.8823 802.542C86.1859 802.481 86.4648 802.332 86.6837 802.113C86.9026 801.894 87.0516 801.616 87.112 801.312C87.1724 801.008 87.1414 800.694 87.0229 800.408C86.9045 800.122 86.7039 799.877 86.4465 799.705C86.1891 799.533 85.8865 799.441 85.5769 799.441C85.1644 799.45 84.7711 799.617 84.4793 799.909C84.1876 800.201 84.02 800.594 84.0117 801.007Z" fill="#D8DCFA"/>
<path d="M115.91 801.01C115.908 801.63 116.09 802.236 116.432 802.752C116.775 803.269 117.263 803.671 117.835 803.91C118.407 804.149 119.037 804.212 119.645 804.093C120.253 803.973 120.811 803.676 121.25 803.238C121.689 802.801 121.988 802.243 122.11 801.636C122.232 801.028 122.17 800.398 121.934 799.826C121.697 799.253 121.296 798.763 120.781 798.419C120.266 798.074 119.66 797.891 119.041 797.891C118.215 797.899 117.425 798.23 116.84 798.813C116.255 799.396 115.921 800.184 115.91 801.01Z" fill="#D8DCFA"/>
<path d="M157.202 801.009C157.202 800.082 156.927 799.177 156.412 798.406C155.897 797.636 155.166 797.035 154.31 796.681C153.454 796.326 152.512 796.233 151.603 796.414C150.694 796.595 149.859 797.041 149.204 797.696C148.549 798.352 148.103 799.186 147.922 800.095C147.741 801.004 147.834 801.946 148.189 802.802C148.543 803.658 149.144 804.389 149.914 804.904C150.684 805.419 151.59 805.694 152.517 805.694C153.755 805.68 154.938 805.182 155.814 804.306C156.689 803.431 157.188 802.247 157.202 801.009Z" fill="#D8DCFA"/>
<path d="M190.67 801.009C190.67 800.082 190.396 799.177 189.881 798.406C189.366 797.636 188.634 797.035 187.778 796.681C186.922 796.326 185.98 796.233 185.072 796.414C184.163 796.595 183.328 797.041 182.673 797.696C182.018 798.352 181.572 799.186 181.391 800.095C181.21 801.004 181.303 801.946 181.657 802.802C182.012 803.658 182.612 804.389 183.383 804.904C184.153 805.419 185.059 805.694 185.986 805.694C187.224 805.68 188.407 805.182 189.283 804.306C190.158 803.431 190.656 802.247 190.67 801.009Z" fill="#D8DCFA"/>
<path d="M222.581 801.008C222.583 800.388 222.401 799.782 222.058 799.265C221.715 798.749 221.226 798.346 220.654 798.108C220.081 797.869 219.451 797.806 218.843 797.927C218.234 798.047 217.676 798.346 217.237 798.784C216.799 799.222 216.5 799.781 216.38 800.389C216.259 800.998 216.322 801.628 216.561 802.2C216.799 802.773 217.202 803.262 217.718 803.605C218.235 803.948 218.841 804.13 219.461 804.128C220.285 804.117 221.072 803.784 221.655 803.202C222.238 802.619 222.57 801.832 222.581 801.008Z" fill="#D8DCFA"/>
<path d="M254.49 801.01C254.492 800.7 254.402 800.396 254.231 800.137C254.061 799.878 253.817 799.676 253.531 799.556C253.245 799.436 252.93 799.403 252.626 799.462C252.322 799.522 252.042 799.67 251.822 799.888C251.602 800.107 251.452 800.386 251.39 800.689C251.329 800.993 251.359 801.309 251.477 801.595C251.596 801.882 251.796 802.127 252.054 802.299C252.311 802.472 252.614 802.564 252.925 802.564C253.337 802.561 253.732 802.397 254.024 802.106C254.317 801.816 254.484 801.422 254.49 801.01Z" fill="#D8DCFA"/>
<path d="M287.962 801.01C287.965 800.7 287.875 800.396 287.704 800.137C287.533 799.878 287.289 799.676 287.004 799.556C286.718 799.436 286.403 799.403 286.099 799.462C285.794 799.522 285.514 799.67 285.294 799.888C285.074 800.107 284.924 800.386 284.863 800.689C284.802 800.993 284.832 801.309 284.95 801.595C285.068 801.882 285.269 802.127 285.527 802.299C285.784 802.472 286.087 802.564 286.397 802.564C286.809 802.558 287.202 802.393 287.494 802.103C287.786 801.813 287.954 801.421 287.962 801.01Z" fill="#D8DCFA"/>
<path d="M322.991 801.012C322.982 800.392 322.79 799.789 322.438 799.279C322.086 798.768 321.59 798.374 321.013 798.146C320.437 797.917 319.806 797.865 319.2 797.996C318.594 798.127 318.04 798.435 317.609 798.881C317.179 799.327 316.89 799.891 316.78 800.501C316.67 801.111 316.744 801.74 316.992 802.309C317.24 802.877 317.651 803.359 318.173 803.693C318.696 804.027 319.305 804.199 319.925 804.186C320.749 804.161 321.53 803.815 322.103 803.222C322.676 802.629 322.994 801.836 322.991 801.012Z" fill="#D8DCFA"/>
<path d="M356.464 801.009C356.455 800.389 356.263 799.786 355.911 799.276C355.56 798.766 355.065 798.371 354.489 798.143C353.913 797.914 353.282 797.862 352.676 797.992C352.071 798.122 351.517 798.429 351.086 798.873C350.655 799.318 350.365 799.881 350.254 800.491C350.143 801.1 350.215 801.729 350.461 802.297C350.708 802.866 351.117 803.348 351.638 803.684C352.159 804.019 352.768 804.193 353.387 804.182C354.213 804.16 354.997 803.815 355.572 803.222C356.147 802.629 356.467 801.835 356.464 801.009Z" fill="#D8DCFA"/>
<path d="M389.926 801.007C389.915 800.39 389.722 799.791 389.371 799.284C389.02 798.777 388.527 798.386 387.953 798.16C387.38 797.933 386.752 797.882 386.15 798.011C385.547 798.141 384.996 798.447 384.567 798.89C384.138 799.332 383.85 799.892 383.739 800.499C383.627 801.105 383.698 801.731 383.943 802.297C384.187 802.863 384.593 803.344 385.111 803.679C385.628 804.014 386.233 804.189 386.85 804.18C387.675 804.158 388.459 803.813 389.034 803.22C389.609 802.627 389.929 801.833 389.926 801.007Z" fill="#D8DCFA"/>
<path d="M421.837 801.009C421.839 800.697 421.748 800.392 421.576 800.132C421.403 799.872 421.157 799.67 420.868 799.552C420.58 799.433 420.263 799.403 419.957 799.466C419.652 799.528 419.372 799.681 419.154 799.904C418.936 800.127 418.789 800.409 418.733 800.716C418.676 801.023 418.713 801.339 418.838 801.625C418.963 801.911 419.17 802.153 419.433 802.32C419.696 802.487 420.004 802.572 420.315 802.563C420.721 802.552 421.107 802.384 421.391 802.094C421.675 801.804 421.835 801.415 421.837 801.009Z" fill="#D8DCFA"/>
<path d="M455.306 801.009C455.308 800.698 455.217 800.393 455.045 800.133C454.873 799.874 454.627 799.672 454.34 799.553C454.052 799.433 453.735 799.403 453.43 799.465C453.125 799.527 452.845 799.678 452.627 799.9C452.408 800.122 452.26 800.403 452.203 800.709C452.145 801.015 452.18 801.332 452.303 801.618C452.426 801.904 452.632 802.146 452.894 802.315C453.156 802.483 453.462 802.57 453.773 802.564C454.18 802.553 454.567 802.385 454.852 802.095C455.138 801.805 455.301 801.416 455.306 801.009Z" fill="#D8DCFA"/>
<path d="M87.1421 767.538C87.1421 767.228 87.0503 766.926 86.8783 766.668C86.7063 766.411 86.4619 766.21 86.1759 766.092C85.8899 765.973 85.5752 765.942 85.2716 766.003C84.9679 766.063 84.689 766.212 84.4702 766.431C84.2513 766.65 84.1022 766.929 84.0418 767.232C83.9814 767.536 84.0124 767.851 84.1309 768.137C84.2493 768.423 84.4499 768.667 84.7073 768.839C84.9647 769.011 85.2673 769.103 85.5769 769.103C85.9894 769.095 86.3827 768.927 86.6745 768.635C86.9663 768.344 87.1338 767.95 87.1421 767.538Z" fill="#D8DCFA"/>
<path d="M117.488 767.535C117.486 767.845 117.576 768.149 117.747 768.407C117.918 768.666 118.161 768.868 118.447 768.989C118.733 769.109 119.048 769.141 119.352 769.082C119.657 769.023 119.936 768.875 120.156 768.656C120.376 768.438 120.527 768.159 120.588 767.855C120.649 767.551 120.619 767.236 120.501 766.949C120.382 766.663 120.182 766.418 119.924 766.245C119.667 766.073 119.364 765.98 119.054 765.98C118.641 765.983 118.246 766.148 117.954 766.438C117.661 766.729 117.494 767.123 117.488 767.535Z" fill="#D8DCFA"/>
<path d="M150.961 767.535C150.959 767.845 151.049 768.149 151.22 768.409C151.391 768.668 151.636 768.87 151.922 768.99C152.209 769.109 152.524 769.141 152.829 769.081C153.133 769.021 153.413 768.872 153.633 768.652C153.852 768.433 154.002 768.153 154.062 767.848C154.122 767.544 154.09 767.228 153.97 766.942C153.85 766.655 153.648 766.411 153.389 766.24C153.13 766.069 152.826 765.978 152.515 765.981C152.104 765.983 151.71 766.148 151.419 766.439C151.128 766.73 150.964 767.124 150.961 767.535Z" fill="#D8DCFA"/>
<path d="M189.11 767.534C189.11 766.917 188.927 766.314 188.585 765.801C188.242 765.287 187.755 764.888 187.184 764.652C186.614 764.415 185.987 764.354 185.382 764.474C184.777 764.594 184.221 764.892 183.785 765.328C183.349 765.764 183.051 766.32 182.931 766.925C182.811 767.53 182.872 768.157 183.109 768.727C183.345 769.297 183.745 769.785 184.258 770.127C184.771 770.47 185.374 770.653 185.991 770.653C186.815 770.645 187.604 770.313 188.187 769.73C188.77 769.147 189.102 768.358 189.11 767.534Z" fill="#D8DCFA"/>
<path d="M221.013 767.538C221.013 767.228 220.921 766.925 220.749 766.667C220.576 766.409 220.331 766.209 220.044 766.091C219.758 765.973 219.443 765.942 219.139 766.004C218.835 766.065 218.556 766.215 218.337 766.435C218.119 766.655 217.971 766.935 217.912 767.239C217.852 767.543 217.885 767.858 218.005 768.144C218.125 768.43 218.327 768.674 218.586 768.844C218.845 769.015 219.149 769.105 219.459 769.103C219.871 769.097 220.265 768.93 220.555 768.638C220.846 768.345 221.01 767.95 221.013 767.538Z" fill="#D8DCFA"/>
<path d="M256.058 767.536C256.06 766.916 255.878 766.31 255.535 765.794C255.193 765.277 254.704 764.875 254.133 764.636C253.561 764.397 252.931 764.334 252.323 764.453C251.715 764.573 251.156 764.87 250.718 765.308C250.279 765.745 249.979 766.303 249.858 766.91C249.736 767.518 249.798 768.148 250.034 768.72C250.271 769.293 250.672 769.782 251.187 770.127C251.702 770.471 252.308 770.655 252.927 770.655C253.753 770.647 254.543 770.316 255.128 769.733C255.713 769.15 256.046 768.361 256.058 767.536Z" fill="#D8DCFA"/>
<path d="M289.517 767.534C289.517 766.917 289.334 766.314 288.991 765.801C288.648 765.287 288.161 764.888 287.591 764.652C287.021 764.415 286.393 764.354 285.788 764.474C285.183 764.594 284.627 764.892 284.191 765.328C283.755 765.764 283.458 766.32 283.337 766.925C283.217 767.53 283.279 768.157 283.515 768.727C283.751 769.297 284.151 769.785 284.664 770.127C285.177 770.47 285.78 770.653 286.397 770.653C287.222 770.645 288.01 770.313 288.593 769.73C289.177 769.147 289.508 768.358 289.517 767.534Z" fill="#D8DCFA"/>
<path d="M322.991 767.536C322.993 766.916 322.811 766.309 322.468 765.793C322.125 765.276 321.636 764.873 321.064 764.635C320.491 764.397 319.861 764.334 319.253 764.454C318.645 764.575 318.086 764.873 317.647 765.311C317.209 765.75 316.911 766.309 316.79 766.917C316.67 767.525 316.733 768.155 316.971 768.728C317.209 769.3 317.612 769.789 318.128 770.132C318.645 770.475 319.252 770.657 319.872 770.655C320.696 770.647 321.485 770.315 322.068 769.732C322.651 769.149 322.983 768.36 322.991 767.536Z" fill="#D8DCFA"/>
<path d="M356.464 767.536C356.466 766.916 356.284 766.31 355.942 765.794C355.599 765.277 355.111 764.875 354.539 764.636C353.967 764.397 353.337 764.334 352.729 764.453C352.121 764.573 351.563 764.87 351.124 765.308C350.685 765.745 350.386 766.303 350.264 766.91C350.142 767.518 350.204 768.148 350.44 768.72C350.677 769.293 351.078 769.782 351.593 770.127C352.108 770.471 352.714 770.655 353.333 770.655C354.159 770.647 354.949 770.316 355.534 769.733C356.119 769.15 356.453 768.361 356.464 767.536Z" fill="#D8DCFA"/>
<path d="M388.373 767.537C388.372 767.226 388.279 766.922 388.105 766.663C387.931 766.405 387.684 766.205 387.396 766.088C387.107 765.97 386.791 765.942 386.486 766.006C386.181 766.07 385.902 766.223 385.685 766.447C385.468 766.67 385.323 766.953 385.267 767.259C385.212 767.566 385.249 767.882 385.374 768.167C385.499 768.452 385.706 768.693 385.97 768.86C386.233 769.027 386.539 769.111 386.851 769.102C387.255 769.083 387.638 768.911 387.921 768.62C388.203 768.33 388.365 767.943 388.373 767.537Z" fill="#D8DCFA"/>
<path d="M421.837 767.537C421.837 767.226 421.744 766.922 421.57 766.663C421.396 766.405 421.149 766.205 420.861 766.088C420.572 765.97 420.255 765.942 419.951 766.006C419.646 766.07 419.367 766.223 419.15 766.447C418.933 766.67 418.787 766.953 418.732 767.259C418.677 767.566 418.714 767.882 418.839 768.167C418.964 768.452 419.171 768.693 419.434 768.86C419.697 769.027 420.004 769.111 420.315 769.102C420.722 769.089 421.108 768.918 421.391 768.626C421.675 768.334 421.835 767.944 421.837 767.537Z" fill="#D8DCFA"/>
<path d="M456.874 767.536C456.876 766.916 456.694 766.31 456.352 765.794C456.009 765.277 455.521 764.875 454.949 764.636C454.377 764.397 453.748 764.334 453.14 764.453C452.532 764.573 451.973 764.87 451.534 765.308C451.095 765.745 450.796 766.303 450.674 766.91C450.553 767.518 450.614 768.148 450.851 768.72C451.087 769.293 451.488 769.782 452.003 770.127C452.518 770.471 453.124 770.655 453.744 770.655C454.569 770.647 455.359 770.316 455.944 769.733C456.529 769.15 456.863 768.361 456.874 767.536Z" fill="#D8DCFA"/>
<path d="M321.423 499.78C321.423 499.47 321.331 499.167 321.159 498.909C320.986 498.652 320.741 498.451 320.455 498.333C320.168 498.215 319.853 498.184 319.549 498.246C319.245 498.307 318.966 498.457 318.748 498.677C318.529 498.897 318.381 499.177 318.322 499.481C318.263 499.786 318.295 500.101 318.415 500.386C318.535 500.672 318.738 500.916 318.996 501.087C319.255 501.257 319.559 501.347 319.869 501.345C320.281 501.34 320.675 501.172 320.966 500.88C321.256 500.587 321.421 500.192 321.423 499.78Z" fill="#D8DCFA"/>
<path d="M354.9 499.78C354.9 499.47 354.808 499.168 354.636 498.91C354.464 498.653 354.22 498.452 353.934 498.334C353.648 498.216 353.333 498.185 353.029 498.245C352.726 498.305 352.447 498.454 352.228 498.673C352.009 498.892 351.86 499.171 351.8 499.475C351.739 499.778 351.77 500.093 351.889 500.379C352.007 500.665 352.208 500.909 352.465 501.081C352.723 501.253 353.025 501.345 353.335 501.345C353.748 501.34 354.143 501.173 354.435 500.881C354.728 500.588 354.894 500.193 354.9 499.78Z" fill="#D8DCFA"/>
<path d="M389.927 499.78C389.927 499.163 389.744 498.56 389.401 498.047C389.058 497.534 388.571 497.134 388.001 496.898C387.431 496.662 386.804 496.6 386.198 496.72C385.593 496.84 385.038 497.138 384.601 497.574C384.165 498.01 383.868 498.566 383.747 499.171C383.627 499.776 383.689 500.404 383.925 500.974C384.161 501.544 384.561 502.031 385.074 502.374C385.587 502.716 386.19 502.899 386.807 502.899C387.632 502.891 388.42 502.56 389.004 501.976C389.587 501.393 389.918 500.604 389.927 499.78Z" fill="#D8DCFA"/>
<path d="M423.397 499.782C423.4 499.162 423.218 498.555 422.874 498.039C422.531 497.522 422.042 497.119 421.47 496.881C420.898 496.643 420.267 496.58 419.659 496.7C419.051 496.821 418.492 497.119 418.054 497.557C417.615 497.996 417.317 498.555 417.196 499.163C417.076 499.771 417.139 500.401 417.377 500.974C417.615 501.546 418.018 502.035 418.535 502.378C419.051 502.721 419.658 502.903 420.278 502.901C421.103 502.893 421.891 502.562 422.474 501.978C423.058 501.395 423.389 500.607 423.397 499.782Z" fill="#D8DCFA"/>
<path d="M458.428 499.782C458.428 498.856 458.153 497.95 457.639 497.18C457.124 496.409 456.392 495.809 455.536 495.454C454.68 495.1 453.738 495.007 452.829 495.188C451.921 495.368 451.086 495.815 450.431 496.47C449.776 497.125 449.329 497.96 449.149 498.868C448.968 499.777 449.061 500.719 449.415 501.575C449.77 502.431 450.37 503.163 451.141 503.678C451.911 504.192 452.817 504.467 453.743 504.467C454.981 504.453 456.165 503.955 457.04 503.08C457.916 502.204 458.414 501.021 458.428 499.782Z" fill="#D8DCFA"/>
<path d="M389.927 466.32C389.925 465.703 389.74 465.101 389.396 464.59C389.052 464.078 388.564 463.68 387.993 463.445C387.423 463.211 386.796 463.151 386.192 463.272C385.587 463.394 385.033 463.692 384.597 464.128C384.162 464.565 383.866 465.121 383.747 465.726C383.627 466.331 383.69 466.957 383.926 467.527C384.162 468.096 384.562 468.583 385.075 468.925C385.588 469.267 386.191 469.45 386.807 469.45C387.633 469.439 388.421 469.105 389.004 468.52C389.587 467.935 389.918 467.145 389.927 466.32Z" fill="#D8DCFA"/>
<path d="M424.955 466.318C424.955 465.391 424.68 464.484 424.165 463.714C423.65 462.943 422.918 462.343 422.061 461.988C421.204 461.634 420.262 461.542 419.353 461.724C418.444 461.905 417.609 462.353 416.954 463.009C416.299 463.665 415.854 464.501 415.675 465.41C415.495 466.32 415.589 467.262 415.946 468.118C416.302 468.974 416.904 469.705 417.676 470.218C418.448 470.732 419.354 471.004 420.281 471.002C421.518 470.986 422.698 470.486 423.572 469.611C424.445 468.736 424.941 467.554 424.955 466.318Z" fill="#D8DCFA"/>
<path d="M456.874 466.318C456.874 465.699 456.69 465.094 456.346 464.579C456.002 464.064 455.514 463.663 454.942 463.426C454.37 463.189 453.74 463.127 453.133 463.248C452.526 463.368 451.968 463.667 451.53 464.104C451.092 464.542 450.794 465.1 450.673 465.707C450.553 466.314 450.615 466.944 450.852 467.516C451.088 468.088 451.49 468.577 452.005 468.921C452.519 469.265 453.125 469.448 453.744 469.448C454.571 469.44 455.363 469.107 455.948 468.522C456.533 467.937 456.866 467.145 456.874 466.318Z" fill="#D8DCFA"/>
<path d="M287.962 432.853C287.965 432.543 287.875 432.24 287.704 431.981C287.533 431.722 287.289 431.52 287.004 431.4C286.718 431.279 286.403 431.247 286.099 431.306C285.794 431.365 285.514 431.513 285.294 431.732C285.074 431.95 284.924 432.229 284.863 432.533C284.802 432.837 284.832 433.152 284.95 433.439C285.068 433.726 285.269 433.971 285.527 434.143C285.784 434.316 286.087 434.408 286.397 434.408C286.809 434.402 287.202 434.237 287.494 433.947C287.786 433.657 287.954 433.265 287.962 432.853Z" fill="#D8DCFA"/>
<path d="M322.991 432.856C322.993 432.236 322.811 431.629 322.468 431.113C322.125 430.596 321.636 430.193 321.064 429.955C320.491 429.717 319.861 429.654 319.253 429.774C318.645 429.895 318.086 430.193 317.647 430.632C317.209 431.07 316.911 431.629 316.79 432.237C316.67 432.845 316.733 433.476 316.971 434.048C317.209 434.621 317.612 435.109 318.128 435.452C318.645 435.796 319.252 435.978 319.872 435.976C320.696 435.964 321.483 435.632 322.065 435.05C322.648 434.467 322.98 433.68 322.991 432.856Z" fill="#D8DCFA"/>
<path d="M356.464 432.856C356.466 432.236 356.284 431.63 355.942 431.114C355.599 430.598 355.111 430.195 354.539 429.956C353.967 429.718 353.337 429.654 352.729 429.774C352.121 429.893 351.563 430.191 351.124 430.628C350.685 431.065 350.386 431.623 350.264 432.231C350.142 432.838 350.204 433.468 350.44 434.041C350.677 434.613 351.078 435.103 351.593 435.447C352.108 435.792 352.714 435.976 353.333 435.976C354.159 435.967 354.949 435.636 355.534 435.053C356.119 434.47 356.453 433.682 356.464 432.856Z" fill="#D8DCFA"/>
<path d="M391.495 432.857C391.495 431.93 391.22 431.024 390.705 430.254C390.19 429.484 389.459 428.883 388.603 428.528C387.747 428.174 386.805 428.081 385.896 428.262C384.987 428.443 384.152 428.889 383.497 429.544C382.842 430.199 382.396 431.034 382.215 431.943C382.034 432.851 382.127 433.793 382.482 434.649C382.836 435.505 383.437 436.237 384.207 436.752C384.977 437.267 385.883 437.541 386.81 437.541C388.048 437.527 389.231 437.029 390.107 436.154C390.982 435.278 391.48 434.095 391.495 432.857Z" fill="#D8DCFA"/>
<path d="M424.955 432.857C424.955 431.93 424.68 431.023 424.165 430.253C423.65 429.482 422.918 428.882 422.061 428.527C421.204 428.173 420.262 428.081 419.353 428.263C418.444 428.444 417.609 428.892 416.954 429.548C416.299 430.204 415.854 431.04 415.675 431.949C415.495 432.859 415.589 433.801 415.946 434.657C416.302 435.513 416.904 436.244 417.676 436.757C418.448 437.271 419.354 437.544 420.281 437.541C421.518 437.525 422.698 437.025 423.572 436.15C424.445 435.275 424.941 434.093 424.955 432.857Z" fill="#D8DCFA"/>
<path d="M456.874 432.856C456.876 432.236 456.694 431.63 456.352 431.114C456.009 430.598 455.521 430.195 454.949 429.956C454.377 429.718 453.748 429.654 453.14 429.774C452.532 429.893 451.973 430.191 451.534 430.628C451.095 431.065 450.796 431.623 450.674 432.231C450.553 432.838 450.614 433.468 450.851 434.041C451.087 434.613 451.488 435.103 452.003 435.447C452.518 435.792 453.124 435.976 453.744 435.976C454.569 435.967 455.359 435.636 455.944 435.053C456.529 434.47 456.863 433.682 456.874 432.856Z" fill="#D8DCFA"/>
<path d="M254.49 399.393C254.49 399.084 254.398 398.781 254.226 398.524C254.054 398.266 253.81 398.066 253.524 397.947C253.238 397.829 252.923 397.798 252.619 397.858C252.316 397.919 252.037 398.068 251.818 398.287C251.599 398.505 251.45 398.784 251.389 399.088C251.329 399.392 251.36 399.706 251.479 399.992C251.597 400.278 251.798 400.523 252.055 400.695C252.312 400.867 252.615 400.959 252.925 400.959C253.338 400.953 253.733 400.786 254.025 400.494C254.317 400.202 254.484 399.807 254.49 399.393Z" fill="#D8DCFA"/>
<path d="M289.517 399.393C289.517 398.776 289.334 398.173 288.991 397.66C288.648 397.147 288.161 396.747 287.591 396.511C287.021 396.275 286.393 396.213 285.788 396.333C285.183 396.454 284.627 396.751 284.191 397.187C283.755 397.623 283.458 398.179 283.337 398.784C283.217 399.39 283.279 400.017 283.515 400.587C283.751 401.157 284.151 401.644 284.664 401.987C285.177 402.33 285.78 402.513 286.397 402.513C287.222 402.504 288.01 402.173 288.593 401.59C289.177 401.006 289.508 400.218 289.517 399.393Z" fill="#D8DCFA"/>
<path d="M322.991 399.391C322.993 398.771 322.811 398.164 322.468 397.648C322.125 397.132 321.636 396.729 321.064 396.49C320.491 396.252 319.861 396.189 319.253 396.31C318.645 396.43 318.086 396.728 317.647 397.167C317.209 397.605 316.911 398.164 316.79 398.772C316.67 399.381 316.733 400.011 316.971 400.583C317.209 401.156 317.612 401.645 318.128 401.988C318.645 402.331 319.252 402.513 319.872 402.511C320.696 402.502 321.485 402.171 322.068 401.588C322.651 401.004 322.983 400.216 322.991 399.391Z" fill="#D8DCFA"/>
<path d="M358.018 399.392C358.018 398.465 357.743 397.56 357.228 396.789C356.714 396.019 355.982 395.418 355.126 395.064C354.27 394.709 353.328 394.616 352.419 394.797C351.51 394.978 350.676 395.424 350.021 396.079C349.365 396.734 348.919 397.569 348.738 398.478C348.558 399.387 348.65 400.329 349.005 401.185C349.36 402.041 349.96 402.772 350.73 403.287C351.501 403.802 352.407 404.077 353.333 404.077C354.571 404.063 355.755 403.564 356.63 402.689C357.506 401.813 358.004 400.63 358.018 399.392Z" fill="#D8DCFA"/>
<path d="M391.495 399.392C391.495 398.465 391.22 397.56 390.705 396.789C390.19 396.019 389.459 395.418 388.603 395.064C387.747 394.709 386.805 394.616 385.896 394.797C384.987 394.978 384.152 395.424 383.497 396.079C382.842 396.734 382.396 397.569 382.215 398.478C382.034 399.387 382.127 400.329 382.482 401.185C382.836 402.041 383.437 402.772 384.207 403.287C384.977 403.802 385.883 404.077 386.81 404.077C388.048 404.063 389.231 403.564 390.107 402.689C390.982 401.813 391.48 400.63 391.495 399.392Z" fill="#D8DCFA"/>
<path d="M426.523 399.394C426.523 398.158 426.157 396.949 425.469 395.921C424.782 394.893 423.805 394.092 422.663 393.619C421.52 393.147 420.263 393.023 419.05 393.265C417.837 393.507 416.724 394.104 415.85 394.979C414.977 395.854 414.382 396.969 414.142 398.182C413.902 399.395 414.028 400.652 414.502 401.794C414.977 402.936 415.78 403.911 416.809 404.596C417.838 405.282 419.048 405.647 420.284 405.644C421.935 405.625 423.512 404.96 424.678 403.791C425.844 402.623 426.507 401.045 426.523 399.394Z" fill="#D8DCFA"/>
<path d="M456.874 399.391C456.876 398.772 456.694 398.165 456.352 397.649C456.009 397.133 455.521 396.73 454.949 396.491C454.377 396.253 453.748 396.189 453.14 396.309C452.532 396.428 451.973 396.726 451.534 397.163C451.095 397.6 450.796 398.158 450.674 398.766C450.553 399.373 450.614 400.003 450.851 400.576C451.087 401.148 451.488 401.638 452.003 401.982C452.518 402.327 453.124 402.511 453.744 402.511C454.569 402.502 455.359 402.171 455.944 401.588C456.529 401.006 456.863 400.217 456.874 399.391Z" fill="#D8DCFA"/>
</svg>
