<svg width="428" height="926" viewBox="0 0 428 926" fill="none" xmlns="http://www.w3.org/2000/svg">
<path d="M57.4502 338.999C57.4482 339.286 57.5316 339.567 57.6897 339.807C57.8478 340.047 58.0736 340.234 58.3384 340.345C58.6031 340.457 58.895 340.487 59.1769 340.432C59.4589 340.377 59.7182 340.24 59.9219 340.037C60.1257 339.835 60.2648 339.577 60.3216 339.295C60.3784 339.014 60.3502 338.722 60.2408 338.456C60.1313 338.191 59.9455 337.963 59.7068 337.804C59.4682 337.644 59.1874 337.559 58.9002 337.559C58.519 337.564 58.1546 337.717 57.8841 337.985C57.6135 338.254 57.458 338.617 57.4502 338.999Z" fill="#F6F0E1"/>
<path d="M92.8 339.002C92.8 338.428 92.6297 337.866 92.3106 337.389C91.9915 336.912 91.5379 336.541 91.0075 336.321C90.477 336.102 89.8934 336.045 89.3305 336.158C88.7677 336.271 88.251 336.548 87.8458 336.955C87.4407 337.361 87.1653 337.879 87.0545 338.442C86.9437 339.005 87.0026 339.589 87.2236 340.118C87.4447 340.648 87.8179 341.1 88.2961 341.418C88.7743 341.735 89.336 341.904 89.91 341.902C90.675 341.891 91.4055 341.582 91.9455 341.04C92.4856 340.498 92.7922 339.767 92.8 339.002Z" fill="#F6F0E1"/>
<path d="M125.25 339C125.25 338.142 124.996 337.303 124.519 336.589C124.042 335.875 123.364 335.319 122.571 334.991C121.778 334.662 120.906 334.576 120.064 334.744C119.222 334.911 118.448 335.324 117.841 335.931C117.235 336.538 116.821 337.312 116.654 338.153C116.486 338.995 116.572 339.868 116.901 340.661C117.229 341.454 117.785 342.132 118.499 342.609C119.213 343.086 120.052 343.34 120.91 343.34C122.057 343.327 123.154 342.866 123.965 342.055C124.776 341.244 125.237 340.147 125.25 339Z" fill="#F6F0E1"/>
<path d="M156.26 339C156.26 338.142 156.006 337.303 155.529 336.589C155.052 335.875 154.374 335.319 153.581 334.991C152.788 334.662 151.915 334.576 151.073 334.744C150.232 334.911 149.458 335.324 148.851 335.931C148.244 336.538 147.831 337.312 147.663 338.153C147.496 338.995 147.582 339.868 147.91 340.661C148.239 341.454 148.795 342.132 149.509 342.609C150.223 343.086 151.062 343.34 151.92 343.34C153.067 343.327 154.163 342.866 154.975 342.055C155.786 341.244 156.247 340.147 156.26 339Z" fill="#F6F0E1"/>
<path d="M185.82 339.002C185.82 338.428 185.649 337.866 185.33 337.389C185.011 336.912 184.557 336.541 184.027 336.321C183.497 336.102 182.913 336.045 182.35 336.158C181.787 336.271 181.271 336.548 180.865 336.955C180.46 337.361 180.185 337.879 180.074 338.442C179.963 339.005 180.022 339.589 180.243 340.118C180.464 340.648 180.837 341.1 181.316 341.418C181.794 341.735 182.356 341.904 182.93 341.902C183.694 341.891 184.425 341.582 184.965 341.04C185.505 340.498 185.812 339.767 185.82 339.002Z" fill="#F6F0E1"/>
<path d="M212.49 338.999C212.488 339.286 212.572 339.568 212.73 339.808C212.889 340.048 213.115 340.235 213.381 340.346C213.646 340.457 213.938 340.487 214.221 340.431C214.503 340.376 214.762 340.237 214.966 340.034C215.169 339.831 215.307 339.571 215.363 339.289C215.418 339.007 215.389 338.714 215.278 338.449C215.167 338.184 214.98 337.957 214.74 337.799C214.5 337.64 214.218 337.557 213.93 337.559C213.549 337.561 213.184 337.714 212.915 337.983C212.645 338.253 212.493 338.618 212.49 338.999Z" fill="#F6F0E1"/>
<path d="M243.49 338.999C243.488 339.286 243.572 339.567 243.73 339.807C243.888 340.047 244.114 340.234 244.378 340.345C244.643 340.457 244.935 340.487 245.217 340.432C245.499 340.377 245.758 340.24 245.962 340.037C246.166 339.835 246.305 339.577 246.362 339.295C246.418 339.014 246.39 338.722 246.281 338.456C246.171 338.191 245.986 337.963 245.747 337.804C245.508 337.644 245.227 337.559 244.94 337.559C244.559 337.564 244.195 337.717 243.924 337.985C243.654 338.254 243.498 338.617 243.49 338.999Z" fill="#F6F0E1"/>
<path d="M278.84 339.002C278.84 338.428 278.67 337.866 278.351 337.389C278.031 336.912 277.578 336.541 277.047 336.321C276.517 336.102 275.933 336.045 275.371 336.158C274.808 336.271 274.291 336.548 273.886 336.955C273.481 337.361 273.205 337.879 273.095 338.442C272.984 339.005 273.043 339.589 273.264 340.118C273.485 340.648 273.858 341.1 274.336 341.418C274.814 341.735 275.376 341.904 275.95 341.902C276.715 341.891 277.446 341.582 277.986 341.04C278.526 340.498 278.832 339.767 278.84 339.002Z" fill="#F6F0E1"/>
<path d="M309.85 339.002C309.85 338.428 309.68 337.867 309.361 337.39C309.042 336.914 308.59 336.542 308.06 336.322C307.53 336.103 306.947 336.045 306.384 336.157C305.822 336.269 305.305 336.545 304.899 336.951C304.494 337.357 304.217 337.873 304.106 338.436C303.994 338.998 304.051 339.581 304.271 340.111C304.49 340.641 304.862 341.094 305.339 341.413C305.816 341.731 306.376 341.902 306.95 341.902C307.717 341.894 308.45 341.586 308.992 341.044C309.534 340.501 309.842 339.768 309.85 339.002Z" fill="#F6F0E1"/>
<path d="M340.85 339.001C340.848 338.43 340.677 337.872 340.358 337.398C340.04 336.924 339.588 336.555 339.059 336.338C338.531 336.121 337.95 336.065 337.39 336.178C336.83 336.29 336.316 336.567 335.913 336.971C335.51 337.376 335.236 337.891 335.125 338.451C335.014 339.011 335.072 339.592 335.291 340.119C335.51 340.647 335.881 341.098 336.356 341.415C336.831 341.732 337.389 341.901 337.96 341.901C338.725 341.891 339.456 341.582 339.996 341.04C340.536 340.498 340.843 339.766 340.85 339.001Z" fill="#F6F0E1"/>
<path d="M367.52 338.999C367.518 339.286 367.601 339.567 367.759 339.807C367.917 340.047 368.143 340.234 368.408 340.345C368.672 340.457 368.964 340.487 369.246 340.432C369.528 340.377 369.788 340.24 369.991 340.037C370.195 339.835 370.334 339.577 370.391 339.295C370.448 339.014 370.42 338.722 370.31 338.456C370.201 338.191 370.015 337.963 369.776 337.804C369.538 337.644 369.257 337.559 368.97 337.559C368.588 337.561 368.222 337.713 367.951 337.983C367.68 338.252 367.525 338.617 367.52 338.999Z" fill="#F6F0E1"/>
<path d="M398.53 338.999C398.528 339.286 398.612 339.568 398.771 339.808C398.929 340.048 399.155 340.235 399.421 340.346C399.686 340.457 399.979 340.487 400.261 340.431C400.543 340.376 400.802 340.237 401.006 340.034C401.209 339.831 401.347 339.571 401.403 339.289C401.459 339.007 401.429 338.714 401.318 338.449C401.207 338.184 401.02 337.957 400.78 337.799C400.54 337.64 400.258 337.557 399.97 337.559C399.589 337.561 399.224 337.714 398.955 337.983C398.685 338.253 398.533 338.618 398.53 338.999Z" fill="#F6F0E1"/>
<path d="M57.4502 308.001C57.4502 308.288 57.5352 308.568 57.6946 308.806C57.8539 309.045 58.0803 309.231 58.3453 309.34C58.6103 309.45 58.9018 309.479 59.1831 309.423C59.4643 309.367 59.7227 309.229 59.9255 309.026C60.1283 308.823 60.2664 308.565 60.3223 308.284C60.3783 308.002 60.3496 307.711 60.2398 307.446C60.1301 307.181 59.9442 306.954 59.7058 306.795C59.4673 306.636 59.187 306.551 58.9002 306.551C58.5172 306.556 58.1514 306.71 57.8806 306.981C57.6098 307.252 57.4554 307.618 57.4502 308.001Z" fill="#F6F0E1"/>
<path d="M88.46 308.001C88.46 308.288 88.545 308.568 88.7043 308.806C88.8637 309.045 89.0901 309.231 89.3551 309.34C89.62 309.45 89.9116 309.479 90.1928 309.423C90.4741 309.367 90.7325 309.229 90.9353 309.026C91.1381 308.823 91.2762 308.565 91.3321 308.284C91.388 308.002 91.3593 307.711 91.2496 307.446C91.1398 307.181 90.954 306.954 90.7155 306.795C90.4771 306.636 90.1967 306.551 89.91 306.551C89.5262 306.553 89.1589 306.707 88.8876 306.978C88.6162 307.25 88.4626 307.617 88.46 308.001Z" fill="#F6F0E1"/>
<path d="M123.81 308C123.812 307.426 123.643 306.864 123.326 306.386C123.008 305.908 122.556 305.535 122.026 305.313C121.497 305.092 120.913 305.034 120.35 305.144C119.787 305.255 119.269 305.531 118.863 305.936C118.456 306.341 118.179 306.858 118.066 307.42C117.954 307.983 118.01 308.567 118.23 309.097C118.449 309.628 118.82 310.081 119.298 310.4C119.775 310.72 120.336 310.89 120.91 310.89C121.675 310.882 122.406 310.575 122.948 310.035C123.49 309.495 123.799 308.765 123.81 308Z" fill="#F6F0E1"/>
<path d="M154.81 307.999C154.81 307.428 154.641 306.869 154.323 306.394C154.006 305.919 153.554 305.548 153.026 305.329C152.498 305.111 151.917 305.053 151.356 305.165C150.796 305.276 150.281 305.552 149.877 305.956C149.473 306.36 149.197 306.875 149.086 307.436C148.974 307.996 149.032 308.577 149.25 309.105C149.469 309.633 149.839 310.085 150.315 310.402C150.79 310.72 151.349 310.889 151.92 310.889C152.684 310.879 153.413 310.571 153.952 310.031C154.492 309.492 154.8 308.763 154.81 307.999Z" fill="#F6F0E1"/>
<path d="M181.48 308.001C181.48 308.288 181.566 308.568 181.725 308.806C181.884 309.045 182.111 309.231 182.376 309.34C182.641 309.45 182.932 309.479 183.213 309.423C183.495 309.367 183.753 309.229 183.956 309.026C184.159 308.823 184.297 308.565 184.353 308.284C184.409 308.002 184.38 307.711 184.27 307.446C184.16 307.181 183.975 306.954 183.736 306.795C183.498 306.636 183.217 306.551 182.93 306.551C182.547 306.553 182.179 306.707 181.908 306.978C181.637 307.25 181.483 307.617 181.48 308.001Z" fill="#F6F0E1"/>
<path d="M216.83 308C216.832 307.426 216.664 306.864 216.346 306.386C216.029 305.908 215.577 305.535 215.047 305.313C214.517 305.092 213.934 305.034 213.371 305.144C212.807 305.255 212.29 305.531 211.883 305.936C211.477 306.341 211.199 306.858 211.087 307.42C210.974 307.983 211.031 308.567 211.25 309.097C211.469 309.628 211.841 310.081 212.318 310.4C212.795 310.72 213.356 310.89 213.93 310.89C214.695 310.882 215.427 310.575 215.969 310.035C216.511 309.495 216.82 308.765 216.83 308Z" fill="#F6F0E1"/>
<path d="M247.83 307.999C247.83 307.428 247.66 306.869 247.343 306.394C247.025 305.919 246.574 305.548 246.046 305.329C245.518 305.111 244.937 305.053 244.376 305.165C243.815 305.276 243.3 305.552 242.896 305.956C242.492 306.36 242.217 306.875 242.105 307.436C241.994 307.996 242.051 308.577 242.27 309.105C242.489 309.633 242.859 310.085 243.334 310.402C243.809 310.72 244.368 310.889 244.94 310.889C245.703 310.879 246.432 310.571 246.972 310.031C247.512 309.492 247.819 308.763 247.83 307.999Z" fill="#F6F0E1"/>
<path d="M278.84 308C278.842 307.425 278.673 306.863 278.355 306.385C278.038 305.906 277.585 305.533 277.054 305.313C276.524 305.092 275.94 305.034 275.377 305.145C274.813 305.257 274.296 305.533 273.889 305.939C273.483 306.345 273.207 306.863 273.095 307.427C272.984 307.99 273.042 308.574 273.263 309.104C273.483 309.635 273.857 310.087 274.335 310.405C274.814 310.723 275.376 310.892 275.95 310.89C276.713 310.879 277.442 310.572 277.982 310.032C278.522 309.492 278.83 308.763 278.84 308Z" fill="#F6F0E1"/>
<path d="M309.85 308C309.852 307.426 309.683 306.864 309.366 306.386C309.048 305.908 308.596 305.535 308.067 305.313C307.537 305.092 306.953 305.034 306.39 305.144C305.827 305.255 305.309 305.531 304.903 305.936C304.496 306.341 304.219 306.858 304.106 307.42C303.994 307.983 304.05 308.567 304.27 309.097C304.489 309.628 304.86 310.081 305.338 310.4C305.815 310.72 306.376 310.89 306.95 310.89C307.715 310.882 308.446 310.575 308.988 310.035C309.53 309.495 309.839 308.765 309.85 308Z" fill="#F6F0E1"/>
<path d="M336.51 308.001C336.51 308.288 336.595 308.568 336.754 308.806C336.913 309.045 337.14 309.231 337.405 309.34C337.67 309.45 337.961 309.479 338.243 309.423C338.524 309.367 338.782 309.229 338.985 309.026C339.188 308.823 339.326 308.565 339.382 308.284C339.438 308.002 339.409 307.711 339.299 307.446C339.19 307.181 339.004 306.954 338.765 306.795C338.527 306.636 338.247 306.551 337.96 306.551C337.577 306.556 337.211 306.71 336.94 306.981C336.669 307.252 336.515 307.618 336.51 308.001Z" fill="#F6F0E1"/>
<path d="M367.52 308.001C367.52 308.288 367.605 308.568 367.764 308.806C367.923 309.045 368.15 309.231 368.415 309.34C368.68 309.45 368.971 309.479 369.252 309.423C369.534 309.367 369.792 309.229 369.995 309.026C370.198 308.823 370.336 308.565 370.392 308.284C370.448 308.002 370.419 307.711 370.309 307.446C370.199 307.181 370.014 306.954 369.775 306.795C369.537 306.636 369.256 306.551 368.97 306.551C368.586 306.553 368.219 306.707 367.947 306.978C367.676 307.25 367.522 307.617 367.52 308.001Z" fill="#F6F0E1"/>
<path d="M402.87 308C402.872 307.426 402.704 306.864 402.386 306.386C402.069 305.908 401.617 305.535 401.087 305.313C400.557 305.092 399.974 305.034 399.411 305.144C398.848 305.255 398.33 305.531 397.923 305.936C397.517 306.341 397.239 306.858 397.127 307.42C397.014 307.983 397.071 308.567 397.29 309.097C397.509 309.628 397.881 310.081 398.358 310.4C398.835 310.72 399.396 310.89 399.97 310.89C400.735 310.882 401.467 310.575 402.009 310.035C402.551 309.495 402.86 308.765 402.87 308Z" fill="#F6F0E1"/>
<path d="M61.7898 276.999C61.7898 276.428 61.6203 275.869 61.3027 275.394C60.9852 274.919 60.5338 274.548 60.0057 274.329C59.4776 274.111 58.8966 274.053 58.336 274.165C57.7754 274.276 57.2604 274.552 56.8562 274.956C56.4521 275.36 56.1768 275.875 56.0653 276.436C55.9538 276.996 56.011 277.577 56.2298 278.105C56.4485 278.633 56.8189 279.085 57.2942 279.402C57.7694 279.72 58.3282 279.889 58.8998 279.889C59.6638 279.882 60.3944 279.575 60.9347 279.034C61.475 278.494 61.782 277.763 61.7898 276.999Z" fill="#F6F0E1"/>
<path d="M92.8 277C92.802 276.425 92.6333 275.863 92.3154 275.385C91.9975 274.906 91.5447 274.533 91.0144 274.313C90.4841 274.092 89.9002 274.034 89.3367 274.145C88.7732 274.257 88.2556 274.533 87.8494 274.939C87.4432 275.345 87.1668 275.863 87.0552 276.427C86.9437 276.99 87.0019 277.574 87.2227 278.104C87.4434 278.635 87.8167 279.087 88.2951 279.405C88.7735 279.723 89.3356 279.892 89.91 279.89C90.674 279.882 91.4046 279.575 91.9449 279.035C92.4852 278.494 92.7922 277.764 92.8 277Z" fill="#F6F0E1"/>
<path d="M123.81 277C123.812 276.426 123.643 275.864 123.326 275.386C123.008 274.908 122.556 274.535 122.026 274.313C121.497 274.092 120.913 274.034 120.35 274.144C119.787 274.255 119.269 274.531 118.863 274.936C118.456 275.341 118.179 275.858 118.066 276.42C117.954 276.983 118.01 277.567 118.23 278.097C118.449 278.628 118.82 279.081 119.298 279.4C119.775 279.72 120.336 279.89 120.91 279.89C121.675 279.882 122.406 279.575 122.948 279.035C123.49 278.495 123.799 277.765 123.81 277Z" fill="#F6F0E1"/>
<path d="M154.81 276.999C154.81 276.428 154.641 275.869 154.323 275.394C154.006 274.919 153.554 274.548 153.026 274.329C152.498 274.111 151.917 274.053 151.356 274.165C150.796 274.276 150.281 274.552 149.877 274.956C149.473 275.36 149.197 275.875 149.086 276.436C148.974 276.996 149.032 277.577 149.25 278.105C149.469 278.633 149.839 279.085 150.315 279.402C150.79 279.72 151.349 279.889 151.92 279.889C152.684 279.882 153.415 279.575 153.955 279.034C154.495 278.494 154.802 277.763 154.81 276.999Z" fill="#F6F0E1"/>
<path d="M185.82 277C185.821 276.425 185.653 275.863 185.335 275.385C185.017 274.906 184.564 274.533 184.034 274.313C183.504 274.092 182.92 274.034 182.356 274.145C181.793 274.257 181.275 274.533 180.869 274.939C180.463 275.345 180.186 275.863 180.075 276.427C179.963 276.99 180.021 277.574 180.242 278.104C180.463 278.635 180.836 279.087 181.315 279.405C181.793 279.723 182.355 279.892 182.93 279.89C183.694 279.882 184.424 279.575 184.964 279.035C185.505 278.494 185.812 277.764 185.82 277Z" fill="#F6F0E1"/>
<path d="M216.83 277C216.832 276.426 216.664 275.864 216.346 275.386C216.029 274.908 215.577 274.535 215.047 274.313C214.517 274.092 213.934 274.034 213.371 274.144C212.807 274.255 212.29 274.531 211.883 274.936C211.477 275.341 211.199 275.858 211.087 276.42C210.974 276.983 211.031 277.567 211.25 278.097C211.469 278.628 211.841 279.081 212.318 279.4C212.795 279.72 213.356 279.89 213.93 279.89C214.695 279.882 215.427 279.575 215.969 279.035C216.511 278.495 216.82 277.765 216.83 277Z" fill="#F6F0E1"/>
<path d="M247.83 276.999C247.83 276.428 247.66 275.869 247.343 275.394C247.025 274.919 246.574 274.548 246.046 274.329C245.518 274.111 244.937 274.053 244.376 274.165C243.815 274.276 243.3 274.552 242.896 274.956C242.492 275.36 242.217 275.875 242.105 276.436C241.994 276.996 242.051 277.577 242.27 278.105C242.489 278.633 242.859 279.085 243.334 279.402C243.809 279.72 244.368 279.889 244.94 279.889C245.704 279.882 246.434 279.575 246.975 279.034C247.515 278.494 247.822 277.763 247.83 276.999Z" fill="#F6F0E1"/>
<path d="M278.84 277C278.842 276.425 278.673 275.863 278.355 275.385C278.038 274.906 277.585 274.533 277.054 274.313C276.524 274.092 275.94 274.034 275.377 274.145C274.813 274.257 274.296 274.533 273.889 274.939C273.483 275.345 273.207 275.863 273.095 276.427C272.984 276.99 273.042 277.574 273.263 278.104C273.483 278.635 273.857 279.087 274.335 279.405C274.814 279.723 275.376 279.892 275.95 279.89C276.714 279.882 277.445 279.575 277.985 279.035C278.525 278.494 278.832 277.764 278.84 277Z" fill="#F6F0E1"/>
<path d="M305.51 277.001C305.51 277.288 305.595 277.569 305.755 277.807C305.915 278.046 306.142 278.232 306.407 278.341C306.673 278.451 306.965 278.479 307.246 278.422C307.528 278.365 307.786 278.226 307.989 278.023C308.191 277.819 308.328 277.559 308.383 277.278C308.438 276.996 308.408 276.704 308.296 276.439C308.185 276.174 307.998 275.948 307.758 275.79C307.518 275.632 307.237 275.549 306.95 275.551C306.568 275.556 306.203 275.711 305.934 275.982C305.665 276.253 305.512 276.619 305.51 277.001Z" fill="#F6F0E1"/>
<path d="M336.51 277.001C336.51 277.288 336.595 277.568 336.754 277.806C336.913 278.045 337.14 278.231 337.405 278.34C337.67 278.45 337.961 278.479 338.243 278.423C338.524 278.367 338.782 278.229 338.985 278.026C339.188 277.823 339.326 277.565 339.382 277.284C339.438 277.002 339.409 276.711 339.299 276.446C339.19 276.181 339.004 275.954 338.765 275.795C338.527 275.636 338.247 275.551 337.96 275.551C337.578 275.558 337.213 275.714 336.943 275.984C336.673 276.254 336.517 276.619 336.51 277.001Z" fill="#F6F0E1"/>
<path d="M371.861 277C371.862 276.425 371.694 275.863 371.376 275.385C371.058 274.906 370.605 274.533 370.075 274.313C369.545 274.092 368.961 274.034 368.397 274.145C367.834 274.257 367.316 274.533 366.91 274.939C366.504 275.345 366.227 275.863 366.116 276.427C366.004 276.99 366.062 277.574 366.283 278.104C366.504 278.635 366.877 279.087 367.356 279.405C367.834 279.723 368.396 279.892 368.971 279.89C369.735 279.882 370.465 279.575 371.005 279.035C371.546 278.494 371.853 277.764 371.861 277Z" fill="#F6F0E1"/>
<path d="M402.87 277C402.872 276.426 402.704 275.864 402.386 275.386C402.069 274.908 401.617 274.535 401.087 274.313C400.557 274.092 399.974 274.034 399.411 274.144C398.848 274.255 398.33 274.531 397.923 274.936C397.517 275.341 397.239 275.858 397.127 276.42C397.014 276.983 397.071 277.567 397.29 278.097C397.509 278.628 397.881 279.081 398.358 279.4C398.835 279.72 399.396 279.89 399.97 279.89C400.735 279.882 401.467 279.575 402.009 279.035C402.551 278.495 402.86 277.765 402.87 277Z" fill="#F6F0E1"/>
<path d="M153.37 246.001C153.37 245.714 153.285 245.434 153.125 245.195C152.966 244.957 152.74 244.771 152.475 244.661C152.21 244.551 151.918 244.523 151.637 244.579C151.356 244.635 151.097 244.773 150.894 244.975C150.692 245.178 150.554 245.437 150.498 245.718C150.442 245.999 150.47 246.291 150.58 246.556C150.69 246.821 150.876 247.047 151.114 247.206C151.353 247.366 151.633 247.451 151.92 247.451C152.303 247.446 152.668 247.291 152.939 247.02C153.21 246.75 153.365 246.384 153.37 246.001Z" fill="#F6F0E1"/>
<path d="M185.82 246.002C185.82 245.428 185.649 244.866 185.33 244.389C185.011 243.912 184.557 243.541 184.027 243.321C183.497 243.102 182.913 243.045 182.35 243.158C181.787 243.271 181.271 243.548 180.865 243.955C180.46 244.361 180.185 244.879 180.074 245.442C179.963 246.005 180.022 246.589 180.243 247.118C180.464 247.648 180.837 248.1 181.316 248.418C181.794 248.735 182.356 248.904 182.93 248.902C183.694 248.891 184.425 248.582 184.965 248.04C185.505 247.498 185.812 246.767 185.82 246.002Z" fill="#F6F0E1"/>
<path d="M216.83 246.002C216.83 245.428 216.66 244.867 216.342 244.39C216.023 243.914 215.57 243.542 215.04 243.322C214.51 243.103 213.927 243.045 213.365 243.157C212.802 243.269 212.285 243.545 211.88 243.951C211.474 244.357 211.198 244.873 211.086 245.436C210.974 245.998 211.032 246.581 211.251 247.111C211.471 247.641 211.842 248.094 212.319 248.413C212.796 248.731 213.357 248.902 213.93 248.902C214.697 248.894 215.43 248.586 215.972 248.044C216.514 247.501 216.822 246.768 216.83 246.002Z" fill="#F6F0E1"/>
<path d="M243.49 245.999C243.488 246.286 243.572 246.567 243.73 246.807C243.888 247.047 244.114 247.234 244.378 247.345C244.643 247.457 244.935 247.487 245.217 247.432C245.499 247.377 245.758 247.24 245.962 247.037C246.166 246.835 246.305 246.577 246.362 246.295C246.418 246.014 246.39 245.722 246.281 245.456C246.171 245.191 245.986 244.963 245.747 244.804C245.508 244.644 245.227 244.559 244.94 244.559C244.559 244.564 244.195 244.717 243.924 244.985C243.654 245.254 243.498 245.617 243.49 245.999Z" fill="#F6F0E1"/>
<path d="M274.5 245.999C274.498 246.286 274.581 246.567 274.74 246.807C274.898 247.047 275.123 247.234 275.388 247.345C275.653 247.457 275.945 247.487 276.227 247.432C276.509 247.377 276.768 247.24 276.972 247.037C277.176 246.835 277.315 246.577 277.371 246.295C277.428 246.014 277.4 245.722 277.291 245.456C277.181 245.191 276.995 244.963 276.757 244.804C276.518 244.644 276.237 244.559 275.95 244.559C275.568 244.561 275.202 244.713 274.931 244.983C274.66 245.252 274.505 245.617 274.5 245.999Z" fill="#F6F0E1"/>
<path d="M309.85 246.002C309.85 245.428 309.68 244.867 309.361 244.39C309.042 243.914 308.59 243.542 308.06 243.322C307.53 243.103 306.947 243.045 306.384 243.157C305.822 243.269 305.305 243.545 304.899 243.951C304.494 244.357 304.217 244.873 304.106 245.436C303.994 245.998 304.051 246.581 304.271 247.111C304.49 247.641 304.862 248.094 305.339 248.413C305.816 248.731 306.376 248.902 306.95 248.902C307.717 248.894 308.45 248.586 308.992 248.044C309.534 247.501 309.842 246.768 309.85 246.002Z" fill="#F6F0E1"/>
<path d="M340.85 246.001C340.848 245.43 340.677 244.872 340.358 244.398C340.04 243.924 339.588 243.555 339.059 243.338C338.531 243.121 337.95 243.065 337.39 243.178C336.83 243.29 336.316 243.567 335.913 243.971C335.51 244.376 335.236 244.891 335.125 245.451C335.014 246.011 335.072 246.592 335.291 247.119C335.51 247.647 335.881 248.098 336.356 248.415C336.831 248.732 337.389 248.901 337.96 248.901C338.725 248.891 339.456 248.582 339.996 248.04C340.536 247.498 340.843 246.766 340.85 246.001Z" fill="#F6F0E1"/>
<path d="M373.3 246C373.3 245.141 373.045 244.302 372.568 243.588C372.091 242.874 371.412 242.318 370.619 241.99C369.825 241.661 368.952 241.576 368.11 241.744C367.268 241.913 366.494 242.327 365.888 242.935C365.281 243.543 364.869 244.317 364.702 245.16C364.536 246.002 364.623 246.875 364.953 247.668C365.283 248.461 365.841 249.138 366.556 249.614C367.271 250.089 368.111 250.342 368.97 250.34C370.115 250.325 371.209 249.862 372.018 249.051C372.827 248.24 373.287 247.145 373.3 246Z" fill="#F6F0E1"/>
<path d="M404.31 246C404.31 245.142 404.055 244.303 403.578 243.589C403.102 242.875 402.424 242.319 401.631 241.991C400.838 241.662 399.965 241.576 399.123 241.744C398.281 241.911 397.508 242.324 396.901 242.931C396.294 243.538 395.881 244.312 395.713 245.153C395.546 245.995 395.632 246.868 395.96 247.661C396.289 248.454 396.845 249.132 397.559 249.609C398.272 250.086 399.112 250.34 399.97 250.34C401.117 250.327 402.213 249.866 403.024 249.055C403.835 248.244 404.297 247.147 404.31 246Z" fill="#F6F0E1"/>
<path d="M243.49 215.001C243.49 215.288 243.575 215.568 243.735 215.806C243.894 216.045 244.12 216.231 244.385 216.34C244.65 216.45 244.942 216.479 245.223 216.423C245.504 216.367 245.763 216.229 245.966 216.026C246.168 215.823 246.306 215.565 246.362 215.284C246.418 215.002 246.39 214.711 246.28 214.446C246.17 214.181 245.984 213.954 245.746 213.795C245.507 213.636 245.227 213.551 244.94 213.551C244.558 213.558 244.194 213.714 243.923 213.984C243.653 214.254 243.498 214.619 243.49 215.001Z" fill="#F6F0E1"/>
<path d="M278.84 215C278.842 214.425 278.673 213.863 278.355 213.385C278.038 212.907 277.585 212.533 277.054 212.313C276.524 212.092 275.94 212.034 275.377 212.145C274.813 212.257 274.296 212.533 273.889 212.939C273.483 213.345 273.207 213.863 273.095 214.427C272.984 214.99 273.042 215.574 273.263 216.104C273.483 216.635 273.857 217.087 274.335 217.405C274.814 217.723 275.376 217.892 275.95 217.89C276.713 217.879 277.442 217.572 277.982 217.032C278.522 216.492 278.83 215.763 278.84 215Z" fill="#F6F0E1"/>
<path d="M311.289 215C311.289 214.142 311.035 213.303 310.558 212.589C310.081 211.875 309.403 211.319 308.61 210.991C307.817 210.662 306.945 210.576 306.103 210.744C305.261 210.911 304.488 211.324 303.881 211.931C303.274 212.538 302.86 213.312 302.693 214.153C302.525 214.995 302.611 215.868 302.94 216.661C303.268 217.454 303.824 218.132 304.538 218.609C305.252 219.086 306.091 219.34 306.949 219.34C308.096 219.327 309.193 218.866 310.004 218.055C310.815 217.244 311.276 216.147 311.289 215Z" fill="#F6F0E1"/>
<path d="M342.3 215C342.3 214.142 342.046 213.303 341.569 212.589C341.092 211.875 340.414 211.319 339.621 210.991C338.828 210.662 337.955 210.576 337.113 210.744C336.272 210.911 335.498 211.324 334.891 211.931C334.284 212.538 333.871 213.312 333.704 214.153C333.536 214.995 333.622 215.868 333.95 216.661C334.279 217.454 334.835 218.132 335.549 218.609C336.263 219.086 337.102 219.34 337.96 219.34C339.107 219.327 340.203 218.866 341.015 218.055C341.826 217.244 342.287 216.147 342.3 215Z" fill="#F6F0E1"/>
<path d="M374.75 214.999C374.752 213.853 374.414 212.732 373.778 211.779C373.143 210.825 372.239 210.081 371.18 209.642C370.122 209.202 368.957 209.087 367.833 209.31C366.709 209.533 365.676 210.085 364.866 210.895C364.055 211.705 363.504 212.738 363.281 213.862C363.058 214.986 363.173 216.151 363.613 217.21C364.052 218.268 364.796 219.172 365.749 219.808C366.703 220.443 367.824 220.781 368.97 220.779C370.498 220.764 371.959 220.15 373.04 219.069C374.12 217.988 374.734 216.527 374.75 214.999Z" fill="#F6F0E1"/>
<path d="M405.76 214.999C405.762 213.854 405.424 212.733 404.789 211.78C404.154 210.826 403.25 210.083 402.192 209.643C401.135 209.203 399.97 209.087 398.846 209.309C397.722 209.532 396.69 210.082 395.879 210.892C395.068 211.701 394.516 212.733 394.292 213.856C394.067 214.979 394.182 216.144 394.619 217.203C395.057 218.261 395.8 219.166 396.752 219.803C397.704 220.439 398.824 220.779 399.97 220.779C401.498 220.761 402.959 220.147 404.04 219.067C405.122 217.987 405.739 216.527 405.76 214.999Z" fill="#F6F0E1"/>
<path d="M277.39 183.942C277.39 183.655 277.305 183.374 277.145 183.136C276.985 182.897 276.758 182.711 276.493 182.602C276.227 182.492 275.935 182.464 275.654 182.521C275.372 182.578 275.114 182.717 274.911 182.92C274.709 183.124 274.572 183.384 274.517 183.665C274.462 183.947 274.492 184.239 274.603 184.504C274.715 184.769 274.902 184.995 275.142 185.153C275.382 185.311 275.663 185.394 275.95 185.392C276.332 185.387 276.697 185.232 276.966 184.961C277.235 184.69 277.388 184.324 277.39 183.942Z" fill="#F6F0E1"/>
<path d="M311.289 183.942C311.289 183.083 311.035 182.244 310.558 181.53C310.081 180.817 309.403 180.26 308.61 179.932C307.817 179.603 306.945 179.517 306.103 179.685C305.261 179.852 304.488 180.266 303.881 180.873C303.274 181.48 302.86 182.253 302.693 183.095C302.525 183.937 302.611 184.809 302.94 185.602C303.268 186.395 303.824 187.073 304.538 187.55C305.252 188.027 306.091 188.282 306.949 188.282C308.096 188.269 309.193 187.807 310.004 186.996C310.815 186.185 311.276 185.089 311.289 183.942Z" fill="#F6F0E1"/>
<path d="M343.74 183.938C343.74 182.793 343.4 181.673 342.764 180.721C342.127 179.768 341.222 179.026 340.164 178.588C339.105 178.15 337.94 178.036 336.817 178.26C335.693 178.485 334.662 179.037 333.852 179.848C333.043 180.659 332.492 181.691 332.27 182.815C332.048 183.939 332.164 185.103 332.604 186.161C333.044 187.219 333.787 188.123 334.741 188.758C335.694 189.393 336.815 189.73 337.96 189.728C339.489 189.71 340.95 189.094 342.031 188.012C343.111 186.93 343.725 185.467 343.74 183.938Z" fill="#F6F0E1"/>
<path d="M374.75 183.938C374.75 182.793 374.41 181.673 373.773 180.721C373.137 179.768 372.232 179.026 371.173 178.588C370.115 178.15 368.95 178.036 367.827 178.26C366.703 178.485 365.672 179.037 364.862 179.848C364.053 180.659 363.502 181.691 363.28 182.815C363.058 183.939 363.174 185.103 363.614 186.161C364.053 187.219 364.797 188.123 365.75 188.758C366.704 189.393 367.824 189.73 368.97 189.728C370.499 189.71 371.96 189.094 373.04 188.012C374.121 186.93 374.734 185.467 374.75 183.938Z" fill="#F6F0E1"/>
<path d="M405.76 183.938C405.76 182.793 405.42 181.674 404.784 180.722C404.148 179.77 403.243 179.027 402.185 178.589C401.127 178.151 399.963 178.036 398.84 178.26C397.717 178.483 396.685 179.035 395.876 179.844C395.066 180.654 394.514 181.686 394.291 182.809C394.068 183.932 394.182 185.096 394.62 186.154C395.059 187.212 395.801 188.116 396.753 188.753C397.705 189.389 398.825 189.728 399.97 189.728C401.499 189.708 402.96 189.091 404.041 188.01C405.122 186.928 405.739 185.468 405.76 183.938Z" fill="#F6F0E1"/>
<path d="M280.28 152.93C280.28 152.071 280.025 151.232 279.547 150.518C279.07 149.804 278.392 149.247 277.598 148.919C276.805 148.591 275.931 148.506 275.089 148.674C274.247 148.842 273.474 149.257 272.867 149.865C272.261 150.473 271.848 151.247 271.682 152.089C271.515 152.932 271.603 153.805 271.933 154.598C272.263 155.39 272.821 156.068 273.536 156.543C274.251 157.019 275.091 157.272 275.95 157.27C277.095 157.254 278.189 156.792 278.998 155.981C279.807 155.17 280.267 154.075 280.28 152.93Z" fill="#F6F0E1"/>
<path d="M312.74 152.931C312.74 151.785 312.401 150.666 311.764 149.714C311.128 148.762 310.224 148.02 309.166 147.581C308.108 147.143 306.944 147.028 305.821 147.252C304.697 147.475 303.666 148.027 302.856 148.836C302.046 149.646 301.495 150.678 301.271 151.801C301.048 152.924 301.163 154.088 301.601 155.146C302.039 156.204 302.781 157.109 303.733 157.745C304.686 158.381 305.805 158.721 306.95 158.721C308.48 158.702 309.942 158.087 311.024 157.005C312.106 155.923 312.722 154.461 312.74 152.931Z" fill="#F6F0E1"/>
<path d="M343.74 152.931C343.74 151.785 343.4 150.665 342.764 149.713C342.127 148.76 341.222 148.018 340.164 147.58C339.105 147.142 337.94 147.028 336.817 147.253C335.693 147.477 334.662 148.029 333.852 148.84C333.043 149.651 332.492 150.683 332.27 151.807C332.048 152.931 332.164 154.095 332.604 155.153C333.044 156.211 333.787 157.115 334.741 157.75C335.694 158.385 336.815 158.723 337.96 158.721C339.49 158.705 340.953 158.09 342.033 157.007C343.114 155.924 343.727 154.46 343.74 152.931Z" fill="#F6F0E1"/>
<path d="M374.75 152.931C374.75 151.785 374.41 150.665 373.773 149.713C373.137 148.76 372.232 148.018 371.173 147.58C370.115 147.142 368.95 147.028 367.827 147.253C366.703 147.477 365.672 148.029 364.862 148.84C364.053 149.651 363.502 150.683 363.28 151.807C363.058 152.931 363.174 154.095 363.614 155.153C364.053 156.211 364.797 157.115 365.75 157.75C366.704 158.385 367.824 158.723 368.97 158.721C370.5 158.705 371.962 158.09 373.043 157.007C374.124 155.924 374.737 154.46 374.75 152.931Z" fill="#F6F0E1"/>
<path d="M405.76 152.931C405.76 151.785 405.42 150.666 404.784 149.714C404.148 148.762 403.243 148.02 402.185 147.581C401.127 147.143 399.963 147.028 398.84 147.252C397.717 147.475 396.685 148.027 395.876 148.836C395.066 149.646 394.514 150.678 394.291 151.801C394.068 152.924 394.182 154.088 394.62 155.146C395.059 156.204 395.801 157.109 396.753 157.745C397.705 158.381 398.825 158.721 399.97 158.721C401.5 158.702 402.962 158.087 404.044 157.005C405.126 155.923 405.742 154.461 405.76 152.931Z" fill="#F6F0E1"/>
<path d="M212.49 121.931C212.49 122.218 212.576 122.498 212.735 122.737C212.895 122.976 213.122 123.162 213.388 123.271C213.653 123.381 213.945 123.409 214.227 123.352C214.508 123.295 214.767 123.156 214.969 122.952C215.171 122.748 215.309 122.489 215.364 122.207C215.418 121.925 215.388 121.633 215.277 121.369C215.166 121.104 214.978 120.878 214.739 120.72C214.499 120.562 214.217 120.479 213.93 120.481C213.548 120.486 213.183 120.64 212.914 120.912C212.645 121.183 212.493 121.548 212.49 121.931Z" fill="#F6F0E1"/>
<path d="M247.83 121.929C247.83 121.357 247.66 120.799 247.343 120.323C247.025 119.848 246.574 119.478 246.046 119.259C245.518 119.04 244.937 118.983 244.376 119.095C243.815 119.206 243.3 119.481 242.896 119.886C242.492 120.29 242.217 120.805 242.105 121.365C241.994 121.926 242.051 122.507 242.27 123.035C242.489 123.563 242.859 124.014 243.334 124.332C243.809 124.65 244.368 124.819 244.94 124.819C245.703 124.809 246.432 124.501 246.972 123.961C247.512 123.421 247.819 122.692 247.83 121.929Z" fill="#F6F0E1"/>
<path d="M278.84 121.93C278.842 121.355 278.673 120.793 278.355 120.315C278.038 119.836 277.585 119.463 277.054 119.242C276.524 119.021 275.94 118.963 275.377 119.075C274.813 119.186 274.296 119.463 273.889 119.869C273.483 120.275 273.207 120.793 273.095 121.356C272.984 121.92 273.042 122.504 273.263 123.034C273.483 123.564 273.857 124.017 274.335 124.335C274.814 124.653 275.376 124.821 275.95 124.82C276.713 124.809 277.442 124.501 277.982 123.962C278.522 123.422 278.83 122.693 278.84 121.93Z" fill="#F6F0E1"/>
<path d="M311.289 121.93C311.289 121.071 311.035 120.232 310.558 119.519C310.081 118.805 309.403 118.249 308.61 117.92C307.817 117.592 306.945 117.506 306.103 117.673C305.261 117.841 304.488 118.254 303.881 118.861C303.274 119.468 302.86 120.241 302.693 121.083C302.525 121.925 302.611 122.798 302.94 123.591C303.268 124.384 303.824 125.062 304.538 125.538C305.252 126.015 306.091 126.27 306.949 126.27C308.096 126.257 309.193 125.795 310.004 124.984C310.815 124.173 311.276 123.077 311.289 121.93Z" fill="#F6F0E1"/>
<path d="M342.3 121.93C342.3 121.071 342.046 120.232 341.569 119.519C341.092 118.805 340.414 118.249 339.621 117.92C338.828 117.592 337.955 117.506 337.113 117.673C336.272 117.841 335.498 118.254 334.891 118.861C334.284 119.468 333.871 120.241 333.704 121.083C333.536 121.925 333.622 122.798 333.95 123.591C334.279 124.384 334.835 125.062 335.549 125.538C336.263 126.015 337.102 126.27 337.96 126.27C339.107 126.257 340.203 125.795 341.015 124.984C341.826 124.173 342.287 123.077 342.3 121.93Z" fill="#F6F0E1"/>
<path d="M374.75 121.929C374.752 120.783 374.414 119.662 373.778 118.708C373.143 117.755 372.239 117.011 371.18 116.572C370.122 116.132 368.957 116.017 367.833 116.24C366.709 116.463 365.676 117.014 364.866 117.825C364.055 118.635 363.504 119.668 363.281 120.792C363.058 121.916 363.173 123.081 363.613 124.139C364.052 125.198 364.796 126.102 365.749 126.737C366.703 127.373 367.824 127.711 368.97 127.709C370.498 127.693 371.959 127.079 373.04 125.999C374.12 124.918 374.734 123.457 374.75 121.929Z" fill="#F6F0E1"/>
<path d="M405.76 121.929C405.762 120.783 405.424 119.663 404.789 118.709C404.154 117.756 403.25 117.012 402.192 116.573C401.135 116.133 399.97 116.017 398.846 116.239C397.722 116.461 396.69 117.012 395.879 117.821C395.068 118.631 394.516 119.662 394.292 120.786C394.067 121.909 394.182 123.074 394.619 124.132C395.057 125.191 395.8 126.096 396.752 126.732C397.704 127.369 398.824 127.709 399.97 127.709C401.498 127.691 402.959 127.076 404.04 125.997C405.122 124.917 405.739 123.457 405.76 121.929Z" fill="#F6F0E1"/>
<path d="M185.82 90.9217C185.821 90.3473 185.653 89.7852 185.335 89.3068C185.017 88.8284 184.564 88.4551 184.034 88.2344C183.504 88.0137 182.92 87.9554 182.356 88.067C181.793 88.1785 181.275 88.4549 180.869 88.8611C180.463 89.2673 180.186 89.7849 180.075 90.3484C179.963 90.9119 180.021 91.4958 180.242 92.0261C180.463 92.5564 180.836 93.0092 181.315 93.3271C181.793 93.645 182.355 93.8137 182.93 93.8117C183.694 93.8039 184.424 93.4969 184.964 92.9566C185.505 92.4163 185.812 91.6858 185.82 90.9217Z" fill="#F6F0E1"/>
<path d="M212.49 90.9205C212.488 91.2081 212.572 91.4898 212.73 91.7298C212.889 91.9698 213.115 92.1572 213.381 92.2682C213.646 92.3792 213.938 92.4087 214.221 92.3531C214.503 92.2975 214.762 92.1592 214.966 91.9558C215.169 91.7524 215.307 91.4931 215.363 91.2109C215.418 90.9287 215.389 90.6363 215.278 90.371C215.167 90.1056 214.98 89.8793 214.74 89.7207C214.5 89.5621 214.218 89.4785 213.93 89.4805C213.549 89.4831 213.184 89.6357 212.915 89.9052C212.645 90.1746 212.493 90.5394 212.49 90.9205Z" fill="#F6F0E1"/>
<path d="M247.83 90.9212C247.83 90.3497 247.66 89.7909 247.343 89.3156C247.025 88.8404 246.574 88.47 246.046 88.2512C245.518 88.0325 244.937 87.9753 244.376 88.0868C243.815 88.1983 243.3 88.4735 242.896 88.8777C242.492 89.2819 242.217 89.7968 242.105 90.3574C241.994 90.918 242.051 91.4991 242.27 92.0272C242.489 92.5553 242.859 93.0066 243.334 93.3242C243.809 93.6418 244.368 93.8112 244.94 93.8112C245.704 93.8034 246.434 93.4964 246.975 92.9562C247.515 92.4159 247.822 91.6853 247.83 90.9212Z" fill="#F6F0E1"/>
<path d="M278.84 90.9211C278.842 90.3446 278.672 89.7806 278.352 89.3012C278.032 88.8217 277.576 88.4486 277.042 88.2294C276.509 88.0103 275.923 87.955 275.358 88.0707C274.793 88.1864 274.276 88.4679 273.872 88.8791C273.468 89.2903 273.195 89.8126 273.089 90.3793C272.983 90.946 273.049 91.5315 273.277 92.0608C273.506 92.5901 273.887 93.0393 274.372 93.3511C274.857 93.6629 275.424 93.823 276 93.8111C276.755 93.7904 277.473 93.4778 278.003 92.9389C278.532 92.3999 278.833 91.6767 278.84 90.9211Z" fill="#F6F0E1"/>
<path d="M309.85 90.9178C309.852 90.3438 309.683 89.7822 309.366 89.3039C309.048 88.8257 308.596 88.4525 308.067 88.2314C307.537 88.0104 306.953 87.9516 306.39 88.0623C305.827 88.1731 305.309 88.4485 304.903 88.8537C304.496 89.2588 304.219 89.7756 304.106 90.3384C303.994 90.9012 304.05 91.4848 304.27 92.0153C304.489 92.5458 304.86 92.9993 305.338 93.3184C305.815 93.6375 306.376 93.8078 306.95 93.8078C307.715 93.8001 308.446 93.4934 308.988 92.9534C309.53 92.4133 309.839 91.6828 309.85 90.9178Z" fill="#F6F0E1"/>
<path d="M342.3 90.9179C342.3 90.0579 342.045 89.2172 341.566 88.5027C341.087 87.7881 340.407 87.2319 339.612 86.9046C338.816 86.5773 337.942 86.4938 337.099 86.6645C336.256 86.8352 335.482 87.2526 334.877 87.8635C334.272 88.4745 333.862 89.2515 333.699 90.096C333.536 90.9405 333.627 91.8144 333.962 92.6067C334.297 93.399 334.859 94.074 335.578 94.546C336.297 95.0181 337.14 95.2659 338 95.2579C339.14 95.2346 340.226 94.7687 341.029 93.9587C341.831 93.1486 342.287 92.0581 342.3 90.9179Z" fill="#F6F0E1"/>
<path d="M373.3 90.9179C373.3 90.0579 373.045 89.2172 372.566 88.5027C372.087 87.7881 371.407 87.2319 370.612 86.9046C369.816 86.5773 368.942 86.4938 368.099 86.6645C367.256 86.8352 366.482 87.2526 365.877 87.8635C365.272 88.4745 364.862 89.2515 364.699 90.096C364.536 90.9405 364.627 91.8144 364.962 92.6067C365.297 93.399 365.859 94.074 366.578 94.546C367.297 95.0181 368.14 95.2659 369 95.2579C370.14 95.2346 371.226 94.7687 372.029 93.9587C372.831 93.1486 373.287 92.0581 373.3 90.9179Z" fill="#F6F0E1"/>
<path d="M405.76 90.9188C405.76 89.7724 405.419 88.6518 404.782 87.699C404.144 86.7462 403.238 86.0041 402.178 85.5668C401.119 85.1294 399.953 85.0165 398.829 85.2424C397.705 85.4682 396.673 86.0227 395.865 86.8354C395.056 87.6482 394.507 88.6826 394.287 89.8078C394.067 90.9329 394.186 92.098 394.629 93.1554C395.072 94.2129 395.819 95.1151 396.775 95.7477C397.731 96.3802 398.853 96.7148 400 96.7088C401.524 96.6804 402.977 96.0603 404.052 94.9798C405.127 93.8992 405.739 92.4429 405.76 90.9188Z" fill="#F6F0E1"/>
<path d="M243.49 59.9187C243.49 60.2055 243.575 60.4859 243.735 60.7243C243.894 60.9628 244.12 61.1486 244.385 61.2584C244.65 61.3681 244.942 61.3968 245.223 61.3409C245.504 61.2849 245.763 61.1468 245.966 60.9441C246.168 60.7413 246.306 60.4829 246.362 60.2016C246.418 59.9204 246.39 59.6288 246.28 59.3639C246.17 59.0989 245.984 58.8724 245.746 58.7131C245.507 58.5538 245.227 58.4688 244.94 58.4688C244.557 58.4739 244.191 58.6284 243.921 58.8992C243.65 59.17 243.495 59.5358 243.49 59.9187Z" fill="#F6F0E1"/>
<path d="M278.84 59.9211C278.842 59.3446 278.672 58.7806 278.352 58.3012C278.032 57.8217 277.576 57.4486 277.042 57.2294C276.509 57.0103 275.923 56.955 275.358 57.0707C274.793 57.1864 274.276 57.4679 273.872 57.8791C273.468 58.2903 273.195 58.8126 273.089 59.3793C272.983 59.946 273.049 60.5314 273.277 61.0608C273.506 61.5901 273.887 62.0393 274.372 62.3511C274.857 62.6629 275.424 62.823 276 62.8111C276.755 62.788 277.471 62.4745 278 61.9361C278.529 61.3977 278.83 60.6759 278.84 59.9211Z" fill="#F6F0E1"/>
<path d="M309.85 59.9178C309.852 59.3438 309.683 58.7822 309.366 58.3039C309.048 57.8257 308.596 57.4525 308.067 57.2314C307.537 57.0104 306.953 56.9516 306.39 57.0623C305.827 57.1731 305.309 57.4485 304.903 57.8537C304.496 58.2588 304.219 58.7755 304.106 59.3384C303.994 59.9012 304.05 60.4848 304.27 61.0153C304.489 61.5458 304.86 61.9993 305.338 62.3184C305.815 62.6375 306.376 62.8078 306.95 62.8078C307.715 62.8001 308.446 62.4934 308.988 61.9534C309.53 61.4133 309.839 60.6828 309.85 59.9178Z" fill="#F6F0E1"/>
<path d="M340.85 59.921C340.85 59.3477 340.68 58.7874 340.36 58.3113C340.041 57.8352 339.587 57.4649 339.057 57.2474C338.526 57.0298 337.943 56.975 337.382 57.0898C336.82 57.2046 336.305 57.4838 335.903 57.892C335.5 58.3002 335.228 58.8189 335.121 59.3821C335.014 59.9453 335.077 60.5276 335.302 61.0549C335.527 61.5823 335.903 62.0308 336.384 62.3435C336.864 62.6562 337.427 62.8189 338 62.811C338.757 62.7904 339.476 62.4781 340.007 61.9394C340.538 61.4007 340.84 60.6775 340.85 59.921Z" fill="#F6F0E1"/>
<path d="M373.3 59.9201C373.302 59.0596 373.048 58.218 372.571 57.5021C372.093 56.7863 371.414 56.2285 370.619 55.8997C369.823 55.5709 368.948 55.4858 368.105 55.6554C367.261 55.825 366.487 56.2416 365.881 56.8522C365.274 57.4627 364.863 58.2398 364.699 59.0845C364.536 59.9293 364.627 60.8037 364.961 61.5966C365.295 62.3895 365.858 63.0651 366.577 63.5375C367.296 64.01 368.14 64.2581 369 64.2501C370.139 64.2294 371.225 63.7656 372.028 62.9572C372.831 62.1488 373.287 61.0594 373.3 59.9201Z" fill="#F6F0E1"/>
<path d="M404.31 59.9202C404.312 59.0601 404.058 58.2189 403.581 57.5032C403.104 56.7876 402.425 56.2298 401.631 55.9006C400.836 55.5715 399.962 55.4859 399.118 55.6547C398.275 55.8235 397.501 56.239 396.894 56.8486C396.287 57.4582 395.875 58.2343 395.71 59.0784C395.546 59.9225 395.635 60.7966 395.968 61.5896C396.301 62.3827 396.862 63.059 397.58 63.5327C398.297 64.0064 399.14 64.2562 400 64.2502C401.14 64.2295 402.227 63.7661 403.032 62.9579C403.836 62.1498 404.294 61.0604 404.31 59.9202Z" fill="#F6F0E1"/>
<path d="M61.7898 680.05C61.7898 679.479 61.6203 678.92 61.3027 678.445C60.9852 677.969 60.5338 677.599 60.0057 677.38C59.4776 677.161 58.8966 677.104 58.336 677.216C57.7754 677.327 57.2604 677.602 56.8562 678.007C56.4521 678.411 56.1768 678.926 56.0653 679.486C55.9538 680.047 56.011 680.628 56.2298 681.156C56.4485 681.684 56.8189 682.136 57.2942 682.453C57.7694 682.771 58.3282 682.94 58.8998 682.94C59.663 682.93 60.3921 682.622 60.9319 682.082C61.4716 681.543 61.7794 680.813 61.7898 680.05Z" fill="#F6F0E1"/>
<path d="M87 680.048C87 680.622 87.1701 681.183 87.4887 681.66C87.8074 682.136 88.2603 682.508 88.7902 682.728C89.3201 682.947 89.9032 683.005 90.4658 682.893C91.0283 682.781 91.545 682.505 91.9506 682.099C92.3562 681.693 92.6324 681.177 92.7443 680.614C92.8562 680.052 92.7987 679.469 92.5793 678.939C92.3598 678.409 91.9881 677.956 91.5112 677.637C91.0343 677.318 90.4736 677.148 89.9 677.148C89.1333 677.156 88.4002 677.464 87.858 678.006C87.3159 678.549 87.0078 679.282 87 680.048Z" fill="#F6F0E1"/>
<path d="M123.81 680.051C123.812 679.477 123.643 678.915 123.326 678.437C123.008 677.959 122.556 677.585 122.026 677.364C121.497 677.143 120.913 677.084 120.35 677.195C119.787 677.306 119.269 677.581 118.863 677.986C118.456 678.392 118.179 678.908 118.066 679.471C117.954 680.034 118.01 680.618 118.23 681.148C118.449 681.679 118.82 682.132 119.298 682.451C119.775 682.77 120.336 682.941 120.91 682.941C121.675 682.933 122.406 682.626 122.948 682.086C123.49 681.546 123.799 680.816 123.81 680.051Z" fill="#F6F0E1"/>
<path d="M154.81 680.05C154.81 679.479 154.641 678.92 154.323 678.445C154.006 677.969 153.554 677.599 153.026 677.38C152.498 677.161 151.917 677.104 151.356 677.216C150.796 677.327 150.281 677.602 149.877 678.007C149.473 678.411 149.197 678.926 149.086 679.486C148.974 680.047 149.032 680.628 149.25 681.156C149.469 681.684 149.839 682.136 150.315 682.453C150.79 682.771 151.349 682.94 151.92 682.94C152.684 682.93 153.413 682.622 153.952 682.082C154.492 681.543 154.8 680.813 154.81 680.05Z" fill="#F6F0E1"/>
<path d="M185.82 680.051C185.821 679.476 185.653 678.914 185.335 678.436C185.017 677.957 184.564 677.584 184.034 677.363C183.504 677.143 182.92 677.084 182.356 677.196C181.793 677.307 181.275 677.584 180.869 677.99C180.463 678.396 180.186 678.914 180.075 679.477C179.963 680.041 180.021 680.625 180.242 681.155C180.463 681.685 180.836 682.138 181.315 682.456C181.793 682.774 182.355 682.943 182.93 682.941C183.693 682.93 184.422 682.622 184.962 682.083C185.501 681.543 185.809 680.814 185.82 680.051Z" fill="#F6F0E1"/>
<path d="M216.83 680.051C216.832 679.477 216.664 678.915 216.346 678.437C216.029 677.959 215.577 677.585 215.047 677.364C214.517 677.143 213.934 677.084 213.371 677.195C212.807 677.306 212.29 677.581 211.883 677.986C211.477 678.392 211.199 678.908 211.087 679.471C210.974 680.034 211.031 680.618 211.25 681.148C211.469 681.679 211.841 682.132 212.318 682.451C212.795 682.77 213.356 682.941 213.93 682.941C214.695 682.933 215.427 682.626 215.969 682.086C216.511 681.546 216.82 680.816 216.83 680.051Z" fill="#F6F0E1"/>
<path d="M247.83 680.05C247.83 679.479 247.66 678.92 247.343 678.445C247.025 677.969 246.574 677.599 246.046 677.38C245.518 677.161 244.937 677.104 244.376 677.216C243.815 677.327 243.3 677.602 242.896 678.007C242.492 678.411 242.217 678.926 242.105 679.486C241.994 680.047 242.051 680.628 242.27 681.156C242.489 681.684 242.859 682.136 243.334 682.453C243.809 682.771 244.368 682.94 244.94 682.94C245.703 682.93 246.432 682.622 246.972 682.082C247.512 681.543 247.819 680.813 247.83 680.05Z" fill="#F6F0E1"/>
<path d="M278.84 680.051C278.842 679.476 278.673 678.914 278.355 678.436C278.038 677.957 277.585 677.584 277.054 677.363C276.524 677.143 275.94 677.084 275.377 677.196C274.813 677.307 274.296 677.584 273.889 677.99C273.483 678.396 273.207 678.914 273.095 679.477C272.984 680.041 273.042 680.625 273.263 681.155C273.483 681.685 273.857 682.138 274.335 682.456C274.814 682.774 275.376 682.943 275.95 682.941C276.713 682.93 277.442 682.622 277.982 682.083C278.522 681.543 278.83 680.814 278.84 680.051Z" fill="#F6F0E1"/>
<path d="M308.4 680.05C308.402 679.763 308.319 679.481 308.16 679.242C308.002 679.002 307.777 678.814 307.512 678.703C307.247 678.592 306.955 678.562 306.673 678.616C306.391 678.671 306.132 678.809 305.928 679.011C305.724 679.213 305.585 679.472 305.529 679.753C305.472 680.035 305.5 680.327 305.609 680.592C305.719 680.858 305.905 681.085 306.143 681.245C306.382 681.405 306.663 681.49 306.95 681.49C307.332 681.487 307.698 681.335 307.969 681.066C308.24 680.797 308.395 680.432 308.4 680.05Z" fill="#F6F0E1"/>
<path d="M339.41 680.05C339.412 679.763 339.328 679.481 339.17 679.242C339.012 679.002 338.786 678.814 338.522 678.703C338.257 678.592 337.965 678.562 337.683 678.616C337.401 678.671 337.142 678.809 336.938 679.011C336.734 679.213 336.595 679.472 336.538 679.753C336.482 680.035 336.51 680.327 336.619 680.592C336.729 680.858 336.914 681.085 337.153 681.245C337.392 681.405 337.673 681.49 337.96 681.49C338.341 681.485 338.705 681.332 338.976 681.063C339.246 680.794 339.402 680.431 339.41 680.05Z" fill="#F6F0E1"/>
<path d="M371.861 680.051C371.862 679.476 371.694 678.914 371.376 678.436C371.058 677.957 370.605 677.584 370.075 677.363C369.545 677.143 368.961 677.084 368.397 677.196C367.834 677.307 367.316 677.584 366.91 677.99C366.504 678.396 366.227 678.914 366.116 679.477C366.004 680.041 366.062 680.625 366.283 681.155C366.504 681.685 366.877 682.138 367.356 682.456C367.834 682.774 368.396 682.943 368.971 682.941C369.734 682.93 370.463 682.622 371.003 682.083C371.542 681.543 371.85 680.814 371.861 680.051Z" fill="#F6F0E1"/>
<path d="M402.87 680.051C402.872 679.477 402.704 678.915 402.386 678.437C402.069 677.959 401.617 677.585 401.087 677.364C400.557 677.143 399.974 677.084 399.411 677.195C398.848 677.306 398.33 677.581 397.923 677.986C397.517 678.392 397.239 678.908 397.127 679.471C397.014 680.034 397.071 680.618 397.29 681.148C397.509 681.679 397.881 682.132 398.358 682.451C398.835 682.77 399.396 682.941 399.97 682.941C400.735 682.933 401.467 682.626 402.009 682.086C402.551 681.546 402.86 680.816 402.87 680.051Z" fill="#F6F0E1"/>
<path d="M91.3502 649.001C91.3502 648.714 91.2649 648.433 91.1051 648.194C90.9453 647.956 90.7183 647.77 90.4527 647.66C90.1872 647.551 89.8952 647.523 89.6136 647.579C89.3321 647.636 89.0737 647.775 88.8714 647.979C88.669 648.183 88.5317 648.442 88.4768 648.724C88.422 649.006 88.4522 649.298 88.5635 649.563C88.6747 649.827 88.8621 650.053 89.1019 650.211C89.3417 650.369 89.623 650.453 89.9102 650.451C90.2922 650.446 90.657 650.291 90.9262 650.02C91.1954 649.749 91.3476 649.383 91.3502 649.001Z" fill="#F6F0E1"/>
<path d="M122.36 649.001C122.36 648.714 122.275 648.434 122.116 648.195C121.956 647.957 121.73 647.771 121.465 647.661C121.2 647.551 120.908 647.523 120.627 647.579C120.346 647.635 120.087 647.773 119.885 647.975C119.682 648.178 119.544 648.437 119.488 648.718C119.432 648.999 119.461 649.291 119.57 649.556C119.68 649.821 119.866 650.047 120.104 650.206C120.343 650.366 120.623 650.451 120.91 650.451C121.293 650.446 121.659 650.291 121.93 650.02C122.2 649.75 122.355 649.384 122.36 649.001Z" fill="#F6F0E1"/>
<path d="M154.81 648.999C154.81 648.428 154.641 647.869 154.323 647.394C154.006 646.919 153.554 646.548 153.026 646.329C152.498 646.111 151.917 646.053 151.356 646.165C150.796 646.276 150.281 646.552 149.877 646.956C149.473 647.36 149.197 647.875 149.086 648.436C148.974 648.996 149.032 649.577 149.25 650.105C149.469 650.633 149.839 651.085 150.315 651.402C150.79 651.72 151.349 651.889 151.92 651.889C152.684 651.879 153.413 651.571 153.952 651.031C154.492 650.492 154.8 649.763 154.81 648.999Z" fill="#F6F0E1"/>
<path d="M185.82 649C185.821 648.425 185.653 647.863 185.335 647.385C185.017 646.906 184.564 646.533 184.034 646.313C183.504 646.092 182.92 646.034 182.356 646.145C181.793 646.257 181.275 646.533 180.869 646.939C180.463 647.345 180.186 647.863 180.075 648.427C179.963 648.99 180.021 649.574 180.242 650.104C180.463 650.635 180.836 651.087 181.315 651.405C181.793 651.723 182.355 651.892 182.93 651.89C183.693 651.879 184.422 651.572 184.962 651.032C185.501 650.492 185.809 649.763 185.82 649Z" fill="#F6F0E1"/>
<path d="M215.38 649.001C215.38 648.714 215.295 648.434 215.136 648.195C214.977 647.957 214.75 647.771 214.485 647.661C214.22 647.551 213.929 647.523 213.648 647.579C213.366 647.635 213.108 647.773 212.905 647.975C212.702 648.178 212.564 648.437 212.508 648.718C212.452 648.999 212.481 649.291 212.591 649.556C212.701 649.821 212.886 650.047 213.125 650.206C213.363 650.366 213.644 650.451 213.93 650.451C214.313 650.446 214.679 650.291 214.95 650.02C215.221 649.75 215.375 649.384 215.38 649.001Z" fill="#F6F0E1"/>
<path d="M246.39 649.001C246.39 648.714 246.305 648.434 246.146 648.195C245.987 647.957 245.76 647.771 245.495 647.661C245.23 647.551 244.939 647.523 244.657 647.579C244.376 647.635 244.118 647.773 243.915 647.975C243.712 648.178 243.574 648.437 243.518 648.718C243.462 648.999 243.491 649.291 243.601 649.556C243.71 649.821 243.896 650.047 244.135 650.206C244.373 650.366 244.653 650.451 244.94 650.451C245.322 650.443 245.687 650.288 245.957 650.018C246.227 649.747 246.383 649.383 246.39 649.001Z" fill="#F6F0E1"/>
<path d="M278.84 649C278.842 648.425 278.673 647.863 278.355 647.385C278.038 646.906 277.585 646.533 277.054 646.313C276.524 646.092 275.94 646.034 275.377 646.145C274.813 646.257 274.296 646.533 273.889 646.939C273.483 647.345 273.207 647.863 273.095 648.427C272.984 648.99 273.042 649.574 273.263 650.104C273.483 650.635 273.857 651.087 274.335 651.405C274.814 651.723 275.376 651.892 275.95 651.89C276.713 651.879 277.442 651.572 277.982 651.032C278.522 650.492 278.83 649.763 278.84 649Z" fill="#F6F0E1"/>
<path d="M309.85 649C309.852 648.426 309.683 647.864 309.366 647.386C309.048 646.908 308.596 646.535 308.067 646.313C307.537 646.092 306.953 646.034 306.39 646.144C305.827 646.255 305.309 646.531 304.903 646.936C304.496 647.341 304.219 647.858 304.106 648.42C303.994 648.983 304.05 649.567 304.27 650.097C304.489 650.628 304.86 651.081 305.338 651.4C305.815 651.719 306.376 651.89 306.95 651.89C307.715 651.882 308.446 651.575 308.988 651.035C309.53 650.495 309.839 649.765 309.85 649Z" fill="#F6F0E1"/>
<path d="M342.3 649C342.3 648.142 342.046 647.303 341.569 646.589C341.092 645.875 340.414 645.319 339.621 644.991C338.828 644.662 337.955 644.576 337.113 644.744C336.272 644.911 335.498 645.324 334.891 645.931C334.284 646.538 333.871 647.312 333.704 648.153C333.536 648.995 333.622 649.868 333.95 650.661C334.279 651.454 334.835 652.132 335.549 652.609C336.263 653.086 337.102 653.34 337.96 653.34C339.107 653.327 340.203 652.866 341.015 652.055C341.826 651.244 342.287 650.147 342.3 649Z" fill="#F6F0E1"/>
<path d="M374.75 648.999C374.752 647.853 374.414 646.732 373.778 645.779C373.143 644.825 372.239 644.081 371.18 643.642C370.122 643.202 368.957 643.087 367.833 643.31C366.709 643.533 365.676 644.085 364.866 644.895C364.055 645.705 363.504 646.738 363.281 647.862C363.058 648.986 363.173 650.151 363.613 651.21C364.052 652.268 364.796 653.172 365.749 653.808C366.703 654.443 367.824 654.781 368.97 654.779C370.498 654.764 371.959 654.15 373.04 653.069C374.12 651.988 374.734 650.527 374.75 648.999Z" fill="#F6F0E1"/>
<path d="M404.31 649C404.31 648.142 404.055 647.303 403.578 646.589C403.102 645.875 402.424 645.319 401.631 644.991C400.838 644.662 399.965 644.576 399.123 644.744C398.281 644.911 397.508 645.324 396.901 645.931C396.294 646.538 395.881 647.312 395.713 648.153C395.546 648.995 395.632 649.868 395.96 650.661C396.289 651.454 396.845 652.132 397.559 652.609C398.272 653.086 399.112 653.34 399.97 653.34C401.117 653.327 402.213 652.866 403.024 652.055C403.835 651.244 404.297 650.147 404.31 649Z" fill="#F6F0E1"/>
<path d="M122.36 618.001C122.36 617.714 122.275 617.434 122.116 617.195C121.956 616.957 121.73 616.771 121.465 616.661C121.2 616.551 120.908 616.523 120.627 616.579C120.346 616.635 120.087 616.773 119.885 616.975C119.682 617.178 119.544 617.437 119.488 617.718C119.432 617.999 119.461 618.291 119.57 618.556C119.68 618.821 119.866 619.047 120.104 619.206C120.343 619.366 120.623 619.451 120.91 619.451C121.294 619.448 121.661 619.295 121.932 619.023C122.204 618.752 122.357 618.385 122.36 618.001Z" fill="#F6F0E1"/>
<path d="M154.81 618.001C154.808 617.43 154.637 616.872 154.318 616.398C154 615.924 153.548 615.555 153.019 615.338C152.491 615.121 151.91 615.065 151.35 615.178C150.79 615.29 150.276 615.566 149.873 615.971C149.47 616.376 149.196 616.891 149.085 617.451C148.974 618.011 149.032 618.592 149.251 619.119C149.47 619.647 149.841 620.098 150.316 620.415C150.791 620.732 151.349 620.901 151.92 620.901C152.685 620.891 153.416 620.581 153.956 620.04C154.496 619.498 154.802 618.766 154.81 618.001Z" fill="#F6F0E1"/>
<path d="M187.26 618C187.26 617.141 187.005 616.302 186.528 615.588C186.051 614.874 185.372 614.318 184.579 613.99C183.785 613.661 182.912 613.576 182.07 613.744C181.228 613.913 180.454 614.327 179.848 614.935C179.241 615.543 178.829 616.317 178.662 617.16C178.496 618.002 178.583 618.875 178.913 619.668C179.243 620.461 179.801 621.138 180.516 621.614C181.231 622.089 182.071 622.342 182.93 622.34C184.075 622.325 185.169 621.862 185.978 621.051C186.787 620.24 187.247 619.145 187.26 618Z" fill="#F6F0E1"/>
<path d="M216.83 618.002C216.83 617.428 216.66 616.867 216.342 616.39C216.023 615.914 215.57 615.542 215.04 615.322C214.51 615.103 213.927 615.045 213.365 615.157C212.802 615.269 212.285 615.545 211.88 615.951C211.474 616.357 211.198 616.873 211.086 617.436C210.974 617.998 211.032 618.581 211.251 619.111C211.471 619.641 211.842 620.094 212.319 620.413C212.796 620.731 213.357 620.902 213.93 620.902C214.697 620.894 215.43 620.586 215.972 620.044C216.514 619.501 216.822 618.768 216.83 618.002Z" fill="#F6F0E1"/>
<path d="M246.39 618.001C246.39 617.714 246.305 617.434 246.146 617.195C245.987 616.957 245.76 616.771 245.495 616.661C245.23 616.551 244.939 616.523 244.657 616.579C244.376 616.635 244.118 616.773 243.915 616.975C243.712 617.178 243.574 617.437 243.518 617.718C243.462 617.999 243.491 618.291 243.601 618.556C243.71 618.821 243.896 619.047 244.135 619.206C244.373 619.366 244.653 619.451 244.94 619.451C245.323 619.446 245.689 619.291 245.96 619.02C246.231 618.75 246.385 618.384 246.39 618.001Z" fill="#F6F0E1"/>
<path d="M277.39 618.001C277.39 617.714 277.305 617.433 277.145 617.194C276.985 616.956 276.758 616.77 276.493 616.66C276.227 616.551 275.935 616.523 275.654 616.579C275.372 616.636 275.114 616.775 274.911 616.979C274.709 617.183 274.572 617.442 274.517 617.724C274.462 618.006 274.492 618.298 274.603 618.563C274.715 618.827 274.902 619.053 275.142 619.211C275.382 619.369 275.663 619.453 275.95 619.451C276.332 619.446 276.697 619.291 276.966 619.02C277.235 618.749 277.388 618.383 277.39 618.001Z" fill="#F6F0E1"/>
<path d="M309.85 618.002C309.85 617.428 309.68 616.867 309.361 616.39C309.042 615.914 308.59 615.542 308.06 615.322C307.53 615.103 306.947 615.045 306.384 615.157C305.822 615.269 305.305 615.545 304.899 615.951C304.494 616.357 304.217 616.873 304.106 617.436C303.994 617.998 304.051 618.581 304.271 619.111C304.49 619.641 304.862 620.094 305.339 620.413C305.816 620.731 306.376 620.902 306.95 620.902C307.717 620.894 308.45 620.586 308.992 620.044C309.534 619.501 309.842 618.768 309.85 618.002Z" fill="#F6F0E1"/>
<path d="M340.85 618.001C340.848 617.43 340.677 616.872 340.358 616.398C340.04 615.924 339.588 615.555 339.059 615.338C338.531 615.121 337.95 615.065 337.39 615.178C336.83 615.29 336.316 615.566 335.913 615.971C335.51 616.376 335.236 616.891 335.125 617.451C335.014 618.011 335.072 618.592 335.291 619.119C335.51 619.647 335.881 620.098 336.356 620.415C336.831 620.732 337.389 620.901 337.96 620.901C338.725 620.891 339.456 620.581 339.996 620.04C340.536 619.498 340.843 618.766 340.85 618.001Z" fill="#F6F0E1"/>
<path d="M371.861 618.002C371.861 617.428 371.69 616.866 371.371 616.389C371.052 615.912 370.599 615.541 370.068 615.321C369.538 615.102 368.954 615.045 368.391 615.158C367.828 615.271 367.312 615.548 366.906 615.954C366.501 616.361 366.226 616.879 366.115 617.442C366.004 618.005 366.063 618.588 366.284 619.118C366.505 619.648 366.878 620.1 367.357 620.418C367.835 620.735 368.397 620.904 368.971 620.902C369.736 620.891 370.466 620.582 371.006 620.04C371.546 619.498 371.853 618.767 371.861 618.002Z" fill="#F6F0E1"/>
<path d="M402.87 618.002C402.87 617.428 402.7 616.867 402.382 616.39C402.063 615.914 401.61 615.542 401.08 615.322C400.55 615.103 399.967 615.045 399.405 615.157C398.842 615.269 398.325 615.545 397.92 615.951C397.514 616.357 397.238 616.873 397.126 617.436C397.014 617.998 397.072 618.581 397.291 619.111C397.511 619.641 397.882 620.094 398.359 620.413C398.836 620.731 399.397 620.902 399.97 620.902C400.737 620.894 401.47 620.586 402.012 620.044C402.554 619.501 402.862 618.768 402.87 618.002Z" fill="#F6F0E1"/>
<path d="M184.37 586.999C184.372 586.711 184.288 586.43 184.13 586.19C183.971 585.95 183.745 585.762 183.479 585.651C183.214 585.54 182.922 585.511 182.639 585.566C182.357 585.622 182.098 585.76 181.894 585.964C181.691 586.167 181.553 586.426 181.497 586.709C181.441 586.991 181.471 587.283 181.582 587.549C181.693 587.814 181.88 588.04 182.12 588.199C182.36 588.357 182.642 588.441 182.93 588.439C183.311 588.436 183.676 588.284 183.945 588.014C184.215 587.745 184.367 587.38 184.37 586.999Z" fill="#F6F0E1"/>
<path d="M216.83 587C216.832 586.426 216.664 585.864 216.346 585.386C216.029 584.908 215.577 584.535 215.047 584.313C214.517 584.092 213.934 584.034 213.371 584.144C212.807 584.255 212.29 584.531 211.883 584.936C211.477 585.341 211.199 585.858 211.087 586.42C210.974 586.983 211.031 587.567 211.25 588.097C211.469 588.628 211.841 589.081 212.318 589.4C212.795 589.719 213.356 589.89 213.93 589.89C214.695 589.882 215.427 589.575 215.969 589.035C216.511 588.495 216.82 587.765 216.83 587Z" fill="#F6F0E1"/>
<path d="M247.83 586.999C247.83 586.428 247.66 585.869 247.343 585.394C247.025 584.919 246.574 584.548 246.046 584.329C245.518 584.111 244.937 584.053 244.376 584.165C243.815 584.276 243.3 584.552 242.896 584.956C242.492 585.36 242.217 585.875 242.105 586.436C241.994 586.996 242.051 587.577 242.27 588.105C242.489 588.633 242.859 589.085 243.334 589.402C243.809 589.72 244.368 589.889 244.94 589.889C245.703 589.879 246.432 589.571 246.972 589.031C247.512 588.492 247.819 587.763 247.83 586.999Z" fill="#F6F0E1"/>
<path d="M277.39 586.999C277.392 586.711 277.309 586.43 277.15 586.19C276.991 585.95 276.765 585.762 276.5 585.651C276.234 585.54 275.942 585.511 275.66 585.566C275.378 585.622 275.118 585.76 274.915 585.964C274.712 586.167 274.573 586.426 274.518 586.709C274.462 586.991 274.492 587.283 274.603 587.549C274.713 587.814 274.901 588.04 275.141 588.199C275.381 588.357 275.663 588.441 275.95 588.439C276.331 588.436 276.696 588.284 276.966 588.014C277.235 587.745 277.388 587.38 277.39 586.999Z" fill="#F6F0E1"/>
<path d="M308.4 586.999C308.402 586.712 308.319 586.431 308.16 586.191C308.002 585.951 307.777 585.764 307.512 585.652C307.247 585.541 306.955 585.511 306.673 585.566C306.391 585.621 306.132 585.758 305.928 585.96C305.724 586.163 305.585 586.421 305.529 586.702C305.472 586.984 305.5 587.276 305.609 587.542C305.719 587.807 305.905 588.034 306.143 588.194C306.382 588.354 306.663 588.439 306.95 588.439C307.332 588.436 307.698 588.284 307.969 588.015C308.24 587.746 308.395 587.381 308.4 586.999Z" fill="#F6F0E1"/>
<path d="M340.85 586.999C340.85 586.428 340.681 585.869 340.363 585.394C340.046 584.919 339.594 584.548 339.066 584.329C338.538 584.111 337.957 584.053 337.397 584.165C336.836 584.276 336.321 584.552 335.917 584.956C335.513 585.36 335.237 585.875 335.126 586.436C335.014 586.996 335.072 587.577 335.29 588.105C335.509 588.633 335.879 589.085 336.355 589.402C336.83 589.72 337.389 589.889 337.96 589.889C338.724 589.879 339.453 589.571 339.992 589.031C340.532 588.492 340.84 587.763 340.85 586.999Z" fill="#F6F0E1"/>
<path d="M371.861 587C371.862 586.425 371.694 585.863 371.376 585.385C371.058 584.906 370.605 584.533 370.075 584.313C369.545 584.092 368.961 584.034 368.397 584.145C367.834 584.257 367.316 584.533 366.91 584.939C366.504 585.345 366.227 585.863 366.116 586.427C366.004 586.99 366.062 587.574 366.283 588.104C366.504 588.635 366.877 589.087 367.356 589.405C367.834 589.723 368.396 589.892 368.971 589.89C369.734 589.879 370.463 589.572 371.003 589.032C371.542 588.492 371.85 587.763 371.861 587Z" fill="#F6F0E1"/>
<path d="M402.87 587C402.872 586.426 402.704 585.864 402.386 585.386C402.069 584.908 401.617 584.535 401.087 584.313C400.557 584.092 399.974 584.034 399.411 584.144C398.848 584.255 398.33 584.531 397.923 584.936C397.517 585.341 397.239 585.858 397.127 586.42C397.014 586.983 397.071 587.567 397.29 588.097C397.509 588.628 397.881 589.081 398.358 589.4C398.835 589.719 399.396 589.89 399.97 589.89C400.735 589.882 401.467 589.575 402.009 589.035C402.551 588.495 402.86 587.765 402.87 587Z" fill="#F6F0E1"/>
<path d="M371.861 556C371.862 555.425 371.694 554.863 371.376 554.385C371.058 553.906 370.605 553.533 370.075 553.313C369.545 553.092 368.961 553.034 368.397 553.145C367.834 553.257 367.316 553.533 366.91 553.939C366.504 554.345 366.227 554.863 366.116 555.427C366.004 555.99 366.062 556.574 366.283 557.104C366.504 557.635 366.877 558.087 367.356 558.405C367.834 558.723 368.396 558.892 368.971 558.89C369.734 558.879 370.463 558.572 371.003 558.032C371.542 557.492 371.85 556.763 371.861 556Z" fill="#F6F0E1"/>
<path d="M402.87 556C402.872 555.426 402.704 554.864 402.386 554.386C402.069 553.908 401.617 553.535 401.087 553.313C400.557 553.092 399.974 553.034 399.411 553.144C398.848 553.255 398.33 553.531 397.923 553.936C397.517 554.341 397.239 554.858 397.127 555.42C397.014 555.983 397.071 556.567 397.29 557.097C397.509 557.628 397.881 558.081 398.358 558.4C398.835 558.719 399.396 558.89 399.97 558.89C400.735 558.882 401.467 558.575 402.009 558.035C402.551 557.495 402.86 556.765 402.87 556Z" fill="#F6F0E1"/>
<path d="M404.31 525C404.31 524.142 404.055 523.303 403.578 522.589C403.102 521.875 402.424 521.319 401.631 520.991C400.838 520.662 399.965 520.576 399.123 520.744C398.281 520.911 397.508 521.324 396.901 521.931C396.294 522.538 395.881 523.312 395.713 524.153C395.546 524.995 395.632 525.868 395.96 526.661C396.289 527.454 396.845 528.132 397.559 528.609C398.272 529.086 399.112 529.34 399.97 529.34C401.117 529.327 402.213 528.866 403.024 528.055C403.835 527.244 404.297 526.147 404.31 525Z" fill="#F6F0E1"/>
<path d="M308.4 493.999C308.402 493.712 308.319 493.431 308.16 493.191C308.002 492.951 307.777 492.764 307.512 492.652C307.247 492.541 306.955 492.511 306.673 492.566C306.391 492.621 306.132 492.758 305.928 492.96C305.724 493.163 305.585 493.421 305.529 493.702C305.472 493.984 305.5 494.276 305.609 494.542C305.719 494.807 305.905 495.034 306.143 495.194C306.382 495.354 306.663 495.439 306.95 495.439C307.332 495.436 307.698 495.284 307.969 495.015C308.24 494.746 308.395 494.381 308.4 493.999Z" fill="#F6F0E1"/>
<path d="M339.41 493.999C339.412 493.712 339.328 493.431 339.17 493.191C339.012 492.951 338.786 492.764 338.522 492.652C338.257 492.541 337.965 492.511 337.683 492.566C337.401 492.621 337.142 492.758 336.938 492.96C336.734 493.163 336.595 493.421 336.538 493.702C336.482 493.984 336.51 494.276 336.619 494.542C336.729 494.807 336.914 495.034 337.153 495.194C337.392 495.354 337.673 495.439 337.96 495.439C338.341 495.434 338.705 495.281 338.976 495.012C339.246 494.744 339.402 494.38 339.41 493.999Z" fill="#F6F0E1"/>
<path d="M371.861 494.001C371.86 493.426 371.689 492.864 371.369 492.386C371.048 491.908 370.593 491.537 370.061 491.318C369.529 491.1 368.944 491.045 368.38 491.16C367.816 491.275 367.3 491.556 366.896 491.965C366.492 492.375 366.219 492.895 366.111 493.46C366.004 494.026 366.067 494.61 366.293 495.139C366.519 495.668 366.896 496.118 367.379 496.432C367.861 496.746 368.425 496.909 369.001 496.901C369.76 496.883 370.483 496.571 371.017 496.03C371.55 495.488 371.853 494.761 371.861 494.001Z" fill="#F6F0E1"/>
<path d="M404.31 494C404.31 493.142 404.055 492.303 403.578 491.589C403.102 490.875 402.424 490.319 401.631 489.991C400.838 489.662 399.965 489.576 399.123 489.744C398.281 489.911 397.508 490.324 396.901 490.931C396.294 491.538 395.881 492.312 395.713 493.153C395.546 493.995 395.632 494.868 395.96 495.661C396.289 496.454 396.845 497.132 397.559 497.609C398.272 498.086 399.112 498.34 399.97 498.34C401.117 498.327 402.213 497.866 403.024 497.055C403.835 496.244 404.297 495.147 404.31 494Z" fill="#F6F0E1"/>
<path d="M339.41 897.091C339.41 896.804 339.325 896.524 339.165 896.285C339.006 896.047 338.78 895.861 338.515 895.751C338.25 895.641 337.958 895.613 337.677 895.668C337.396 895.724 337.137 895.863 336.934 896.065C336.732 896.268 336.594 896.526 336.538 896.808C336.482 897.089 336.51 897.381 336.62 897.646C336.73 897.91 336.916 898.137 337.154 898.296C337.393 898.456 337.673 898.541 337.96 898.541C338.342 898.533 338.706 898.378 338.977 898.107C339.247 897.837 339.402 897.473 339.41 897.091Z" fill="#F6F0E1"/>
<path d="M371.861 897.089C371.858 896.514 371.686 895.953 371.364 895.476C371.042 895 370.586 894.63 370.054 894.413C369.522 894.197 368.937 894.143 368.374 894.259C367.811 894.376 367.295 894.656 366.892 895.066C366.489 895.476 366.217 895.997 366.111 896.562C366.004 897.127 366.068 897.71 366.294 898.239C366.52 898.768 366.898 899.217 367.38 899.53C367.862 899.844 368.426 900.007 369.001 899.999C369.763 899.983 370.489 899.67 371.023 899.126C371.558 898.583 371.858 897.851 371.861 897.089Z" fill="#F6F0E1"/>
<path d="M404.31 897.09C404.31 896.232 404.055 895.393 403.578 894.679C403.102 893.965 402.424 893.409 401.631 893.08C400.838 892.752 399.965 892.666 399.123 892.833C398.281 893.001 397.508 893.414 396.901 894.021C396.294 894.628 395.881 895.401 395.713 896.243C395.546 897.085 395.632 897.958 395.96 898.751C396.289 899.544 396.845 900.222 397.559 900.699C398.272 901.176 399.112 901.43 399.97 901.43C401.117 901.417 402.213 900.956 403.024 900.144C403.835 899.333 404.297 898.237 404.31 897.09Z" fill="#F6F0E1"/>
<path d="M370.41 866.079C370.41 865.792 370.324 865.511 370.165 865.272C370.005 865.034 369.778 864.848 369.512 864.738C369.247 864.629 368.955 864.601 368.673 864.658C368.392 864.714 368.133 864.853 367.931 865.057C367.729 865.261 367.591 865.52 367.536 865.802C367.482 866.084 367.512 866.376 367.623 866.641C367.734 866.905 367.922 867.131 368.161 867.289C368.401 867.448 368.683 867.531 368.97 867.529C369.352 867.524 369.717 867.369 369.986 867.098C370.255 866.827 370.407 866.461 370.41 866.079Z" fill="#F6F0E1"/>
<path d="M402.87 866.079C402.866 865.505 402.692 864.945 402.37 864.47C402.047 863.995 401.591 863.627 401.059 863.411C400.527 863.196 399.943 863.143 399.381 863.26C398.819 863.376 398.304 863.657 397.902 864.066C397.5 864.476 397.228 864.995 397.121 865.559C397.014 866.123 397.077 866.706 397.302 867.234C397.526 867.763 397.903 868.212 398.383 868.526C398.863 868.84 399.426 869.005 400 868.999C400.765 868.983 401.494 868.669 402.03 868.124C402.566 867.578 402.868 866.844 402.87 866.079Z" fill="#F6F0E1"/>
<path d="M401.42 835.081C401.421 834.794 401.338 834.513 401.18 834.273C401.022 834.033 400.796 833.846 400.531 833.734C400.267 833.623 399.975 833.593 399.693 833.648C399.411 833.703 399.152 833.84 398.948 834.042C398.744 834.245 398.605 834.503 398.548 834.785C398.491 835.066 398.519 835.358 398.629 835.624C398.738 835.889 398.924 836.116 399.163 836.276C399.402 836.436 399.682 836.521 399.969 836.521C400.352 836.519 400.717 836.366 400.988 836.097C401.259 835.828 401.414 835.463 401.42 835.081Z" fill="#F6F0E1"/>
<path d="M57.4502 742.059C57.4502 742.346 57.5352 742.627 57.6946 742.865C57.8539 743.103 58.0803 743.289 58.3453 743.399C58.6103 743.509 58.9018 743.537 59.1831 743.482C59.4643 743.426 59.7227 743.288 59.9255 743.085C60.1283 742.882 60.2664 742.624 60.3223 742.342C60.3783 742.061 60.3496 741.769 60.2398 741.505C60.1301 741.24 59.9442 741.013 59.7058 740.854C59.4673 740.694 59.187 740.609 58.9002 740.609C58.518 740.617 58.1537 740.772 57.8834 741.043C57.6131 741.313 57.4579 741.677 57.4502 742.059Z" fill="#F6F0E1"/>
<path d="M87 742.062C86.998 742.636 87.1664 743.198 87.4839 743.676C87.8013 744.154 88.2536 744.527 88.7833 744.748C89.313 744.969 89.8964 745.028 90.4596 744.917C91.0228 744.807 91.5405 744.531 91.9471 744.126C92.3536 743.721 92.6308 743.204 92.7435 742.641C92.8562 742.079 92.7994 741.495 92.5802 740.964C92.361 740.434 91.9893 739.98 91.5122 739.661C91.0351 739.342 90.474 739.172 89.9 739.172C89.135 739.18 88.4034 739.486 87.8615 740.026C87.3196 740.566 87.0104 741.297 87 742.062Z" fill="#F6F0E1"/>
<path d="M125.25 742.059C125.25 741.2 124.996 740.361 124.519 739.648C124.042 738.934 123.364 738.378 122.571 738.049C121.778 737.721 120.906 737.635 120.064 737.802C119.222 737.97 118.448 738.383 117.841 738.99C117.235 739.597 116.821 740.37 116.654 741.212C116.486 742.054 116.572 742.927 116.901 743.72C117.229 744.513 117.785 745.19 118.499 745.667C119.213 746.144 120.052 746.399 120.91 746.399C122.057 746.386 123.154 745.924 123.965 745.113C124.776 744.302 125.237 743.206 125.25 742.059Z" fill="#F6F0E1"/>
<path d="M156.26 742.059C156.26 741.2 156.006 740.361 155.529 739.648C155.052 738.934 154.374 738.378 153.581 738.049C152.788 737.721 151.915 737.635 151.073 737.802C150.232 737.97 149.458 738.383 148.851 738.99C148.244 739.597 147.831 740.37 147.663 741.212C147.496 742.054 147.582 742.927 147.91 743.72C148.239 744.513 148.795 745.19 149.509 745.667C150.223 746.144 151.062 746.399 151.92 746.399C153.067 746.386 154.163 745.924 154.975 745.113C155.786 744.302 156.247 743.206 156.26 742.059Z" fill="#F6F0E1"/>
<path d="M185.82 742.058C185.821 741.484 185.653 740.922 185.335 740.443C185.017 739.965 184.564 739.592 184.034 739.371C183.504 739.15 182.92 739.092 182.356 739.204C181.793 739.315 181.275 739.592 180.869 739.998C180.463 740.404 180.186 740.922 180.075 741.485C179.963 742.049 180.021 742.633 180.242 743.163C180.463 743.693 180.836 744.146 181.315 744.464C181.793 744.782 182.355 744.95 182.93 744.948C183.693 744.938 184.422 744.63 184.962 744.091C185.501 743.551 185.809 742.822 185.82 742.058Z" fill="#F6F0E1"/>
<path d="M215.38 742.062C215.382 741.774 215.299 741.493 215.141 741.253C214.983 741.014 214.757 740.826 214.492 740.715C214.228 740.604 213.936 740.573 213.654 740.628C213.372 740.683 213.113 740.82 212.909 741.023C212.705 741.225 212.566 741.483 212.509 741.765C212.452 742.047 212.48 742.339 212.59 742.604C212.699 742.87 212.885 743.097 213.124 743.257C213.362 743.416 213.643 743.502 213.93 743.502C214.312 743.499 214.678 743.347 214.949 743.078C215.22 742.808 215.375 742.444 215.38 742.062Z" fill="#F6F0E1"/>
<path d="M246.39 742.062C246.392 741.774 246.309 741.493 246.151 741.253C245.993 741.014 245.767 740.826 245.502 740.715C245.237 740.604 244.945 740.573 244.664 740.628C244.382 740.683 244.122 740.82 243.918 741.023C243.715 741.225 243.576 741.483 243.519 741.765C243.462 742.047 243.49 742.339 243.6 742.604C243.709 742.87 243.895 743.097 244.134 743.257C244.372 743.416 244.653 743.502 244.94 743.502C245.321 743.496 245.686 743.343 245.956 743.075C246.227 742.806 246.382 742.443 246.39 742.062Z" fill="#F6F0E1"/>
<path d="M278.84 742.059C278.832 741.484 278.653 740.925 278.327 740.452C278.001 739.98 277.542 739.614 277.008 739.403C276.474 739.191 275.889 739.143 275.327 739.265C274.766 739.386 274.253 739.671 273.854 740.084C273.455 740.497 273.188 741.02 273.086 741.585C272.984 742.15 273.052 742.733 273.282 743.26C273.512 743.786 273.893 744.232 274.377 744.542C274.861 744.851 275.426 745.01 276 744.999C276.763 744.975 277.487 744.655 278.017 744.106C278.548 743.557 278.843 742.822 278.84 742.059Z" fill="#F6F0E1"/>
<path d="M309.851 742.059C309.843 741.485 309.664 740.926 309.339 740.454C309.013 739.981 308.554 739.616 308.021 739.404C307.487 739.192 306.903 739.143 306.342 739.264C305.781 739.384 305.268 739.669 304.869 740.081C304.469 740.493 304.201 741.014 304.098 741.579C303.995 742.144 304.062 742.726 304.29 743.253C304.518 743.779 304.898 744.226 305.38 744.537C305.863 744.848 306.427 745.009 307 744.999C307.765 744.978 308.492 744.659 309.024 744.109C309.557 743.56 309.853 742.824 309.851 742.059Z" fill="#F6F0E1"/>
<path d="M340.85 742.058C340.84 741.487 340.661 740.932 340.336 740.463C340.01 739.993 339.553 739.631 339.022 739.421C338.491 739.211 337.909 739.163 337.351 739.284C336.793 739.404 336.283 739.687 335.885 740.097C335.488 740.507 335.221 741.026 335.118 741.588C335.015 742.15 335.081 742.729 335.307 743.254C335.533 743.778 335.91 744.224 336.389 744.534C336.868 744.845 337.429 745.006 338 744.998C338.765 744.978 339.491 744.658 340.024 744.109C340.556 743.56 340.853 742.824 340.85 742.058Z" fill="#F6F0E1"/>
<path d="M370.41 742.061C370.412 741.772 370.327 741.489 370.167 741.249C370.007 741.008 369.779 740.821 369.512 740.711C369.245 740.601 368.951 740.573 368.668 740.631C368.385 740.689 368.126 740.831 367.924 741.037C367.722 741.244 367.586 741.506 367.534 741.79C367.481 742.074 367.515 742.367 367.631 742.632C367.747 742.897 367.939 743.121 368.182 743.276C368.426 743.431 368.711 743.509 369 743.501C369.376 743.491 369.733 743.335 369.996 743.066C370.259 742.797 370.407 742.437 370.41 742.061Z" fill="#F6F0E1"/>
<path d="M401.42 742.061C401.421 741.773 401.337 741.49 401.178 741.25C401.018 741.01 400.791 740.822 400.524 740.712C400.258 740.601 399.964 740.573 399.682 740.63C399.399 740.688 399.14 740.828 398.937 741.033C398.735 741.239 398.598 741.5 398.545 741.783C398.491 742.067 398.524 742.36 398.638 742.625C398.752 742.89 398.942 743.115 399.185 743.271C399.427 743.427 399.711 743.507 400 743.501C400.376 743.491 400.735 743.335 400.999 743.067C401.264 742.799 401.414 742.438 401.42 742.061Z" fill="#F6F0E1"/>
<path d="M60.3502 711.052C60.3502 710.765 60.2652 710.484 60.1058 710.246C59.9465 710.008 59.72 709.822 59.4551 709.712C59.1901 709.602 58.8986 709.573 58.6173 709.629C58.336 709.685 58.0777 709.823 57.8749 710.026C57.6721 710.229 57.534 710.487 57.4781 710.769C57.4221 711.05 57.4508 711.342 57.5606 711.606C57.6703 711.871 57.8562 712.098 58.0946 712.257C58.3331 712.416 58.6134 712.502 58.9002 712.502C59.2824 712.494 59.6467 712.339 59.917 712.068C60.1873 711.798 60.3425 711.434 60.3502 711.052Z" fill="#F6F0E1"/>
<path d="M88.46 711.049C88.458 711.337 88.5414 711.618 88.6995 711.858C88.8576 712.097 89.0834 712.285 89.3481 712.396C89.6129 712.507 89.9048 712.538 90.1867 712.483C90.4686 712.428 90.7279 712.291 90.9317 712.088C91.1355 711.886 91.2746 711.627 91.3314 711.346C91.3881 711.064 91.36 710.772 91.2506 710.507C91.1411 710.241 90.9553 710.014 90.7166 709.854C90.4779 709.695 90.1972 709.609 89.91 709.609C89.528 709.612 89.1621 709.764 88.8911 710.033C88.62 710.303 88.4652 710.667 88.46 711.049Z" fill="#F6F0E1"/>
<path d="M119.47 711.049C119.468 711.337 119.551 711.619 119.71 711.859C119.869 712.099 120.095 712.286 120.36 712.397C120.626 712.508 120.918 712.538 121.2 712.482C121.482 712.426 121.742 712.288 121.945 712.085C122.148 711.881 122.287 711.622 122.342 711.34C122.398 711.058 122.368 710.765 122.257 710.5C122.146 710.235 121.959 710.008 121.719 709.85C121.479 709.691 121.197 709.607 120.91 709.609C120.529 709.612 120.164 709.765 119.894 710.034C119.625 710.304 119.472 710.668 119.47 711.049Z" fill="#F6F0E1"/>
<path d="M154.81 711.05C154.81 710.479 154.641 709.92 154.323 709.445C154.006 708.969 153.554 708.599 153.026 708.38C152.498 708.161 151.917 708.104 151.356 708.216C150.796 708.327 150.281 708.602 149.877 709.007C149.473 709.411 149.197 709.926 149.086 710.486C148.974 711.047 149.032 711.628 149.25 712.156C149.469 712.684 149.839 713.136 150.315 713.453C150.79 713.771 151.349 713.94 151.92 713.94C152.684 713.932 153.415 713.625 153.955 713.085C154.495 712.545 154.802 711.814 154.81 711.05Z" fill="#F6F0E1"/>
<path d="M184.37 711.051C184.37 710.764 184.284 710.484 184.125 710.245C183.965 710.006 183.738 709.82 183.472 709.711C183.207 709.602 182.915 709.573 182.633 709.63C182.352 709.687 182.093 709.826 181.891 710.03C181.688 710.234 181.551 710.493 181.496 710.775C181.442 711.057 181.472 711.349 181.583 711.613C181.694 711.878 181.882 712.104 182.121 712.262C182.361 712.42 182.643 712.503 182.93 712.502C183.312 712.496 183.676 712.341 183.946 712.07C184.215 711.799 184.367 711.434 184.37 711.051Z" fill="#F6F0E1"/>
<path d="M216.83 711.051C216.832 710.477 216.664 709.915 216.346 709.437C216.029 708.959 215.577 708.585 215.047 708.364C214.517 708.143 213.934 708.084 213.371 708.195C212.807 708.306 212.29 708.581 211.883 708.986C211.477 709.392 211.199 709.908 211.087 710.471C210.974 711.034 211.031 711.618 211.25 712.148C211.469 712.679 211.841 713.132 212.318 713.451C212.795 713.77 213.356 713.941 213.93 713.941C214.695 713.933 215.427 713.626 215.969 713.086C216.511 712.546 216.82 711.816 216.83 711.051Z" fill="#F6F0E1"/>
<path d="M247.83 711.05C247.83 710.479 247.66 709.92 247.343 709.445C247.025 708.969 246.574 708.599 246.046 708.38C245.518 708.161 244.937 708.104 244.376 708.216C243.815 708.327 243.3 708.602 242.896 709.007C242.492 709.411 242.217 709.926 242.105 710.486C241.994 711.047 242.051 711.628 242.27 712.156C242.489 712.684 242.859 713.136 243.334 713.453C243.809 713.771 244.368 713.94 244.94 713.94C245.704 713.932 246.434 713.625 246.975 713.085C247.515 712.545 247.822 711.814 247.83 711.05Z" fill="#F6F0E1"/>
<path d="M278.84 711.051C278.842 710.476 278.673 709.914 278.355 709.436C278.038 708.957 277.585 708.584 277.054 708.363C276.524 708.143 275.94 708.084 275.377 708.196C274.813 708.307 274.296 708.584 273.889 708.99C273.483 709.396 273.207 709.914 273.095 710.477C272.984 711.041 273.042 711.625 273.263 712.155C273.483 712.685 273.857 713.138 274.335 713.456C274.814 713.774 275.376 713.943 275.95 713.941C276.714 713.933 277.445 713.626 277.985 713.086C278.525 712.545 278.832 711.815 278.84 711.051Z" fill="#F6F0E1"/>
<path d="M309.85 711.051C309.852 710.477 309.683 709.915 309.366 709.437C309.048 708.959 308.596 708.585 308.067 708.364C307.537 708.143 306.953 708.084 306.39 708.195C305.827 708.306 305.309 708.581 304.903 708.986C304.496 709.392 304.219 709.908 304.106 710.471C303.994 711.034 304.05 711.618 304.27 712.148C304.489 712.679 304.86 713.132 305.338 713.451C305.815 713.77 306.376 713.941 306.95 713.941C307.715 713.933 308.446 713.626 308.988 713.086C309.53 712.546 309.839 711.816 309.85 711.051Z" fill="#F6F0E1"/>
<path d="M339.41 711.051C339.41 710.763 339.323 710.481 339.162 710.241C339.001 710.002 338.772 709.816 338.505 709.708C338.238 709.6 337.944 709.573 337.662 709.632C337.38 709.692 337.121 709.834 336.92 710.041C336.719 710.248 336.584 710.51 336.533 710.793C336.482 711.077 336.516 711.37 336.632 711.634C336.748 711.898 336.94 712.122 337.184 712.276C337.427 712.431 337.711 712.509 338 712.501C338.375 712.483 338.729 712.324 338.991 712.054C339.253 711.785 339.403 711.426 339.41 711.051Z" fill="#F6F0E1"/>
<path d="M370.41 711.051C370.41 710.763 370.323 710.481 370.162 710.241C370.001 710.002 369.772 709.816 369.505 709.708C369.238 709.6 368.944 709.573 368.662 709.632C368.38 709.692 368.121 709.834 367.92 710.041C367.719 710.248 367.584 710.51 367.533 710.793C367.482 711.077 367.516 711.37 367.632 711.634C367.748 711.898 367.94 712.122 368.184 712.276C368.427 712.431 368.711 712.509 369 712.501C369.377 712.488 369.734 712.33 369.996 712.06C370.259 711.789 370.407 711.428 370.41 711.051Z" fill="#F6F0E1"/>
<path d="M402.87 711.051C402.872 710.477 402.704 709.915 402.386 709.437C402.069 708.959 401.617 708.585 401.087 708.364C400.557 708.143 399.974 708.084 399.411 708.195C398.848 708.306 398.33 708.581 397.923 708.986C397.517 709.392 397.239 709.908 397.127 710.471C397.014 711.034 397.071 711.618 397.29 712.148C397.509 712.679 397.881 713.132 398.358 713.451C398.835 713.77 399.396 713.941 399.97 713.941C400.735 713.933 401.467 713.626 402.009 713.086C402.551 712.546 402.86 711.816 402.87 711.051Z" fill="#F6F0E1"/>
<path d="M277.39 463.001C277.39 462.714 277.305 462.433 277.145 462.194C276.985 461.955 276.758 461.77 276.493 461.66C276.227 461.551 275.935 461.523 275.654 461.579C275.372 461.636 275.114 461.775 274.911 461.979C274.709 462.183 274.572 462.442 274.517 462.724C274.462 463.006 274.492 463.298 274.603 463.563C274.715 463.827 274.902 464.053 275.142 464.211C275.382 464.369 275.663 464.453 275.95 464.451C276.332 464.446 276.697 464.291 276.966 464.02C277.235 463.749 277.388 463.383 277.39 463.001Z" fill="#F6F0E1"/>
<path d="M308.4 463.001C308.4 462.714 308.315 462.434 308.156 462.195C307.996 461.957 307.77 461.771 307.505 461.661C307.24 461.551 306.948 461.523 306.667 461.579C306.386 461.635 306.127 461.773 305.925 461.975C305.722 462.178 305.584 462.437 305.528 462.718C305.472 462.999 305.501 463.291 305.61 463.556C305.72 463.821 305.906 464.047 306.144 464.206C306.383 464.366 306.663 464.451 306.95 464.451C307.333 464.446 307.699 464.291 307.97 464.02C308.24 463.75 308.395 463.384 308.4 463.001Z" fill="#F6F0E1"/>
<path d="M340.85 462.999C340.85 462.428 340.681 461.869 340.363 461.394C340.046 460.919 339.594 460.548 339.066 460.329C338.538 460.111 337.957 460.053 337.397 460.165C336.836 460.276 336.321 460.552 335.917 460.956C335.513 461.36 335.237 461.875 335.126 462.436C335.014 462.996 335.072 463.577 335.29 464.105C335.509 464.633 335.879 465.085 336.355 465.402C336.83 465.72 337.389 465.889 337.96 465.889C338.724 465.882 339.455 465.575 339.995 465.034C340.536 464.494 340.843 463.763 340.85 462.999Z" fill="#F6F0E1"/>
<path d="M371.861 463C371.862 462.425 371.694 461.863 371.376 461.385C371.058 460.906 370.605 460.533 370.075 460.313C369.545 460.092 368.961 460.034 368.397 460.145C367.834 460.257 367.316 460.533 366.91 460.939C366.504 461.345 366.227 461.863 366.116 462.427C366.004 462.99 366.062 463.574 366.283 464.104C366.504 464.635 366.877 465.087 367.356 465.405C367.834 465.723 368.396 465.892 368.971 465.89C369.735 465.882 370.465 465.575 371.005 465.035C371.546 464.494 371.853 463.764 371.861 463Z" fill="#F6F0E1"/>
<path d="M404.31 463C404.31 462.142 404.055 461.303 403.578 460.589C403.102 459.875 402.424 459.319 401.631 458.991C400.838 458.662 399.965 458.576 399.123 458.744C398.281 458.911 397.508 459.324 396.901 459.931C396.294 460.538 395.881 461.312 395.713 462.153C395.546 462.995 395.632 463.868 395.96 464.661C396.289 465.454 396.845 466.132 397.559 466.609C398.272 467.086 399.112 467.34 399.97 467.34C401.117 467.327 402.213 466.866 403.024 466.055C403.835 465.244 404.297 464.147 404.31 463Z" fill="#F6F0E1"/>
<path d="M340.85 432.001C340.848 431.43 340.677 430.872 340.358 430.398C340.04 429.924 339.588 429.555 339.059 429.338C338.531 429.121 337.95 429.065 337.39 429.178C336.83 429.29 336.316 429.567 335.913 429.971C335.51 430.376 335.236 430.891 335.125 431.451C335.014 432.011 335.072 432.592 335.291 433.119C335.51 433.647 335.881 434.098 336.356 434.415C336.831 434.732 337.389 434.901 337.96 434.901C338.725 434.891 339.456 434.582 339.996 434.04C340.536 433.498 340.843 432.766 340.85 432.001Z" fill="#F6F0E1"/>
<path d="M373.3 432C373.3 431.141 373.045 430.302 372.568 429.588C372.091 428.874 371.412 428.318 370.619 427.99C369.825 427.661 368.952 427.576 368.11 427.744C367.268 427.913 366.494 428.327 365.888 428.935C365.281 429.543 364.869 430.317 364.702 431.16C364.536 432.002 364.623 432.875 364.953 433.668C365.283 434.461 365.841 435.138 366.556 435.614C367.271 436.089 368.111 436.342 368.97 436.34C370.115 436.325 371.209 435.862 372.018 435.051C372.827 434.24 373.287 433.145 373.3 432Z" fill="#F6F0E1"/>
<path d="M402.87 432.002C402.87 431.428 402.7 430.867 402.382 430.39C402.063 429.914 401.61 429.542 401.08 429.322C400.55 429.103 399.967 429.045 399.405 429.157C398.842 429.269 398.325 429.545 397.92 429.951C397.514 430.357 397.238 430.873 397.126 431.436C397.014 431.998 397.072 432.581 397.291 433.111C397.511 433.641 397.882 434.094 398.359 434.413C398.836 434.731 399.397 434.902 399.97 434.902C400.737 434.894 401.47 434.586 402.012 434.044C402.554 433.501 402.862 432.768 402.87 432.002Z" fill="#F6F0E1"/>
<path d="M246.39 400.999C246.392 400.712 246.309 400.431 246.151 400.191C245.993 399.951 245.767 399.764 245.502 399.652C245.237 399.541 244.945 399.511 244.664 399.566C244.382 399.621 244.122 399.758 243.918 399.96C243.715 400.163 243.576 400.421 243.519 400.702C243.462 400.984 243.49 401.276 243.6 401.542C243.709 401.807 243.895 402.034 244.134 402.194C244.372 402.354 244.653 402.439 244.94 402.439C245.321 402.434 245.686 402.281 245.956 402.012C246.227 401.744 246.382 401.38 246.39 400.999Z" fill="#F6F0E1"/>
<path d="M278.84 401C278.842 400.425 278.673 399.863 278.355 399.385C278.038 398.906 277.585 398.533 277.054 398.313C276.524 398.092 275.94 398.034 275.377 398.145C274.813 398.257 274.296 398.533 273.889 398.939C273.483 399.345 273.207 399.863 273.095 400.427C272.984 400.99 273.042 401.574 273.263 402.104C273.483 402.635 273.857 403.087 274.335 403.405C274.814 403.723 275.376 403.892 275.95 403.89C276.713 403.879 277.442 403.572 277.982 403.032C278.522 402.492 278.83 401.763 278.84 401Z" fill="#F6F0E1"/>
<path d="M309.85 401C309.852 400.426 309.683 399.864 309.366 399.386C309.048 398.908 308.596 398.535 308.067 398.313C307.537 398.092 306.953 398.034 306.39 398.144C305.827 398.255 305.309 398.531 304.903 398.936C304.496 399.341 304.219 399.858 304.106 400.42C303.994 400.983 304.05 401.567 304.27 402.097C304.489 402.628 304.86 403.081 305.338 403.4C305.815 403.72 306.376 403.89 306.95 403.89C307.715 403.882 308.446 403.575 308.988 403.035C309.53 402.495 309.839 401.765 309.85 401Z" fill="#F6F0E1"/>
<path d="M342.3 401C342.3 400.142 342.046 399.303 341.569 398.589C341.092 397.875 340.414 397.319 339.621 396.991C338.828 396.662 337.955 396.576 337.113 396.744C336.272 396.911 335.498 397.324 334.891 397.931C334.284 398.538 333.871 399.312 333.704 400.153C333.536 400.995 333.622 401.868 333.95 402.661C334.279 403.454 334.835 404.132 335.549 404.609C336.263 405.086 337.102 405.34 337.96 405.34C339.107 405.327 340.203 404.866 341.015 404.055C341.826 403.244 342.287 402.147 342.3 401Z" fill="#F6F0E1"/>
<path d="M373.3 401C373.3 400.141 373.045 399.302 372.568 398.588C372.091 397.874 371.412 397.318 370.619 396.99C369.825 396.661 368.952 396.576 368.11 396.744C367.268 396.913 366.494 397.327 365.888 397.935C365.281 398.543 364.869 399.317 364.702 400.16C364.536 401.002 364.623 401.875 364.953 402.668C365.283 403.461 365.841 404.138 366.556 404.614C367.271 405.089 368.111 405.342 368.97 405.34C370.115 405.325 371.209 404.862 372.018 404.051C372.827 403.24 373.287 402.145 373.3 401Z" fill="#F6F0E1"/>
<path d="M402.87 401C402.872 400.426 402.704 399.864 402.386 399.386C402.069 398.908 401.617 398.535 401.087 398.313C400.557 398.092 399.974 398.034 399.411 398.144C398.848 398.255 398.33 398.531 397.923 398.936C397.517 399.341 397.239 399.858 397.127 400.42C397.014 400.983 397.071 401.567 397.29 402.097C397.509 402.628 397.881 403.081 398.358 403.4C398.835 403.72 399.396 403.89 399.97 403.89C400.735 403.882 401.467 403.575 402.009 403.035C402.551 402.495 402.86 401.765 402.87 401Z" fill="#F6F0E1"/>
<path d="M215.38 370.001C215.38 369.714 215.295 369.434 215.136 369.195C214.977 368.957 214.75 368.771 214.485 368.661C214.22 368.551 213.929 368.523 213.648 368.579C213.366 368.635 213.108 368.773 212.905 368.975C212.702 369.178 212.564 369.437 212.508 369.718C212.452 369.999 212.481 370.291 212.591 370.556C212.701 370.821 212.886 371.047 213.125 371.206C213.363 371.366 213.644 371.451 213.93 371.451C214.313 371.446 214.679 371.291 214.95 371.02C215.221 370.75 215.375 370.384 215.38 370.001Z" fill="#F6F0E1"/>
<path d="M247.83 369.999C247.83 369.428 247.66 368.869 247.343 368.394C247.025 367.919 246.574 367.548 246.046 367.329C245.518 367.111 244.937 367.053 244.376 367.165C243.815 367.276 243.3 367.552 242.896 367.956C242.492 368.36 242.217 368.875 242.105 369.436C241.994 369.996 242.051 370.577 242.27 371.105C242.489 371.633 242.859 372.085 243.334 372.402C243.809 372.72 244.368 372.889 244.94 372.889C245.704 372.882 246.434 372.575 246.975 372.034C247.515 371.494 247.822 370.763 247.83 369.999Z" fill="#F6F0E1"/>
<path d="M278.84 370C278.842 369.425 278.673 368.863 278.355 368.385C278.038 367.906 277.585 367.533 277.054 367.313C276.524 367.092 275.94 367.034 275.377 367.145C274.813 367.257 274.296 367.533 273.889 367.939C273.483 368.345 273.207 368.863 273.095 369.427C272.984 369.99 273.042 370.574 273.263 371.104C273.483 371.635 273.857 372.087 274.335 372.405C274.814 372.723 275.376 372.892 275.95 372.89C276.714 372.882 277.445 372.575 277.985 372.035C278.525 371.494 278.832 370.764 278.84 370Z" fill="#F6F0E1"/>
<path d="M311.289 370C311.289 369.142 311.035 368.303 310.558 367.589C310.081 366.875 309.403 366.319 308.61 365.991C307.817 365.662 306.945 365.576 306.103 365.744C305.261 365.911 304.488 366.324 303.881 366.931C303.274 367.538 302.86 368.312 302.693 369.153C302.525 369.995 302.611 370.868 302.94 371.661C303.268 372.454 303.824 373.132 304.538 373.609C305.252 374.086 306.091 374.34 306.949 374.34C308.096 374.327 309.193 373.866 310.004 373.055C310.815 372.244 311.276 371.147 311.289 370Z" fill="#F6F0E1"/>
<path d="M342.3 370C342.3 369.142 342.046 368.303 341.569 367.589C341.092 366.875 340.414 366.319 339.621 365.991C338.828 365.662 337.955 365.576 337.113 365.744C336.272 365.911 335.498 366.324 334.891 366.931C334.284 367.538 333.871 368.312 333.704 369.153C333.536 369.995 333.622 370.868 333.95 371.661C334.279 372.454 334.835 373.132 335.549 373.609C336.263 374.086 337.102 374.34 337.96 374.34C339.107 374.327 340.203 373.866 341.015 373.055C341.826 372.244 342.287 371.147 342.3 370Z" fill="#F6F0E1"/>
<path d="M374.75 370.001C374.75 368.855 374.41 367.736 373.773 366.783C373.137 365.831 372.232 365.089 371.173 364.651C370.115 364.213 368.95 364.099 367.827 364.323C366.703 364.547 365.672 365.1 364.862 365.91C364.053 366.721 363.502 367.754 363.28 368.877C363.058 370.001 363.174 371.166 363.614 372.224C364.053 373.281 364.797 374.185 365.75 374.82C366.704 375.455 367.824 375.793 368.97 375.791C370.499 375.773 371.96 375.157 373.04 374.074C374.121 372.992 374.734 371.53 374.75 370.001Z" fill="#F6F0E1"/>
<path d="M402.87 370C402.872 369.426 402.704 368.864 402.386 368.386C402.069 367.908 401.617 367.535 401.087 367.313C400.557 367.092 399.974 367.034 399.411 367.144C398.848 367.255 398.33 367.531 397.923 367.936C397.517 368.341 397.239 368.858 397.127 369.42C397.014 369.983 397.071 370.567 397.29 371.097C397.509 371.628 397.881 372.081 398.358 372.4C398.835 372.72 399.396 372.89 399.97 372.89C400.735 372.882 401.467 372.575 402.009 372.035C402.551 371.495 402.86 370.765 402.87 370Z" fill="#F6F0E1"/>
</svg>
