<svg width="248" height="196" viewBox="0 0 248 196" fill="none" xmlns="http://www.w3.org/2000/svg">
    <g clip-path="url(#clip0_3002_98925)">
        <path d="M56.4783 156.469C54.1108 156.469 52.1875 158.391 52.1875 160.757C52.1875 163.123 54.1108 165.046 56.4783 165.046C58.8459 165.046 60.7692 163.123 60.7692 160.757C60.7692 158.391 58.8459 156.469 56.4783 156.469Z"
              fill="#F9F4E8"/>
        <path d="M82.5643 104.312C80.1967 104.312 78.2734 106.235 78.2734 108.601C78.2734 110.967 80.1967 112.889 82.5643 112.889C84.9319 112.889 86.8551 110.967 86.8551 108.601C86.8551 106.235 84.9319 104.312 82.5643 104.312Z"
              fill="#F9F4E8"/>
        <path d="M82.5643 156.469C80.1967 156.469 78.2734 158.391 78.2734 160.757C78.2734 163.123 80.1967 165.046 82.5643 165.046C84.9319 165.046 86.8551 163.123 86.8551 160.757C86.8551 158.391 84.9319 156.469 82.5643 156.469Z"
              fill="#F9F4E8"/>
        <path d="M108.658 104.312C106.29 104.312 104.367 106.235 104.367 108.601C104.367 110.967 106.29 112.889 108.658 112.889C111.026 112.889 112.949 110.967 112.949 108.601C112.949 106.235 111.026 104.312 108.658 104.312Z"
              fill="#F9F4E8"/>
        <path d="M108.658 130.383C106.29 130.383 104.367 132.305 104.367 134.671C104.367 137.037 106.29 138.96 108.658 138.96C111.026 138.96 112.949 137.037 112.949 134.671C112.949 132.305 111.026 130.383 108.658 130.383Z"
              fill="#F9F4E8"/>
        <path d="M108.663 154.312C105.109 154.312 102.227 157.193 102.227 160.745C102.227 164.297 105.109 167.178 108.663 167.178C112.217 167.178 115.099 164.297 115.099 160.745C115.099 157.193 112.217 154.312 108.663 154.312Z"
              fill="#F9F4E8"/>
        <path d="M108.658 78.2344C106.29 78.2344 104.367 80.1566 104.367 82.5228C104.367 84.889 106.29 86.8112 108.658 86.8112C111.026 86.8112 112.949 84.889 112.949 82.5228C112.949 80.1566 111.026 78.2344 108.658 78.2344Z"
              fill="#F9F4E8"/>
        <path d="M134.752 104.312C132.384 104.312 130.461 106.235 130.461 108.601C130.461 110.967 132.384 112.889 134.752 112.889C137.119 112.889 139.043 110.967 139.043 108.601C139.043 106.235 137.119 104.312 134.752 104.312Z"
              fill="#F9F4E8"/>
        <path d="M134.752 130.383C132.384 130.383 130.461 132.305 130.461 134.671C130.461 137.037 132.384 138.96 134.752 138.96C137.119 138.96 139.043 137.037 139.043 134.671C139.043 132.305 137.119 130.383 134.752 130.383Z"
              fill="#F9F4E8"/>
        <path d="M134.746 152.172C130.005 152.172 126.164 156.01 126.164 160.749C126.164 165.487 130.005 169.325 134.746 169.325C139.487 169.325 143.327 165.487 143.327 160.749C143.327 156.01 139.487 152.172 134.746 152.172Z"
              fill="#F9F4E8"/>
        <path d="M134.752 78.2344C132.384 78.2344 130.461 80.1566 130.461 82.5228C130.461 84.889 132.384 86.8112 134.752 86.8112C137.119 86.8112 139.043 84.889 139.043 82.5228C139.043 80.1566 137.119 78.2344 134.752 78.2344Z"
              fill="#F9F4E8"/>
        <path d="M160.846 104.312C158.478 104.312 156.555 106.235 156.555 108.601C156.555 110.967 158.478 112.889 160.846 112.889C163.213 112.889 165.136 110.967 165.136 108.601C165.136 106.235 163.213 104.312 160.846 104.312Z"
              fill="#F9F4E8"/>
        <path d="M160.843 128.234C157.288 128.234 154.406 131.115 154.406 134.667C154.406 138.219 157.288 141.1 160.843 141.1C164.397 141.1 167.279 138.219 167.279 134.667C167.279 131.115 164.397 128.234 160.843 128.234Z"
              fill="#F9F4E8"/>
        <path d="M160.843 154.312C157.288 154.312 154.406 157.193 154.406 160.745C154.406 164.297 157.288 167.178 160.843 167.178C164.397 167.178 167.279 164.297 167.279 160.745C167.279 157.193 164.397 154.312 160.843 154.312Z"
              fill="#F9F4E8"/>
        <path d="M160.843 76.0859C157.288 76.0859 154.406 78.9663 154.406 82.5185C154.406 86.0708 157.288 88.9511 160.843 88.9511C164.397 88.9511 167.279 86.0708 167.279 82.5185C167.279 78.9663 164.397 76.0859 160.843 76.0859Z"
              fill="#F9F4E8"/>
        <path d="M160.846 52.1562C158.478 52.1562 156.555 54.0784 156.555 56.4446C156.555 58.8108 158.478 60.733 160.846 60.733C163.213 60.733 165.136 58.8108 165.136 56.4446C165.136 54.0784 163.213 52.1562 160.846 52.1562Z"
              fill="#F9F4E8"/>
        <path d="M186.933 100.016C182.192 100.016 178.352 103.854 178.352 108.592C178.352 113.331 182.192 117.169 186.933 117.169C191.674 117.169 195.515 113.331 195.515 108.592C195.515 103.854 191.674 100.016 186.933 100.016Z"
              fill="#F9F4E8"/>
        <path d="M186.933 126.094C182.192 126.094 178.352 129.932 178.352 134.671C178.352 139.409 182.192 143.247 186.933 143.247C191.674 143.247 195.515 139.409 195.515 134.671C195.515 129.932 191.674 126.094 186.933 126.094Z"
              fill="#F9F4E8"/>
        <path d="M186.935 147.883C179.826 147.883 174.062 153.644 174.062 160.748C174.062 167.852 179.826 173.613 186.935 173.613C194.044 173.613 199.808 167.852 199.808 160.748C199.808 153.644 194.044 147.883 186.935 147.883Z"
              fill="#F9F4E8"/>
        <path d="M186.931 78.2344C184.564 78.2344 182.641 80.1566 182.641 82.5228C182.641 84.889 184.564 86.8112 186.931 86.8112C189.299 86.8112 191.222 84.889 191.222 82.5228C191.222 80.1566 189.299 78.2344 186.931 78.2344Z"
              fill="#F9F4E8"/>
        <path d="M213.021 95.7344C205.912 95.7344 200.148 101.495 200.148 108.6C200.148 115.704 205.912 121.465 213.021 121.465C220.13 121.465 225.893 115.704 225.893 108.6C225.893 101.495 220.13 95.7344 213.021 95.7344Z"
              fill="#F9F4E8"/>
        <path d="M213.024 123.953C207.096 123.953 202.297 128.756 202.297 134.674C202.297 140.593 207.102 145.395 213.024 145.395C218.946 145.395 223.751 140.593 223.751 134.674C223.751 128.756 218.946 123.953 213.024 123.953Z"
              fill="#F9F4E8"/>
        <path d="M213.027 152.172C208.286 152.172 204.445 156.01 204.445 160.749C204.445 165.487 208.286 169.325 213.027 169.325C217.768 169.325 221.609 165.487 221.609 160.749C221.609 156.01 217.768 152.172 213.027 152.172Z"
              fill="#F9F4E8"/>
        <path d="M213.022 76.0859C209.468 76.0859 206.586 78.9663 206.586 82.5185C206.586 86.0708 209.468 88.9511 213.022 88.9511C216.576 88.9511 219.458 86.0708 219.458 82.5185C219.458 78.9663 216.576 76.0859 213.022 76.0859Z"
              fill="#F9F4E8"/>
        <path d="M213.022 50.0156C209.468 50.0156 206.586 52.896 206.586 56.4482C206.586 60.0004 209.468 62.8808 213.022 62.8808C216.576 62.8808 219.458 60.0004 219.458 56.4482C219.458 52.896 216.576 50.0156 213.022 50.0156Z"
              fill="#F9F4E8"/>
        <path d="M82.5613 180.391C79.007 180.391 76.125 183.271 76.125 186.823C76.125 190.375 79.007 193.256 82.5613 193.256C86.1155 193.256 88.9975 190.375 88.9975 186.823C88.9975 183.271 86.1155 180.391 82.5613 180.391Z"
              fill="#F9F4E8"/>
        <path d="M56.4753 180.391C52.9211 180.391 50.0391 183.271 50.0391 186.823C50.0391 190.375 52.9211 193.256 56.4753 193.256C60.0296 193.256 62.9116 190.375 62.9116 186.823C62.9116 183.271 60.0296 180.391 56.4753 180.391Z"
              fill="#F9F4E8"/>
        <path d="M30.3846 182.539C28.017 182.539 26.0938 184.461 26.0938 186.827C26.0938 189.194 28.017 191.116 30.3846 191.116C32.7522 191.116 34.6754 189.194 34.6754 186.827C34.6754 184.461 32.7522 182.539 30.3846 182.539Z"
              fill="#F9F4E8"/>
        <path d="M4.29085 182.539C1.92328 182.539 0 184.461 0 186.827C0 189.194 1.92328 191.116 4.29085 191.116C6.65841 191.116 8.58169 189.194 8.58169 186.827C8.58169 184.461 6.65841 182.539 4.29085 182.539Z"
              fill="#F9F4E8"/>
        <path d="M108.66 178.25C103.919 178.25 100.078 182.089 100.078 186.827C100.078 191.565 103.919 195.404 108.66 195.404C113.401 195.404 117.242 191.565 117.242 186.827C117.242 182.089 113.401 178.25 108.66 178.25Z"
              fill="#F9F4E8"/>
        <path d="M134.749 180.391C131.194 180.391 128.312 183.271 128.312 186.823C128.312 190.375 131.194 193.256 134.749 193.256C138.303 193.256 141.185 190.375 141.185 186.823C141.185 183.271 138.303 180.391 134.749 180.391Z"
              fill="#F9F4E8"/>
        <path d="M160.846 182.539C158.478 182.539 156.555 184.461 156.555 186.827C156.555 189.194 158.478 191.116 160.846 191.116C163.213 191.116 165.136 189.194 165.136 186.827C165.136 184.461 163.213 182.539 160.846 182.539Z"
              fill="#F9F4E8"/>
        <path d="M186.936 180.391C183.382 180.391 180.5 183.271 180.5 186.823C180.5 190.375 183.382 193.256 186.936 193.256C190.491 193.256 193.373 190.375 193.373 186.823C193.373 183.271 190.491 180.391 186.936 180.391Z"
              fill="#F9F4E8"/>
        <path d="M213.022 180.391C209.468 180.391 206.586 183.271 206.586 186.823C206.586 190.375 209.468 193.256 213.022 193.256C216.576 193.256 219.458 190.375 219.458 186.823C219.458 183.271 216.576 180.391 213.022 180.391Z"
              fill="#F9F4E8"/>
        <path d="M239.116 102.164C235.562 102.164 232.68 105.044 232.68 108.597C232.68 112.149 235.562 115.029 239.116 115.029C242.67 115.029 245.552 112.149 245.552 108.597C245.552 105.044 242.67 102.164 239.116 102.164Z"
              fill="#F9F4E8"/>
        <path d="M239.121 126.094C234.38 126.094 230.539 129.932 230.539 134.671C230.539 139.409 234.38 143.247 239.121 143.247C243.862 143.247 247.702 139.409 247.702 134.671C247.702 129.932 243.862 126.094 239.121 126.094Z"
              fill="#F9F4E8"/>
        <path d="M239.116 154.312C235.562 154.312 232.68 157.193 232.68 160.745C232.68 164.297 235.562 167.178 239.116 167.178C242.67 167.178 245.552 164.297 245.552 160.745C245.552 157.193 242.67 154.312 239.116 154.312Z"
              fill="#F9F4E8"/>
        <path d="M239.119 78.2344C236.751 78.2344 234.828 80.1566 234.828 82.5228C234.828 84.889 236.751 86.8112 239.119 86.8112C241.487 86.8112 243.41 84.889 243.41 82.5228C243.41 80.1566 241.487 78.2344 239.119 78.2344Z"
              fill="#F9F4E8"/>
        <path d="M239.116 23.9297C235.562 23.9297 232.68 26.81 232.68 30.3623C232.68 33.9145 235.562 36.7948 239.116 36.7948C242.67 36.7948 245.552 33.9145 245.552 30.3623C245.552 26.81 242.67 23.9297 239.116 23.9297Z"
              fill="#F9F4E8"/>
        <path d="M239.119 0C236.751 0 234.828 1.92218 234.828 4.28838C234.828 6.65459 236.751 8.57677 239.119 8.57677C241.487 8.57677 243.41 6.65459 243.41 4.28838C243.41 1.92218 241.487 0 239.119 0Z"
              fill="#F9F4E8"/>
        <path d="M239.119 52.1562C236.751 52.1562 234.828 54.0784 234.828 56.4446C234.828 58.8108 236.751 60.733 239.119 60.733C241.487 60.733 243.41 58.8108 243.41 56.4446C243.41 54.0784 241.487 52.1562 239.119 52.1562Z"
              fill="#F9F4E8"/>
        <path d="M239.116 180.391C235.562 180.391 232.68 183.271 232.68 186.823C232.68 190.375 235.562 193.256 239.116 193.256C242.67 193.256 245.552 190.375 245.552 186.823C245.552 183.271 242.67 180.391 239.116 180.391Z"
              fill="#F9F4E8"/>
    </g>
    <defs>
        <clipPath id="clip0_3002_98925">
            <rect width="247.7" height="195.403" fill="white"/>
        </clipPath>
    </defs>
</svg>
