<svg width="96" height="44" viewBox="0 0 96 44" fill="none" xmlns="http://www.w3.org/2000/svg">
<path d="M12.0293 39.2119V25.9688H16.7652C19.4747 25.9688 21.045 27.3023 21.045 29.9719C21.045 32.6414 19.385 34.0373 16.6855 34.0373H13.7816V39.2119H12.0293ZM13.7816 32.6215H16.5932C18.3455 32.6215 19.2329 31.6643 19.2329 29.932C19.2329 28.1996 18.368 27.3945 16.6456 27.3945H13.7841V32.6215H13.7816Z" fill="#3E4FE5"/>
<path d="M22.9818 39.2125V24.9922H24.6419V39.2125H22.9818Z" fill="#3E4FE5"/>
<path d="M34.9661 29.3763H36.5439V39.2071H35.016L34.996 37.2404C34.3754 38.6163 33.2338 39.4115 31.5014 39.4115C28.6399 39.4115 26.9574 37.3027 26.9574 34.2767C26.9574 31.2507 28.6374 29.1719 31.5014 29.1719C33.2039 29.1719 34.333 29.8748 34.9537 31.1784L34.9636 29.3763H34.9661ZM34.9462 34.2767C34.9462 32.1879 33.7024 30.66 31.7058 30.66C29.7092 30.66 28.6598 32.148 28.6598 34.2767C28.6598 36.4054 29.6793 37.9334 31.7058 37.9334C33.7323 37.9334 34.9462 36.3655 34.9462 34.2767Z" fill="#3E4FE5"/>
<path d="M46.0284 29.375H47.9028L43.9695 40.001C43.0323 42.6805 41.1179 43.4956 38.5605 43.1092L38.7749 41.5912C40.577 41.8554 41.7386 41.4492 42.3094 39.8489L42.5238 39.2282H42.0552L38.4185 29.3775H40.2929L42.2994 35.2949C42.5961 36.1698 42.8902 37.0472 43.1868 37.9022C43.451 37.0472 43.7277 36.1898 44.0218 35.2949L46.0284 29.3775V29.375Z" fill="#3E4FE5"/>
<path d="M48.8275 36.0689L50.3455 35.8645C50.4577 37.5046 51.5793 38.0854 53.1173 38.0854C54.4733 38.0854 55.1961 37.6268 55.1961 36.6497C55.1961 35.5604 54.2988 35.3361 52.8531 35.0295C50.3979 34.511 49.1665 33.8281 49.1665 32.0758C49.1765 30.2636 50.6022 29.1719 52.7633 29.1719C55.3606 29.1719 56.6742 30.4855 56.7266 32.502L55.2709 32.6964C55.1787 31.1784 54.1816 30.4954 52.7858 30.4954C51.3899 30.4954 50.7792 31.1061 50.7792 31.9736C50.7792 33.003 51.6242 33.2872 53.1946 33.6436C55.4055 34.1321 56.8313 34.6107 56.8313 36.5275C56.8313 38.2798 55.5376 39.4115 53.1746 39.4115C50.8116 39.4115 48.997 38.392 48.835 36.0689H48.8275Z" fill="#3E4FE5"/>
<path d="M12.0293 20.8994V7.65625H16.7652C19.4747 7.65625 21.045 8.98979 21.045 11.6594C21.045 14.3289 19.385 15.7248 16.6855 15.7248H13.7816V20.8994H12.0293ZM13.7816 14.309H16.5932C18.3455 14.309 19.2329 13.3518 19.2329 11.6195C19.2329 9.88713 18.368 9.08202 16.6456 9.08202H13.7841V14.309H13.7816Z" fill="#353131"/>
<path d="M31.2522 16.503H23.8865C24.071 18.4272 25.1902 19.691 26.9823 19.691C28.4704 19.691 29.3254 19.0379 29.7541 17.9387L31.0876 18.3151C30.5468 20.1596 29.0412 21.1068 26.9923 21.1068C24.0485 21.1068 22.214 18.9058 22.214 15.972C22.214 13.0382 24.0161 10.8672 26.8378 10.8672C29.6594 10.8672 31.2696 12.8438 31.2696 15.7975C31.2696 16.0219 31.2696 16.2562 31.2497 16.5005L31.2522 16.503ZM23.8965 15.1894H29.622C29.4799 13.3249 28.4904 12.2556 26.8303 12.2556C25.1702 12.2556 24.1208 13.4271 23.8965 15.1894Z" fill="#353131"/>
<path d="M35.0784 13.0543C35.7314 11.3842 37.207 10.5592 38.9892 10.9455L38.9494 12.6878C37.065 12.2392 35.1382 13.4007 35.1382 15.9183V20.901H33.528V11.0677H35.0858L35.0759 13.0543H35.0784Z" fill="#353131"/>
<path d="M39.8368 15.982C39.8368 13.0682 41.6614 10.8672 44.635 10.8672C46.8659 10.8672 48.526 11.9166 49.0046 14.2496L47.4966 14.4939C47.1202 13.108 46.2228 12.3129 44.655 12.3129C42.6285 12.3129 41.5068 13.8807 41.5068 15.9795C41.5068 18.0783 42.6285 19.6461 44.655 19.6461C46.2228 19.6461 47.1202 18.851 47.4966 17.4651L49.0046 17.7193C48.526 20.0524 46.8659 21.1018 44.635 21.1018C41.6614 21.1018 39.8368 18.8909 39.8368 15.977V15.982Z" fill="#353131"/>
<path d="M58.601 11.0716H60.1788V20.9024H58.6509L58.6309 18.9357C58.0103 20.3116 56.8687 21.1068 55.1363 21.1068C52.2748 21.1068 50.5923 18.998 50.5923 15.972C50.5923 12.946 52.2723 10.8672 55.1363 10.8672C56.8362 10.8672 57.9679 11.5701 58.5885 12.8737L58.5985 11.0716H58.601ZM58.5811 15.972C58.5811 13.8832 57.3373 12.3553 55.3407 12.3553C53.3441 12.3553 52.2947 13.8434 52.2947 15.972C52.2947 18.1007 53.3142 19.6287 55.3407 19.6287C57.3672 19.6287 58.5811 18.0608 58.5811 15.972Z" fill="#353131"/>
<path d="M72.7167 15.9695C72.7167 18.9956 71.1064 21.1043 68.2549 21.1043C66.6048 21.1043 65.4532 20.3914 64.7902 19.1277V24.8731H63.1301V11.0716H64.7079L64.7279 12.8737C65.371 11.5601 66.5624 10.8672 68.2524 10.8672C71.1139 10.8672 72.7142 12.956 72.7142 15.972L72.7167 15.9695ZM71.0167 15.9695C71.0167 13.8409 69.9972 12.3528 67.9708 12.3528C65.9443 12.3528 64.7304 13.8807 64.7304 15.9695C64.7304 18.0583 65.9742 19.6262 67.9708 19.6262C69.9673 19.6262 71.0167 18.0982 71.0167 15.9695Z" fill="#353131"/>
<path d="M74.5586 8.0053C74.5586 7.35224 75.1095 6.84375 75.7401 6.84375C76.4231 6.84375 76.9739 7.35224 76.9739 8.0053C76.9739 8.65836 76.4231 9.18679 75.7401 9.18679C75.1095 9.18679 74.5586 8.65587 74.5586 8.0053ZM74.935 20.902V11.0737H76.5951V20.9045H74.935V20.902Z" fill="#353131"/>
<path d="M85.5036 20.5487C84.9029 20.8752 84.2598 21.0472 83.4672 21.0472C81.5205 21.0472 80.3813 20.0078 80.3813 17.7769V12.4602H78.3549V11.0743H80.3813V8.15053L82.0314 7.90625V11.0743H85.2818V12.4602H82.0314V17.575C82.0314 18.931 82.53 19.5716 83.7015 19.5716C84.2424 19.5716 84.6487 19.4595 85.0674 19.2152L85.5061 20.5487H85.5036Z" fill="#353131"/>
<path d="M94.4222 11.0716H96V20.9024H94.472L94.4521 18.9357C93.8314 20.3116 92.6898 21.1068 90.9575 21.1068C88.096 21.1068 86.4135 18.998 86.4135 15.972C86.4135 12.946 88.0935 10.8672 90.9575 10.8672C92.6574 10.8672 93.7891 11.5701 94.4097 12.8737L94.4197 11.0716H94.4222ZM94.4022 15.972C94.4022 13.8832 93.1584 12.3553 91.1619 12.3553C89.1653 12.3553 88.1159 13.8434 88.1159 15.972C88.1159 18.1007 89.1354 19.6287 91.1619 19.6287C93.1883 19.6287 94.4022 18.0608 94.4022 15.972Z" fill="#353131"/>
<path d="M12.0866 0C10.6933 0 9.56165 1.12915 9.56165 2.525C9.56165 3.92086 10.6908 5.05001 12.0866 5.05001C13.4825 5.05001 14.6117 3.92086 14.6117 2.525C14.5768 1.10173 13.4725 0 12.0866 0Z" fill="#3E4FE5"/>
<path d="M4.40942 7.98404C4.40942 6.75768 5.40397 5.76562 6.62784 5.76562C7.8517 5.76562 8.84625 6.76017 8.84625 7.98404C8.84625 9.20791 7.8517 10.2025 6.62784 10.2025C5.37905 10.17 4.40942 9.20292 4.40942 7.98404Z" fill="#3E4FE5"/>
<path d="M0 13.4371C0 12.7891 0.523446 12.2656 1.17152 12.2656C1.8196 12.2656 2.34304 12.7891 2.34304 13.4371C2.34304 14.0852 1.8196 14.6087 1.17152 14.6087C0.525939 14.6087 0.0024926 14.0827 0 13.4371Z" fill="#3E4FE5"/>
</svg>
