<svg width="48" height="48" viewBox="0 0 48 48" fill="none" xmlns="http://www.w3.org/2000/svg">
<rect width="48" height="48" rx="24" fill="#F5F6FE"/>
<g clip-path="url(#clip0_19700_200113)">
<path d="M30.5436 14C28.6348 14 27.0876 15.5472 27.0876 17.456C27.0876 19.3649 28.6348 20.9121 30.5436 20.9121C32.4524 20.9121 33.9997 19.3649 33.9997 17.456C33.9509 15.5084 32.442 14 30.5436 14Z" fill="#3E4FE5"/>
<path d="M20.0367 24.9253C20.0367 23.2477 21.3967 21.8877 23.0744 21.8877C24.752 21.8877 26.112 23.2477 26.112 24.9253C26.112 26.603 24.752 27.963 23.0744 27.963C21.3635 27.9202 20.0367 26.5934 20.0367 24.9253Z" fill="#3E4FE5"/>
<path d="M14 32.3977C14 31.5121 14.718 30.7941 15.6036 30.7941C16.4892 30.7941 17.2072 31.5121 17.2072 32.3977C17.2072 33.2833 16.4892 34.0013 15.6036 34.0013C14.7192 33.9981 14.0032 33.2817 14 32.3977Z" fill="#3E4FE5"/>
</g>
<defs>
<clipPath id="clip0_19700_200113">
<rect width="24" height="24" fill="white" transform="translate(12 12)"/>
</clipPath>
</defs>
</svg>
