<svg width="42" height="32" viewBox="0 0 42 32" fill="currentColor" xmlns="http://www.w3.org/2000/svg">
    <path d="M36.0349 0.859375H6.11583C3.27156 0.859375 0.96582 3.16511 0.96582 6.00938V26.1448C0.96582 28.989 3.27156 31.2948 6.11583 31.2948H36.0349C38.8792 31.2948 41.1849 28.989 41.1849 26.1448V6.00938C41.1849 3.16511 38.8792 0.859375 36.0349 0.859375Z" fill="url(#paint0_linear_552_327)" />
    <path d="M40.539 12.5039H41.1844V19.5513H40.539V12.5039ZM1.61063 12.5039H0.965268V19.5513H1.61063V12.5039ZM19.8099 0.861538H14.4534V1.5069H19.8099V0.861538ZM22.03 1.5069H27.3865V0.861538H22.03V1.5069ZM19.8099 30.6387H14.4534V31.284H19.8099V30.6387ZM22.03 31.284H27.3865V30.6387H22.03V31.284ZM2.16565 28.3282C1.81715 27.6958 1.59773 26.973 1.59773 26.1856V21.6423H0.952363V26.1856C0.952363 27.3473 1.35249 28.4057 2.01076 29.2705L2.17855 28.3282H2.16565ZM6.02492 30.6387C4.95362 30.6387 3.97267 30.2385 3.21114 29.5932L2.38507 29.7351C3.31439 30.6903 4.59221 31.284 6.02492 31.284H13.5628V30.6387H6.02492ZM39.6097 2.29425C38.6933 1.41655 37.4542 0.861538 36.086 0.861538H28.2513V1.5069H36.086C37.0928 1.5069 38.0221 1.86831 38.7707 2.43623L39.6097 2.29425ZM39.8549 2.5653L39.7129 3.40427C40.2163 4.12708 40.5261 5.00478 40.5261 5.94701V10.3871H41.1715V5.94701C41.1715 4.64337 40.6681 3.4559 39.8549 2.55239V2.5653ZM6.02492 0.848633C4.5664 0.848633 3.26277 1.48109 2.33344 2.46204L3.13369 2.60402C3.90813 1.91994 4.9149 1.5069 6.02492 1.5069H13.5628V0.861538H6.02492V0.848633ZM2.02367 2.83636C1.35249 3.70114 0.939453 4.77244 0.939453 5.94701V10.3871H1.58482V5.94701C1.58482 5.15966 1.80424 4.42395 2.17855 3.77859L2.02367 2.84926V2.83636ZM38.6416 29.7997C37.9188 30.316 37.0411 30.6257 36.0731 30.6257H28.2384V31.2711H36.0731C37.3896 31.2711 38.5771 30.7548 39.4806 29.9417L38.6416 29.7997ZM40.5132 21.6423V26.1856C40.5132 27.115 40.2292 27.9797 39.7387 28.6896L39.8807 29.5286C40.6681 28.6251 41.1586 27.4635 41.1586 26.1727V21.6294H40.5132V21.6423ZM28.9483 11.7295H41.1586V11.0841H28.9483C27.6833 11.0841 26.6766 12.0134 26.6766 13.3945V25.8242C26.6766 26.7406 26.1603 27.3344 25.2439 27.3344H16.4282C15.5118 27.3344 14.9955 26.7277 14.9955 25.8242V6.42458C14.9955 5.53398 15.6925 4.91442 16.5573 4.91442H19.939C20.8554 4.91442 21.2168 4.57884 21.2168 3.66242V0.874448H20.5714V3.66242C20.5714 4.06255 20.5069 4.26906 20.0293 4.26906H16.5702C15.4214 4.26906 14.3501 5.17258 14.3501 6.43749V9.69012C14.3501 10.5549 13.7693 11.1099 12.8916 11.1099H0.952363V11.7553H12.8916C13.7435 11.7553 14.3501 12.3103 14.3501 13.2525V18.893C14.3501 19.5126 13.9113 20.287 12.969 20.287H0.939453V20.9324H12.969C13.8855 20.9324 14.3501 21.6294 14.3501 22.3005V26.0308C14.3501 27.1021 15.2665 28.0056 16.4411 28.0056H20.5714V31.3098H21.2168V28.0056H25.2568C26.4442 28.0056 27.3349 27.1021 27.3349 26.0308V22.2489C27.3349 21.3583 28.0706 20.9324 28.6901 20.9324H41.1586V20.287C41.1586 20.287 29.4387 20.2096 28.7417 20.287C28.0448 20.287 27.3349 19.8094 27.3349 18.8414V13.4203C27.3349 12.4007 28.0189 11.7553 28.9483 11.7553" fill="#868383" />
    <defs>
        <linearGradient id="paint0_linear_552_327" x1="2.08875" y1="29.3716" x2="40.0749" y2="2.78256" gradientUnits="userSpaceOnUse">
            <stop stop-color="#D4C48E" />
            <stop offset="0.1" stop-color="#D5C793" />
            <stop offset="0.24" stop-color="#DBCFA3" />
            <stop offset="0.39" stop-color="#E4DEBD" />
            <stop offset="0.52" stop-color="#EDEDD9" />
            <stop offset="0.73" stop-color="#DFD6B0" />
            <stop offset="0.9" stop-color="#D7C997" />
            <stop offset="1" stop-color="#D4C48E" />
        </linearGradient>
    </defs>
</svg>