<svg xmlns="http://www.w3.org/2000/svg" fill="none" viewBox="58 138 313 242">
<circle cx="296" cy="261" r="75" fill="#F9F4E8"/>
<circle cx="296.5" cy="261.5" r="45.5" stroke="#FFC72C" stroke-width="2"/>
<path d="M278.182 250.26C273.991 254.351 273.991 260.985 278.182 265.076L296.5 282.961L314.819 265.076C319.009 260.985 319.009 254.351 314.819 250.26C310.628 246.169 303.834 246.169 299.643 250.26L296.5 253.329L293.357 250.26C289.167 246.169 282.372 246.169 278.182 250.26Z" fill="#FFC72C"/>
<path d="M278.182 265.076L278.88 264.36L278.182 265.076ZM278.182 250.26L278.88 250.975V250.975L278.182 250.26ZM293.357 250.26L294.056 249.544V249.544L293.357 250.26ZM296.5 253.329L295.802 254.044C296.19 254.423 296.81 254.423 297.199 254.044L296.5 253.329ZM296.5 282.961L295.802 283.676C296.19 284.055 296.81 284.055 297.199 283.676L296.5 282.961ZM314.819 250.26L314.12 250.975V250.975L314.819 250.26ZM314.819 265.076L314.12 264.36L314.12 264.36L314.819 265.076ZM299.643 250.26L298.945 249.544L298.944 249.544L299.643 250.26ZM278.88 264.36C275.091 260.661 275.091 254.674 278.88 250.975L277.483 249.544C272.89 254.028 272.89 261.308 277.483 265.791L278.88 264.36ZM278.88 250.975C282.682 247.263 288.856 247.263 292.659 250.975L294.056 249.544C289.477 245.074 282.062 245.074 277.483 249.544L278.88 250.975ZM292.659 250.975L295.802 254.044L297.199 252.613L294.056 249.544L292.659 250.975ZM277.483 265.791L295.802 283.676L297.199 282.245L278.88 264.36L277.483 265.791ZM314.12 250.975C317.909 254.674 317.909 260.661 314.12 264.36L315.517 265.791C320.11 261.308 320.11 254.028 315.517 249.544L314.12 250.975ZM300.342 250.975C304.144 247.263 310.318 247.263 314.12 250.975L315.517 249.544C310.938 245.074 303.524 245.074 298.945 249.544L300.342 250.975ZM314.12 264.36L295.802 282.245L297.199 283.676L315.517 265.791L314.12 264.36ZM298.944 249.544L295.802 252.613L297.199 254.044L300.342 250.975L298.944 249.544Z" fill="#FFC72C"/>
<circle cx="183.5" cy="186.5" r="37.5" fill="#F9F4E8"/>
<circle cx="121" cy="308" r="25" fill="#F9F4E8"/>
<circle cx="70.5" cy="367.5" r="12.5" fill="#FFC72C"/>
<path d="M249.58 263H245.08C244.815 263 244.561 262.895 244.373 262.707C244.185 262.52 244.08 262.265 244.08 262C244.08 261.735 244.185 261.48 244.373 261.293C244.561 261.105 244.815 261 245.08 261H249.58C249.845 261 250.1 261.105 250.287 261.293C250.475 261.48 250.58 261.735 250.58 262C250.58 262.265 250.475 262.52 250.287 262.707C250.1 262.895 249.845 263 249.58 263Z" fill="#FFC72C"/>
<path d="M71 356C70.8006 356 70.6056 355.941 70.44 355.83C70.3309 355.757 70.2373 355.662 70.1647 355.553C70.092 355.443 70.0417 355.32 70.0166 355.191C69.9916 355.062 69.9922 354.929 70.0185 354.8C70.0448 354.671 70.0963 354.549 70.17 354.44C71.94 351.82 74.2019 349.568 76.83 347.81C76.9387 347.728 77.0629 347.67 77.1951 347.637C77.3272 347.605 77.4645 347.601 77.5986 347.623C77.7327 347.646 77.8607 347.696 77.9748 347.77C78.089 347.844 78.1868 347.94 78.2624 348.053C78.338 348.166 78.3897 348.294 78.4145 348.427C78.4392 348.561 78.4364 348.698 78.4062 348.831C78.376 348.964 78.3191 349.089 78.239 349.199C78.1588 349.308 78.0571 349.401 77.94 349.47C75.5259 351.082 73.4503 353.151 71.83 355.56C71.7383 355.696 71.6146 355.807 71.4699 355.884C71.3252 355.96 71.1638 356 71 356ZM85.7 346.18C85.4348 346.205 85.1704 346.124 84.9651 345.954C84.7597 345.785 84.6302 345.54 84.605 345.275C84.5798 345.01 84.661 344.745 84.8307 344.54C85.0005 344.335 85.2448 344.205 85.51 344.18C87.0933 343.86 88.7047 343.699 90.32 343.7H94.74C95.0052 343.7 95.2596 343.805 95.4471 343.993C95.6347 344.18 95.74 344.435 95.74 344.7C95.74 344.965 95.6347 345.22 95.4471 345.407C95.2596 345.595 95.0052 345.7 94.74 345.7H90.29C88.8058 345.701 87.3253 345.848 85.87 346.14L85.7 346.18ZM112.88 345.72H103.78C103.515 345.72 103.26 345.615 103.073 345.427C102.885 345.24 102.78 344.985 102.78 344.72C102.78 344.455 102.885 344.2 103.073 344.013C103.26 343.825 103.515 343.72 103.78 343.72H112.85C113.115 343.72 113.37 343.825 113.557 344.013C113.745 344.2 113.85 344.455 113.85 344.72C113.85 344.985 113.745 345.24 113.557 345.427C113.37 345.615 113.115 345.72 112.85 345.72H112.88ZM121.94 345.65C121.809 345.654 121.678 345.632 121.555 345.585C121.432 345.539 121.32 345.468 121.224 345.378C121.128 345.288 121.052 345.18 120.998 345.06C120.944 344.941 120.914 344.811 120.91 344.68C120.906 344.549 120.928 344.418 120.975 344.295C121.021 344.172 121.092 344.06 121.182 343.964C121.272 343.868 121.38 343.791 121.5 343.738C121.619 343.684 121.749 343.654 121.88 343.65C124.802 343.466 127.688 342.912 130.47 342C130.595 341.958 130.728 341.941 130.86 341.95C130.992 341.96 131.121 341.995 131.239 342.055C131.357 342.114 131.462 342.197 131.548 342.297C131.634 342.398 131.699 342.514 131.74 342.64C131.822 342.892 131.801 343.166 131.681 343.402C131.561 343.639 131.352 343.818 131.1 343.9C128.152 344.856 125.094 345.434 122 345.62L121.94 345.65ZM139 340C138.833 340 138.668 339.957 138.521 339.877C138.375 339.797 138.25 339.681 138.16 339.54C138.016 339.318 137.966 339.049 138.02 338.79C138.075 338.532 138.229 338.305 138.45 338.16C140.925 336.568 143.19 334.669 145.19 332.51C145.369 332.316 145.618 332.2 145.883 332.189C146.147 332.178 146.405 332.271 146.6 332.45C146.698 332.539 146.777 332.646 146.833 332.766C146.889 332.886 146.921 333.015 146.926 333.147C146.932 333.28 146.911 333.411 146.865 333.535C146.82 333.659 146.75 333.773 146.66 333.87C144.547 336.16 142.155 338.175 139.54 339.87C139.376 339.963 139.189 340.009 139 340V340ZM151.18 326.83C151.012 326.831 150.847 326.79 150.7 326.71C150.469 326.583 150.297 326.37 150.222 326.117C150.147 325.864 150.175 325.592 150.3 325.36C151.693 322.769 152.748 320.009 153.44 317.15C153.471 317.019 153.527 316.895 153.606 316.785C153.685 316.676 153.784 316.583 153.899 316.512C154.014 316.441 154.141 316.393 154.274 316.371C154.408 316.349 154.544 316.354 154.675 316.385C154.806 316.416 154.93 316.472 155.04 316.551C155.149 316.63 155.242 316.729 155.313 316.844C155.384 316.959 155.432 317.086 155.454 317.219C155.476 317.353 155.471 317.489 155.44 317.62C154.665 320.65 153.509 323.57 152 326.31C151.916 326.468 151.791 326.601 151.638 326.694C151.485 326.787 151.309 326.838 151.13 326.84L151.18 326.83ZM155.42 309.4C155.155 309.4 154.9 309.295 154.713 309.107C154.525 308.92 154.42 308.665 154.42 308.4C154.392 305.438 154.087 302.485 153.51 299.58C153.484 299.449 153.485 299.314 153.512 299.182C153.538 299.051 153.59 298.927 153.665 298.816C153.74 298.705 153.836 298.61 153.947 298.536C154.059 298.462 154.184 298.411 154.315 298.385C154.446 298.359 154.581 298.36 154.713 298.386C154.844 298.413 154.968 298.465 155.079 298.54C155.19 298.615 155.285 298.711 155.359 298.822C155.433 298.934 155.484 299.059 155.51 299.19C156.132 302.215 156.467 305.292 156.51 308.38C156.51 308.645 156.405 308.9 156.217 309.087C156.03 309.275 155.775 309.38 155.51 309.38L155.42 309.4ZM151.83 291.75C151.634 291.75 151.442 291.692 151.278 291.583C151.115 291.475 150.987 291.321 150.91 291.14C149.758 288.421 148.313 285.836 146.6 283.43C146.51 283.325 146.443 283.202 146.402 283.069C146.362 282.936 146.35 282.797 146.367 282.659C146.384 282.522 146.429 282.389 146.499 282.27C146.57 282.15 146.665 282.047 146.777 281.967C146.89 281.886 147.018 281.829 147.154 281.801C147.29 281.772 147.43 281.772 147.565 281.801C147.701 281.83 147.829 281.886 147.942 281.967C148.055 282.047 148.149 282.151 148.22 282.27C150.021 284.793 151.54 287.506 152.75 290.36C152.853 290.604 152.855 290.879 152.756 291.125C152.657 291.37 152.464 291.566 152.22 291.67C152.081 291.73 151.931 291.761 151.78 291.76L151.83 291.75ZM141.32 277.13C141.074 277.132 140.835 277.043 140.65 276.88L140.53 276.76C138.342 274.863 135.97 273.188 133.45 271.76C133.232 271.622 133.077 271.405 133.015 271.154C132.954 270.903 132.992 270.639 133.121 270.416C133.25 270.192 133.46 270.028 133.708 269.956C133.956 269.884 134.221 269.91 134.45 270.03C137.087 271.53 139.567 273.292 141.85 275.29L141.98 275.41C142.179 275.585 142.3 275.832 142.317 276.096C142.334 276.361 142.245 276.621 142.07 276.82C141.974 276.921 141.857 277.001 141.728 277.055C141.599 277.108 141.46 277.134 141.32 277.13V277.13ZM184.32 276.55H184.13C180.963 275.981 177.997 274.603 175.52 272.55C175.32 272.379 175.195 272.137 175.173 271.875C175.15 271.613 175.232 271.352 175.4 271.15C175.484 271.049 175.587 270.965 175.703 270.904C175.82 270.842 175.947 270.805 176.078 270.792C176.209 270.78 176.341 270.794 176.467 270.833C176.592 270.872 176.709 270.936 176.81 271.02C179.025 272.839 181.675 274.052 184.5 274.54C184.765 274.564 185.01 274.692 185.181 274.897C185.351 275.101 185.434 275.365 185.41 275.63C185.386 275.895 185.258 276.14 185.053 276.311C184.849 276.481 184.585 276.564 184.32 276.54V276.55ZM193.32 276.25C193.055 276.279 192.789 276.202 192.581 276.035C192.373 275.868 192.239 275.625 192.21 275.36C192.181 275.095 192.258 274.829 192.425 274.621C192.592 274.413 192.835 274.279 193.1 274.25C195.962 273.535 198.731 272.488 201.35 271.13C201.589 271.013 201.864 270.996 202.115 271.082C202.367 271.169 202.573 271.351 202.69 271.59C202.807 271.829 202.824 272.104 202.738 272.355C202.651 272.607 202.469 272.813 202.23 272.93C199.471 274.349 196.559 275.446 193.55 276.2C193.479 276.226 193.405 276.243 193.33 276.25H193.32ZM209.81 268.82C209.589 268.817 209.375 268.74 209.202 268.602C209.029 268.464 208.906 268.273 208.853 268.058C208.801 267.843 208.821 267.616 208.911 267.414C209.001 267.212 209.155 267.045 209.35 266.94C212.067 265.503 214.888 264.273 217.79 263.26C217.917 263.207 218.053 263.181 218.19 263.183C218.327 263.186 218.462 263.216 218.586 263.272C218.711 263.329 218.823 263.41 218.915 263.512C219.007 263.613 219.077 263.733 219.121 263.863C219.165 263.992 219.182 264.13 219.171 264.266C219.159 264.403 219.12 264.536 219.055 264.656C218.99 264.777 218.901 264.883 218.794 264.968C218.686 265.053 218.562 265.115 218.43 265.15C215.625 266.131 212.897 267.321 210.27 268.71C210.131 268.781 209.977 268.819 209.82 268.82H209.81ZM125.81 267.89C125.677 267.891 125.545 267.867 125.42 267.82C123.04 266.82 120.36 265.82 116.99 264.66C116.749 264.567 116.552 264.384 116.443 264.149C116.334 263.914 116.32 263.647 116.404 263.402C116.488 263.157 116.664 262.954 116.895 262.837C117.125 262.719 117.392 262.695 117.64 262.77C121.05 263.94 123.77 264.96 126.19 265.97C126.401 266.06 126.575 266.22 126.682 266.423C126.79 266.625 126.824 266.859 126.779 267.084C126.735 267.309 126.614 267.512 126.438 267.659C126.261 267.806 126.04 267.887 125.81 267.89V267.89ZM171.59 265.2C171.355 265.204 171.125 265.125 170.942 264.977C170.76 264.829 170.635 264.621 170.59 264.39C170.409 263.451 170.318 262.496 170.32 261.54V261.21C170.392 259.045 170.888 256.915 171.78 254.94C171.887 254.697 172.087 254.507 172.334 254.412C172.582 254.316 172.857 254.323 173.1 254.43C173.343 254.537 173.533 254.737 173.628 254.984C173.724 255.232 173.717 255.507 173.61 255.75C172.82 257.48 172.381 259.349 172.32 261.25V261.54C172.318 262.366 172.399 263.19 172.56 264C172.586 264.129 172.586 264.263 172.561 264.392C172.535 264.522 172.484 264.645 172.411 264.755C172.337 264.864 172.243 264.958 172.133 265.031C172.023 265.104 171.9 265.155 171.77 265.18L171.59 265.2ZM227 263.26C226.735 263.273 226.475 263.181 226.278 263.002C226.081 262.824 225.963 262.575 225.95 262.31C225.937 262.045 226.029 261.785 226.208 261.588C226.386 261.391 226.635 261.273 226.9 261.26C228.734 261.067 230.576 260.973 232.42 260.98H236C236.265 260.98 236.52 261.085 236.707 261.273C236.895 261.46 237 261.715 237 261.98C237 262.245 236.895 262.5 236.707 262.687C236.52 262.875 236.265 262.98 236 262.98H232.36C230.586 262.975 228.814 263.065 227.05 263.25L227 263.26ZM108.72 261.83C108.611 261.83 108.502 261.81 108.4 261.77C107.33 261.41 106.28 261.05 105.24 260.68C103.33 260 101.51 259.29 99.83 258.57C99.5862 258.466 99.3934 258.27 99.294 258.025C99.1946 257.779 99.1968 257.504 99.3 257.26C99.3513 257.138 99.4262 257.027 99.5205 256.935C99.6148 256.842 99.7266 256.769 99.8494 256.719C99.9721 256.67 100.103 256.646 100.236 256.647C100.368 256.649 100.499 256.677 100.62 256.73C102.26 257.43 104.04 258.13 105.91 258.79C106.91 259.16 107.98 259.52 109.04 259.88C109.305 259.922 109.543 260.068 109.7 260.286C109.858 260.504 109.922 260.775 109.88 261.04C109.838 261.305 109.692 261.543 109.474 261.7C109.256 261.858 108.985 261.922 108.72 261.88V261.83ZM92.15 254.52C91.9628 254.521 91.7792 254.469 91.62 254.37C88.9395 252.764 86.5044 250.781 84.39 248.48C84.2284 248.279 84.1505 248.024 84.1725 247.767C84.1945 247.511 84.3148 247.272 84.5082 247.102C84.7016 246.932 84.9533 246.843 85.2108 246.854C85.4682 246.864 85.7115 246.974 85.89 247.16C87.8778 249.312 90.1645 251.168 92.68 252.67C92.7918 252.739 92.8888 252.83 92.9654 252.937C93.042 253.044 93.0968 253.165 93.1265 253.294C93.1563 253.422 93.1604 253.555 93.1387 253.684C93.117 253.814 93.0699 253.938 93 254.05C92.91 254.194 92.7846 254.313 92.6359 254.395C92.4872 254.477 92.32 254.52 92.15 254.52ZM177.87 248.94C177.613 248.939 177.365 248.839 177.18 248.66C176.994 248.473 176.889 248.219 176.889 247.955C176.889 247.691 176.994 247.437 177.18 247.25C179.32 245.034 181.663 243.026 184.18 241.25C184.396 241.096 184.665 241.035 184.926 241.079C185.188 241.123 185.421 241.269 185.575 241.485C185.729 241.701 185.791 241.97 185.746 242.231C185.702 242.493 185.556 242.726 185.34 242.88C182.913 244.582 180.656 246.515 178.6 248.65C178.504 248.745 178.39 248.82 178.265 248.87C178.139 248.92 178.005 248.943 177.87 248.94V248.94ZM81.11 240.85C80.8703 240.853 80.6375 240.77 80.454 240.616C80.2704 240.462 80.1484 240.247 80.11 240.01C79.9814 239.223 79.9179 238.427 79.92 237.63C79.9589 235.217 80.4826 232.837 81.46 230.63C81.5077 230.504 81.5803 230.389 81.6735 230.292C81.7666 230.195 81.8785 230.118 82.0022 230.065C82.126 230.012 82.2591 229.985 82.3937 229.984C82.5283 229.984 82.6615 230.011 82.7854 230.064C82.9093 230.116 83.0214 230.193 83.1148 230.29C83.2083 230.387 83.2812 230.502 83.3292 230.627C83.3773 230.753 83.3995 230.887 83.3944 231.022C83.3894 231.156 83.3573 231.288 83.3 231.41C82.4224 233.375 81.953 235.498 81.92 237.65C81.9178 238.337 81.9713 239.022 82.08 239.7C82.1234 239.961 82.0615 240.229 81.9078 240.445C81.7541 240.66 81.5211 240.806 81.26 240.85H81.11ZM192.5 238.37C192.318 238.369 192.14 238.318 191.985 238.222C191.83 238.127 191.704 237.992 191.62 237.83C191.497 237.595 191.472 237.321 191.551 237.068C191.629 236.815 191.805 236.603 192.04 236.48C193.69 235.61 195.38 234.77 197.04 233.93L200.12 232.38C200.356 232.261 200.63 232.241 200.881 232.324C201.132 232.406 201.34 232.584 201.46 232.82C201.52 232.937 201.557 233.066 201.567 233.197C201.578 233.329 201.562 233.461 201.521 233.587C201.48 233.712 201.415 233.828 201.329 233.928C201.243 234.029 201.138 234.111 201.02 234.17L198 235.72C196.33 236.55 194.65 237.39 193 238.25C192.847 238.333 192.674 238.374 192.5 238.37V238.37ZM208.5 229.83C208.333 229.83 208.168 229.787 208.021 229.707C207.875 229.627 207.75 229.511 207.66 229.37C207.524 229.143 207.483 228.872 207.547 228.615C207.611 228.358 207.774 228.137 208 228C209.769 226.841 211.441 225.54 213 224.11L214.83 222.42C215.027 222.26 215.277 222.182 215.53 222.199C215.782 222.217 216.019 222.33 216.192 222.515C216.364 222.701 216.46 222.945 216.46 223.198C216.46 223.451 216.363 223.695 216.19 223.88L214.35 225.58C212.683 227.089 210.893 228.457 209 229.67C208.851 229.767 208.678 229.822 208.5 229.83V229.83ZM87.71 224.83C87.5631 224.83 87.418 224.798 87.2849 224.736C87.1518 224.674 87.034 224.583 86.94 224.47C86.8463 224.368 86.7748 224.247 86.7303 224.115C86.6857 223.984 86.669 223.845 86.6812 223.706C86.6935 223.568 86.7343 223.434 86.8013 223.312C86.8682 223.191 86.9597 223.084 87.07 223C89.5117 221.046 92.2019 219.426 95.07 218.18C95.1921 218.108 95.3282 218.062 95.4693 218.046C95.6103 218.03 95.7532 218.045 95.8882 218.088C96.0233 218.132 96.1475 218.204 96.2527 218.299C96.3578 218.395 96.4414 218.511 96.4979 218.642C96.5544 218.772 96.5826 218.913 96.5805 219.055C96.5784 219.197 96.5461 219.336 96.4858 219.465C96.4254 219.593 96.3384 219.708 96.2305 219.8C96.1226 219.892 95.9963 219.96 95.86 220C93.1683 221.181 90.6434 222.711 88.35 224.55C88.1701 224.699 87.9437 224.78 87.71 224.78V224.83ZM221.87 217.7C221.668 217.712 221.468 217.662 221.295 217.557C221.122 217.453 220.985 217.298 220.902 217.114C220.818 216.93 220.793 216.725 220.828 216.526C220.863 216.327 220.958 216.144 221.1 216C223.049 213.78 224.728 211.336 226.1 208.72C226.225 208.492 226.434 208.322 226.683 208.245C226.932 208.169 227.2 208.193 227.432 208.311C227.663 208.429 227.84 208.633 227.923 208.88C228.007 209.126 227.992 209.395 227.88 209.63C226.45 212.384 224.697 214.959 222.66 217.3C222.563 217.414 222.441 217.504 222.305 217.565C222.168 217.625 222.019 217.654 221.87 217.65V217.7ZM103.87 216.77C103.634 216.772 103.405 216.691 103.223 216.54C103.042 216.39 102.919 216.18 102.877 215.948C102.835 215.715 102.877 215.476 102.994 215.271C103.112 215.067 103.298 214.91 103.52 214.83L104.43 214.5C107.09 213.5 109.59 212.6 111.93 211.58C112.051 211.519 112.184 211.484 112.319 211.476C112.455 211.468 112.591 211.487 112.718 211.533C112.846 211.58 112.963 211.651 113.062 211.744C113.161 211.837 113.24 211.949 113.295 212.073C113.349 212.198 113.377 212.332 113.378 212.468C113.379 212.603 113.352 212.738 113.299 212.863C113.247 212.988 113.169 213.101 113.071 213.195C112.973 213.289 112.857 213.362 112.73 213.41C110.33 214.41 107.8 215.41 105.13 216.41L104.22 216.75C104.099 216.76 103.978 216.749 103.86 216.72L103.87 216.77ZM120.08 208.87C119.879 208.867 119.684 208.805 119.519 208.69C119.355 208.574 119.229 208.412 119.158 208.225C119.086 208.037 119.073 207.832 119.12 207.637C119.167 207.442 119.271 207.265 119.42 207.13C121.555 205.158 123.272 202.778 124.47 200.13C124.52 200.002 124.596 199.886 124.693 199.789C124.79 199.692 124.906 199.616 125.034 199.565C125.162 199.515 125.299 199.491 125.436 199.496C125.573 199.501 125.708 199.534 125.832 199.593C125.956 199.652 126.066 199.737 126.156 199.84C126.246 199.944 126.314 200.065 126.355 200.196C126.396 200.327 126.41 200.465 126.395 200.602C126.381 200.739 126.338 200.871 126.27 200.99C124.96 203.869 123.083 206.454 120.75 208.59C120.56 208.748 120.317 208.83 120.07 208.82L120.08 208.87ZM230.08 201.73H229.83C229.703 201.697 229.583 201.64 229.477 201.561C229.372 201.482 229.284 201.383 229.217 201.269C229.15 201.156 229.106 201.031 229.088 200.9C229.069 200.77 229.077 200.637 229.11 200.51C229.856 197.64 230.335 194.708 230.54 191.75C230.549 191.619 230.584 191.49 230.643 191.373C230.702 191.255 230.783 191.15 230.882 191.063C230.982 190.977 231.097 190.911 231.222 190.869C231.347 190.828 231.479 190.811 231.61 190.82C231.741 190.829 231.87 190.864 231.987 190.923C232.105 190.982 232.21 191.063 232.297 191.162C232.383 191.262 232.449 191.377 232.491 191.502C232.532 191.627 232.549 191.759 232.54 191.89C232.299 194.943 231.784 197.969 231 200.93C230.946 201.138 230.827 201.324 230.659 201.459C230.492 201.594 230.285 201.672 230.07 201.68L230.08 201.73ZM128.38 193C128.291 193.015 128.199 193.015 128.11 193C127.983 192.965 127.865 192.906 127.761 192.825C127.657 192.745 127.57 192.644 127.505 192.53C127.44 192.416 127.398 192.29 127.382 192.16C127.366 192.029 127.375 191.897 127.41 191.77C127.68 190.83 127.93 189.89 128.18 188.96C128.65 187.22 129.18 185.42 129.66 183.68L129.88 183.01C129.91 182.875 129.968 182.747 130.05 182.635C130.132 182.524 130.237 182.43 130.357 182.361C130.477 182.292 130.61 182.248 130.748 182.233C130.886 182.218 131.025 182.232 131.157 182.274C131.289 182.316 131.411 182.384 131.516 182.476C131.62 182.567 131.704 182.679 131.762 182.805C131.821 182.931 131.853 183.067 131.856 183.206C131.859 183.344 131.833 183.482 131.78 183.61L131.57 184.28C131.05 185.97 130.57 187.75 130.11 189.47C129.86 190.47 129.6 191.37 129.34 192.31C129.274 192.512 129.146 192.688 128.973 192.812C128.8 192.936 128.593 193.002 128.38 193ZM231.38 183.69C231.133 183.691 230.894 183.601 230.709 183.437C230.524 183.273 230.407 183.046 230.38 182.8C230.046 179.858 229.444 176.952 228.58 174.12C228.532 173.992 228.511 173.856 228.518 173.719C228.525 173.583 228.56 173.449 228.621 173.327C228.681 173.205 228.766 173.096 228.87 173.008C228.975 172.919 229.096 172.853 229.226 172.814C229.357 172.774 229.494 172.761 229.63 172.777C229.766 172.792 229.897 172.835 230.015 172.903C230.134 172.972 230.237 173.063 230.319 173.173C230.4 173.282 230.459 173.407 230.49 173.54C231.389 176.477 232.018 179.489 232.37 182.54C232.385 182.671 232.374 182.805 232.338 182.932C232.301 183.059 232.24 183.178 232.157 183.281C232.074 183.384 231.972 183.47 231.855 183.533C231.739 183.597 231.612 183.636 231.48 183.65L231.38 183.69ZM133.9 175.74C133.738 175.736 133.579 175.693 133.438 175.614C133.296 175.535 133.176 175.422 133.087 175.287C132.999 175.151 132.944 174.995 132.929 174.834C132.914 174.673 132.938 174.51 133 174.36C134.177 171.527 135.512 168.763 137 166.08C137.066 165.965 137.153 165.864 137.258 165.783C137.363 165.702 137.482 165.643 137.61 165.608C137.738 165.573 137.871 165.564 138.002 165.58C138.133 165.597 138.26 165.639 138.375 165.705C138.49 165.771 138.591 165.858 138.672 165.963C138.753 166.068 138.812 166.187 138.847 166.315C138.882 166.443 138.891 166.576 138.875 166.707C138.858 166.838 138.816 166.965 138.75 167.08C137.311 169.694 136.022 172.389 134.89 175.15C134.806 175.338 134.666 175.496 134.489 175.602C134.311 175.708 134.106 175.756 133.9 175.74ZM226.07 166.45C225.887 166.451 225.708 166.403 225.551 166.309C225.394 166.216 225.266 166.081 225.18 165.92C223.805 163.294 222.192 160.8 220.36 158.47C220.279 158.366 220.218 158.247 220.183 158.12C220.147 157.993 220.137 157.861 220.153 157.73C220.169 157.599 220.21 157.472 220.275 157.357C220.34 157.242 220.426 157.141 220.53 157.06C220.634 156.979 220.753 156.918 220.88 156.883C221.007 156.847 221.139 156.837 221.27 156.853C221.401 156.869 221.528 156.91 221.643 156.975C221.758 157.04 221.859 157.126 221.94 157.23C223.86 159.66 225.554 162.261 227 165C227.123 165.235 227.148 165.509 227.07 165.762C226.991 166.015 226.815 166.227 226.58 166.35C226.422 166.428 226.246 166.462 226.07 166.45V166.45ZM142.73 160C142.514 160 142.303 159.93 142.13 159.8C141.919 159.639 141.781 159.402 141.745 159.139C141.71 158.877 141.78 158.611 141.94 158.4C143.217 156.707 144.593 155.091 146.06 153.56C146.71 152.87 147.4 152.19 148.06 151.56C148.251 151.373 148.508 151.27 148.776 151.272C149.043 151.275 149.298 151.384 149.485 151.575C149.672 151.766 149.775 152.023 149.773 152.291C149.77 152.558 149.661 152.813 149.47 153C148.79 153.63 148.13 154.28 147.47 154.94C146.05 156.421 144.715 157.98 143.47 159.61C143.382 159.725 143.271 159.819 143.143 159.886C143.015 159.953 142.874 159.992 142.73 160ZM214.93 152.31C214.687 152.31 214.452 152.221 214.27 152.06C212.047 150.09 209.647 148.329 207.1 146.8C206.987 146.732 206.888 146.643 206.809 146.536C206.731 146.43 206.674 146.309 206.642 146.181C206.611 146.053 206.605 145.919 206.625 145.789C206.645 145.658 206.691 145.533 206.76 145.42C206.897 145.194 207.118 145.031 207.375 144.967C207.632 144.903 207.903 144.944 208.13 145.08C210.776 146.664 213.273 148.485 215.59 150.52C215.789 150.695 215.91 150.942 215.927 151.206C215.944 151.471 215.855 151.731 215.68 151.93C215.586 152.037 215.471 152.122 215.342 152.181C215.212 152.239 215.072 152.27 214.93 152.27V152.31ZM156 147.68C155.784 147.679 155.575 147.609 155.402 147.48C155.23 147.35 155.104 147.169 155.043 146.962C154.982 146.755 154.99 146.534 155.065 146.332C155.14 146.129 155.279 145.957 155.46 145.84C158.063 144.179 160.815 142.762 163.68 141.61C163.927 141.512 164.202 141.516 164.446 141.621C164.69 141.726 164.882 141.923 164.98 142.17C165.078 142.417 165.074 142.692 164.969 142.936C164.864 143.18 164.667 143.372 164.42 143.47C161.671 144.578 159.03 145.937 156.53 147.53C156.371 147.629 156.187 147.681 156 147.68V147.68ZM199.45 143C199.334 143 199.219 142.98 199.11 142.94C196.329 141.917 193.461 141.15 190.54 140.65C190.275 140.605 190.038 140.456 189.883 140.237C189.727 140.017 189.665 139.745 189.71 139.48C189.755 139.215 189.904 138.978 190.123 138.823C190.343 138.667 190.615 138.605 190.88 138.65C193.919 139.171 196.905 139.968 199.8 141.03C200.061 141.076 200.293 141.225 200.445 141.442C200.597 141.66 200.656 141.929 200.61 142.19C200.564 142.451 200.415 142.683 200.198 142.835C199.98 142.987 199.711 143.046 199.45 143V143ZM172.67 141C172.405 141.025 172.14 140.944 171.935 140.774C171.73 140.605 171.6 140.36 171.575 140.095C171.55 139.83 171.631 139.565 171.801 139.36C171.97 139.155 172.215 139.025 172.48 139C175.506 138.386 178.583 138.051 181.67 138C181.935 138 182.19 138.105 182.377 138.293C182.565 138.48 182.67 138.735 182.67 139C182.67 139.265 182.565 139.52 182.377 139.707C182.19 139.895 181.935 140 181.67 140C178.704 140.038 175.749 140.349 172.84 140.93C172.787 140.961 172.73 140.985 172.67 141V141Z" fill="#FFC72C"/>
</svg>