<svg width="48" height="49" viewBox="0 0 48 49" fill="none" xmlns="http://www.w3.org/2000/svg">
<rect y="0.5" width="48" height="48" rx="24" fill="#F5F6FE"/>
<path d="M23.25 15.5125C23.25 15.9267 23.5858 16.2625 24 16.2625C24.4142 16.2625 24.75 15.9267 24.75 15.5125H23.25ZM24.75 13.5C24.75 13.0858 24.4142 12.75 24 12.75C23.5858 12.75 23.25 13.0858 23.25 13.5H24.75ZM30.06 20.1483C29.6458 20.1483 29.31 20.4841 29.31 20.8983C29.31 21.3125 29.6458 21.6483 30.06 21.6483V20.1483ZM31.9999 21.6483C32.4142 21.6483 32.7499 21.3125 32.7499 20.8983C32.7499 20.4841 32.4142 20.1483 31.9999 20.1483V21.6483ZM17.9401 21.6483C18.3543 21.6483 18.6901 21.3125 18.6901 20.8983C18.6901 20.4841 18.3543 20.1483 17.9401 20.1483V21.6483ZM16.0001 20.1483C15.5859 20.1483 15.2501 20.4841 15.2501 20.8983C15.2501 21.3125 15.5859 21.6483 16.0001 21.6483V20.1483ZM18.5398 14.8958C18.2521 14.5978 17.7773 14.5894 17.4793 14.877C17.1812 15.1646 17.1728 15.6394 17.4604 15.9375L18.5398 14.8958ZM19.0604 17.5954C19.348 17.8935 19.8228 17.9019 20.1209 17.6143C20.4189 17.3266 20.4274 16.8518 20.1397 16.5538L19.0604 17.5954ZM30.1708 15.9363C30.4578 15.6377 30.4483 15.1629 30.1496 14.8759C29.851 14.5889 29.3762 14.5983 29.0892 14.897L30.1708 15.9363ZM27.4592 16.5933C27.1722 16.8919 27.1817 17.3667 27.4803 17.6537C27.779 17.9407 28.2538 17.9312 28.5408 17.6326L27.4592 16.5933ZM25.03 27.5587V28.3087H25.4458L25.6661 27.9561L25.03 27.5587ZM26.91 24.5496L26.2861 24.1334C26.2819 24.1396 26.2779 24.1459 26.2739 24.1522L26.91 24.5496ZM27.59 22.5562L28.3375 22.6186L28.3382 22.6083L27.59 22.5562ZM22.12 18.9146L22.5313 19.5418L22.5364 19.5384L22.12 18.9146ZM21.0901 24.5496L21.7261 24.1522L21.7202 24.1427L21.714 24.1334L21.0901 24.5496ZM22.97 27.5587H23.72V27.3437L23.6061 27.1614L22.97 27.5587ZM24.87 29.0729L24.3259 28.5568L24.3124 28.571L24.2996 28.5859L24.87 29.0729ZM25.02 27.5587V26.8087C24.6058 26.8087 24.27 27.1445 24.27 27.5587H25.02ZM20.8999 35.6471L21.6381 35.5143L21.6346 35.495L21.6301 35.4759L20.8999 35.6471ZM13.1 35.6471L12.3697 35.4758L12.3669 35.4888L13.1 35.6471ZM34.9 35.6471L35.6382 35.5143L35.6347 35.495L35.6302 35.4759L34.9 35.6471ZM27.1001 35.6471L26.3698 35.4758L26.367 35.4888L27.1001 35.6471ZM24.75 15.5125V13.5H23.25V15.5125H24.75ZM30.06 21.6483H31.9999V20.1483H30.06V21.6483ZM17.9401 20.1483H16.0001V21.6483H17.9401V20.1483ZM17.4604 15.9375L19.0604 17.5954L20.1397 16.5538L18.5398 14.8958L17.4604 15.9375ZM29.0892 14.897L27.4592 16.5933L28.5408 17.6326L30.1708 15.9363L29.0892 14.897ZM22.8 28.7783H25.2V27.2783H22.8V28.7783ZM25.6661 27.9561L27.5461 24.947L26.2739 24.1522L24.3939 27.1614L25.6661 27.9561ZM27.5339 24.9658C27.9993 24.2682 28.2676 23.4546 28.3374 22.6186L26.8426 22.4939C26.7924 23.0954 26.6007 23.6618 26.2861 24.1334L27.5339 24.9658ZM28.3382 22.6083C28.3968 21.7662 28.2449 20.9199 27.8895 20.1592L26.5305 20.7941C26.7751 21.3176 26.8832 21.9088 26.8418 22.5042L28.3382 22.6083ZM27.8895 20.1592C27.5326 19.3953 26.9831 18.7526 26.2985 18.2922L25.4615 19.5369C25.9169 19.8432 26.2874 20.2738 26.5305 20.7941L27.8895 20.1592ZM26.2985 18.2922C25.6033 17.8247 24.8072 17.5896 24 17.5896V19.0896C24.5128 19.0896 25.0167 19.2378 25.4615 19.5369L26.2985 18.2922ZM24 17.5896C23.1894 17.5896 22.3849 17.8361 21.7037 18.2908L22.5364 19.5384C22.9752 19.2456 23.4907 19.0896 24 19.0896V17.5896ZM21.7088 18.2874C21.014 18.743 20.4651 19.4004 20.1106 20.1592L21.4695 20.7941C21.715 20.2688 22.0861 19.8337 22.5313 19.5418L21.7088 18.2874ZM20.1106 20.1592C19.7551 20.9199 19.6033 21.7662 19.6619 22.6083L21.1583 22.5042C21.1168 21.9088 21.225 21.3176 21.4695 20.7941L20.1106 20.1592ZM19.6619 22.6083C19.721 23.4586 20.0046 24.2739 20.4661 24.9658L21.714 24.1334C21.3955 23.6561 21.1991 23.0914 21.1583 22.5042L19.6619 22.6083ZM20.454 24.947L22.334 27.9561L23.6061 27.1614L21.7261 24.1522L20.454 24.947ZM22.22 27.5587V28.68H23.72V27.5587H22.22ZM22.22 28.68C22.22 28.9906 22.3273 29.327 22.5759 29.5891L23.6642 28.5568C23.7128 28.608 23.72 28.6569 23.72 28.68H22.22ZM22.5759 29.5891C22.8047 29.8302 23.1263 29.9858 23.48 29.9858V28.4858C23.5738 28.4858 23.6354 28.5264 23.6642 28.5568L22.5759 29.5891ZM23.48 29.9858H24.51V28.4858H23.48V29.9858ZM24.51 29.9858C24.8591 29.9858 25.2013 29.84 25.4404 29.5599L24.2996 28.5859C24.3587 28.5167 24.441 28.4858 24.51 28.4858V29.9858ZM25.4141 29.5891C25.6627 29.327 25.77 28.9906 25.77 28.68H24.27C24.27 28.6569 24.2773 28.608 24.3259 28.5568L25.4141 29.5891ZM25.77 28.68V27.5587H24.27V28.68H25.77ZM25.02 28.3087H25.03V26.8087H25.02V28.3087ZM21.7499 36.5C21.7499 36.2931 21.7175 36.033 21.6925 35.8567C21.679 35.7617 21.6656 35.6772 21.6555 35.6163C21.6505 35.5858 21.6462 35.561 21.6432 35.5435C21.6417 35.5347 21.6405 35.5278 21.6396 35.5229C21.6392 35.5204 21.6388 35.5184 21.6386 35.517C21.6384 35.5163 21.6383 35.5157 21.6382 35.5152C21.6382 35.515 21.6382 35.5148 21.6381 35.5147C21.6381 35.5146 21.6381 35.5145 21.6381 35.5144C21.6381 35.5144 21.6381 35.5144 21.6381 35.5144C21.6381 35.5143 21.6381 35.5143 20.8999 35.6471C20.1618 35.7799 20.1618 35.7799 20.1618 35.7798C20.1618 35.7798 20.1618 35.7798 20.1618 35.7798C20.1617 35.7797 20.1617 35.7797 20.1617 35.7797C20.1617 35.7797 20.1617 35.7797 20.1617 35.7797C20.1618 35.7798 20.1618 35.78 20.1619 35.7804C20.162 35.7811 20.1622 35.7823 20.1625 35.7839C20.1631 35.7873 20.164 35.7926 20.1652 35.7996C20.1677 35.8137 20.1712 35.8346 20.1756 35.8608C20.1843 35.9135 20.1959 35.9865 20.2074 36.0676C20.2323 36.2434 20.2499 36.4098 20.2499 36.5H21.7499ZM21.6301 35.4759C21.1472 33.4165 19.2331 31.9167 17 31.9167V33.4167C18.5668 33.4167 19.8526 34.466 20.1697 35.8183L21.6301 35.4759ZM17 31.9167C14.7669 31.9167 12.8527 33.4165 12.3698 35.4759L13.8302 35.8183C14.1473 34.466 15.4331 33.4167 17 33.4167V31.9167ZM12.3669 35.4888C12.2995 35.8009 12.25 36.1341 12.25 36.5H13.75C13.75 36.2717 13.7805 36.0491 13.8331 35.8054L12.3669 35.4888ZM17 31.2029C18.6038 31.2029 19.9499 29.9577 19.9499 28.3446H18.4499C18.4499 29.0698 17.8361 29.7029 17 29.7029V31.2029ZM19.9499 28.3446C19.9499 26.7314 18.6038 25.4863 17 25.4863V26.9863C17.8361 26.9863 18.4499 27.6194 18.4499 28.3446H19.9499ZM17 25.4863C15.3962 25.4863 14.05 26.7314 14.05 28.3446H15.55C15.55 27.6194 16.1638 26.9863 17 26.9863V25.4863ZM14.05 28.3446C14.05 29.9577 15.3962 31.2029 17 31.2029V29.7029C16.1638 29.7029 15.55 29.0698 15.55 28.3446H14.05ZM31 31.2029C32.6038 31.2029 33.95 29.9577 33.95 28.3446H32.45C32.45 29.0698 31.8362 29.7029 31 29.7029V31.2029ZM33.95 28.3446C33.95 26.7314 32.6038 25.4863 31 25.4863V26.9863C31.8362 26.9863 32.45 27.6194 32.45 28.3446H33.95ZM31 25.4863C29.3962 25.4863 28.0501 26.7314 28.0501 28.3446H29.5501C29.5501 27.6194 30.1639 26.9863 31 26.9863V25.4863ZM28.0501 28.3446C28.0501 29.9599 29.4085 31.2029 31 31.2029V29.7029C30.1716 29.7029 29.5501 29.0676 29.5501 28.3446H28.0501ZM35.75 36.5C35.75 36.2931 35.7176 36.033 35.6926 35.8567C35.6791 35.7617 35.6656 35.6772 35.6556 35.6163C35.6506 35.5858 35.6463 35.561 35.6433 35.5435C35.6418 35.5347 35.6405 35.5278 35.6397 35.5229C35.6392 35.5204 35.6389 35.5184 35.6386 35.517C35.6385 35.5163 35.6384 35.5157 35.6383 35.5152C35.6383 35.515 35.6382 35.5148 35.6382 35.5147C35.6382 35.5146 35.6382 35.5145 35.6382 35.5144C35.6382 35.5144 35.6382 35.5144 35.6382 35.5144C35.6382 35.5143 35.6382 35.5143 34.9 35.6471C34.1619 35.7799 34.1618 35.7799 34.1618 35.7798C34.1618 35.7798 34.1618 35.7798 34.1618 35.7798C34.1618 35.7797 34.1618 35.7797 34.1618 35.7797C34.1618 35.7797 34.1618 35.7797 34.1618 35.7797C34.1618 35.7798 34.1619 35.78 34.1619 35.7804C34.1621 35.7811 34.1623 35.7823 34.1626 35.7839C34.1632 35.7873 34.1641 35.7926 34.1653 35.7996C34.1677 35.8137 34.1713 35.8346 34.1757 35.8608C34.1844 35.9135 34.1959 35.9865 34.2074 36.0676C34.2324 36.2434 34.25 36.4098 34.25 36.5H35.75ZM35.6302 35.4759C35.1473 33.4165 33.2331 31.9167 31 31.9167V33.4167C32.5669 33.4167 33.8527 34.466 34.1698 35.8183L35.6302 35.4759ZM31 31.9167C28.7669 31.9167 26.8528 33.4165 26.3699 35.4759L27.8303 35.8183C28.1474 34.466 29.4332 33.4167 31 33.4167V31.9167ZM26.367 35.4888C26.2996 35.8009 26.2501 36.1341 26.2501 36.5H27.7501C27.7501 36.2717 27.7806 36.0491 27.8332 35.8054L26.367 35.4888Z" fill="#3E4FE5"/>
</svg>
