<svg width="320" height="234" viewBox="0 0 320 234" fill="none" xmlns="http://www.w3.org/2000/svg">
    <path d="M150.076 115.391C150.076 73.9693 183.655 40.3906 225.076 40.3906C266.498 40.3906 300.076 73.9693 300.076 115.391C300.076 156.812 266.498 190.391 225.076 190.391C183.655 190.391 150.076 156.812 150.076 115.391Z" fill="#F9F4E8"/>
    <path d="M171.309 144.91L139.529 167.516C138.629 168.156 138.418 169.404 139.058 170.305L144.854 178.453C145.495 179.353 146.743 179.564 147.643 178.924L179.424 156.318C182.574 154.077 183.311 149.707 181.071 146.557C178.83 143.406 174.459 142.669 171.309 144.91Z" fill="#3E4FE5" stroke="#3E4FE5" stroke-width="2"/>
    <path d="M181.137 146.263L186.899 142.164" stroke="#3E4FE5" stroke-width="2"/>
    <path d="M224.5 158C201.028 158 182 138.972 182 115.5C182 92.0279 201.028 73 224.5 73C247.972 73 267 92.0279 267 115.5C267 138.972 247.972 158 224.5 158Z" stroke="#3E4FE5" stroke-width="2" stroke-linecap="round" stroke-linejoin="round"/>
    <path d="M225.589 123.929C220.933 124.531 216.672 121.244 216.07 116.589C215.469 111.933 218.755 107.671 223.411 107.07C228.067 106.468 232.328 109.755 232.93 114.41C233.531 119.066 230.245 123.328 225.589 123.929Z" stroke="#3E4FE5" stroke-width="2" stroke-linecap="round" stroke-linejoin="round"/>
    <circle r="9.5" transform="matrix(-0.593041 -0.805173 -0.805173 0.593041 223.991 89.4691)" fill="#3E4FE5"/>
    <circle r="6" transform="matrix(-0.593041 -0.805173 -0.805173 0.593041 205.028 96.6022)" fill="#3E4FE5"/>
    <circle r="46.5" transform="matrix(-1 8.867e-08 8.867e-08 1 224.5 115.5)" stroke="#3E4FE5" stroke-width="2"/>
    <circle cx="81.5" cy="31.5" r="31.5" fill="#F9F4E8"/>
    <circle cx="274.5" cy="221.5" r="12.5" fill="#F9F4E8"/>
    <circle cx="18.5" cy="125.5" r="18.5" fill="#F9F4E8"/>
</svg>
