<svg width="380" height="160" viewBox="0 0 380 160" fill="none" xmlns="http://www.w3.org/2000/svg">
<g clip-path="url(#clip0_16757_256569)">
<rect x="116" y="6" width="148" height="148" rx="74" fill="white"/>
<path d="M190 124C214.301 124 234 104.301 234 80C234 55.6995 214.301 36 190 36C165.699 36 146 55.6995 146 80C146 104.301 165.699 124 190 124Z" stroke="#3E4FE5" stroke-width="1.5" stroke-miterlimit="10"/>
<g clip-path="url(#clip1_16757_256569)">
<path d="M221.766 83.0973C221.586 83.1693 221.374 83.1342 221.228 83.0014C221.01 82.8021 220.981 82.4672 221.172 82.2476C221.917 81.3769 222.66 80.4714 223.374 79.5532C223.551 79.3273 223.885 79.2897 224.11 79.4747C224.335 79.6597 224.378 80.0009 224.201 80.2268C223.48 81.1593 222.722 82.0831 221.967 82.9578C221.909 83.0167 221.847 83.0653 221.766 83.0973ZM226.089 77.5621C225.929 77.6261 225.736 77.6076 225.584 77.4891C225.349 77.308 225.286 76.9749 225.459 76.7386C226.127 75.7913 226.787 74.8233 227.408 73.8467C227.567 73.6041 227.888 73.5356 228.129 73.7023C228.37 73.869 228.443 74.1982 228.284 74.4408C227.647 75.4357 226.981 76.4179 226.307 77.3796C226.248 77.4631 226.17 77.5301 226.089 77.5621ZM170.883 96.6616C170.813 96.6896 170.738 96.7073 170.652 96.6941C169.49 96.6081 168.302 96.4849 167.126 96.333C166.832 96.2951 166.632 96.0282 166.664 95.7289C166.695 95.4296 166.953 95.2312 167.247 95.2691C168.4 95.4187 169.563 95.5396 170.711 95.6193C170.997 95.6366 171.226 95.8915 171.209 96.1971C171.193 96.4186 171.063 96.5896 170.883 96.6616ZM229.886 71.6396C229.736 71.6996 229.567 71.6835 229.417 71.5998C229.17 71.4474 229.083 71.112 229.228 70.8631C229.813 69.8533 230.379 68.8269 230.922 67.7981C231.062 67.5389 231.376 67.4499 231.628 67.588C231.885 67.7363 231.978 68.0575 231.848 68.3127C231.299 69.3557 230.731 70.4067 230.136 71.4205C230.07 71.5184 229.986 71.5996 229.886 71.6396ZM163.922 95.7598C163.832 95.7958 163.743 95.8072 163.642 95.7877C162.486 95.5683 161.317 95.318 160.174 95.0454C159.891 94.9789 159.708 94.6937 159.778 94.403C159.838 94.1163 160.114 93.9345 160.4 94.0114C161.533 94.288 162.678 94.5359 163.817 94.7387C164.105 94.791 164.298 95.0721 164.252 95.3651C164.21 95.5494 164.082 95.6958 163.922 95.7598ZM233.143 65.3831C233.012 65.4351 232.861 65.4356 232.716 65.3622C232.453 65.2281 232.34 64.915 232.466 64.6495C232.962 63.5916 233.436 62.5067 233.88 61.4339C233.992 61.1621 234.303 61.0381 234.571 61.1579C234.84 61.2776 234.968 61.5971 234.855 61.8689C234.406 62.956 233.926 64.0552 233.424 65.1275C233.357 65.2499 233.253 65.3391 233.143 65.3831ZM157.079 94.106C156.979 94.146 156.856 94.1591 156.737 94.123C155.604 93.7868 154.464 93.4055 153.364 93.0082C153.093 92.913 152.936 92.6056 153.034 92.3275C153.122 92.0534 153.421 91.8985 153.695 92.0039C154.781 92.395 155.903 92.7597 157.012 93.0935C157.289 93.1744 157.456 93.4778 157.382 93.7582C157.341 93.9179 157.23 94.046 157.079 94.106ZM235.836 58.8498C235.715 58.8978 235.588 58.9006 235.451 58.8479C235.177 58.7424 235.039 58.4269 235.142 58.1592C235.539 57.0571 235.907 55.9424 236.252 54.8254C236.336 54.541 236.639 54.3964 236.909 54.4916C237.19 54.5827 237.337 54.8942 237.249 55.1683C236.898 56.2996 236.524 57.4286 236.121 58.545C236.072 58.684 235.966 58.7978 235.836 58.8498ZM150.442 91.7134C150.321 91.7614 150.18 91.7579 150.043 91.7052C148.939 91.238 147.856 90.7382 146.799 90.2162C146.537 90.0821 146.423 89.7689 146.55 89.5034C146.676 89.238 146.981 89.1283 147.244 89.2624C148.272 89.7718 149.341 90.2653 150.431 90.7261C150.7 90.8459 150.833 91.1511 150.721 91.4229C150.682 91.5579 150.572 91.6614 150.442 91.7134ZM203.049 68.1085C202.798 68.2085 202.495 68.0904 202.383 67.8367C201.885 66.7931 201.281 65.8037 200.585 64.8749C200.408 64.635 200.447 64.2967 200.669 64.1246C200.901 63.9485 201.233 63.995 201.406 64.2247C202.147 65.2073 202.79 66.2648 203.326 67.3766C203.457 67.6468 203.351 67.9638 203.089 68.0925C203.069 68.1005 203.059 68.1045 203.049 68.1085ZM173.737 78.5014C173.686 78.5214 173.632 78.5311 173.574 78.5305C173.286 78.5377 173.035 78.3155 173.022 78.0219C172.947 76.7856 172.959 75.5625 173.056 74.3772C173.077 74.0819 173.331 73.8732 173.621 73.9008C173.911 73.9285 174.12 74.1913 174.099 74.4866C174.002 75.6124 173.994 76.7862 174.072 77.9733C174.074 78.2114 173.947 78.4174 173.737 78.5014ZM237.913 52.0844C237.813 52.1244 237.7 52.1335 237.581 52.0973C237.305 52.0164 237.131 51.7273 237.201 51.4366C237.493 50.3047 237.763 49.1459 237.993 48.0031C238.053 47.7164 238.329 47.5345 238.611 47.6011C238.893 47.6677 239.077 47.9528 239.017 48.2395C238.781 49.3966 238.506 50.5698 238.212 51.7263C238.175 51.8962 238.063 52.0244 237.913 52.0844ZM144.103 88.5564C143.963 88.6124 143.798 88.6066 143.648 88.5229C142.603 87.9127 141.58 87.2699 140.61 86.6174C140.369 86.4507 140.296 86.1215 140.455 85.879C140.614 85.6364 140.935 85.5679 141.176 85.7346C142.127 86.3705 143.122 87.0007 144.15 87.5943C144.406 87.7427 144.5 88.0639 144.359 88.323C144.312 88.4375 144.214 88.5124 144.103 88.5564ZM198.768 62.4465C198.597 62.5145 198.39 62.4897 198.23 62.3505C198.179 62.311 198.124 62.2612 198.074 62.2217C197.241 61.5028 196.342 60.8819 195.425 60.3879C195.172 60.2498 195.064 59.9224 195.205 59.6632C195.336 59.408 195.655 59.3046 195.912 59.453C196.894 59.9928 197.853 60.6493 198.741 61.4179C198.796 61.4678 198.846 61.5073 198.901 61.5571C199.12 61.7564 199.149 62.0913 198.968 62.3069C198.91 62.3658 198.838 62.4185 198.768 62.4465ZM174.342 71.4271C174.242 71.4671 174.13 71.4761 174.011 71.44C173.734 71.3591 173.561 71.07 173.631 70.7793C173.932 69.5839 174.333 68.4326 174.831 67.35C174.957 67.0845 175.262 66.9748 175.521 67.0986C175.784 67.2327 175.897 67.5459 175.78 67.8073C175.316 68.8287 174.929 69.9267 174.647 71.0547C174.604 71.2389 174.493 71.3671 174.342 71.4271ZM138.235 84.5669C138.064 84.6349 137.867 84.6062 137.715 84.4876C136.759 83.7223 135.845 82.9165 134.999 82.1072C134.79 81.9039 134.771 81.5651 134.966 81.3557C135.162 81.1464 135.494 81.1334 135.703 81.3367C136.526 82.1191 137.408 82.902 138.346 83.6507C138.571 83.8357 138.624 84.1728 138.447 84.3988C138.397 84.4783 138.315 84.5349 138.235 84.5669ZM192.589 59.1064C192.489 59.1464 192.376 59.1555 192.271 59.1256C191.182 58.8433 190.058 58.7064 188.934 58.7132C188.642 58.7101 188.397 58.4736 188.394 58.176C188.392 57.8783 188.619 57.6324 188.911 57.6354C190.118 57.6316 191.338 57.7778 192.518 58.0836C192.804 58.1604 192.978 58.4496 192.908 58.7403C192.861 58.9142 192.749 59.0424 192.589 59.1064ZM177.272 65.0502C177.112 65.1142 176.918 65.0957 176.766 64.9772C176.532 64.7962 176.478 64.459 176.651 64.2227C177.361 63.2348 178.177 62.3361 179.067 61.5389C179.281 61.3461 179.615 61.3681 179.808 61.5897C180.001 61.8113 179.986 62.1518 179.772 62.3446C178.943 63.0933 178.176 63.937 177.51 64.8597C177.434 64.9616 177.362 65.0142 177.272 65.0502ZM182.448 60.4289C182.207 60.5249 181.923 60.4235 181.79 60.1778C181.649 59.9116 181.741 59.5883 181.989 59.4534C182.532 59.1532 183.101 58.8903 183.672 58.6623C184.214 58.4463 184.767 58.2612 185.333 58.1071C185.616 58.03 185.906 58.2013 185.976 58.4955C186.057 58.7857 185.895 59.0775 185.608 59.1443C184.536 59.4287 183.483 59.8487 182.494 60.3986C182.488 60.4129 182.468 60.4209 182.448 60.4289ZM133.113 79.6227C132.912 79.7027 132.668 79.6447 132.516 79.4666C131.719 78.5183 130.988 77.5317 130.34 76.548C130.183 76.3001 130.237 75.9682 130.487 75.8086C130.727 75.6531 131.054 75.714 131.215 75.9722C131.836 76.9187 132.541 77.8681 133.311 78.7791C133.504 79.0008 133.479 79.3453 133.261 79.5277C133.219 79.5683 133.163 79.6027 133.113 79.6227ZM129.245 73.6284C128.985 73.7324 128.692 73.6103 128.575 73.3464C128.389 72.9668 128.218 72.5689 128.062 72.1773C127.766 71.4354 127.51 70.6774 127.298 69.9138C127.222 69.6339 127.38 69.3318 127.653 69.2587C127.936 69.1816 128.225 69.3529 128.302 69.6328C128.507 70.3513 128.747 71.068 129.03 71.779C129.178 72.15 129.34 72.5273 129.513 72.9005C129.634 73.1748 129.528 73.4918 129.261 73.6101C129.255 73.6244 129.255 73.6244 129.245 73.6284Z" fill="#D7D6D6"/>
<path d="M240.944 41.871C240.784 40.8743 239.065 40.3348 237.106 40.6659C235.147 40.9971 233.689 42.0736 233.85 43.0703C234.01 44.067 235.729 44.6065 237.688 44.2754C239.647 43.9442 241.105 42.8678 240.944 41.871Z" fill="#716E6E"/>
<path d="M243.092 42.9656C243.589 40.9852 243.256 39.2021 242.35 38.983C241.443 38.7638 240.305 40.1916 239.808 42.172C239.312 44.1524 239.644 45.9355 240.551 46.1546C241.458 46.3738 242.596 44.946 243.092 42.9656Z" fill="#716E6E"/>
<path d="M241.194 42.0218C241.708 41.1223 240.755 39.6214 239.065 38.6694C237.375 37.7174 235.588 37.6749 235.074 38.5744C234.56 39.4739 235.514 40.9748 237.204 41.9268C238.894 42.8788 240.68 42.9213 241.194 42.0218Z" fill="#AEADAD"/>
<path d="M242.018 38.6704C242.24 38.8878 242.205 39.3116 241.944 39.6046C241.683 39.8976 241.3 39.9639 241.078 39.7466C240.856 39.5292 240.891 39.1053 241.152 38.8124C241.407 38.5121 241.795 38.4531 242.018 38.6704Z" fill="#353131"/>
<path d="M243.634 44.9635C243.618 44.9885 243.59 44.9989 243.571 44.9901C243.531 44.9859 243.51 44.9435 243.514 44.9039C243.733 43.8781 242.469 41.6661 242.355 41.4937C242.332 41.4645 242.338 41.4117 242.375 41.3822C242.412 41.3527 242.451 41.3569 242.481 41.3934C242.498 41.4153 243.915 43.7439 243.665 44.9267C243.651 44.9385 243.643 44.9444 243.634 44.9635Z" fill="#999999"/>
<path d="M244.648 43.9896C244.632 44.0146 244.617 44.0264 244.584 44.0295C244.55 44.0326 244.507 43.9947 244.512 43.9551C244.485 42.91 242.753 41.0491 242.595 40.9121C242.564 40.8888 242.557 40.8345 242.588 40.7977C242.612 40.7668 242.66 40.752 242.69 40.7885C242.707 40.8104 244.631 42.7451 244.659 43.9573C244.659 43.9573 244.657 43.9705 244.648 43.9896Z" fill="#999999"/>
<path d="M188.294 80.6667C189.27 78.5952 191.904 77.1111 195 77.1111C198.927 77.1111 202.111 79.4989 202.111 82.4444C202.111 84.9323 199.84 87.0224 196.768 87.6117C195.803 87.7967 195 88.5737 195 89.5556M195 94.8889H195.018M211 86C211 94.8366 203.837 102 195 102C186.163 102 179 94.8366 179 86C179 77.1634 186.163 70 195 70C203.837 70 211 77.1634 211 86Z" stroke="#B2B9F5" stroke-width="1.5" stroke-linecap="round" stroke-linejoin="round" stroke-dasharray="3 3"/>
</g>
<path d="M174.063 110.474C175.715 109.298 176.102 107.003 174.927 105.35C173.753 103.696 171.462 103.31 169.81 104.486L153.629 116.013C152.73 116.654 152.519 117.904 153.158 118.804L155.095 121.531C155.735 122.432 156.982 122.642 157.882 122.001L174.063 110.474Z" fill="white" stroke="#353131" stroke-width="1.5"/>
<path d="M174.545 105.494L177.486 103.398" stroke="#353131" stroke-width="1.5"/>
<path d="M196.5 109C185.73 109 177 100.27 177 89.5C177 78.7304 185.73 70 196.5 70C207.27 70 216 78.7304 216 89.5C216 100.27 207.27 109 196.5 109Z" stroke="#353131" stroke-width="1.5" stroke-linecap="round" stroke-linejoin="round"/>
<path d="M196.4 111C184.306 111 175 101.374 175 89.5C175 77.6259 184.306 68 196.4 68C208.493 68 218 77.6259 218 89.5C218 101.374 208.493 111 196.4 111Z" stroke="white" stroke-width="2.5" stroke-linecap="round" stroke-linejoin="round"/>
<circle cx="23.5" cy="23.5" r="23.5" transform="matrix(-1 8.867e-08 8.867e-08 1 220 66)" stroke="#353131" stroke-width="1.5"/>
</g>
<circle cx="321" cy="86.4219" r="25" fill="white"/>
<circle cx="272.5" cy="25.6484" r="13.5" fill="white"/>
<circle cx="50.5" cy="131.383" r="16.5" fill="white"/>
<defs>
<clipPath id="clip0_16757_256569">
<rect x="116" y="6" width="148" height="148" rx="74" fill="white"/>
</clipPath>
<clipPath id="clip1_16757_256569">
<rect width="131.52" height="68.6128" fill="white" transform="translate(115.216 67.5469) rotate(-25.0575)"/>
</clipPath>
</defs>
</svg>
