<svg width="68" height="61" viewBox="0 0 68 61" fill="none" xmlns="http://www.w3.org/2000/svg">
<path d="M18.7116 8.05086C9.91832 10.9887 3.03457 18.729 1.39221 28.608C0.928579 31.3892 0.865714 34.2957 1.25862 37.2414C1.29005 37.4686 1.32149 37.7036 1.36078 37.9308C1.54152 39.059 1.78512 40.1479 2.09945 41.2212C2.2959 41.895 2.51593 42.5452 2.75953 43.1955L2.78311 43.2503C3.02671 43.9005 3.29389 44.5273 3.58464 45.1462C7.7809 54.0694 16.6606 60 26.6012 60H31.8662M14.2718 41.5975L9.47828 46.1336H4.08758M11.5607 34.9996C8.76317 37.6476 7.1051 39.2066 7.1051 39.2066H1.21933M8.28382 23.1869H2.88526M7.0344 39.4984C6.58648 37.5242 6.35073 35.4716 6.35073 33.3563C6.35073 26.0783 9.14824 19.4896 13.6745 14.6794M49.1463 52.9797C44.6043 57.3356 38.5378 59.9914 31.8819 59.9914C22.2006 59.9914 13.7767 54.3664 9.44685 46.0777M53.4132 42.3014C50.1914 45.1609 46.0187 46.8844 41.461 46.8844C31.2768 46.8844 23.0179 38.2667 23.0179 27.6356C23.0179 24.2903 23.8351 21.1488 25.2732 18.4068M29.9252 12.6193C33.0842 9.97919 37.0919 8.39667 41.461 8.39667C51.6452 8.39667 59.9041 17.0144 59.9041 27.6455C59.9041 31.735 58.6782 35.5346 56.588 38.6527M56.4151 16.7298L29.1708 42.5202M56.1636 5.28437L50.5057 10.643M24.5031 35.2505L19.0495 40.4133H13.6588M49.8378 2.11394L43.2055 8.3892M22.8371 27.6764C19.0181 31.288 16.6842 33.4816 16.6842 33.4816H10.7984M59.5505 24.0652L36.1096 46.2519M17.8629 17.4673H12.4644M41.3824 54.2248C31.7326 54.2248 23.3401 48.6233 19.026 40.3581M16.6135 33.7787C16.1656 31.8044 15.9298 29.7518 15.9298 27.6366C15.9298 12.9238 27.3635 1 41.461 1M57.1066 40.4142C57.1066 41.6992 56.0617 42.741 54.7727 42.741C53.4837 42.741 52.4388 41.6992 52.4388 40.4142C52.4388 39.1291 53.4837 38.0874 54.7727 38.0874C56.0617 38.0874 57.1066 39.1291 57.1066 40.4142ZM41.4846 1H36.1096C23.7644 1 13.0301 10.1504 10.9163 22.842C10.4527 25.6232 10.3898 28.5297 10.7827 31.4754C10.8141 31.7026 10.8456 31.9376 10.8849 32.1648C11.0656 33.2929 11.3092 34.3819 11.6235 35.4552C11.82 36.1289 12.04 36.787 12.2836 37.4294L12.3072 37.4843C12.5508 38.1345 12.818 38.7613 13.1087 39.3802C17.305 48.3034 26.1847 54.234 36.1253 54.234H41.3903C41.3903 54.234 41.4531 54.234 41.4924 54.234C55.5742 54.234 67 42.318 67 27.6209C67 12.9238 55.5664 1 41.4846 1ZM31.379 15.2739C31.379 17.3854 29.6621 19.0971 27.5442 19.0971C25.4263 19.0971 23.7094 17.3854 23.7094 15.2739C23.7094 13.1625 25.4263 11.4508 27.5442 11.4508C29.6621 11.4508 31.379 13.1625 31.379 15.2739Z" stroke="#3E4FE5" stroke-width="1.5" stroke-miterlimit="10"/>
</svg>
