<svg width="193" height="32" viewBox="0 0 193 32" fill="none" xmlns="http://www.w3.org/2000/svg">
<g clip-path="url(#clip0_3458_16369)">
<path d="M41.3683 21.801V31.9966H38.3929V7.50091H41.2236L41.2598 10.7017C42.4097 8.36879 44.5468 7.14062 47.5765 7.14062C52.7071 7.14062 55.574 10.847 55.574 16.1976C55.574 21.5482 52.689 25.3103 47.5765 25.3103C44.6172 25.3103 42.5545 24.0443 41.3683 21.803V21.801ZM47.0659 22.6868C50.6987 22.6868 52.5262 19.9757 52.5262 16.1976C52.5262 12.4195 50.7007 9.78009 47.0659 9.78009C43.431 9.78009 41.2598 12.4912 41.2598 16.1976C41.2598 19.904 43.4873 22.6868 47.0659 22.6868V22.6868Z" fill="#F9F4E8"/>
<path d="M58.7142 16.1976C58.7142 11.0998 61.947 7.14062 67.0032 7.14062C72.0594 7.14062 74.9463 10.648 74.9463 15.8911C74.9463 16.2892 74.9463 16.7052 74.9101 17.1391H61.7097C62.0374 20.5549 64.0458 22.7983 67.2605 22.7983C69.9263 22.7983 71.4603 21.6417 72.2262 19.689L74.6186 20.3578C73.6516 23.6303 70.9476 25.3123 67.2786 25.3123C62.0012 25.3123 58.7162 21.4069 58.7162 16.1996L58.7142 16.1976ZM71.989 14.8062C71.7337 11.4979 69.9625 9.59895 66.9851 9.59895C64.0076 9.59895 62.1279 11.6771 61.7258 14.8062H71.987H71.989Z" fill="#F9F4E8"/>
<path d="M79.1079 7.50129H81.9024L81.8843 11.0265C83.0523 8.06262 85.7001 6.59758 88.8966 7.28432L88.8242 10.3756C85.4467 9.57942 81.9949 11.6416 81.9949 16.1064V24.9464H79.1099V7.50129H79.1079Z" fill="#F9F4E8"/>
<path d="M90.5371 16.2155C90.5371 11.0461 93.806 7.14062 99.1377 7.14062C103.136 7.14062 106.114 9.00178 106.97 13.1421L104.268 13.5761C103.593 11.1177 101.986 9.70843 99.1738 9.70843C95.541 9.70843 93.5326 12.4932 93.5326 16.2175C93.5326 19.9418 95.541 22.7266 99.1738 22.7266C101.986 22.7266 103.593 21.3173 104.268 18.857L106.97 19.3088C106.112 23.4492 103.136 25.3103 99.1377 25.3103C93.806 25.3103 90.5371 21.385 90.5371 16.2155V16.2155Z" fill="#F9F4E8"/>
<path d="M110.291 16.1976C110.291 10.8649 113.305 7.14062 118.436 7.14062C121.485 7.14062 123.512 8.3887 124.626 10.7017L124.644 7.50091H127.475V24.948H124.736L124.7 21.4586C123.586 23.899 121.542 25.3083 118.438 25.3083C113.307 25.3083 110.293 21.5661 110.293 16.1956L110.291 16.1976ZM118.8 22.6868C122.378 22.6868 124.606 19.902 124.606 16.1976C124.606 12.4932 122.378 9.78009 118.8 9.78009C115.221 9.78009 113.339 12.4196 113.339 16.1976C113.339 19.9757 115.165 22.6868 118.8 22.6868Z" fill="#F9F4E8"/>
<path d="M135.999 21.801V31.9966H133.023V7.50091H135.854L135.89 10.7017C137.04 8.36879 139.177 7.14062 142.207 7.14062C147.337 7.14062 150.204 10.847 150.204 16.1976C150.204 21.5482 147.319 25.3103 142.207 25.3103C139.247 25.3103 137.185 24.0443 135.999 21.803V21.801ZM141.696 22.6868C145.329 22.6868 147.156 19.9757 147.156 16.1976C147.156 12.4195 145.331 9.78009 141.696 9.78009C138.061 9.78009 135.89 12.4912 135.89 16.1976C135.89 19.904 138.118 22.6868 141.696 22.6868V22.6868Z" fill="#F9F4E8"/>
<path d="M155.753 1.28769e-05C156.975 1.28769e-05 157.962 0.90372 157.962 2.06222C157.94 3.2446 156.951 4.18613 155.757 4.16423C154.595 4.14234 153.658 3.21474 153.634 2.06222C153.652 0.915663 154.597 -0.00396821 155.753 1.28769e-05ZM154.31 7.50238H157.285V24.9495H154.31V7.50238Z" fill="#F9F4E8"/>
<path d="M164.516 19.3996V9.96243H160.884V7.50411H164.516V2.31675L167.474 1.88281V7.5061H173.298V9.96442H167.474V19.0393C167.474 21.4439 168.368 22.5825 170.469 22.5825C171.33 22.6064 172.178 22.3854 172.916 21.9495L173.702 24.3182C172.582 24.9214 171.324 25.2259 170.051 25.204C166.563 25.204 164.518 23.3608 164.518 19.4016L164.516 19.3996Z" fill="#F9F4E8"/>
<path d="M175.819 16.1976C175.819 10.8649 178.833 7.14062 183.963 7.14062C187.013 7.14062 189.04 8.3887 190.153 10.7017L190.171 7.50091H193.002V24.948H190.264L190.228 21.4586C189.114 23.899 187.069 25.3083 183.965 25.3083C178.835 25.3083 175.821 21.5661 175.821 16.1956L175.819 16.1976ZM184.327 22.6868C187.906 22.6868 190.133 19.902 190.133 16.1976C190.133 12.4932 187.906 9.78009 184.327 9.78009C180.749 9.78009 178.867 12.4196 178.867 16.1976C178.867 19.9757 180.692 22.6868 184.327 22.6868Z" fill="#F9F4E8"/>
<path d="M4.52545 21.4297C2.0265 21.4297 0 23.4362 0 25.9104C0 28.3847 2.0265 30.3911 4.52545 30.3911C7.0244 30.3911 9.0509 28.3847 9.0509 25.9104C8.98656 23.3864 7.01032 21.4297 4.52545 21.4297V21.4297Z" fill="#F9F4E8"/>
<path d="M4.52545 2.06449C2.0265 2.06449 0 4.06897 0 6.54322C0 9.01746 2.0265 11.0239 4.52545 11.0239C7.0244 11.0239 9.0509 9.01746 9.0509 6.54322C8.98656 4.01722 7.01032 2.0625 4.52545 2.0625V2.06449Z" fill="#F9F4E8"/>
<path d="M4.52545 11.75C2.0265 11.75 0 13.7565 0 16.2307C0 18.705 2.0265 20.7114 4.52545 20.7114C7.0244 20.7114 9.0509 18.705 9.0509 16.2307C8.98656 13.7067 7.01032 11.75 4.52545 11.75V11.75Z" fill="#F9F4E8"/>
<path d="M26.1857 6.53907C26.1857 5.39053 25.2448 4.45895 24.0848 4.46094C22.9248 4.46094 21.9839 5.39252 21.9839 6.54106C21.9839 7.6896 22.9248 8.61919 24.0848 8.61919C25.2428 8.61521 26.1796 7.68562 26.1857 6.53907Z" fill="#F9F4E8"/>
<path d="M18.2827 6.53886C18.2827 4.36319 16.5015 2.60156 14.3061 2.60156C12.1087 2.60156 10.3295 4.36519 10.3295 6.53886C10.3295 8.71453 12.1108 10.4762 14.3061 10.4762C16.5457 10.4204 18.2827 8.70059 18.2827 6.53886Z" fill="#F9F4E8"/>
<path d="M26.1857 16.2286C26.1857 15.08 25.2448 14.1484 24.0868 14.1484C22.9268 14.1484 21.9859 15.08 21.9859 16.2266C21.9859 17.3751 22.9268 18.3067 24.0848 18.3067C25.2428 18.3027 26.1796 17.3751 26.1857 16.2286Z" fill="#F9F4E8"/>
<path d="M18.2827 16.2264C18.2827 14.0507 16.5015 12.2891 14.3061 12.2891C12.1108 12.2891 10.3295 14.0527 10.3295 16.2264C10.3295 18.4 12.1108 20.1637 14.3061 20.1637C16.5457 20.1079 18.2827 18.3881 18.2827 16.2264Z" fill="#F9F4E8"/>
<path d="M26.1857 25.9082C26.1857 24.7597 25.2448 23.8281 24.0848 23.8281C22.9248 23.8281 21.9839 24.7597 21.9839 25.9082C21.9839 27.0568 22.9248 27.9884 24.0848 27.9884C25.2428 27.9844 26.1796 27.0548 26.1857 25.9082Z" fill="#F9F4E8"/>
<path d="M16.405 25.9082C16.405 24.7597 15.4641 23.8281 14.3041 23.8281C13.1441 23.8281 12.2032 24.7597 12.2032 25.9082C12.2032 27.0568 13.1441 27.9884 14.3041 27.9884C15.4621 27.9844 16.399 27.0548 16.405 25.9082Z" fill="#F9F4E8"/>
</g>
<defs>
<clipPath id="clip0_3458_16369">
<rect width="193" height="32" fill="white"/>
</clipPath>
</defs>
</svg>
