<svg width="40" height="40" viewBox="0 0 40 40" fill="none" xmlns="http://www.w3.org/2000/svg">
<rect width="40" height="40" rx="20" fill="#AB61C6"/>
<path d="M28.8126 12.4688V11.7188V12.4688ZM11.6281 12.4688V11.7188V12.4688ZM10.7236 13.4019H9.97363H10.7236ZM10.7236 26.4663H9.97363H10.7236ZM21.7559 17.5479C21.3417 17.5479 21.0059 17.8837 21.0059 18.2979C21.0059 18.7121 21.3417 19.0479 21.7559 19.0479V17.5479ZM27.3499 19.0479C27.7641 19.0479 28.0999 18.7121 28.0999 18.2979C28.0999 17.8837 27.7641 17.5479 27.3499 17.5479V19.0479ZM21.7559 14.6496C21.3417 14.6496 21.0059 14.9854 21.0059 15.3996C21.0059 15.8138 21.3417 16.1496 21.7559 16.1496V14.6496ZM27.3499 16.1496C27.7641 16.1496 28.0999 15.8138 28.0999 15.3996C28.0999 14.9854 27.7641 14.6496 27.3499 14.6496V16.1496ZM26.972 21.3836L26.4335 21.9056H26.4335L26.972 21.3836ZM27.789 22.2265L28.3275 21.7045L28.3275 21.7045L27.789 22.2265ZM29.8197 24.3217L30.3582 23.7997V23.7997L29.8197 24.3217ZM30.6366 25.1646L31.1752 24.6426L31.1752 24.6426L30.6366 25.1646ZM30.6366 25.598L30.0981 25.076H30.0981L30.6366 25.598ZM29.8197 26.4409L29.2811 25.9189L29.2811 25.9189L29.8197 26.4409ZM26.5519 29.379L27.0905 28.857V28.857L26.5519 29.379ZM25.735 28.5361L26.2735 28.0141L26.2735 28.0141L25.735 28.5361ZM23.7043 26.4409L24.2428 25.9189L24.2428 25.9189L23.7043 26.4409ZM22.8873 25.598L23.4259 25.076L22.8873 25.598ZM22.8873 25.1646L23.4259 25.6865L22.8873 25.1646ZM23.7043 24.3217L23.1657 23.7997H23.1657L23.7043 24.3217ZM25.735 22.2265L26.2735 22.7485L25.735 22.2265ZM26.5519 21.3836L26.0134 20.8616V20.8616L26.5519 21.3836ZM17.2093 16.9934C17.2093 17.6323 16.7132 18.1098 16.1504 18.1098V19.6098C17.5855 19.6098 18.7093 18.4161 18.7093 16.9934H17.2093ZM16.1504 18.1098C15.5875 18.1098 15.0915 17.6323 15.0915 16.9934H13.5915C13.5915 18.4161 14.7152 19.6098 16.1504 19.6098V18.1098ZM15.0915 16.9934C15.0915 16.3546 15.5875 15.8771 16.1504 15.8771V14.3771C14.7152 14.3771 13.5915 15.5708 13.5915 16.9934H15.0915ZM16.1504 15.8771C16.7132 15.8771 17.2093 16.3546 17.2093 16.9934H18.7093C18.7093 15.5708 17.5855 14.3771 16.1504 14.3771V15.8771ZM13.7348 24.0247C13.7348 22.6128 14.8382 21.5086 16.1503 21.5086V20.0086C13.9659 20.0086 12.2348 21.829 12.2348 24.0247H13.7348ZM16.1503 21.5086C17.4625 21.5086 18.5659 22.6128 18.5659 24.0247H20.0659C20.0659 21.829 18.3348 20.0086 16.1503 20.0086V21.5086ZM30.4671 20.0564V13.4019H28.9671V20.0564H30.4671ZM30.4671 13.4019C30.4671 12.9629 30.2983 12.5374 29.9907 12.2201L28.9136 13.264C28.9453 13.2967 28.9671 13.3459 28.9671 13.4019H30.4671ZM29.9907 12.2201C29.6824 11.902 29.2591 11.7188 28.8126 11.7188V13.2188C28.8459 13.2188 28.8827 13.2322 28.9136 13.264L29.9907 12.2201ZM28.8126 11.7188H11.6281V13.2188H28.8126V11.7188ZM11.6281 11.7188C11.1816 11.7188 10.7583 11.902 10.45 12.2201L11.5271 13.264C11.558 13.2322 11.5948 13.2188 11.6281 13.2188V11.7188ZM10.45 12.2201C10.1424 12.5374 9.97363 12.9629 9.97363 13.4019H11.4736C11.4736 13.3459 11.4954 13.2967 11.5271 13.264L10.45 12.2201ZM9.97363 13.4019V26.4663H11.4736V13.4019H9.97363ZM9.97363 26.4663C9.97363 26.9052 10.1424 27.3308 10.45 27.6481L11.5271 26.6041C11.4954 26.5715 11.4736 26.5223 11.4736 26.4663H9.97363ZM10.45 27.6481C10.7583 27.9662 11.1816 28.1494 11.6281 28.1494V26.6494C11.5948 26.6494 11.558 26.636 11.5271 26.6041L10.45 27.6481ZM26.4335 21.9056L27.2504 22.7485L28.3275 21.7045L27.5106 20.8616L26.4335 21.9056ZM27.999 23.0663H29.4356V21.5663H27.999V23.0663ZM28.9827 22.6228V24.105H30.4827V22.6228H28.9827ZM29.2811 24.8437L30.0981 25.6865L31.1752 24.6426L30.3582 23.7997L29.2811 24.8437ZM30.0981 25.076L29.2811 25.9189L30.3582 26.9629L31.1752 26.12L30.0981 25.076ZM28.9827 26.6576V28.1398H30.4827V26.6576H28.9827ZM29.4356 27.6963H27.999V29.1963H29.4356V27.6963ZM27.2504 28.0141L26.4335 28.857L27.5106 29.901L28.3275 29.0581L27.2504 28.0141ZM27.0905 28.857L26.2735 28.0141L25.1964 29.0581L26.0134 29.901L27.0905 28.857ZM25.5249 27.6963H24.0883V29.1963H25.5249V27.6963ZM24.5413 28.1398V26.6576H23.0413V28.1398H24.5413ZM24.2428 25.9189L23.4259 25.076L22.3488 26.12L23.1657 26.9629L24.2428 25.9189ZM23.4259 25.6865L24.2428 24.8437L23.1657 23.7997L22.3488 24.6426L23.4259 25.6865ZM24.5413 24.105V22.6228H23.0413V24.105H24.5413ZM24.0883 23.0663H25.5249V21.5663H24.0883V23.0663ZM26.2735 22.7485L27.0905 21.9056L26.0134 20.8616L25.1964 21.7045L26.2735 22.7485ZM25.5249 23.0663C25.8103 23.0663 26.0791 22.9491 26.2735 22.7485L25.1964 21.7045C25.2794 21.6189 25.3971 21.5663 25.5249 21.5663V23.0663ZM24.5413 22.6228C24.5413 22.8454 24.3604 23.0663 24.0883 23.0663V21.5663C23.4881 21.5663 23.0413 22.0616 23.0413 22.6228H24.5413ZM24.2428 24.8437C24.4365 24.6439 24.5413 24.3777 24.5413 24.105H23.0413C23.0413 23.9948 23.0835 23.8846 23.1657 23.7997L24.2428 24.8437ZM23.4259 25.076C23.5918 25.2472 23.5918 25.5154 23.4259 25.6865L22.3488 24.6426C21.9508 25.0532 21.9508 25.7094 22.3488 26.12L23.4259 25.076ZM24.5413 26.6576C24.5413 26.3849 24.4365 26.1187 24.2428 25.9189L23.1657 26.9629C23.0835 26.878 23.0413 26.7678 23.0413 26.6576H24.5413ZM24.0883 27.6963C24.3604 27.6963 24.5413 27.9172 24.5413 28.1398H23.0413C23.0413 28.701 23.4881 29.1963 24.0883 29.1963V27.6963ZM26.2735 28.0141C26.0791 27.8135 25.8103 27.6963 25.5249 27.6963V29.1963C25.3971 29.1963 25.2794 29.1437 25.1964 29.0581L26.2735 28.0141ZM26.4335 28.857C26.6121 28.6727 26.9118 28.6727 27.0905 28.857L26.0134 29.901C26.424 30.3247 27.0999 30.3247 27.5106 29.901L26.4335 28.857ZM27.999 27.6963C27.7136 27.6963 27.4449 27.8135 27.2504 28.0141L28.3275 29.0581C28.2445 29.1437 28.1269 29.1963 27.999 29.1963V27.6963ZM28.9827 28.1398C28.9827 27.9172 29.1635 27.6963 29.4356 27.6963V29.1963C30.0358 29.1963 30.4827 28.701 30.4827 28.1398H28.9827ZM29.2811 25.9189C29.0875 26.1187 28.9827 26.3849 28.9827 26.6576H30.4827C30.4827 26.7678 30.4405 26.878 30.3582 26.9629L29.2811 25.9189ZM30.0981 25.6865C29.9322 25.5154 29.9322 25.2472 30.0981 25.076L31.1752 26.12C31.5731 25.7094 31.5731 25.0532 31.1752 24.6426L30.0981 25.6865ZM28.9827 24.105C28.9827 24.3777 29.0875 24.6438 29.2811 24.8437L30.3582 23.7997C30.4405 23.8846 30.4827 23.9948 30.4827 24.105H28.9827ZM29.4356 23.0663C29.1635 23.0663 28.9827 22.8454 28.9827 22.6228H30.4827C30.4827 22.0616 30.0358 21.5663 29.4356 21.5663V23.0663ZM27.2504 22.7485C27.4449 22.9491 27.7136 23.0663 27.999 23.0663V21.5663C28.1269 21.5663 28.2445 21.6189 28.3275 21.7045L27.2504 22.7485ZM27.5106 20.8616C27.0999 20.4379 26.424 20.4379 26.0134 20.8616L27.0905 21.9056C26.9118 22.0899 26.6121 22.0899 26.4335 21.9056L27.5106 20.8616ZM11.6281 28.1494H21.2537V26.6494H11.6281V28.1494ZM21.7559 19.0479H27.3499V17.5479H21.7559V19.0479ZM21.7559 16.1496H27.3499V14.6496H21.7559V16.1496Z" fill="white"/>
</svg>
