<svg width="388" height="168" viewBox="0 0 388 168" fill="none" xmlns="http://www.w3.org/2000/svg">
<path d="M99.5922 25.0009C99.5902 25.2881 99.6736 25.5695 99.8317 25.8092C99.9898 26.049 100.216 26.2364 100.48 26.3477C100.745 26.459 101.037 26.4891 101.319 26.4343C101.601 26.3795 101.86 26.2422 102.064 26.0398C102.268 25.8374 102.407 25.579 102.464 25.2975C102.52 25.016 102.492 24.7239 102.383 24.4584C102.273 24.1929 102.087 23.9658 101.849 23.806C101.61 23.6462 101.329 23.5609 101.042 23.5609C100.66 23.5635 100.294 23.7158 100.023 23.985C99.7522 24.2542 99.5974 24.6189 99.5922 25.0009Z" fill="#FBF7EF"/>
<path d="M68.5844 24.997C68.5824 25.2842 68.6658 25.5656 68.8239 25.8053C68.982 26.0451 69.2078 26.2325 69.4726 26.3438C69.7373 26.455 70.0292 26.4852 70.3111 26.4304C70.593 26.3756 70.8523 26.2383 71.0561 26.0359C71.2599 25.8335 71.399 25.5751 71.4558 25.2936C71.5125 25.0121 71.4844 24.72 71.375 24.4545C71.2655 24.1889 71.0797 23.9619 70.841 23.8021C70.6024 23.6423 70.3216 23.557 70.0344 23.557C69.6532 23.5621 69.2888 23.7152 69.0183 23.9838C68.7477 24.2525 68.5922 24.6158 68.5844 24.997Z" fill="#FBF7EF"/>
<path d="M36.1375 25.0065C36.1376 25.5818 36.3087 26.144 36.6291 26.6218C36.9496 27.0995 37.4049 27.4711 37.9372 27.6894C38.4694 27.9077 39.0545 27.9627 39.6181 27.8475C40.1817 27.7324 40.6984 27.4521 41.1023 27.0426C41.5062 26.633 41.7792 26.1125 41.8866 25.5474C41.9939 24.9822 41.9307 24.3979 41.7051 23.8687C41.4795 23.3396 41.1015 22.8895 40.6194 22.5757C40.1373 22.2619 39.5727 22.0986 38.9975 22.1065C38.2378 22.1246 37.5148 22.4372 36.9812 22.9783C36.4476 23.5194 36.1451 24.2466 36.1375 25.0065Z" fill="#FBF7EF"/>
<path d="M3.69108 24.992C3.69108 25.8504 3.94561 26.6895 4.4225 27.4032C4.89938 28.1169 5.57719 28.6732 6.37022 29.0017C7.16325 29.3301 8.03588 29.4161 8.87776 29.2486C9.71964 29.0812 10.493 28.6678 11.0999 28.0609C11.7069 27.4539 12.1202 26.6806 12.2877 25.8387C12.4552 24.9968 12.3692 24.1242 12.0407 23.3312C11.7122 22.5381 11.156 21.8603 10.4422 21.3834C9.72853 20.9066 8.88945 20.652 8.03108 20.652C6.88407 20.665 5.78772 21.1264 4.97661 21.9375C4.1655 22.7487 3.70407 23.845 3.69108 24.992Z" fill="#FBF7EF"/>
<path d="M130.608 55.9954C130.608 56.2826 130.693 56.5633 130.853 56.802C131.013 57.0406 131.24 57.2265 131.505 57.3359C131.771 57.4453 132.063 57.4735 132.344 57.4167C132.626 57.3599 132.884 57.2209 133.087 57.0171C133.289 56.8133 133.426 56.554 133.481 56.2721C133.536 55.9901 133.506 55.6983 133.395 55.4335C133.283 55.1687 133.096 54.943 132.856 54.7848C132.616 54.6267 132.335 54.5434 132.048 54.5453C131.666 54.5506 131.301 54.7053 131.032 54.9764C130.763 55.2475 130.61 55.6133 130.608 55.9954Z" fill="#FBF7EF"/>
<path d="M99.5922 55.9992C99.5922 56.286 99.6772 56.5663 99.8366 56.8048C99.9959 57.0432 100.222 57.2291 100.487 57.3388C100.752 57.4486 101.044 57.4773 101.325 57.4214C101.606 57.3654 101.865 57.2273 102.068 57.0245C102.27 56.8217 102.408 56.5633 102.464 56.2821C102.52 56.0008 102.492 55.7093 102.382 55.4443C102.272 55.1794 102.086 54.9529 101.848 54.7936C101.609 54.6343 101.329 54.5492 101.042 54.5492C100.659 54.5544 100.293 54.7088 100.023 54.9796C99.7518 55.2504 99.5974 55.6163 99.5922 55.9992Z" fill="#FBF7EF"/>
<path d="M67.1536 56.0006C67.1536 56.5722 67.3231 57.131 67.6406 57.6062C67.9582 58.0815 68.4096 58.4519 68.9376 58.6706C69.4657 58.8894 70.0468 58.9466 70.6074 58.8351C71.168 58.7236 71.6829 58.4483 72.0871 58.0442C72.4913 57.64 72.7666 57.125 72.8781 56.5644C72.9896 56.0038 72.9323 55.4227 72.7136 54.8947C72.4949 54.3666 72.1244 53.9152 71.6492 53.5977C71.1739 53.2801 70.6152 53.1106 70.0436 53.1106C69.2795 53.1184 68.549 53.4254 68.0087 53.9657C67.4684 54.506 67.1614 55.2366 67.1536 56.0006Z" fill="#FBF7EF"/>
<path d="M36.1375 55.9963C36.1356 56.5707 36.3042 57.1327 36.6221 57.6112C36.94 58.0896 37.3928 58.4629 37.9231 58.6836C38.4534 58.9043 39.0374 58.9626 39.6008 58.851C40.1643 58.7394 40.682 58.463 41.0881 58.0569C41.4943 57.6507 41.7707 57.1331 41.8823 56.5696C41.9938 56.0061 41.9356 55.4222 41.7148 54.8919C41.4941 54.3616 41.1209 53.9087 40.6424 53.5908C40.164 53.273 39.6019 53.1043 39.0275 53.1063C38.2635 53.1141 37.5329 53.4211 36.9926 53.9614C36.4523 54.5017 36.1454 55.2322 36.1375 55.9963Z" fill="#FBF7EF"/>
<path d="M3.69108 55.9998C3.69108 56.8582 3.94561 57.6973 4.4225 58.411C4.89938 59.1247 5.57719 59.681 6.37022 60.0095C7.16325 60.338 8.03588 60.4239 8.87776 60.2565C9.71964 60.089 10.493 59.6756 11.0999 59.0687C11.7069 58.4617 12.1202 57.6884 12.2877 56.8465C12.4552 56.0046 12.3692 55.132 12.0407 54.339C11.7122 53.5459 11.156 52.8681 10.4422 52.3912C9.72853 51.9144 8.88945 51.6598 8.03108 51.6598C6.88407 51.6728 5.78772 52.1342 4.97661 52.9454C4.1655 53.7565 3.70407 54.8528 3.69108 55.9998Z" fill="#FBF7EF"/>
<path d="M67.1497 86.9989C67.1517 87.5701 67.3229 88.1278 67.6416 88.6018C67.9604 89.0757 68.4124 89.4446 68.9406 89.6618C69.4689 89.879 70.0497 89.9348 70.6096 89.8221C71.1696 89.7095 71.6836 89.4335 72.0867 89.0289C72.4899 88.6243 72.7642 88.1094 72.8749 87.549C72.9856 86.9887 72.9278 86.4081 72.7087 85.8807C72.4897 85.3532 72.1193 84.9024 71.6443 84.5853C71.1692 84.2682 70.6109 84.0989 70.0397 84.0989C69.2747 84.1093 68.5442 84.4185 68.0042 84.9604C67.4641 85.5023 67.1575 86.2339 67.1497 86.9989Z" fill="#FBF7EF"/>
<path d="M34.6989 87.0038C34.6989 87.8626 34.9537 88.702 35.431 89.416C35.9084 90.1299 36.5868 90.6862 37.3804 91.0143C38.174 91.3425 39.0471 91.4279 39.8893 91.2596C40.7314 91.0913 41.5047 90.677 42.1113 90.069C42.7179 89.4611 43.1304 88.6868 43.2967 87.8443C43.4631 87.0018 43.3757 86.1288 43.0457 85.336C42.7156 84.5431 42.1578 83.866 41.4428 83.3903C40.7278 82.9146 39.8877 82.6618 39.0289 82.6638C37.8836 82.6793 36.7898 83.1419 35.9808 83.9527C35.1719 84.7636 34.7119 85.8585 34.6989 87.0038Z" fill="#FBF7EF"/>
<path d="M5.1336 86.9906C5.1336 87.5642 5.30369 88.1249 5.62234 88.6018C5.941 89.0787 6.39392 89.4504 6.92382 89.6699C7.45373 89.8894 8.03682 89.9468 8.59936 89.8349C9.16191 89.723 9.67862 89.4468 10.0842 89.0412C10.4898 88.6357 10.766 88.1189 10.8779 87.5564C10.9898 86.9938 10.9324 86.4108 10.7129 85.8809C10.4934 85.3509 10.1216 84.898 9.64474 84.5794C9.16784 84.2607 8.60716 84.0906 8.0336 84.0906C7.26689 84.0984 6.53381 84.4065 5.99163 84.9487C5.44946 85.4908 5.14141 86.2239 5.1336 86.9906Z" fill="#FBF7EF"/>
<path d="M161.616 117.997C161.614 118.284 161.697 118.566 161.855 118.805C162.013 119.045 162.239 119.232 162.504 119.344C162.769 119.455 163.06 119.485 163.342 119.43C163.624 119.376 163.884 119.238 164.087 119.036C164.291 118.833 164.43 118.575 164.487 118.294C164.544 118.012 164.516 117.72 164.406 117.454C164.297 117.189 164.111 116.962 163.872 116.802C163.634 116.642 163.353 116.557 163.066 116.557C162.684 116.562 162.32 116.715 162.05 116.984C161.779 117.253 161.623 117.616 161.616 117.997Z" fill="#FBF7EF"/>
<path d="M129.161 118C129.159 118.575 129.328 119.137 129.646 119.615C129.963 120.094 130.416 120.467 130.947 120.687C131.477 120.908 132.061 120.966 132.624 120.855C133.188 120.743 133.705 120.467 134.112 120.061C134.518 119.655 134.794 119.137 134.906 118.573C135.017 118.01 134.959 117.426 134.738 116.896C134.518 116.365 134.144 115.913 133.666 115.595C133.187 115.277 132.625 115.108 132.051 115.11C131.288 115.121 130.559 115.428 130.019 115.968C129.479 116.508 129.171 117.237 129.161 118Z" fill="#FBF7EF"/>
<path d="M98.1492 118C98.1472 118.574 98.3157 119.136 98.6331 119.614C98.9506 120.092 99.4028 120.465 99.9325 120.687C100.462 120.908 101.046 120.966 101.609 120.856C102.172 120.745 102.69 120.469 103.096 120.064C103.503 119.659 103.78 119.142 103.893 118.58C104.005 118.017 103.949 117.433 103.729 116.903C103.51 116.372 103.139 115.919 102.661 115.6C102.184 115.28 101.623 115.11 101.049 115.11C100.284 115.118 99.5526 115.425 99.0107 115.965C98.4688 116.505 98.1596 117.235 98.1492 118Z" fill="#FBF7EF"/>
<path d="M65.7028 117.996C65.7028 118.854 65.9574 119.693 66.4342 120.407C66.9111 121.121 67.5889 121.677 68.382 122.006C69.175 122.334 70.0476 122.42 70.8895 122.253C71.7314 122.085 72.5047 121.672 73.1117 121.065C73.7186 120.458 74.132 119.684 74.2994 118.843C74.4669 118.001 74.3809 117.128 74.0525 116.335C73.724 115.542 73.1677 114.864 72.454 114.387C71.7403 113.91 70.9012 113.656 70.0428 113.656C68.8958 113.669 67.7995 114.13 66.9883 114.941C66.1772 115.753 65.7158 116.849 65.7028 117.996Z" fill="#FBF7EF"/>
<path d="M34.6989 118C34.6989 118.859 34.9537 119.698 35.431 120.412C35.9084 121.126 36.5868 121.682 37.3804 122.01C38.174 122.339 39.0471 122.424 39.8893 122.256C40.7314 122.087 41.5047 121.673 42.1113 121.065C42.7179 120.457 43.1304 119.683 43.2967 118.84C43.4631 117.998 43.3757 117.125 43.0457 116.332C42.7156 115.539 42.1578 114.862 41.4428 114.386C40.7278 113.911 39.8877 113.658 39.0289 113.66C37.8836 113.675 36.7898 114.138 35.9808 114.949C35.1719 115.76 34.7119 116.855 34.6989 118Z" fill="#FBF7EF"/>
<path d="M5.1297 118C5.12772 118.574 5.2961 119.136 5.61355 119.614C5.931 120.092 6.38323 120.465 6.91296 120.687C7.44269 120.908 8.02609 120.966 8.58929 120.856C9.15249 120.745 9.67018 120.469 10.0767 120.064C10.4833 119.659 10.7605 119.142 10.8732 118.58C10.9859 118.017 10.9291 117.433 10.7099 116.903C10.4907 116.372 10.119 115.919 9.64187 115.6C9.16476 115.28 8.60368 115.11 8.02969 115.11C7.2647 115.118 6.53307 115.425 5.99118 115.965C5.44928 116.505 5.1401 117.235 5.1297 118Z" fill="#FBF7EF"/>
<path d="M192.62 149.003C192.62 149.29 192.705 149.57 192.864 149.809C193.023 150.047 193.25 150.233 193.515 150.343C193.78 150.452 194.071 150.481 194.352 150.425C194.634 150.369 194.892 150.231 195.095 150.028C195.298 149.826 195.436 149.567 195.492 149.286C195.548 149.005 195.519 148.713 195.409 148.448C195.299 148.183 195.114 147.957 194.875 147.797C194.637 147.638 194.356 147.553 194.07 147.553C193.687 147.558 193.321 147.713 193.05 147.984C192.779 148.254 192.625 148.62 192.62 149.003Z" fill="#FBF7EF"/>
<path d="M160.169 149.008C160.169 149.58 160.339 150.139 160.656 150.614C160.974 151.089 161.425 151.46 161.953 151.678C162.481 151.897 163.062 151.954 163.623 151.843C164.184 151.731 164.699 151.456 165.103 151.052C165.507 150.648 165.782 150.133 165.894 149.572C166.005 149.012 165.948 148.431 165.729 147.902C165.51 147.374 165.14 146.923 164.665 146.605C164.19 146.288 163.631 146.118 163.059 146.118C162.295 146.126 161.565 146.433 161.024 146.974C160.484 147.514 160.177 148.244 160.169 149.008Z" fill="#FBF7EF"/>
<path d="M129.161 149C129.159 149.575 129.328 150.137 129.646 150.615C129.963 151.094 130.416 151.467 130.947 151.687C131.477 151.908 132.061 151.966 132.624 151.855C133.188 151.743 133.705 151.467 134.112 151.061C134.518 150.655 134.794 150.137 134.906 149.573C135.017 149.01 134.959 148.426 134.738 147.896C134.518 147.365 134.144 146.913 133.666 146.595C133.187 146.277 132.625 146.108 132.051 146.11C131.287 146.118 130.556 146.425 130.016 146.965C129.476 147.506 129.169 148.236 129.161 149Z" fill="#FBF7EF"/>
<path d="M96.7067 149.004C96.7067 149.862 96.9613 150.701 97.4382 151.415C97.915 152.129 98.5928 152.685 99.3859 153.013C100.179 153.342 101.052 153.428 101.893 153.26C102.735 153.093 103.509 152.68 104.116 152.073C104.723 151.466 105.136 150.692 105.303 149.85C105.471 149.009 105.385 148.136 105.056 147.343C104.728 146.55 104.172 145.872 103.458 145.395C102.744 144.918 101.905 144.664 101.047 144.664C99.8997 144.677 98.8033 145.138 97.9922 145.949C97.1811 146.76 96.7197 147.857 96.7067 149.004Z" fill="#FBF7EF"/>
<path d="M65.6989 149C65.6989 149.858 65.9534 150.697 66.4303 151.411C66.9072 152.125 67.585 152.681 68.3781 153.009C69.1711 153.338 70.0437 153.424 70.8856 153.256C71.7275 153.089 72.5008 152.676 73.1078 152.069C73.7147 151.462 74.128 150.688 74.2955 149.847C74.463 149.005 74.377 148.132 74.0486 147.339C73.7201 146.546 73.1638 145.868 72.4501 145.391C71.7364 144.914 70.8973 144.66 70.0389 144.66C68.8919 144.673 67.7956 145.134 66.9844 145.945C66.1733 146.756 65.7119 147.853 65.6989 149Z" fill="#FBF7EF"/>
<path d="M33.252 149.003C33.252 150.149 33.5919 151.268 34.2285 152.221C34.8652 153.173 35.77 153.915 36.8286 154.353C37.8872 154.791 39.0519 154.905 40.1753 154.681C41.2987 154.457 42.3304 153.904 43.1397 153.094C43.9491 152.283 44.4997 151.25 44.722 150.126C44.9443 149.003 44.8282 147.838 44.3884 146.78C43.9486 145.722 43.205 144.819 42.2515 144.184C41.298 143.549 40.1776 143.211 39.032 143.213C37.503 143.231 36.0419 143.847 34.9616 144.93C33.8812 146.012 33.2676 147.474 33.252 149.003Z" fill="#FBF7EF"/>
<path d="M5.1297 149C5.12772 149.574 5.2961 150.136 5.61355 150.614C5.931 151.092 6.38323 151.465 6.91296 151.687C7.44269 151.908 8.02609 151.966 8.58929 151.856C9.15249 151.745 9.67018 151.469 10.0767 151.064C10.4833 150.659 10.7605 150.142 10.8732 149.58C10.9859 149.017 10.9291 148.433 10.7099 147.903C10.4907 147.372 10.119 146.919 9.64187 146.6C9.16476 146.28 8.60368 146.11 8.02969 146.11C7.2647 146.118 6.53307 146.425 5.99118 146.965C5.44928 147.505 5.1401 148.235 5.1297 149Z" fill="#FBF7EF"/>
</svg>
