<svg width="24" height="24" viewBox="0 0 24 24" fill="none" xmlns="http://www.w3.org/2000/svg" id="atm">
    <path d="M6.5 18.5H4.5C2.84315 18.5 1.5 17.1569 1.5 15.5V4.5C1.5 2.84315 2.84315 1.5 4.5 1.5H19.5C21.1569 1.5 22.5 2.84315 22.5 4.5V15.5C22.5 17.1569 21.1569 18.5 19.5 18.5H17.5" stroke="currentColor" stroke-width="1.5"/>
    <path d="M4 12.9999H20" stroke="currentColor" stroke-width="1.5" stroke-linecap="round"/>
    <path d="M18.25 12.9999L18.25 21.4999C18.25 22.1902 17.6904 22.7499 17 22.7499L7 22.7499C6.30964 22.7499 5.75 22.1902 5.75 21.4999L5.75 12.9999L18.25 12.9999Z" stroke="currentColor" stroke-width="1.5"/>
    <path d="M15.0625 12.9999C15.3413 13.4833 15.5 14.0397 15.5 14.6317C15.5 16.4919 13.933 17.9999 12 17.9999C10.067 17.9999 8.5 16.4919 8.5 14.6317C8.5 14.0397 8.65874 13.4833 8.9375 12.9999" stroke="currentColor" stroke-width="1.5"/>
    <path d="M4 9.99988L4.66667 8.33321M8 9.99988L7.33333 8.33321M4.66667 8.33321L6 4.99988L7.33333 8.33321M4.66667 8.33321H7.33333" stroke="currentColor" stroke-width="1.5" stroke-linecap="round" stroke-linejoin="round"/>
    <path d="M9.33301 4.99988H11.333M13.333 4.99988H11.333M11.333 4.99988V9.99988" stroke="currentColor" stroke-width="1.5" stroke-linecap="round" stroke-linejoin="round"/>
    <path d="M15.7334 9.99988V4.99988L17.7334 8.33321L19.7334 4.99988V9.99988" stroke="currentColor" stroke-width="1.5" stroke-linecap="round" stroke-linejoin="round"/>
</svg>
