<svg width="24" height="24" viewBox="0 0 24 24" fill="none" xmlns="http://www.w3.org/2000/svg">
<g id="@24x24 / Bell slash">
<path id="Subtract" fill-rule="evenodd" clip-rule="evenodd" d="M5.81129 6.21009C4.9817 7.51456 4.50037 9.09055 4.50037 10.7778V14.6381C4.50037 15.1169 4.32472 15.5649 4.0291 15.8861L3.22046 16.7646C2.48305 17.5657 3.05131 18.8611 4.14016 18.8611H7.87537V19.3333C7.87537 21.7129 9.66488 23.75 12.0004 23.75C13.8824 23.75 15.4098 22.4272 15.9321 20.6683L13.617 17.3611H8.62537H4.71006L5.13274 16.9019C5.6944 16.2917 6.00037 15.4765 6.00037 14.6381V10.7778C6.00037 9.60641 6.27805 8.51306 6.7612 7.56711L5.81129 6.21009ZM9.20341 4.9527L8.34047 3.71993C8.55427 3.591 8.77474 3.47291 9.00127 3.3664C9.0398 1.69472 10.3124 0.25 12.0004 0.25C13.6883 0.25 14.9609 1.69472 14.9995 3.3664C17.6715 4.62281 19.5004 7.48897 19.5004 10.7778V14.6381C19.5004 15.1169 19.676 15.5649 19.9716 15.8861L20.7803 16.7646C21.5177 17.5657 20.9494 18.8611 19.8606 18.8611H18.9393L17.8893 17.3611H19.2907L18.868 16.9019C18.3063 16.2917 18.0004 15.4765 18.0004 14.6381V10.7778C18.0004 7.87415 16.2941 5.44991 13.9815 4.56188C13.6917 4.45059 13.5004 4.17221 13.5004 3.86173V3.44444C13.5004 2.44889 12.7715 1.75 12.0004 1.75C11.2293 1.75 10.5004 2.44889 10.5004 3.44444V3.86173C10.5004 4.17221 10.3091 4.45059 10.0192 4.56188C9.73763 4.67001 9.46503 4.80092 9.20341 4.9527ZM9.37537 19.3333V18.8611H14.6254V19.3333C14.6254 21.0039 13.3928 22.25 12.0004 22.25C10.6079 22.25 9.37537 21.0039 9.37537 19.3333Z" fill="currentColor"/>
<path id="Vector 645" d="M19 22L5 2" stroke="currentColor" stroke-width="1.5" stroke-linecap="round"/>
</g>
</svg>
