<svg width="24" height="24" viewBox="0 0 24 24" fill="none" xmlns="http://www.w3.org/2000/svg" id="brokenHeart">
<path d="M4.31802 5.37258C2.56066 7.20268 2.56066 10.1699 4.31802 12L12.0001 20L19.682 12C21.4393 10.1699 21.4393 7.20268 19.682 5.37258C17.9246 3.54247 15.0754 3.54247 13.318 5.37258L12.0001 6.74521L10.682 5.37258C8.92462 3.54247 6.07538 3.54247 4.31802 5.37258Z" stroke="currentColor" stroke-width="1.5" stroke-linecap="round" stroke-linejoin="round"/>
<path d="M4.31802 5.37258C2.56066 7.20268 2.56066 10.1699 4.31802 12L12.0001 20L10 15.5L13 13L9 10L12.0001 6.74521L10.682 5.37258C8.92462 3.54247 6.07538 3.54247 4.31802 5.37258Z" stroke="currentColor" stroke-width="1.5" stroke-linecap="round" stroke-linejoin="round"/>
</svg>
