<svg width="24" height="24" viewBox="0 0 24 24" fill="none" xmlns="http://www.w3.org/2000/svg">
<path d="M11.25 20C11.25 20.4142 11.5858 20.75 12 20.75C12.4142 20.75 12.75 20.4142 12.75 20H11.25ZM12.75 17.8058C12.75 17.3916 12.4142 17.0558 12 17.0558C11.5858 17.0558 11.25 17.3916 11.25 17.8058H12.75ZM12.75 4C12.75 3.58579 12.4142 3.25 12 3.25C11.5858 3.25 11.25 3.58579 11.25 4H12.75ZM14 6.18975V5.43975V6.18975ZM10 6.18975V5.43975V6.18975ZM7 9.09383H6.25H7ZM7 14.902H6.25H7ZM12.75 20V17.8058H11.25V20H12.75ZM11.25 4V6.18975H12.75V4H11.25ZM17.75 10.0619V9.09383H16.25V10.0619H17.75ZM17.75 9.09383C17.75 8.1167 17.3488 7.18471 16.643 6.50146L15.5997 7.57921C16.0191 7.9852 16.25 8.53054 16.25 9.09383H17.75ZM16.643 6.50146C15.938 5.81901 14.9868 5.43975 14 5.43975V6.93975C14.6045 6.93975 15.1795 7.17243 15.5997 7.57921L16.643 6.50146ZM14 5.43975H10V6.93975H14V5.43975ZM10 5.43975C9.01316 5.43975 8.06203 5.81901 7.35703 6.50146L8.40032 7.57921C8.82055 7.17243 9.39554 6.93975 10 6.93975V5.43975ZM7.35703 6.50146C6.65121 7.18472 6.25 8.1167 6.25 9.09383H7.75C7.75 8.53054 7.98093 7.9852 8.40032 7.57921L7.35703 6.50146ZM6.25 9.09383C6.25 10.071 6.65121 11.0029 7.35703 11.6862L8.40032 10.6084C7.98093 10.2025 7.75 9.65711 7.75 9.09383H6.25ZM7.35703 11.6862C8.06203 12.3686 9.01316 12.7479 10 12.7479V11.2479C9.39554 11.2479 8.82055 11.0152 8.40032 10.6084L7.35703 11.6862ZM10 12.7479H14V11.2479H10V12.7479ZM14 12.7479C14.6045 12.7479 15.1794 12.9806 15.5997 13.3874L16.643 12.3096C15.938 11.6272 14.9868 11.2479 14 11.2479V12.7479ZM15.5997 13.3874C16.0191 13.7933 16.25 14.3387 16.25 14.902H17.75C17.75 13.9248 17.3488 12.9929 16.643 12.3096L15.5997 13.3874ZM16.25 14.902C16.25 15.4653 16.0191 16.0106 15.5997 16.4166L16.643 17.4943C17.3488 16.8111 17.75 15.8791 17.75 14.902H16.25ZM15.5997 16.4166C15.1794 16.8234 14.6045 17.056 14 17.056V18.556C14.9868 18.556 15.938 18.1768 16.643 17.4943L15.5997 16.4166ZM14 17.056H10V18.556H14V17.056ZM10 17.056C9.39554 17.056 8.82055 16.8234 8.40032 16.4166L7.35703 17.4943C8.06203 18.1768 9.01316 18.556 10 18.556V17.056ZM8.40032 16.4166C7.98093 16.0106 7.75 15.4653 7.75 14.902H6.25C6.25 15.8791 6.65121 16.8111 7.35703 17.4943L8.40032 16.4166ZM7.75 14.902V13.9339H6.25V14.902H7.75Z" fill="currentColor"/>
</svg>
