<svg width="25" height="17" viewBox="0 0 25 17" fill="none" xmlns="http://www.w3.org/2000/svg">
    <path d="M11.75 13.0227C11.75 13.4369 12.0858 13.7727 12.5 13.7727C12.9142 13.7727 13.25 13.4369 13.25 13.0227H11.75ZM13.25 11.8032C13.25 11.389 12.9142 11.0532 12.5 11.0532C12.0858 11.0532 11.75 11.389 11.75 11.8032H13.25ZM13.25 3.61364C13.25 3.19942 12.9142 2.86364 12.5 2.86364C12.0858 2.86364 11.75 3.19942 11.75 3.61364H13.25ZM16.3863 7.15639V6.57559H14.8863V7.15639H16.3863ZM16.3863 6.57559C16.3863 5.14247 15.1562 4.0832 13.7545 4.0832V5.5832C14.4386 5.5832 14.8863 6.07755 14.8863 6.57559H16.3863ZM13.7545 4.0832H11.2454V5.5832H13.7545V4.0832ZM11.2454 4.0832C9.84376 4.0832 8.61357 5.14247 8.61357 6.57559H10.1136C10.1136 6.07755 10.5614 5.5832 11.2454 5.5832V4.0832ZM8.61357 6.57559C8.61357 8.0087 9.84376 9.06798 11.2454 9.06798V7.56798C10.5614 7.56798 10.1136 7.07363 10.1136 6.57559H8.61357ZM11.2454 9.06798H13.7545V7.56798H11.2454V9.06798ZM13.7545 9.06798C14.4386 9.06798 14.8863 9.56234 14.8863 10.0604H16.3863C16.3863 8.62726 15.1562 7.56798 13.7545 7.56798V9.06798ZM14.8863 10.0604C14.8863 10.5584 14.4386 11.0528 13.7545 11.0528V12.5528C15.1562 12.5528 16.3863 11.4935 16.3863 10.0604H14.8863ZM13.7545 11.0528H11.2454V12.5528H13.7545V11.0528ZM11.2454 11.0528C10.5614 11.0528 10.1136 10.5584 10.1136 10.0604H8.61357C8.61357 11.4935 9.84376 12.5528 11.2454 12.5528V11.0528ZM10.1136 10.0604V9.47958H8.61357V10.0604H10.1136ZM13.25 13.0227V11.8032H11.75V13.0227H13.25ZM11.75 3.61364V4.13636H13.25V3.61364H11.75ZM3.09091 1.75H21.9091V0.25H3.09091V1.75ZM23.25 3.09091V13.5455H24.75V3.09091H23.25ZM21.9091 14.8864H3.09091V16.3864H21.9091V14.8864ZM1.75 13.5455V3.09091H0.25V13.5455H1.75ZM3.09091 14.8864C2.35035 14.8864 1.75 14.286 1.75 13.5455H0.25C0.25 15.1144 1.52192 16.3864 3.09091 16.3864V14.8864ZM23.25 13.5455C23.25 14.286 22.6497 14.8864 21.9091 14.8864V16.3864C23.4781 16.3864 24.75 15.1144 24.75 13.5455H23.25ZM21.9091 1.75C22.6497 1.75 23.25 2.35035 23.25 3.09091H24.75C24.75 1.52192 23.4781 0.25 21.9091 0.25V1.75ZM3.09091 0.25C1.52192 0.25 0.25 1.52192 0.25 3.09091H1.75C1.75 2.35035 2.35035 1.75 3.09091 1.75V0.25Z" fill="currentColor" />
</svg>