<svg width="24" height="24" viewBox="0 0 24 24" fill="none" xmlns="http://www.w3.org/2000/svg" id="checkCaptured">
<rect x="5" y="7" width="14" height="10" rx="1" stroke="currentColor" stroke-width="1.5"/>
<path d="M11.35 15C11.35 15.359 11.641 15.65 12 15.65C12.3589 15.65 12.65 15.359 12.65 15H11.35ZM12.65 14.0786C12.65 13.7196 12.3589 13.4286 12 13.4286C11.641 13.4286 11.35 13.7196 11.35 14.0786H12.65ZM12.65 9C12.65 8.64101 12.3589 8.35 12 8.35C11.641 8.35 11.35 8.64101 11.35 9H12.65ZM11.35 9.92144C11.35 10.2804 11.641 10.5714 12 10.5714C12.3589 10.5714 12.65 10.2804 12.65 9.92144H11.35ZM12.65 15V14.0786H11.35V15H12.65ZM11.35 9V9.92144H12.65V9H11.35ZM9.35 13.0371C9.35 13.9766 10.1147 14.7243 11.0476 14.7243V13.4243C10.8203 13.4243 10.65 13.2463 10.65 13.0371H9.35ZM11.0476 14.7243H12.9524V13.4243H11.0476V14.7243ZM12.9524 14.7243C13.8853 14.7243 14.65 13.9766 14.65 13.0371H13.35C13.35 13.2463 13.1797 13.4243 12.9524 13.4243V14.7243ZM14.65 13.0371C14.65 12.0977 13.8853 11.35 12.9524 11.35V12.65C13.1797 12.65 13.35 12.828 13.35 13.0371H14.65ZM11.0476 11.35C10.8203 11.35 10.65 11.172 10.65 10.9628H9.35C9.35 11.9023 10.1147 12.65 11.0476 12.65V11.35ZM10.65 10.9628C10.65 10.7537 10.8203 10.5757 11.0476 10.5757V9.27568C10.1147 9.27568 9.35 10.0234 9.35 10.9628H10.65ZM11.0476 10.5757H12.9524V9.27568H11.0476V10.5757ZM12.9524 10.5757C13.1797 10.5757 13.35 10.7537 13.35 10.9628H14.65C14.65 10.0234 13.8853 9.27568 12.9524 9.27568V10.5757ZM12.9524 11.35H11.0476V12.65H12.9524V11.35Z" fill="currentColor"/>
<path d="M19 4H21C21.5523 4 22 4.44772 22 5V7" stroke="currentColor" stroke-width="1.5" stroke-linecap="round"/>
<path d="M19 20H21C21.5523 20 22 19.5523 22 19V17" stroke="currentColor" stroke-width="1.5" stroke-linecap="round"/>
<path d="M5 4H3C2.44772 4 2 4.44772 2 5V7" stroke="currentColor" stroke-width="1.5" stroke-linecap="round"/>
<path d="M5 20H3C2.44772 20 2 19.5523 2 19V17" stroke="currentColor" stroke-width="1.5" stroke-linecap="round"/>
</svg>
