<svg width="24" height="24" viewBox="0 0 24 24" fill="none" xmlns="http://www.w3.org/2000/svg">
    <path d="M16.415 9.15502C16.7079 8.86212 16.7079 8.38725 16.415 8.09436C16.1221 7.80146 15.6472 7.80146 15.3543 8.09436L16.415 9.15502ZM7.91497 15.5337C7.62208 15.8266 7.62208 16.3015 7.91497 16.5943C8.20786 16.8872 8.68274 16.8872 8.97563 16.5943L7.91497 15.5337ZM15.3543 16.5944C15.6472 16.8872 16.1221 16.8872 16.415 16.5944C16.7079 16.3015 16.7079 15.8266 16.415 15.5337L15.3543 16.5944ZM8.97562 8.09435C8.68273 7.80146 8.20785 7.80146 7.91496 8.09435C7.62207 8.38724 7.62207 8.86212 7.91496 9.15501L8.97562 8.09435ZM4.75216 19.2478C0.749282 15.245 0.749282 8.75503 4.75216 4.75216L3.6915 3.6915C-0.897165 8.28016 -0.897165 15.7198 3.6915 20.3085L4.75216 19.2478ZM19.2478 19.2478C15.245 23.2507 8.75503 23.2507 4.75216 19.2478L3.6915 20.3085C8.28016 24.8972 15.7198 24.8972 20.3085 20.3085L19.2478 19.2478ZM19.2478 4.75216C23.2507 8.75503 23.2507 15.245 19.2478 19.2478L20.3085 20.3085C24.8972 15.7198 24.8972 8.28016 20.3085 3.6915L19.2478 4.75216ZM20.3085 3.6915C15.7198 -0.897165 8.28016 -0.897165 3.6915 3.6915L4.75216 4.75216C8.75503 0.749282 15.245 0.749282 19.2478 4.75216L20.3085 3.6915ZM15.3543 8.09436L11.6346 11.814L12.6953 12.8747L16.415 9.15502L15.3543 8.09436ZM11.6346 11.814L7.91497 15.5337L8.97563 16.5943L12.6953 12.8747L11.6346 11.814ZM16.415 15.5337L12.6953 11.814L11.6346 12.8747L15.3543 16.5944L16.415 15.5337ZM12.6953 11.814L8.97562 8.09435L7.91496 9.15501L11.6346 12.8747L12.6953 11.814Z" fill="currentColor"/>
</svg>
