<svg width="26" height="26" viewBox="0 0 26 26" fill="none" xmlns="http://www.w3.org/2000/svg">
    <path d="M12.9998 19.6002L12.4392 20.0984C12.5816 20.2585 12.7856 20.3502 12.9998 20.3502C13.214 20.3502 13.418 20.2585 13.5603 20.0984L12.9998 19.6002ZM10.4576 16.7402L11.0181 16.2419C10.8758 16.0818 10.6718 15.9902 10.4576 15.9902V16.7402ZM15.542 16.7402V15.9902C15.3278 15.9902 15.1238 16.0818 14.9814 16.2419L15.542 16.7402ZM9.82201 10.2702C9.40779 10.2702 9.07201 10.6059 9.07201 11.0202C9.07201 11.4344 9.40779 11.7702 9.82201 11.7702V10.2702ZM16.1776 11.7702C16.5918 11.7702 16.9276 11.4344 16.9276 11.0202C16.9276 10.6059 16.5918 10.2702 16.1776 10.2702V11.7702ZM9.82201 13.1302C9.40779 13.1302 9.07201 13.4659 9.07201 13.8802C9.07201 14.2944 9.40779 14.6302 9.82201 14.6302V13.1302ZM12.3642 14.6302C12.7784 14.6302 13.1142 14.2944 13.1142 13.8802C13.1142 13.4659 12.7784 13.1302 12.3642 13.1302V14.6302ZM8.5509 8.91016H17.4487V7.41016H8.5509V8.91016ZM17.9698 9.59016V15.3102H19.4698V9.59016H17.9698ZM8.02979 15.3102V9.59016H6.52979V15.3102H8.02979ZM13.5603 19.1019L11.0181 16.2419L9.89701 17.2384L12.4392 20.0984L13.5603 19.1019ZM10.4576 15.9902H8.5509V17.4902H10.4576V15.9902ZM17.4487 15.9902H15.542V17.4902H17.4487V15.9902ZM14.9814 16.2419L12.4392 19.1019L13.5603 20.0984L16.1026 17.2384L14.9814 16.2419ZM6.52979 15.3102C6.52979 16.4287 7.35406 17.4902 8.5509 17.4902V15.9902C8.3437 15.9902 8.02979 15.7712 8.02979 15.3102H6.52979ZM17.9698 15.3102C17.9698 15.7712 17.6559 15.9902 17.4487 15.9902V17.4902C18.6455 17.4902 19.4698 16.4287 19.4698 15.3102H17.9698ZM17.4487 8.91016C17.6559 8.91016 17.9698 9.12912 17.9698 9.59016H19.4698C19.4698 8.47166 18.6455 7.41016 17.4487 7.41016V8.91016ZM8.5509 7.41016C7.35406 7.41016 6.52979 8.47166 6.52979 9.59016H8.02979C8.02979 9.12912 8.3437 8.91016 8.5509 8.91016V7.41016ZM9.82201 11.7702H16.1776V10.2702H9.82201V11.7702ZM9.82201 14.6302H12.3642V13.1302H9.82201V14.6302Z" fill="currentColor" />
    <path d="M13 1.25C6.51065 1.25 1.25 6.51065 1.25 13C1.25 19.4893 6.51065 24.75 13 24.75C19.4893 24.75 24.75 19.4893 24.75 13C24.75 6.51065 19.4893 1.25 13 1.25Z" stroke="currentColor" stroke-width="1.5" />
</svg>