<svg width="24" height="24" viewBox="0 0 24 24" fill="none" xmlns="http://www.w3.org/2000/svg">
    <path d="M12.75 7.00244C12.75 6.58823 12.4142 6.25244 12 6.25244C11.5858 6.25244 11.25 6.58822 11.25 7.00244L12.75 7.00244ZM11.25 17.0024C11.25 17.4167 11.5858 17.7524 12 17.7524C12.4142 17.7524 12.75 17.4167 12.75 17.0024L11.25 17.0024ZM17 12.75C17.4142 12.75 17.75 12.4142 17.75 12C17.75 11.5858 17.4142 11.25 17 11.25V12.75ZM6.99998 11.25C6.58576 11.25 6.24998 11.5858 6.24998 12C6.24998 12.4142 6.58576 12.75 6.99998 12.75V11.25ZM12 22.2524C6.33908 22.2524 1.75 17.6634 1.75 12.0024H0.25C0.25 18.4918 5.51065 23.7524 12 23.7524V22.2524ZM22.25 12.0024C22.25 17.6634 17.6609 22.2524 12 22.2524V23.7524C18.4893 23.7524 23.75 18.4918 23.75 12.0024H22.25ZM12 1.75244C17.6609 1.75244 22.25 6.34152 22.25 12.0024H23.75C23.75 5.5131 18.4893 0.252441 12 0.252441V1.75244ZM12 0.252441C5.51065 0.252441 0.25 5.5131 0.25 12.0024H1.75C1.75 6.34152 6.33908 1.75244 12 1.75244V0.252441ZM11.25 7.00244L11.25 12L12.75 12L12.75 7.00244L11.25 7.00244ZM11.25 12L11.25 17.0024L12.75 17.0024L12.75 12L11.25 12ZM17 11.25H12V12.75H17V11.25ZM12 11.25H6.99998V12.75H12V11.25Z" fill="currentColor"/>
</svg>
