<svg width="24" height="24" viewBox="0 0 24 24" fill="none" xmlns="http://www.w3.org/2000/svg">
    <path d="M12 22.25C6.33908 22.25 1.75 17.6609 1.75 12H0.25C0.25 18.4893 5.51065 23.75 12 23.75V22.25ZM22.25 12C22.25 17.6609 17.6609 22.25 12 22.25V23.75C18.4893 23.75 23.75 18.4893 23.75 12H22.25ZM12 1.75C17.6609 1.75 22.25 6.33908 22.25 12H23.75C23.75 5.51065 18.4893 0.25 12 0.25V1.75ZM12 0.25C5.51065 0.25 0.25 5.51065 0.25 12H1.75C1.75 6.33908 6.33908 1.75 12 1.75V0.25Z" fill="currentColor"/>
</svg>
