<svg width="13" height="12" viewBox="0 0 13 12" fill="none" xmlns="http://www.w3.org/2000/svg">
<path d="M11.9944 1.32691C12.2873 1.03402 12.2873 0.559143 11.9944 0.26625C11.7015 -0.0266435 11.2266 -0.0266434 10.9337 0.26625L11.9944 1.32691ZM0.574965 10.625C0.282072 10.9179 0.282072 11.3928 0.574965 11.6857C0.867858 11.9786 1.34273 11.9786 1.63563 11.6857L0.574965 10.625ZM10.9337 11.6857C11.2266 11.9786 11.7015 11.9786 11.9944 11.6857C12.2873 11.3928 12.2873 10.9179 11.9944 10.625L10.9337 11.6857ZM1.63562 0.26624C1.34272 -0.0266535 0.867849 -0.0266536 0.574956 0.26624C0.282062 0.559133 0.282062 1.03401 0.574956 1.3269L1.63562 0.26624ZM10.9337 0.26625L0.574965 10.625L1.63563 11.6857L11.9944 1.32691L10.9337 0.26625ZM11.9944 10.625L1.63562 0.26624L0.574956 1.3269L10.9337 11.6857L11.9944 10.625Z" fill="currentColor"/>
</svg>
