<svg width="22" height="22" viewBox="0 0 22 22" fill="none" xmlns="http://www.w3.org/2000/svg">
<path d="M15.0618 8.46186C15.3547 8.16897 15.3547 7.6941 15.0618 7.4012C14.7689 7.10831 14.294 7.10831 14.0012 7.4012L15.0618 8.46186ZM7.23812 14.1642C6.94523 14.4571 6.94523 14.932 7.23812 15.2249C7.53102 15.5178 8.00589 15.5178 8.29878 15.2249L7.23812 14.1642ZM14.0012 15.2249C14.2941 15.5178 14.7689 15.5178 15.0618 15.2249C15.3547 14.932 15.3547 14.4571 15.0618 14.1642L14.0012 15.2249ZM8.29878 7.4012C8.00588 7.1083 7.53101 7.1083 7.23812 7.4012C6.94522 7.69409 6.94522 8.16896 7.23812 8.46186L8.29878 7.4012ZM4.45926 17.5407C0.846913 13.9284 0.846913 8.07161 4.45926 4.45926L3.3986 3.3986C-0.799534 7.59674 -0.799534 14.4033 3.3986 18.6014L4.45926 17.5407ZM17.5407 17.5407C13.9284 21.1531 8.07161 21.1531 4.45926 17.5407L3.3986 18.6014C7.59674 22.7995 14.4033 22.7995 18.6014 18.6014L17.5407 17.5407ZM17.5407 4.45926C21.1531 8.07161 21.1531 13.9284 17.5407 17.5407L18.6014 18.6014C22.7995 14.4033 22.7995 7.59674 18.6014 3.3986L17.5407 4.45926ZM18.6014 3.3986C14.4033 -0.799534 7.59674 -0.799534 3.3986 3.3986L4.45926 4.45926C8.07161 0.846913 13.9284 0.846913 17.5407 4.45926L18.6014 3.3986ZM14.0012 7.4012L10.6196 10.7827L11.6803 11.8434L15.0618 8.46186L14.0012 7.4012ZM10.6196 10.7827L7.23812 14.1642L8.29878 15.2249L11.6803 11.8434L10.6196 10.7827ZM15.0618 14.1642L11.6803 10.7827L10.6196 11.8434L14.0012 15.2249L15.0618 14.1642ZM11.6803 10.7827L8.29878 7.4012L7.23812 8.46186L10.6196 11.8434L11.6803 10.7827Z" fill="currentColor"/>
</svg>
