<svg width="26" height="24" viewBox="0 0 26 24" fill="none" xmlns="http://www.w3.org/2000/svg">
    <path d="M2.24458 17.2768H5.58656M4.569 14.4151H1.5263M25 12C25 18.0581 20.3811 22.9797 14.6847 22.9797C14.6748 22.9797 14.6448 22.9797 14.6448 22.9797H11.3527C7.33237 22.9797 3.74099 20.5341 2.04505 16.8506C1.93532 16.5969 1.82558 16.333 1.71584 16.0692V16.0489C1.61608 15.7851 1.5263 15.5111 1.44649 15.2371C1.3168 14.7906 1.21704 14.3441 1.14721 13.8773C1.13723 13.786 1.11728 13.6845 1.1073 13.5932C0.947687 12.3755 0.967639 11.178 1.15718 10.0314C2.00515 4.7952 6.35472 1.0203 11.3527 1.0203H14.6847C20.3811 1.0203 25 5.94188 25 12ZM25 12C25 18.0751 20.3728 23 14.6648 23C8.95681 23 4.32958 18.0751 4.32958 12C4.32958 5.92487 8.95681 1 14.6648 1C20.3728 1 25 5.92487 25 12ZM20.7203 7.49446L10.1756 17.6725M21.9872 10.5286L12.5 19.6919M5.10771 7.79889H2.14482M22.1369 12C22.1369 16.3882 18.7915 19.9456 14.6648 19.9456C10.5381 19.9456 7.19271 16.3882 7.19271 12C7.19271 7.61178 10.5381 4.05443 14.6648 4.05443C18.7915 4.05443 22.1369 7.61178 22.1369 12Z" stroke="currentColor" stroke-width="1.5" stroke-miterlimit="10"/>
</svg>
