<svg width="24" height="24" viewBox="0 0 24 24" fill="none" xmlns="http://www.w3.org/2000/svg">
    <path d="M4.88926 18.2L4.15785 18.034L4.88926 18.2ZM11.9108 18.2L12.6502 18.0744L12.6468 18.0541L12.6422 18.034L11.9108 18.2ZM15.6667 11.25C15.2525 11.25 14.9167 11.5858 14.9167 12C14.9167 12.4142 15.2525 12.75 15.6667 12.75V11.25ZM19.3333 12.75C19.7475 12.75 20.0833 12.4142 20.0833 12C20.0833 11.5858 19.7475 11.25 19.3333 11.25V12.75ZM15.6667 14.75C15.2525 14.75 14.9167 15.0858 14.9167 15.5C14.9167 15.9142 15.2525 16.25 15.6667 16.25V14.75ZM18.1111 16.25C18.5253 16.25 18.8611 15.9142 18.8611 15.5C18.8611 15.0858 18.5253 14.75 18.1111 14.75V16.25ZM9.45005 11.8C9.45005 12.3799 8.97995 12.85 8.40005 12.85V14.35C9.80838 14.35 10.95 13.2083 10.95 11.8H9.45005ZM8.40005 12.85C7.82015 12.85 7.35005 12.3799 7.35005 11.8H5.85005C5.85005 13.2083 6.99172 14.35 8.40005 14.35V12.85ZM7.35005 11.8C7.35005 11.2201 7.82015 10.75 8.40005 10.75V9.25C6.99172 9.25 5.85005 10.3917 5.85005 11.8H7.35005ZM8.40005 10.75C8.97995 10.75 9.45005 11.2201 9.45005 11.8H10.95C10.95 10.3917 9.80838 9.25 8.40005 9.25V10.75ZM5.55005 19C5.55005 18.7813 5.57455 18.5692 5.62066 18.366L4.15785 18.034C4.08719 18.3454 4.05005 18.6688 4.05005 19H5.55005ZM5.62066 18.366C5.90863 17.0969 7.04466 16.15 8.40005 16.15V14.65C6.3289 14.65 4.59745 16.0967 4.15785 18.034L5.62066 18.366ZM8.40005 16.15C9.75544 16.15 10.8915 17.0969 11.1794 18.366L12.6422 18.034C12.2027 16.0967 10.4712 14.65 8.40005 14.65V16.15ZM11.9108 18.2C11.1714 18.3256 11.1714 18.3256 11.1714 18.3256C11.1714 18.3256 11.1714 18.3255 11.1714 18.3255C11.1714 18.3255 11.1714 18.3255 11.1714 18.3255C11.1714 18.3255 11.1714 18.3255 11.1714 18.3255C11.1714 18.3256 11.1715 18.3258 11.1715 18.3261C11.1716 18.3268 11.1718 18.3279 11.1721 18.3295C11.1726 18.3327 11.1734 18.3377 11.1745 18.3443C11.1767 18.3576 11.1799 18.3774 11.1838 18.4021C11.1915 18.4519 11.2019 18.5207 11.2122 18.597C11.2345 18.763 11.25 18.9182 11.25 19H12.75C12.75 18.8069 12.721 18.5621 12.6987 18.3968C12.6867 18.3075 12.6747 18.2279 12.6658 18.1705C12.6613 18.1418 12.6575 18.1184 12.6548 18.1019C12.6535 18.0936 12.6524 18.0871 12.6516 18.0824C12.6512 18.0801 12.6509 18.0783 12.6507 18.0769C12.6506 18.0762 12.6505 18.0757 12.6504 18.0753C12.6504 18.075 12.6503 18.0749 12.6503 18.0747C12.6503 18.0746 12.6503 18.0746 12.6503 18.0745C12.6503 18.0745 12.6503 18.0745 12.6503 18.0744C12.6503 18.0744 12.6502 18.0744 11.9108 18.2ZM22.25 8.25V19.5H23.75V8.25H22.25ZM20.5556 21.25H3.44444V22.75H20.5556V21.25ZM1.75 19.5V8.25H0.25V19.5H1.75ZM3.44444 6.5H9.55556V5H3.44444V6.5ZM14.4444 6.5H20.5556V5H14.4444V6.5ZM3.44444 21.25C2.52443 21.25 1.75 20.4825 1.75 19.5H0.25C0.25 21.2789 1.6644 22.75 3.44444 22.75V21.25ZM22.25 19.5C22.25 20.4825 21.4756 21.25 20.5556 21.25V22.75C22.3356 22.75 23.75 21.2789 23.75 19.5H22.25ZM23.75 8.25C23.75 6.47105 22.3356 5 20.5556 5V6.5C21.4756 6.5 22.25 7.26752 22.25 8.25H23.75ZM1.75 8.25C1.75 7.26752 2.52443 6.5 3.44444 6.5V5C1.6644 5 0.25 6.47105 0.25 8.25H1.75ZM15.6667 12.75H19.3333V11.25H15.6667V12.75ZM15.6667 16.25H18.1111V14.75H15.6667V16.25ZM13.6944 4.5V5.75H15.1944V4.5H13.6944ZM10.3056 5.75V4.5H8.80556V5.75H10.3056ZM12 7.5C11.08 7.5 10.3056 6.73248 10.3056 5.75H8.80556C8.80556 7.52895 10.22 9 12 9V7.5ZM13.6944 5.75C13.6944 6.73248 12.92 7.5 12 7.5V9C13.78 9 15.1944 7.52895 15.1944 5.75H13.6944ZM12 2.75C12.92 2.75 13.6944 3.51752 13.6944 4.5H15.1944C15.1944 2.72105 13.78 1.25 12 1.25V2.75ZM12 1.25C10.22 1.25 8.80556 2.72105 8.80556 4.5H10.3056C10.3056 3.51752 11.08 2.75 12 2.75V1.25Z" fill="currentColor"/>
</svg>
