<svg width="29" height="29" viewBox="0 0 29 29" fill="none" xmlns="http://www.w3.org/2000/svg">
    <path d="M14.5 1.25C7.18223 1.25 1.25 7.18223 1.25 14.5C1.25 21.8178 7.18223 27.75 14.5 27.75C21.8178 27.75 27.75 21.8178 27.75 14.5C27.75 7.18223 21.8178 1.25 14.5 1.25Z" stroke="currentColor" stroke-width="1.5" />
    <path d="M10.4167 10.8889C10.4167 11.3031 10.7525 11.6389 11.1667 11.6389C11.5809 11.6389 11.9167 11.3031 11.9167 10.8889H10.4167ZM11.9167 8C11.9167 7.58579 11.5809 7.25 11.1667 7.25C10.7525 7.25 10.4167 7.58579 10.4167 8H11.9167ZM17.0833 10.8889C17.0833 11.3031 17.4191 11.6389 17.8333 11.6389C18.2475 11.6389 18.5833 11.3031 18.5833 10.8889H17.0833ZM18.5833 8C18.5833 7.58579 18.2475 7.25 17.8333 7.25C17.4191 7.25 17.0833 7.58579 17.0833 8H18.5833ZM10.3333 13.0278C9.91912 13.0278 9.58333 13.3636 9.58333 13.7778C9.58333 14.192 9.91912 14.5278 10.3333 14.5278V13.0278ZM18.6667 14.5278C19.0809 14.5278 19.4167 14.192 19.4167 13.7778C19.4167 13.3636 19.0809 13.0278 18.6667 13.0278V14.5278ZM8.66667 10.1944H20.3333V8.69444H8.66667V10.1944ZM21.25 10.8889V19.5556H22.75V10.8889H21.25ZM20.3333 20.25H8.66667V21.75H20.3333V20.25ZM7.75 19.5556V10.8889H6.25V19.5556H7.75ZM8.66667 20.25C8.05605 20.25 7.75 19.8419 7.75 19.5556H6.25C6.25 20.8647 7.43633 21.75 8.66667 21.75V20.25ZM21.25 19.5556C21.25 19.8419 20.9439 20.25 20.3333 20.25V21.75C21.5637 21.75 22.75 20.8647 22.75 19.5556H21.25ZM20.3333 10.1944C20.9439 10.1944 21.25 10.6025 21.25 10.8889H22.75C22.75 9.57977 21.5637 8.69444 20.3333 8.69444V10.1944ZM8.66667 8.69444C7.43633 8.69444 6.25 9.57977 6.25 10.8889H7.75C7.75 10.6025 8.05605 10.1944 8.66667 10.1944V8.69444ZM11.9167 10.8889V8H10.4167V10.8889H11.9167ZM18.5833 10.8889V8H17.0833V10.8889H18.5833ZM10.3333 14.5278H18.6667V13.0278H10.3333V14.5278Z" fill="currentColor" />
</svg>