<svg width="24" height="25" viewBox="0 0 24 25" fill="none" xmlns="http://www.w3.org/2000/svg" id="depositAccount">
    <path d="M21.25 9.33133L17.25 9.33133M21.25 16.4157H17.25M5.75 23.5H4.25M19.75 23.5H18.25M15 12.6205C15 14.2973 13.6569 15.6566 12 15.6566C10.3431 15.6566 9 14.2973 9 12.6205C9 10.9437 10.3431 9.58434 12 9.58434C13.6569 9.58434 15 10.9437 15 12.6205ZM5 22.741H19C20.6569 22.741 22 21.3816 22 19.7048V5.53614C22 3.85933 20.6569 2.5 19 2.5H5C3.34315 2.5 2 3.85933 2 5.53614V19.7048C2 21.3816 3.34315 22.741 5 22.741ZM8 18.6928H16C17.1046 18.6928 18 17.7866 18 16.6687V8.57229C18 7.45441 17.1046 6.54819 16 6.54819H8C6.89543 6.54819 6 7.45441 6 8.57229V16.6687C6 17.7866 6.89543 18.6928 8 18.6928Z" stroke="currentColor" stroke-width="1.5" stroke-linecap="round"/>
</svg>
