<svg width="24" height="16" viewBox="0 0 24 16" fill="none" xmlns="http://www.w3.org/2000/svg">
<path d="M3.78978 8.55263H9.36934M3.78978 10.7952H9.36934M15.6928 10.7952L17.5527 10.7952M2.71103 5.37569L2.60636 4.72371C2.54093 4.31614 2.81671 3.93244 3.22233 3.86669L20.8491 1.00965C21.2547 0.943906 21.6365 1.22101 21.702 1.62858L22.9904 9.65411C23.0558 10.0617 22.78 10.4454 22.3744 10.5111L20.3425 10.8405M1.74394 5.37569H19.5985C20.0094 5.37569 20.3425 5.71037 20.3425 6.12321V14.2525C20.3425 14.6653 20.0094 15 19.5985 15H1.74394C1.33307 15 1 14.6653 1 14.2525V6.12321C1 5.71037 1.33307 5.37569 1.74394 5.37569Z" stroke="currentColor" stroke-width="1.5" stroke-miterlimit="10" stroke-linecap="round"/>
</svg>
