<svg width="24" height="24" viewBox="0 0 24 24" fill="none" xmlns="http://www.w3.org/2000/svg">
<path d="M11.269 20C11.269 20.4142 11.6048 20.75 12.019 20.75C12.4332 20.75 12.769 20.4142 12.769 20H11.269ZM12.769 17.5398C12.769 17.1256 12.4332 16.7898 12.019 16.7898C11.6048 16.7898 11.269 17.1256 11.269 17.5398H12.769ZM12.769 4C12.769 3.58579 12.4332 3.25 12.019 3.25C11.6048 3.25 11.269 3.58579 11.269 4H12.769ZM11.269 6.46017C11.269 6.87438 11.6048 7.21017 12.019 7.21017C12.4332 7.21017 12.769 6.87438 12.769 6.46017H11.269ZM12.769 20V17.5398H11.269V20H12.769ZM11.269 4V6.46017H12.769V4H11.269ZM5.97656 14.7787C5.97656 16.7359 7.55442 18.2897 9.48762 18.2897V16.7897C8.37657 16.7897 7.47656 15.9012 7.47656 14.7787H5.97656ZM9.48762 18.2897H14.5142V16.7897H9.48762V18.2897ZM14.5142 18.2897C16.4713 18.2897 18.0252 16.7119 18.0252 14.7787H16.5252C16.5252 15.8897 15.6366 16.7897 14.5142 16.7897V18.2897ZM18.0252 14.7787C18.0252 12.8424 16.4505 11.2676 14.5142 11.2676V12.7676C15.6221 12.7676 16.5252 13.6708 16.5252 14.7787H18.0252ZM14.5142 11.2676H9.48762V12.7676H14.5142V11.2676ZM9.48762 11.2676C8.36514 11.2676 7.47656 10.3676 7.47656 9.25658H5.97656C5.97656 11.1898 7.53045 12.7676 9.48762 12.7676V11.2676ZM7.47656 9.25658C7.47656 8.14867 8.37971 7.24552 9.48762 7.24552V5.74552C7.55128 5.74552 5.97656 7.32024 5.97656 9.25658H7.47656ZM9.48762 7.24552H14.5142V5.74552H9.48762V7.24552ZM14.5142 7.24552C15.6366 7.24552 16.5252 8.14553 16.5252 9.25658H18.0252C18.0252 7.32338 16.4713 5.74552 14.5142 5.74552V7.24552Z" fill="#353131"/>
</svg>
