<svg width="4" height="20" viewBox="0 0 4 20" fill="none" xmlns="http://www.w3.org/2000/svg">
<path fill-rule="evenodd" clip-rule="evenodd" d="M4 1.99904C4 0.89421 3.10431 -0.00191173 2 3.06287e-06C0.895694 3.06287e-06 0 0.896125 0 2.00096C0 3.10579 0.895694 4 2 4C3.10239 3.99426 3.99426 3.10005 4 1.99904ZM4 9.99904C4 8.89421 3.10431 7.99809 2 8C0.895694 8 0 8.89612 0 10.001C0 11.1058 0.895694 12 2 12C3.10239 11.9943 3.99426 11.1 4 9.99904ZM2 16C3.10431 15.9981 4 16.8942 4 17.999C3.99426 19.1 3.10239 19.9943 2 20C0.895694 20 0 19.1058 0 18.001C0 16.8961 0.895694 16 2 16Z" fill="currentColor"/>
</svg>
