<svg width="18" height="22" viewBox="0 0 18 22" fill="none" xmlns="http://www.w3.org/2000/svg" id="duplicate">
<path d="M12.75 16.25V19.625C12.75 20.2463 12.2463 20.75 11.625 20.75H1.875C1.25368 20.75 0.75 20.2463 0.75 19.625V6.875C0.75 6.25368 1.25368 5.75 1.875 5.75H3.75C4.26107 5.75 4.76219 5.7926 5.25 5.87444M12.75 16.25H16.125C16.7463 16.25 17.25 15.7463 17.25 15.125V10.25C17.25 5.79051 14.0066 2.08855 9.75 1.37444C9.26219 1.2926 8.76107 1.25 8.25 1.25H6.375C5.75368 1.25 5.25 1.75368 5.25 2.375V5.87444M12.75 16.25H6.375C5.75368 16.25 5.25 15.7463 5.25 15.125V5.87444M17.25 12.5V10.625C17.25 8.76104 15.739 7.25 13.875 7.25H12.375C11.7537 7.25 11.25 6.74632 11.25 6.125V4.625C11.25 2.76104 9.73896 1.25 7.875 1.25H6.75" stroke="currentColor" stroke-width="1.5" stroke-linecap="round" stroke-linejoin="round"/>
</svg>
