<svg width="24" height="25" viewBox="0 0 24 25" fill="none" xmlns="http://www.w3.org/2000/svg" id="earlyPay">
    <path d="M20.5577 13.9183C20.5577 14.3325 20.8935 14.6683 21.3077 14.6683C21.7219 14.6683 22.0577 14.3325 22.0577 13.9183H20.5577ZM9.46154 22.2283C9.87575 22.2283 10.2115 21.8925 10.2115 21.4783C10.2115 21.0641 9.87575 20.7283 9.46154 20.7283V22.2283ZM5.98077 2.99829C5.98077 2.58408 5.64498 2.24829 5.23077 2.24829C4.81656 2.24829 4.48077 2.58408 4.48077 2.99829H5.98077ZM17.8269 2.99829C17.8269 2.58408 17.4911 2.24829 17.0769 2.24829C16.6627 2.24829 16.3269 2.58408 16.3269 2.99829H17.8269ZM1 12.3283C0.585786 12.3283 0.25 12.6641 0.25 13.0783C0.25 13.4925 0.585786 13.8283 1 13.8283V12.3283ZM11.1538 13.0783V13.8283C11.5681 13.8283 11.9038 13.4925 11.9038 13.0783H11.1538ZM1 16.5283C0.585786 16.5283 0.25 16.8641 0.25 17.2783C0.25 17.6925 0.585786 18.0283 1 18.0283V16.5283ZM9.03846 18.0283C9.45267 18.0283 9.78846 17.6925 9.78846 17.2783C9.78846 16.8641 9.45267 16.5283 9.03846 16.5283V18.0283ZM11.9038 8.87829C11.9038 8.46408 11.5681 8.12829 11.1538 8.12829C10.7396 8.12829 10.4038 8.46408 10.4038 8.87829H11.9038ZM16.9808 8.87829C16.9808 8.46408 16.645 8.12829 16.2308 8.12829C15.8166 8.12829 15.4808 8.46408 15.4808 8.87829H16.9808ZM15.4808 10.1383C15.4808 10.5525 15.8166 10.8883 16.2308 10.8883C16.645 10.8883 16.9808 10.5525 16.9808 10.1383H15.4808ZM2.69231 5.42829H19.6154V3.92829H2.69231V5.42829ZM1.75 19.7983V6.35829H0.25V19.7983H1.75ZM20.5577 6.35829V13.9183H22.0577V6.35829H20.5577ZM9.46154 20.7283H2.69231V22.2283H9.46154V20.7283ZM0.25 19.7983C0.25 21.1455 1.34863 22.2283 2.69231 22.2283V20.7283C2.16671 20.7283 1.75 20.3068 1.75 19.7983H0.25ZM19.6154 5.42829C20.141 5.42829 20.5577 5.84982 20.5577 6.35829H22.0577C22.0577 5.01109 20.9591 3.92829 19.6154 3.92829V5.42829ZM2.69231 3.92829C1.34863 3.92829 0.25 5.01109 0.25 6.35829H1.75C1.75 5.84982 2.16672 5.42829 2.69231 5.42829V3.92829ZM5.98077 6.35829V2.99829H4.48077V6.35829H5.98077ZM17.8269 6.35829V2.99829H16.3269V6.35829H17.8269ZM1 9.62829H21.3077V8.12829H1V9.62829ZM1 13.8283H11.1538V12.3283H1V13.8283ZM1 18.0283H9.03846V16.5283H1V18.0283ZM5.32692 8.87829V21.4783H6.82692V8.87829H5.32692ZM10.4038 8.87829V13.0783H11.9038V8.87829H10.4038ZM15.4808 8.87829V10.1383H16.9808V8.87829H15.4808ZM22.25 18.1183C22.25 20.9464 19.9391 23.2483 17.0769 23.2483V24.7483C20.7572 24.7483 23.75 21.7851 23.75 18.1183H22.25ZM17.0769 23.2483C14.2147 23.2483 11.9038 20.9464 11.9038 18.1183H10.4038C10.4038 21.7851 13.3967 24.7483 17.0769 24.7483V23.2483ZM11.9038 18.1183C11.9038 15.2902 14.2147 12.9883 17.0769 12.9883V11.4883C13.3967 11.4883 10.4038 14.4515 10.4038 18.1183H11.9038ZM17.0769 12.9883C19.9391 12.9883 22.25 15.2902 22.25 18.1183H23.75C23.75 14.4515 20.7572 11.4883 17.0769 11.4883V12.9883Z" fill="currentColor"/>
    <path d="M16.4409 21.79C16.4409 22.1489 16.7319 22.44 17.0909 22.44C17.4499 22.44 17.7409 22.1489 17.7409 21.79H16.4409ZM17.7409 20.6478C17.7409 20.2888 17.4499 19.9978 17.0909 19.9978C16.7319 19.9978 16.4409 20.2888 16.4409 20.6478H17.7409ZM17.7409 14.3616C17.7409 14.0026 17.4499 13.7116 17.0909 13.7116C16.7319 13.7116 16.4409 14.0026 16.4409 14.3616H17.7409ZM16.4409 15.5038C16.4409 15.8628 16.7319 16.1538 17.0909 16.1538C17.4499 16.1538 17.7409 15.8628 17.7409 15.5038H16.4409ZM17.7409 21.79V20.6478H16.4409V21.79H17.7409ZM16.4409 14.3616V15.5038H17.7409V14.3616H16.4409ZM13.9838 19.3658C13.9838 20.4424 14.8527 21.2977 15.9157 21.2977V19.9977C15.5653 19.9977 15.2838 19.719 15.2838 19.3658H13.9838ZM15.9157 21.2977H18.2494V19.9977H15.9157V21.2977ZM18.2494 21.2977C19.326 21.2977 20.1813 20.4288 20.1813 19.3658H18.8812C18.8812 19.7162 18.6026 19.9977 18.2494 19.9977V21.2977ZM20.1813 19.3658C20.1813 18.3002 19.315 17.4339 18.2494 17.4339V18.7339C18.5971 18.7339 18.8812 19.0181 18.8812 19.3658H20.1813ZM18.2494 17.4339H15.9157V18.7339H18.2494V17.4339ZM15.9157 17.4339C15.5625 17.4339 15.2838 17.1525 15.2838 16.8021H13.9838C13.9838 17.865 14.8391 18.7339 15.9157 18.7339V17.4339ZM15.2838 16.8021C15.2838 16.4544 15.568 16.1702 15.9157 16.1702V14.8702C14.85 14.8702 13.9838 15.7364 13.9838 16.8021H15.2838ZM15.9157 16.1702H18.2494V14.8702H15.9157V16.1702ZM18.2494 16.1702C18.6026 16.1702 18.8812 16.4516 18.8812 16.8021H20.1813C20.1813 15.7391 19.326 14.8702 18.2494 14.8702V16.1702Z" fill="currentColor"/>
</svg>
