<svg width="24" height="26" viewBox="0 0 24 26" fill="none" xmlns="http://www.w3.org/2000/svg">
<path d="M12.0399 18.2805C10.7144 18.2805 9.63989 17.4209 9.63989 16.3605C9.63989 15.3001 10.7144 14.4405 12.0399 14.4405M12.0399 18.2805C13.3654 18.2805 14.4399 19.1401 14.4399 20.2005C14.4399 21.2609 13.3654 22.1205 12.0399 22.1205M12.0399 18.2805V14.4405M12.0399 18.2805L12.0399 22.1205M12.0399 14.4405C12.9282 14.4405 13.7038 14.8266 14.1188 15.4005M12.0399 14.4405V13.4805M12.0399 22.1205L12.0399 23.0805M12.0399 22.1205C11.1516 22.1205 10.376 21.7344 9.96099 21.1605" stroke="currentColor" stroke-width="1.5" stroke-linecap="round"/>
<path d="M1 14.4396C1 12.849 2.64759 11.5596 4.68 11.5596H19.4C21.4324 11.5596 23.08 12.849 23.08 14.4396V22.1196C23.08 23.7102 21.4324 24.9996 19.4 24.9996H4.68C2.64759 24.9996 1 23.7102 1 22.1196V14.4396Z" stroke="currentColor" stroke-width="1.5" stroke-linecap="round" stroke-linejoin="round"/>
<path d="M12.8401 1H19.2401M19.2401 1V7.144M19.2401 1L12.8401 7.144L9.64009 4.072L4.84009 8.68" stroke="currentColor" stroke-width="1.5" stroke-linecap="round" stroke-linejoin="round"/>
</svg>
