<svg width="18" height="18" viewBox="0 0 18 18" fill="none" xmlns="http://www.w3.org/2000/svg">
<path d="M12.8286 2.90863L14.2686 1.46863C14.8935 0.84379 15.9065 0.84379 16.5314 1.46863C17.1562 2.09347 17.1562 3.10653 16.5314 3.73137L7.47013 12.7926C7.01899 13.2438 6.46256 13.5754 5.85111 13.7575L3.56 14.44L4.24248 12.1489C4.42462 11.5375 4.75624 10.981 5.20738 10.5299L12.8286 2.90863ZM12.8286 2.90863L15.08 5.15999M13.8 11.0267V15.08C13.8 16.1404 12.9404 17 11.88 17H2.92C1.85961 17 1 16.1404 1 15.08V6.11999C1 5.05961 1.85961 4.19999 2.92 4.19999H6.97333" stroke="currentColor" stroke-width="1.5" stroke-linecap="round" stroke-linejoin="round"/>
</svg>
