<svg width="29" height="25" viewBox="0 0 29 25" fill="none" xmlns="http://www.w3.org/2000/svg">
    <path d="M6.56328 20.1532L6.42622 19.4159L6.56328 20.1532ZM5.43787 19.3806L6.17524 19.2436L5.43787 19.3806ZM27.9836 15.1899L27.2462 15.327L27.9836 15.1899ZM27.211 16.3153L27.348 17.0527L27.211 16.3153ZM24.3673 1.01643L24.5043 1.7538L24.3673 1.01643ZM25.4927 1.78904L26.23 1.65198V1.65198L25.4927 1.78904ZM3.71957 4.85436L3.58251 4.11699L3.71957 4.85436ZM2.94696 5.97977L2.20959 6.11683L2.94696 5.97977ZM15.13 12.193L15.5017 11.5416L15.13 12.193ZM16.3561 11.9652L15.7751 11.4908H15.7751L16.3561 11.9652ZM21.2939 23.3281H2V24.8281H21.2939V23.3281ZM1.75 23.0781V11.1552H0.25V23.0781H1.75ZM23.0439 23.0781V17.9356H21.5439V23.0781H23.0439ZM2 10.9052H3.86649V9.40517H2V10.9052ZM2 23.3281C1.86193 23.3281 1.75 23.2162 1.75 23.0781H0.25C0.25 24.0446 1.0335 24.8281 2 24.8281V23.3281ZM21.2939 24.8281C22.2604 24.8281 23.0439 24.0446 23.0439 23.0781H21.5439C21.5439 23.2162 21.432 23.3281 21.2939 23.3281V24.8281ZM1.75 11.1552C1.75 11.0171 1.86193 10.9052 2 10.9052V9.40517C1.0335 9.40517 0.25 10.1887 0.25 11.1552H1.75ZM3.85663 5.59173L24.5043 1.7538L24.2302 0.279057L3.58251 4.11699L3.85663 5.59173ZM24.7553 1.9261L27.2462 15.327L28.7209 15.0528L26.23 1.65198L24.7553 1.9261ZM27.0739 15.5779L6.42622 19.4159L6.70034 20.8906L27.348 17.0527L27.0739 15.5779ZM6.17524 19.2436L3.68433 5.84271L2.20959 6.11683L4.7005 19.5177L6.17524 19.2436ZM6.42622 19.4159C6.30933 19.4376 6.19696 19.3604 6.17524 19.2436L4.7005 19.5177C4.87362 20.449 5.76898 21.0637 6.70034 20.8906L6.42622 19.4159ZM27.2462 15.327C27.2679 15.4438 27.1908 15.5562 27.0739 15.5779L27.348 17.0527C28.2794 16.8795 28.8941 15.9842 28.7209 15.0528L27.2462 15.327ZM24.5043 1.7538C24.6212 1.73207 24.7336 1.80921 24.7553 1.9261L26.23 1.65198C26.0569 0.720614 25.1616 0.105938 24.2302 0.279057L24.5043 1.7538ZM3.58251 4.11699C2.65115 4.29011 2.03647 5.18546 2.20959 6.11683L3.68433 5.84271C3.6626 5.72582 3.73974 5.61346 3.85663 5.59173L3.58251 4.11699ZM3.35378 6.33768L14.7584 12.8445L15.5017 11.5416L4.09712 5.03482L3.35378 6.33768ZM24.0798 1.32049L15.7751 11.4908L16.937 12.4395L25.2417 2.26922L24.0798 1.32049ZM14.7584 12.8445C15.486 13.2596 16.4071 13.0884 16.937 12.4395L15.7751 11.4908C15.7086 11.5722 15.593 11.5937 15.5017 11.5416L14.7584 12.8445Z" fill="currentColor" />
</svg>