<svg width="22" height="22" viewBox="0 0 22 22" fill="none" xmlns="http://www.w3.org/2000/svg">
    <path d="M1 18.7268V8.57735C1 7.8173 1.37134 7.10753 1.98956 6.68593L9.76733 1.38178C10.5138 0.872739 11.4862 0.872739 12.2327 1.38178L20.0104 6.68593C20.6287 7.10753 21 7.8173 21 8.57735V18.7268M1 18.7268C1 19.9823 1.99492 21 3.22222 21H18.7778C20.0051 21 21 19.9823 21 18.7268M1 18.7268L8.5 13.6121M21 18.7268L13.5 13.6121M1 8.49737L8.5 13.6121M21 8.49737L13.5 13.6121M13.5 13.6121L12.2327 14.4764C11.4862 14.9854 10.5138 14.9854 9.76733 14.4764L8.5 13.6121" stroke="currentColor" stroke-linecap="round" stroke-linejoin="round"/>
</svg>
