<svg width="22" height="18" viewBox="0 0 22 18" fill="none" xmlns="http://www.w3.org/2000/svg">
    <path d="M2.74167 14.0047H8.175V15.2694C8.175 17.0619 9.11667 18 10.925 18H19.25C21.05 18 22 17.0619 22 15.2694V9.75803C22 7.96557 21.05 7.02745 19.25 7.02745H17.7V2.73057C17.7 0.938111 16.7583 0 14.9583 0H2.74167C0.933333 0 0 0.938111 0 2.73057V11.2741C0 13.0749 0.933333 14.0047 2.74167 14.0047ZM2.85 12.3378C2.08333 12.3378 1.65833 11.9358 1.65833 11.1233V2.88134C1.65833 2.06887 2.08333 1.6752 2.85 1.6752H14.85C15.6083 1.6752 16.0417 2.06887 16.0417 2.88134V7.02745H10.925C9.11667 7.02745 8.175 7.96557 8.175 9.75803V12.3378H2.85ZM3.45833 2.70544C3.1 2.70544 2.84167 2.95672 2.84167 3.28339C2.84167 3.46766 2.9 3.61843 3.03333 3.75244L4.60833 5.33551L3.85 6.1061C3.44167 6.50814 3.68333 7.09446 4.3 7.17822L7.01667 7.55514C7.43333 7.6054 7.725 7.30386 7.68333 6.88506L7.3 4.15449C7.225 3.51792 6.64167 3.28339 6.21667 3.71056L5.46667 4.47278C5.46667 4.47278 4.01667 3.01536 3.89167 2.88972C3.76667 2.76408 3.625 2.70544 3.45833 2.70544Z" fill="currentColor"/>
</svg>
