<svg width="21" height="21" viewBox="0 0 21 21" fill="none" xmlns="http://www.w3.org/2000/svg" id="exitFlow">
<path d="M3 0.25C1.48122 0.25 0.25 1.48122 0.25 3V17C0.25 18.5188 1.48122 19.75 3 19.75H7.81606C7.59628 19.2711 7.41729 18.7696 7.28354 18.25H3C2.30964 18.25 1.75 17.6904 1.75 17V3C1.75 2.30964 2.30964 1.75 3 1.75H17C17.6904 1.75 18.25 2.30964 18.25 3V7.28354C18.7696 7.41729 19.2711 7.59628 19.75 7.81606V3C19.75 1.48122 18.5188 0.25 17 0.25H3Z" fill="currentColor"/>
<path fill-rule="evenodd" clip-rule="evenodd" d="M12.4697 12.4697C12.7626 12.1768 13.2374 12.1768 13.5303 12.4697L16.5 15.4393L19.4697 12.4697C19.7626 12.1768 20.2374 12.1768 20.5303 12.4697C20.8232 12.7626 20.8232 13.2374 20.5303 13.5303L17.5607 16.5L20.5303 19.4697C20.8232 19.7626 20.8232 20.2374 20.5303 20.5303C20.2374 20.8232 19.7626 20.8232 19.4697 20.5303L16.5 17.5607L13.5303 20.5303C13.2374 20.8232 12.7626 20.8232 12.4697 20.5303C12.1768 20.2374 12.1768 19.7626 12.4697 19.4697L15.4393 16.5L12.4697 13.5303C12.1768 13.2374 12.1768 12.7626 12.4697 12.4697Z" fill="currentColor"/>
</svg>
