<svg width="24" height="24" viewBox="0 0 24 24" fill="none" xmlns="http://www.w3.org/2000/svg" id="externalAccount">
    <path d="M8 11H16" stroke="currentColor" stroke-width="1.5" stroke-linecap="round"/>
    <path d="M8 16H16" stroke="currentColor" stroke-width="1.5" stroke-linecap="round"/>
    <path d="M15 11.5V15.5" stroke="currentColor" stroke-width="1.5" stroke-linecap="round"/>
    <path d="M12 11.5V15.5" stroke="currentColor" stroke-width="1.5" stroke-linecap="round"/>
    <path d="M9 11.5V15.5" stroke="currentColor" stroke-width="1.5" stroke-linecap="round"/>
    <path d="M16 9L12 7L8 9" stroke="currentColor" stroke-width="1.5" stroke-linecap="round"/>
    <path d="M2.21923 15.5169C3.59423 19.8641 7.45338 23 12 23C16.5467 23 20.7083 19.6199 21.9275 14.9991M4.59332 16.3375L2.06333 14.9991L1 17.7833M21.7809 8.48313C20.4059 4.13588 16.5467 1 12.0001 1C7.45345 1 3.2918 4.38011 2.06347 9.00089M19.4067 7.66252L21.9275 9.00088L23 6.21669" stroke="currentColor" stroke-width="1.5" stroke-linecap="round" stroke-linejoin="round"/>
</svg>
