<svg width="24" height="25" viewBox="0 0 24 25" fill="none" xmlns="http://www.w3.org/2000/svg" id="externalTransfer">
    <path d="M12.1111 13.6801V17.7256M5 19.9983H19M5 11.4427H16.8889V19.9983M5 9.1094L12 5.99829L13.2532 6.55525M6.88889 11.6819V19.7273" stroke="currentColor" stroke-width="1.5" stroke-linecap="round" stroke-linejoin="round"/>
    <path d="M18.6676 8.89671C18.6676 9.2557 18.9587 9.54671 19.3176 9.54671C19.6766 9.54671 19.9676 9.2557 19.9676 8.89671H18.6676ZM19.9676 7.89158C19.9676 7.53259 19.6766 7.24158 19.3176 7.24158C18.9587 7.24158 18.6676 7.53259 18.6676 7.89158H19.9676ZM19.9676 2.35168C19.9676 1.9927 19.6766 1.70168 19.3176 1.70168C18.9587 1.70168 18.6676 1.9927 18.6676 2.35168H19.9676ZM18.6676 3.35682C18.6676 3.71581 18.9587 4.00682 19.3176 4.00682C19.6766 4.00682 19.9676 3.71581 19.9676 3.35682H18.6676ZM19.9676 8.89671V7.89158H18.6676V8.89671H19.9676ZM18.6676 2.35168V3.35682H19.9676V2.35168H18.6676ZM16.598 6.75555C16.598 7.71457 17.347 8.53692 18.3321 8.53692V7.23692C18.1167 7.23692 17.898 7.04945 17.898 6.75555H16.598ZM18.3321 8.53692H20.3032V7.23692H18.3321V8.53692ZM20.3032 8.53692C21.2884 8.53692 22.0373 7.71457 22.0373 6.75555H20.7373C20.7373 7.04945 20.5187 7.23692 20.3032 7.23692V8.53692ZM22.0373 6.75555C22.0373 5.79653 21.2884 4.97419 20.3032 4.97419V6.27419C20.5187 6.27419 20.7373 6.46166 20.7373 6.75555H22.0373ZM18.3321 4.97419C18.1167 4.97419 17.898 4.78672 17.898 4.49282H16.598C16.598 5.45184 17.347 6.27419 18.3321 6.27419V4.97419ZM17.898 4.49282C17.898 4.19892 18.1167 4.01146 18.3321 4.01146V2.71146C17.347 2.71146 16.598 3.5338 16.598 4.49282H17.898ZM18.3321 4.01146H20.3032V2.71146H18.3321V4.01146ZM20.3032 4.01146C20.5187 4.01146 20.7373 4.19892 20.7373 4.49282H22.0373C22.0373 3.5338 21.2884 2.71146 20.3032 2.71146V4.01146ZM20.3032 4.97419H18.3321V6.27419H20.3032V4.97419Z" fill="currentColor"/>
</svg>
