<svg width="24" height="24" viewBox="0 0 24 24" fill="none" xmlns="http://www.w3.org/2000/svg">
<path d="M3.98014 8.22257C3.05704 9.31382 2.35263 10.596 1.93457 12.0015C3.22587 16.338 7.24332 19.5 11.9993 19.5C12.9919 19.5 13.9523 19.3623 14.8625 19.1049M6.22784 6.22763C7.8841 5.13558 9.86792 4.5 12.0002 4.5C16.7562 4.5 20.7736 7.66205 22.0649 11.9985C21.353 14.3919 19.8108 16.4277 17.7722 17.772M6.22784 6.22763L3.00021 3M6.22784 6.22763L9.87889 9.87868M17.7722 17.772L21.0002 21M17.7722 17.772L14.1215 14.1213M14.1215 14.1213C14.6644 13.5784 15.0002 12.8284 15.0002 12C15.0002 10.3431 13.6571 9 12.0002 9C11.1718 9 10.4218 9.33579 9.87889 9.87868M14.1215 14.1213L9.87889 9.87868" stroke="currentColor" stroke-width="1.5" stroke-linecap="round" stroke-linejoin="round"/>
</svg>
