
<svg width="56" height="56" viewBox="0 0 56 56" fill="none" xmlns="http://www.w3.org/2000/svg">
<path fill-rule="evenodd" clip-rule="evenodd" d="M2.84375 15.3672V9.07812C2.84375 5.64047 5.64052 2.84375 9.07812 2.84375H15.3672C16.1524 2.84375 16.7891 2.20713 16.7891 1.42188C16.7891 0.636617 16.1524 0 15.3672 0H9.07812C4.07247 0 0 4.07241 0 9.07812V15.3672C0 16.1524 0.636617 16.7891 1.42188 16.7891C2.20713 16.7891 2.84375 16.1524 2.84375 15.3672ZM15.3672 53.1562C16.1524 53.1562 16.7891 53.7929 16.7891 54.5781C16.7891 55.3634 16.1524 56 15.3672 56H9.07812C4.07247 56 0 51.9275 0 46.9219V40.6328C0 39.8476 0.636617 39.2109 1.42188 39.2109C2.20713 39.2109 2.84375 39.8476 2.84375 40.6328V46.9219C2.84375 50.3595 5.64052 53.1562 9.07812 53.1562H15.3672ZM56 40.6328V46.9219C56 51.9275 51.9275 56 46.9219 56H40.6328C39.8476 56 39.2109 55.3634 39.2109 54.5781C39.2109 53.7929 39.8476 53.1562 40.6328 53.1562H46.9219C50.3595 53.1562 53.1562 50.3595 53.1562 46.9219V40.6328C53.1562 39.8476 53.7929 39.2109 54.5781 39.2109C55.3634 39.2109 56 39.8476 56 40.6328ZM56 9.07812V15.3672C56 16.1524 55.3634 16.7891 54.5781 16.7891C53.7929 16.7891 53.1562 16.1524 53.1562 15.3672V9.07812C53.1562 5.64047 50.3595 2.84375 46.9219 2.84375H40.6328C39.8476 2.84375 39.2109 2.20713 39.2109 1.42188C39.2109 0.636617 39.8476 0 40.6328 0H46.9219C51.9275 0 56 4.07241 56 9.07812ZM37.8124 41.3894C38.4114 40.836 38.4485 39.9019 37.8951 39.3028C37.3418 38.7038 36.4076 38.6667 35.8086 39.22C33.677 41.189 30.9038 42.2733 27.9999 42.2733C25.0959 42.2733 22.3227 41.189 20.1912 39.22C19.592 38.6667 18.658 38.7038 18.1046 39.3028C17.5513 39.9019 17.5883 40.836 18.1874 41.3894C20.8662 43.8638 24.351 45.2265 27.9999 45.2265C31.6488 45.2265 35.1335 43.8638 37.8124 41.3894ZM30.9531 21.1094V31.6094C30.9531 33.6901 29.2604 35.3828 27.1797 35.3828H25.9766C25.1611 35.3828 24.5 34.7217 24.5 33.9062C24.5 33.0908 25.1611 32.4297 25.9766 32.4297H27.1797C27.632 32.4297 28 32.0617 28 31.6094V21.1094C28 20.2939 28.6611 19.6328 29.4766 19.6328C30.2921 19.6328 30.9531 20.2939 30.9531 21.1094ZM41.125 25.2383V21.0273C41.125 20.2572 40.5006 19.6328 39.7305 19.6328C38.9603 19.6328 38.3359 20.2572 38.3359 21.0273V25.2383C38.3359 26.0084 38.9603 26.6328 39.7305 26.6328C40.5006 26.6328 41.125 26.0084 41.125 25.2383ZM15.2031 25.2383C15.2031 26.0084 15.8275 26.6328 16.5977 26.6328C17.3678 26.6328 17.9922 26.0084 17.9922 25.2383V21.0273C17.9922 20.2572 17.3678 19.6328 16.5977 19.6328C15.8275 19.6328 15.2031 20.2572 15.2031 21.0273V25.2383Z" fill="currentColor"/>
</svg>
