<svg width="24" height="24" viewBox="0 0 24 24" fill="none" xmlns="http://www.w3.org/2000/svg">
<path d="M7.09091 3H5.45455C4.09894 3 3 4.09894 3 5.45455V7.09091M16.9091 3H18.5455C19.9011 3 21 4.09894 21 5.45455V7.09091M21 16.9091V18.5455C21 19.9011 19.9011 21 18.5455 21H16.9091M7.09091 21H5.45455C4.09894 21 3 19.9011 3 18.5455V16.9091" stroke="#353131" stroke-width="1.5" stroke-linecap="round" stroke-linejoin="round"/>
<path d="M9.37534 9.75V9.765H9.38284M14.6253 9.75V9.765M15.1823 15.182C13.425 16.9393 10.5757 16.9393 8.81836 15.182M9.75034 9.75C9.75034 10.1642 9.58245 10.5 9.37534 10.5C9.16823 10.5 9.00034 10.1642 9.00034 9.75C9.00034 9.33579 9.16823 9 9.37534 9C9.58245 9 9.75034 9.33579 9.75034 9.75ZM15.0003 9.75C15.0003 10.1642 14.8324 10.5 14.6253 10.5C14.4182 10.5 14.2503 10.1642 14.2503 9.75C14.2503 9.33579 14.4182 9 14.6253 9C14.8324 9 15.0003 9.33579 15.0003 9.75Z" stroke="#353131" stroke-width="1.5" stroke-linecap="round" stroke-linejoin="round"/>
</svg>
