<svg width="28" height="31" viewBox="0 0 28 31" fill="none" xmlns="http://www.w3.org/2000/svg">
    <path d="M22.7146 4.205C22.5946 4.205 22.4746 4.175 22.3696 4.115C19.4896 2.63 16.9996 2 14.0146 2C11.0446 2 8.22462 2.705 5.65962 4.115C5.29962 4.31 4.84962 4.175 4.63962 3.815C4.54607 3.63957 4.52509 3.43443 4.58119 3.2437C4.63728 3.05296 4.76599 2.89185 4.93962 2.795C7.72962 1.28 10.7896 0.5 14.0146 0.5C17.2096 0.5 19.9996 1.205 23.0596 2.78C23.4346 2.975 23.5696 3.425 23.3746 3.785C23.3153 3.91004 23.2219 4.0158 23.1051 4.0901C22.9884 4.1644 22.853 4.20423 22.7146 4.205V4.205ZM1.24962 12.08C1.11135 12.0813 0.975428 12.0443 0.856927 11.973C0.738426 11.9017 0.641979 11.7991 0.578284 11.6763C0.514589 11.5536 0.486135 11.4156 0.496079 11.2777C0.506023 11.1398 0.553976 11.0073 0.634618 10.895C2.11962 8.795 4.00962 7.145 6.25962 5.99C10.9696 3.56 16.9996 3.545 21.7246 5.975C23.9746 7.13 25.8646 8.765 27.3496 10.85C27.4072 10.9306 27.4482 11.0218 27.4703 11.1184C27.4924 11.2149 27.4952 11.3149 27.4784 11.4125C27.4617 11.5101 27.4258 11.6035 27.3728 11.6871C27.3198 11.7708 27.2507 11.8432 27.1696 11.9C26.8246 12.14 26.3596 12.065 26.1196 11.72C24.806 9.86057 23.0612 8.34734 21.0346 7.31C16.7296 5.105 11.2246 5.105 6.93462 7.325C4.89462 8.375 3.18462 9.875 1.83462 11.765C1.71462 11.975 1.48962 12.08 1.24962 12.08V12.08ZM10.6246 30.185C10.5263 30.1862 10.4287 30.1668 10.3383 30.128C10.2479 30.0893 10.1666 30.0321 10.0996 29.96C8.79462 28.655 8.08962 27.815 7.08462 26C6.04962 24.155 5.50962 21.905 5.50962 19.49C5.50962 15.035 9.31962 11.405 13.9996 11.405C18.6796 11.405 22.4896 15.035 22.4896 19.49C22.4896 19.91 22.1596 20.24 21.7396 20.24C21.3196 20.24 20.9896 19.91 20.9896 19.49C20.9896 15.86 17.8546 12.905 13.9996 12.905C10.1446 12.905 7.00962 15.86 7.00962 19.49C7.00962 21.65 7.48962 23.645 8.40462 25.265C9.36462 26.99 10.0246 27.725 11.1796 28.895C11.4646 29.195 11.4646 29.66 11.1796 29.96C11.0146 30.11 10.8196 30.185 10.6246 30.185ZM21.3796 27.41C19.5946 27.41 18.0196 26.96 16.7296 26.075C14.4946 24.56 13.1596 22.1 13.1596 19.49C13.1596 19.07 13.4896 18.74 13.9096 18.74C14.3296 18.74 14.6596 19.07 14.6596 19.49C14.6596 21.605 15.7396 23.6 17.5696 24.83C18.6346 25.55 19.8796 25.895 21.3796 25.895C21.7396 25.895 22.3396 25.85 22.9396 25.745C23.3446 25.67 23.7346 25.94 23.8096 26.36C23.8846 26.765 23.6146 27.155 23.1946 27.23C22.3396 27.395 21.5896 27.41 21.3796 27.41V27.41ZM18.3646 30.5C18.3046 30.5 18.2296 30.485 18.1696 30.47C15.7846 29.81 14.2246 28.925 12.5896 27.32C11.5535 26.297 10.732 25.0775 10.1731 23.733C9.61415 22.3885 9.3291 20.946 9.33462 19.49C9.33462 17.06 11.4046 15.08 13.9546 15.08C16.5046 15.08 18.5746 17.06 18.5746 19.49C18.5746 21.095 19.9696 22.4 21.6946 22.4C23.4196 22.4 24.8146 21.095 24.8146 19.49C24.8146 13.835 19.9396 9.245 13.9396 9.245C9.67962 9.245 5.77962 11.615 4.02462 15.29C3.43962 16.505 3.13962 17.93 3.13962 19.49C3.13962 20.66 3.24462 22.505 4.14462 24.905C4.29462 25.295 4.09962 25.73 3.70962 25.865C3.31962 26.015 2.88462 25.805 2.74962 25.43C2.02683 23.533 1.65577 21.5201 1.65462 19.49C1.65462 17.69 1.99962 16.055 2.67462 14.63C4.66962 10.445 9.09462 7.73 13.9396 7.73C20.7646 7.73 26.3146 12.995 26.3146 19.475C26.3146 21.905 24.2446 23.885 21.6946 23.885C19.1446 23.885 17.0746 21.905 17.0746 19.475C17.0746 17.87 15.6796 16.565 13.9546 16.565C12.2296 16.565 10.8346 17.87 10.8346 19.475C10.8346 22.04 11.8246 24.44 13.6396 26.24C15.0646 27.65 16.4296 28.43 18.5446 29.015C18.9496 29.12 19.1746 29.54 19.0696 29.93C18.9946 30.275 18.6796 30.5 18.3646 30.5V30.5Z" fill="currentColor" />
</svg>