<svg width="21" height="20" viewBox="0 0 21 20" fill="none" xmlns="http://www.w3.org/2000/svg">
<g clip-path="url(#clip0_3898_37376)">
<path d="M17.9849 3H2.68107C1.93654 3 1.33301 3.71647 1.33301 4.60033V15.3997C1.33301 16.2835 1.93654 17 2.68107 17H17.9849C18.7294 17 19.333 16.2835 19.333 15.3997V4.60033C19.333 3.71647 18.7295 3 17.9849 3Z" fill="#F5F5F5"/>
<path d="M1.33301 4H19.333C19.1488 3.41804 18.6435 3 18.0485 3H2.61751C2.02255 3 1.51723 3.41804 1.33301 4Z" fill="#DE182B"/>
<path d="M19.334 7.37454H1.33398V8.44401H19.334V7.37454Z" fill="#DE182B"/>
<path d="M19.334 5.23544H1.33398V6.30491H19.334V5.23544Z" fill="#DE182B"/>
<path d="M1.33398 10.2172C1.33398 10.4192 1.47296 10.5831 1.64434 10.5831H19.334V9.51358H1.33398V10.2172Z" fill="#DE182B"/>
<path d="M19.334 13.7918H1.33398V14.8613H19.334V13.7918Z" fill="#DE182B"/>
<path d="M19.2599 15.9305H1.4082C1.59091 16.5529 2.0921 17 2.68213 17H17.986C18.5761 17 19.0772 16.5529 19.2599 15.9305Z" fill="#DE182B"/>
<path d="M19.334 11.6527H1.33398V12.7222H19.334V11.6527Z" fill="#DE182B"/>
<path d="M1.62932 10H9.0367C9.20033 10 9.33301 9.84681 9.33301 9.65788V3.34212C9.33301 3.15316 9.20033 3 9.0367 3H2.62004C1.90921 3.00004 1.33301 3.66533 1.33301 4.48606V9.65788C1.33301 9.84684 1.46569 10 1.62932 10Z" fill="#012169"/>
<path d="M2.18641 3.92579L2.25159 4.13323L2.45763 4.1349C2.48432 4.13514 2.49536 4.17125 2.47391 4.18807L2.30816 4.31795L2.37034 4.52642C2.37841 4.5534 2.34943 4.57577 2.32771 4.55927L2.1601 4.43215L1.99248 4.55931C1.97077 4.57581 1.94185 4.55343 1.94985 4.52646L2.01203 4.31799L1.84628 4.1881C1.82483 4.17125 1.83587 4.13514 1.86256 4.13493L2.0686 4.13327L2.13378 3.92582C2.14218 3.89892 2.17794 3.89892 2.18641 3.92579Z" fill="#F5F5F5"/>
<path d="M2.18641 5.01097L2.25159 5.21841L2.45763 5.22007C2.48432 5.22032 2.49536 5.2564 2.47391 5.27325L2.30816 5.40316L2.37034 5.61164C2.37841 5.63861 2.34943 5.66098 2.32771 5.64449L2.1601 5.51737L1.99248 5.64452C1.97077 5.66098 1.94185 5.63865 1.94985 5.61167L2.01203 5.4032L1.84628 5.27328C1.82483 5.25643 1.83587 5.22036 1.86256 5.22011L2.0686 5.21845L2.13378 5.011C2.14218 4.98413 2.17794 4.98413 2.18641 5.01097Z" fill="#F5F5F5"/>
<path d="M2.18641 6.09614L2.25159 6.30358L2.45763 6.30525C2.48432 6.30549 2.49536 6.34157 2.47391 6.35842L2.30816 6.48834L2.37034 6.69681C2.37841 6.72378 2.34943 6.74615 2.32771 6.72966L2.1601 6.60254L1.99248 6.72969C1.97077 6.74615 1.94185 6.72385 1.94985 6.69684L2.01203 6.48837L1.84628 6.35845C1.82483 6.3416 1.83587 6.30553 1.86256 6.30528L2.0686 6.30362L2.13378 6.09617C2.14218 6.06927 2.17794 6.06927 2.18641 6.09614Z" fill="#F5F5F5"/>
<path d="M2.18641 7.18128L2.25159 7.38873L2.45763 7.39039C2.48432 7.39064 2.49536 7.42674 2.47391 7.44356L2.30816 7.57348L2.37034 7.78195C2.37841 7.80893 2.34943 7.8313 2.32771 7.8148L2.1601 7.68768L1.99248 7.81484C1.97077 7.8313 1.94185 7.80896 1.94985 7.78199L2.01203 7.57351L1.84628 7.4436C1.82483 7.42682 1.83587 7.39067 1.86256 7.39042L2.0686 7.38876L2.13378 7.18132C2.14218 7.15441 2.17794 7.15441 2.18641 7.18128Z" fill="#F5F5F5"/>
<path d="M2.18641 8.26646L2.25159 8.4739L2.45763 8.47557C2.48432 8.47582 2.49536 8.51189 2.47391 8.52874L2.30816 8.65866L2.37034 8.86713C2.37841 8.8941 2.34943 8.91648 2.32771 8.89998L2.1601 8.77286L1.99248 8.90002C1.97077 8.91648 1.94185 8.89414 1.94985 8.86716L2.01203 8.65869L1.84628 8.52877C1.82483 8.51192 1.83587 8.47585 1.86256 8.4756L2.0686 8.47394L2.13378 8.26649C2.14218 8.23962 2.17794 8.23963 2.18641 8.26646Z" fill="#F5F5F5"/>
<path d="M2.97938 4.45784L3.04456 4.66528L3.2506 4.66695C3.27729 4.6672 3.28833 4.7033 3.26688 4.72012L3.10113 4.85004L3.16331 5.05851C3.17138 5.08548 3.14239 5.10786 3.12068 5.09136L2.95306 4.9642L2.78545 5.09136C2.76373 5.10782 2.73482 5.08548 2.74282 5.05851L2.805 4.85004L2.63925 4.72012C2.6178 4.70327 2.62884 4.6672 2.65553 4.66695L2.86157 4.66528L2.92675 4.45784C2.93515 4.43101 2.97094 4.43101 2.97938 4.45784Z" fill="#F5F5F5"/>
<path d="M2.97938 5.54301L3.04456 5.75045L3.2506 5.75212C3.27729 5.75237 3.28833 5.78847 3.26688 5.80529L3.10113 5.93521L3.16331 6.14368C3.17138 6.17066 3.14239 6.19303 3.12068 6.17653L2.95306 6.04937L2.78545 6.17653C2.76373 6.19299 2.73482 6.17069 2.74282 6.14368L2.805 5.93521L2.63925 5.80529C2.6178 5.78851 2.62884 5.75237 2.65553 5.75212L2.86157 5.75045L2.92675 5.54301C2.93515 5.51614 2.97094 5.51614 2.97938 5.54301Z" fill="#F5F5F5"/>
<path d="M2.97938 6.62815L3.04456 6.8356L3.2506 6.83726C3.27729 6.83751 3.28833 6.87358 3.26688 6.89043L3.10113 7.02035L3.16331 7.22882C3.17138 7.2558 3.14239 7.27817 3.12068 7.26168L2.95306 7.13452L2.78545 7.26168C2.76373 7.27814 2.73482 7.2558 2.74282 7.22882L2.805 7.02035L2.63925 6.89043C2.6178 6.87358 2.62884 6.83751 2.65553 6.83726L2.86157 6.8356L2.92675 6.62815C2.93515 6.60128 2.97094 6.60128 2.97938 6.62815Z" fill="#F5F5F5"/>
<path d="M2.97938 7.71336L3.04456 7.92081L3.2506 7.92247C3.27729 7.92272 3.28833 7.95879 3.26688 7.97564L3.10113 8.10556L3.16331 8.31403C3.17138 8.34101 3.14239 8.36338 3.12068 8.34688L2.95306 8.21973L2.78545 8.34688C2.76373 8.36338 2.73482 8.34101 2.74282 8.31403L2.805 8.10556L2.63925 7.97564C2.6178 7.95879 2.62884 7.92272 2.65553 7.92247L2.86157 7.92081L2.92675 7.71336C2.93515 7.68653 2.97094 7.68653 2.97938 7.71336Z" fill="#F5F5F5"/>
<path d="M3.77333 3.92579L3.83851 4.13324L4.04455 4.1349C4.07123 4.13515 4.08227 4.17126 4.06083 4.18807L3.89508 4.31795L3.95725 4.52643C3.96533 4.5534 3.93634 4.57577 3.91463 4.55928L3.74701 4.43212L3.57939 4.55928C3.55768 4.57577 3.52876 4.5534 3.53677 4.52643L3.59894 4.31795L3.43319 4.18807C3.41175 4.17122 3.42279 4.13511 3.44947 4.1349L3.65551 4.13324L3.72069 3.92579C3.7291 3.89892 3.76489 3.89892 3.77333 3.92579Z" fill="#F5F5F5"/>
<path d="M3.77333 5.01097L3.83851 5.21841L4.04455 5.22008C4.07123 5.22033 4.08227 5.2564 4.06083 5.27325L3.89508 5.40317L3.95725 5.61164C3.96533 5.63862 3.93634 5.66099 3.91463 5.64449L3.74701 5.51733L3.57939 5.64449C3.55768 5.66095 3.52876 5.63862 3.53677 5.61164L3.59894 5.40317L3.43319 5.27325C3.41175 5.2564 3.42279 5.22033 3.44947 5.22008L3.65551 5.21841L3.72069 5.01097C3.7291 4.98414 3.76489 4.98414 3.77333 5.01097Z" fill="#F5F5F5"/>
<path d="M3.77333 6.09614L3.83851 6.30359L4.04455 6.30525C4.07123 6.3055 4.08227 6.34157 4.06083 6.35842L3.89508 6.48834L3.95725 6.69681C3.96533 6.72379 3.93634 6.74616 3.91463 6.72966L3.74701 6.60251L3.57939 6.72966C3.55768 6.74612 3.52876 6.72382 3.53677 6.69681L3.59894 6.48834L3.43319 6.35842C3.41175 6.34157 3.42279 6.3055 3.44947 6.30525L3.65551 6.30359L3.72069 6.09614C3.7291 6.06927 3.76489 6.06927 3.77333 6.09614Z" fill="#F5F5F5"/>
<path d="M3.77333 7.18128L3.83851 7.38873L4.04455 7.39039C4.07123 7.39064 4.08227 7.42675 4.06083 7.44356L3.89508 7.57348L3.95725 7.78196C3.96533 7.80893 3.93634 7.8313 3.91463 7.81481L3.74701 7.68765L3.57939 7.81481C3.55768 7.83127 3.52876 7.80893 3.53677 7.78196L3.59894 7.57348L3.43319 7.44356C3.41175 7.42678 3.42279 7.39064 3.44947 7.39039L3.65551 7.38873L3.72069 7.18128C3.7291 7.15442 3.76489 7.15442 3.77333 7.18128Z" fill="#F5F5F5"/>
<path d="M3.77333 8.26646L3.83851 8.47391L4.04455 8.47557C4.07123 8.47582 4.08227 8.51189 4.06083 8.52874L3.89508 8.65866L3.95725 8.86713C3.96533 8.89411 3.93634 8.91648 3.91463 8.89998L3.74701 8.77283L3.57939 8.89998C3.55768 8.91645 3.52876 8.89411 3.53677 8.86713L3.59894 8.65866L3.43319 8.52874C3.41175 8.51189 3.42279 8.47582 3.44947 8.47557L3.65551 8.47391L3.72069 8.26646C3.7291 8.23963 3.76489 8.23963 3.77333 8.26646Z" fill="#F5F5F5"/>
<path d="M4.56727 4.45784L4.63245 4.66528L4.83849 4.66695C4.86518 4.6672 4.87622 4.7033 4.85477 4.72012L4.68902 4.85004L4.7512 5.05851C4.75927 5.08548 4.73029 5.10786 4.70857 5.09136L4.54096 4.9642L4.37334 5.09136C4.35163 5.10782 4.32271 5.08548 4.33071 5.05851L4.39289 4.85004L4.22714 4.72012C4.20569 4.70327 4.21673 4.6672 4.24342 4.66695L4.44946 4.66528L4.51464 4.45784C4.52301 4.43101 4.55883 4.43101 4.56727 4.45784Z" fill="#F5F5F5"/>
<path d="M4.56727 5.54301L4.63245 5.75045L4.83849 5.75212C4.86518 5.75237 4.87622 5.78847 4.85477 5.80529L4.68902 5.93521L4.7512 6.14368C4.75927 6.17066 4.73029 6.19303 4.70857 6.17653L4.54096 6.04937L4.37334 6.17653C4.35163 6.19299 4.32271 6.17069 4.33071 6.14368L4.39289 5.93521L4.22714 5.80529C4.20569 5.78851 4.21673 5.75237 4.24342 5.75212L4.44946 5.75045L4.51464 5.54301C4.52301 5.51614 4.55883 5.51614 4.56727 5.54301Z" fill="#F5F5F5"/>
<path d="M4.56727 6.62815L4.63245 6.8356L4.83849 6.83726C4.86518 6.83751 4.87622 6.87358 4.85477 6.89043L4.68902 7.02035L4.7512 7.22882C4.75927 7.2558 4.73029 7.27817 4.70857 7.26168L4.54096 7.13452L4.37334 7.26168C4.35163 7.27814 4.32271 7.2558 4.33071 7.22882L4.39289 7.02035L4.22714 6.89043C4.20569 6.87358 4.21673 6.83751 4.24342 6.83726L4.44946 6.8356L4.51464 6.62815C4.52301 6.60128 4.55883 6.60128 4.56727 6.62815Z" fill="#F5F5F5"/>
<path d="M4.56727 7.71336L4.63245 7.92081L4.83849 7.92247C4.86518 7.92272 4.87622 7.95879 4.85477 7.97564L4.68902 8.10556L4.7512 8.31403C4.75927 8.34101 4.73029 8.36338 4.70857 8.34688L4.54096 8.21973L4.37334 8.34688C4.35163 8.36338 4.32271 8.34101 4.33071 8.31403L4.39289 8.10556L4.22714 7.97564C4.20569 7.95879 4.21673 7.92272 4.24342 7.92247L4.44946 7.92081L4.51464 7.71336C4.52301 7.68653 4.55883 7.68653 4.56727 7.71336Z" fill="#F5F5F5"/>
<path d="M5.36125 3.92579L5.42643 4.13323L5.63247 4.1349C5.65916 4.13514 5.6702 4.17125 5.64875 4.18807L5.483 4.31795L5.54518 4.52642C5.55325 4.5534 5.52426 4.57577 5.50255 4.55927L5.3349 4.43215L5.16729 4.55931C5.14557 4.57581 5.11665 4.55343 5.12466 4.52646L5.18683 4.31799L5.02109 4.1881C4.99964 4.17125 5.01068 4.13514 5.03736 4.13493L5.2434 4.13327L5.30858 3.92582C5.31702 3.89892 5.35281 3.89892 5.36125 3.92579Z" fill="#F5F5F5"/>
<path d="M5.36125 5.01097L5.42643 5.21841L5.63247 5.22008C5.65916 5.22033 5.6702 5.2564 5.64875 5.27325L5.483 5.40317L5.54518 5.61164C5.55325 5.63862 5.52426 5.66099 5.50255 5.64449L5.3349 5.51733L5.16729 5.64449C5.14557 5.66095 5.11665 5.63862 5.12466 5.61164L5.18683 5.40317L5.02109 5.27325C4.99964 5.2564 5.01068 5.22033 5.03736 5.22008L5.2434 5.21841L5.30858 5.01097C5.31702 4.98414 5.35281 4.98414 5.36125 5.01097Z" fill="#F5F5F5"/>
<path d="M5.36125 6.09611L5.42643 6.30356L5.63247 6.30522C5.65916 6.30547 5.6702 6.34154 5.64875 6.35839L5.483 6.48831L5.54518 6.69678C5.55325 6.72376 5.52426 6.74613 5.50255 6.72964L5.3349 6.60244L5.16729 6.7296C5.14557 6.74606 5.11665 6.72372 5.12466 6.69675L5.18683 6.48828L5.02109 6.35836C4.99964 6.34151 5.01068 6.30544 5.03736 6.30519L5.2434 6.30352L5.30858 6.09608C5.31702 6.06925 5.35281 6.06925 5.36125 6.09611Z" fill="#F5F5F5"/>
<path d="M5.36125 7.18128L5.42643 7.38873L5.63247 7.39039C5.65916 7.39064 5.6702 7.42675 5.64875 7.44356L5.483 7.57348L5.54518 7.78196C5.55325 7.80893 5.52426 7.8313 5.50255 7.81481L5.3349 7.68765L5.16729 7.81481C5.14557 7.83127 5.11665 7.80893 5.12466 7.78196L5.18683 7.57348L5.02109 7.44356C4.99964 7.42678 5.01068 7.39064 5.03736 7.39039L5.2434 7.38873L5.30858 7.18128C5.31702 7.15442 5.35281 7.15442 5.36125 7.18128Z" fill="#F5F5F5"/>
<path d="M5.36125 8.26646L5.42643 8.47391L5.63247 8.47557C5.65916 8.47582 5.6702 8.51189 5.64875 8.52874L5.483 8.65866L5.54518 8.86713C5.55325 8.89411 5.52426 8.91648 5.50255 8.89998L5.3349 8.77283L5.16729 8.89998C5.14557 8.91645 5.11665 8.89411 5.12466 8.86713L5.18683 8.65866L5.02109 8.52874C4.99964 8.51189 5.01068 8.47582 5.03736 8.47557L5.2434 8.47391L5.30858 8.26646C5.31702 8.23963 5.35281 8.23963 5.36125 8.26646Z" fill="#F5F5F5"/>
<path d="M6.15419 4.45784L6.21937 4.66528L6.42541 4.66695C6.45209 4.6672 6.46313 4.7033 6.44168 4.72012L6.27594 4.85004L6.33811 5.05851C6.34619 5.08548 6.3172 5.10786 6.29548 5.09136L6.12787 4.9642L5.96025 5.09136C5.93854 5.10782 5.90962 5.08548 5.91763 5.05851L5.9798 4.85004L5.81405 4.72012C5.79261 4.70327 5.80365 4.6672 5.83033 4.66695L6.03637 4.66528L6.10155 4.45784C6.10999 4.43101 6.14575 4.43101 6.15419 4.45784Z" fill="#F5F5F5"/>
<path d="M6.15419 5.54301L6.21937 5.75045L6.42541 5.75212C6.45209 5.75237 6.46313 5.78847 6.44168 5.80529L6.27594 5.93521L6.33811 6.14368C6.34619 6.17066 6.3172 6.19303 6.29548 6.17653L6.12787 6.04937L5.96025 6.17653C5.93854 6.19299 5.90962 6.17069 5.91763 6.14368L5.9798 5.93521L5.81405 5.80529C5.79261 5.78851 5.80365 5.75237 5.83033 5.75212L6.03637 5.75045L6.10155 5.54301C6.10999 5.51614 6.14575 5.51614 6.15419 5.54301Z" fill="#F5F5F5"/>
<path d="M6.15419 6.62815L6.21937 6.8356L6.42541 6.83726C6.45209 6.83751 6.46313 6.87358 6.44168 6.89043L6.27594 7.02035L6.33811 7.22882C6.34619 7.2558 6.3172 7.27817 6.29548 7.26168L6.12787 7.13452L5.96025 7.26168C5.93854 7.27814 5.90962 7.2558 5.91763 7.22882L5.9798 7.02035L5.81405 6.89043C5.79261 6.87358 5.80365 6.83751 5.83033 6.83726L6.03637 6.8356L6.10155 6.62815C6.10999 6.60128 6.14575 6.60128 6.15419 6.62815Z" fill="#F5F5F5"/>
<path d="M6.15419 7.71336L6.21937 7.92081L6.42541 7.92247C6.45209 7.92272 6.46313 7.95879 6.44168 7.97564L6.27594 8.10556L6.33811 8.31403C6.34619 8.34101 6.3172 8.36338 6.29548 8.34688L6.12787 8.21973L5.96025 8.34688C5.93854 8.36338 5.90962 8.34101 5.91763 8.31403L5.9798 8.10556L5.81405 7.97564C5.79261 7.95879 5.80365 7.92272 5.83033 7.92247L6.03637 7.92081L6.10155 7.71336C6.10999 7.68653 6.14575 7.68653 6.15419 7.71336Z" fill="#F5F5F5"/>
<path d="M6.94911 3.92579L7.01429 4.13324L7.22033 4.1349C7.24701 4.13515 7.25805 4.17126 7.23661 4.18807L7.07086 4.31795L7.13304 4.52643C7.14111 4.5534 7.11212 4.57577 7.09041 4.55928L6.92279 4.43212L6.75518 4.55928C6.73346 4.57577 6.70454 4.5534 6.71255 4.52643L6.77472 4.31795L6.60898 4.18807C6.58753 4.17122 6.59857 4.13511 6.62525 4.1349L6.8313 4.13324L6.89647 3.92579C6.90485 3.89892 6.94067 3.89892 6.94911 3.92579Z" fill="#F5F5F5"/>
<path d="M6.94911 5.01097L7.01429 5.21841L7.22033 5.22008C7.24701 5.22033 7.25805 5.2564 7.23661 5.27325L7.07086 5.40317L7.13304 5.61164C7.14111 5.63862 7.11212 5.66099 7.09041 5.64449L6.92279 5.51733L6.75518 5.64449C6.73346 5.66095 6.70454 5.63862 6.71255 5.61164L6.77472 5.40317L6.60898 5.27325C6.58753 5.2564 6.59857 5.22033 6.62525 5.22008L6.8313 5.21841L6.89647 5.01097C6.90485 4.98414 6.94067 4.98414 6.94911 5.01097Z" fill="#F5F5F5"/>
<path d="M6.94911 6.09614L7.01429 6.30359L7.22033 6.30525C7.24701 6.3055 7.25805 6.34157 7.23661 6.35842L7.07086 6.48834L7.13304 6.69681C7.14111 6.72379 7.11212 6.74616 7.09041 6.72966L6.92279 6.60251L6.75518 6.72966C6.73346 6.74612 6.70454 6.72382 6.71255 6.69681L6.77472 6.48834L6.60898 6.35842C6.58753 6.34157 6.59857 6.3055 6.62525 6.30525L6.8313 6.30359L6.89647 6.09614C6.90485 6.06927 6.94067 6.06927 6.94911 6.09614Z" fill="#F5F5F5"/>
<path d="M6.94911 7.18128L7.01429 7.38873L7.22033 7.39039C7.24701 7.39064 7.25805 7.42675 7.23661 7.44356L7.07086 7.57348L7.13304 7.78196C7.14111 7.80893 7.11212 7.8313 7.09041 7.81481L6.92279 7.68765L6.75518 7.81481C6.73346 7.83127 6.70454 7.80893 6.71255 7.78196L6.77472 7.57348L6.60898 7.44356C6.58753 7.42678 6.59857 7.39064 6.62525 7.39039L6.8313 7.38873L6.89647 7.18128C6.90485 7.15442 6.94067 7.15442 6.94911 7.18128Z" fill="#F5F5F5"/>
<path d="M6.94911 8.26646L7.01429 8.47391L7.22033 8.47557C7.24701 8.47582 7.25805 8.51189 7.23661 8.52874L7.07086 8.65866L7.13304 8.86713C7.14111 8.89411 7.11212 8.91648 7.09041 8.89998L6.92279 8.77283L6.75518 8.89998C6.73346 8.91645 6.70454 8.89411 6.71255 8.86713L6.77472 8.65866L6.60898 8.52874C6.58753 8.51189 6.59857 8.47582 6.62525 8.47557L6.8313 8.47391L6.89647 8.26646C6.90485 8.23963 6.94067 8.23963 6.94911 8.26646Z" fill="#F5F5F5"/>
<path d="M7.74208 4.45784L7.80726 4.66528L8.0133 4.66695C8.03998 4.6672 8.05102 4.7033 8.02958 4.72012L7.86383 4.85004L7.926 5.05851C7.93408 5.08548 7.90509 5.10786 7.88338 5.09136L7.71576 4.9642L7.54815 5.09136C7.52643 5.10782 7.49751 5.08548 7.50552 5.05851L7.56769 4.85004L7.40194 4.72012C7.3805 4.70327 7.39154 4.6672 7.41822 4.66695L7.62426 4.66528L7.68944 4.45784C7.69785 4.43101 7.73364 4.43101 7.74208 4.45784Z" fill="#F5F5F5"/>
<path d="M7.74208 5.54301L7.80726 5.75045L8.0133 5.75212C8.03998 5.75237 8.05102 5.78847 8.02958 5.80529L7.86383 5.93521L7.926 6.14368C7.93408 6.17066 7.90509 6.19303 7.88338 6.17653L7.71576 6.04937L7.54815 6.17653C7.52643 6.19299 7.49751 6.17069 7.50552 6.14368L7.56769 5.93521L7.40194 5.80529C7.3805 5.78851 7.39154 5.75237 7.41822 5.75212L7.62426 5.75045L7.68944 5.54301C7.69785 5.51614 7.73364 5.51614 7.74208 5.54301Z" fill="#F5F5F5"/>
<path d="M7.74208 6.62815L7.80726 6.8356L8.0133 6.83726C8.03998 6.83751 8.05102 6.87358 8.02958 6.89043L7.86383 7.02035L7.926 7.22882C7.93408 7.2558 7.90509 7.27817 7.88338 7.26168L7.71576 7.13452L7.54815 7.26168C7.52643 7.27814 7.49751 7.2558 7.50552 7.22882L7.56769 7.02035L7.40194 6.89043C7.3805 6.87358 7.39154 6.83751 7.41822 6.83726L7.62426 6.8356L7.68944 6.62815C7.69785 6.60128 7.73364 6.60128 7.74208 6.62815Z" fill="#F5F5F5"/>
<path d="M7.74208 7.71336L7.80726 7.92081L8.0133 7.92247C8.03998 7.92272 8.05102 7.95879 8.02958 7.97564L7.86383 8.10556L7.926 8.31403C7.93408 8.34101 7.90509 8.36338 7.88338 8.34688L7.71576 8.21973L7.54815 8.34688C7.52643 8.36338 7.49751 8.34101 7.50552 8.31403L7.56769 8.10556L7.40194 7.97564C7.3805 7.95879 7.39154 7.92272 7.41822 7.92247L7.62426 7.92081L7.68944 7.71336C7.69785 7.68653 7.73364 7.68653 7.74208 7.71336Z" fill="#F5F5F5"/>
<path d="M8.53602 3.92579L8.6012 4.13324L8.80724 4.1349C8.83393 4.13515 8.84497 4.17126 8.82352 4.18807L8.65777 4.31795L8.71995 4.52643C8.72802 4.5534 8.69904 4.57577 8.67732 4.55928L8.50971 4.43212L8.34209 4.55928C8.32038 4.57577 8.29146 4.5534 8.29946 4.52643L8.36164 4.31795L8.19589 4.18807C8.17444 4.17122 8.18548 4.13511 8.21217 4.1349L8.41821 4.13324L8.48339 3.92579C8.49179 3.89892 8.52755 3.89892 8.53602 3.92579Z" fill="#F5F5F5"/>
<path d="M8.53602 5.01097L8.6012 5.21841L8.80724 5.22008C8.83393 5.22033 8.84497 5.2564 8.82352 5.27325L8.65777 5.40317L8.71995 5.61164C8.72802 5.63862 8.69904 5.66099 8.67732 5.64449L8.50971 5.51733L8.34209 5.64449C8.32038 5.66095 8.29146 5.63862 8.29946 5.61164L8.36164 5.40317L8.19589 5.27325C8.17444 5.2564 8.18548 5.22033 8.21217 5.22008L8.41821 5.21841L8.48339 5.01097C8.49179 4.98414 8.52755 4.98414 8.53602 5.01097Z" fill="#F5F5F5"/>
<path d="M8.53602 6.09614L8.6012 6.30359L8.80724 6.30525C8.83393 6.3055 8.84497 6.34157 8.82352 6.35842L8.65777 6.48834L8.71995 6.69681C8.72802 6.72379 8.69904 6.74616 8.67732 6.72966L8.50971 6.60251L8.34209 6.72966C8.32038 6.74612 8.29146 6.72382 8.29946 6.69681L8.36164 6.48834L8.19589 6.35842C8.17444 6.34157 8.18548 6.3055 8.21217 6.30525L8.41821 6.30359L8.48339 6.09614C8.49179 6.06927 8.52755 6.06927 8.53602 6.09614Z" fill="#F5F5F5"/>
<path d="M8.53602 7.18128L8.6012 7.38873L8.80724 7.39039C8.83393 7.39064 8.84497 7.42675 8.82352 7.44356L8.65777 7.57348L8.71995 7.78196C8.72802 7.80893 8.69904 7.8313 8.67732 7.81481L8.50971 7.68765L8.34209 7.81481C8.32038 7.83127 8.29146 7.80893 8.29946 7.78196L8.36164 7.57348L8.19589 7.44356C8.17444 7.42678 8.18548 7.39064 8.21217 7.39039L8.41821 7.38873L8.48339 7.18128C8.49179 7.15442 8.52755 7.15442 8.53602 7.18128Z" fill="#F5F5F5"/>
<path d="M8.53602 8.26646L8.6012 8.47391L8.80724 8.47557C8.83393 8.47582 8.84497 8.51189 8.82352 8.52874L8.65777 8.65866L8.71995 8.86713C8.72802 8.89411 8.69904 8.91648 8.67732 8.89998L8.50971 8.77283L8.34209 8.89998C8.32038 8.91645 8.29146 8.89411 8.29946 8.86713L8.36164 8.65866L8.19589 8.52874C8.17444 8.51189 8.18548 8.47582 8.21217 8.47557L8.41821 8.47391L8.48339 8.26646C8.49179 8.23963 8.52755 8.23963 8.53602 8.26646Z" fill="#F5F5F5"/>
</g>
<defs>
<clipPath id="clip0_3898_37376">
<rect width="18" height="14" fill="white" transform="translate(1.33301 3)"/>
</clipPath>
</defs>
</svg>
