<svg width="24" height="24" viewBox="0 0 24 24" fill="none" xmlns="http://www.w3.org/2000/svg">
    <path d="M13.034 12.9898C13.5824 12.9898 14.0269 12.5453 14.0269 11.9969C14.0269 11.4485 13.5824 11.0039 13.034 11.0039C12.4856 11.0039 12.041 11.4485 12.041 11.9969C12.041 12.5453 12.4856 12.9898 13.034 12.9898Z"
          fill="currentColor"/>
    <path d="M4.6625 6.59033C6.43488 3.84634 9.52587 2.03125 13.0333 2.03125C18.5373 2.03125 23.0002 6.49424 23.0002 11.9982C23.0002 17.5022 18.5373 21.9652 13.0333 21.9652C9.50986 21.9652 6.41887 20.1394 4.64648 17.3794"
          stroke="currentColor" stroke-width="1.5" stroke-linecap="round"/>
    <path d="M7.95703 8.27628C9.09947 6.71744 10.9466 5.70312 13.0339 5.70312C16.5093 5.70312 19.3227 8.52185 19.3227 11.9919C19.3227 15.4619 16.504 18.2806 13.0339 18.2806C10.9519 18.2806 9.10481 17.2663 7.95703 15.7075"
          stroke="currentColor" stroke-width="1.5" stroke-linecap="round"/>
    <path d="M13.0347 12H8.32617" stroke="currentColor" stroke-width="1.5" stroke-linecap="round" stroke-linejoin="round"/>
    <path d="M3.25297 11.9969L1.10689 14.5059C0.877335 14.7729 1.04283 15.232 1.36314 15.232H5.5592L8.32454 11.9969L5.5592 8.76172H1.36314C1.04283 8.76172 0.877335 9.22083 1.10689 9.48776L3.25297 11.9969Z"
          stroke="currentColor" stroke-width="1.5" stroke-linecap="round" stroke-linejoin="round"/>
</svg>
