<svg width="24" height="24" viewBox="0 0 24 24" fill="none" xmlns="http://www.w3.org/2000/svg">
<path d="M1 7C1 6.44772 1.44772 6 2 6H22C22.5523 6 23 6.44772 23 7V19C23 20.1046 22.1046 21 21 21H3C1.89543 21 1 20.1046 1 19V7Z" stroke="#3E4FE5" stroke-width="1.5"/>
<path d="M19 11.5938L23 11.5938" stroke="#3E4FE5" stroke-width="1.5"/>
<path d="M1 11.5938L5 11.5938" stroke="#3E4FE5" stroke-width="1.5"/>
<path d="M8.3125 11.5938L15.6875 11.5938" stroke="#3E4FE5" stroke-width="1.5"/>
<path d="M5 9.58026C5 9.55319 5.02194 9.53125 5.04901 9.53125H8.26349C8.29056 9.53125 8.3125 9.55319 8.3125 9.58026V12.8255C8.3125 13.7402 7.57097 14.4817 6.65625 14.4817V14.4817C5.74153 14.4817 5 13.7402 5 12.8255V9.58026Z" stroke="#3E4FE5" stroke-width="1.5"/>
<path d="M15.6875 9.58026C15.6875 9.55319 15.7094 9.53125 15.7365 9.53125H18.951C18.9781 9.53125 19 9.55319 19 9.58026V12.8255C19 13.7402 18.2585 14.4817 17.3438 14.4817V14.4817C16.429 14.4817 15.6875 13.7402 15.6875 12.8255V9.58026Z" stroke="#3E4FE5" stroke-width="1.5"/>
<path d="M17.625 6V5C17.625 3.89543 16.7296 3 15.625 3H8.375C7.27043 3 6.375 3.89543 6.375 5V6" stroke="#3E4FE5" stroke-width="1.5"/>
</svg>
