<svg width="25" height="25" viewBox="0 0 25 25" fill="none" xmlns="http://www.w3.org/2000/svg" id="internationalRemittance">
<path d="M24.1152 14.8498C24.182 14.441 23.9048 14.0554 23.496 13.9886C23.0873 13.9217 22.7017 14.1989 22.6348 14.6077L24.1152 14.8498ZM12.8404 2.48503C13.2525 2.52624 13.6201 2.22554 13.6613 1.81338C13.7025 1.40122 13.4018 1.03369 12.9896 0.992472L12.8404 2.48503ZM17.1928 15.2057C17.2243 14.7927 16.915 14.4324 16.502 14.4009C16.0889 14.3695 15.7286 14.6788 15.6972 15.0918L17.1928 15.2057ZM12.395 2.46875C12.8092 2.46875 13.145 2.13296 13.145 1.71875C13.145 1.30454 12.8092 0.96875 12.395 0.96875V2.46875ZM13.185 13.6687C13.5992 13.6687 13.935 13.3329 13.935 12.9187C13.935 12.5045 13.5992 12.1687 13.185 12.1687L13.185 13.6687ZM18.7045 11.7587C18.7045 12.173 19.0403 12.5087 19.4545 12.5087C19.8687 12.5087 20.2045 12.173 20.2045 11.7587H18.7045ZM20.2045 10.2188C20.2045 9.80454 19.8687 9.46875 19.4545 9.46875C19.0403 9.46875 18.7045 9.80454 18.7045 10.2188H20.2045ZM20.2045 1.71875C20.2045 1.30454 19.8687 0.96875 19.4545 0.96875C19.0403 0.96875 18.7045 1.30454 18.7045 1.71875H20.2045ZM18.7045 3.25875C18.7045 3.67296 19.0403 4.00875 19.4545 4.00875C19.8687 4.00875 20.2045 3.67296 20.2045 3.25875H18.7045ZM22.6348 14.6077C21.823 19.572 17.5105 23.3687 12.325 23.3687V24.8687C18.2595 24.8687 23.187 20.5255 24.1152 14.8498L22.6348 14.6077ZM12.325 23.3687C6.54921 23.3687 1.875 18.6945 1.875 12.9187H0.375C0.375 19.523 5.72079 24.8687 12.325 24.8687V23.3687ZM1.875 12.9187C1.875 7.14296 6.54921 2.46875 12.325 2.46875V0.96875C5.72079 0.96875 0.375 6.31454 0.375 12.9187H1.875ZM12.325 2.46875C12.5302 2.46875 12.6834 2.46933 12.8404 2.48503L12.9896 0.992472C12.7466 0.968166 12.5198 0.96875 12.325 0.96875V2.46875ZM15.6972 15.0918C15.5065 17.5947 15 19.7451 14.3206 21.2442C13.9803 21.9951 13.6126 22.5469 13.2505 22.9007C12.8918 23.2511 12.5816 23.3687 12.325 23.3687V24.8687C13.0884 24.8687 13.7545 24.5052 14.2986 23.9737C14.8393 23.4456 15.3009 22.7149 15.6869 21.8633C16.46 20.1574 16.9935 17.8228 17.1928 15.2057L15.6972 15.0918ZM12.325 23.3687C12.0362 23.3687 11.6716 23.2156 11.251 22.7415C10.8312 22.2682 10.4188 21.5405 10.0572 20.5766C9.33625 18.6544 8.875 15.9477 8.875 12.9187H7.375C7.375 16.0798 7.85375 18.9731 8.65277 21.1034C9.05124 22.1658 9.54385 23.0774 10.129 23.737C10.7134 24.3957 11.4538 24.8687 12.325 24.8687V23.3687ZM8.875 12.9187C8.875 9.8898 9.33625 7.18312 10.0572 5.26089C10.4188 4.29702 10.8312 3.5693 11.251 3.09602C11.6716 2.62193 12.0362 2.46875 12.325 2.46875V0.96875C11.4538 0.96875 10.7134 1.44182 10.129 2.10055C9.54385 2.76008 9.05124 3.67173 8.65277 4.73411C7.85375 6.86438 7.375 9.7577 7.375 12.9187H8.875ZM12.325 2.46875C12.325 2.46875 12.3251 2.46875 12.3251 2.46875C12.3252 2.46875 12.3252 2.46875 12.3252 2.46875C12.3253 2.46875 12.3253 2.46875 12.3254 2.46875C12.3254 2.46875 12.3254 2.46875 12.3255 2.46875C12.3255 2.46875 12.3255 2.46875 12.3256 2.46875C12.3256 2.46875 12.3257 2.46875 12.3257 2.46875C12.3257 2.46875 12.3258 2.46875 12.3258 2.46875C12.3259 2.46875 12.3259 2.46875 12.3259 2.46875C12.326 2.46875 12.326 2.46875 12.3261 2.46875C12.3261 2.46875 12.3261 2.46875 12.3262 2.46875C12.3262 2.46875 12.3263 2.46875 12.3263 2.46875C12.3263 2.46875 12.3264 2.46875 12.3264 2.46875C12.3264 2.46875 12.3265 2.46875 12.3265 2.46875C12.3266 2.46875 12.3266 2.46875 12.3266 2.46875C12.3267 2.46875 12.3267 2.46875 12.3268 2.46875C12.3268 2.46875 12.3268 2.46875 12.3269 2.46875C12.3269 2.46875 12.327 2.46875 12.327 2.46875C12.327 2.46875 12.3271 2.46875 12.3271 2.46875C12.3271 2.46875 12.3272 2.46875 12.3272 2.46875C12.3273 2.46875 12.3273 2.46875 12.3273 2.46875C12.3274 2.46875 12.3274 2.46875 12.3275 2.46875C12.3275 2.46875 12.3275 2.46875 12.3276 2.46875C12.3276 2.46875 12.3277 2.46875 12.3277 2.46875C12.3277 2.46875 12.3278 2.46875 12.3278 2.46875C12.3279 2.46875 12.3279 2.46875 12.3279 2.46875C12.328 2.46875 12.328 2.46875 12.328 2.46875C12.3281 2.46875 12.3281 2.46875 12.3282 2.46875C12.3282 2.46875 12.3282 2.46875 12.3283 2.46875C12.3283 2.46875 12.3284 2.46875 12.3284 2.46875C12.3284 2.46875 12.3285 2.46875 12.3285 2.46875C12.3286 2.46875 12.3286 2.46875 12.3286 2.46875C12.3287 2.46875 12.3287 2.46875 12.3288 2.46875C12.3288 2.46875 12.3288 2.46875 12.3289 2.46875C12.3289 2.46875 12.3289 2.46875 12.329 2.46875C12.329 2.46875 12.3291 2.46875 12.3291 2.46875C12.3291 2.46875 12.3292 2.46875 12.3292 2.46875C12.3293 2.46875 12.3293 2.46875 12.3293 2.46875C12.3294 2.46875 12.3294 2.46875 12.3295 2.46875C12.3295 2.46875 12.3295 2.46875 12.3296 2.46875C12.3296 2.46875 12.3297 2.46875 12.3297 2.46875C12.3297 2.46875 12.3298 2.46875 12.3298 2.46875C12.3298 2.46875 12.3299 2.46875 12.3299 2.46875C12.33 2.46875 12.33 2.46875 12.33 2.46875C12.3301 2.46875 12.3301 2.46875 12.3302 2.46875C12.3302 2.46875 12.3302 2.46875 12.3303 2.46875C12.3303 2.46875 12.3304 2.46875 12.3304 2.46875C12.3304 2.46875 12.3305 2.46875 12.3305 2.46875C12.3306 2.46875 12.3306 2.46875 12.3306 2.46875C12.3307 2.46875 12.3307 2.46875 12.3308 2.46875C12.3308 2.46875 12.3308 2.46875 12.3309 2.46875C12.3309 2.46875 12.3309 2.46875 12.331 2.46875C12.331 2.46875 12.3311 2.46875 12.3311 2.46875C12.3311 2.46875 12.3312 2.46875 12.3312 2.46875C12.3313 2.46875 12.3313 2.46875 12.3313 2.46875C12.3314 2.46875 12.3314 2.46875 12.3315 2.46875C12.3315 2.46875 12.3315 2.46875 12.3316 2.46875C12.3316 2.46875 12.3317 2.46875 12.3317 2.46875C12.3317 2.46875 12.3318 2.46875 12.3318 2.46875C12.3319 2.46875 12.3319 2.46875 12.3319 2.46875C12.332 2.46875 12.332 2.46875 12.332 2.46875C12.3321 2.46875 12.3321 2.46875 12.3322 2.46875C12.3322 2.46875 12.3322 2.46875 12.3323 2.46875C12.3323 2.46875 12.3324 2.46875 12.3324 2.46875C12.3324 2.46875 12.3325 2.46875 12.3325 2.46875C12.3326 2.46875 12.3326 2.46875 12.3326 2.46875C12.3327 2.46875 12.3327 2.46875 12.3328 2.46875C12.3328 2.46875 12.3328 2.46875 12.3329 2.46875C12.3329 2.46875 12.333 2.46875 12.333 2.46875C12.333 2.46875 12.3331 2.46875 12.3331 2.46875C12.3331 2.46875 12.3332 2.46875 12.3332 2.46875C12.3333 2.46875 12.3333 2.46875 12.3333 2.46875C12.3334 2.46875 12.3334 2.46875 12.3335 2.46875C12.3335 2.46875 12.3335 2.46875 12.3336 2.46875C12.3336 2.46875 12.3337 2.46875 12.3337 2.46875C12.3337 2.46875 12.3338 2.46875 12.3338 2.46875C12.3339 2.46875 12.3339 2.46875 12.3339 2.46875C12.334 2.46875 12.334 2.46875 12.3341 2.46875C12.3341 2.46875 12.3341 2.46875 12.3342 2.46875C12.3342 2.46875 12.3343 2.46875 12.3343 2.46875C12.3343 2.46875 12.3344 2.46875 12.3344 2.46875C12.3345 2.46875 12.3345 2.46875 12.3345 2.46875C12.3346 2.46875 12.3346 2.46875 12.3347 2.46875C12.3347 2.46875 12.3347 2.46875 12.3348 2.46875C12.3348 2.46875 12.3348 2.46875 12.3349 2.46875C12.3349 2.46875 12.335 2.46875 12.335 2.46875C12.335 2.46875 12.3351 2.46875 12.3351 2.46875C12.3352 2.46875 12.3352 2.46875 12.3352 2.46875C12.3353 2.46875 12.3353 2.46875 12.3354 2.46875C12.3354 2.46875 12.3354 2.46875 12.3355 2.46875C12.3355 2.46875 12.3356 2.46875 12.3356 2.46875C12.3356 2.46875 12.3357 2.46875 12.3357 2.46875C12.3358 2.46875 12.3358 2.46875 12.3358 2.46875C12.3359 2.46875 12.3359 2.46875 12.336 2.46875C12.336 2.46875 12.336 2.46875 12.3361 2.46875C12.3361 2.46875 12.3362 2.46875 12.3362 2.46875C12.3362 2.46875 12.3363 2.46875 12.3363 2.46875C12.3364 2.46875 12.3364 2.46875 12.3364 2.46875C12.3365 2.46875 12.3365 2.46875 12.3366 2.46875C12.3366 2.46875 12.3366 2.46875 12.3367 2.46875C12.3367 2.46875 12.3368 2.46875 12.3368 2.46875C12.3368 2.46875 12.3369 2.46875 12.3369 2.46875C12.337 2.46875 12.337 2.46875 12.337 2.46875C12.3371 2.46875 12.3371 2.46875 12.3372 2.46875C12.3372 2.46875 12.3372 2.46875 12.3373 2.46875C12.3373 2.46875 12.3374 2.46875 12.3374 2.46875C12.3374 2.46875 12.3375 2.46875 12.3375 2.46875C12.3376 2.46875 12.3376 2.46875 12.3376 2.46875C12.3377 2.46875 12.3377 2.46875 12.3378 2.46875C12.3378 2.46875 12.3378 2.46875 12.3379 2.46875C12.3379 2.46875 12.3379 2.46875 12.338 2.46875C12.338 2.46875 12.3381 2.46875 12.3381 2.46875C12.3382 2.46875 12.3382 2.46875 12.3382 2.46875C12.3383 2.46875 12.3383 2.46875 12.3383 2.46875C12.3384 2.46875 12.3384 2.46875 12.3385 2.46875C12.3385 2.46875 12.3385 2.46875 12.3386 2.46875C12.3386 2.46875 12.3387 2.46875 12.3387 2.46875C12.3387 2.46875 12.3388 2.46875 12.3388 2.46875C12.3389 2.46875 12.3389 2.46875 12.339 2.46875C12.339 2.46875 12.339 2.46875 12.3391 2.46875C12.3391 2.46875 12.3392 2.46875 12.3392 2.46875C12.3392 2.46875 12.3393 2.46875 12.3393 2.46875C12.3394 2.46875 12.3394 2.46875 12.3394 2.46875C12.3395 2.46875 12.3395 2.46875 12.3396 2.46875C12.3396 2.46875 12.3396 2.46875 12.3397 2.46875C12.3397 2.46875 12.3398 2.46875 12.3398 2.46875C12.3398 2.46875 12.3399 2.46875 12.3399 2.46875C12.34 2.46875 12.34 2.46875 12.34 2.46875C12.3401 2.46875 12.3401 2.46875 12.3402 2.46875C12.3402 2.46875 12.3402 2.46875 12.3403 2.46875C12.3403 2.46875 12.3404 2.46875 12.3404 2.46875C12.3404 2.46875 12.3405 2.46875 12.3405 2.46875C12.3406 2.46875 12.3406 2.46875 12.3406 2.46875C12.3407 2.46875 12.3407 2.46875 12.3408 2.46875C12.3408 2.46875 12.3408 2.46875 12.3409 2.46875C12.3409 2.46875 12.341 2.46875 12.341 2.46875C12.341 2.46875 12.3411 2.46875 12.3411 2.46875C12.3412 2.46875 12.3412 2.46875 12.3412 2.46875C12.3413 2.46875 12.3413 2.46875 12.3414 2.46875C12.3414 2.46875 12.3414 2.46875 12.3415 2.46875C12.3415 2.46875 12.3416 2.46875 12.3416 2.46875C12.3417 2.46875 12.3417 2.46875 12.3417 2.46875C12.3418 2.46875 12.3418 2.46875 12.3419 2.46875C12.3419 2.46875 12.3419 2.46875 12.342 2.46875C12.342 2.46875 12.3421 2.46875 12.3421 2.46875C12.3421 2.46875 12.3422 2.46875 12.3422 2.46875C12.3423 2.46875 12.3423 2.46875 12.3423 2.46875C12.3424 2.46875 12.3424 2.46875 12.3425 2.46875C12.3425 2.46875 12.3425 2.46875 12.3426 2.46875C12.3426 2.46875 12.3427 2.46875 12.3427 2.46875C12.3427 2.46875 12.3428 2.46875 12.3428 2.46875C12.3429 2.46875 12.3429 2.46875 12.343 2.46875C12.343 2.46875 12.343 2.46875 12.3431 2.46875C12.3431 2.46875 12.3432 2.46875 12.3432 2.46875C12.3432 2.46875 12.3433 2.46875 12.3433 2.46875C12.3434 2.46875 12.3434 2.46875 12.3434 2.46875C12.3435 2.46875 12.3435 2.46875 12.3436 2.46875C12.3436 2.46875 12.3436 2.46875 12.3437 2.46875C12.3437 2.46875 12.3438 2.46875 12.3438 2.46875C12.3439 2.46875 12.3439 2.46875 12.3439 2.46875C12.344 2.46875 12.344 2.46875 12.3441 2.46875C12.3441 2.46875 12.3441 2.46875 12.3442 2.46875C12.3442 2.46875 12.3443 2.46875 12.3443 2.46875C12.3443 2.46875 12.3444 2.46875 12.3444 2.46875C12.3445 2.46875 12.3445 2.46875 12.3445 2.46875C12.3446 2.46875 12.3446 2.46875 12.3447 2.46875C12.3447 2.46875 12.3448 2.46875 12.3448 2.46875C12.3448 2.46875 12.3449 2.46875 12.3449 2.46875C12.345 2.46875 12.345 2.46875 12.345 2.46875C12.3451 2.46875 12.3451 2.46875 12.3452 2.46875C12.3452 2.46875 12.3452 2.46875 12.3453 2.46875C12.3453 2.46875 12.3454 2.46875 12.3454 2.46875C12.3455 2.46875 12.3455 2.46875 12.3455 2.46875C12.3456 2.46875 12.3456 2.46875 12.3457 2.46875C12.3457 2.46875 12.3457 2.46875 12.3458 2.46875C12.3458 2.46875 12.3459 2.46875 12.3459 2.46875C12.3459 2.46875 12.346 2.46875 12.346 2.46875C12.3461 2.46875 12.3461 2.46875 12.3462 2.46875C12.3462 2.46875 12.3462 2.46875 12.3463 2.46875C12.3463 2.46875 12.3464 2.46875 12.3464 2.46875C12.3464 2.46875 12.3465 2.46875 12.3465 2.46875C12.3466 2.46875 12.3466 2.46875 12.3467 2.46875C12.3467 2.46875 12.3467 2.46875 12.3468 2.46875C12.3468 2.46875 12.3469 2.46875 12.3469 2.46875C12.3469 2.46875 12.347 2.46875 12.347 2.46875C12.3471 2.46875 12.3471 2.46875 12.3472 2.46875C12.3472 2.46875 12.3472 2.46875 12.3473 2.46875C12.3473 2.46875 12.3474 2.46875 12.3474 2.46875C12.3474 2.46875 12.3475 2.46875 12.3475 2.46875C12.3476 2.46875 12.3476 2.46875 12.3477 2.46875C12.3477 2.46875 12.3477 2.46875 12.3478 2.46875C12.3478 2.46875 12.3479 2.46875 12.3479 2.46875C12.3479 2.46875 12.348 2.46875 12.348 2.46875C12.3481 2.46875 12.3481 2.46875 12.3482 2.46875C12.3482 2.46875 12.3482 2.46875 12.3483 2.46875C12.3483 2.46875 12.3484 2.46875 12.3484 2.46875C12.3484 2.46875 12.3485 2.46875 12.3485 2.46875C12.3486 2.46875 12.3486 2.46875 12.3487 2.46875C12.3487 2.46875 12.3487 2.46875 12.3488 2.46875C12.3488 2.46875 12.3489 2.46875 12.3489 2.46875C12.3489 2.46875 12.349 2.46875 12.349 2.46875C12.3491 2.46875 12.3491 2.46875 12.3492 2.46875C12.3492 2.46875 12.3492 2.46875 12.3493 2.46875C12.3493 2.46875 12.3494 2.46875 12.3494 2.46875C12.3495 2.46875 12.3495 2.46875 12.3495 2.46875C12.3496 2.46875 12.3496 2.46875 12.3497 2.46875C12.3497 2.46875 12.3497 2.46875 12.3498 2.46875C12.3498 2.46875 12.3499 2.46875 12.3499 2.46875C12.35 2.46875 12.35 2.46875 12.35 2.46875C12.3501 2.46875 12.3501 2.46875 12.3502 2.46875C12.3502 2.46875 12.3503 2.46875 12.3503 2.46875C12.3503 2.46875 12.3504 2.46875 12.3504 2.46875C12.3505 2.46875 12.3505 2.46875 12.3506 2.46875C12.3506 2.46875 12.3506 2.46875 12.3507 2.46875C12.3507 2.46875 12.3508 2.46875 12.3508 2.46875C12.3509 2.46875 12.3509 2.46875 12.3509 2.46875C12.351 2.46875 12.351 2.46875 12.3511 2.46875C12.3511 2.46875 12.3511 2.46875 12.3512 2.46875C12.3512 2.46875 12.3513 2.46875 12.3513 2.46875C12.3514 2.46875 12.3514 2.46875 12.3514 2.46875C12.3515 2.46875 12.3515 2.46875 12.3516 2.46875C12.3516 2.46875 12.3517 2.46875 12.3517 2.46875C12.3517 2.46875 12.3518 2.46875 12.3518 2.46875C12.3519 2.46875 12.3519 2.46875 12.352 2.46875C12.352 2.46875 12.352 2.46875 12.3521 2.46875C12.3521 2.46875 12.3522 2.46875 12.3522 2.46875C12.3523 2.46875 12.3523 2.46875 12.3523 2.46875C12.3524 2.46875 12.3524 2.46875 12.3525 2.46875C12.3525 2.46875 12.3526 2.46875 12.3526 2.46875C12.3526 2.46875 12.3527 2.46875 12.3527 2.46875C12.3528 2.46875 12.3528 2.46875 12.3529 2.46875C12.3529 2.46875 12.3529 2.46875 12.353 2.46875C12.353 2.46875 12.3531 2.46875 12.3531 2.46875C12.3532 2.46875 12.3532 2.46875 12.3532 2.46875C12.3533 2.46875 12.3533 2.46875 12.3534 2.46875C12.3534 2.46875 12.3535 2.46875 12.3535 2.46875C12.3535 2.46875 12.3536 2.46875 12.3536 2.46875C12.3537 2.46875 12.3537 2.46875 12.3538 2.46875C12.3538 2.46875 12.3539 2.46875 12.3539 2.46875C12.3539 2.46875 12.354 2.46875 12.354 2.46875C12.3541 2.46875 12.3541 2.46875 12.3542 2.46875C12.3542 2.46875 12.3542 2.46875 12.3543 2.46875C12.3543 2.46875 12.3544 2.46875 12.3544 2.46875C12.3545 2.46875 12.3545 2.46875 12.3545 2.46875C12.3546 2.46875 12.3546 2.46875 12.3547 2.46875C12.3547 2.46875 12.3548 2.46875 12.3548 2.46875C12.3548 2.46875 12.3549 2.46875 12.3549 2.46875C12.355 2.46875 12.355 2.46875 12.3551 2.46875C12.3551 2.46875 12.3552 2.46875 12.3552 2.46875C12.3552 2.46875 12.3553 2.46875 12.3553 2.46875C12.3554 2.46875 12.3554 2.46875 12.3555 2.46875C12.3555 2.46875 12.3555 2.46875 12.3556 2.46875C12.3556 2.46875 12.3557 2.46875 12.3557 2.46875C12.3558 2.46875 12.3558 2.46875 12.3559 2.46875C12.3559 2.46875 12.3559 2.46875 12.356 2.46875C12.356 2.46875 12.3561 2.46875 12.3561 2.46875C12.3562 2.46875 12.3562 2.46875 12.3562 2.46875C12.3563 2.46875 12.3563 2.46875 12.3564 2.46875C12.3564 2.46875 12.3565 2.46875 12.3565 2.46875C12.3566 2.46875 12.3566 2.46875 12.3566 2.46875C12.3567 2.46875 12.3567 2.46875 12.3568 2.46875C12.3568 2.46875 12.3569 2.46875 12.3569 2.46875C12.357 2.46875 12.357 2.46875 12.357 2.46875C12.3571 2.46875 12.3571 2.46875 12.3572 2.46875C12.3572 2.46875 12.3573 2.46875 12.3573 2.46875C12.3574 2.46875 12.3574 2.46875 12.3574 2.46875C12.3575 2.46875 12.3575 2.46875 12.3576 2.46875C12.3576 2.46875 12.3577 2.46875 12.3577 2.46875C12.3578 2.46875 12.3578 2.46875 12.3578 2.46875C12.3579 2.46875 12.3579 2.46875 12.358 2.46875C12.358 2.46875 12.3581 2.46875 12.3581 2.46875C12.3582 2.46875 12.3582 2.46875 12.3582 2.46875C12.3583 2.46875 12.3583 2.46875 12.3584 2.46875C12.3584 2.46875 12.3585 2.46875 12.3585 2.46875C12.3586 2.46875 12.3586 2.46875 12.3586 2.46875C12.3587 2.46875 12.3587 2.46875 12.3588 2.46875C12.3588 2.46875 12.3589 2.46875 12.3589 2.46875C12.359 2.46875 12.359 2.46875 12.359 2.46875C12.3591 2.46875 12.3591 2.46875 12.3592 2.46875C12.3592 2.46875 12.3593 2.46875 12.3593 2.46875C12.3594 2.46875 12.3594 2.46875 12.3594 2.46875C12.3595 2.46875 12.3595 2.46875 12.3596 2.46875C12.3596 2.46875 12.3597 2.46875 12.3597 2.46875C12.3598 2.46875 12.3598 2.46875 12.3599 2.46875C12.3599 2.46875 12.3599 2.46875 12.36 2.46875C12.36 2.46875 12.3601 2.46875 12.3601 2.46875C12.3602 2.46875 12.3602 2.46875 12.3603 2.46875C12.3603 2.46875 12.3603 2.46875 12.3604 2.46875C12.3604 2.46875 12.3605 2.46875 12.3605 2.46875C12.3606 2.46875 12.3606 2.46875 12.3607 2.46875C12.3607 2.46875 12.3608 2.46875 12.3608 2.46875C12.3608 2.46875 12.3609 2.46875 12.3609 2.46875C12.361 2.46875 12.361 2.46875 12.3611 2.46875C12.3611 2.46875 12.3612 2.46875 12.3612 2.46875C12.3613 2.46875 12.3613 2.46875 12.3613 2.46875C12.3614 2.46875 12.3614 2.46875 12.3615 2.46875C12.3615 2.46875 12.3616 2.46875 12.3616 2.46875C12.3617 2.46875 12.3617 2.46875 12.3618 2.46875C12.3618 2.46875 12.3618 2.46875 12.3619 2.46875C12.3619 2.46875 12.362 2.46875 12.362 2.46875C12.3621 2.46875 12.3621 2.46875 12.3622 2.46875C12.3622 2.46875 12.3623 2.46875 12.3623 2.46875C12.3624 2.46875 12.3624 2.46875 12.3624 2.46875C12.3625 2.46875 12.3625 2.46875 12.3626 2.46875C12.3626 2.46875 12.3627 2.46875 12.3627 2.46875C12.3628 2.46875 12.3628 2.46875 12.3629 2.46875C12.3629 2.46875 12.3629 2.46875 12.363 2.46875C12.363 2.46875 12.3631 2.46875 12.3631 2.46875C12.3632 2.46875 12.3632 2.46875 12.3633 2.46875C12.3633 2.46875 12.3634 2.46875 12.3634 2.46875C12.3635 2.46875 12.3635 2.46875 12.3635 2.46875C12.3636 2.46875 12.3636 2.46875 12.3637 2.46875C12.3637 2.46875 12.3638 2.46875 12.3638 2.46875C12.3639 2.46875 12.3639 2.46875 12.364 2.46875C12.364 2.46875 12.3641 2.46875 12.3641 2.46875C12.3642 2.46875 12.3642 2.46875 12.3642 2.46875C12.3643 2.46875 12.3643 2.46875 12.3644 2.46875C12.3644 2.46875 12.3645 2.46875 12.3645 2.46875C12.3646 2.46875 12.3646 2.46875 12.3647 2.46875C12.3647 2.46875 12.3648 2.46875 12.3648 2.46875C12.3648 2.46875 12.3649 2.46875 12.3649 2.46875C12.365 2.46875 12.365 2.46875 12.3651 2.46875C12.3651 2.46875 12.3652 2.46875 12.3652 2.46875C12.3653 2.46875 12.3653 2.46875 12.3654 2.46875C12.3654 2.46875 12.3655 2.46875 12.3655 2.46875C12.3656 2.46875 12.3656 2.46875 12.3656 2.46875C12.3657 2.46875 12.3657 2.46875 12.3658 2.46875C12.3658 2.46875 12.3659 2.46875 12.3659 2.46875C12.366 2.46875 12.366 2.46875 12.3661 2.46875C12.3661 2.46875 12.3662 2.46875 12.3662 2.46875C12.3663 2.46875 12.3663 2.46875 12.3663 2.46875C12.3664 2.46875 12.3664 2.46875 12.3665 2.46875C12.3665 2.46875 12.3666 2.46875 12.3666 2.46875C12.3667 2.46875 12.3667 2.46875 12.3668 2.46875C12.3668 2.46875 12.3669 2.46875 12.3669 2.46875C12.367 2.46875 12.367 2.46875 12.3671 2.46875C12.3671 2.46875 12.3672 2.46875 12.3672 2.46875C12.3672 2.46875 12.3673 2.46875 12.3673 2.46875C12.3674 2.46875 12.3674 2.46875 12.3675 2.46875C12.3675 2.46875 12.3676 2.46875 12.3676 2.46875C12.3677 2.46875 12.3677 2.46875 12.3678 2.46875C12.3678 2.46875 12.3679 2.46875 12.3679 2.46875C12.368 2.46875 12.368 2.46875 12.3681 2.46875C12.3681 2.46875 12.3682 2.46875 12.3682 2.46875C12.3682 2.46875 12.3683 2.46875 12.3683 2.46875C12.3684 2.46875 12.3684 2.46875 12.3685 2.46875C12.3685 2.46875 12.3686 2.46875 12.3686 2.46875C12.3687 2.46875 12.3687 2.46875 12.3688 2.46875C12.3688 2.46875 12.3689 2.46875 12.3689 2.46875C12.369 2.46875 12.369 2.46875 12.3691 2.46875C12.3691 2.46875 12.3692 2.46875 12.3692 2.46875C12.3693 2.46875 12.3693 2.46875 12.3694 2.46875C12.3694 2.46875 12.3695 2.46875 12.3695 2.46875C12.3695 2.46875 12.3696 2.46875 12.3696 2.46875C12.3697 2.46875 12.3697 2.46875 12.3698 2.46875C12.3698 2.46875 12.3699 2.46875 12.3699 2.46875C12.37 2.46875 12.37 2.46875 12.3701 2.46875C12.3701 2.46875 12.3702 2.46875 12.3702 2.46875C12.3703 2.46875 12.3703 2.46875 12.3704 2.46875C12.3704 2.46875 12.3705 2.46875 12.3705 2.46875C12.3706 2.46875 12.3706 2.46875 12.3707 2.46875C12.3707 2.46875 12.3708 2.46875 12.3708 2.46875C12.3709 2.46875 12.3709 2.46875 12.371 2.46875C12.371 2.46875 12.3711 2.46875 12.3711 2.46875C12.3712 2.46875 12.3712 2.46875 12.3713 2.46875C12.3713 2.46875 12.3713 2.46875 12.3714 2.46875C12.3714 2.46875 12.3715 2.46875 12.3715 2.46875C12.3716 2.46875 12.3716 2.46875 12.3717 2.46875C12.3717 2.46875 12.3718 2.46875 12.3718 2.46875C12.3719 2.46875 12.3719 2.46875 12.372 2.46875C12.372 2.46875 12.3721 2.46875 12.3721 2.46875C12.3722 2.46875 12.3722 2.46875 12.3723 2.46875C12.3723 2.46875 12.3724 2.46875 12.3724 2.46875C12.3725 2.46875 12.3725 2.46875 12.3726 2.46875C12.3726 2.46875 12.3727 2.46875 12.3727 2.46875C12.3728 2.46875 12.3728 2.46875 12.3729 2.46875C12.3729 2.46875 12.373 2.46875 12.373 2.46875C12.3731 2.46875 12.3731 2.46875 12.3732 2.46875C12.3732 2.46875 12.3733 2.46875 12.3733 2.46875C12.3734 2.46875 12.3734 2.46875 12.3735 2.46875C12.3735 2.46875 12.3736 2.46875 12.3736 2.46875C12.3737 2.46875 12.3737 2.46875 12.3738 2.46875C12.3738 2.46875 12.3739 2.46875 12.3739 2.46875C12.374 2.46875 12.374 2.46875 12.3741 2.46875C12.3741 2.46875 12.3742 2.46875 12.3742 2.46875C12.3743 2.46875 12.3743 2.46875 12.3744 2.46875C12.3744 2.46875 12.3745 2.46875 12.3745 2.46875C12.3746 2.46875 12.3746 2.46875 12.3747 2.46875C12.3747 2.46875 12.3748 2.46875 12.3748 2.46875C12.3749 2.46875 12.3749 2.46875 12.375 2.46875C12.375 2.46875 12.3751 2.46875 12.3751 2.46875C12.3752 2.46875 12.3752 2.46875 12.3753 2.46875C12.3753 2.46875 12.3754 2.46875 12.3754 2.46875C12.3755 2.46875 12.3755 2.46875 12.3756 2.46875C12.3756 2.46875 12.3757 2.46875 12.3757 2.46875C12.3758 2.46875 12.3758 2.46875 12.3759 2.46875C12.3759 2.46875 12.376 2.46875 12.376 2.46875C12.3761 2.46875 12.3761 2.46875 12.3762 2.46875C12.3762 2.46875 12.3763 2.46875 12.3763 2.46875C12.3764 2.46875 12.3764 2.46875 12.3765 2.46875C12.3765 2.46875 12.3766 2.46875 12.3766 2.46875C12.3767 2.46875 12.3767 2.46875 12.3768 2.46875C12.3768 2.46875 12.3769 2.46875 12.377 2.46875C12.377 2.46875 12.3771 2.46875 12.3771 2.46875C12.3772 2.46875 12.3772 2.46875 12.3773 2.46875C12.3773 2.46875 12.3774 2.46875 12.3774 2.46875C12.3775 2.46875 12.3775 2.46875 12.3776 2.46875C12.3776 2.46875 12.3777 2.46875 12.3777 2.46875C12.3778 2.46875 12.3778 2.46875 12.3779 2.46875C12.3779 2.46875 12.378 2.46875 12.378 2.46875C12.3781 2.46875 12.3781 2.46875 12.3782 2.46875C12.3782 2.46875 12.3783 2.46875 12.3783 2.46875C12.3784 2.46875 12.3784 2.46875 12.3785 2.46875C12.3785 2.46875 12.3786 2.46875 12.3786 2.46875C12.3787 2.46875 12.3788 2.46875 12.3788 2.46875C12.3789 2.46875 12.3789 2.46875 12.379 2.46875C12.379 2.46875 12.3791 2.46875 12.3791 2.46875C12.3792 2.46875 12.3792 2.46875 12.3793 2.46875C12.3793 2.46875 12.3794 2.46875 12.3794 2.46875C12.3795 2.46875 12.3795 2.46875 12.3796 2.46875C12.3796 2.46875 12.3797 2.46875 12.3797 2.46875C12.3798 2.46875 12.3798 2.46875 12.3799 2.46875C12.3799 2.46875 12.38 2.46875 12.3801 2.46875C12.3801 2.46875 12.3802 2.46875 12.3802 2.46875C12.3803 2.46875 12.3803 2.46875 12.3804 2.46875C12.3804 2.46875 12.3805 2.46875 12.3805 2.46875C12.3806 2.46875 12.3806 2.46875 12.3807 2.46875C12.3807 2.46875 12.3808 2.46875 12.3808 2.46875C12.3809 2.46875 12.3809 2.46875 12.381 2.46875C12.3811 2.46875 12.3811 2.46875 12.3812 2.46875C12.3812 2.46875 12.3813 2.46875 12.3813 2.46875C12.3814 2.46875 12.3814 2.46875 12.3815 2.46875C12.3815 2.46875 12.3816 2.46875 12.3816 2.46875C12.3817 2.46875 12.3817 2.46875 12.3818 2.46875C12.3818 2.46875 12.3819 2.46875 12.382 2.46875C12.382 2.46875 12.3821 2.46875 12.3821 2.46875C12.3822 2.46875 12.3822 2.46875 12.3823 2.46875C12.3823 2.46875 12.3824 2.46875 12.3824 2.46875C12.3825 2.46875 12.3825 2.46875 12.3826 2.46875C12.3826 2.46875 12.3827 2.46875 12.3827 2.46875C12.3828 2.46875 12.3829 2.46875 12.3829 2.46875C12.383 2.46875 12.383 2.46875 12.3831 2.46875C12.3831 2.46875 12.3832 2.46875 12.3832 2.46875C12.3833 2.46875 12.3833 2.46875 12.3834 2.46875C12.3834 2.46875 12.3835 2.46875 12.3836 2.46875C12.3836 2.46875 12.3837 2.46875 12.3837 2.46875C12.3838 2.46875 12.3838 2.46875 12.3839 2.46875C12.3839 2.46875 12.384 2.46875 12.384 2.46875C12.3841 2.46875 12.3841 2.46875 12.3842 2.46875C12.3843 2.46875 12.3843 2.46875 12.3844 2.46875C12.3844 2.46875 12.3845 2.46875 12.3845 2.46875C12.3846 2.46875 12.3846 2.46875 12.3847 2.46875C12.3847 2.46875 12.3848 2.46875 12.3848 2.46875C12.3849 2.46875 12.385 2.46875 12.385 2.46875C12.3851 2.46875 12.3851 2.46875 12.3852 2.46875C12.3852 2.46875 12.3853 2.46875 12.3853 2.46875C12.3854 2.46875 12.3854 2.46875 12.3855 2.46875C12.3856 2.46875 12.3856 2.46875 12.3857 2.46875C12.3857 2.46875 12.3858 2.46875 12.3858 2.46875C12.3859 2.46875 12.3859 2.46875 12.386 2.46875C12.386 2.46875 12.3861 2.46875 12.3862 2.46875C12.3862 2.46875 12.3863 2.46875 12.3863 2.46875C12.3864 2.46875 12.3864 2.46875 12.3865 2.46875C12.3865 2.46875 12.3866 2.46875 12.3867 2.46875C12.3867 2.46875 12.3868 2.46875 12.3868 2.46875C12.3869 2.46875 12.3869 2.46875 12.387 2.46875C12.387 2.46875 12.3871 2.46875 12.3871 2.46875C12.3872 2.46875 12.3873 2.46875 12.3873 2.46875C12.3874 2.46875 12.3874 2.46875 12.3875 2.46875C12.3875 2.46875 12.3876 2.46875 12.3876 2.46875C12.3877 2.46875 12.3878 2.46875 12.3878 2.46875C12.3879 2.46875 12.3879 2.46875 12.388 2.46875C12.388 2.46875 12.3881 2.46875 12.3881 2.46875C12.3882 2.46875 12.3883 2.46875 12.3883 2.46875C12.3884 2.46875 12.3884 2.46875 12.3885 2.46875C12.3885 2.46875 12.3886 2.46875 12.3886 2.46875C12.3887 2.46875 12.3888 2.46875 12.3888 2.46875C12.3889 2.46875 12.3889 2.46875 12.389 2.46875C12.389 2.46875 12.3891 2.46875 12.3892 2.46875C12.3892 2.46875 12.3893 2.46875 12.3893 2.46875C12.3894 2.46875 12.3894 2.46875 12.3895 2.46875C12.3895 2.46875 12.3896 2.46875 12.3897 2.46875C12.3897 2.46875 12.3898 2.46875 12.3898 2.46875C12.3899 2.46875 12.3899 2.46875 12.39 2.46875C12.3901 2.46875 12.3901 2.46875 12.3902 2.46875C12.3902 2.46875 12.3903 2.46875 12.3903 2.46875C12.3904 2.46875 12.3904 2.46875 12.3905 2.46875C12.3906 2.46875 12.3906 2.46875 12.3907 2.46875C12.3907 2.46875 12.3908 2.46875 12.3908 2.46875C12.3909 2.46875 12.391 2.46875 12.391 2.46875C12.3911 2.46875 12.3911 2.46875 12.3912 2.46875C12.3912 2.46875 12.3913 2.46875 12.3914 2.46875C12.3914 2.46875 12.3915 2.46875 12.3915 2.46875C12.3916 2.46875 12.3916 2.46875 12.3917 2.46875C12.3918 2.46875 12.3918 2.46875 12.3919 2.46875C12.3919 2.46875 12.392 2.46875 12.392 2.46875C12.3921 2.46875 12.3922 2.46875 12.3922 2.46875C12.3923 2.46875 12.3923 2.46875 12.3924 2.46875C12.3924 2.46875 12.3925 2.46875 12.3926 2.46875C12.3926 2.46875 12.3927 2.46875 12.3927 2.46875C12.3928 2.46875 12.3928 2.46875 12.3929 2.46875C12.393 2.46875 12.393 2.46875 12.3931 2.46875C12.3931 2.46875 12.3932 2.46875 12.3933 2.46875C12.3933 2.46875 12.3934 2.46875 12.3934 2.46875C12.3935 2.46875 12.3935 2.46875 12.3936 2.46875C12.3937 2.46875 12.3937 2.46875 12.3938 2.46875C12.3938 2.46875 12.3939 2.46875 12.3939 2.46875C12.394 2.46875 12.3941 2.46875 12.3941 2.46875C12.3942 2.46875 12.3942 2.46875 12.3943 2.46875C12.3944 2.46875 12.3944 2.46875 12.3945 2.46875C12.3945 2.46875 12.3946 2.46875 12.3946 2.46875C12.3947 2.46875 12.3948 2.46875 12.3948 2.46875C12.3949 2.46875 12.3949 2.46875 12.395 2.46875V0.96875C12.3949 0.96875 12.3949 0.96875 12.3948 0.96875C12.3948 0.96875 12.3947 0.96875 12.3946 0.96875C12.3946 0.96875 12.3945 0.96875 12.3945 0.96875C12.3944 0.96875 12.3944 0.96875 12.3943 0.96875C12.3942 0.96875 12.3942 0.96875 12.3941 0.96875C12.3941 0.96875 12.394 0.96875 12.3939 0.96875C12.3939 0.96875 12.3938 0.96875 12.3938 0.96875C12.3937 0.96875 12.3937 0.96875 12.3936 0.96875C12.3935 0.96875 12.3935 0.96875 12.3934 0.96875C12.3934 0.96875 12.3933 0.96875 12.3933 0.96875C12.3932 0.96875 12.3931 0.96875 12.3931 0.96875C12.393 0.96875 12.393 0.96875 12.3929 0.96875C12.3928 0.96875 12.3928 0.96875 12.3927 0.96875C12.3927 0.96875 12.3926 0.96875 12.3926 0.96875C12.3925 0.96875 12.3924 0.96875 12.3924 0.96875C12.3923 0.96875 12.3923 0.96875 12.3922 0.96875C12.3922 0.96875 12.3921 0.96875 12.392 0.96875C12.392 0.96875 12.3919 0.96875 12.3919 0.96875C12.3918 0.96875 12.3918 0.96875 12.3917 0.96875C12.3916 0.96875 12.3916 0.96875 12.3915 0.96875C12.3915 0.96875 12.3914 0.96875 12.3914 0.96875C12.3913 0.96875 12.3912 0.96875 12.3912 0.96875C12.3911 0.96875 12.3911 0.96875 12.391 0.96875C12.391 0.96875 12.3909 0.96875 12.3908 0.96875C12.3908 0.96875 12.3907 0.96875 12.3907 0.96875C12.3906 0.96875 12.3906 0.96875 12.3905 0.96875C12.3904 0.96875 12.3904 0.96875 12.3903 0.96875C12.3903 0.96875 12.3902 0.96875 12.3902 0.96875C12.3901 0.96875 12.3901 0.96875 12.39 0.96875C12.3899 0.96875 12.3899 0.96875 12.3898 0.96875C12.3898 0.96875 12.3897 0.96875 12.3897 0.96875C12.3896 0.96875 12.3895 0.96875 12.3895 0.96875C12.3894 0.96875 12.3894 0.96875 12.3893 0.96875C12.3893 0.96875 12.3892 0.96875 12.3892 0.96875C12.3891 0.96875 12.389 0.96875 12.389 0.96875C12.3889 0.96875 12.3889 0.96875 12.3888 0.96875C12.3888 0.96875 12.3887 0.96875 12.3886 0.96875C12.3886 0.96875 12.3885 0.96875 12.3885 0.96875C12.3884 0.96875 12.3884 0.96875 12.3883 0.96875C12.3883 0.96875 12.3882 0.96875 12.3881 0.96875C12.3881 0.96875 12.388 0.96875 12.388 0.96875C12.3879 0.96875 12.3879 0.96875 12.3878 0.96875C12.3878 0.96875 12.3877 0.96875 12.3876 0.96875C12.3876 0.96875 12.3875 0.96875 12.3875 0.96875C12.3874 0.96875 12.3874 0.96875 12.3873 0.96875C12.3873 0.96875 12.3872 0.96875 12.3871 0.96875C12.3871 0.96875 12.387 0.96875 12.387 0.96875C12.3869 0.96875 12.3869 0.96875 12.3868 0.96875C12.3868 0.96875 12.3867 0.96875 12.3867 0.96875C12.3866 0.96875 12.3865 0.96875 12.3865 0.96875C12.3864 0.96875 12.3864 0.96875 12.3863 0.96875C12.3863 0.96875 12.3862 0.96875 12.3862 0.96875C12.3861 0.96875 12.386 0.96875 12.386 0.96875C12.3859 0.96875 12.3859 0.96875 12.3858 0.96875C12.3858 0.96875 12.3857 0.96875 12.3857 0.96875C12.3856 0.96875 12.3856 0.96875 12.3855 0.96875C12.3854 0.96875 12.3854 0.96875 12.3853 0.96875C12.3853 0.96875 12.3852 0.96875 12.3852 0.96875C12.3851 0.96875 12.3851 0.96875 12.385 0.96875C12.385 0.96875 12.3849 0.96875 12.3848 0.96875C12.3848 0.96875 12.3847 0.96875 12.3847 0.96875C12.3846 0.96875 12.3846 0.96875 12.3845 0.96875C12.3845 0.96875 12.3844 0.96875 12.3844 0.96875C12.3843 0.96875 12.3843 0.96875 12.3842 0.96875C12.3841 0.96875 12.3841 0.96875 12.384 0.96875C12.384 0.96875 12.3839 0.96875 12.3839 0.96875C12.3838 0.96875 12.3838 0.96875 12.3837 0.96875C12.3837 0.96875 12.3836 0.96875 12.3836 0.96875C12.3835 0.96875 12.3834 0.96875 12.3834 0.96875C12.3833 0.96875 12.3833 0.96875 12.3832 0.96875C12.3832 0.96875 12.3831 0.96875 12.3831 0.96875C12.383 0.96875 12.383 0.96875 12.3829 0.96875C12.3829 0.96875 12.3828 0.96875 12.3827 0.96875C12.3827 0.96875 12.3826 0.96875 12.3826 0.96875C12.3825 0.96875 12.3825 0.96875 12.3824 0.96875C12.3824 0.96875 12.3823 0.96875 12.3823 0.96875C12.3822 0.96875 12.3822 0.96875 12.3821 0.96875C12.3821 0.96875 12.382 0.96875 12.382 0.96875C12.3819 0.96875 12.3818 0.96875 12.3818 0.96875C12.3817 0.96875 12.3817 0.96875 12.3816 0.96875C12.3816 0.96875 12.3815 0.96875 12.3815 0.96875C12.3814 0.96875 12.3814 0.96875 12.3813 0.96875C12.3813 0.96875 12.3812 0.96875 12.3812 0.96875C12.3811 0.96875 12.3811 0.96875 12.381 0.96875C12.3809 0.96875 12.3809 0.96875 12.3808 0.96875C12.3808 0.96875 12.3807 0.96875 12.3807 0.96875C12.3806 0.96875 12.3806 0.96875 12.3805 0.96875C12.3805 0.96875 12.3804 0.96875 12.3804 0.96875C12.3803 0.96875 12.3803 0.96875 12.3802 0.96875C12.3802 0.96875 12.3801 0.96875 12.3801 0.96875C12.38 0.96875 12.3799 0.96875 12.3799 0.96875C12.3798 0.96875 12.3798 0.96875 12.3797 0.96875C12.3797 0.96875 12.3796 0.96875 12.3796 0.96875C12.3795 0.96875 12.3795 0.96875 12.3794 0.96875C12.3794 0.96875 12.3793 0.96875 12.3793 0.96875C12.3792 0.96875 12.3792 0.96875 12.3791 0.96875C12.3791 0.96875 12.379 0.96875 12.379 0.96875C12.3789 0.96875 12.3789 0.96875 12.3788 0.96875C12.3788 0.96875 12.3787 0.96875 12.3786 0.96875C12.3786 0.96875 12.3785 0.96875 12.3785 0.96875C12.3784 0.96875 12.3784 0.96875 12.3783 0.96875C12.3783 0.96875 12.3782 0.96875 12.3782 0.96875C12.3781 0.96875 12.3781 0.96875 12.378 0.96875C12.378 0.96875 12.3779 0.96875 12.3779 0.96875C12.3778 0.96875 12.3778 0.96875 12.3777 0.96875C12.3777 0.96875 12.3776 0.96875 12.3776 0.96875C12.3775 0.96875 12.3775 0.96875 12.3774 0.96875C12.3774 0.96875 12.3773 0.96875 12.3773 0.96875C12.3772 0.96875 12.3772 0.96875 12.3771 0.96875C12.3771 0.96875 12.377 0.96875 12.377 0.96875C12.3769 0.96875 12.3768 0.96875 12.3768 0.96875C12.3767 0.96875 12.3767 0.96875 12.3766 0.96875C12.3766 0.96875 12.3765 0.96875 12.3765 0.96875C12.3764 0.96875 12.3764 0.96875 12.3763 0.96875C12.3763 0.96875 12.3762 0.96875 12.3762 0.96875C12.3761 0.96875 12.3761 0.96875 12.376 0.96875C12.376 0.96875 12.3759 0.96875 12.3759 0.96875C12.3758 0.96875 12.3758 0.96875 12.3757 0.96875C12.3757 0.96875 12.3756 0.96875 12.3756 0.96875C12.3755 0.96875 12.3755 0.96875 12.3754 0.96875C12.3754 0.96875 12.3753 0.96875 12.3753 0.96875C12.3752 0.96875 12.3752 0.96875 12.3751 0.96875C12.3751 0.96875 12.375 0.96875 12.375 0.96875C12.3749 0.96875 12.3749 0.96875 12.3748 0.96875C12.3748 0.96875 12.3747 0.96875 12.3747 0.96875C12.3746 0.96875 12.3746 0.96875 12.3745 0.96875C12.3745 0.96875 12.3744 0.96875 12.3744 0.96875C12.3743 0.96875 12.3743 0.96875 12.3742 0.96875C12.3742 0.96875 12.3741 0.96875 12.3741 0.96875C12.374 0.96875 12.374 0.96875 12.3739 0.96875C12.3739 0.96875 12.3738 0.96875 12.3738 0.96875C12.3737 0.96875 12.3737 0.96875 12.3736 0.96875C12.3736 0.96875 12.3735 0.96875 12.3735 0.96875C12.3734 0.96875 12.3734 0.96875 12.3733 0.96875C12.3733 0.96875 12.3732 0.96875 12.3732 0.96875C12.3731 0.96875 12.3731 0.96875 12.373 0.96875C12.373 0.96875 12.3729 0.96875 12.3729 0.96875C12.3728 0.96875 12.3728 0.96875 12.3727 0.96875C12.3727 0.96875 12.3726 0.96875 12.3726 0.96875C12.3725 0.96875 12.3725 0.96875 12.3724 0.96875C12.3724 0.96875 12.3723 0.96875 12.3723 0.96875C12.3722 0.96875 12.3722 0.96875 12.3721 0.96875C12.3721 0.96875 12.372 0.96875 12.372 0.96875C12.3719 0.96875 12.3719 0.96875 12.3718 0.96875C12.3718 0.96875 12.3717 0.96875 12.3717 0.96875C12.3716 0.96875 12.3716 0.96875 12.3715 0.96875C12.3715 0.96875 12.3714 0.96875 12.3714 0.96875C12.3713 0.96875 12.3713 0.96875 12.3713 0.96875C12.3712 0.96875 12.3712 0.96875 12.3711 0.96875C12.3711 0.96875 12.371 0.96875 12.371 0.96875C12.3709 0.96875 12.3709 0.96875 12.3708 0.96875C12.3708 0.96875 12.3707 0.96875 12.3707 0.96875C12.3706 0.96875 12.3706 0.96875 12.3705 0.96875C12.3705 0.96875 12.3704 0.96875 12.3704 0.96875C12.3703 0.96875 12.3703 0.96875 12.3702 0.96875C12.3702 0.96875 12.3701 0.96875 12.3701 0.96875C12.37 0.96875 12.37 0.96875 12.3699 0.96875C12.3699 0.96875 12.3698 0.96875 12.3698 0.96875C12.3697 0.96875 12.3697 0.96875 12.3696 0.96875C12.3696 0.96875 12.3695 0.96875 12.3695 0.96875C12.3695 0.96875 12.3694 0.96875 12.3694 0.96875C12.3693 0.96875 12.3693 0.96875 12.3692 0.96875C12.3692 0.96875 12.3691 0.96875 12.3691 0.96875C12.369 0.96875 12.369 0.96875 12.3689 0.96875C12.3689 0.96875 12.3688 0.96875 12.3688 0.96875C12.3687 0.96875 12.3687 0.96875 12.3686 0.96875C12.3686 0.96875 12.3685 0.96875 12.3685 0.96875C12.3684 0.96875 12.3684 0.96875 12.3683 0.96875C12.3683 0.96875 12.3682 0.96875 12.3682 0.96875C12.3682 0.96875 12.3681 0.96875 12.3681 0.96875C12.368 0.96875 12.368 0.96875 12.3679 0.96875C12.3679 0.96875 12.3678 0.96875 12.3678 0.96875C12.3677 0.96875 12.3677 0.96875 12.3676 0.96875C12.3676 0.96875 12.3675 0.96875 12.3675 0.96875C12.3674 0.96875 12.3674 0.96875 12.3673 0.96875C12.3673 0.96875 12.3672 0.96875 12.3672 0.96875C12.3672 0.96875 12.3671 0.96875 12.3671 0.96875C12.367 0.96875 12.367 0.96875 12.3669 0.96875C12.3669 0.96875 12.3668 0.96875 12.3668 0.96875C12.3667 0.96875 12.3667 0.96875 12.3666 0.96875C12.3666 0.96875 12.3665 0.96875 12.3665 0.96875C12.3664 0.96875 12.3664 0.96875 12.3663 0.96875C12.3663 0.96875 12.3663 0.96875 12.3662 0.96875C12.3662 0.96875 12.3661 0.96875 12.3661 0.96875C12.366 0.96875 12.366 0.96875 12.3659 0.96875C12.3659 0.96875 12.3658 0.96875 12.3658 0.96875C12.3657 0.96875 12.3657 0.96875 12.3656 0.96875C12.3656 0.96875 12.3656 0.96875 12.3655 0.96875C12.3655 0.96875 12.3654 0.96875 12.3654 0.96875C12.3653 0.96875 12.3653 0.96875 12.3652 0.96875C12.3652 0.96875 12.3651 0.96875 12.3651 0.96875C12.365 0.96875 12.365 0.96875 12.3649 0.96875C12.3649 0.96875 12.3648 0.96875 12.3648 0.96875C12.3648 0.96875 12.3647 0.96875 12.3647 0.96875C12.3646 0.96875 12.3646 0.96875 12.3645 0.96875C12.3645 0.96875 12.3644 0.96875 12.3644 0.96875C12.3643 0.96875 12.3643 0.96875 12.3642 0.96875C12.3642 0.96875 12.3642 0.96875 12.3641 0.96875C12.3641 0.96875 12.364 0.96875 12.364 0.96875C12.3639 0.96875 12.3639 0.96875 12.3638 0.96875C12.3638 0.96875 12.3637 0.96875 12.3637 0.96875C12.3636 0.96875 12.3636 0.96875 12.3635 0.96875C12.3635 0.96875 12.3635 0.96875 12.3634 0.96875C12.3634 0.96875 12.3633 0.96875 12.3633 0.96875C12.3632 0.96875 12.3632 0.96875 12.3631 0.96875C12.3631 0.96875 12.363 0.96875 12.363 0.96875C12.3629 0.96875 12.3629 0.96875 12.3629 0.96875C12.3628 0.96875 12.3628 0.96875 12.3627 0.96875C12.3627 0.96875 12.3626 0.96875 12.3626 0.96875C12.3625 0.96875 12.3625 0.96875 12.3624 0.96875C12.3624 0.96875 12.3624 0.96875 12.3623 0.96875C12.3623 0.96875 12.3622 0.96875 12.3622 0.96875C12.3621 0.96875 12.3621 0.96875 12.362 0.96875C12.362 0.96875 12.3619 0.96875 12.3619 0.96875C12.3618 0.96875 12.3618 0.96875 12.3618 0.96875C12.3617 0.96875 12.3617 0.96875 12.3616 0.96875C12.3616 0.96875 12.3615 0.96875 12.3615 0.96875C12.3614 0.96875 12.3614 0.96875 12.3613 0.96875C12.3613 0.96875 12.3613 0.96875 12.3612 0.96875C12.3612 0.96875 12.3611 0.96875 12.3611 0.96875C12.361 0.96875 12.361 0.96875 12.3609 0.96875C12.3609 0.96875 12.3608 0.96875 12.3608 0.96875C12.3608 0.96875 12.3607 0.96875 12.3607 0.96875C12.3606 0.96875 12.3606 0.96875 12.3605 0.96875C12.3605 0.96875 12.3604 0.96875 12.3604 0.96875C12.3603 0.96875 12.3603 0.96875 12.3603 0.96875C12.3602 0.96875 12.3602 0.96875 12.3601 0.96875C12.3601 0.96875 12.36 0.96875 12.36 0.96875C12.3599 0.96875 12.3599 0.96875 12.3599 0.96875C12.3598 0.96875 12.3598 0.96875 12.3597 0.96875C12.3597 0.96875 12.3596 0.96875 12.3596 0.96875C12.3595 0.96875 12.3595 0.96875 12.3594 0.96875C12.3594 0.96875 12.3594 0.96875 12.3593 0.96875C12.3593 0.96875 12.3592 0.96875 12.3592 0.96875C12.3591 0.96875 12.3591 0.96875 12.359 0.96875C12.359 0.96875 12.359 0.96875 12.3589 0.96875C12.3589 0.96875 12.3588 0.96875 12.3588 0.96875C12.3587 0.96875 12.3587 0.96875 12.3586 0.96875C12.3586 0.96875 12.3586 0.96875 12.3585 0.96875C12.3585 0.96875 12.3584 0.96875 12.3584 0.96875C12.3583 0.96875 12.3583 0.96875 12.3582 0.96875C12.3582 0.96875 12.3582 0.96875 12.3581 0.96875C12.3581 0.96875 12.358 0.96875 12.358 0.96875C12.3579 0.96875 12.3579 0.96875 12.3578 0.96875C12.3578 0.96875 12.3578 0.96875 12.3577 0.96875C12.3577 0.96875 12.3576 0.96875 12.3576 0.96875C12.3575 0.96875 12.3575 0.96875 12.3574 0.96875C12.3574 0.96875 12.3574 0.96875 12.3573 0.96875C12.3573 0.96875 12.3572 0.96875 12.3572 0.96875C12.3571 0.96875 12.3571 0.96875 12.357 0.96875C12.357 0.96875 12.357 0.96875 12.3569 0.96875C12.3569 0.96875 12.3568 0.96875 12.3568 0.96875C12.3567 0.96875 12.3567 0.96875 12.3566 0.96875C12.3566 0.96875 12.3566 0.96875 12.3565 0.96875C12.3565 0.96875 12.3564 0.96875 12.3564 0.96875C12.3563 0.96875 12.3563 0.96875 12.3562 0.96875C12.3562 0.96875 12.3562 0.96875 12.3561 0.96875C12.3561 0.96875 12.356 0.96875 12.356 0.96875C12.3559 0.96875 12.3559 0.96875 12.3559 0.96875C12.3558 0.96875 12.3558 0.96875 12.3557 0.96875C12.3557 0.96875 12.3556 0.96875 12.3556 0.96875C12.3555 0.96875 12.3555 0.96875 12.3555 0.96875C12.3554 0.96875 12.3554 0.96875 12.3553 0.96875C12.3553 0.96875 12.3552 0.96875 12.3552 0.96875C12.3552 0.96875 12.3551 0.96875 12.3551 0.96875C12.355 0.96875 12.355 0.96875 12.3549 0.96875C12.3549 0.96875 12.3548 0.96875 12.3548 0.96875C12.3548 0.96875 12.3547 0.96875 12.3547 0.96875C12.3546 0.96875 12.3546 0.96875 12.3545 0.96875C12.3545 0.96875 12.3545 0.96875 12.3544 0.96875C12.3544 0.96875 12.3543 0.96875 12.3543 0.96875C12.3542 0.96875 12.3542 0.96875 12.3542 0.96875C12.3541 0.96875 12.3541 0.96875 12.354 0.96875C12.354 0.96875 12.3539 0.96875 12.3539 0.96875C12.3539 0.96875 12.3538 0.96875 12.3538 0.96875C12.3537 0.96875 12.3537 0.96875 12.3536 0.96875C12.3536 0.96875 12.3535 0.96875 12.3535 0.96875C12.3535 0.96875 12.3534 0.96875 12.3534 0.96875C12.3533 0.96875 12.3533 0.96875 12.3532 0.96875C12.3532 0.96875 12.3532 0.96875 12.3531 0.96875C12.3531 0.96875 12.353 0.96875 12.353 0.96875C12.3529 0.96875 12.3529 0.96875 12.3529 0.96875C12.3528 0.96875 12.3528 0.96875 12.3527 0.96875C12.3527 0.96875 12.3526 0.96875 12.3526 0.96875C12.3526 0.96875 12.3525 0.96875 12.3525 0.96875C12.3524 0.96875 12.3524 0.96875 12.3523 0.96875C12.3523 0.96875 12.3523 0.96875 12.3522 0.96875C12.3522 0.96875 12.3521 0.96875 12.3521 0.96875C12.352 0.96875 12.352 0.96875 12.352 0.96875C12.3519 0.96875 12.3519 0.96875 12.3518 0.96875C12.3518 0.96875 12.3517 0.96875 12.3517 0.96875C12.3517 0.96875 12.3516 0.96875 12.3516 0.96875C12.3515 0.96875 12.3515 0.96875 12.3514 0.96875C12.3514 0.96875 12.3514 0.96875 12.3513 0.96875C12.3513 0.96875 12.3512 0.96875 12.3512 0.96875C12.3511 0.96875 12.3511 0.96875 12.3511 0.96875C12.351 0.96875 12.351 0.96875 12.3509 0.96875C12.3509 0.96875 12.3509 0.96875 12.3508 0.96875C12.3508 0.96875 12.3507 0.96875 12.3507 0.96875C12.3506 0.96875 12.3506 0.96875 12.3506 0.96875C12.3505 0.96875 12.3505 0.96875 12.3504 0.96875C12.3504 0.96875 12.3503 0.96875 12.3503 0.96875C12.3503 0.96875 12.3502 0.96875 12.3502 0.96875C12.3501 0.96875 12.3501 0.96875 12.35 0.96875C12.35 0.96875 12.35 0.96875 12.3499 0.96875C12.3499 0.96875 12.3498 0.96875 12.3498 0.96875C12.3497 0.96875 12.3497 0.96875 12.3497 0.96875C12.3496 0.96875 12.3496 0.96875 12.3495 0.96875C12.3495 0.96875 12.3495 0.96875 12.3494 0.96875C12.3494 0.96875 12.3493 0.96875 12.3493 0.96875C12.3492 0.96875 12.3492 0.96875 12.3492 0.96875C12.3491 0.96875 12.3491 0.96875 12.349 0.96875C12.349 0.96875 12.3489 0.96875 12.3489 0.96875C12.3489 0.96875 12.3488 0.96875 12.3488 0.96875C12.3487 0.96875 12.3487 0.96875 12.3487 0.96875C12.3486 0.96875 12.3486 0.96875 12.3485 0.96875C12.3485 0.96875 12.3484 0.96875 12.3484 0.96875C12.3484 0.96875 12.3483 0.96875 12.3483 0.96875C12.3482 0.96875 12.3482 0.96875 12.3482 0.96875C12.3481 0.96875 12.3481 0.96875 12.348 0.96875C12.348 0.96875 12.3479 0.96875 12.3479 0.96875C12.3479 0.96875 12.3478 0.96875 12.3478 0.96875C12.3477 0.96875 12.3477 0.96875 12.3477 0.96875C12.3476 0.96875 12.3476 0.96875 12.3475 0.96875C12.3475 0.96875 12.3474 0.96875 12.3474 0.96875C12.3474 0.96875 12.3473 0.96875 12.3473 0.96875C12.3472 0.96875 12.3472 0.96875 12.3472 0.96875C12.3471 0.96875 12.3471 0.96875 12.347 0.96875C12.347 0.96875 12.3469 0.96875 12.3469 0.96875C12.3469 0.96875 12.3468 0.96875 12.3468 0.96875C12.3467 0.96875 12.3467 0.96875 12.3467 0.96875C12.3466 0.96875 12.3466 0.96875 12.3465 0.96875C12.3465 0.96875 12.3464 0.96875 12.3464 0.96875C12.3464 0.96875 12.3463 0.96875 12.3463 0.96875C12.3462 0.96875 12.3462 0.96875 12.3462 0.96875C12.3461 0.96875 12.3461 0.96875 12.346 0.96875C12.346 0.96875 12.3459 0.96875 12.3459 0.96875C12.3459 0.96875 12.3458 0.96875 12.3458 0.96875C12.3457 0.96875 12.3457 0.96875 12.3457 0.96875C12.3456 0.96875 12.3456 0.96875 12.3455 0.96875C12.3455 0.96875 12.3455 0.96875 12.3454 0.96875C12.3454 0.96875 12.3453 0.96875 12.3453 0.96875C12.3452 0.96875 12.3452 0.96875 12.3452 0.96875C12.3451 0.96875 12.3451 0.96875 12.345 0.96875C12.345 0.96875 12.345 0.96875 12.3449 0.96875C12.3449 0.96875 12.3448 0.96875 12.3448 0.96875C12.3448 0.96875 12.3447 0.96875 12.3447 0.96875C12.3446 0.96875 12.3446 0.96875 12.3445 0.96875C12.3445 0.96875 12.3445 0.96875 12.3444 0.96875C12.3444 0.96875 12.3443 0.96875 12.3443 0.96875C12.3443 0.96875 12.3442 0.96875 12.3442 0.96875C12.3441 0.96875 12.3441 0.96875 12.3441 0.96875C12.344 0.96875 12.344 0.96875 12.3439 0.96875C12.3439 0.96875 12.3439 0.96875 12.3438 0.96875C12.3438 0.96875 12.3437 0.96875 12.3437 0.96875C12.3436 0.96875 12.3436 0.96875 12.3436 0.96875C12.3435 0.96875 12.3435 0.96875 12.3434 0.96875C12.3434 0.96875 12.3434 0.96875 12.3433 0.96875C12.3433 0.96875 12.3432 0.96875 12.3432 0.96875C12.3432 0.96875 12.3431 0.96875 12.3431 0.96875C12.343 0.96875 12.343 0.96875 12.343 0.96875C12.3429 0.96875 12.3429 0.96875 12.3428 0.96875C12.3428 0.96875 12.3427 0.96875 12.3427 0.96875C12.3427 0.96875 12.3426 0.96875 12.3426 0.96875C12.3425 0.96875 12.3425 0.96875 12.3425 0.96875C12.3424 0.96875 12.3424 0.96875 12.3423 0.96875C12.3423 0.96875 12.3423 0.96875 12.3422 0.96875C12.3422 0.96875 12.3421 0.96875 12.3421 0.96875C12.3421 0.96875 12.342 0.96875 12.342 0.96875C12.3419 0.96875 12.3419 0.96875 12.3419 0.96875C12.3418 0.96875 12.3418 0.96875 12.3417 0.96875C12.3417 0.96875 12.3417 0.96875 12.3416 0.96875C12.3416 0.96875 12.3415 0.96875 12.3415 0.96875C12.3414 0.96875 12.3414 0.96875 12.3414 0.96875C12.3413 0.96875 12.3413 0.96875 12.3412 0.96875C12.3412 0.96875 12.3412 0.96875 12.3411 0.96875C12.3411 0.96875 12.341 0.96875 12.341 0.96875C12.341 0.96875 12.3409 0.96875 12.3409 0.96875C12.3408 0.96875 12.3408 0.96875 12.3408 0.96875C12.3407 0.96875 12.3407 0.96875 12.3406 0.96875C12.3406 0.96875 12.3406 0.96875 12.3405 0.96875C12.3405 0.96875 12.3404 0.96875 12.3404 0.96875C12.3404 0.96875 12.3403 0.96875 12.3403 0.96875C12.3402 0.96875 12.3402 0.96875 12.3402 0.96875C12.3401 0.96875 12.3401 0.96875 12.34 0.96875C12.34 0.96875 12.34 0.96875 12.3399 0.96875C12.3399 0.96875 12.3398 0.96875 12.3398 0.96875C12.3398 0.96875 12.3397 0.96875 12.3397 0.96875C12.3396 0.96875 12.3396 0.96875 12.3396 0.96875C12.3395 0.96875 12.3395 0.96875 12.3394 0.96875C12.3394 0.96875 12.3394 0.96875 12.3393 0.96875C12.3393 0.96875 12.3392 0.96875 12.3392 0.96875C12.3392 0.96875 12.3391 0.96875 12.3391 0.96875C12.339 0.96875 12.339 0.96875 12.339 0.96875C12.3389 0.96875 12.3389 0.96875 12.3388 0.96875C12.3388 0.96875 12.3387 0.96875 12.3387 0.96875C12.3387 0.96875 12.3386 0.96875 12.3386 0.96875C12.3385 0.96875 12.3385 0.96875 12.3385 0.96875C12.3384 0.96875 12.3384 0.96875 12.3383 0.96875C12.3383 0.96875 12.3383 0.96875 12.3382 0.96875C12.3382 0.96875 12.3382 0.96875 12.3381 0.96875C12.3381 0.96875 12.338 0.96875 12.338 0.96875C12.3379 0.96875 12.3379 0.96875 12.3379 0.96875C12.3378 0.96875 12.3378 0.96875 12.3378 0.96875C12.3377 0.96875 12.3377 0.96875 12.3376 0.96875C12.3376 0.96875 12.3376 0.96875 12.3375 0.96875C12.3375 0.96875 12.3374 0.96875 12.3374 0.96875C12.3374 0.96875 12.3373 0.96875 12.3373 0.96875C12.3372 0.96875 12.3372 0.96875 12.3372 0.96875C12.3371 0.96875 12.3371 0.96875 12.337 0.96875C12.337 0.96875 12.337 0.96875 12.3369 0.96875C12.3369 0.96875 12.3368 0.96875 12.3368 0.96875C12.3368 0.96875 12.3367 0.96875 12.3367 0.96875C12.3366 0.96875 12.3366 0.96875 12.3366 0.96875C12.3365 0.96875 12.3365 0.96875 12.3364 0.96875C12.3364 0.96875 12.3364 0.96875 12.3363 0.96875C12.3363 0.96875 12.3362 0.96875 12.3362 0.96875C12.3362 0.96875 12.3361 0.96875 12.3361 0.96875C12.336 0.96875 12.336 0.96875 12.336 0.96875C12.3359 0.96875 12.3359 0.96875 12.3358 0.96875C12.3358 0.96875 12.3358 0.96875 12.3357 0.96875C12.3357 0.96875 12.3356 0.96875 12.3356 0.96875C12.3356 0.96875 12.3355 0.96875 12.3355 0.96875C12.3354 0.96875 12.3354 0.96875 12.3354 0.96875C12.3353 0.96875 12.3353 0.96875 12.3352 0.96875C12.3352 0.96875 12.3352 0.96875 12.3351 0.96875C12.3351 0.96875 12.335 0.96875 12.335 0.96875C12.335 0.96875 12.3349 0.96875 12.3349 0.96875C12.3348 0.96875 12.3348 0.96875 12.3348 0.96875C12.3347 0.96875 12.3347 0.96875 12.3347 0.96875C12.3346 0.96875 12.3346 0.96875 12.3345 0.96875C12.3345 0.96875 12.3345 0.96875 12.3344 0.96875C12.3344 0.96875 12.3343 0.96875 12.3343 0.96875C12.3343 0.96875 12.3342 0.96875 12.3342 0.96875C12.3341 0.96875 12.3341 0.96875 12.3341 0.96875C12.334 0.96875 12.334 0.96875 12.3339 0.96875C12.3339 0.96875 12.3339 0.96875 12.3338 0.96875C12.3338 0.96875 12.3337 0.96875 12.3337 0.96875C12.3337 0.96875 12.3336 0.96875 12.3336 0.96875C12.3335 0.96875 12.3335 0.96875 12.3335 0.96875C12.3334 0.96875 12.3334 0.96875 12.3333 0.96875C12.3333 0.96875 12.3333 0.96875 12.3332 0.96875C12.3332 0.96875 12.3331 0.96875 12.3331 0.96875C12.3331 0.96875 12.333 0.96875 12.333 0.96875C12.333 0.96875 12.3329 0.96875 12.3329 0.96875C12.3328 0.96875 12.3328 0.96875 12.3328 0.96875C12.3327 0.96875 12.3327 0.96875 12.3326 0.96875C12.3326 0.96875 12.3326 0.96875 12.3325 0.96875C12.3325 0.96875 12.3324 0.96875 12.3324 0.96875C12.3324 0.96875 12.3323 0.96875 12.3323 0.96875C12.3322 0.96875 12.3322 0.96875 12.3322 0.96875C12.3321 0.96875 12.3321 0.96875 12.332 0.96875C12.332 0.96875 12.332 0.96875 12.3319 0.96875C12.3319 0.96875 12.3319 0.96875 12.3318 0.96875C12.3318 0.96875 12.3317 0.96875 12.3317 0.96875C12.3317 0.96875 12.3316 0.96875 12.3316 0.96875C12.3315 0.96875 12.3315 0.96875 12.3315 0.96875C12.3314 0.96875 12.3314 0.96875 12.3313 0.96875C12.3313 0.96875 12.3313 0.96875 12.3312 0.96875C12.3312 0.96875 12.3311 0.96875 12.3311 0.96875C12.3311 0.96875 12.331 0.96875 12.331 0.96875C12.3309 0.96875 12.3309 0.96875 12.3309 0.96875C12.3308 0.96875 12.3308 0.96875 12.3308 0.96875C12.3307 0.96875 12.3307 0.96875 12.3306 0.96875C12.3306 0.96875 12.3306 0.96875 12.3305 0.96875C12.3305 0.96875 12.3304 0.96875 12.3304 0.96875C12.3304 0.96875 12.3303 0.96875 12.3303 0.96875C12.3302 0.96875 12.3302 0.96875 12.3302 0.96875C12.3301 0.96875 12.3301 0.96875 12.33 0.96875C12.33 0.96875 12.33 0.96875 12.3299 0.96875C12.3299 0.96875 12.3298 0.96875 12.3298 0.96875C12.3298 0.96875 12.3297 0.96875 12.3297 0.96875C12.3297 0.96875 12.3296 0.96875 12.3296 0.96875C12.3295 0.96875 12.3295 0.96875 12.3295 0.96875C12.3294 0.96875 12.3294 0.96875 12.3293 0.96875C12.3293 0.96875 12.3293 0.96875 12.3292 0.96875C12.3292 0.96875 12.3291 0.96875 12.3291 0.96875C12.3291 0.96875 12.329 0.96875 12.329 0.96875C12.3289 0.96875 12.3289 0.96875 12.3289 0.96875C12.3288 0.96875 12.3288 0.96875 12.3288 0.96875C12.3287 0.96875 12.3287 0.96875 12.3286 0.96875C12.3286 0.96875 12.3286 0.96875 12.3285 0.96875C12.3285 0.96875 12.3284 0.96875 12.3284 0.96875C12.3284 0.96875 12.3283 0.96875 12.3283 0.96875C12.3282 0.96875 12.3282 0.96875 12.3282 0.96875C12.3281 0.96875 12.3281 0.96875 12.328 0.96875C12.328 0.96875 12.328 0.96875 12.3279 0.96875C12.3279 0.96875 12.3279 0.96875 12.3278 0.96875C12.3278 0.96875 12.3277 0.96875 12.3277 0.96875C12.3277 0.96875 12.3276 0.96875 12.3276 0.96875C12.3275 0.96875 12.3275 0.96875 12.3275 0.96875C12.3274 0.96875 12.3274 0.96875 12.3273 0.96875C12.3273 0.96875 12.3273 0.96875 12.3272 0.96875C12.3272 0.96875 12.3271 0.96875 12.3271 0.96875C12.3271 0.96875 12.327 0.96875 12.327 0.96875C12.327 0.96875 12.3269 0.96875 12.3269 0.96875C12.3268 0.96875 12.3268 0.96875 12.3268 0.96875C12.3267 0.96875 12.3267 0.96875 12.3266 0.96875C12.3266 0.96875 12.3266 0.96875 12.3265 0.96875C12.3265 0.96875 12.3264 0.96875 12.3264 0.96875C12.3264 0.96875 12.3263 0.96875 12.3263 0.96875C12.3263 0.96875 12.3262 0.96875 12.3262 0.96875C12.3261 0.96875 12.3261 0.96875 12.3261 0.96875C12.326 0.96875 12.326 0.96875 12.3259 0.96875C12.3259 0.96875 12.3259 0.96875 12.3258 0.96875C12.3258 0.96875 12.3257 0.96875 12.3257 0.96875C12.3257 0.96875 12.3256 0.96875 12.3256 0.96875C12.3255 0.96875 12.3255 0.96875 12.3255 0.96875C12.3254 0.96875 12.3254 0.96875 12.3254 0.96875C12.3253 0.96875 12.3253 0.96875 12.3252 0.96875C12.3252 0.96875 12.3252 0.96875 12.3251 0.96875C12.3251 0.96875 12.325 0.96875 12.325 0.96875V2.46875ZM1.125 13.6687L13.185 13.6687L13.185 12.1687L1.125 12.1687L1.125 13.6687ZM20.2045 11.7587V10.2188H18.7045V11.7587H20.2045ZM18.7045 1.71875V3.25875H20.2045V1.71875H18.7045ZM15.3945 8.46875C15.3945 9.84296 16.5003 10.9487 17.8745 10.9487V9.44875C17.3287 9.44875 16.8945 9.01454 16.8945 8.46875H15.3945ZM17.8745 10.9487H21.0245V9.44875H17.8745V10.9487ZM21.0245 10.9487C22.3987 10.9487 23.5045 9.84296 23.5045 8.46875H22.0045C22.0045 9.01454 21.5703 9.44875 21.0245 9.44875V10.9487ZM23.5045 8.46875C23.5045 7.09454 22.3987 5.98875 21.0245 5.98875V7.48875C21.5703 7.48875 22.0045 7.92296 22.0045 8.46875H23.5045ZM21.0245 5.98875H17.8745V7.48875H21.0245V5.98875ZM17.8745 5.98875C17.3287 5.98875 16.8945 5.55454 16.8945 5.00875H15.3945C15.3945 6.38296 16.5003 7.48875 17.8745 7.48875V5.98875ZM16.8945 5.00875C16.8945 4.46296 17.3287 4.02875 17.8745 4.02875V2.52875C16.5003 2.52875 15.3945 3.63454 15.3945 5.00875H16.8945ZM17.8745 4.02875H21.0245V2.52875H17.8745V4.02875ZM21.0245 4.02875C21.5703 4.02875 22.0045 4.46296 22.0045 5.00875H23.5045C23.5045 3.63454 22.3987 2.52875 21.0245 2.52875V4.02875Z" fill="currentColor"/>
</svg>
