<svg width="30" height="20" viewBox="0 0 30 20" fill="none" xmlns="http://www.w3.org/2000/svg">
    <path d="M10.9975 4.95306L5.74998 6.32724C2.57435 7.15885 0.703634 10.3995 1.57161 13.5653V13.5653C2.43959 16.7312 5.71757 18.6235 8.8932 17.7919L14.1407 16.4177M15.3965 3.80108L20.644 2.42689C23.8196 1.59528 27.0976 3.48758 27.9656 6.65346V6.65346C28.8336 9.81934 26.9629 13.0599 23.7872 13.8916L18.5397 15.2657" stroke="currentColor" stroke-width="1.5" stroke-linecap="round" />
    <path d="M7.23919 11.306C6.83849 11.4109 6.60244 11.8198 6.71197 12.2193C6.82149 12.6188 7.2351 12.8575 7.63581 12.7526L7.23919 11.306ZM22.2991 8.91267C22.6998 8.80774 22.9359 8.39884 22.8264 7.99936C22.7168 7.59989 22.3032 7.36112 21.9025 7.46606L22.2991 8.91267ZM7.63581 12.7526L22.2991 8.91267L21.9025 7.46606L7.23919 11.306L7.63581 12.7526Z" fill="currentColor" />
</svg>