<svg width="28" height="25" viewBox="0 0 28 25" fill="currentColor" xmlns="http://www.w3.org/2000/svg">
    <path d="M20.7051 17.6619C20.4051 17.9474 20.3934 18.4222 20.679 18.7222C20.9646 19.0222 21.4393 19.0339 21.7393 18.7483L20.7051 17.6619ZM27 12.7051L27.5171 13.2483C27.6658 13.1067 27.75 12.9104 27.75 12.7051C27.75 12.4998 27.6658 12.3034 27.5171 12.1619L27 12.7051ZM21.7393 6.66185C21.4393 6.37626 20.9646 6.38795 20.679 6.68797C20.3934 6.98798 20.4051 7.46271 20.7051 7.74831L21.7393 6.66185ZM6.77778 11.9551C6.36356 11.9551 6.02778 12.2909 6.02778 12.7051C6.02778 13.1193 6.36356 13.4551 6.77778 13.4551V11.9551ZM16.1944 18.2051C16.1944 17.7909 15.8587 17.4551 15.4444 17.4551C15.0302 17.4551 14.6944 17.7909 14.6944 18.2051H16.1944ZM14.6944 7.20508C14.6944 7.61929 15.0302 7.95508 15.4444 7.95508C15.8587 7.95508 16.1944 7.61929 16.1944 7.20508H14.6944ZM1.75 19.5801V5.83008H0.25V19.5801H1.75ZM0.25 19.5801C0.25 22.3069 2.56114 24.4551 5.33333 24.4551V22.9551C3.31906 22.9551 1.75 21.4096 1.75 19.5801H0.25ZM1.75 5.83008C1.75 4.00051 3.31906 2.45508 5.33333 2.45508V0.955078C2.56114 0.955078 0.25 3.1033 0.25 5.83008H1.75ZM21.7393 18.7483L27.5171 13.2483L26.4829 12.1619L20.7051 17.6619L21.7393 18.7483ZM27.5171 12.1619L21.7393 6.66185L20.7051 7.74831L26.4829 13.2483L27.5171 12.1619ZM27 11.9551L6.77778 11.9551V13.4551L27 13.4551V11.9551ZM5.33333 24.4551H11.1111V22.9551H5.33333V24.4551ZM16.1944 19.5801V18.2051H14.6944V19.5801H16.1944ZM5.33333 2.45508H11.1111V0.955078H5.33333V2.45508ZM14.6944 5.83008V7.20508H16.1944V5.83008H14.6944ZM11.1111 2.45508C13.1254 2.45508 14.6944 4.00051 14.6944 5.83008H16.1944C16.1944 3.1033 13.8833 0.955078 11.1111 0.955078V2.45508ZM11.1111 24.4551C13.8833 24.4551 16.1944 22.3069 16.1944 19.5801H14.6944C14.6944 21.4096 13.1254 22.9551 11.1111 22.9551V24.4551Z" fill="currentColor" />
</svg>