<svg viewBox="0 0 210 210" fill="none" xmlns="http://www.w3.org/2000/svg">
    <g clipPath="url(#clip0_2553_33909)">
      <path
        d="M169.139 209.06H40.4492C29.8406 209.06 19.6664 204.846 12.1649 197.344C4.66349 189.843 0.449219 179.669 0.449219 169.06L0.449219 40.3701C0.449219 29.7615 4.66349 19.5873 12.1649 12.0858C19.6664 4.58439 29.8406 0.370117 40.4492 0.370117L169.139 0.370117C179.748 0.370117 189.922 4.58439 197.423 12.0858C204.925 19.5873 209.139 29.7615 209.139 40.3701V169.06C209.139 179.669 204.925 189.843 197.423 197.344C189.922 204.846 179.748 209.06 169.139 209.06Z"
        fill="#3E4FE5"
      />
      <path
        d="M62.3883 130.72C57.958 130.72 53.6272 132.033 49.9435 134.495C46.2599 136.956 43.3888 140.455 41.6934 144.548C39.998 148.641 39.5544 153.145 40.4187 157.49C41.283 161.835 43.4164 165.826 46.5491 168.959C49.6818 172.092 53.6731 174.225 58.0183 175.089C62.3634 175.954 66.8673 175.51 70.9604 173.815C75.0535 172.119 78.5519 169.248 81.0132 165.564C83.4746 161.881 84.7883 157.55 84.7883 153.12C84.4683 140.5 74.6883 130.72 62.3883 130.72Z"
        fill="white"
      />
      <path
        d="M62.3883 33.9102C57.958 33.9102 53.6272 35.2239 49.9435 37.6852C46.2599 40.1466 43.3888 43.645 41.6934 47.738C39.998 51.8311 39.5544 56.335 40.4187 60.6802C41.283 65.0254 43.4164 69.0166 46.5491 72.1493C49.6818 75.282 53.6731 77.4154 58.0183 78.2797C62.3634 79.1441 66.8673 78.7005 70.9604 77.0051C75.0535 75.3097 78.5519 72.4386 81.0132 68.7549C83.4746 65.0713 84.7883 60.7405 84.7883 56.3102C84.4683 43.6802 74.6883 33.9102 62.3883 33.9102Z"
        fill="white"
      />
      <path
        d="M62.3883 82.3701C57.9576 82.3701 53.6264 83.6841 49.9425 86.1459C46.2586 88.6077 43.3875 92.1067 41.6924 96.2003C39.9973 100.294 39.5543 104.798 40.4194 109.144C41.2846 113.489 43.4189 117.481 46.5526 120.613C49.6863 123.745 53.6786 125.878 58.0244 126.741C62.3702 127.604 66.8744 127.159 70.9673 125.462C75.0602 123.765 78.5579 120.893 81.0181 117.208C83.4782 113.523 84.7903 109.191 84.7883 104.76C84.4483 92.1001 74.6883 82.3701 62.3883 82.3701Z"
        fill="white"
      />
      <path
        d="M169.599 56.3004C169.599 54.2435 168.989 52.2327 167.846 50.5225C166.703 48.8122 165.079 47.4792 163.179 46.692C161.278 45.9049 159.187 45.6989 157.17 46.1002C155.152 46.5015 153.299 47.492 151.845 48.9465C150.39 50.401 149.4 52.2541 148.999 54.2715C148.597 56.2889 148.803 58.38 149.59 60.2803C150.378 62.1807 151.711 63.8049 153.421 64.9477C155.131 66.0905 157.142 66.7004 159.199 66.7004C160.565 66.7004 161.917 66.4314 163.179 65.9087C164.441 65.3861 165.587 64.62 166.553 63.6543C167.518 62.6886 168.285 61.5421 168.807 60.2803C169.33 59.0185 169.599 57.6661 169.599 56.3004Z"
        fill="white"
      />
      <path
        d="M130.448 56.3004C130.448 52.4056 129.293 48.5984 127.129 45.3601C124.965 42.1219 121.89 39.5982 118.291 38.1082C114.693 36.6182 110.733 36.2289 106.913 36.9894C103.094 37.75 99.5852 39.6263 96.8319 42.381C94.0786 45.1357 92.2041 48.645 91.4455 52.4652C90.6869 56.2853 91.0782 60.2446 92.5701 63.8423C94.0619 67.44 96.5871 70.5145 99.8265 72.6769C103.066 74.8392 106.874 75.9923 110.768 75.9904C121.878 75.7104 130.448 67.1204 130.448 56.3004Z"
        fill="white"
      />
      <path
        d="M169.599 104.711C169.599 102.654 168.989 100.643 167.846 98.9326C166.703 97.2224 165.079 95.8894 163.179 95.1022C161.278 94.3151 159.187 94.1091 157.17 94.5104C155.152 94.9117 153.299 95.9022 151.845 97.3566C150.39 98.8111 149.4 100.664 148.999 102.682C148.597 104.699 148.803 106.79 149.59 108.69C150.378 110.591 151.711 112.215 153.421 113.358C155.131 114.501 157.142 115.111 159.199 115.111C161.952 115.095 164.588 113.994 166.535 112.047C168.482 110.1 169.583 107.464 169.599 104.711Z"
        fill="white"
      />
      <path
        d="M130.448 104.71C130.454 100.813 129.304 97.0015 127.142 93.7587C124.98 90.5159 121.905 87.9875 118.305 86.4938C114.705 85.0001 110.743 84.6083 106.921 85.3679C103.098 86.1275 99.587 88.0043 96.8319 90.7609C94.0768 93.5174 92.2017 97.0295 91.444 100.852C90.6864 104.675 91.0803 108.637 92.5758 112.236C94.0713 115.835 96.6013 118.909 99.8452 121.069C103.089 123.229 106.901 124.378 110.798 124.37C121.878 124.09 130.478 115.49 130.478 104.68"
        fill="white"
      />
      <path
        d="M169.599 153.12C169.601 151.063 168.993 149.051 167.851 147.339C166.709 145.628 165.086 144.293 163.186 143.504C161.286 142.716 159.194 142.508 157.176 142.909C155.158 143.309 153.304 144.298 151.848 145.753C150.393 147.207 149.401 149.06 148.999 151.077C148.597 153.095 148.803 155.187 149.59 157.088C150.376 158.988 151.709 160.613 153.42 161.757C155.13 162.9 157.141 163.51 159.199 163.51C161.955 163.51 164.599 162.416 166.549 160.467C168.499 158.519 169.596 155.876 169.599 153.12Z"
        fill="white"
      />
      <path
        d="M121.178 153.12C121.178 151.066 120.569 149.057 119.427 147.348C118.286 145.639 116.663 144.308 114.765 143.521C112.866 142.735 110.777 142.529 108.761 142.93C106.746 143.331 104.895 144.321 103.442 145.774C101.989 147.227 100.999 149.078 100.598 151.093C100.197 153.109 100.403 155.198 101.189 157.097C101.976 158.995 103.307 160.618 105.016 161.759C106.725 162.901 108.733 163.51 110.788 163.51C113.544 163.51 116.187 162.416 118.135 160.467C120.084 158.519 121.178 155.876 121.178 153.12Z"
        fill="white"
      />
    </g>
    <defs>
      <clipPath id="clip0_2553_33909">
        <rect width="208.69" height="208.69" fill="white" transform="translate(0.449219 0.370117)" />
      </clipPath>
    </defs>
  </svg>