<svg width="25" height="25" viewBox="0 0 25 25" fill="none" xmlns="http://www.w3.org/2000/svg">
    <path
      d="M12.2344 15.8798C14.3376 15.8798 16.0425 14.1216 16.0425 11.9527V5.40757C16.0425 3.23866 14.3376 1.48047 12.2344 1.48047C10.1313 1.48047 8.42634 3.23866 8.42634 5.40757V11.9527C8.42634 14.1216 10.1313 15.8798 12.2344 15.8798ZM18.5813 9.33467H17.9466C17.5959 9.33467 17.3119 9.62757 17.3119 9.98919V11.9527C17.3119 15.0126 14.7537 17.4679 11.7271 17.1635C9.08919 16.898 7.15698 14.4526 7.15698 11.7196V9.98919C7.15698 9.62757 6.87296 9.33467 6.5223 9.33467H5.88761C5.53695 9.33467 5.25293 9.62757 5.25293 9.98919V11.632C5.25293 15.299 7.79047 18.5679 11.2824 19.0645V20.4615H9.06103C8.71036 20.4615 8.42634 20.7544 8.42634 21.116V21.7705C8.42634 22.1321 8.71036 22.425 9.06103 22.425H15.4079C15.7585 22.425 16.0425 22.1321 16.0425 21.7705V21.116C16.0425 20.7544 15.7585 20.4615 15.4079 20.4615H13.1865V19.08C16.5864 18.5989 19.216 15.5894 19.216 11.9527V9.98919C19.216 9.62757 18.9319 9.33467 18.5813 9.33467Z"
      fill="currentColor"
    />
  </svg>