<svg width="22" height="21" viewBox="0 0 22 21" fill="none" xmlns="http://www.w3.org/2000/svg">
<path d="M16.0605 10.745C17.2837 10.745 18.2753 9.75344 18.2753 8.53024C18.2753 7.30703 17.2837 6.31543 16.0605 6.31543C14.8373 6.31543 13.8457 7.30703 13.8457 8.53024C13.8457 9.75344 14.8373 10.745 16.0605 10.745Z" stroke="currentColor" stroke-width="1.5" stroke-miterlimit="10" stroke-linecap="round" stroke-linejoin="round"/>
<path d="M8.97359 5.42961C10.1968 5.42961 11.1884 4.43801 11.1884 3.21481C11.1884 1.9916 10.1968 1 8.97359 1C7.75039 1 6.75879 1.9916 6.75879 3.21481C6.75879 4.43801 7.75039 5.42961 8.97359 5.42961Z" stroke="currentColor" stroke-width="1.5" stroke-miterlimit="10" stroke-linecap="round" stroke-linejoin="round"/>
<path d="M13.4029 15.6183C13.4029 15.6183 17.1415 14.068 18.4615 13.8465C19.5601 13.6605 20.2688 14.1477 20.6941 14.5109C21.2079 14.945 21.0484 15.7867 20.4106 16.017L9.95668 19.7822C9.18592 20.0568 8.3443 20.0214 7.60898 19.6759L1.51384 16.8232C1.20376 16.6815 1 16.3625 1 16.017V11.2242C1 10.7015 1.45182 10.294 1.97451 10.3383C2.98446 10.4357 4.3665 10.7812 6.31553 12.0747H6.46614H10.187C12.2778 12.0747 13.4029 13.6605 13.4029 15.6183ZM13.4029 15.6183H13.084H6.31553" stroke="currentColor" stroke-width="1.5" stroke-miterlimit="10" stroke-linecap="round" stroke-linejoin="round"/>
</svg>
