<svg width="28" height="28" viewBox="0 0 28 28" fill="none" xmlns="http://www.w3.org/2000/svg">
<path d="M17.9546 12.4441V11.6663C17.9546 10.3733 16.8907 9.33301 15.5682 9.33301H12.3864C11.0639 9.33301 10 10.3733 10 11.6663C10 12.9593 11.0639 13.9996 12.3864 13.9996H15.5682C16.8907 13.9996 17.9546 15.0398 17.9546 16.3329C17.9546 17.6259 16.8907 18.6662 15.5682 18.6662H12.3864C11.0639 18.6662 10 17.6259 10 16.3329V15.5551" stroke="currentColor" stroke-width="1.6" stroke-miterlimit="10"/>
<path d="M13.9775 21.0003V18.667" stroke="currentColor" stroke-width="1.6" stroke-miterlimit="10"/>
<path d="M13.9775 7V9.33329" stroke="currentColor" stroke-width="1.6" stroke-miterlimit="10"/>
<path d="M7.74074 13.8889H1.57778M3.88889 11L1 13.8889L3.88889 16.7778" stroke="currentColor" stroke-width="1.4" stroke-linejoin="round"/>
<path d="M20.2593 13.8889H26.4222M24.1111 11L27 13.8889L24.1111 16.7778" stroke="currentColor" stroke-width="1.4" stroke-linejoin="round"/>
<path d="M2.46875 8C4.6368 3.84022 8.98888 1 14.0043 1C19.0198 1 23.3719 3.84022 25.5399 8" stroke="currentColor" stroke-width="1.6" stroke-linecap="round"/>
<path d="M2.46875 20C4.6368 24.1598 8.98888 27 14.0043 27C19.0198 27 23.3719 24.1598 25.5399 20" stroke="currentColor" stroke-width="1.6" stroke-linecap="round"/>
</svg>

