<svg width="24" height="24" viewBox="0 0 24 24" fill="none" xmlns="http://www.w3.org/2000/svg">
    <path d="M20.8979 4V3.25V4ZM1.99489 4V3.25V4ZM1 4.93317H0.25H1ZM1 17.9975H0.25H1ZM13.1355 9.07912C12.7213 9.07912 12.3855 9.41491 12.3855 9.82912C12.3855 10.2433 12.7213 10.5791 13.1355 10.5791V9.07912ZM19.2889 10.5791C19.7031 10.5791 20.0389 10.2433 20.0389 9.82912C20.0389 9.41491 19.7031 9.07912 19.2889 9.07912V10.5791ZM13.1355 6.18084C12.7213 6.18084 12.3855 6.51663 12.3855 6.93084C12.3855 7.34506 12.7213 7.68084 13.1355 7.68084V6.18084ZM19.2889 7.68084C19.7031 7.68084 20.0389 7.34506 20.0389 6.93084C20.0389 6.51663 19.7031 6.18084 19.2889 6.18084V7.68084ZM18.8732 12.9149L18.3602 13.4619L18.3602 13.4619L18.8732 12.9149ZM19.7719 13.7578L20.285 13.2107L20.285 13.2107L19.7719 13.7578ZM22.0057 15.8529L22.5187 15.3059V15.3059L22.0057 15.8529ZM22.9043 16.6958L23.4174 16.1488L23.4174 16.1488L22.9043 16.6958ZM22.9043 17.1293L22.3912 16.5822L22.3912 16.5822L22.9043 17.1293ZM22.0057 17.9722L21.4926 17.4251L22.0057 17.9722ZM19.7719 20.0673L19.2588 19.5203V19.5203L19.7719 20.0673ZM18.8732 20.9102L19.3863 21.4573L18.8732 20.9102ZM18.4111 20.9102L18.9242 20.3632L18.4111 20.9102ZM17.5125 20.0673L18.0256 19.5203L18.0256 19.5203L17.5125 20.0673ZM15.2787 17.9722L15.7918 17.4251L15.7918 17.4251L15.2787 17.9722ZM14.3801 17.1293L14.8932 16.5823V16.5822L14.3801 17.1293ZM14.3801 16.6958L14.8932 17.2428V17.2428L14.3801 16.6958ZM15.2787 15.8529L14.7656 15.3059V15.3059L15.2787 15.8529ZM17.5125 13.7578L16.9994 13.2107L17.5125 13.7578ZM18.4111 12.9149L18.9242 13.4619L18.4111 12.9149ZM8.20919 8.5247C8.20919 9.09671 7.70009 9.64104 6.9694 9.64104V11.141C8.43657 11.141 9.70919 10.0142 9.70919 8.5247H8.20919ZM6.9694 9.64104C6.23871 9.64104 5.72961 9.09671 5.72961 8.5247H4.22961C4.22961 10.0142 5.50223 11.141 6.9694 11.141V9.64104ZM5.72961 8.5247C5.72961 7.95269 6.23871 7.40836 6.9694 7.40836V5.90836C5.50223 5.90836 4.22961 7.03521 4.22961 8.5247H5.72961ZM6.9694 7.40836C7.70009 7.40836 8.20919 7.95269 8.20919 8.5247H9.70919C9.70919 7.03521 8.43657 5.90836 6.9694 5.90836V7.40836ZM4.23723 15.556C4.23723 14.2109 5.41447 13.0399 6.96936 13.0399V11.5399C4.678 11.5399 2.73723 13.2934 2.73723 15.556H4.23723ZM6.96936 13.0399C8.52425 13.0399 9.70149 14.2109 9.70149 15.556H11.2015C11.2015 13.2934 9.26073 11.5399 6.96936 11.5399V13.0399ZM22.6428 11.5876V4.93317H21.1428V11.5876H22.6428ZM22.6428 4.93317C22.6428 4.4707 22.4465 4.0377 22.1145 3.72629L21.0883 4.82035C21.1294 4.85895 21.1428 4.90065 21.1428 4.93317H22.6428ZM22.1145 3.72629C21.7841 3.41641 21.3457 3.25 20.8979 3.25V4.75C20.9778 4.75 21.0455 4.78022 21.0883 4.82035L22.1145 3.72629ZM20.8979 3.25H1.99489V4.75H20.8979V3.25ZM1.99489 3.25C1.54707 3.25 1.10868 3.41641 0.778309 3.72629L1.80449 4.82035C1.84727 4.78022 1.915 4.75 1.99489 4.75V3.25ZM0.778309 3.72629C0.446308 4.03769 0.25 4.4707 0.25 4.93317H1.75C1.75 4.90065 1.76333 4.85895 1.80449 4.82035L0.778309 3.72629ZM0.25 4.93317V17.9975H1.75V4.93317H0.25ZM0.25 17.9975C0.25 18.46 0.446307 18.893 0.778309 19.2044L1.80449 18.1103C1.76333 18.0717 1.75 18.03 1.75 17.9975H0.25ZM0.778309 19.2044C1.10868 19.5143 1.54707 19.6807 1.99489 19.6807V18.1807C1.91499 18.1807 1.84727 18.1505 1.80449 18.1103L0.778309 19.2044ZM18.3602 13.4619L19.2588 14.3048L20.285 13.2107L19.3863 12.3678L18.3602 13.4619ZM20.0029 14.5975H21.5832V13.0975H20.0029V14.5975ZM21.1599 14.154V15.6362H22.6599V14.154H21.1599ZM21.4926 16.4L22.3912 17.2428L23.4174 16.1488L22.5187 15.3059L21.4926 16.4ZM22.3912 16.5822L21.4926 17.4251L22.5187 18.5192L23.4174 17.6763L22.3912 16.5822ZM21.1599 18.1889V19.6711H22.6599V18.1889H21.1599ZM21.5832 19.2276H20.0029V20.7276H21.5832V19.2276ZM19.2588 19.5203L18.3602 20.3632L19.3863 21.4573L20.285 20.6144L19.2588 19.5203ZM18.9242 20.3632L18.0256 19.5203L16.9994 20.6144L17.898 21.4573L18.9242 20.3632ZM17.2814 19.2276H15.7012V20.7276H17.2814V19.2276ZM16.1244 19.6711V18.1889H14.6244V19.6711H16.1244ZM15.7918 17.4251L14.8932 16.5823L13.867 17.6763L14.7656 18.5192L15.7918 17.4251ZM14.8932 17.2428L15.7918 16.4L14.7656 15.3059L13.867 16.1488L14.8932 17.2428ZM16.1244 15.6362V14.154H14.6244V15.6362H16.1244ZM15.7012 14.5975H17.2814V13.0975H15.7012V14.5975ZM18.0256 14.3048L18.9242 13.4619L17.898 12.3678L16.9994 13.2107L18.0256 14.3048ZM17.2814 14.5975C17.552 14.5975 17.8205 14.4971 18.0256 14.3048L16.9994 13.2107C17.0819 13.1333 17.1841 13.0975 17.2814 13.0975V14.5975ZM16.1244 14.154C16.1244 14.4435 15.889 14.5975 15.7012 14.5975V13.0975C15.1525 13.0975 14.6244 13.526 14.6244 14.154H16.1244ZM15.7918 16.4C15.9985 16.2061 16.1244 15.9325 16.1244 15.6362H14.6244C14.6244 15.5025 14.6815 15.3848 14.7656 15.3059L15.7918 16.4ZM14.8932 16.5822C15.0814 16.7588 15.0814 17.0663 14.8932 17.2428L13.867 16.1488C13.4235 16.5648 13.4235 17.2603 13.867 17.6763L14.8932 16.5822ZM16.1244 18.1889C16.1244 17.8926 15.9985 17.619 15.7918 17.4251L14.7656 18.5192C14.6815 18.4403 14.6244 18.3226 14.6244 18.1889H16.1244ZM15.7012 19.2276C15.8889 19.2276 16.1244 19.3816 16.1244 19.6711H14.6244C14.6244 20.2991 15.1525 20.7276 15.7012 20.7276V19.2276ZM18.0256 19.5203C17.8205 19.328 17.552 19.2276 17.2814 19.2276V20.7276C17.1841 20.7276 17.0819 20.6918 16.9994 20.6144L18.0256 19.5203ZM18.3602 20.3632C18.5211 20.2123 18.7633 20.2123 18.9242 20.3632L17.898 21.4573C18.3142 21.8476 18.9702 21.8476 19.3863 21.4573L18.3602 20.3632ZM20.0029 19.2276C19.7323 19.2276 19.4639 19.328 19.2588 19.5203L20.285 20.6144C20.2025 20.6918 20.1002 20.7276 20.0029 20.7276V19.2276ZM21.1599 19.6711C21.1599 19.3816 21.3954 19.2276 21.5832 19.2276V20.7276C22.1319 20.7276 22.6599 20.2991 22.6599 19.6711H21.1599ZM21.4926 17.4251C21.2859 17.619 21.1599 17.8926 21.1599 18.1889H22.6599C22.6599 18.3226 22.6029 18.4403 22.5187 18.5192L21.4926 17.4251ZM22.3912 17.2428C22.2029 17.0663 22.2029 16.7588 22.3912 16.5822L23.4174 17.6763C23.8609 17.2603 23.8609 16.5648 23.4174 16.1488L22.3912 17.2428ZM21.1599 15.6362C21.1599 15.9325 21.2858 16.2061 21.4926 16.4L22.5187 15.3059C22.6029 15.3848 22.6599 15.5025 22.6599 15.6362H21.1599ZM21.5832 14.5975C21.3954 14.5975 21.1599 14.4435 21.1599 14.154H22.6599C22.6599 13.526 22.1319 13.0975 21.5832 13.0975V14.5975ZM19.2588 14.3048C19.4639 14.4971 19.7323 14.5975 20.0029 14.5975V13.0975C20.1002 13.0975 20.2025 13.1333 20.285 13.2107L19.2588 14.3048ZM19.3863 12.3678C18.9702 11.9775 18.3142 11.9775 17.898 12.3678L18.9242 13.4619C18.7633 13.6128 18.5211 13.6128 18.3602 13.4619L19.3863 12.3678ZM1.99489 19.6807H12.5831V18.1807H1.99489V19.6807ZM13.1355 10.5791H19.2889V9.07912H13.1355V10.5791ZM13.1355 7.68084H19.2889V6.18084H13.1355V7.68084Z" fill="currentColor"/>
</svg>
