<svg width="24" height="24" viewBox="0 0 24 24" fill="none" xmlns="http://www.w3.org/2000/svg" id="myMoney">
    <path d="M23 14.7566C19.6031 16.1317 15.89 16.8889 12 16.8889C8.11003 16.8889 4.39692 16.1317 1 14.7566M16.8889 5.88889V3.44444C16.8889 2.09442 15.7945 1 14.4444 1H9.55555C8.20552 1 7.11111 2.09442 7.11111 3.44444V5.88889M12 13.2222H12.0122M3.44444 23H20.5556C21.9056 23 23 21.9056 23 20.5556V8.33333C23 6.9833 21.9056 5.88889 20.5556 5.88889H3.44444C2.09441 5.88889 1 6.9833 1 8.33333V20.5556C1 21.9056 2.09441 23 3.44444 23Z" stroke="currentColor" stroke-width="1.5" stroke-linejoin="round" stroke-linecap="round" />
</svg>