<svg width="24" height="24" viewBox="0 0 24 24" fill="none" xmlns="http://www.w3.org/2000/svg">
<path d="M12 1.75C12.4142 1.75 12.75 1.41421 12.75 1C12.75 0.585786 12.4142 0.25 12 0.25V1.75ZM23.75 11.67C23.75 11.2558 23.4142 10.92 23 10.92C22.5858 10.92 22.25 11.2558 22.25 11.67H23.75ZM15.909 0.25C15.4948 0.25 15.159 0.585786 15.159 1C15.159 1.41421 15.4948 1.75 15.909 1.75V0.25ZM22.8915 1H23.6415C23.6415 0.585786 23.3057 0.25 22.8915 0.25V1ZM22.1415 7.66393C22.1415 8.07815 22.4773 8.41393 22.8915 8.41393C23.3057 8.41393 23.6415 8.07815 23.6415 7.66393H22.1415ZM7.50334 9.305L7.93291 8.69021C7.63973 8.48536 7.24269 8.51603 6.98445 8.76347L7.50334 9.305ZM11.4857 12.0875L11.0561 12.7023C11.3509 12.9084 11.7505 12.876 12.0084 12.6253L11.4857 12.0875ZM4.72183 11.9702L4.20294 11.4287L4.20075 11.4308L4.72183 11.9702ZM0.938787 14.5819C0.640876 14.8697 0.632669 15.3445 0.920457 15.6424C1.20825 15.9404 1.68305 15.9486 1.98096 15.6608L0.938787 14.5819ZM17.1996 16.1651C16.9026 16.4539 16.8959 16.9287 17.1846 17.2257C17.4733 17.5227 17.9481 17.5294 18.2451 17.2407L17.1996 16.1651ZM20.0879 15.4493C20.3849 15.1606 20.3917 14.6858 20.1029 14.3888C19.8142 14.0918 19.3394 14.0851 19.0424 14.3738L20.0879 15.4493ZM14.0708 13.8827C13.7738 14.1715 13.7671 14.6463 14.0558 14.9433C14.3445 15.2403 14.8194 15.247 15.1164 14.9583L14.0708 13.8827ZM19.813 10.3928C20.11 10.1041 20.1167 9.62924 19.828 9.33223C19.5392 9.03522 19.0644 9.0285 18.7674 9.31722L19.813 10.3928ZM22.25 12C22.25 17.6609 17.6609 22.25 12 22.25V23.75C18.4893 23.75 23.75 18.4893 23.75 12H22.25ZM12 22.25C6.33908 22.25 1.75 17.6609 1.75 12H0.25C0.25 18.4893 5.51065 23.75 12 23.75V22.25ZM1.75 12C1.75 6.33908 6.33908 1.75 12 1.75V0.25C5.51065 0.25 0.25 5.51065 0.25 12H1.75ZM23.75 12V11.67H22.25V12H23.75ZM15.909 1.75H22.8915V0.25H15.909V1.75ZM22.1415 1V7.66393H23.6415V1H22.1415ZM7.07377 9.91979L11.0561 12.7023L11.9152 11.4728L7.93291 8.69021L7.07377 9.91979ZM5.24072 12.5118L8.02223 9.84653L6.98445 8.76347L4.20294 11.4287L5.24072 12.5118ZM1.98096 15.6608L5.24292 12.5097L4.20075 11.4308L0.938787 14.5819L1.98096 15.6608ZM12.0084 12.6253L23.4143 1.53778L22.3688 0.462219L10.9629 11.5498L12.0084 12.6253ZM18.2451 17.2407L20.0879 15.4493L19.0424 14.3738L17.1996 16.1651L18.2451 17.2407ZM15.1164 14.9583L19.813 10.3928L18.7674 9.31722L14.0708 13.8827L15.1164 14.9583Z" fill="currentColor"/>
</svg>
