<svg width="22" height="19" viewBox="0 0 22 19" fill="none" xmlns="http://www.w3.org/2000/svg">
<path d="M20.1305 12.3047V16.6525C20.1305 17.1308 19.7392 17.5221 19.261 17.5221H2.73926" stroke="currentColor" stroke-width="1.5" stroke-miterlimit="10" stroke-linecap="round" stroke-linejoin="round"/>
<path d="M2.73926 4.47754H19.261C19.7392 4.47754 20.1305 4.86884 20.1305 5.3471V8.82536" stroke="currentColor" stroke-width="1.5" stroke-miterlimit="10" stroke-linecap="round" stroke-linejoin="round"/>
<path d="M1 4.47754V5.3471V15.7819" stroke="currentColor" stroke-width="1.5" stroke-miterlimit="10" stroke-linecap="round" stroke-linejoin="round"/>
<path d="M2.73913 1C1.78261 1 1 1.78261 1 2.73913C1 3.69564 1.78261 4.47825 2.73913 4.47825" stroke="currentColor" stroke-width="1.5" stroke-miterlimit="10" stroke-linecap="round" stroke-linejoin="round"/>
<path d="M1 5.34795V2.73926" stroke="currentColor" stroke-width="1.5" stroke-miterlimit="10" stroke-linecap="round" stroke-linejoin="round"/>
<path d="M17.5218 4.47825V1.86956C17.5218 1.3913 17.1305 1 16.6523 1H2.73926" stroke="currentColor" stroke-width="1.5" stroke-miterlimit="10" stroke-linecap="round" stroke-linejoin="round"/>
<path d="M1 15.7822C1 16.7387 1.78261 17.5214 2.73913 17.5214" stroke="currentColor" stroke-width="1.5" stroke-miterlimit="10" stroke-linecap="round" stroke-linejoin="round"/>
<path d="M14.913 12.3044C13.9564 12.3044 13.1738 11.5218 13.1738 10.5653C13.1738 9.60878 13.9564 8.82617 14.913 8.82617" stroke="currentColor" stroke-width="1.5" stroke-miterlimit="10" stroke-linecap="round" stroke-linejoin="round"/>
<path d="M14.9131 12.3044H20.1305C20.6087 12.3044 21 11.9131 21 11.4349V9.69574C21 9.21748 20.6087 8.82617 20.1305 8.82617H14.9131" stroke="currentColor" stroke-width="1.5" stroke-miterlimit="10" stroke-linecap="round" stroke-linejoin="round"/>
</svg>
