<svg width="24" height="25" viewBox="0 0 24 25" fill="none" xmlns="http://www.w3.org/2000/svg" id="needsAccount">
        <path d="M10.6441 1.91996L11.0666 2.53959V2.53959L10.6441 1.91996ZM13.3559 1.91996L12.9334 2.53959L13.3559 1.91996ZM10.6441 16.324L10.2215 16.9436H10.2215L10.6441 16.324ZM13.3559 16.324L13.7785 16.9436L13.3559 16.324ZM14.75 15.3733L14.3274 14.7537L14.75 15.3733ZM9.25 15.3733L9.67256 14.7537L9.25 15.3733ZM7.30278 3.29079C6.96057 3.52417 6.87234 3.99077 7.10571 4.33298C7.33909 4.6752 7.80569 4.76342 8.1479 4.53005L7.30278 3.29079ZM15.8521 4.53005C16.1943 4.76342 16.6609 4.6752 16.8943 4.33298C17.1277 3.99077 17.0394 3.52417 16.6972 3.29079L15.8521 4.53005ZM22.7438 7.46688C22.4445 7.18055 21.9697 7.19107 21.6834 7.49038C21.3971 7.78968 21.4076 8.26444 21.7069 8.55078L22.7438 7.46688ZM2.29311 8.55077C2.59242 8.26444 2.60294 7.78968 2.3166 7.49037C2.03027 7.19107 1.55551 7.18055 1.2562 7.46688L2.29311 8.55077ZM19.9441 3.95935V3.20935V3.95935ZM22.0693 6.08459H21.3193H22.0693ZM4.02791 3.95935V4.70935V3.95935ZM1.90268 6.08458H1.15268H1.90268ZM11.2588 14.1033C11.2588 14.5176 11.5946 14.8533 12.0088 14.8533C12.423 14.8533 12.7588 14.5176 12.7588 14.1033H11.2588ZM12.7588 12.9081C12.7588 12.4939 12.423 12.1581 12.0088 12.1581C11.5946 12.1581 11.2588 12.4939 11.2588 12.9081H12.7588ZM12.7588 6.32983C12.7588 5.91562 12.423 5.57983 12.0088 5.57983C11.5946 5.57983 11.2588 5.91562 11.2588 6.32983H12.7588ZM11.2588 7.52509C11.2588 7.93931 11.5946 8.27509 12.0088 8.27509C12.423 8.27509 12.7588 7.93931 12.7588 7.52509H11.2588ZM22.25 9.83509V20.9995H23.75V9.83509H22.25ZM20.5556 22.75H3.44444V24.25H20.5556V22.75ZM1.75 20.9995V9.83509H0.25V20.9995H1.75ZM11.0666 2.53959C11.6328 2.15347 12.3672 2.15347 12.9334 2.53959L13.7785 1.30033C12.7025 0.566556 11.2975 0.566555 10.2215 1.30033L11.0666 2.53959ZM3.44444 22.75C2.52457 22.75 1.75 21.9824 1.75 20.9995H0.25C0.25 22.7786 1.66425 24.25 3.44444 24.25V22.75ZM22.25 20.9995C22.25 21.9824 21.4754 22.75 20.5556 22.75V24.25C22.3357 24.25 23.75 22.7786 23.75 20.9995H22.25ZM10.2215 16.9436C11.2975 17.6774 12.7025 17.6774 13.7785 16.9436L12.9334 15.7044C12.3672 16.0905 11.6328 16.0905 11.0666 15.7044L10.2215 16.9436ZM14.3274 15.9929L22.5774 21.6191L23.4226 20.3798L15.1726 14.7537L14.3274 15.9929ZM13.7785 16.9436L15.1726 15.9929L14.3274 14.7537L12.9334 15.7044L13.7785 16.9436ZM15.1726 15.9929L23.4211 10.3677L22.576 9.12849L14.3274 14.7537L15.1726 15.9929ZM23.4213 10.3676L23.4228 10.3666L22.5772 9.12761L22.5758 9.12861L23.4213 10.3676ZM1.42256 21.6191L9.67256 15.9929L8.82744 14.7537L0.577437 20.3798L1.42256 21.6191ZM0.577341 10.3667L0.578816 10.3677L1.42413 9.12855L1.42266 9.12754L0.577341 10.3667ZM0.578912 10.3677L8.82744 15.9929L9.67256 14.7537L1.42404 9.12849L0.578912 10.3677ZM8.82744 15.9929L10.2215 16.9436L11.0666 15.7044L9.67256 14.7537L8.82744 15.9929ZM8.1479 4.53005L11.0666 2.53959L10.2215 1.30033L7.30278 3.29079L8.1479 4.53005ZM12.9334 2.53959L15.8521 4.53005L16.6972 3.29079L13.7785 1.30033L12.9334 2.53959ZM23.75 9.83509C23.75 9.79753 23.7494 9.76006 23.7481 9.7227L22.249 9.77353C22.2497 9.794 22.25 9.81452 22.25 9.83509H23.75ZM23.7481 9.72268C23.7189 8.86252 23.3557 8.05228 22.7438 7.46688L21.7069 8.55078C22.0339 8.86363 22.233 9.3023 22.249 9.77355L23.7481 9.72268ZM1.75 9.83509C1.75 9.81452 1.75035 9.794 1.75104 9.77355L0.251906 9.72268C0.250638 9.76006 0.25 9.79753 0.25 9.83509H1.75ZM1.75104 9.77355C1.76704 9.3023 1.96608 8.86362 2.29311 8.55077L1.2562 7.46688C0.644271 8.05228 0.281097 8.86252 0.251906 9.72268L1.75104 9.77355ZM4.02791 4.70935L19.9441 4.70935V3.20935L4.02791 3.20935V4.70935ZM21.3193 6.08459V10.2891H22.8193V6.08459H21.3193ZM19.9441 4.70935C20.7036 4.70935 21.3193 5.32507 21.3193 6.08459H22.8193C22.8193 4.49664 21.5321 3.20935 19.9441 3.20935V4.70935ZM4.02791 3.20935C2.43996 3.20935 1.15268 4.49664 1.15268 6.08458H2.65268C2.65268 5.32506 3.26839 4.70935 4.02791 4.70935V3.20935ZM2.65268 10.2891L2.65268 6.08458H1.15268L1.15268 10.2891H2.65268ZM12.7588 14.1033V12.9081H11.2588V14.1033H12.7588ZM11.2588 6.32983V7.52509H12.7588V6.32983H11.2588ZM8.6875 11.5666C8.6875 12.7321 9.62836 13.658 10.7789 13.658V12.158C10.4505 12.158 10.1875 11.8974 10.1875 11.5666H8.6875ZM10.7789 13.658H13.2211V12.158H10.7789V13.658ZM13.2211 13.658C14.3865 13.658 15.3125 12.7172 15.3125 11.5666H13.8125C13.8125 11.895 13.5518 12.158 13.2211 12.158V13.658ZM15.3125 11.5666C15.3125 10.4129 14.3748 9.47515 13.2211 9.47515V10.9752C13.5464 10.9752 13.8125 11.2413 13.8125 11.5666H15.3125ZM13.2211 9.47515H10.7789V10.9752H13.2211V9.47515ZM10.7789 9.47515C10.4482 9.47515 10.1875 9.21215 10.1875 8.88371H8.6875C8.6875 10.0343 9.61348 10.9752 10.7789 10.9752V9.47515ZM10.1875 8.88371C10.1875 8.55841 10.4536 8.29227 10.7789 8.29227V6.79227C9.62521 6.79227 8.6875 7.72999 8.6875 8.88371H10.1875ZM10.7789 8.29227H13.2211V6.79227H10.7789V8.29227ZM13.2211 8.29227C13.5518 8.29227 13.8125 8.55527 13.8125 8.88371H15.3125C15.3125 7.73312 14.3865 6.79227 13.2211 6.79227V8.29227Z" fill="currentColor"/>
</svg>
