<svg viewBox="0 0 24 24" fill="currentColor">
    <path
      d="M18,3 C20.209139,3 22,4.790861 22,7 L22,14 C22,16.209139 20.209139,18 18,18 L11.2867962,18 L5.82499735,21.4136243 C4.65415602,22.1454001 3.11178007,21.7894672 2.38000424,20.6186259 C2.13167361,20.2212969 2,19.7621778 2,19.2936285 L2,7 C2,4.790861 3.790861,3 6,3 L18,3 Z M18,5 L6,5 C4.8954305,5 4,5.8954305 4,7 L4,19.2936285 C4,19.3873384 4.02633472,19.4791622 4.07600085,19.558628 C4.22235601,19.7927963 4.5308312,19.8639829 4.76499947,19.7176277 L10.7132038,16 L18,16 C19.1045695,16 20,15.1045695 20,14 L20,7 C20,5.8954305 19.1045695,5 18,5 Z M8,10 C8.55228475,10 9,10.4477153 9,11 C9,11.5522847 8.55228475,12 8,12 C7.44771525,12 7,11.5522847 7,11 C7,10.4477153 7.44771525,10 8,10 Z M12,10 C12.5522847,10 13,10.4477153 13,11 C13,11.5522847 12.5522847,12 12,12 C11.4477153,12 11,11.5522847 11,11 C11,10.4477153 11.4477153,10 12,10 Z M16,10 C16.5522847,10 17,10.4477153 17,11 C17,11.5522847 16.5522847,12 16,12 C15.4477153,12 15,11.5522847 15,11 C15,10.4477153 15.4477153,10 16,10 Z"
      fillRule="evenodd"
    />
  </svg>