<svg width="24" height="24" viewBox="0 0 24 24" fill="none" xmlns="http://www.w3.org/2000/svg">
<path fill-rule="evenodd" clip-rule="evenodd" d="M15.6399 3.75H3.81818C2.3849 3.75 1.25 4.93233 1.25 6.35714V17.6429C1.25 19.0677 2.3849 20.25 3.81818 20.25H4.08988L5.13988 18.75H3.81818C3.24315 18.75 2.75 18.2694 2.75 17.6429V6.35714C2.75 5.73061 3.24315 5.25 3.81818 5.25H14.5899L15.6399 3.75ZM12.7971 7.81117H12.7603V7.00146C12.7603 6.58725 12.4245 6.25146 12.0103 6.25146C11.5961 6.25146 11.2603 6.58725 11.2603 7.00146V7.81117H10.5705C9.22554 7.81117 8.25 8.98936 8.25 10.2868C8.25 11.2112 8.74097 12.078 9.51632 12.4979L10.3973 11.2394C10.0612 11.1501 9.75 10.8064 9.75 10.2868C9.75 9.68164 10.1839 9.31116 10.5705 9.31116H11.7471L12.7971 7.81117ZM15.3364 10.2868L15.6984 9.76966C15.7323 9.93821 15.75 10.1115 15.75 10.2868H15.3364ZM14.4712 11.5228L13.5892 12.7828C13.9265 12.8679 14.25 13.2155 14.25 13.7381C14.25 14.3466 13.8232 14.7138 13.4295 14.7138H12.2375L11.1875 16.2138H11.2603V17.0015C11.2603 17.4157 11.5961 17.7515 12.0103 17.7515C12.4245 17.7515 12.7603 17.4157 12.7603 17.0015V16.2138H13.4295C14.7875 16.2138 15.75 15.0323 15.75 13.7381C15.75 12.8088 15.2495 11.9406 14.4712 11.5228ZM9.41217 18.75H20.1818C20.7568 18.75 21.25 18.2694 21.25 17.6429V6.5C21.25 5.80964 20.6904 5.25 20 5.25H18.8622L19.9122 3.75H20C21.5188 3.75 22.75 4.98122 22.75 6.5V17.6429C22.75 19.0677 21.6151 20.25 20.1818 20.25H8.36217L9.41217 18.75ZM8.29796 14.2385L8.64818 13.7381H8.25C8.25 13.9081 8.26643 14.0756 8.29796 14.2385Z" fill="currentColor"/>
<path d="M5 22L19 2" stroke="currentColor" stroke-width="1.5" stroke-linecap="round"/>
</svg>
