<svg width="22" height="24" viewBox="0 0 22 24" fill="none" xmlns="http://www.w3.org/2000/svg">
<path d="M13.5 9.55556L11 10.7778M11 10.7778L8.5 9.55556M11 10.7778V13.8333M21 5.88889L18.5 7.11111M21 5.88889L18.5 4.66667M21 5.88889V8.94444M13.5 2.22222L11 1L8.5 2.22222M1 5.88889L3.5 4.66667M1 5.88889L3.5 7.11111M1 5.88889V8.94444M11 23L8.5 21.7778M11 23L13.5 21.7778M11 23V19.9444M3.5 19.3333L1 18.1111V15.0556M18.5 19.3333L21 18.1111V15.0556" stroke="currentColor" stroke-width="2" stroke-linecap="round" stroke-linejoin="round"/>
</svg>
