<svg width="24" height="18" viewBox="0 0 24 18" fill="none" xmlns="http://www.w3.org/2000/svg">
<path d="M0.949219 0.890625V0.140625C0.535005 0.140625 0.199219 0.476411 0.199219 0.890625L0.949219 0.890625ZM22.9492 0.890625H23.6992C23.6992 0.476411 23.3634 0.140625 22.9492 0.140625V0.890625ZM4.99945 10.4724L4.26804 10.3065L4.99945 10.4724ZM9.87555 10.4724L10.615 10.3468L10.6115 10.3265L10.607 10.3065L9.87555 10.4724ZM4.57031 12.876C4.1561 12.876 3.82031 13.2118 3.82031 13.626C3.82031 14.0402 4.1561 14.376 4.57031 14.376V12.876ZM19.3281 14.376C19.7423 14.376 20.0781 14.0402 20.0781 13.626C20.0781 13.2118 19.7423 12.876 19.3281 12.876V14.376ZM13.3203 4.29688C12.9061 4.29688 12.5703 4.63266 12.5703 5.04688C12.5703 5.46109 12.9061 5.79688 13.3203 5.79688V4.29688ZM19.25 5.79688C19.6642 5.79688 20 5.46109 20 5.04688C20 4.63266 19.6642 4.29688 19.25 4.29688V5.79688ZM13.3203 7.79688C12.9061 7.79688 12.5703 8.13266 12.5703 8.54688C12.5703 8.96109 12.9061 9.29688 13.3203 9.29688V7.79688ZM19.25 9.29688C19.6642 9.29688 20 8.96109 20 8.54688C20 8.13266 19.6642 7.79688 19.25 7.79688V9.29688ZM20.5048 16.3906H3.39366V17.8906H20.5048V16.3906ZM1.69922 14.6406V0.890625H0.199219V14.6406H1.69922ZM3.39366 16.3906C2.47365 16.3906 1.69922 15.6231 1.69922 14.6406H0.199219C0.199219 16.4196 1.61362 17.8906 3.39366 17.8906V16.3906ZM22.1992 14.6406C22.1992 15.6231 21.4248 16.3906 20.5048 16.3906V17.8906C22.2848 17.8906 23.6992 16.4196 23.6992 14.6406H22.1992ZM23.6992 14.6406V0.890625H22.1992V14.6406H23.6992ZM22.9492 0.140625H0.949219V1.64062H22.9492V0.140625ZM7.9375 5.27148C7.9375 5.54763 7.71364 5.77148 7.4375 5.77148V7.27148C8.54207 7.27148 9.4375 6.37605 9.4375 5.27148H7.9375ZM7.4375 5.77148C7.16136 5.77148 6.9375 5.54763 6.9375 5.27148H5.4375C5.4375 6.37605 6.33293 7.27148 7.4375 7.27148V5.77148ZM6.9375 5.27148C6.9375 4.99534 7.16136 4.77148 7.4375 4.77148V3.27148C6.33293 3.27148 5.4375 4.16692 5.4375 5.27148H6.9375ZM7.4375 4.77148C7.71364 4.77148 7.9375 4.99534 7.9375 5.27148H9.4375C9.4375 4.16691 8.54207 3.27148 7.4375 3.27148V4.77148ZM5.6875 11.028C5.6875 10.8933 5.70259 10.763 5.73086 10.6384L4.26804 10.3065C4.21523 10.5392 4.1875 10.7808 4.1875 11.028H5.6875ZM5.73086 10.6384C5.90767 9.85919 6.60561 9.278 7.4375 9.278V7.778C5.88985 7.778 4.59648 8.85904 4.26804 10.3065L5.73086 10.6384ZM7.4375 9.278C8.26939 9.278 8.96733 9.85919 9.14414 10.6384L10.607 10.3065C10.2785 8.85904 8.98515 7.778 7.4375 7.778V9.278ZM9.87555 10.4724C9.13615 10.5981 9.13614 10.598 9.13614 10.598C9.13614 10.598 9.13613 10.598 9.13613 10.598C9.13612 10.5979 9.13612 10.5979 9.13612 10.5979C9.13611 10.5978 9.13611 10.5978 9.13611 10.5978C9.13611 10.5978 9.13612 10.5979 9.13615 10.5981C9.13621 10.5984 9.13632 10.5991 9.13649 10.6001C9.13682 10.6021 9.13736 10.6053 9.13807 10.6097C9.1395 10.6184 9.14163 10.6316 9.14422 10.6482C9.14944 10.6816 9.15637 10.7277 9.16323 10.7787C9.17877 10.8941 9.1875 10.9882 9.1875 11.028H10.6875C10.6875 10.8769 10.6653 10.6932 10.6498 10.5785C10.6412 10.5145 10.6326 10.4576 10.6262 10.4166C10.623 10.396 10.6203 10.3792 10.6184 10.3673C10.6174 10.3613 10.6166 10.3565 10.616 10.3531C10.6157 10.3513 10.6155 10.3499 10.6153 10.3489C10.6152 10.3484 10.6151 10.3479 10.6151 10.3476C10.6151 10.3474 10.615 10.3473 10.615 10.3471C10.615 10.3471 10.615 10.347 10.615 10.347C10.615 10.3469 10.615 10.3469 10.615 10.3469C10.615 10.3468 10.615 10.3468 9.87555 10.4724ZM4.57031 14.376H19.3281V12.876H4.57031V14.376ZM13.3203 5.79688H19.25V4.29688H13.3203V5.79688ZM13.3203 9.29688H19.25V7.79688H13.3203V9.29688Z" fill="currentColor"/>
</svg>
