<svg width="16" height="15" viewBox="0 0 16 15" fill="none" xmlns="http://www.w3.org/2000/svg">
<path d="M11.2507 1.52779L11.7805 2.05865L11.2507 1.52779ZM13.8042 1.52779L14.334 0.996942V0.996942L13.8042 1.52779ZM13.8042 4.07621L13.2744 3.54536L13.8042 4.07621ZM3.86079 14V14.75C4.05945 14.75 4.24999 14.6712 4.3906 14.5309L3.86079 14ZM1.33301 14H0.583008C0.583008 14.4142 0.918794 14.75 1.33301 14.75L1.33301 14ZM1.33301 11.426L0.803201 10.8951C0.662229 11.0358 0.583008 11.2268 0.583008 11.426H1.33301ZM10.6972 2.07814C10.404 1.78554 9.92914 1.78601 9.63653 2.07919C9.34393 2.37237 9.3444 2.84725 9.63758 3.13985L10.6972 2.07814ZM12.191 5.68827C12.4842 5.98087 12.9591 5.9804 13.2517 5.68722C13.5443 5.39404 13.5438 4.91917 13.2506 4.62656L12.191 5.68827ZM11.7805 2.05865C12.1929 1.64712 12.862 1.64712 13.2744 2.05865L14.334 0.996942C13.3361 0.00101936 11.7188 0.00101936 10.7209 0.996942L11.7805 2.05865ZM13.2744 2.05865C13.6859 2.46936 13.6859 3.13465 13.2744 3.54536L14.334 4.60707C15.3327 3.61033 15.3327 1.99368 14.334 0.996942L13.2744 2.05865ZM13.2744 3.54536L3.33099 13.4691L4.3906 14.5309L14.334 4.60707L13.2744 3.54536ZM3.86079 13.25H1.33301V14.75H3.86079V13.25ZM10.7209 0.996942L0.803201 10.8951L1.86281 11.9568L11.7805 2.05865L10.7209 0.996942ZM0.583008 11.426V14H2.08301V11.426H0.583008ZM9.63758 3.13985L12.191 5.68827L13.2506 4.62656L10.6972 2.07814L9.63758 3.13985Z" fill="currentColor"/>
</svg>
