<svg width="24" height="24" viewBox="0 0 24 24" fill="none" xmlns="http://www.w3.org/2000/svg" id="pennyJar">
<rect x="4" y="6" width="16" height="15" rx="2" stroke="currentColor" stroke-width="1.5"/>
<path d="M11.35 18C11.35 18.359 11.641 18.65 12 18.65C12.3589 18.65 12.65 18.359 12.65 18H11.35ZM12.65 16.6178C12.65 16.2589 12.3589 15.9678 12 15.9678C11.641 15.9678 11.35 16.2589 11.35 16.6178H12.65ZM12.65 9C12.65 8.64101 12.3589 8.35 12 8.35C11.641 8.35 11.35 8.64101 11.35 9H12.65ZM11.35 10.3822C11.35 10.7411 11.641 11.0322 12 11.0322C12.3589 11.0322 12.65 10.7411 12.65 10.3822H11.35ZM12.65 18V16.6178H11.35V18H12.65ZM11.35 9V10.3822H12.65V9H11.35ZM9.35 15.0557C9.35 15.5975 9.49589 16.1169 9.76712 16.5197C10.0361 16.9191 10.4767 17.2614 11.0476 17.2614V15.9614C11.0384 15.9614 10.9552 15.9566 10.8454 15.7936C10.7379 15.6338 10.65 15.3754 10.65 15.0557H9.35ZM11.0476 17.2614H12.9524V15.9614H11.0476V17.2614ZM12.9524 17.2614C13.5233 17.2614 13.9639 16.9191 14.2329 16.5197C14.5041 16.1169 14.65 15.5975 14.65 15.0557H13.35C13.35 15.3754 13.2621 15.6338 13.1546 15.7936C13.0448 15.9566 12.9616 15.9614 12.9524 15.9614V17.2614ZM14.65 15.0557C14.65 14.5139 14.5041 13.9945 14.2329 13.5917C13.9639 13.1923 13.5233 12.85 12.9524 12.85V14.15C12.9616 14.15 13.0448 14.1548 13.1546 14.3179C13.2621 14.4776 13.35 14.736 13.35 15.0557H14.65ZM11.0476 12.85C11.0384 12.85 10.9552 12.8451 10.8454 12.6821C10.7379 12.5224 10.65 12.2639 10.65 11.9443H9.35C9.35 12.486 9.49589 13.0054 9.76712 13.4082C10.0361 13.8077 10.4767 14.15 11.0476 14.15V12.85ZM10.65 11.9443C10.65 11.6246 10.7379 11.3661 10.8454 11.2064C10.9552 11.0434 11.0384 11.0385 11.0476 11.0385V9.73853C10.4767 9.73853 10.0361 10.0808 9.76712 10.4803C9.49589 10.8831 9.35 11.4025 9.35 11.9443H10.65ZM11.0476 11.0385H12.9524V9.73853H11.0476V11.0385ZM12.9524 11.0385C12.9616 11.0385 13.0448 11.0434 13.1546 11.2064C13.2621 11.3661 13.35 11.6246 13.35 11.9443H14.65C14.65 11.4025 14.5041 10.8831 14.2329 10.4803C13.9639 10.0808 13.5233 9.73853 12.9524 9.73853V11.0385ZM12.9524 12.85H11.0476V14.15H12.9524V12.85Z" fill="currentColor"/>
<path d="M18 3H6" stroke="currentColor" stroke-width="1.5" stroke-linecap="round"/>
</svg>
