<svg width="24" height="24" viewBox="0 0 24 24" fill="none" xmlns="http://www.w3.org/2000/svg">
<path d="M18.5436 2C16.6348 2 15.0876 3.54722 15.0876 5.45604C15.0876 7.36486 16.6348 8.91207 18.5436 8.91207C20.4524 8.91207 21.9997 7.36486 21.9997 5.45604C21.9509 3.50842 20.442 2 18.5436 2Z" fill="currentColor"/>
<path d="M8.03672 12.9253C8.03672 11.2477 9.39674 9.8877 11.0744 9.8877C12.752 9.8877 14.112 11.2477 14.112 12.9253C14.112 14.603 12.752 15.963 11.0744 15.963C9.36354 15.9202 8.03672 14.5934 8.03672 12.9253Z" fill="currentColor"/>
<path d="M2 20.3977C2 19.5121 2.71801 18.7941 3.60362 18.7941C4.48923 18.7941 5.20723 19.5121 5.20723 20.3977C5.20723 21.2833 4.48923 22.0013 3.60362 22.0013C2.71921 21.9981 2.0032 21.2817 2 20.3977Z" fill="currentColor"/>
</svg>
