<svg width="24" height="24" viewBox="0 0 24 24" fill="none" xmlns="http://www.w3.org/2000/svg">
    <path d="M12 3.44444C12 2.09441 13.0944 1 14.4444 1C15.7945 1 16.8889 2.09442 16.8889 3.44444V4.66667C16.8889 5.34168 17.4361 5.88889 18.1111 5.88889H21.7778C22.4528 5.88889 23 6.4361 23 7.11111V10.7778C23 11.4528 22.4528 12 21.7778 12H20.5556C19.2055 12 18.1111 13.0944 18.1111 14.4444C18.1111 15.7945 19.2055 16.8889 20.5556 16.8889H21.7778C22.4528 16.8889 23 17.4361 23 18.1111V21.7778C23 22.4528 22.4528 23 21.7778 23H18.1111C17.4361 23 16.8889 22.4528 16.8889 21.7778V20.5556C16.8889 19.2055 15.7945 18.1111 14.4444 18.1111C13.0944 18.1111 12 19.2055 12 20.5556V21.7778C12 22.4528 11.4528 23 10.7778 23H7.11111C6.4361 23 5.88889 22.4528 5.88889 21.7778V18.1111C5.88889 17.4361 5.34168 16.8889 4.66667 16.8889H3.44444C2.09441 16.8889 1 15.7945 1 14.4444C1 13.0944 2.09442 12 3.44444 12H4.66667C5.34168 12 5.88889 11.4528 5.88889 10.7778V7.11111C5.88889 6.4361 6.4361 5.88889 7.11111 5.88889H10.7778C11.4528 5.88889 12 5.34168 12 4.66667V3.44444Z" stroke="currentColor" stroke-width="1.5" stroke-linecap="round" stroke-linejoin="round" />
</svg>