<svg width="22" height="22" viewBox="0 0 22 22" fill="none" xmlns="http://www.w3.org/2000/svg" id="questionAndInfo">
<path d="M17.9827 17.9833L12.0607 12.0613M9.81656 9.81715L9.81228 9.82144M18.0711 3.92893C21.9763 7.83417 21.9763 14.1658 18.0711 18.0711C14.1658 21.9763 7.83418 21.9763 3.92893 18.0711C0.0236895 14.1658 0.0236893 7.83418 3.92893 3.92893C7.83417 0.0236895 14.1658 0.023689 18.0711 3.92893ZM14.8882 7.11056C17.0359 9.25825 17.0359 12.7404 14.8882 14.888C12.7405 17.0357 9.25843 17.0357 7.11074 14.888C4.96305 12.7404 4.96305 9.25825 7.11074 7.11056C9.25843 4.96287 12.7405 4.96287 14.8882 7.11056Z" stroke="currentColor" stroke-width="1.5" stroke-linecap="round"/>
</svg>
