<svg width="24" height="25" viewBox="0 0 24 25" fill="none" xmlns="http://www.w3.org/2000/svg" id="recentPayment">
    <path d="M6.34994 11.198C6.34994 11.557 6.64095 11.848 6.99994 11.848C7.35892 11.848 7.64994 11.557 7.64994 11.198H6.34994ZM7.64994 10.1647C7.64994 9.80574 7.35892 9.51472 6.99994 9.51472C6.64095 9.51472 6.34994 9.80574 6.34994 10.1647H7.64994ZM7.64995 4.99829C7.64995 4.63931 7.35894 4.34829 6.99995 4.34829C6.64097 4.34829 6.34995 4.63931 6.34995 4.99829H7.64995ZM6.34995 6.03162C6.34995 6.3906 6.64097 6.68162 6.99995 6.68162C7.35894 6.68162 7.64995 6.3906 7.64995 6.03162H6.34995ZM8.6485 6.33432L8.22436 6.82687L8.22436 6.82687L8.6485 6.33432ZM5.35147 6.33432L4.92733 5.84177H4.92733L5.35147 6.33432ZM5.35147 7.79566L4.92733 8.28821L4.92733 8.28821L5.35147 7.79566ZM8.6485 8.40097L8.22436 8.89352L8.22436 8.89352L8.6485 8.40097ZM8.6485 9.86232L8.22436 9.36977L8.22436 9.36977L8.6485 9.86232ZM5.35147 9.86232L5.77561 9.36977L5.77561 9.36977L5.35147 9.86232ZM16.3499 21.198C16.3499 21.557 16.641 21.848 16.9999 21.848C17.3589 21.848 17.6499 21.557 17.6499 21.198H16.3499ZM17.6499 20.1647C17.6499 19.8057 17.3589 19.5147 16.9999 19.5147C16.641 19.5147 16.3499 19.8057 16.3499 20.1647H17.6499ZM17.65 14.9983C17.65 14.6393 17.3589 14.3483 17 14.3483C16.641 14.3483 16.35 14.6393 16.35 14.9983H17.65ZM16.35 16.0316C16.35 16.3906 16.641 16.6816 17 16.6816C17.3589 16.6816 17.65 16.3906 17.65 16.0316H16.35ZM18.6485 16.3343L18.2244 16.8269L18.6485 16.3343ZM15.3515 16.3343L14.9273 15.8418L15.3515 16.3343ZM15.3515 17.7957L14.9273 18.2882L15.3515 17.7957ZM18.6485 18.401L18.2244 18.8935L18.6485 18.401ZM18.6485 19.8623L18.2244 19.3698L18.6485 19.8623ZM15.3515 19.8623L15.7756 19.3698L15.3515 19.8623ZM7.64994 11.198V10.1647H6.34994V11.198H7.64994ZM6.34995 4.99829V6.03162H7.64995V4.99829H6.34995ZM9.64997 7.06499C9.64997 6.58451 9.42751 6.14735 9.07264 5.84177L8.22436 6.82687C8.31958 6.90886 8.34997 6.99737 8.34997 7.06499H9.64997ZM9.07264 5.84177C8.7208 5.53879 8.26184 5.38167 7.79998 5.38167V6.68167C7.97464 6.68167 8.12612 6.74227 8.22436 6.82687L9.07264 5.84177ZM7.79998 5.38167H6.19999V6.68167H7.79998V5.38167ZM6.19999 5.38167C5.73813 5.38167 5.27917 5.53879 4.92733 5.84177L5.77561 6.82687C5.87385 6.74227 6.02533 6.68167 6.19999 6.68167V5.38167ZM4.92733 5.84177C4.57246 6.14735 4.35 6.58451 4.35 7.06499H5.65C5.65 6.99737 5.6804 6.90886 5.77561 6.82687L4.92733 5.84177ZM4.35 7.06499C4.35 7.54548 4.57246 7.98263 4.92733 8.28821L5.77561 7.30311C5.6804 7.22113 5.65 7.13262 5.65 7.06499H4.35ZM4.92733 8.28821C5.27917 8.59119 5.73813 8.74832 6.19999 8.74832V7.44832C6.02533 7.44832 5.87385 7.38771 5.77561 7.30311L4.92733 8.28821ZM6.19999 8.74832H7.79998V7.44832H6.19999V8.74832ZM7.79998 8.74832C7.97464 8.74832 8.12612 8.80893 8.22436 8.89352L9.07264 7.90842C8.7208 7.60545 8.26184 7.44832 7.79998 7.44832V8.74832ZM8.22436 8.89352C8.31958 8.97551 8.34997 9.06402 8.34997 9.13164H9.64997C9.64997 8.65116 9.42751 8.21401 9.07264 7.90842L8.22436 8.89352ZM8.34997 9.13164C8.34997 9.19927 8.31958 9.28778 8.22436 9.36977L9.07264 10.3549C9.42751 10.0493 9.64997 9.61213 9.64997 9.13164H8.34997ZM8.22436 9.36977C8.12612 9.45436 7.97464 9.51497 7.79998 9.51497V10.815C8.26184 10.815 8.7208 10.6578 9.07264 10.3549L8.22436 9.36977ZM7.79998 9.51497H6.19999V10.815H7.79998V9.51497ZM6.19999 9.51497C6.02534 9.51497 5.87385 9.45436 5.77561 9.36977L4.92733 10.3549C5.27917 10.6578 5.73813 10.815 6.19999 10.815V9.51497ZM5.77561 9.36977C5.6804 9.28778 5.65 9.19927 5.65 9.13164H4.35C4.35 9.61213 4.57246 10.0493 4.92733 10.3549L5.77561 9.36977ZM17.6499 21.198V20.1647H16.3499V21.198H17.6499ZM16.35 14.9983V16.0316H17.65V14.9983H16.35ZM19.65 17.065C19.65 16.5845 19.4275 16.1474 19.0726 15.8418L18.2244 16.8269C18.3196 16.9089 18.35 16.9974 18.35 17.065H19.65ZM19.0726 15.8418C18.7208 15.5388 18.2618 15.3817 17.8 15.3817V16.6817C17.9746 16.6817 18.1261 16.7423 18.2244 16.8269L19.0726 15.8418ZM17.8 15.3817H16.2V16.6817H17.8V15.3817ZM16.2 15.3817C15.7381 15.3817 15.2792 15.5388 14.9273 15.8418L15.7756 16.8269C15.8738 16.7423 16.0253 16.6817 16.2 16.6817V15.3817ZM14.9273 15.8418C14.5725 16.1474 14.35 16.5845 14.35 17.065H15.65C15.65 16.9974 15.6804 16.9089 15.7756 16.8269L14.9273 15.8418ZM14.35 17.065C14.35 17.5455 14.5725 17.9826 14.9273 18.2882L15.7756 17.3031C15.6804 17.2211 15.65 17.1326 15.65 17.065H14.35ZM14.9273 18.2882C15.2792 18.5912 15.7381 18.7483 16.2 18.7483V17.4483C16.0253 17.4483 15.8739 17.3877 15.7756 17.3031L14.9273 18.2882ZM16.2 18.7483H17.8V17.4483H16.2V18.7483ZM17.8 18.7483C17.9746 18.7483 18.1261 18.8089 18.2244 18.8935L19.0726 17.9084C18.7208 17.6054 18.2618 17.4483 17.8 17.4483V18.7483ZM18.2244 18.8935C18.3196 18.9755 18.35 19.064 18.35 19.1316H19.65C19.65 18.6512 19.4275 18.214 19.0726 17.9084L18.2244 18.8935ZM18.35 19.1316C18.35 19.1993 18.3196 19.2878 18.2244 19.3698L19.0726 20.3549C19.4275 20.0493 19.65 19.6121 19.65 19.1316H18.35ZM18.2244 19.3698C18.1261 19.4544 17.9746 19.515 17.8 19.515V20.815C18.2618 20.815 18.7208 20.6578 19.0726 20.3549L18.2244 19.3698ZM17.8 19.515H16.2V20.815H17.8V19.515ZM16.2 19.515C16.0253 19.515 15.8738 19.4544 15.7756 19.3698L14.9273 20.3549C15.2792 20.6578 15.7381 20.815 16.2 20.815V19.515ZM15.7756 19.3698C15.6804 19.2878 15.65 19.1993 15.65 19.1316H14.35C14.35 19.6121 14.5725 20.0493 14.9273 20.3549L15.7756 19.3698Z" fill="currentColor"/>
    <path d="M14 4.99829H15C17.7614 4.99829 20 7.23687 20 9.99829V11.4983M4 14.9983V15.9983C4 18.7597 6.23858 20.9983 9 20.9983H10M12 7.99829C12 10.7597 9.76142 12.9983 7 12.9983C4.23858 12.9983 2 10.7597 2 7.99829C2 5.23687 4.23858 2.99829 7 2.99829C9.76142 2.99829 12 5.23687 12 7.99829ZM22 17.9983C22 20.7597 19.7614 22.9983 17 22.9983C14.2386 22.9983 12 20.7597 12 17.9983C12 15.2369 14.2386 12.9983 17 12.9983C19.7614 12.9983 22 15.2369 22 17.9983Z" stroke="currentColor" stroke-width="1.5" stroke-linecap="round"/>
</svg>
