<svg width="26" height="24" viewBox="0 0 26 24" fill="none" xmlns="http://www.w3.org/2000/svg">
<path d="M13 2.63164V0" stroke="currentColor" stroke-width="1.6" stroke-miterlimit="10"/>
<path d="M18.7393 8.41992H21.348" stroke="currentColor" stroke-width="1.6" stroke-miterlimit="10"/>
<path d="M7.26105 8.41992H4.65234" stroke="currentColor" stroke-width="1.6" stroke-miterlimit="10"/>
<path d="M5.9502 2.36133L8.09586 4.52586" stroke="currentColor" stroke-width="1.6" stroke-miterlimit="10"/>
<path d="M19.5741 2.31738L17.3828 4.52796" stroke="currentColor" stroke-width="1.6" stroke-miterlimit="10"/>
<path d="M20.304 18.7379C21.7448 18.7379 22.9127 17.5597 22.9127 16.1063C22.9127 14.6528 21.7448 13.4746 20.304 13.4746C18.8633 13.4746 17.6953 14.6528 17.6953 16.1063C17.6953 17.5597 18.8633 18.7379 20.304 18.7379Z" stroke="currentColor" stroke-width="1.4" stroke-miterlimit="10"/>
<path d="M15.6084 23.9998V23.4734C15.6084 22.7755 15.8832 22.1061 16.3725 21.6126C16.8617 21.1191 17.5252 20.8418 18.2171 20.8418H22.391C23.0829 20.8418 23.7465 21.1191 24.2357 21.6126C24.7249 22.1061 24.9998 22.7755 24.9998 23.4734V23.9998" stroke="currentColor" stroke-width="1.4" stroke-miterlimit="10"/>
<path d="M5.69563 18.7379C7.13638 18.7379 8.30434 17.5597 8.30434 16.1063C8.30434 14.6528 7.13638 13.4746 5.69563 13.4746C4.25487 13.4746 3.08691 14.6528 3.08691 16.1063C3.08691 17.5597 4.25487 18.7379 5.69563 18.7379Z" stroke="currentColor" stroke-width="1.4" stroke-miterlimit="10"/>
<path d="M1 23.9998V23.4734C1 22.7755 1.27485 22.1061 1.76407 21.6126C2.2533 21.1191 2.91684 20.8418 3.60871 20.8418H7.78265C8.47452 20.8418 9.13806 21.1191 9.62729 21.6126C10.1165 22.1061 10.3914 22.7755 10.3914 23.4734V23.9998" stroke="currentColor" stroke-width="1.4" stroke-miterlimit="10"/>
<path d="M11.7998 15.1582H14.1998" stroke="currentColor" stroke-width="2.50185" stroke-miterlimit="10"/>
<path d="M14.029 14.6727L15.9126 11.5321C16.3029 10.9234 16.5371 10.2041 16.5893 9.45382C16.6414 8.70356 16.5095 7.95157 16.2082 7.28098C15.9068 6.6104 15.4476 6.04736 14.8815 5.65411C14.3154 5.26086 13.6644 5.05273 13.0004 5.05273C12.3364 5.05273 11.6854 5.26086 11.1193 5.65411C10.5532 6.04736 10.094 6.6104 9.79265 7.28098C9.49126 7.95157 9.35935 8.70356 9.41152 9.45382C9.46369 10.2041 9.6979 10.9234 10.0883 11.5321L11.9718 14.6727V15.8385C11.9718 15.9931 12.026 16.1414 12.1225 16.2507C12.2189 16.36 12.3497 16.4214 12.4861 16.4214H13.5147C13.6511 16.4214 13.7819 16.36 13.8783 16.2507C13.9748 16.1414 14.029 15.9931 14.029 15.8385V14.6727Z" stroke="currentColor" stroke-width="1.4" stroke-miterlimit="10"/>
</svg>

