<svg width="24" height="24" viewBox="0 0 24 24" fill="none" xmlns="http://www.w3.org/2000/svg">
<path d="M19.4343 21.0657C19.7467 21.3781 20.2533 21.3781 20.5657 21.0657C20.8781 20.7533 20.8781 20.2467 20.5657 19.9343L19.4343 21.0657ZM15.2324 14.601C14.9199 14.2886 14.4134 14.2886 14.101 14.601C13.7886 14.9134 13.7886 15.4199 14.101 15.7324L15.2324 14.601ZM15.6444 10.7222C15.6444 13.7168 13.2168 16.1444 10.2222 16.1444V17.7444C14.1005 17.7444 17.2444 14.6005 17.2444 10.7222H15.6444ZM10.2222 16.1444C7.22761 16.1444 4.8 13.7168 4.8 10.7222H3.2C3.2 14.6005 6.34396 17.7444 10.2222 17.7444V16.1444ZM4.8 10.7222C4.8 7.72761 7.22761 5.3 10.2222 5.3V3.7C6.34396 3.7 3.2 6.84396 3.2 10.7222H4.8ZM10.2222 5.3C13.2168 5.3 15.6444 7.72761 15.6444 10.7222H17.2444C17.2444 6.84396 14.1005 3.7 10.2222 3.7V5.3ZM20.5657 19.9343L15.2324 14.601L14.101 15.7324L19.4343 21.0657L20.5657 19.9343Z" fill="currentColor"/>
</svg>
