<svg width="22" height="23" viewBox="0 0 22 23" fill="none" xmlns="http://www.w3.org/2000/svg">
<path d="M11.6455 1.23864L12.1333 0.668926L12.1333 0.668925L11.6455 1.23864ZM10.3543 1.23863L9.86654 0.668909V0.668909L10.3543 1.23863ZM1.27779 5.00581L2.01451 5.14632L2.01451 5.14632L1.27779 5.00581ZM11 22L10.7979 22.7223C10.9301 22.7592 11.0699 22.7592 11.2021 22.7223L11 22ZM20.7222 5.00599L19.9855 5.14649V5.14649L20.7222 5.00599ZM11 12.717V11.967C10.5858 11.967 10.25 12.3028 10.25 12.717H11ZM10.25 14.1095C10.25 14.5237 10.5858 14.8595 11 14.8595C11.4142 14.8595 11.75 14.5237 11.75 14.1095H10.25ZM11.0101 13.467C11.4243 13.467 11.7601 13.1313 11.7601 12.717C11.7601 12.3028 11.4243 11.967 11.0101 11.967V13.467ZM19.8889 3.58975C16.9687 3.58975 14.2761 2.5035 12.1333 0.668926L11.1578 1.80836C13.5522 3.85838 16.5853 5.08975 19.8889 5.08975V3.58975ZM9.86654 0.668909C7.72378 2.5034 5.03121 3.58961 2.11111 3.58961V5.0896C5.41461 5.0896 8.44766 3.8583 10.8421 1.80836L9.86654 0.668909ZM0.541067 4.8653C0.35016 5.86625 0.25 6.90244 0.25 7.96316H1.75C1.75 6.99699 1.84122 6.05489 2.01451 5.14632L0.541067 4.8653ZM0.25 7.96316C0.25 15.0235 4.69576 21.015 10.7979 22.7223L11.2021 21.2777C5.80273 19.7671 1.75 14.4095 1.75 7.96316H0.25ZM11.2021 22.7223C17.3042 21.015 21.75 15.0235 21.75 7.96316H20.25C20.25 14.4095 16.1973 19.7671 10.7979 21.2777L11.2021 22.7223ZM21.75 7.96316C21.75 6.90251 21.6499 5.86638 21.459 4.86549L19.9855 5.14649C20.1588 6.05501 20.25 6.99705 20.25 7.96316H21.75ZM2.11111 3.58961C1.38855 3.58961 0.691101 4.07864 0.541067 4.8653L2.01451 5.14632C2.01663 5.13517 2.02152 5.12493 2.03596 5.11363C2.05264 5.10057 2.07908 5.0896 2.11111 5.0896V3.58961ZM12.1333 0.668925C11.4809 0.110364 10.519 0.110358 9.86654 0.668909L10.8421 1.80836C10.933 1.73055 11.0669 1.73055 11.1578 1.80836L12.1333 0.668925ZM19.8889 5.08975C19.9209 5.08975 19.9474 5.10072 19.9641 5.11379C19.9785 5.12509 19.9834 5.13533 19.9855 5.14649L21.459 4.86549C21.3089 4.07881 20.6115 3.58975 19.8889 3.58975V5.08975ZM7.36364 10.6822H14.6364V9.18215H7.36364V10.6822ZM14.7955 10.8604V15.5019H16.2955V10.8604H14.7955ZM14.6364 15.6802H7.36364V17.1802H14.6364V15.6802ZM7.20455 15.5019V10.8604H5.70455V15.5019H7.20455ZM7.36364 15.6802C7.29048 15.6802 7.20455 15.6153 7.20455 15.5019H5.70455C5.70455 16.414 6.43264 17.1802 7.36364 17.1802V15.6802ZM14.7955 15.5019C14.7955 15.6153 14.7095 15.6802 14.6364 15.6802V17.1802C15.5674 17.1802 16.2955 16.414 16.2955 15.5019H14.7955ZM14.6364 10.6822C14.7095 10.6822 14.7955 10.7471 14.7955 10.8604H16.2955C16.2955 9.94841 15.5674 9.18215 14.6364 9.18215V10.6822ZM7.36364 9.18215C6.43264 9.18215 5.70455 9.94841 5.70455 10.8604H7.20455C7.20455 10.7471 7.29048 10.6822 7.36364 10.6822V9.18215ZM9.02273 8.07556C9.02273 6.93687 9.92269 6.04067 11 6.04067V4.54067C9.06485 4.54067 7.52273 6.13816 7.52273 8.07556H9.02273ZM11 6.04067C12.0773 6.04067 12.9773 6.93687 12.9773 8.07556H14.4773C14.4773 6.13816 12.9351 4.54067 11 4.54067V6.04067ZM7.52273 8.07556V9.93215H9.02273V8.07556H7.52273ZM12.9773 8.07556V9.93215H14.4773V8.07556H12.9773ZM10.25 12.717V14.1095H11.75V12.717H10.25ZM11 13.467H11.0101V11.967H11V13.467Z" fill="currentColor"/>
</svg>
