<svg width="24" height="24" viewBox="0 0 24 24" fill="none" xmlns="http://www.w3.org/2000/svg">
    <path d="M8.33333 12.2699L10.7778 14.7589L15.6667 9.78087M21.7778 4.80277V4.80277C22.2171 4.80277 22.6139 5.08926 22.7007 5.51992C22.8969 6.49417 23 7.50301 23 8.53636C23 15.4951 18.3258 21.3422 12 23C5.67417 21.3422 1 15.4951 1 8.53636C1 7.50294 1.10309 6.49404 1.29936 5.51973C1.38611 5.0891 1.78293 4.80262 2.22222 4.80262V4.80262C5.6535 4.80262 8.80957 3.60283 11.3079 1.59279C11.7102 1.26907 12.2896 1.26907 12.6919 1.5928C15.1903 3.60293 18.3464 4.80277 21.7778 4.80277Z" stroke="currentColor" stroke-width="1.5" stroke-linecap="round" stroke-linejoin="round" />
</svg>