<svg width="25" height="24" viewBox="0 0 25 24" fill="none" xmlns="http://www.w3.org/2000/svg">
<path d="M6.24988 13.7871L6.57777 14.4616L6.57966 14.4607L6.24988 13.7871ZM5.94849 17.4239L6.50611 17.9254L6.50794 17.9234L5.94849 17.4239ZM17.3555 5.7649L16.8283 5.23143L16.814 5.2456L16.8004 5.26052L17.3555 5.7649ZM3.4928 6.73847C3.07858 6.73847 2.7428 7.07425 2.7428 7.48847C2.7428 7.90268 3.07858 8.23847 3.4928 8.23847V6.73847ZM6.05758 8.23847C6.47179 8.23847 6.80758 7.90268 6.80758 7.48847C6.80758 7.07425 6.47179 6.73847 6.05758 6.73847V8.23847ZM11.3668 15.9032L10.7693 16.3566L10.7699 16.3573L11.3668 15.9032ZM12.008 16.7459L11.4111 17.2001L11.4116 17.2007L12.008 16.7459ZM14.8485 20.25L14.4659 19.6048L14.4607 19.608L14.8485 20.25ZM17.4132 18.7292L17.0307 18.0841L17.4132 18.7292ZM18.5738 14.5852L19.0179 15.1896L19.0204 15.1878L18.5738 14.5852ZM20.6256 13.0645L20.1826 12.4593L20.179 12.4619L20.6256 13.0645ZM21.2412 12.8617L21.2412 12.1117H21.2412V12.8617ZM2.36947 10.1379C2.14142 11.012 2.02458 11.9248 2.02458 12.8618H3.52458C3.52458 12.0499 3.62576 11.2645 3.82089 10.5165L2.36947 10.1379ZM2.02458 12.8618C2.02458 18.8857 6.95974 23.75 13.0337 23.75V22.25C7.77135 22.25 3.52458 18.0406 3.52458 12.8618H2.02458ZM13.0337 23.75C19.1077 23.75 24.0428 18.8857 24.0428 12.8618H22.5428C22.5428 18.0406 18.2961 22.25 13.0337 22.25V23.75ZM24.0428 12.8618C24.0428 7.20595 19.6933 2.57119 14.1326 2.02778L13.9867 3.52067C18.8005 3.99109 22.5428 7.99917 22.5428 12.8618H24.0428ZM3.41026 16.0013L6.57777 14.4616L5.92199 13.1125L2.75448 14.6523L3.41026 16.0013ZM6.57966 14.4607C7.52868 13.996 8.14762 13.0357 8.14762 11.9685H6.64762C6.64762 12.4474 6.36888 12.8937 5.9201 13.1134L6.57966 14.4607ZM8.14762 11.9685V10.321H6.64762V11.9685H8.14762ZM10.193 22.3599V17.9308H8.69301V22.3599H10.193ZM10.193 17.9308C10.193 16.9506 9.38715 16.167 8.4171 16.167V17.667C8.57554 17.667 8.69301 17.7957 8.69301 17.9308H10.193ZM8.4171 16.167H7.09623V17.667H8.4171V16.167ZM7.09623 16.167C6.45402 16.167 5.82477 16.4364 5.38905 16.9243L6.50794 17.9234C6.6493 17.7651 6.86642 17.667 7.09623 17.667V16.167ZM5.39088 16.9223L4.15979 18.291L5.27501 19.2941L6.50611 17.9254L5.39088 16.9223ZM14.0597 7.02181H16.2077V5.52181H14.0597V7.02181ZM16.2077 7.02181C16.8824 7.02181 17.4918 6.73014 17.9106 6.26927L16.8004 5.26052C16.6549 5.42062 16.4436 5.52181 16.2077 5.52181V7.02181ZM17.8827 6.29836L19.242 4.95504L18.1876 3.88812L16.8283 5.23143L17.8827 6.29836ZM13.0338 0.25H2.26175V1.75H13.0338V0.25ZM2.26175 0.25C1.29169 0.25 0.48584 1.03365 0.48584 2.01382H1.98584C1.98584 1.87879 2.10331 1.75 2.26175 1.75V0.25ZM0.48584 2.01382V9.11059H1.98584V2.01382H0.48584ZM0.48584 9.11059C0.48584 10.0908 1.29169 10.8744 2.26175 10.8744V9.37441C2.10331 9.37441 1.98584 9.24562 1.98584 9.11059H0.48584ZM2.26175 10.8744H13.0338V9.37441H2.26175V10.8744ZM13.0338 10.8744C14.0039 10.8744 14.8097 10.0908 14.8097 9.11059H13.3097C13.3097 9.24562 13.1923 9.37441 13.0338 9.37441V10.8744ZM14.8097 9.11059V2.01382H13.3097V9.11059H14.8097ZM14.8097 2.01382C14.8097 1.03365 14.0039 0.25 13.0338 0.25V1.75C13.1923 1.75 13.3097 1.87879 13.3097 2.01382H14.8097ZM1.23584 4.99431H14.0597V3.49431H1.23584V4.99431ZM3.4928 8.23847H6.05758V6.73847H3.4928V8.23847ZM14.0598 10.0633H15.3422V8.56335H14.0598V10.0633ZM15.3422 10.0633C15.9302 10.0633 16.3875 10.528 16.3875 11.0875H17.8875C17.8875 9.68283 16.7418 8.56335 15.3422 8.56335V10.0633ZM16.3875 11.0875C16.3875 11.6471 15.9302 12.1117 15.3422 12.1117V13.6117C16.7418 13.6117 17.8875 12.4923 17.8875 11.0875H16.3875ZM15.3422 12.1117H12.9056V13.6117H15.3422V12.1117ZM12.9056 12.1117C11.4355 12.1117 10.2321 13.2882 10.2321 14.7626H11.7321C11.7321 14.1334 12.2471 13.6117 12.9056 13.6117V12.1117ZM10.2321 14.7626C10.2321 15.339 10.4208 15.8973 10.7693 16.3566L11.9642 15.4498C11.8127 15.2501 11.7321 15.01 11.7321 14.7626H10.2321ZM10.7699 16.3573L11.4111 17.2001L12.6048 16.2918L11.9637 15.4491L10.7699 16.3573ZM11.4116 17.2007C11.6451 17.5069 11.7709 17.8793 11.7709 18.2667H13.2709C13.2709 17.5515 13.0377 16.8594 12.6043 16.2911L11.4116 17.2007ZM11.7709 18.2667V18.9447H13.2709V18.2667H11.7709ZM11.7709 18.9447C11.7709 20.21 12.8012 21.2154 14.0598 21.2154V19.7154C13.6128 19.7154 13.2709 19.3648 13.2709 18.9447H11.7709ZM14.0598 21.2154C14.4821 21.2154 14.8859 21.1035 15.2362 20.892L14.4607 19.608C14.3494 19.6752 14.2146 19.7154 14.0598 19.7154V21.2154ZM15.231 20.8951L17.7958 19.3744L17.0307 18.0841L14.466 19.6048L15.231 20.8951ZM17.7958 19.3744C18.4582 18.9815 18.9134 18.2624 18.9134 17.4239H17.4134C17.4134 17.7006 17.2659 17.9447 17.0307 18.0841L17.7958 19.3744ZM18.9134 17.4239V15.3963H17.4134V17.4239H18.9134ZM18.9134 15.3963C18.9134 15.313 18.954 15.2366 19.0179 15.1896L18.1297 13.9809C17.6935 14.3014 17.4134 14.8206 17.4134 15.3963H18.9134ZM19.0204 15.1878L21.0722 13.667L20.179 12.4619L18.1272 13.9827L19.0204 15.1878ZM21.0686 13.6697C21.1211 13.6313 21.1792 13.6117 21.2412 13.6117V12.1117C20.8415 12.1117 20.4764 12.2443 20.1826 12.4593L21.0686 13.6697ZM21.2412 13.6117L23.2928 13.6118L23.2928 12.1118L21.2412 12.1117L21.2412 13.6117Z" fill="currentColor"/>
</svg>
