<svg width="24" height="24" viewBox="0 0 24 24" fill="none" xmlns="http://www.w3.org/2000/svg">
    <path d="M9.95232 2.61004C10.4735 0.463318 13.5265 0.463319 14.0477 2.61005C14.3843 3.9968 15.9731 4.6549 17.1918 3.91237C19.0783 2.76292 21.2371 4.92175 20.0876 6.80823C19.3451 8.02687 20.0032 9.61566 21.39 9.95232C23.5367 10.4735 23.5367 13.5265 21.39 14.0477C20.0032 14.3843 19.3451 15.9731 20.0876 17.1918C21.2371 19.0783 19.0783 21.2371 17.1918 20.0876C15.9731 19.3451 14.3843 20.0032 14.0477 21.39C13.5265 23.5367 10.4735 23.5367 9.95232 21.39C9.61566 20.0032 8.02687 19.3451 6.80823 20.0876C4.92175 21.2371 2.76292 19.0783 3.91237 17.1918C4.6549 15.9731 3.9968 14.3843 2.61005 14.0477C0.463319 13.5265 0.463318 10.4735 2.61004 9.95232C3.9968 9.61566 4.6549 8.02687 3.91237 6.80823C2.76292 4.92175 4.92175 2.76292 6.80823 3.91237C8.02687 4.6549 9.61566 3.9968 9.95232 2.61004Z" stroke="currentColor" stroke-width="1.5" stroke-linecap="round" stroke-linejoin="round" />
    <path d="M15.6667 12C15.6667 14.025 14.025 15.6667 12 15.6667C9.97496 15.6667 8.33333 14.025 8.33333 12C8.33333 9.97496 9.97496 8.33333 12 8.33333C14.025 8.33333 15.6667 9.97496 15.6667 12Z" stroke="currentColor" stroke-width="1.5" stroke-linecap="round" stroke-linejoin="round" />
</svg>
