<svg width="24" height="24" viewBox="0 0 24 24" fill="none" xmlns="http://www.w3.org/2000/svg">
<path d="M10.6441 1.41996L11.0666 2.03959V2.03959L10.6441 1.41996ZM13.3559 1.41996L12.9334 2.03959L13.3559 1.41996ZM10.6441 15.824L10.2215 16.4436H10.2215L10.6441 15.824ZM13.3559 15.824L13.7785 16.4436L13.3559 15.824ZM14.75 14.8733L14.3274 14.2537L14.75 14.8733ZM9.25 14.8733L9.67256 14.2537L9.25 14.8733ZM7.30278 2.79079C6.96057 3.02417 6.87234 3.49077 7.10571 3.83298C7.33909 4.1752 7.80569 4.26342 8.1479 4.03005L7.30278 2.79079ZM15.8521 4.03005C16.1943 4.26342 16.6609 4.1752 16.8943 3.83298C17.1277 3.49077 17.0394 3.02417 16.6972 2.79079L15.8521 4.03005ZM22.7438 6.96688C22.4445 6.68055 21.9697 6.69107 21.6834 6.99038C21.3971 7.28968 21.4076 7.76444 21.7069 8.05078L22.7438 6.96688ZM2.29311 8.05077C2.59242 7.76444 2.60294 7.28968 2.3166 6.99037C2.03027 6.69107 1.55551 6.68055 1.2562 6.96688L2.29311 8.05077ZM14.6728 8.0165H13.9228H14.6728ZM13.0608 6.52387V7.27387V6.52387ZM10.9113 6.52387V5.77387V6.52387ZM10.9113 9.50912V10.2591V9.50912ZM13.0608 9.50912V8.75912V9.50912ZM13.0608 12.4944V11.7444V12.4944ZM10.9113 12.4944V13.2444V12.4944ZM9.29925 11.0018H10.0493H9.29925ZM11.2359 13.4372C11.2359 13.8514 11.5717 14.1872 11.9859 14.1872C12.4001 14.1872 12.7359 13.8514 12.7359 13.4372H11.2359ZM12.7359 12.4944C12.7359 12.0802 12.4001 11.7444 11.9859 11.7444C11.5717 11.7444 11.2359 12.0802 11.2359 12.4944H12.7359ZM12.7359 5.58142C12.7359 5.16721 12.4001 4.83142 11.9859 4.83142C11.5717 4.83142 11.2359 5.16721 11.2359 5.58142H12.7359ZM11.2359 6.52387C11.2359 6.93808 11.5717 7.27387 11.9859 7.27387C12.4001 7.27387 12.7359 6.93808 12.7359 6.52387H11.2359ZM19.9441 3.45935V2.70935V3.45935ZM22.0693 5.58459H21.3193H22.0693ZM4.02791 3.45935V4.20935V3.45935ZM1.90268 5.58458H1.15268H1.90268ZM22.25 9.33509V20.4995H23.75V9.33509H22.25ZM20.5556 22.25H3.44444V23.75H20.5556V22.25ZM1.75 20.4995V9.33509H0.25V20.4995H1.75ZM11.0666 2.03959C11.6328 1.65347 12.3672 1.65347 12.9334 2.03959L13.7785 0.800334C12.7025 0.0665556 11.2975 0.0665554 10.2215 0.800334L11.0666 2.03959ZM3.44444 22.25C2.52457 22.25 1.75 21.4824 1.75 20.4995H0.25C0.25 22.2786 1.66425 23.75 3.44444 23.75V22.25ZM22.25 20.4995C22.25 21.4824 21.4754 22.25 20.5556 22.25V23.75C22.3357 23.75 23.75 22.2786 23.75 20.4995H22.25ZM10.2215 16.4436C11.2975 17.1774 12.7025 17.1774 13.7785 16.4436L12.9334 15.2044C12.3672 15.5905 11.6328 15.5905 11.0666 15.2044L10.2215 16.4436ZM14.3274 15.4929L22.5774 21.1191L23.4226 19.8798L15.1726 14.2537L14.3274 15.4929ZM13.7785 16.4436L15.1726 15.4929L14.3274 14.2537L12.9334 15.2044L13.7785 16.4436ZM15.1726 15.4929L23.4211 9.86774L22.576 8.62849L14.3274 14.2537L15.1726 15.4929ZM23.4213 9.86762L23.4228 9.86661L22.5772 8.62761L22.5758 8.62861L23.4213 9.86762ZM1.42256 21.1191L9.67256 15.4929L8.82744 14.2537L0.577437 19.8798L1.42256 21.1191ZM0.577341 9.86667L0.578816 9.86768L1.42413 8.62855L1.42266 8.62754L0.577341 9.86667ZM0.578912 9.86774L8.82744 15.4929L9.67256 14.2537L1.42404 8.62849L0.578912 9.86774ZM8.82744 15.4929L10.2215 16.4436L11.0666 15.2044L9.67256 14.2537L8.82744 15.4929ZM8.1479 4.03005L11.0666 2.03959L10.2215 0.800333L7.30278 2.79079L8.1479 4.03005ZM12.9334 2.03959L15.8521 4.03005L16.6972 2.79079L13.7785 0.800334L12.9334 2.03959ZM23.75 9.33509C23.75 9.29753 23.7494 9.26006 23.7481 9.2227L22.249 9.27353C22.2497 9.294 22.25 9.31452 22.25 9.33509H23.75ZM23.7481 9.22268C23.7189 8.36252 23.3557 7.55228 22.7438 6.96688L21.7069 8.05078C22.0339 8.36363 22.233 8.8023 22.249 9.27355L23.7481 9.22268ZM1.75 9.33509C1.75 9.31452 1.75035 9.294 1.75104 9.27355L0.251906 9.22268C0.250638 9.26006 0.25 9.29753 0.25 9.33509H1.75ZM1.75104 9.27355C1.76704 8.8023 1.96608 8.36362 2.29311 8.05077L1.2562 6.96688C0.644271 7.55228 0.281097 8.36252 0.251906 9.22268L1.75104 9.27355ZM15.4228 8.51404V8.0165H13.9228V8.51404H15.4228ZM15.4228 8.0165C15.4228 6.72179 14.3129 5.77387 13.0608 5.77387V7.27387C13.5953 7.27387 13.9228 7.65687 13.9228 8.0165H15.4228ZM13.0608 5.77387L10.9113 5.77387V7.27387L13.0608 7.27387V5.77387ZM10.9113 5.77387C9.65917 5.77387 8.54925 6.72179 8.54925 8.0165H10.0493C10.0493 7.65687 10.3768 7.27387 10.9113 7.27387V5.77387ZM8.54925 8.0165C8.54925 9.3112 9.65917 10.2591 10.9113 10.2591V8.75912C10.3768 8.75912 10.0493 8.37612 10.0493 8.0165H8.54925ZM10.9113 10.2591H13.0608V8.75912H10.9113V10.2591ZM13.0608 10.2591C13.5953 10.2591 13.9228 10.6421 13.9228 11.0018H15.4228C15.4228 9.70705 14.3129 8.75912 13.0608 8.75912V10.2591ZM13.9228 11.0018C13.9228 11.3614 13.5953 11.7444 13.0608 11.7444V13.2444C14.3129 13.2444 15.4228 12.2965 15.4228 11.0018H13.9228ZM13.0608 11.7444H10.9113V13.2444H13.0608V11.7444ZM10.9113 11.7444C10.3768 11.7444 10.0493 11.3614 10.0493 11.0018H8.54925C8.54925 12.2965 9.65917 13.2444 10.9113 13.2444V11.7444ZM10.0493 11.0018V10.5042H8.54925V11.0018H10.0493ZM12.7359 13.4372V12.4944H11.2359V13.4372H12.7359ZM11.2359 5.58142V6.52387H12.7359V5.58142H11.2359ZM4.02791 4.20935L19.9441 4.20935V2.70935L4.02791 2.70935V4.20935ZM21.3193 5.58459V9.78906H22.8193V5.58459H21.3193ZM19.9441 4.20935C20.7036 4.20935 21.3193 4.82507 21.3193 5.58459H22.8193C22.8193 3.99664 21.5321 2.70935 19.9441 2.70935V4.20935ZM4.02791 2.70935C2.43996 2.70935 1.15268 3.99664 1.15268 5.58458H2.65268C2.65268 4.82506 3.26839 4.20935 4.02791 4.20935V2.70935ZM2.65268 9.78906L2.65268 5.58458H1.15268L1.15268 9.78906H2.65268Z" fill="currentColor"/>
</svg>
