<svg width="70" height="71" viewBox="0 0 70 71" fill="none" xmlns="http://www.w3.org/2000/svg">
    <path
            d="M31.112 47.7658C30.2445 47.7658 29.4204 47.4188 28.8131 46.8116L21.9598 40.0016C20.7019 38.7437 20.6585 36.6617 21.9598 35.4038C23.2176 34.1459 25.2997 34.1025 26.5576 35.4038L30.9385 39.7414L43.5174 25.037C44.6886 23.649 46.7272 23.5189 48.1152 24.69C49.4599 25.8612 49.6334 27.8998 48.4622 29.2878L33.6278 46.6381C33.0205 47.3321 32.1964 47.7225 31.2855 47.7658C31.1988 47.7658 31.1554 47.7658 31.112 47.7658Z"
            fill="currentColor"
    />
    <path
            d="M0.0480194 36.0041C0.0480195 34.1023 0.191549 32.1646 0.514496 30.2269C2.88277 15.5508 14.7959 3.60171 29.4721 1.23343C48.3465 -1.81662 66.1445 10.3477 69.9481 28.971C70.2352 30.4422 69.3022 31.8416 67.8669 32.1646C66.3957 32.4516 64.9963 31.5187 64.6733 30.0834C61.4438 14.3307 46.373 3.99643 30.3333 6.61588C17.9178 8.62533 7.83463 18.7085 5.82519 31.124C3.24161 47.2354 13.6118 62.2704 29.4362 65.464C30.9074 65.7511 31.8404 67.1864 31.5533 68.6217C31.2662 70.0929 29.8309 71.0259 28.3956 70.7388C11.6382 67.3299 0.0480187 52.6897 0.0480194 36.0041Z"
            fill="currentColor"
    />
</svg>