<svg width="48" height="48" viewBox="0 0 48 48" fill="none" xmlns="http://www.w3.org/2000/svg">
<path d="M24 40.2187C32.9574 40.2187 40.2187 32.9574 40.2187 24C40.2187 15.0426 32.9574 7.78125 24 7.78125C15.0426 7.78125 7.78125 15.0426 7.78125 24C7.78125 32.9574 15.0426 40.2187 24 40.2187Z" fill="#FFC72C"/>
<path d="M24 9.345C32.0812 9.345 38.655 15.9187 38.655 24C38.655 32.0812 32.0812 38.655 24 38.655C15.9187 38.655 9.345 32.0812 9.345 24C9.345 15.9187 15.9187 9.345 24 9.345ZM24 7.78125C15.0431 7.78125 7.78125 15.0431 7.78125 24C7.78125 32.9569 15.0431 40.2187 24 40.2187C32.9569 40.2187 40.2187 32.9569 40.2187 24C40.2187 15.0431 32.9569 7.78125 24 7.78125Z" fill="#FEE9A5"/>
<path d="M24 3.81375C25.0532 3.81375 25.9069 2.96001 25.9069 1.90687C25.9069 0.853736 25.0532 0 24 0C22.9469 0 22.0931 0.853736 22.0931 1.90687C22.0931 2.96001 22.9469 3.81375 24 3.81375Z" fill="#FFC72C"/>
<path d="M12.9525 6.77469C14.0057 6.77469 14.8594 5.92095 14.8594 4.86781C14.8594 3.81467 14.0057 2.96094 12.9525 2.96094C11.8994 2.96094 11.0457 3.81467 11.0457 4.86781C11.0457 5.92095 11.8994 6.77469 12.9525 6.77469Z" fill="#FFC72C"/>
<path d="M4.86568 14.8606C5.91881 14.8606 6.77255 14.0069 6.77255 12.9537C6.77255 11.9006 5.91881 11.0469 4.86568 11.0469C3.81254 11.0469 2.9588 11.9006 2.9588 12.9537C2.9588 14.0069 3.81254 14.8606 4.86568 14.8606Z" fill="#FFC72C"/>
<path d="M1.90687 25.9075C2.96001 25.9075 3.81375 25.0538 3.81375 24.0006C3.81375 22.9475 2.96001 22.0938 1.90687 22.0938C0.853736 22.0938 0 22.9475 0 24.0006C0 25.0538 0.853736 25.9075 1.90687 25.9075Z" fill="#FFC72C"/>
<path d="M4.86568 36.9544C5.91881 36.9544 6.77255 36.1006 6.77255 35.0475C6.77255 33.9944 5.91881 33.1406 4.86568 33.1406C3.81254 33.1406 2.9588 33.9944 2.9588 35.0475C2.9588 36.1006 3.81254 36.9544 4.86568 36.9544Z" fill="#FFC72C"/>
<path d="M12.9525 45.0403C14.0057 45.0403 14.8594 44.1866 14.8594 43.1334C14.8594 42.0803 14.0057 41.2266 12.9525 41.2266C11.8994 41.2266 11.0457 42.0803 11.0457 43.1334C11.0457 44.1866 11.8994 45.0403 12.9525 45.0403Z" fill="#FFC72C"/>
<path d="M24 48.0012C25.0532 48.0012 25.9069 47.1475 25.9069 46.0944C25.9069 45.0412 25.0532 44.1875 24 44.1875C22.9469 44.1875 22.0931 45.0412 22.0931 46.0944C22.0931 47.1475 22.9469 48.0012 24 48.0012Z" fill="#FFC72C"/>
<path d="M35.0475 45.0403C36.1006 45.0403 36.9544 44.1866 36.9544 43.1334C36.9544 42.0803 36.1006 41.2266 35.0475 41.2266C33.9944 41.2266 33.1406 42.0803 33.1406 43.1334C33.1406 44.1866 33.9944 45.0403 35.0475 45.0403Z" fill="#FFC72C"/>
<path d="M43.1344 36.9544C44.1875 36.9544 45.0412 36.1006 45.0412 35.0475C45.0412 33.9944 44.1875 33.1406 43.1344 33.1406C42.0812 33.1406 41.2275 33.9944 41.2275 35.0475C41.2275 36.1006 42.0812 36.9544 43.1344 36.9544Z" fill="#FFC72C"/>
<path d="M46.0932 25.9075C47.1463 25.9075 48 25.0538 48 24.0006C48 22.9475 47.1463 22.0938 46.0932 22.0938C45.04 22.0938 44.1863 22.9475 44.1863 24.0006C44.1863 25.0538 45.04 25.9075 46.0932 25.9075Z" fill="#FFC72C"/>
<path d="M43.1344 14.8606C44.1875 14.8606 45.0412 14.0069 45.0412 12.9537C45.0412 11.9006 44.1875 11.0469 43.1344 11.0469C42.0812 11.0469 41.2275 11.9006 41.2275 12.9537C41.2275 14.0069 42.0812 14.8606 43.1344 14.8606Z" fill="#FFC72C"/>
<path d="M35.0475 6.77469C36.1006 6.77469 36.9544 5.92095 36.9544 4.86781C36.9544 3.81467 36.1006 2.96094 35.0475 2.96094C33.9944 2.96094 33.1406 3.81467 33.1406 4.86781C33.1406 5.92095 33.9944 6.77469 35.0475 6.77469Z" fill="#FFC72C"/>
<path d="M29.6944 25.8453C31.0562 25.8453 32.1601 24.7414 32.1601 23.3797C32.1601 22.018 31.0562 20.9141 29.6944 20.9141C28.3327 20.9141 27.2288 22.018 27.2288 23.3797C27.2288 24.7414 28.3327 25.8453 29.6944 25.8453Z" fill="#3E4FE5"/>
<path d="M29.6944 25.8484C31.0557 25.8484 32.1601 24.7441 32.1601 23.3828H27.2288C27.2288 24.7441 28.3332 25.8484 29.6944 25.8484Z" fill="#8B95EF"/>
<path d="M18.306 25.8453C19.6677 25.8453 20.7716 24.7414 20.7716 23.3797C20.7716 22.018 19.6677 20.9141 18.306 20.9141C16.9442 20.9141 15.8403 22.018 15.8403 23.3797C15.8403 24.7414 16.9442 25.8453 18.306 25.8453Z" fill="#3E4FE5"/>
<path d="M18.306 25.8484C19.6672 25.8484 20.7716 24.7441 20.7716 23.3828H15.8403C15.8403 24.7441 16.9447 25.8484 18.306 25.8484Z" fill="#8B95EF"/>
<path d="M24.0019 32.1396C22.3988 32.1396 20.88 31.5152 19.9388 30.469C19.65 30.1484 19.6763 29.6534 19.9969 29.3646C20.3175 29.0759 20.8125 29.1021 21.1013 29.4227C21.75 30.1446 22.8338 30.574 24 30.574C25.1663 30.574 26.2425 30.1465 26.8913 29.4302C27.1819 29.1096 27.675 29.0852 27.9956 29.3759C28.3163 29.6665 28.3406 30.1596 28.05 30.4802C27.1088 31.519 25.5956 32.1377 24 32.1377L24.0019 32.1396Z" fill="#3E4FE5"/>
<path d="M15.0882 19.605C14.8463 19.605 14.6175 19.4644 14.5144 19.23C14.3757 18.9131 14.52 18.5438 14.8369 18.4069C15.7313 18.0169 16.8038 17.7881 17.9382 17.7488C19.0744 17.7075 20.1582 17.8613 21.0769 18.1875C21.4032 18.3038 21.5719 18.6619 21.4575 18.9863C21.3413 19.3125 20.9832 19.4813 20.6588 19.3669C19.8975 19.0969 18.9488 18.9656 17.9813 18.9994C17.0175 19.0331 16.0782 19.23 15.3375 19.5525C15.2569 19.5881 15.1707 19.605 15.0882 19.605Z" fill="#3E4FE5"/>
<path d="M32.9118 19.6045C32.8274 19.6045 32.7431 19.5877 32.6624 19.552C31.9218 19.2295 30.9824 19.0327 30.0187 18.9989C29.0531 18.9652 28.1024 19.0964 27.3431 19.3664C27.0168 19.4808 26.6606 19.312 26.5443 18.9858C26.4281 18.6595 26.5987 18.3033 26.9249 18.187C27.8437 17.8608 28.9312 17.7089 30.0637 17.7483C31.1981 17.7877 32.2706 18.0145 33.1649 18.4064C33.4818 18.5452 33.6262 18.9127 33.4874 19.2295C33.3843 19.4639 33.1556 19.6045 32.9137 19.6045H32.9118Z" fill="#3E4FE5"/>
</svg>
