<svg width="20" height="24" viewBox="0 0 20 24" fill="currentColor" xmlns="http://www.w3.org/2000/svg">
    <path d="M10 11.25C9.58579 11.25 9.25 11.5858 9.25 12C9.25 12.4142 9.58579 12.75 10 12.75V11.25ZM13.8571 12.75C14.2714 12.75 14.6071 12.4142 14.6071 12C14.6071 11.5858 14.2714 11.25 13.8571 11.25V12.75ZM10 16.1389C9.58579 16.1389 9.25 16.4747 9.25 16.8889C9.25 17.3031 9.58579 17.6389 10 17.6389V16.1389ZM13.8571 17.6389C14.2714 17.6389 14.6071 17.3031 14.6071 16.8889C14.6071 16.4747 14.2714 16.1389 13.8571 16.1389V17.6389ZM6.14286 11.25C5.72864 11.25 5.39286 11.5858 5.39286 12C5.39286 12.4142 5.72864 12.75 6.14286 12.75V11.25ZM6.15571 12.75C6.56993 12.75 6.90571 12.4142 6.90571 12C6.90571 11.5858 6.56993 11.25 6.15571 11.25V12.75ZM6.14286 16.1389C5.72864 16.1389 5.39286 16.4747 5.39286 16.8889C5.39286 17.3031 5.72864 17.6389 6.14286 17.6389V16.1389ZM6.15571 17.6389C6.56993 17.6389 6.90571 17.3031 6.90571 16.8889C6.90571 16.4747 6.56993 16.1389 6.15571 16.1389V17.6389ZM18.25 5.88889V20.5556H19.75V5.88889H18.25ZM16.4286 22.25H3.57143V23.75H16.4286V22.25ZM1.75 20.5556V5.88889H0.25V20.5556H1.75ZM3.57143 4.19444H6.14286V2.69444H3.57143V4.19444ZM13.8571 4.19444H16.4286V2.69444H13.8571V4.19444ZM3.57143 22.25C2.52924 22.25 1.75 21.456 1.75 20.5556H0.25C0.25 22.3551 1.7733 23.75 3.57143 23.75V22.25ZM18.25 20.5556C18.25 21.456 17.4708 22.25 16.4286 22.25V23.75C18.2267 23.75 19.75 22.3551 19.75 20.5556H18.25ZM19.75 5.88889C19.75 4.08931 18.2267 2.69444 16.4286 2.69444V4.19444C17.4708 4.19444 18.25 4.98841 18.25 5.88889H19.75ZM1.75 5.88889C1.75 4.98841 2.52924 4.19444 3.57143 4.19444V2.69444C1.7733 2.69444 0.25 4.08931 0.25 5.88889H1.75ZM10 12.75H13.8571V11.25H10V12.75ZM10 17.6389H13.8571V16.1389H10V17.6389ZM8.71429 1.75H11.2857V0.25H8.71429V1.75ZM11.2857 5.13889H8.71429V6.63889H11.2857V5.13889ZM8.71429 5.13889C7.67209 5.13889 6.89286 4.34492 6.89286 3.44444H5.39286C5.39286 5.24403 6.91616 6.63889 8.71429 6.63889V5.13889ZM13.1071 3.44444C13.1071 4.34492 12.3279 5.13889 11.2857 5.13889V6.63889C13.0838 6.63889 14.6071 5.24403 14.6071 3.44444H13.1071ZM11.2857 1.75C12.3279 1.75 13.1071 2.54397 13.1071 3.44444H14.6071C14.6071 1.64486 13.0838 0.25 11.2857 0.25V1.75ZM8.71429 0.25C6.91616 0.25 5.39286 1.64486 5.39286 3.44444H6.89286C6.89286 2.54397 7.67209 1.75 8.71429 1.75V0.25ZM6.14286 12.75H6.15571V11.25H6.14286V12.75ZM6.14286 17.6389H6.15571V16.1389H6.14286V17.6389Z" fill="currentColor" />
</svg>