<svg width="24" height="24" viewBox="0 0 24 24" fill="none" xmlns="http://www.w3.org/2000/svg" id="tickInCircle">
    <g>
        <path d="M4.75216 19.2478C0.749281 15.245 0.749281 8.75503 4.75216 4.75216L3.6915 3.6915C-0.897165 8.28016 -0.897165 15.7198 3.6915 20.3085L4.75216 19.2478ZM19.2478 19.2478C15.245 23.2507 8.75503 23.2507 4.75216 19.2478L3.6915 20.3085C8.28016 24.8972 15.7198 24.8972 20.3085 20.3085L19.2478 19.2478ZM19.2478 4.75216C23.2507 8.75503 23.2507 15.245 19.2478 19.2478L20.3085 20.3085C24.8972 15.7198 24.8972 8.28016 20.3085 3.6915L19.2478 4.75216ZM20.3085 3.6915C15.7198 -0.897165 8.28016 -0.897165 3.6915 3.6915L4.75216 4.75216C8.75503 0.749281 15.245 0.749281 19.2478 4.75216L20.3085 3.6915Z" fill="currentColor"/>
        <path d="M8 12.5921L10.5455 15L16 9" stroke="currentColor" stroke-width="1.5" stroke-linecap="round"/>
    </g>
</svg>
