<svg width="56" height="56" viewBox="0 0 56 56" fill="none" xmlns="http://www.w3.org/2000/svg">
<g clip-path="url(#clip0_16950_249667)">
<path d="M33.806 0.825473C29.8831 -0.153048 25.7552 -0.292874 21.7386 0.574239C21.4282 0.641252 21.2309 0.947217 21.2979 1.25763C21.3649 1.56805 21.6709 1.76536 21.9813 1.69835C25.8279 0.867942 29.7904 1.00486 33.5594 1.94952C42.5728 4.2086 50.0754 10.9854 52.9329 19.8378C54.038 23.2613 54.5074 26.9067 54.6014 30.7271C54.6092 31.0446 54.8729 31.2956 55.1904 31.2878C55.5079 31.28 55.7589 31.0163 55.7511 30.6988C55.6558 26.8259 55.1809 23.0868 54.0485 19.5503C51.0809 10.2826 43.2395 3.17857 33.806 0.825473Z" fill="currentColor"/>
<path d="M18.8206 2.56518C19.1267 2.48073 19.3064 2.1641 19.222 1.85796C19.1375 1.55183 18.8209 1.37213 18.5147 1.45658C14.3142 2.6154 8.40516 6.61954 4.75334 11.9688C4.75192 11.9708 4.75051 11.9729 4.74912 11.975C1.54258 16.8073 -0.467463 22.8799 0.0937351 28.7725C0.0942694 28.7781 0.0948862 28.7837 0.0955852 28.7893C0.230081 29.8653 0.455869 30.9392 0.681921 32.0144C1.15803 34.2791 1.63531 36.5493 1.2633 38.8556C1.21273 39.1691 1.42588 39.4642 1.7394 39.5148C2.05291 39.5654 2.34806 39.3522 2.39863 39.0387C2.78751 36.6279 2.30464 34.2764 1.82168 31.9244C1.59832 30.8367 1.37495 29.7489 1.23776 28.655C0.709944 23.087 2.61111 17.2783 5.70526 12.614C9.21816 7.47014 14.9066 3.64492 18.8206 2.56518Z" fill="currentColor"/>
<path d="M26.3661 3.84987C33.5853 3.40903 40.803 6.35525 45.6503 11.9997C45.8572 12.2406 45.8296 12.6037 45.5886 12.8105C45.3477 13.0174 44.9847 12.9899 44.7778 12.7489C40.1682 7.38129 33.3 4.57751 26.4327 4.99795C26.4303 4.9981 26.4278 4.99824 26.4254 4.99836C17.7409 5.41857 9.60789 11.31 6.61639 19.5653C6.5082 19.8639 6.17845 20.0182 5.87989 19.91C5.58132 19.8018 5.42699 19.4721 5.53518 19.1735C8.68661 10.4768 17.2268 4.29364 26.3661 3.84987Z" fill="currentColor"/>
<path d="M47.402 14.5117C47.225 14.2481 46.8677 14.1779 46.6041 14.355C46.3405 14.532 46.2703 14.8893 46.4473 15.1529C49.1345 19.1541 50.2456 23.5082 50.6848 28.6752C50.7117 28.9917 50.99 29.2264 51.3065 29.1995C51.6229 29.1726 51.8576 28.8943 51.8307 28.5778C51.3819 23.2979 50.236 18.7316 47.402 14.5117Z" fill="currentColor"/>
<path d="M51.4463 31.0191C51.7632 30.9993 52.0362 31.2402 52.056 31.5571C52.2727 35.0244 52.2748 38.9473 51.8912 41.8463C51.8495 42.1611 51.5606 42.3825 51.2457 42.3409C50.9309 42.2992 50.7095 42.0102 50.7511 41.6954C51.1208 38.9013 51.1228 35.0616 50.9083 31.6288C50.8885 31.3119 51.1293 31.0389 51.4463 31.0191Z" fill="currentColor"/>
<path d="M5.74807 22.3503C5.82261 22.0416 5.63278 21.731 5.32408 21.6564C5.01539 21.5819 4.70472 21.7717 4.63019 22.0804C4.20815 23.8284 3.98905 25.6241 3.98037 27.4214C3.97143 29.2739 4.31684 31.0822 4.6624 32.8912C4.94507 34.371 5.22783 35.8512 5.31678 37.3566C5.43361 39.334 5.01769 41.3142 4.29896 43.199C4.18581 43.4957 4.33462 43.828 4.63134 43.9411C4.92807 44.0543 5.26034 43.9055 5.37349 43.6087C6.1332 41.6165 6.5937 39.4706 6.46478 37.2887C6.37645 35.7937 6.09371 34.322 5.81108 32.851C5.46621 31.0559 5.12151 29.2617 5.13037 27.427C5.13862 25.7191 5.34683 24.0122 5.74807 22.3503Z" fill="currentColor"/>
<path d="M20.836 9.57252C20.9543 9.86721 20.8114 10.202 20.5167 10.3204C14.5555 12.7143 10.079 18.1166 9.16576 24.487C8.78423 27.1485 9.19643 29.7848 9.60851 32.4205C9.84058 33.9047 10.0726 35.3888 10.1628 36.877C10.3584 40.1039 9.99089 43.6484 7.89078 46.8734C7.71749 47.1395 7.36128 47.2148 7.09516 47.0415C6.82905 46.8682 6.7538 46.512 6.92709 46.2458C8.8405 43.3076 9.20269 40.0439 9.01493 36.9466C8.9234 35.4366 8.69281 33.9354 8.46237 32.4351C8.04892 29.7433 7.63593 27.0545 8.02739 24.3238C9.00246 17.5219 13.77 11.7905 20.0881 9.25322C20.3828 9.13487 20.7176 9.27783 20.836 9.57252Z" fill="currentColor"/>
<path d="M41.022 12.8462C36.3192 8.44148 29.5031 6.90415 23.3084 8.26288C22.9982 8.33092 22.8019 8.63754 22.8699 8.94773C22.938 9.25792 23.2446 9.45423 23.5548 9.38619C29.4207 8.09957 35.8389 9.56726 40.2359 13.6856C43.942 17.1567 46.0941 22.2075 46.6574 27.7181C46.6897 28.0341 46.972 28.264 47.2879 28.2317C47.6038 28.1994 47.8337 27.9171 47.8015 27.6012C47.2165 21.8791 44.9735 16.5473 41.022 12.8462Z" fill="currentColor"/>
<path d="M47.6811 30.3396C47.997 30.3072 48.2794 30.537 48.3119 30.8529C48.858 36.1699 48.6226 41.9128 47.7982 47.4684C47.7516 47.7826 47.4592 47.9994 47.145 47.9528C46.8309 47.9062 46.614 47.6138 46.6607 47.2996C47.4736 41.8212 47.7025 36.1759 47.1679 30.9704C47.1354 30.6544 47.3652 30.3721 47.6811 30.3396Z" fill="currentColor"/>
<path d="M27.6343 11.6859C18.823 11.6859 11.6638 18.7155 11.6638 27.4067C11.6638 28.335 11.7462 29.2447 11.9033 30.1292C11.9588 30.4419 12.2573 30.6503 12.5699 30.5948C12.8826 30.5393 13.0911 30.2408 13.0356 29.9282C12.8902 29.1092 12.8138 28.2668 12.8138 27.4067C12.8138 19.3683 19.4404 12.8359 27.6343 12.8359C31.3372 12.8359 34.7203 14.1705 37.317 16.3758C37.5591 16.5813 37.922 16.5517 38.1275 16.3097C38.3331 16.0676 38.3035 15.7048 38.0614 15.4992C35.2632 13.1228 31.6181 11.6859 27.6343 11.6859Z" fill="currentColor"/>
<path d="M39.3498 17.6431C39.579 17.4233 39.943 17.4309 40.1628 17.6601C42.7004 20.3063 43.5127 24.4654 44.0501 27.9557C44.6556 31.8873 44.748 35.7228 44.748 37.5011C44.748 37.8187 44.4905 38.0762 44.173 38.0762C43.8554 38.0762 43.598 37.8187 43.598 37.5011C43.598 35.7516 43.5064 31.981 42.9135 28.1307C42.4146 24.8904 41.6952 20.9197 39.3327 18.4561C39.1129 18.2269 39.1206 17.8629 39.3498 17.6431Z" fill="currentColor"/>
<path d="M44.602 40.7942C44.6272 40.4776 44.3911 40.2005 44.0745 40.1753C43.7579 40.1501 43.4809 40.3862 43.4556 40.7028C43.1732 44.2447 42.8042 47.7827 42.0555 51.051C41.9846 51.3605 42.1781 51.6689 42.4876 51.7398C42.7972 51.8108 43.1056 51.6173 43.1765 51.3078C43.9449 47.9534 44.3189 44.3455 44.602 40.7942Z" fill="currentColor"/>
<path d="M12.8288 32.2455C13.1404 32.1842 13.4427 32.387 13.5041 32.6986C14.7198 38.8725 13.88 44.4811 10.6604 49.3939C10.4863 49.6595 10.1299 49.7337 9.86427 49.5596C9.59866 49.3856 9.52445 49.0292 9.69852 48.7635C12.7278 44.1411 13.5431 38.8487 12.3757 32.9208C12.3144 32.6092 12.5172 32.3069 12.8288 32.2455Z" fill="currentColor"/>
<path d="M27.6343 15.4272C21.9146 15.4272 16.3035 19.8546 15.7308 25.4191C15.4801 27.8552 15.8323 30.2548 16.1847 32.6553C16.4924 34.7515 16.8001 36.8483 16.7067 38.9709C16.4928 43.8286 15.0675 47.8385 12.6185 51.1412C12.4293 51.3963 12.4828 51.7564 12.7379 51.9456C12.9929 52.1347 13.3531 52.0813 13.5422 51.8262C16.1397 48.3233 17.6325 44.0877 17.8556 39.0215C17.9486 36.9085 17.6399 34.8183 17.3314 32.7294C16.9786 30.3408 16.626 27.9539 16.8748 25.5368C17.3779 20.6485 22.4094 16.5772 27.6343 16.5772C30.0712 16.5772 36.3765 17.8967 38.3821 24.4304C39.639 28.5248 39.9818 34.066 39.6774 39.4493C39.373 44.8319 38.4261 49.98 37.1528 53.2812C37.0385 53.5775 37.186 53.9103 37.4823 54.0246C37.7786 54.1389 38.1114 53.9914 38.2257 53.6951C39.5579 50.2413 40.5175 44.9628 40.8256 39.5142C41.1337 34.0663 40.795 28.3718 39.4815 24.0929C37.2551 16.8403 30.2761 15.4272 27.6343 15.4272Z" fill="currentColor"/>
<path d="M18.7854 49.3948C19.0514 49.5683 19.1264 49.9245 18.9529 50.1905C18.5963 50.7372 18.2827 51.3092 17.969 51.8812C17.6553 52.4532 17.3416 53.0253 16.985 53.5721C16.8115 53.8381 16.4552 53.9131 16.1892 53.7396C15.9232 53.5661 15.8482 53.2099 16.0217 52.9439C16.3783 52.3972 16.692 51.8252 17.0056 51.2532C17.3193 50.6811 17.6331 50.109 17.9897 49.5623C18.1632 49.2963 18.5194 49.2213 18.7854 49.3948Z" fill="currentColor"/>
<path d="M23.709 21.396C23.973 21.2194 24.0438 20.8623 23.8673 20.5983C23.6907 20.3344 23.3336 20.2635 23.0696 20.4401C20.7927 21.963 19.3958 24.0573 19.3958 27.1252C19.3958 28.952 19.7194 30.4452 20.0513 31.9768C20.548 34.2686 20.8849 36.5555 20.8244 38.9095C20.7509 41.768 20.1916 44.3801 19.1165 46.8685C18.9905 47.16 19.1247 47.4984 19.4163 47.6244C19.7078 47.7503 20.0462 47.6161 20.1722 47.3246C21.3089 44.6936 21.897 41.9358 21.974 38.9391C22.0369 36.4929 21.6907 34.1155 21.1755 31.7336C20.8428 30.1954 20.5458 28.822 20.5458 27.1252C20.5458 24.4966 21.7022 22.7383 23.709 21.396Z" fill="currentColor"/>
<path d="M25.9533 19.3757C28.3393 18.8892 30.907 19.4903 32.7969 21.02C36.1727 23.7523 36.6217 28.7352 36.9855 32.7731L37.004 32.9788C37.4741 38.1837 36.936 43.2392 35.8519 48.3163C35.7856 48.6269 35.4801 48.8249 35.1695 48.7586C34.859 48.6922 34.661 48.3867 34.7273 48.0762C35.7951 43.0752 36.3155 38.1399 35.8587 33.0822C35.8435 32.9148 35.8285 32.7449 35.8133 32.5731L35.813 32.5706C35.4899 28.9217 35.0851 24.3516 32.0734 21.9139C30.4576 20.6061 28.2415 20.0828 26.183 20.5025C25.8718 20.5659 25.5681 20.3651 25.5047 20.0539C25.4413 19.7428 25.6421 19.4391 25.9533 19.3757Z" fill="currentColor"/>
<path d="M35.0392 51.1775C35.1176 50.8697 34.9316 50.5567 34.6239 50.4784C34.3161 50.4 34.0031 50.586 33.9248 50.8937C33.5772 52.2592 33.0415 53.4916 32.3624 54.6263C32.1993 54.8988 32.288 55.2519 32.5604 55.415C32.8329 55.5781 33.186 55.4894 33.3491 55.2169C34.081 53.9941 34.6621 52.6589 35.0392 51.1775Z" fill="currentColor"/>
<path d="M32.2274 42.8331C32.5428 42.8704 32.7682 43.1564 32.7309 43.4717C32.1878 48.0608 30.9618 52.1537 28.9946 55.7036C28.8406 55.9814 28.4907 56.0818 28.2129 55.9278C27.9351 55.7739 27.8347 55.424 27.9887 55.1462C29.8714 51.7489 31.0601 47.8046 31.5888 43.3366C31.6262 43.0212 31.9121 42.7958 32.2274 42.8331Z" fill="currentColor"/>
<path d="M32.1089 26.8236C31.7103 24.6936 29.8821 23.0642 27.6627 23.0642C24.6574 23.0642 22.5488 26.0935 23.2919 28.912C24.5491 33.8869 24.7555 38.6817 23.9044 43.2998L23.9038 43.3032C23.1652 47.4495 21.7468 51.1795 19.8121 54.3403C19.6463 54.6111 19.7315 54.9651 20.0024 55.1309C20.2732 55.2967 20.6272 55.2115 20.793 54.9406C22.8068 51.6506 24.2734 47.7845 25.0357 43.5065C25.9194 38.7103 25.7004 33.7474 24.4061 28.6272L24.4045 28.6212C23.8472 26.5129 25.4007 24.2142 27.6627 24.2142C29.2952 24.2142 30.6735 25.4151 30.9778 27.0313C31.8148 31.886 32.2507 36.3879 31.9403 40.264C31.915 40.5806 32.151 40.8577 32.4676 40.8831C32.7841 40.9084 33.0613 40.6724 33.0867 40.3558C33.4084 36.3382 32.9543 31.7254 32.1104 26.8317C32.1099 26.829 32.1094 26.8263 32.1089 26.8236Z" fill="currentColor"/>
<path d="M25.947 51.7275C26.2294 51.8727 26.3407 52.2193 26.1956 52.5017L24.672 55.4668C24.5268 55.7492 24.1802 55.8605 23.8977 55.7154C23.6153 55.5702 23.504 55.2236 23.6491 54.9411L25.1727 51.9761C25.3179 51.6937 25.6645 51.5824 25.947 51.7275Z" fill="currentColor"/>
<path d="M28.0904 27.3781C28.0178 27.0689 27.7083 26.8772 27.3991 26.9498C27.09 27.0224 26.8982 27.3319 26.9709 27.6411C28.9099 35.8953 28.6436 43.1433 26.2817 49.3176C26.1683 49.6142 26.3167 49.9466 26.6133 50.0601C26.9099 50.1736 27.2424 50.0251 27.3558 49.7285C29.8185 43.2907 30.0688 35.7999 28.0904 27.3781Z" fill="currentColor"/>
</g>
<defs>
<clipPath id="clip0_16950_249667">
<rect width="56" height="56" fill="currentColor"/>
</clipPath>
</defs>
</svg>
