<svg width="19" height="20" viewBox="0 0 19 20" fill="none" xmlns="http://www.w3.org/2000/svg">
<path d="M9.99987 9.07011C9.99987 12.6181 8.99109 15.9285 7.24707 18.7252M3.80688 16.6665C3.82459 16.6364 3.84273 16.6065 3.8613 16.5767C5.2158 14.4046 5.99991 11.8359 5.99991 9.07011C5.99991 6.84161 7.79077 5.03506 9.99991 5.03506C12.209 5.03506 13.9999 6.84161 13.9999 9.07011C13.9999 10.0961 13.9307 11.1064 13.7966 12.0964M11.6792 19C12.2909 17.7683 12.7924 16.4713 13.1707 15.1227M17.0097 16.2646C17.6547 13.9784 18 11.5649 18 9.07011C18 4.61311 14.4183 1 10 1C8.54285 1 7.17669 1.39299 6 2.07964M1 13.4725C1.64066 12.1422 2 10.6485 2 9.07011C2 7.60019 2.38958 6.22206 3.07026 5.03506" stroke="#353131" stroke-width="1.5" stroke-linecap="round" stroke-linejoin="round"/>
</svg>
