<svg width="24" height="24" viewBox="0 0 24 24" fill="none" xmlns="http://www.w3.org/2000/svg">
<path fill-rule="evenodd" clip-rule="evenodd" d="M13.1304 6.25H3.81818C2.3849 6.25 1.25 7.43233 1.25 8.85714V18.1429C1.25 19.5677 2.3849 20.75 3.81818 20.75H20.1818C21.6151 20.75 22.75 19.5677 22.75 18.1429V9.68403C22.2988 10.0457 21.7942 10.3436 21.25 10.5639V18.1429C21.25 18.7694 20.7568 19.25 20.1818 19.25H3.81818C3.24315 19.25 2.75 18.7694 2.75 18.1429V8.85714C2.75 8.23061 3.24315 7.75 3.81818 7.75H13.6659C13.4244 7.28247 13.2425 6.77911 13.1304 6.25ZM12.75 9.32145C12.75 8.90724 12.4142 8.57144 12 8.57143C11.5858 8.57142 11.25 8.90719 11.25 9.32141L11.25 9.65464H10.909C9.62798 9.65464 8.52267 10.6415 8.52267 11.9522C8.52267 13.2629 9.62798 14.2498 10.909 14.2498H13.0909C13.6235 14.2498 13.9773 14.6429 13.9773 15.0474C13.9773 15.452 13.6235 15.845 13.0909 15.845H10.909C10.3765 15.845 10.0227 15.452 10.0227 15.0474V14.5316H8.52267V15.0474C8.52267 16.3581 9.62798 17.345 10.909 17.345H11.25V17.6785C11.25 18.0928 11.5858 18.4285 12 18.4285C12.4142 18.4285 12.75 18.0928 12.75 17.6785V17.345H13.0909C14.372 17.345 15.4773 16.3581 15.4773 15.0474C15.4773 13.7367 14.372 12.7498 13.0909 12.7498H10.909C10.3765 12.7498 10.0227 12.3568 10.0227 11.9522C10.0227 11.5477 10.3765 11.1546 10.909 11.1546H12H13.0909C13.6235 11.1546 13.9773 11.5477 13.9773 11.9522V12.4681H15.4773V11.9522C15.4773 10.6415 14.372 9.65464 13.0909 9.65464H12.75L12.75 9.32145Z" fill="#3E4FE5"/>
<path d="M17 5L18.5 6.5L22 3" stroke="#3E4FE5" stroke-width="1.5" stroke-linecap="round" stroke-linejoin="round"/>
</svg>
