<svg width="24" height="24" viewBox="0 0 24 24" fill="none" xmlns="http://www.w3.org/2000/svg">
<path d="M3.10839 15.1972C4.35839 19.1492 7.86671 22 12 22C16.1333 22 19.9167 18.9272 21.025 14.7265M5.26665 15.9432L2.96666 14.7265L2 17.2575M20.8917 8.80285C19.6417 4.8508 16.1334 2 12.0001 2C7.86677 2 4.08345 5.07283 2.96679 9.27354M18.7333 8.05683L21.025 9.27353L22 6.74245" stroke="#3E4FE5" stroke-width="1.5" stroke-linecap="round" stroke-linejoin="round"/>
<path d="M11.3499 17C11.3499 17.359 11.6409 17.65 11.9999 17.65C12.3589 17.65 12.6499 17.359 12.6499 17H11.3499ZM12.6499 15.3333C12.6499 14.9743 12.3589 14.6833 11.9999 14.6833C11.6409 14.6833 11.3499 14.9743 11.3499 15.3333H12.6499ZM12.6499 7C12.6499 6.64101 12.3589 6.35 11.9999 6.35C11.641 6.35 11.3499 6.64101 11.3499 7H12.6499ZM11.3499 8.66672C11.3499 9.02571 11.641 9.31672 11.9999 9.31672C12.3589 9.31672 12.6499 9.02571 12.6499 8.66672H11.3499ZM14.4728 9.15497L14.0312 9.63191L14.0312 9.63191L14.4728 9.15497ZM9.52721 9.15497L9.08558 8.67803L9.52721 9.15497ZM9.52721 11.5121L9.08558 11.989H9.08558L9.52721 11.5121ZM14.4728 12.4884L14.0312 12.9653L14.0312 12.9653L14.4728 12.4884ZM14.4728 14.8455L14.0312 14.3686L14.0312 14.3686L14.4728 14.8455ZM9.52721 14.8455L9.96883 14.3686L9.96883 14.3686L9.52721 14.8455ZM12.6499 17V15.3333H11.3499V17H12.6499ZM11.3499 7V8.66672H12.6499V7H11.3499ZM15.65 10.3335C15.65 9.70225 15.3787 9.10796 14.9144 8.67803L14.0312 9.63191C14.242 9.82712 14.35 10.0807 14.35 10.3335H15.65ZM14.9144 8.67803C14.4518 8.24966 13.8343 8.0168 13.2 8.0168V9.3168C13.5204 9.3168 13.8187 9.43513 14.0312 9.63191L14.9144 8.67803ZM13.2 8.0168H10.8V9.3168H13.2V8.0168ZM10.8 8.0168C10.1657 8.0168 9.54821 8.24966 9.08558 8.67803L9.96883 9.63191C10.1813 9.43513 10.4796 9.3168 10.8 9.3168V8.0168ZM9.08558 8.67803C8.62128 9.10796 8.35 9.70225 8.35 10.3335H9.65C9.65 10.0807 9.75801 9.82712 9.96883 9.63191L9.08558 8.67803ZM8.35 10.3335C8.35 10.9648 8.62128 11.5591 9.08558 11.989L9.96883 11.0351C9.75801 10.8399 9.65 10.5863 9.65 10.3335H8.35ZM9.08558 11.989C9.54821 12.4174 10.1657 12.6502 10.8 12.6502V11.3502C10.4796 11.3502 10.1813 11.2319 9.96883 11.0351L9.08558 11.989ZM10.8 12.6502H13.2V11.3502H10.8V12.6502ZM13.2 12.6502C13.5204 12.6502 13.8187 12.7686 14.0312 12.9653L14.9144 12.0115C14.4518 11.5831 13.8343 11.3502 13.2 11.3502V12.6502ZM14.0312 12.9653C14.242 13.1606 14.35 13.4142 14.35 13.667H15.65C15.65 13.0357 15.3787 12.4414 14.9144 12.0115L14.0312 12.9653ZM14.35 13.667C14.35 13.9198 14.242 14.1734 14.0312 14.3686L14.9144 15.3224C15.3787 14.8925 15.65 14.2982 15.65 13.667H14.35ZM14.0312 14.3686C13.8187 14.5653 13.5204 14.6837 13.2 14.6837V15.9837C13.8343 15.9837 14.4518 15.7508 14.9144 15.3224L14.0312 14.3686ZM13.2 14.6837H10.8V15.9837H13.2V14.6837ZM10.8 14.6837C10.4796 14.6837 10.1813 14.5653 9.96883 14.3686L9.08558 15.3224C9.54821 15.7508 10.1657 15.9837 10.8 15.9837V14.6837ZM9.96883 14.3686C9.75801 14.1734 9.65 13.9198 9.65 13.667H8.35C8.35 14.2982 8.62128 14.8925 9.08558 15.3224L9.96883 14.3686Z" fill="#3E4FE5"/>
</svg>
