<svg width="25" height="24" viewBox="0 0 25 24" fill="none" xmlns="http://www.w3.org/2000/svg">
<path d="M15.25 17C15.25 17.4142 15.5858 17.75 16 17.75C16.4143 17.75 16.75 17.4142 16.75 17H15.25ZM16.75 15.8335C16.75 15.4193 16.4143 15.0835 16 15.0835C15.5858 15.0835 15.25 15.4193 15.25 15.8335H16.75ZM16.75 8.00002C16.75 7.58581 16.4143 7.25001 16.0001 7.25C15.5858 7.24999 15.25 7.58576 15.25 7.99998L16.75 8.00002ZM19.75 11.3887V10.8332H18.25V11.3887H19.75ZM19.75 10.8332C19.75 9.44205 18.5563 8.41654 17.2 8.41654V9.91654C17.8387 9.91654 18.25 10.3771 18.25 10.8332H19.75ZM14.8 8.41654C13.4437 8.41654 12.25 9.44205 12.25 10.8332H13.75C13.75 10.3771 14.1613 9.91654 14.8 9.91654V8.41654ZM12.25 10.8332C12.25 12.2243 13.4437 13.2498 14.8 13.2498V11.7498C14.1613 11.7498 13.75 11.2892 13.75 10.8332H12.25ZM14.8 13.2498H17.2V11.7498H14.8V13.2498ZM17.2 13.2498C17.8387 13.2498 18.25 13.7104 18.25 14.1665H19.75C19.75 12.7753 18.5563 11.7498 17.2 11.7498V13.2498ZM18.25 14.1665C18.25 14.6225 17.8387 15.0831 17.2 15.0831V16.5831C18.5563 16.5831 19.75 15.5576 19.75 14.1665H18.25ZM17.2 15.0831H14.8V16.5831H17.2V15.0831ZM14.8 15.0831C14.1613 15.0831 13.75 14.6225 13.75 14.1665H12.25C12.25 15.5576 13.4437 16.5831 14.8 16.5831V15.0831ZM13.75 14.1665V13.6109H12.25V14.1665H13.75ZM16.75 17V15.8335H15.25V17H16.75ZM15.25 7.99998L15.25 9.16652L16.75 9.16656L16.75 8.00002L15.25 7.99998ZM17.2 8.41654H16V9.91654H17.2V8.41654ZM16 8.41654H14.8V9.91654H16V8.41654Z" fill="#3E4FE5"/>
<path d="M6 5H22C23.1046 5 24 5.89543 24 7V18C24 19.1046 23.1046 20 22 20H6" stroke="#3E4FE5" stroke-width="1.5"/>
<path d="M5 9L8 9" stroke="#3E4FE5" stroke-width="1.5" stroke-linecap="round"/>
<path d="M1 12H8" stroke="#3E4FE5" stroke-width="1.5" stroke-linecap="round"/>
<path d="M4 15L8 15" stroke="#3E4FE5" stroke-width="1.5" stroke-linecap="round"/>
</svg>
