<svg width="24" height="20" viewBox="0 0 24 20" fill="none" xmlns="http://www.w3.org/2000/svg">
<path d="M18.1111 6.14286V3.57143C18.1111 2.15127 17.0167 1 15.6667 1H3.44444C2.09442 1 1 2.15127 1 3.57143V11.2857C1 12.7059 2.09442 13.8571 3.44444 13.8571H5.88889M8.33333 19H20.5556C21.9056 19 23 17.8487 23 16.4286V8.71429C23 7.29412 21.9056 6.14286 20.5556 6.14286H8.33333C6.9833 6.14286 5.88889 7.29412 5.88889 8.71429V16.4286C5.88889 17.8487 6.9833 19 8.33333 19ZM16.8889 12.5714C16.8889 13.9916 15.7945 15.1429 14.4444 15.1429C13.0944 15.1429 12 13.9916 12 12.5714C12 11.1513 13.0944 10 14.4444 10C15.7945 10 16.8889 11.1513 16.8889 12.5714Z" stroke="currentColor" stroke-width="1.5" stroke-linecap="round" stroke-linejoin="round"/>
</svg>
