<svg width="24" height="24" viewBox="0 0 24 24" fill="none" xmlns="http://www.w3.org/2000/svg">
<mask id="path-1-inside-1_20555_146518" fill="white">
<path fill-rule="evenodd" clip-rule="evenodd" d="M8 4C7.44772 4 7 4.44772 7 5V6.5C7 6.77614 6.77614 7 6.5 7H4C2.89543 7 2 7.89543 2 9V19C2 20.1046 2.89543 21 4 21H20C21.1046 21 22 20.1046 22 19V9C22 7.89543 21.1046 7 20 7H17.5C17.2239 7 17 6.77614 17 6.5V5C17 4.44772 16.5523 4 16 4H8Z"/>
</mask>
<path d="M8.5 5C8.5 5.27614 8.27614 5.5 8 5.5V2.5C6.61929 2.5 5.5 3.61929 5.5 5H8.5ZM8.5 6.5V5H5.5V6.5H8.5ZM4 8.5H6.5V5.5H4V8.5ZM3.5 9C3.5 8.72386 3.72386 8.5 4 8.5V5.5C2.067 5.5 0.5 7.067 0.5 9H3.5ZM3.5 19V9H0.5V19H3.5ZM4 19.5C3.72386 19.5 3.5 19.2761 3.5 19H0.5C0.5 20.933 2.067 22.5 4 22.5V19.5ZM20 19.5H4V22.5H20V19.5ZM20.5 19C20.5 19.2761 20.2761 19.5 20 19.5V22.5C21.933 22.5 23.5 20.933 23.5 19H20.5ZM20.5 9V19H23.5V9H20.5ZM20 8.5C20.2761 8.5 20.5 8.72386 20.5 9H23.5C23.5 7.067 21.933 5.5 20 5.5V8.5ZM17.5 8.5H20V5.5H17.5V8.5ZM15.5 5V6.5H18.5V5H15.5ZM16 5.5C15.7239 5.5 15.5 5.27614 15.5 5H18.5C18.5 3.61929 17.3807 2.5 16 2.5V5.5ZM8 5.5H16V2.5H8V5.5ZM17.5 5.5C18.0523 5.5 18.5 5.94772 18.5 6.5H15.5C15.5 7.60457 16.3954 8.5 17.5 8.5V5.5ZM5.5 6.5C5.5 5.94772 5.94772 5.5 6.5 5.5V8.5C7.60457 8.5 8.5 7.60457 8.5 6.5H5.5Z" fill="currentColor" mask="url(#path-1-inside-1_20555_146518)"/>
<rect x="0.75" y="-0.75" width="5.5" height="5.5" rx="2.75" transform="matrix(-1 0 0 1 15.5 11)" stroke="currentColor" stroke-width="1.5"/>
</svg>
