<svg width="24" height="24" viewBox="0 0 24 24" fill="none" xmlns="http://www.w3.org/2000/svg">
<path d="M15.375 18.1111H19.8602C20.2957 18.1111 20.5231 17.593 20.2281 17.2725L19.4195 16.394C18.9908 15.9283 18.75 15.2967 18.75 14.6381V10.7778C18.75 7.5848 16.8717 4.86844 14.25 3.86173V3.44444C14.25 2.09442 13.2426 1 12 1C10.7574 1 9.75 2.09442 9.75 3.44444V3.86173C7.12832 4.86844 5.25 7.5848 5.25 10.7778V14.6381C5.25 15.2967 5.00919 15.9283 4.58055 16.394L3.77191 17.2725C3.47695 17.593 3.70425 18.1111 4.13979 18.1111H8.625M15.375 18.1111V19.3333C15.375 21.3584 13.864 23 12 23C10.136 23 8.625 21.3584 8.625 19.3333V18.1111M15.375 18.1111H8.625" stroke="currentColor" stroke-width="1.5" stroke-linecap="round" stroke-linejoin="round"/>
<path d="M6.75 1.86328C4.12832 2.86999 2.25 5.58635 2.25 8.77933V12.0016" stroke="currentColor" stroke-width="1.5" stroke-linecap="round" stroke-linejoin="round"/>
<path d="M17.25 1.86328C19.8717 2.86999 21.75 5.58635 21.75 8.77933V12.0016" stroke="currentColor" stroke-width="1.5" stroke-linecap="round" stroke-linejoin="round"/>
</svg>
