<svg width="26" height="22" viewBox="0 0 26 22" fill="none" xmlns="http://www.w3.org/2000/svg">
    <path d="M1.75 5.17337C1.75 4.75915 1.41421 4.42337 1 4.42337C0.585786 4.42337 0.25 4.75915 0.25 5.17337H1.75ZM3.08696 1V1.75V1ZM20.0759 5.17393C20.0759 5.58814 20.4117 5.92393 20.8259 5.92393C21.2401 5.92393 21.5759 5.58814 21.5759 5.17393H20.0759ZM19.7824 1V0.25V1ZM17.6959 14.5651L17.696 13.8151H17.6959V14.5651ZM17.6959 10.3912V11.1412H17.6959L17.6959 10.3912ZM8.05006 17.8001C8.05006 18.2143 8.38584 18.5501 8.80006 18.5501C9.21427 18.5501 9.55006 18.2143 9.55006 17.8001H8.05006ZM9.55006 16.66C9.55006 16.2458 9.21427 15.91 8.80006 15.91C8.38584 15.91 8.05006 16.2458 8.05006 16.66H9.55006ZM9.55006 8.20002C9.55006 7.7858 9.21427 7.45002 8.80006 7.45002C8.38584 7.45002 8.05006 7.7858 8.05006 8.20002H9.55006ZM10.0001 9.46008V8.71008V9.46008ZM7.60005 9.46008V8.71008V9.46008ZM5.80004 11.2601H5.05004H5.80004ZM5.80004 14.8601H5.05004H5.80004ZM23.2063 14.566V19.7834H24.7063V14.566H23.2063ZM23.2063 19.7834C23.2063 19.9431 23.0725 20.0769 22.9128 20.0769V21.5769C23.901 21.5769 24.7063 20.7715 24.7063 19.7834H23.2063ZM22.9128 20.0769H3.08668V21.5769H22.9128V20.0769ZM3.08668 5.92337H22.9128V4.42337H3.08668V5.92337ZM22.9128 5.92337C23.0725 5.92337 23.2063 6.05715 23.2063 6.21685H24.7063C24.7063 5.22872 23.901 4.42337 22.9128 4.42337V5.92337ZM23.2063 6.21685V10.3908H24.7063V6.21685H23.2063ZM0.25 5.17337V6.21685H1.75V5.17337H0.25ZM0.25 6.21685V18.7386H1.75V6.21685H0.25ZM3.08696 0.25C1.52492 0.25 0.25 1.52492 0.25 3.08696H1.75C1.75 2.35335 2.35335 1.75 3.08696 1.75V0.25ZM0.25 3.08696C0.25 4.64914 1.52477 5.92337 3.08668 5.92337V4.42337C2.35293 4.42337 1.75 3.82045 1.75 3.08696H0.25ZM1.75 6.21685V3.08696H0.25V6.21685H1.75ZM21.5759 5.17393V2.04348H20.0759V5.17393H21.5759ZM21.5759 2.04348C21.5759 1.05535 20.7705 0.25 19.7824 0.25V1.75C19.9421 1.75 20.0759 1.88378 20.0759 2.04348H21.5759ZM19.7824 0.25H3.08696V1.75H19.7824V0.25ZM0.25 18.7386C0.25 20.2999 1.5239 21.5769 3.08668 21.5769V20.0769C2.3538 20.0769 1.75 19.473 1.75 18.7386H0.25ZM17.6959 13.8151C16.9623 13.8151 16.3589 13.2118 16.3589 12.4781H14.8589C14.8589 14.0402 16.1339 15.3151 17.6959 15.3151V13.8151ZM16.3589 12.4781C16.3589 11.7445 16.9623 11.1412 17.6959 11.1412V9.64117C16.1339 9.64117 14.8589 10.9161 14.8589 12.4781H16.3589ZM17.6958 15.3151L23.9562 15.316L23.9564 13.816L17.696 13.8151L17.6958 15.3151ZM23.9563 15.316C24.9451 15.316 25.75 14.5091 25.75 13.5216H24.25C24.25 13.682 24.1154 13.816 23.9563 13.816V15.316ZM25.75 13.5216V11.4347H24.25V13.5216H25.75ZM25.75 11.4347C25.75 10.4467 24.9446 9.64078 23.9563 9.64078V11.1408C24.1158 11.1408 24.25 11.2748 24.25 11.4347H25.75ZM23.9563 9.64078L17.6959 9.64117L17.6959 11.1412L23.9564 11.1408L23.9563 9.64078ZM9.55006 17.8001V16.66H8.05006V17.8001H9.55006ZM8.05006 8.20002V9.46008H9.55006V8.20002H8.05006ZM12.5501 11.8601V11.2601H11.0501V11.8601H12.5501ZM12.5501 11.2601C12.5501 10.5838 12.2814 9.93518 11.8032 9.45696L10.7425 10.5176C10.9395 10.7145 11.0501 10.9816 11.0501 11.2601H12.5501ZM11.8032 9.45696C11.325 8.97874 10.6764 8.71008 10.0001 8.71008V10.2101C10.2785 10.2101 10.5456 10.3207 10.7425 10.5176L11.8032 9.45696ZM10.0001 8.71008H7.60005V10.2101H10.0001V8.71008ZM7.60005 8.71008C6.92375 8.71008 6.27514 8.97874 5.79692 9.45696L6.85758 10.5176C7.0545 10.3207 7.32157 10.2101 7.60005 10.2101V8.71008ZM5.79692 9.45696C5.3187 9.93518 5.05004 10.5838 5.05004 11.2601H6.55004C6.55004 10.9816 6.66067 10.7145 6.85758 10.5176L5.79692 9.45696ZM5.05004 11.2601C5.05004 11.9364 5.3187 12.585 5.79692 13.0632L6.85758 12.0026C6.66067 11.8056 6.55004 11.5386 6.55004 11.2601H5.05004ZM5.79692 13.0632C6.27514 13.5414 6.92375 13.8101 7.60005 13.8101V12.3101C7.32157 12.3101 7.0545 12.1995 6.85758 12.0026L5.79692 13.0632ZM7.60005 13.8101H10.0001V12.3101H7.60005V13.8101ZM10.0001 13.8101C10.2785 13.8101 10.5456 13.9207 10.7425 14.1176L11.8032 13.057C11.325 12.5788 10.6764 12.3101 10.0001 12.3101V13.8101ZM10.7425 14.1176C10.9395 14.3146 11.0501 14.5816 11.0501 14.8601H12.5501C12.5501 14.1838 12.2814 13.5352 11.8032 13.057L10.7425 14.1176ZM11.0501 14.8601C11.0501 15.1386 10.9395 15.4057 10.7425 15.6026L11.8032 16.6632C12.2814 16.185 12.5501 15.5364 12.5501 14.8601H11.0501ZM10.7425 15.6026C10.5456 15.7995 10.2785 15.9101 10.0001 15.9101V17.4101C10.6764 17.4101 11.325 17.1415 11.8032 16.6632L10.7425 15.6026ZM10.0001 15.9101H7.60005V17.4101H10.0001V15.9101ZM7.60005 15.9101C7.32157 15.9101 7.0545 15.7995 6.85758 15.6026L5.79692 16.6632C6.27514 17.1415 6.92375 17.4101 7.60005 17.4101V15.9101ZM6.85758 15.6026C6.66067 15.4057 6.55004 15.1386 6.55004 14.8601H5.05004C5.05004 15.5364 5.3187 16.185 5.79692 16.6632L6.85758 15.6026ZM6.55004 14.8601V14.2601H5.05004V14.8601H6.55004Z" fill="currentColor" />
</svg>