<svg width="428" height="926" viewBox="0 0 428 926" fill="none" xmlns="http://www.w3.org/2000/svg">
<g clip-path="url(#clip0_30685_197120)">
<path d="M26.4492 338.97C26.4492 339.78 27.0992 340.42 27.8992 340.42C28.6992 340.42 29.3492 339.77 29.3492 338.97C29.3492 338.17 28.6992 337.52 27.8992 337.52C27.1092 337.52 26.4692 338.17 26.4492 338.97Z" fill="#323FB7"/>
<path d="M398.529 338.97C398.529 339.78 399.179 340.42 399.979 340.42C400.779 340.42 401.429 339.77 401.429 338.97C401.429 338.17 400.779 337.52 399.979 337.52C399.189 337.52 398.549 338.17 398.529 338.97Z" fill="#323FB7"/>
<path d="M26.4492 307.97C26.4492 308.78 27.0992 309.42 27.8992 309.42C28.6992 309.42 29.3492 308.77 29.3492 307.97C29.3492 307.17 28.6992 306.52 27.8992 306.52C27.1092 306.52 26.4692 307.17 26.4492 307.97Z" fill="#323FB7"/>
<path d="M57.4492 307.97C57.4492 308.78 58.0992 309.42 58.8992 309.42C59.6992 309.42 60.3492 308.77 60.3492 307.97C60.3492 307.17 59.6992 306.52 58.8992 306.52C58.1092 306.52 57.4692 307.17 57.4492 307.97Z" fill="#323FB7"/>
<path d="M88.459 307.97C88.459 308.78 89.109 309.42 89.909 309.42C90.709 309.42 91.359 308.77 91.359 307.97C91.359 307.17 90.709 306.52 89.909 306.52C89.119 306.52 88.479 307.17 88.459 307.97Z" fill="#323FB7"/>
<path d="M123.809 307.968C123.809 306.358 122.499 305.078 120.919 305.078C119.339 305.078 118.029 306.388 118.029 307.968C118.029 309.548 119.339 310.858 120.919 310.858C122.509 310.858 123.779 309.548 123.809 307.968Z" fill="#323FB7"/>
<path d="M154.809 307.968C154.809 306.358 153.499 305.078 151.919 305.078C150.339 305.078 149.029 306.388 149.029 307.968C149.029 309.548 150.339 310.858 151.919 310.858C153.509 310.858 154.779 309.548 154.809 307.968Z" fill="#323FB7"/>
<path d="M181.479 307.97C181.479 308.78 182.129 309.42 182.929 309.42C183.729 309.42 184.379 308.77 184.379 307.97C184.379 307.17 183.729 306.52 182.929 306.52C182.139 306.52 181.499 307.17 181.479 307.97Z" fill="#323FB7"/>
<path d="M216.829 307.968C216.829 306.358 215.519 305.078 213.939 305.078C212.359 305.078 211.049 306.388 211.049 307.968C211.049 309.548 212.359 310.858 213.939 310.858C215.529 310.858 216.799 309.548 216.829 307.968Z" fill="#323FB7"/>
<path d="M247.829 307.968C247.829 306.358 246.519 305.078 244.939 305.078C243.359 305.078 242.049 306.388 242.049 307.968C242.049 309.548 243.359 310.858 244.939 310.858C246.529 310.858 247.799 309.548 247.829 307.968Z" fill="#323FB7"/>
<path d="M278.839 307.968C278.839 306.358 277.529 305.078 275.949 305.078C274.369 305.078 273.059 306.388 273.059 307.968C273.059 309.548 274.369 310.858 275.949 310.858C277.539 310.858 278.809 309.548 278.839 307.968Z" fill="#323FB7"/>
<path d="M309.848 307.968C309.848 306.358 308.538 305.078 306.958 305.078C305.378 305.078 304.068 306.388 304.068 307.968C304.068 309.548 305.378 310.858 306.958 310.858C308.548 310.858 309.818 309.548 309.848 307.968Z" fill="#323FB7"/>
<path d="M336.51 307.97C336.51 308.78 337.16 309.42 337.96 309.42C338.76 309.42 339.41 308.77 339.41 307.97C339.41 307.17 338.76 306.52 337.96 306.52C337.17 306.52 336.53 307.17 336.51 307.97Z" fill="#323FB7"/>
<path d="M367.52 307.97C367.52 308.78 368.17 309.42 368.97 309.42C369.77 309.42 370.42 308.77 370.42 307.97C370.42 307.17 369.77 306.52 368.97 306.52C368.18 306.52 367.54 307.17 367.52 307.97Z" fill="#323FB7"/>
<path d="M402.87 307.968C402.87 306.358 401.56 305.078 399.98 305.078C398.4 305.078 397.09 306.388 397.09 307.968C397.09 309.548 398.4 310.858 399.98 310.858C401.57 310.858 402.84 309.548 402.87 307.968Z" fill="#323FB7"/>
<path d="M26.4492 276.962C26.4492 277.772 27.0992 278.412 27.8992 278.412C28.6992 278.412 29.3492 277.762 29.3492 276.962C29.3492 276.162 28.6992 275.512 27.8992 275.512C27.1092 275.512 26.4692 276.162 26.4492 276.962Z" fill="#323FB7"/>
<path d="M61.7898 276.96C61.7898 275.35 60.4798 274.07 58.8998 274.07C57.3198 274.07 56.0098 275.38 56.0098 276.96C56.0098 278.54 57.3198 279.85 58.8998 279.85C60.4898 279.85 61.7598 278.54 61.7898 276.96Z" fill="#323FB7"/>
<path d="M92.7995 276.96C92.7995 275.35 91.4895 274.07 89.9095 274.07C88.3295 274.07 87.0195 275.38 87.0195 276.96C87.0195 278.54 88.3295 279.85 89.9095 279.85C91.4995 279.85 92.7695 278.54 92.7995 276.96Z" fill="#323FB7"/>
<path d="M123.809 276.96C123.809 275.35 122.499 274.07 120.919 274.07C119.339 274.07 118.029 275.38 118.029 276.96C118.029 278.54 119.339 279.85 120.919 279.85C122.509 279.85 123.779 278.54 123.809 276.96Z" fill="#323FB7"/>
<path d="M154.809 276.96C154.809 275.35 153.499 274.07 151.919 274.07C150.339 274.07 149.029 275.38 149.029 276.96C149.029 278.54 150.339 279.85 151.919 279.85C153.509 279.85 154.779 278.54 154.809 276.96Z" fill="#323FB7"/>
<path d="M185.819 276.96C185.819 275.35 184.509 274.07 182.929 274.07C181.349 274.07 180.039 275.38 180.039 276.96C180.039 278.54 181.349 279.85 182.929 279.85C184.519 279.85 185.789 278.54 185.819 276.96Z" fill="#323FB7"/>
<path d="M216.829 276.96C216.829 275.35 215.519 274.07 213.939 274.07C212.359 274.07 211.049 275.38 211.049 276.96C211.049 278.54 212.359 279.85 213.939 279.85C215.529 279.85 216.799 278.54 216.829 276.96Z" fill="#323FB7"/>
<path d="M247.829 276.96C247.829 275.35 246.519 274.07 244.939 274.07C243.359 274.07 242.049 275.38 242.049 276.96C242.049 278.54 243.359 279.85 244.939 279.85C246.529 279.85 247.799 278.54 247.829 276.96Z" fill="#323FB7"/>
<path d="M278.839 276.96C278.839 275.35 277.529 274.07 275.949 274.07C274.369 274.07 273.059 275.38 273.059 276.96C273.059 278.54 274.369 279.85 275.949 279.85C277.539 279.85 278.809 278.54 278.839 276.96Z" fill="#323FB7"/>
<path d="M305.51 276.962C305.51 277.772 306.16 278.412 306.96 278.412C307.76 278.412 308.41 277.762 308.41 276.962C308.41 276.162 307.76 275.512 306.96 275.512C306.17 275.512 305.53 276.162 305.51 276.962Z" fill="#323FB7"/>
<path d="M336.51 276.962C336.51 277.772 337.16 278.412 337.96 278.412C338.76 278.412 339.41 277.762 339.41 276.962C339.41 276.162 338.76 275.512 337.96 275.512C337.17 275.512 336.53 276.162 336.51 276.962Z" fill="#323FB7"/>
<path d="M371.86 276.96C371.86 275.35 370.55 274.07 368.97 274.07C367.39 274.07 366.08 275.38 366.08 276.96C366.08 278.54 367.39 279.85 368.97 279.85C370.56 279.85 371.83 278.54 371.86 276.96Z" fill="#323FB7"/>
<path d="M402.87 276.96C402.87 275.35 401.56 274.07 399.98 274.07C398.4 274.07 397.09 275.38 397.09 276.96C397.09 278.54 398.4 279.85 399.98 279.85C401.57 279.85 402.84 278.54 402.87 276.96Z" fill="#323FB7"/>
<path d="M30.7898 245.949C30.7898 244.339 29.4798 243.059 27.8998 243.059C26.3198 243.059 25.0098 244.369 25.0098 245.949C25.0098 247.529 26.3198 248.839 27.8998 248.839C29.4898 248.839 30.7598 247.529 30.7898 245.949Z" fill="#323FB7"/>
<path d="M61.7898 245.949C61.7898 244.339 60.4798 243.059 58.8998 243.059C57.3198 243.059 56.0098 244.369 56.0098 245.949C56.0098 247.529 57.3198 248.839 58.8998 248.839C60.4898 248.839 61.7598 247.529 61.7898 245.949Z" fill="#323FB7"/>
<path d="M92.7995 245.949C92.7995 244.339 91.4895 243.059 89.9095 243.059C88.3295 243.059 87.0195 244.369 87.0195 245.949C87.0195 247.529 88.3295 248.839 89.9095 248.839C91.4995 248.839 92.7695 247.529 92.7995 245.949Z" fill="#323FB7"/>
<path d="M123.809 245.949C123.809 244.339 122.499 243.059 120.919 243.059C119.339 243.059 118.029 244.369 118.029 245.949C118.029 247.529 119.339 248.839 120.919 248.839C122.509 248.839 123.779 247.529 123.809 245.949Z" fill="#323FB7"/>
<path d="M154.809 245.949C154.809 244.339 153.499 243.059 151.919 243.059C150.339 243.059 149.029 244.369 149.029 245.949C149.029 247.529 150.339 248.839 151.919 248.839C153.509 248.839 154.779 247.529 154.809 245.949Z" fill="#323FB7"/>
<path d="M185.819 245.949C185.819 244.339 184.509 243.059 182.929 243.059C181.349 243.059 180.039 244.369 180.039 245.949C180.039 247.529 181.349 248.839 182.929 248.839C184.519 248.839 185.789 247.529 185.819 245.949Z" fill="#323FB7"/>
<path d="M216.829 245.949C216.829 244.339 215.519 243.059 213.939 243.059C212.359 243.059 211.049 244.369 211.049 245.949C211.049 247.529 212.359 248.839 213.939 248.839C215.529 248.839 216.799 247.529 216.829 245.949Z" fill="#323FB7"/>
<path d="M243.49 245.95C243.49 246.76 244.14 247.4 244.94 247.4C245.74 247.4 246.39 246.75 246.39 245.95C246.39 245.15 245.74 244.5 244.94 244.5C244.15 244.5 243.51 245.15 243.49 245.95Z" fill="#323FB7"/>
<path d="M274.5 245.95C274.5 246.76 275.15 247.4 275.95 247.4C276.75 247.4 277.4 246.75 277.4 245.95C277.4 245.15 276.75 244.5 275.95 244.5C275.16 244.5 274.52 245.15 274.5 245.95Z" fill="#323FB7"/>
<path d="M309.85 245.949C309.85 244.339 308.54 243.059 306.96 243.059C305.38 243.059 304.07 244.369 304.07 245.949C304.07 247.529 305.38 248.839 306.96 248.839C308.55 248.839 309.82 247.529 309.85 245.949Z" fill="#323FB7"/>
<path d="M340.85 245.949C340.85 244.339 339.54 243.059 337.96 243.059C336.38 243.059 335.07 244.369 335.07 245.949C335.07 247.529 336.38 248.839 337.96 248.839C339.55 248.839 340.82 247.529 340.85 245.949Z" fill="#323FB7"/>
<path d="M373.299 245.949C373.299 243.529 371.339 241.609 368.959 241.609C366.579 241.609 364.619 243.569 364.619 245.949C364.619 248.329 366.579 250.289 368.959 250.289C371.339 250.289 373.259 248.329 373.299 245.949Z" fill="#323FB7"/>
<path d="M404.309 245.949C404.309 243.529 402.349 241.609 399.969 241.609C397.589 241.609 395.629 243.569 395.629 245.949C395.629 248.329 397.589 250.289 399.969 250.289C402.349 250.289 404.269 248.329 404.309 245.949Z" fill="#323FB7"/>
<path d="M30.7898 214.952C30.7898 213.342 29.4798 212.062 27.8998 212.062C26.3198 212.062 25.0098 213.372 25.0098 214.952C25.0098 216.532 26.3198 217.842 27.8998 217.842C29.4898 217.842 30.7598 216.532 30.7898 214.952Z" fill="#323FB7"/>
<path d="M61.7898 214.952C61.7898 213.342 60.4798 212.062 58.8998 212.062C57.3198 212.062 56.0098 213.372 56.0098 214.952C56.0098 216.532 57.3198 217.842 58.8998 217.842C60.4898 217.842 61.7598 216.532 61.7898 214.952Z" fill="#323FB7"/>
<path d="M92.7995 214.952C92.7995 213.342 91.4895 212.062 89.9095 212.062C88.3295 212.062 87.0195 213.372 87.0195 214.952C87.0195 216.532 88.3295 217.842 89.9095 217.842C91.4995 217.842 92.7695 216.532 92.7995 214.952Z" fill="#323FB7"/>
<path d="M123.809 214.952C123.809 213.342 122.499 212.062 120.919 212.062C119.339 212.062 118.029 213.372 118.029 214.952C118.029 216.532 119.339 217.842 120.919 217.842C122.509 217.842 123.779 216.532 123.809 214.952Z" fill="#323FB7"/>
<path d="M154.809 214.952C154.809 213.342 153.499 212.062 151.919 212.062C150.339 212.062 149.029 213.372 149.029 214.952C149.029 216.532 150.339 217.842 151.919 217.842C153.509 217.842 154.779 216.532 154.809 214.952Z" fill="#323FB7"/>
<path d="M185.819 214.952C185.819 213.342 184.509 212.062 182.929 212.062C181.349 212.062 180.039 213.372 180.039 214.952C180.039 216.532 181.349 217.842 182.929 217.842C184.519 217.842 185.789 216.532 185.819 214.952Z" fill="#323FB7"/>
<path d="M212.49 214.95C212.49 215.76 213.14 216.4 213.94 216.4C214.74 216.4 215.39 215.75 215.39 214.95C215.39 214.15 214.74 213.5 213.94 213.5C213.15 213.5 212.51 214.15 212.49 214.95Z" fill="#323FB7"/>
<path d="M243.49 214.95C243.49 215.76 244.14 216.4 244.94 216.4C245.74 216.4 246.39 215.75 246.39 214.95C246.39 214.15 245.74 213.5 244.94 213.5C244.15 213.5 243.51 214.15 243.49 214.95Z" fill="#323FB7"/>
<path d="M278.841 214.952C278.841 213.342 277.531 212.062 275.951 212.062C274.371 212.062 273.061 213.372 273.061 214.952C273.061 216.532 274.371 217.842 275.951 217.842C277.541 217.842 278.811 216.532 278.841 214.952Z" fill="#323FB7"/>
<path d="M311.289 214.953C311.289 212.533 309.329 210.613 306.949 210.613C304.569 210.613 302.609 212.573 302.609 214.953C302.609 217.333 304.569 219.293 306.949 219.293C309.329 219.293 311.249 217.333 311.289 214.953Z" fill="#323FB7"/>
<path d="M342.299 214.953C342.299 212.533 340.339 210.613 337.959 210.613C335.579 210.613 333.619 212.573 333.619 214.953C333.619 217.333 335.579 219.293 337.959 219.293C340.339 219.293 342.259 217.333 342.299 214.953Z" fill="#323FB7"/>
<path d="M374.75 214.952C374.75 211.722 372.14 209.172 368.96 209.172C365.78 209.172 363.17 211.782 363.17 214.952C363.17 218.122 365.78 220.732 368.96 220.732C372.13 220.732 374.69 218.122 374.75 214.952Z" fill="#323FB7"/>
<path d="M405.76 214.952C405.76 211.722 403.15 209.172 399.97 209.172C396.79 209.172 394.18 211.782 394.18 214.952C394.18 218.122 396.79 220.732 399.97 220.732C403.14 220.732 405.7 218.122 405.76 214.952Z" fill="#323FB7"/>
<path d="M30.7898 183.941C30.7898 182.331 29.4798 181.051 27.8998 181.051C26.3198 181.051 25.0098 182.361 25.0098 183.941C25.0098 185.521 26.3198 186.831 27.8998 186.831C29.4898 186.831 30.7598 185.521 30.7898 183.941Z" fill="#323FB7"/>
<path d="M63.2405 183.942C63.2405 181.522 61.2805 179.602 58.9005 179.602C56.5205 179.602 54.5605 181.562 54.5605 183.942C54.5605 186.322 56.5205 188.282 58.9005 188.282C61.2805 188.282 63.2005 186.322 63.2405 183.942Z" fill="#323FB7"/>
<path d="M92.7995 183.941C92.7995 182.331 91.4895 181.051 89.9095 181.051C88.3295 181.051 87.0195 182.361 87.0195 183.941C87.0195 185.521 88.3295 186.831 89.9095 186.831C91.4995 186.831 92.7695 185.521 92.7995 183.941Z" fill="#323FB7"/>
<path d="M123.809 183.941C123.809 182.331 122.499 181.051 120.919 181.051C119.339 181.051 118.029 182.361 118.029 183.941C118.029 185.521 119.339 186.831 120.919 186.831C122.509 186.831 123.779 185.521 123.809 183.941Z" fill="#323FB7"/>
<path d="M154.809 183.941C154.809 182.331 153.499 181.051 151.919 181.051C150.339 181.051 149.029 182.361 149.029 183.941C149.029 185.521 150.339 186.831 151.919 186.831C153.509 186.831 154.779 185.521 154.809 183.941Z" fill="#323FB7"/>
<path d="M181.48 183.938C181.48 184.748 182.13 185.388 182.93 185.388C183.73 185.388 184.38 184.738 184.38 183.938C184.38 183.138 183.73 182.488 182.93 182.488C182.14 182.488 181.5 183.138 181.48 183.938Z" fill="#323FB7"/>
<path d="M216.829 183.941C216.829 182.331 215.519 181.051 213.939 181.051C212.359 181.051 211.049 182.361 211.049 183.941C211.049 185.521 212.359 186.831 213.939 186.831C215.529 186.831 216.799 185.521 216.829 183.941Z" fill="#323FB7"/>
<path d="M247.829 183.941C247.829 182.331 246.519 181.051 244.939 181.051C243.359 181.051 242.049 182.361 242.049 183.941C242.049 185.521 243.359 186.831 244.939 186.831C246.529 186.831 247.799 185.521 247.829 183.941Z" fill="#323FB7"/>
<path d="M278.841 183.941C278.841 182.331 277.531 181.051 275.951 181.051C274.371 181.051 273.061 182.361 273.061 183.941C273.061 185.521 274.371 186.831 275.951 186.831C277.541 186.831 278.811 185.521 278.841 183.941Z" fill="#323FB7"/>
<path d="M311.289 183.942C311.289 181.522 309.329 179.602 306.949 179.602C304.569 179.602 302.609 181.562 302.609 183.942C302.609 186.322 304.569 188.282 306.949 188.282C309.329 188.282 311.249 186.322 311.289 183.942Z" fill="#323FB7"/>
<path d="M343.74 183.94C343.74 180.71 341.13 178.16 337.95 178.16C334.77 178.16 332.16 180.77 332.16 183.94C332.16 187.11 334.77 189.72 337.95 189.72C341.12 189.72 343.68 187.11 343.74 183.94Z" fill="#323FB7"/>
<path d="M374.75 183.94C374.75 180.71 372.14 178.16 368.96 178.16C365.78 178.16 363.17 180.77 363.17 183.94C363.17 187.11 365.78 189.72 368.96 189.72C372.13 189.72 374.69 187.11 374.75 183.94Z" fill="#323FB7"/>
<path d="M405.76 183.94C405.76 180.71 403.15 178.16 399.97 178.16C396.79 178.16 394.18 180.77 394.18 183.94C394.18 187.11 396.79 189.72 399.97 189.72C403.14 189.72 405.7 187.11 405.76 183.94Z" fill="#323FB7"/>
<path d="M30.7898 152.929C30.7898 151.319 29.4798 150.039 27.8998 150.039C26.3198 150.039 25.0098 151.349 25.0098 152.929C25.0098 154.509 26.3198 155.819 27.8998 155.819C29.4898 155.819 30.7598 154.509 30.7898 152.929Z" fill="#323FB7"/>
<path d="M63.2405 152.93C63.2405 150.51 61.2805 148.59 58.9005 148.59C56.5205 148.59 54.5605 150.55 54.5605 152.93C54.5605 155.31 56.5205 157.27 58.9005 157.27C61.2805 157.27 63.2005 155.31 63.2405 152.93Z" fill="#323FB7"/>
<path d="M94.2405 152.93C94.2405 150.51 92.2806 148.59 89.9006 148.59C87.5206 148.59 85.5605 150.55 85.5605 152.93C85.5605 155.31 87.5206 157.27 89.9006 157.27C92.2806 157.27 94.2005 155.31 94.2405 152.93Z" fill="#323FB7"/>
<path d="M123.809 152.929C123.809 151.319 122.499 150.039 120.919 150.039C119.339 150.039 118.029 151.349 118.029 152.929C118.029 154.509 119.339 155.819 120.919 155.819C122.509 155.819 123.779 154.509 123.809 152.929Z" fill="#323FB7"/>
<path d="M154.809 152.929C154.809 151.319 153.499 150.039 151.919 150.039C150.339 150.039 149.029 151.349 149.029 152.929C149.029 154.509 150.339 155.819 151.919 155.819C153.509 155.819 154.779 154.509 154.809 152.929Z" fill="#323FB7"/>
<path d="M181.48 152.927C181.48 153.737 182.13 154.377 182.93 154.377C183.73 154.377 184.38 153.727 184.38 152.927C184.38 152.127 183.73 151.477 182.93 151.477C182.14 151.477 181.5 152.127 181.48 152.927Z" fill="#323FB7"/>
<path d="M216.829 152.929C216.829 151.319 215.519 150.039 213.939 150.039C212.359 150.039 211.049 151.349 211.049 152.929C211.049 154.509 212.359 155.819 213.939 155.819C215.529 155.819 216.799 154.509 216.829 152.929Z" fill="#323FB7"/>
<path d="M247.829 152.929C247.829 151.319 246.519 150.039 244.939 150.039C243.359 150.039 242.049 151.349 242.049 152.929C242.049 154.509 243.359 155.819 244.939 155.819C246.529 155.819 247.799 154.509 247.829 152.929Z" fill="#323FB7"/>
<path d="M280.28 152.93C280.28 150.51 278.32 148.59 275.94 148.59C273.56 148.59 271.6 150.55 271.6 152.93C271.6 155.31 273.56 157.27 275.94 157.27C278.32 157.27 280.24 155.31 280.28 152.93Z" fill="#323FB7"/>
<path d="M312.74 152.928C312.74 149.698 310.13 147.148 306.95 147.148C303.77 147.148 301.16 149.758 301.16 152.928C301.16 156.098 303.77 158.708 306.95 158.708C310.12 158.708 312.68 156.098 312.74 152.928Z" fill="#323FB7"/>
<path d="M343.74 152.928C343.74 149.698 341.13 147.148 337.95 147.148C334.77 147.148 332.16 149.758 332.16 152.928C332.16 156.098 334.77 158.708 337.95 158.708C341.12 158.708 343.68 156.098 343.74 152.928Z" fill="#323FB7"/>
<path d="M374.75 152.928C374.75 149.698 372.14 147.148 368.96 147.148C365.78 147.148 363.17 149.758 363.17 152.928C363.17 156.098 365.78 158.708 368.96 158.708C372.13 158.708 374.69 156.098 374.75 152.928Z" fill="#323FB7"/>
<path d="M405.76 152.928C405.76 149.698 403.15 147.148 399.97 147.148C396.79 147.148 394.18 149.758 394.18 152.928C394.18 156.098 396.79 158.708 399.97 158.708C403.14 158.708 405.7 156.098 405.76 152.928Z" fill="#323FB7"/>
<path d="M32.2308 121.93C32.2308 119.51 30.2708 117.59 27.8908 117.59C25.5108 117.59 23.5508 119.55 23.5508 121.93C23.5508 124.31 25.5108 126.27 27.8908 126.27C30.2708 126.27 32.1908 124.31 32.2308 121.93Z" fill="#323FB7"/>
<path d="M63.2405 121.93C63.2405 119.51 61.2805 117.59 58.9005 117.59C56.5205 117.59 54.5605 119.55 54.5605 121.93C54.5605 124.31 56.5205 126.27 58.9005 126.27C61.2805 126.27 63.2005 124.31 63.2405 121.93Z" fill="#323FB7"/>
<path d="M94.2405 121.93C94.2405 119.51 92.2806 117.59 89.9006 117.59C87.5206 117.59 85.5605 119.55 85.5605 121.93C85.5605 124.31 87.5206 126.27 89.9006 126.27C92.2806 126.27 94.2005 124.31 94.2405 121.93Z" fill="#323FB7"/>
<path d="M125.25 121.93C125.25 119.51 123.29 117.59 120.91 117.59C118.53 117.59 116.57 119.55 116.57 121.93C116.57 124.31 118.53 126.27 120.91 126.27C123.29 126.27 125.21 124.31 125.25 121.93Z" fill="#323FB7"/>
<path d="M154.811 121.929C154.811 120.319 153.501 119.039 151.921 119.039C150.341 119.039 149.031 120.349 149.031 121.929C149.031 123.509 150.341 124.819 151.921 124.819C153.511 124.819 154.781 123.509 154.811 121.929Z" fill="#323FB7"/>
<path d="M185.821 121.929C185.821 120.319 184.511 119.039 182.931 119.039C181.351 119.039 180.041 120.349 180.041 121.929C180.041 123.509 181.351 124.819 182.931 124.819C184.521 124.819 185.791 123.509 185.821 121.929Z" fill="#323FB7"/>
<path d="M212.49 121.927C212.49 122.737 213.14 123.377 213.94 123.377C214.74 123.377 215.39 122.727 215.39 121.927C215.39 121.127 214.74 120.477 213.94 120.477C213.15 120.477 212.51 121.127 212.49 121.927Z" fill="#323FB7"/>
<path d="M247.831 121.929C247.831 120.319 246.521 119.039 244.941 119.039C243.361 119.039 242.051 120.349 242.051 121.929C242.051 123.509 243.361 124.819 244.941 124.819C246.531 124.819 247.801 123.509 247.831 121.929Z" fill="#323FB7"/>
<path d="M278.841 121.929C278.841 120.319 277.531 119.039 275.951 119.039C274.371 119.039 273.061 120.349 273.061 121.929C273.061 123.509 274.371 124.819 275.951 124.819C277.541 124.819 278.811 123.509 278.841 121.929Z" fill="#323FB7"/>
<path d="M311.291 121.93C311.291 119.51 309.331 117.59 306.951 117.59C304.571 117.59 302.611 119.55 302.611 121.93C302.611 124.31 304.571 126.27 306.951 126.27C309.331 126.27 311.251 124.31 311.291 121.93Z" fill="#323FB7"/>
<path d="M342.301 121.93C342.301 119.51 340.341 117.59 337.961 117.59C335.581 117.59 333.621 119.55 333.621 121.93C333.621 124.31 335.581 126.27 337.961 126.27C340.341 126.27 342.261 124.31 342.301 121.93Z" fill="#323FB7"/>
<path d="M374.75 121.928C374.75 118.698 372.14 116.148 368.96 116.148C365.78 116.148 363.17 118.758 363.17 121.928C363.17 125.098 365.78 127.708 368.96 127.708C372.13 127.708 374.69 125.098 374.75 121.928Z" fill="#323FB7"/>
<path d="M405.762 121.928C405.762 118.698 403.152 116.148 399.972 116.148C396.792 116.148 394.182 118.758 394.182 121.928C394.182 125.098 396.792 127.708 399.972 127.708C403.142 127.708 405.702 125.098 405.762 121.928Z" fill="#323FB7"/>
<path d="M33.6796 90.9206C33.6796 87.6906 31.0696 85.1406 27.8896 85.1406C24.7096 85.1406 22.0996 87.7506 22.0996 90.9206C22.0996 94.0906 24.7096 96.7006 27.8896 96.7006C31.0596 96.7006 33.6196 94.0906 33.6796 90.9206Z" fill="#323FB7"/>
<path d="M64.6796 90.9206C64.6796 87.6906 62.0696 85.1406 58.8896 85.1406C55.7096 85.1406 53.0996 87.7506 53.0996 90.9206C53.0996 94.0906 55.7096 96.7006 58.8896 96.7006C62.0596 96.7006 64.6196 94.0906 64.6796 90.9206Z" fill="#323FB7"/>
<path d="M94.2405 90.922C94.2405 88.502 92.2806 86.582 89.9006 86.582C87.5206 86.582 85.5605 88.542 85.5605 90.922C85.5605 93.302 87.5206 95.262 89.9006 95.262C92.2806 95.262 94.2005 93.302 94.2405 90.922Z" fill="#323FB7"/>
<path d="M125.25 90.922C125.25 88.502 123.29 86.582 120.91 86.582C118.53 86.582 116.57 88.542 116.57 90.922C116.57 93.302 118.53 95.262 120.91 95.262C123.29 95.262 125.21 93.302 125.25 90.922Z" fill="#323FB7"/>
<path d="M154.809 90.9212C154.809 89.3112 153.499 88.0312 151.919 88.0312C150.339 88.0312 149.029 89.3412 149.029 90.9212C149.029 92.5012 150.339 93.8112 151.919 93.8112C153.509 93.8112 154.779 92.5012 154.809 90.9212Z" fill="#323FB7"/>
<path d="M185.819 90.9212C185.819 89.3112 184.509 88.0312 182.929 88.0312C181.349 88.0312 180.039 89.3412 180.039 90.9212C180.039 92.5012 181.349 93.8112 182.929 93.8112C184.519 93.8112 185.789 92.5012 185.819 90.9212Z" fill="#323FB7"/>
<path d="M212.49 90.9187C212.49 91.7287 213.14 92.3688 213.94 92.3688C214.74 92.3688 215.39 91.7187 215.39 90.9187C215.39 90.1187 214.74 89.4688 213.94 89.4688C213.15 89.4688 212.51 90.1187 212.49 90.9187Z" fill="#323FB7"/>
<path d="M247.829 90.9212C247.829 89.3112 246.519 88.0312 244.939 88.0312C243.359 88.0312 242.049 89.3412 242.049 90.9212C242.049 92.5012 243.359 93.8112 244.939 93.8112C246.529 93.8112 247.799 92.5012 247.829 90.9212Z" fill="#323FB7"/>
<path d="M278.841 90.9212C278.841 89.3112 277.531 88.0312 275.951 88.0312C274.371 88.0312 273.061 89.3412 273.061 90.9212C273.061 92.5012 274.371 93.8112 275.951 93.8112C277.541 93.8112 278.811 92.5012 278.841 90.9212Z" fill="#323FB7"/>
<path d="M309.85 90.9212C309.85 89.3112 308.54 88.0312 306.96 88.0312C305.38 88.0312 304.07 89.3412 304.07 90.9212C304.07 92.5012 305.38 93.8112 306.96 93.8112C308.55 93.8112 309.82 92.5012 309.85 90.9212Z" fill="#323FB7"/>
<path d="M342.299 90.922C342.299 88.502 340.339 86.582 337.959 86.582C335.579 86.582 333.619 88.542 333.619 90.922C333.619 93.302 335.579 95.262 337.959 95.262C340.339 95.262 342.259 93.302 342.299 90.922Z" fill="#323FB7"/>
<path d="M373.299 90.922C373.299 88.502 371.339 86.582 368.959 86.582C366.579 86.582 364.619 88.542 364.619 90.922C364.619 93.302 366.579 95.262 368.959 95.262C371.339 95.262 373.259 93.302 373.299 90.922Z" fill="#323FB7"/>
<path d="M405.76 90.9206C405.76 87.6906 403.15 85.1406 399.97 85.1406C396.79 85.1406 394.18 87.7506 394.18 90.9206C394.18 94.0906 396.79 96.7006 399.97 96.7006C403.14 96.7006 405.7 94.0906 405.76 90.9206Z" fill="#323FB7"/>
<path d="M33.6796 59.9206C33.6796 56.6906 31.0696 54.1406 27.8896 54.1406C24.7096 54.1406 22.0996 56.7506 22.0996 59.9206C22.0996 63.0906 24.7096 65.7006 27.8896 65.7006C31.0596 65.7006 33.6196 63.0906 33.6796 59.9206Z" fill="#323FB7"/>
<path d="M64.6796 59.9206C64.6796 56.6906 62.0696 54.1406 58.8896 54.1406C55.7096 54.1406 53.0996 56.7506 53.0996 59.9206C53.0996 63.0906 55.7096 65.7006 58.8896 65.7006C62.0596 65.7006 64.6196 63.0906 64.6796 59.9206Z" fill="#323FB7"/>
<path d="M95.6894 59.9206C95.6894 56.6906 93.0794 54.1406 89.8994 54.1406C86.7194 54.1406 84.1094 56.7506 84.1094 59.9206C84.1094 63.0906 86.7194 65.7006 89.8994 65.7006C93.0694 65.7006 95.6294 63.0906 95.6894 59.9206Z" fill="#323FB7"/>
<path d="M125.25 59.922C125.25 57.502 123.29 55.582 120.91 55.582C118.53 55.582 116.57 57.542 116.57 59.922C116.57 62.302 118.53 64.262 120.91 64.262C123.29 64.262 125.21 62.302 125.25 59.922Z" fill="#323FB7"/>
<path d="M156.26 59.922C156.26 57.502 154.3 55.582 151.92 55.582C149.54 55.582 147.58 57.542 147.58 59.922C147.58 62.302 149.54 64.262 151.92 64.262C154.3 64.262 156.22 62.302 156.26 59.922Z" fill="#323FB7"/>
<path d="M185.819 59.9212C185.819 58.3112 184.509 57.0312 182.929 57.0312C181.349 57.0312 180.039 58.3412 180.039 59.9212C180.039 61.5012 181.349 62.8113 182.929 62.8113C184.519 62.8113 185.789 61.5012 185.819 59.9212Z" fill="#323FB7"/>
<path d="M216.829 59.9212C216.829 58.3112 215.519 57.0312 213.939 57.0312C212.359 57.0312 211.049 58.3412 211.049 59.9212C211.049 61.5012 212.359 62.8113 213.939 62.8113C215.529 62.8113 216.799 61.5012 216.829 59.9212Z" fill="#323FB7"/>
<path d="M243.49 59.9187C243.49 60.7287 244.14 61.3687 244.94 61.3687C245.74 61.3687 246.39 60.7187 246.39 59.9187C246.39 59.1187 245.74 58.4688 244.94 58.4688C244.15 58.4688 243.51 59.1187 243.49 59.9187Z" fill="#323FB7"/>
<path d="M278.841 59.9212C278.841 58.3112 277.531 57.0312 275.951 57.0312C274.371 57.0312 273.061 58.3412 273.061 59.9212C273.061 61.5012 274.371 62.8113 275.951 62.8113C277.541 62.8113 278.811 61.5012 278.841 59.9212Z" fill="#323FB7"/>
<path d="M309.85 59.9212C309.85 58.3112 308.54 57.0312 306.96 57.0312C305.38 57.0312 304.07 58.3412 304.07 59.9212C304.07 61.5012 305.38 62.8113 306.96 62.8113C308.55 62.8113 309.82 61.5012 309.85 59.9212Z" fill="#323FB7"/>
<path d="M340.85 59.9212C340.85 58.3112 339.54 57.0312 337.96 57.0312C336.38 57.0312 335.07 58.3412 335.07 59.9212C335.07 61.5012 336.38 62.8113 337.96 62.8113C339.55 62.8113 340.82 61.5012 340.85 59.9212Z" fill="#323FB7"/>
<path d="M373.299 59.922C373.299 57.502 371.339 55.582 368.959 55.582C366.579 55.582 364.619 57.542 364.619 59.922C364.619 62.302 366.579 64.262 368.959 64.262C371.339 64.262 373.259 62.302 373.299 59.922Z" fill="#323FB7"/>
<path d="M404.309 59.922C404.309 57.502 402.349 55.582 399.969 55.582C397.589 55.582 395.629 57.542 395.629 59.922C395.629 62.302 397.589 64.262 399.969 64.262C402.349 64.262 404.269 62.302 404.309 59.922Z" fill="#323FB7"/>
<path d="M33.6796 28.9089C33.6796 25.6789 31.0696 23.1289 27.8896 23.1289C24.7096 23.1289 22.0996 25.7389 22.0996 28.9089C22.0996 32.0789 24.7096 34.6889 27.8896 34.6889C31.0596 34.6889 33.6196 32.0789 33.6796 28.9089Z" fill="#323FB7"/>
<path d="M64.6796 28.9089C64.6796 25.6789 62.0696 23.1289 58.8896 23.1289C55.7096 23.1289 53.0996 25.7389 53.0996 28.9089C53.0996 32.0789 55.7096 34.6889 58.8896 34.6889C62.0596 34.6889 64.6196 32.0789 64.6796 28.9089Z" fill="#323FB7"/>
<path d="M95.6894 28.9089C95.6894 25.6789 93.0794 23.1289 89.8994 23.1289C86.7194 23.1289 84.1094 25.7389 84.1094 28.9089C84.1094 32.0789 86.7194 34.6889 89.8994 34.6889C93.0694 34.6889 95.6294 32.0789 95.6894 28.9089Z" fill="#323FB7"/>
<path d="M126.699 28.9089C126.699 25.6789 124.089 23.1289 120.909 23.1289C117.729 23.1289 115.119 25.7389 115.119 28.9089C115.119 32.0789 117.729 34.6889 120.909 34.6889C124.079 34.6889 126.639 32.0789 126.699 28.9089Z" fill="#323FB7"/>
<path d="M156.26 28.9103C156.26 26.4903 154.3 24.5703 151.92 24.5703C149.54 24.5703 147.58 26.5303 147.58 28.9103C147.58 31.2903 149.54 33.2503 151.92 33.2503C154.3 33.2503 156.22 31.2903 156.26 28.9103Z" fill="#323FB7"/>
<path d="M185.819 28.9095C185.819 27.2995 184.509 26.0195 182.929 26.0195C181.349 26.0195 180.039 27.3295 180.039 28.9095C180.039 30.4895 181.349 31.7995 182.929 31.7995C184.519 31.7995 185.789 30.4895 185.819 28.9095Z" fill="#323FB7"/>
<path d="M216.829 28.9095C216.829 27.2995 215.519 26.0195 213.939 26.0195C212.359 26.0195 211.049 27.3295 211.049 28.9095C211.049 30.4895 212.359 31.7995 213.939 31.7995C215.529 31.7995 216.799 30.4895 216.829 28.9095Z" fill="#323FB7"/>
<path d="M247.829 28.9095C247.829 27.2995 246.519 26.0195 244.939 26.0195C243.359 26.0195 242.049 27.3295 242.049 28.9095C242.049 30.4895 243.359 31.7995 244.939 31.7995C246.529 31.7995 247.799 30.4895 247.829 28.9095Z" fill="#323FB7"/>
<path d="M274.5 28.907C274.5 29.717 275.15 30.357 275.95 30.357C276.75 30.357 277.4 29.707 277.4 28.907C277.4 28.107 276.75 27.457 275.95 27.457C275.16 27.457 274.52 28.107 274.5 28.907Z" fill="#323FB7"/>
<path d="M309.85 28.9095C309.85 27.2995 308.54 26.0195 306.96 26.0195C305.38 26.0195 304.07 27.3295 304.07 28.9095C304.07 30.4895 305.38 31.7995 306.96 31.7995C308.55 31.7995 309.82 30.4895 309.85 28.9095Z" fill="#323FB7"/>
<path d="M340.85 28.9095C340.85 27.2995 339.54 26.0195 337.96 26.0195C336.38 26.0195 335.07 27.3295 335.07 28.9095C335.07 30.4895 336.38 31.7995 337.96 31.7995C339.55 31.7995 340.82 30.4895 340.85 28.9095Z" fill="#323FB7"/>
<path d="M371.86 28.9095C371.86 27.2995 370.55 26.0195 368.97 26.0195C367.39 26.0195 366.08 27.3295 366.08 28.9095C366.08 30.4895 367.39 31.7995 368.97 31.7995C370.56 31.7995 371.83 30.4895 371.86 28.9095Z" fill="#323FB7"/>
<path d="M404.309 28.9103C404.309 26.4903 402.349 24.5703 399.969 24.5703C397.589 24.5703 395.629 26.5303 395.629 28.9103C395.629 31.2903 397.589 33.2503 399.969 33.2503C402.349 33.2503 404.269 31.2903 404.309 28.9103Z" fill="#323FB7"/>
<path d="M32.2308 680.051C32.2308 677.631 30.2708 675.711 27.8908 675.711C25.5108 675.711 23.5508 677.671 23.5508 680.051C23.5508 682.431 25.5108 684.391 27.8908 684.391C30.2708 684.391 32.1908 682.431 32.2308 680.051Z" fill="#323FB7"/>
<path d="M61.7917 680.05C61.7917 678.44 60.4817 677.16 58.9017 677.16C57.3217 677.16 56.0117 678.47 56.0117 680.05C56.0117 681.63 57.3217 682.94 58.9017 682.94C60.4917 682.94 61.7617 681.63 61.7917 680.05Z" fill="#323FB7"/>
<path d="M88.4609 680.052C88.4609 680.862 89.1109 681.502 89.9109 681.502C90.7109 681.502 91.3609 680.852 91.3609 680.052C91.3609 679.252 90.7109 678.602 89.9109 678.602C89.1209 678.602 88.4809 679.252 88.4609 680.052Z" fill="#323FB7"/>
<path d="M123.811 680.05C123.811 678.44 122.501 677.16 120.921 677.16C119.341 677.16 118.031 678.47 118.031 680.05C118.031 681.63 119.341 682.94 120.921 682.94C122.511 682.94 123.781 681.63 123.811 680.05Z" fill="#323FB7"/>
<path d="M153.9 680.051C153.9 678.937 152.994 678.051 151.9 678.051C150.807 678.051 149.9 678.957 149.9 680.051C149.9 681.144 150.807 682.051 151.9 682.051C153.001 682.051 153.88 681.144 153.9 680.051Z" fill="#323FB7"/>
<path d="M215.93 680.051C215.93 678.936 215.026 678.051 213.93 678.051C212.833 678.051 211.93 678.954 211.93 680.051C211.93 681.148 212.833 682.051 213.93 682.051C215.026 682.051 215.911 681.148 215.93 680.051Z" fill="#323FB7"/>
<path d="M247 680.051C247 678.936 246.097 678.051 245 678.051C243.903 678.051 243 678.954 243 680.051C243 681.148 243.903 682.051 245 682.051C246.097 682.051 246.982 681.148 247 680.051Z" fill="#323FB7"/>
<path d="M278.841 680.05C278.841 678.44 277.531 677.16 275.951 677.16C274.371 677.16 273.061 678.47 273.061 680.05C273.061 681.63 274.371 682.94 275.951 682.94C277.541 682.94 278.811 681.63 278.841 680.05Z" fill="#323FB7"/>
<path d="M305.512 680.052C305.512 680.862 306.162 681.502 306.962 681.502C307.762 681.502 308.412 680.852 308.412 680.052C308.412 679.252 307.762 678.602 306.962 678.602C306.172 678.602 305.532 679.252 305.512 680.052Z" fill="#323FB7"/>
<path d="M340.85 680.05C340.85 678.44 339.54 677.16 337.96 677.16C336.38 677.16 335.07 678.47 335.07 680.05C335.07 681.63 336.38 682.94 337.96 682.94C339.55 682.94 340.82 681.63 340.85 680.05Z" fill="#323FB7"/>
<path d="M371.86 680.05C371.86 678.44 370.55 677.16 368.97 677.16C367.39 677.16 366.08 678.47 366.08 680.05C366.08 681.63 367.39 682.94 368.97 682.94C370.56 682.94 371.83 681.63 371.86 680.05Z" fill="#323FB7"/>
<path d="M402.87 680.05C402.87 678.44 401.56 677.16 399.98 677.16C398.4 677.16 397.09 678.47 397.09 680.05C397.09 681.63 398.4 682.94 399.98 682.94C401.57 682.94 402.84 681.63 402.87 680.05Z" fill="#323FB7"/>
<path d="M30.7898 649.038C30.7898 647.428 29.4798 646.148 27.8998 646.148C26.3198 646.148 25.0098 647.458 25.0098 649.038C25.0098 650.618 26.3198 651.928 27.8998 651.928C29.4898 651.928 30.7598 650.618 30.7898 649.038Z" fill="#323FB7"/>
<path d="M57.4492 649.04C57.4492 649.85 58.0992 650.49 58.8992 650.49C59.6992 650.49 60.3492 649.84 60.3492 649.04C60.3492 648.24 59.6992 647.59 58.8992 647.59C58.1092 647.59 57.4692 648.24 57.4492 649.04Z" fill="#323FB7"/>
<path d="M92.7995 649.038C92.7995 647.428 91.4895 646.148 89.9095 646.148C88.3295 646.148 87.0195 647.458 87.0195 649.038C87.0195 650.618 88.3295 651.928 89.9095 651.928C91.4995 651.928 92.7695 650.618 92.7995 649.038Z" fill="#323FB7"/>
<path d="M123.809 649.038C123.809 647.428 122.499 646.148 120.919 646.148C119.339 646.148 118.029 647.458 118.029 649.038C118.029 650.618 119.339 651.928 120.919 651.928C122.509 651.928 123.779 650.618 123.809 649.038Z" fill="#323FB7"/>
<path d="M154.79 649.038C154.79 647.427 153.485 646.148 151.9 646.148C150.315 646.148 149.01 647.454 149.01 649.038C149.01 650.623 150.315 651.928 151.9 651.928C153.485 651.928 154.763 650.623 154.79 649.038Z" fill="#323FB7"/>
<path d="M184 648.496C184 647.66 183.323 646.996 182.5 646.996C181.677 646.996 181 647.674 181 648.496C181 649.319 181.677 649.996 182.5 649.996C183.323 649.996 183.986 649.319 184 648.496Z" fill="#323FB7"/>
<path d="M217 648.996C217 647.323 215.645 645.996 214 645.996C212.355 645.996 211 647.351 211 648.996C211 650.641 212.355 651.996 214 651.996C215.645 651.996 216.972 650.641 217 648.996Z" fill="#323FB7"/>
<path d="M246 648.496C246 647.66 245.323 646.996 244.5 646.996C243.677 646.996 243 647.674 243 648.496C243 649.319 243.677 649.996 244.5 649.996C245.323 649.996 245.986 649.319 246 648.496Z" fill="#323FB7"/>
<path d="M280.28 649.039C280.28 646.619 278.32 644.699 275.94 644.699C273.56 644.699 271.6 646.659 271.6 649.039C271.6 651.419 273.56 653.379 275.94 653.379C278.32 653.379 280.24 651.419 280.28 649.039Z" fill="#323FB7"/>
<path d="M309.85 649.038C309.85 647.428 308.54 646.148 306.96 646.148C305.38 646.148 304.07 647.458 304.07 649.038C304.07 650.618 305.38 651.928 306.96 651.928C308.55 651.928 309.82 650.618 309.85 649.038Z" fill="#323FB7"/>
<path d="M340.85 649.038C340.85 647.428 339.54 646.148 337.96 646.148C336.38 646.148 335.07 647.458 335.07 649.038C335.07 650.618 336.38 651.928 337.96 651.928C339.55 651.928 340.82 650.618 340.85 649.038Z" fill="#323FB7"/>
<path d="M370 649.496C370 648.66 369.32 647.996 368.5 647.996C367.68 647.996 367 648.676 367 649.496C367 650.316 367.68 650.996 368.5 650.996C369.325 650.996 369.984 650.316 370 649.496Z" fill="#323FB7"/>
<path d="M404.309 649.039C404.309 646.619 402.349 644.699 399.969 644.699C397.589 644.699 395.629 646.659 395.629 649.039C395.629 651.419 397.589 653.379 399.969 653.379C402.349 653.379 404.269 651.419 404.309 649.039Z" fill="#323FB7"/>
<path d="M30.7898 618.031C30.7898 616.421 29.4798 615.141 27.8998 615.141C26.3198 615.141 25.0098 616.451 25.0098 618.031C25.0098 619.611 26.3198 620.921 27.8998 620.921C29.4898 620.921 30.7598 619.611 30.7898 618.031Z" fill="#323FB7"/>
<path d="M61.7898 618.031C61.7898 616.421 60.4798 615.141 58.8998 615.141C57.3198 615.141 56.0098 616.451 56.0098 618.031C56.0098 619.611 57.3198 620.921 58.8998 620.921C60.4898 620.921 61.7598 619.611 61.7898 618.031Z" fill="#323FB7"/>
<path d="M92.7995 618.031C92.7995 616.421 91.4895 615.141 89.9095 615.141C88.3295 615.141 87.0195 616.451 87.0195 618.031C87.0195 619.611 88.3295 620.921 89.9095 620.921C91.4995 620.921 92.7695 619.611 92.7995 618.031Z" fill="#323FB7"/>
<path d="M125.25 618.031C125.25 615.611 123.29 613.691 120.91 613.691C118.53 613.691 116.57 615.651 116.57 618.031C116.57 620.411 118.53 622.371 120.91 622.371C123.29 622.371 125.21 620.411 125.25 618.031Z" fill="#323FB7"/>
<path d="M156.26 618.031C156.26 615.611 154.3 613.691 151.92 613.691C149.54 613.691 147.58 615.651 147.58 618.031C147.58 620.411 149.54 622.371 151.92 622.371C154.3 622.371 156.22 620.411 156.26 618.031Z" fill="#323FB7"/>
<path d="M186 618C186 616.324 184.648 615 183 615C181.352 615 180 616.355 180 618C180 619.645 181.352 621 183 621C184.642 621 185.969 619.645 186 618Z" fill="#323FB7"/>
<path d="M219.721 618.03C219.721 614.8 217.111 612.25 213.931 612.25C210.751 612.25 208.141 614.86 208.141 618.03C208.141 621.2 210.751 623.81 213.931 623.81C217.101 623.81 219.661 621.2 219.721 618.03Z" fill="#323FB7"/>
<path d="M248 617C248 615.324 246.648 614 245 614C243.352 614 242 615.355 242 617C242 618.645 243.352 620 245 620C246.642 620 247.969 618.645 248 617Z" fill="#323FB7"/>
<path d="M280.28 618.031C280.28 615.611 278.32 613.691 275.94 613.691C273.56 613.691 271.6 615.651 271.6 618.031C271.6 620.411 273.56 622.371 275.94 622.371C278.32 622.371 280.24 620.411 280.28 618.031Z" fill="#323FB7"/>
<path d="M311.289 618.031C311.289 615.611 309.329 613.691 306.949 613.691C304.569 613.691 302.609 615.651 302.609 618.031C302.609 620.411 304.569 622.371 306.949 622.371C309.329 622.371 311.249 620.411 311.289 618.031Z" fill="#323FB7"/>
<path d="M340.85 618.031C340.85 616.421 339.54 615.141 337.96 615.141C336.38 615.141 335.07 616.451 335.07 618.031C335.07 619.611 336.38 620.921 337.96 620.921C339.55 620.921 340.82 619.611 340.85 618.031Z" fill="#323FB7"/>
<path d="M373.299 618.031C373.299 615.611 371.339 613.691 368.959 613.691C366.579 613.691 364.619 615.651 364.619 618.031C364.619 620.411 366.579 622.371 368.959 622.371C371.339 622.371 373.259 620.411 373.299 618.031Z" fill="#323FB7"/>
<path d="M404.309 618.031C404.309 615.611 402.349 613.691 399.969 613.691C397.589 613.691 395.629 615.651 395.629 618.031C395.629 620.411 397.589 622.371 399.969 622.371C402.349 622.371 404.269 620.411 404.309 618.031Z" fill="#323FB7"/>
<path d="M30.7898 587.031C30.7898 585.421 29.4798 584.141 27.8998 584.141C26.3198 584.141 25.0098 585.451 25.0098 587.031C25.0098 588.611 26.3198 589.921 27.8998 589.921C29.4898 589.921 30.7598 588.611 30.7898 587.031Z" fill="#323FB7"/>
<path d="M61.7898 587.031C61.7898 585.421 60.4798 584.141 58.8998 584.141C57.3198 584.141 56.0098 585.451 56.0098 587.031C56.0098 588.611 57.3198 589.921 58.8998 589.921C60.4898 589.921 61.7598 588.611 61.7898 587.031Z" fill="#323FB7"/>
<path d="M94.2405 587.031C94.2405 584.611 92.2806 582.691 89.9006 582.691C87.5206 582.691 85.5605 584.651 85.5605 587.031C85.5605 589.411 87.5206 591.371 89.9006 591.371C92.2806 591.371 94.2005 589.411 94.2405 587.031Z" fill="#323FB7"/>
<path d="M125.25 587.031C125.25 584.611 123.29 582.691 120.91 582.691C118.53 582.691 116.57 584.651 116.57 587.031C116.57 589.411 118.53 591.371 120.91 591.371C123.29 591.371 125.21 589.411 125.25 587.031Z" fill="#323FB7"/>
<path d="M156.26 587.031C156.26 584.611 154.3 582.691 151.92 582.691C149.54 582.691 147.58 584.651 147.58 587.031C147.58 589.411 149.54 591.371 151.92 591.371C154.3 591.371 156.22 589.411 156.26 587.031Z" fill="#323FB7"/>
<path d="M187.26 587.031C187.26 584.611 185.3 582.691 182.92 582.691C180.54 582.691 178.58 584.651 178.58 587.031C178.58 589.411 180.54 591.371 182.92 591.371C185.3 591.371 187.22 589.411 187.26 587.031Z" fill="#323FB7"/>
<path d="M219.721 587.03C219.721 583.8 217.111 581.25 213.931 581.25C210.751 581.25 208.141 583.86 208.141 587.03C208.141 590.2 210.751 592.81 213.931 592.81C217.101 592.81 219.661 590.2 219.721 587.03Z" fill="#323FB7"/>
<path d="M250.721 587.03C250.721 583.8 248.111 581.25 244.931 581.25C241.751 581.25 239.141 583.86 239.141 587.03C239.141 590.2 241.751 592.81 244.931 592.81C248.101 592.81 250.661 590.2 250.721 587.03Z" fill="#323FB7"/>
<path d="M281.73 587.03C281.73 583.8 279.12 581.25 275.94 581.25C272.76 581.25 270.15 583.86 270.15 587.03C270.15 590.2 272.76 592.81 275.94 592.81C279.11 592.81 281.67 590.2 281.73 587.03Z" fill="#323FB7"/>
<path d="M311.289 587.031C311.289 584.611 309.329 582.691 306.949 582.691C304.569 582.691 302.609 584.651 302.609 587.031C302.609 589.411 304.569 591.371 306.949 591.371C309.329 591.371 311.249 589.411 311.289 587.031Z" fill="#323FB7"/>
<path d="M340.85 587.031C340.85 585.421 339.54 584.141 337.96 584.141C336.38 584.141 335.07 585.451 335.07 587.031C335.07 588.611 336.38 589.921 337.96 589.921C339.55 589.921 340.82 588.611 340.85 587.031Z" fill="#323FB7"/>
<path d="M371.86 587.031C371.86 585.421 370.55 584.141 368.97 584.141C367.39 584.141 366.08 585.451 366.08 587.031C366.08 588.611 367.39 589.921 368.97 589.921C370.56 589.921 371.83 588.611 371.86 587.031Z" fill="#323FB7"/>
<path d="M404.309 587.031C404.309 584.611 402.349 582.691 399.969 582.691C397.589 582.691 395.629 584.651 395.629 587.031C395.629 589.411 397.589 591.371 399.969 591.371C402.349 591.371 404.269 589.411 404.309 587.031Z" fill="#323FB7"/>
<path d="M30.7898 556.019C30.7898 554.409 29.4798 553.129 27.8998 553.129C26.3198 553.129 25.0098 554.439 25.0098 556.019C25.0098 557.599 26.3198 558.909 27.8998 558.909C29.4898 558.909 30.7598 557.599 30.7898 556.019Z" fill="#323FB7"/>
<path d="M63.2405 556.02C63.2405 553.6 61.2805 551.68 58.9005 551.68C56.5205 551.68 54.5605 553.64 54.5605 556.02C54.5605 558.4 56.5205 560.36 58.9005 560.36C61.2805 560.36 63.2005 558.4 63.2405 556.02Z" fill="#323FB7"/>
<path d="M94.2405 556.02C94.2405 553.6 92.2806 551.68 89.9006 551.68C87.5206 551.68 85.5605 553.64 85.5605 556.02C85.5605 558.4 87.5206 560.36 89.9006 560.36C92.2806 560.36 94.2005 558.4 94.2405 556.02Z" fill="#323FB7"/>
<path d="M125.25 556.02C125.25 553.6 123.29 551.68 120.91 551.68C118.53 551.68 116.57 553.64 116.57 556.02C116.57 558.4 118.53 560.36 120.91 560.36C123.29 560.36 125.21 558.4 125.25 556.02Z" fill="#323FB7"/>
<path d="M154.809 556.019C154.809 554.409 153.499 553.129 151.919 553.129C150.339 553.129 149.029 554.439 149.029 556.019C149.029 557.599 150.339 558.909 151.919 558.909C153.509 558.909 154.779 557.599 154.809 556.019Z" fill="#323FB7"/>
<path d="M185.819 556.019C185.819 554.409 184.509 553.129 182.929 553.129C181.349 553.129 180.039 554.439 180.039 556.019C180.039 557.599 181.349 558.909 182.929 558.909C184.519 558.909 185.789 557.599 185.819 556.019Z" fill="#323FB7"/>
<path d="M218.27 556.02C218.27 553.6 216.31 551.68 213.93 551.68C211.55 551.68 209.59 553.64 209.59 556.02C209.59 558.4 211.55 560.36 213.93 560.36C216.31 560.36 218.23 558.4 218.27 556.02Z" fill="#323FB7"/>
<path d="M250.721 556.018C250.721 552.788 248.111 550.238 244.931 550.238C241.751 550.238 239.141 552.848 239.141 556.018C239.141 559.188 241.751 561.798 244.931 561.798C248.101 561.798 250.661 559.188 250.721 556.018Z" fill="#323FB7"/>
<path d="M281.73 556.018C281.73 552.788 279.12 550.238 275.94 550.238C272.76 550.238 270.15 552.848 270.15 556.018C270.15 559.188 272.76 561.798 275.94 561.798C279.11 561.798 281.67 559.188 281.73 556.018Z" fill="#323FB7"/>
<path d="M312.74 556.018C312.74 552.788 310.13 550.238 306.95 550.238C303.77 550.238 301.16 552.848 301.16 556.018C301.16 559.188 303.77 561.798 306.95 561.798C310.12 561.798 312.68 559.188 312.74 556.018Z" fill="#323FB7"/>
<path d="M340.85 556.019C340.85 554.409 339.54 553.129 337.96 553.129C336.38 553.129 335.07 554.439 335.07 556.019C335.07 557.599 336.38 558.909 337.96 558.909C339.55 558.909 340.82 557.599 340.85 556.019Z" fill="#323FB7"/>
<path d="M371.86 556.019C371.86 554.409 370.55 553.129 368.97 553.129C367.39 553.129 366.08 554.439 366.08 556.019C366.08 557.599 367.39 558.909 368.97 558.909C370.56 558.909 371.83 557.599 371.86 556.019Z" fill="#323FB7"/>
<path d="M404.309 556.02C404.309 553.6 402.349 551.68 399.969 551.68C397.589 551.68 395.629 553.64 395.629 556.02C395.629 558.4 397.589 560.36 399.969 560.36C402.349 560.36 404.269 558.4 404.309 556.02Z" fill="#323FB7"/>
<path d="M32.2308 525.012C32.2308 522.592 30.2708 520.672 27.8908 520.672C25.5108 520.672 23.5508 522.632 23.5508 525.012C23.5508 527.392 25.5108 529.352 27.8908 529.352C30.2708 529.352 32.1908 527.392 32.2308 525.012Z" fill="#323FB7"/>
<path d="M63.2405 525.012C63.2405 522.592 61.2805 520.672 58.9005 520.672C56.5205 520.672 54.5605 522.632 54.5605 525.012C54.5605 527.392 56.5205 529.352 58.9005 529.352C61.2805 529.352 63.2005 527.392 63.2405 525.012Z" fill="#323FB7"/>
<path d="M94.2405 525.012C94.2405 522.592 92.2806 520.672 89.9006 520.672C87.5206 520.672 85.5605 522.632 85.5605 525.012C85.5605 527.392 87.5206 529.352 89.9006 529.352C92.2806 529.352 94.2005 527.392 94.2405 525.012Z" fill="#323FB7"/>
<path d="M123.811 525.011C123.811 523.401 122.501 522.121 120.921 522.121C119.341 522.121 118.031 523.431 118.031 525.011C118.031 526.591 119.341 527.901 120.921 527.901C122.511 527.901 123.781 526.591 123.811 525.011Z" fill="#323FB7"/>
<path d="M150.471 525.009C150.471 525.819 151.121 526.459 151.921 526.459C152.721 526.459 153.371 525.809 153.371 525.009C153.371 524.209 152.721 523.559 151.921 523.559C151.131 523.559 150.491 524.209 150.471 525.009Z" fill="#323FB7"/>
<path d="M185.821 525.011C185.821 523.401 184.511 522.121 182.931 522.121C181.351 522.121 180.041 523.431 180.041 525.011C180.041 526.591 181.351 527.901 182.931 527.901C184.521 527.901 185.791 526.591 185.821 525.011Z" fill="#323FB7"/>
<path d="M216.831 525.011C216.831 523.401 215.521 522.121 213.941 522.121C212.361 522.121 211.051 523.431 211.051 525.011C211.051 526.591 212.361 527.901 213.941 527.901C215.531 527.901 216.801 526.591 216.831 525.011Z" fill="#323FB7"/>
<path d="M249.282 525.012C249.282 522.592 247.322 520.672 244.942 520.672C242.562 520.672 240.602 522.632 240.602 525.012C240.602 527.392 242.562 529.352 244.942 529.352C247.322 529.352 249.242 527.392 249.282 525.012Z" fill="#323FB7"/>
<path d="M280.282 525.012C280.282 522.592 278.322 520.672 275.942 520.672C273.562 520.672 271.602 522.632 271.602 525.012C271.602 527.392 273.562 529.352 275.942 529.352C278.322 529.352 280.242 527.392 280.282 525.012Z" fill="#323FB7"/>
<path d="M312.74 525.01C312.74 521.78 310.13 519.23 306.95 519.23C303.77 519.23 301.16 521.84 301.16 525.01C301.16 528.18 303.77 530.79 306.95 530.79C310.12 530.79 312.68 528.18 312.74 525.01Z" fill="#323FB7"/>
<path d="M343.74 525.01C343.74 521.78 341.13 519.23 337.95 519.23C334.77 519.23 332.16 521.84 332.16 525.01C332.16 528.18 334.77 530.79 337.95 530.79C341.12 530.79 343.68 528.18 343.74 525.01Z" fill="#323FB7"/>
<path d="M371.86 525.011C371.86 523.401 370.55 522.121 368.97 522.121C367.39 522.121 366.08 523.431 366.08 525.011C366.08 526.591 367.39 527.901 368.97 527.901C370.56 527.901 371.83 526.591 371.86 525.011Z" fill="#323FB7"/>
<path d="M402.87 525.011C402.87 523.401 401.56 522.121 399.98 522.121C398.4 522.121 397.09 523.431 397.09 525.011C397.09 526.591 398.4 527.901 399.98 527.901C401.57 527.901 402.84 526.591 402.87 525.011Z" fill="#323FB7"/>
<path d="M32.2308 494.012C32.2308 491.592 30.2708 489.672 27.8908 489.672C25.5108 489.672 23.5508 491.632 23.5508 494.012C23.5508 496.392 25.5108 498.352 27.8908 498.352C30.2708 498.352 32.1908 496.392 32.2308 494.012Z" fill="#323FB7"/>
<path d="M63.2405 494.012C63.2405 491.592 61.2805 489.672 58.9005 489.672C56.5205 489.672 54.5605 491.632 54.5605 494.012C54.5605 496.392 56.5205 498.352 58.9005 498.352C61.2805 498.352 63.2005 496.392 63.2405 494.012Z" fill="#323FB7"/>
<path d="M94.2405 494.012C94.2405 491.592 92.2806 489.672 89.9006 489.672C87.5206 489.672 85.5605 491.632 85.5605 494.012C85.5605 496.392 87.5206 498.352 89.9006 498.352C92.2806 498.352 94.2005 496.392 94.2405 494.012Z" fill="#323FB7"/>
<path d="M123.811 494.011C123.811 492.401 122.501 491.121 120.921 491.121C119.341 491.121 118.031 492.431 118.031 494.011C118.031 495.591 119.341 496.901 120.921 496.901C122.511 496.901 123.781 495.591 123.811 494.011Z" fill="#323FB7"/>
<path d="M154.811 494.011C154.811 492.401 153.501 491.121 151.921 491.121C150.341 491.121 149.031 492.431 149.031 494.011C149.031 495.591 150.341 496.901 151.921 496.901C153.511 496.901 154.781 495.591 154.811 494.011Z" fill="#323FB7"/>
<path d="M181.48 494.009C181.48 494.819 182.13 495.459 182.93 495.459C183.73 495.459 184.38 494.809 184.38 494.009C184.38 493.209 183.73 492.559 182.93 492.559C182.14 492.559 181.5 493.209 181.48 494.009Z" fill="#323FB7"/>
<path d="M216.831 494.011C216.831 492.401 215.521 491.121 213.941 491.121C212.361 491.121 211.051 492.431 211.051 494.011C211.051 495.591 212.361 496.901 213.941 496.901C215.531 496.901 216.801 495.591 216.831 494.011Z" fill="#323FB7"/>
<path d="M247.831 494.011C247.831 492.401 246.521 491.121 244.941 491.121C243.361 491.121 242.051 492.431 242.051 494.011C242.051 495.591 243.361 496.901 244.941 496.901C246.531 496.901 247.801 495.591 247.831 494.011Z" fill="#323FB7"/>
<path d="M280.282 494.012C280.282 491.592 278.322 489.672 275.942 489.672C273.562 489.672 271.602 491.632 271.602 494.012C271.602 496.392 273.562 498.352 275.942 498.352C278.322 498.352 280.242 496.392 280.282 494.012Z" fill="#323FB7"/>
<path d="M312.74 494.01C312.74 490.78 310.13 488.23 306.95 488.23C303.77 488.23 301.16 490.84 301.16 494.01C301.16 497.18 303.77 499.79 306.95 499.79C310.12 499.79 312.68 497.18 312.74 494.01Z" fill="#323FB7"/>
<path d="M340.85 494.011C340.85 492.401 339.54 491.121 337.96 491.121C336.38 491.121 335.07 492.431 335.07 494.011C335.07 495.591 336.38 496.901 337.96 496.901C339.55 496.901 340.82 495.591 340.85 494.011Z" fill="#323FB7"/>
<path d="M371.86 494.011C371.86 492.401 370.55 491.121 368.97 491.121C367.39 491.121 366.08 492.431 366.08 494.011C366.08 495.591 367.39 496.901 368.97 496.901C370.56 496.901 371.83 495.591 371.86 494.011Z" fill="#323FB7"/>
<path d="M402.87 494.011C402.87 492.401 401.56 491.121 399.98 491.121C398.4 491.121 397.09 492.431 397.09 494.011C397.09 495.591 398.4 496.901 399.98 496.901C401.57 496.901 402.84 495.591 402.87 494.011Z" fill="#323FB7"/>
<path d="M29.3395 742.063C29.3395 741.256 28.6822 740.613 27.8895 740.613C27.0967 740.613 26.4395 741.271 26.4395 742.063C26.4395 742.856 27.0967 743.513 27.8895 743.513C28.6872 743.513 29.3244 742.856 29.3395 742.063Z" fill="#323FB7"/>
<path d="M57.4492 742.063C57.4492 742.873 58.0992 743.513 58.8992 743.513C59.6992 743.513 60.3492 742.863 60.3492 742.063C60.3492 741.263 59.6992 740.613 58.8992 740.613C58.1092 740.613 57.4692 741.263 57.4492 742.063Z" fill="#323FB7"/>
<path d="M88.459 742.063C88.459 742.873 89.109 743.513 89.909 743.513C90.709 743.513 91.359 742.863 91.359 742.063C91.359 741.263 90.709 740.613 89.909 740.613C89.119 740.613 88.479 741.263 88.459 742.063Z" fill="#323FB7"/>
<path d="M123.809 742.062C123.809 740.452 122.499 739.172 120.919 739.172C119.339 739.172 118.029 740.482 118.029 742.062C118.029 743.642 119.339 744.952 120.919 744.952C122.509 744.952 123.779 743.642 123.809 742.062Z" fill="#323FB7"/>
<path d="M154.809 742.062C154.809 740.452 153.499 739.172 151.919 739.172C150.339 739.172 149.029 740.482 149.029 742.062C149.029 743.642 150.339 744.952 151.919 744.952C153.509 744.952 154.779 743.642 154.809 742.062Z" fill="#323FB7"/>
<path d="M185.819 742.062C185.819 740.452 184.509 739.172 182.929 739.172C181.349 739.172 180.039 740.482 180.039 742.062C180.039 743.642 181.349 744.952 182.929 744.952C184.519 744.952 185.789 743.642 185.819 742.062Z" fill="#323FB7"/>
<path d="M216.831 742.062C216.831 740.452 215.521 739.172 213.941 739.172C212.361 739.172 211.051 740.482 211.051 742.062C211.051 743.642 212.361 744.952 213.941 744.952C215.531 744.952 216.801 743.642 216.831 742.062Z" fill="#323FB7"/>
<path d="M243.49 742.063C243.49 742.873 244.14 743.513 244.94 743.513C245.74 743.513 246.39 742.863 246.39 742.063C246.39 741.263 245.74 740.613 244.94 740.613C244.15 740.613 243.51 741.263 243.49 742.063Z" fill="#323FB7"/>
<path d="M278.841 742.062C278.841 740.452 277.531 739.172 275.951 739.172C274.371 739.172 273.061 740.482 273.061 742.062C273.061 743.642 274.371 744.952 275.951 744.952C277.541 744.952 278.811 743.642 278.841 742.062Z" fill="#323FB7"/>
<path d="M309.85 742.062C309.85 740.452 308.54 739.172 306.96 739.172C305.38 739.172 304.07 740.482 304.07 742.062C304.07 743.642 305.38 744.952 306.96 744.952C308.55 744.952 309.82 743.642 309.85 742.062Z" fill="#323FB7"/>
<path d="M336.51 742.063C336.51 742.873 337.16 743.513 337.96 743.513C338.76 743.513 339.41 742.863 339.41 742.063C339.41 741.263 338.76 740.613 337.96 740.613C337.17 740.613 336.53 741.263 336.51 742.063Z" fill="#323FB7"/>
<path d="M367.52 742.063C367.52 742.873 368.17 743.513 368.97 743.513C369.77 743.513 370.42 742.863 370.42 742.063C370.42 741.263 369.77 740.613 368.97 740.613C368.18 740.613 367.54 741.263 367.52 742.063Z" fill="#323FB7"/>
<path d="M398.531 742.063C398.531 742.873 399.181 743.513 399.981 743.513C400.781 743.513 401.431 742.863 401.431 742.063C401.431 741.263 400.781 740.613 399.981 740.613C399.191 740.613 398.551 741.263 398.531 742.063Z" fill="#323FB7"/>
<path d="M29.8906 711.051C29.8906 709.936 28.9874 709.051 27.8906 709.051C26.7939 709.051 25.8906 709.954 25.8906 711.051C25.8906 712.148 26.7939 713.051 27.8906 713.051C28.9874 713.051 29.8722 712.148 29.8906 711.051Z" fill="#323FB7"/>
<path d="M61.7917 711.05C61.7917 709.44 60.4817 708.16 58.9017 708.16C57.3217 708.16 56.0117 709.47 56.0117 711.05C56.0117 712.63 57.3217 713.94 58.9017 713.94C60.4917 713.94 61.7617 712.63 61.7917 711.05Z" fill="#323FB7"/>
<path d="M119.471 711.052C119.471 711.862 120.121 712.502 120.921 712.502C121.721 712.502 122.371 711.852 122.371 711.052C122.371 710.252 121.721 709.602 120.921 709.602C120.131 709.602 119.491 710.252 119.471 711.052Z" fill="#323FB7"/>
<path d="M274.5 711.052C274.5 711.862 275.15 712.502 275.95 712.502C276.75 712.502 277.4 711.852 277.4 711.052C277.4 710.252 276.75 709.602 275.95 709.602C275.16 709.602 274.52 710.252 274.5 711.052Z" fill="#323FB7"/>
<path d="M367.521 711.052C367.521 711.862 368.171 712.502 368.971 712.502C369.771 712.502 370.422 711.852 370.422 711.052C370.422 710.252 369.771 709.602 368.971 709.602C368.181 709.602 367.541 710.252 367.521 711.052Z" fill="#323FB7"/>
<path d="M402.87 711.05C402.87 709.44 401.56 708.16 399.98 708.16C398.4 708.16 397.09 709.47 397.09 711.05C397.09 712.63 398.4 713.94 399.98 713.94C401.57 713.94 402.84 712.63 402.87 711.05Z" fill="#323FB7"/>
<path d="M30.7898 462.999C30.7898 461.389 29.4798 460.109 27.8998 460.109C26.3198 460.109 25.0098 461.419 25.0098 462.999C25.0098 464.579 26.3198 465.889 27.8998 465.889C29.4898 465.889 30.7598 464.579 30.7898 462.999Z" fill="#323FB7"/>
<path d="M61.7898 462.999C61.7898 461.389 60.4798 460.109 58.8998 460.109C57.3198 460.109 56.0098 461.419 56.0098 462.999C56.0098 464.579 57.3198 465.889 58.8998 465.889C60.4898 465.889 61.7598 464.579 61.7898 462.999Z" fill="#323FB7"/>
<path d="M92.7995 462.999C92.7995 461.389 91.4895 460.109 89.9095 460.109C88.3295 460.109 87.0195 461.419 87.0195 462.999C87.0195 464.579 88.3295 465.889 89.9095 465.889C91.4995 465.889 92.7695 464.579 92.7995 462.999Z" fill="#323FB7"/>
<path d="M123.809 462.999C123.809 461.389 122.499 460.109 120.919 460.109C119.339 460.109 118.029 461.419 118.029 462.999C118.029 464.579 119.339 465.889 120.919 465.889C122.509 465.889 123.779 464.579 123.809 462.999Z" fill="#323FB7"/>
<path d="M150.471 463.001C150.471 463.811 151.121 464.451 151.921 464.451C152.721 464.451 153.371 463.801 153.371 463.001C153.371 462.201 152.721 461.551 151.921 461.551C151.131 461.551 150.491 462.201 150.471 463.001Z" fill="#323FB7"/>
<path d="M181.48 463.001C181.48 463.811 182.13 464.451 182.93 464.451C183.73 464.451 184.38 463.801 184.38 463.001C184.38 462.201 183.73 461.551 182.93 461.551C182.14 461.551 181.5 462.201 181.48 463.001Z" fill="#323FB7"/>
<path d="M212.49 463.001C212.49 463.811 213.14 464.451 213.94 464.451C214.74 464.451 215.39 463.801 215.39 463.001C215.39 462.201 214.74 461.551 213.94 461.551C213.15 461.551 212.51 462.201 212.49 463.001Z" fill="#323FB7"/>
<path d="M243.49 463.001C243.49 463.811 244.14 464.451 244.94 464.451C245.74 464.451 246.39 463.801 246.39 463.001C246.39 462.201 245.74 461.551 244.94 461.551C244.15 461.551 243.51 462.201 243.49 463.001Z" fill="#323FB7"/>
<path d="M278.841 462.999C278.841 461.389 277.531 460.109 275.951 460.109C274.371 460.109 273.061 461.419 273.061 462.999C273.061 464.579 274.371 465.889 275.951 465.889C277.541 465.889 278.811 464.579 278.841 462.999Z" fill="#323FB7"/>
<path d="M311.289 463C311.289 460.58 309.329 458.66 306.949 458.66C304.569 458.66 302.609 460.62 302.609 463C302.609 465.38 304.569 467.34 306.949 467.34C309.329 467.34 311.249 465.38 311.289 463Z" fill="#323FB7"/>
<path d="M342.299 463C342.299 460.58 340.339 458.66 337.959 458.66C335.579 458.66 333.619 460.62 333.619 463C333.619 465.38 335.579 467.34 337.959 467.34C340.339 467.34 342.259 465.38 342.299 463Z" fill="#323FB7"/>
<path d="M371.86 462.999C371.86 461.389 370.55 460.109 368.97 460.109C367.39 460.109 366.08 461.419 366.08 462.999C366.08 464.579 367.39 465.889 368.97 465.889C370.56 465.889 371.83 464.579 371.86 462.999Z" fill="#323FB7"/>
<path d="M402.87 462.999C402.87 461.389 401.56 460.109 399.98 460.109C398.4 460.109 397.09 461.419 397.09 462.999C397.09 464.579 398.4 465.889 399.98 465.889C401.57 465.889 402.84 464.579 402.87 462.999Z" fill="#323FB7"/>
<path d="M26.4492 431.989C26.4492 432.799 27.0992 433.439 27.8992 433.439C28.6992 433.439 29.3492 432.789 29.3492 431.989C29.3492 431.189 28.6992 430.539 27.8992 430.539C27.1092 430.539 26.4692 431.189 26.4492 431.989Z" fill="#323FB7"/>
<path d="M402.87 431.992C402.87 430.382 401.56 429.102 399.98 429.102C398.4 429.102 397.09 430.412 397.09 431.992C397.09 433.572 398.4 434.882 399.98 434.882C401.57 434.882 402.84 433.572 402.87 431.992Z" fill="#323FB7"/>
<path d="M26.4492 400.993C26.4492 401.803 27.0992 402.443 27.8992 402.443C28.6992 402.443 29.3492 401.793 29.3492 400.993C29.3492 400.193 28.6992 399.543 27.8992 399.543C27.1092 399.543 26.4692 400.193 26.4492 400.993Z" fill="#323FB7"/>
<path d="M402.87 400.992C402.87 399.382 401.56 398.102 399.98 398.102C398.4 398.102 397.09 399.412 397.09 400.992C397.09 402.572 398.4 403.882 399.98 403.882C401.57 403.882 402.84 402.572 402.87 400.992Z" fill="#323FB7"/>
<path d="M26.4492 369.981C26.4492 370.791 27.0992 371.431 27.8992 371.431C28.6992 371.431 29.3492 370.781 29.3492 369.981C29.3492 369.181 28.6992 368.531 27.8992 368.531C27.1092 368.531 26.4692 369.181 26.4492 369.981Z" fill="#323FB7"/>
<path d="M402.87 369.98C402.87 368.37 401.56 367.09 399.98 367.09C398.4 367.09 397.09 368.4 397.09 369.98C397.09 371.56 398.4 372.87 399.98 372.87C401.57 372.87 402.84 371.56 402.87 369.98Z" fill="#323FB7"/>
<rect x="147" y="913" width="134" height="5" rx="2.5" fill="white"/>
<rect x="42" y="723" width="343" height="39" fill="#3E4FE5"/>
</g>
<defs>
<clipPath id="clip0_30685_197120">
<rect width="428" height="926" fill="white"/>
</clipPath>
</defs>
</svg>
