<svg width="484" height="1000" viewBox="0 0 484 1000" fill="none" xmlns="http://www.w3.org/2000/svg">
<g opacity="0.2" clip-path="url(#clip0_3045_98967)">
<path d="M400.16 633.906C400.162 633.596 400.072 633.292 399.901 633.033C399.731 632.774 399.487 632.572 399.201 632.451C398.915 632.331 398.6 632.299 398.295 632.358C397.991 632.417 397.711 632.565 397.491 632.784C397.271 633.003 397.121 633.282 397.059 633.586C396.998 633.89 397.028 634.205 397.147 634.492C397.265 634.779 397.465 635.024 397.723 635.196C397.981 635.369 398.284 635.461 398.594 635.461C399.006 635.455 399.399 635.29 399.692 635C399.984 634.71 400.152 634.318 400.16 633.906Z" fill="#F5F6FE"/>
<path d="M361.987 633.907C361.987 634.527 362.17 635.133 362.515 635.648C362.86 636.164 363.349 636.565 363.922 636.802C364.495 637.038 365.125 637.1 365.733 636.978C366.341 636.856 366.899 636.557 367.337 636.118C367.774 635.679 368.072 635.12 368.191 634.512C368.311 633.903 368.247 633.273 368.008 632.701C367.77 632.129 367.367 631.641 366.85 631.298C366.334 630.955 365.727 630.773 365.107 630.776C364.281 630.787 363.492 631.121 362.909 631.706C362.326 632.291 361.995 633.081 361.987 633.907Z" fill="#F5F6FE"/>
<path d="M326.947 633.911C326.947 634.838 327.222 635.744 327.737 636.515C328.252 637.285 328.984 637.886 329.84 638.241C330.696 638.596 331.639 638.688 332.548 638.508C333.457 638.327 334.292 637.88 334.948 637.225C335.603 636.569 336.049 635.734 336.23 634.825C336.411 633.916 336.318 632.974 335.964 632.117C335.609 631.261 335.008 630.529 334.237 630.014C333.467 629.499 332.56 629.224 331.633 629.224C330.395 629.238 329.211 629.736 328.335 630.612C327.459 631.488 326.961 632.672 326.947 633.911Z" fill="#F5F6FE"/>
<path d="M293.454 633.911C293.454 634.838 293.729 635.744 294.244 636.515C294.759 637.285 295.491 637.886 296.348 638.241C297.204 638.596 298.147 638.688 299.056 638.508C299.965 638.327 300.8 637.88 301.455 637.225C302.111 636.569 302.557 635.734 302.738 634.825C302.919 633.916 302.826 632.974 302.471 632.117C302.117 631.261 301.516 630.529 300.745 630.014C299.974 629.499 299.068 629.224 298.141 629.224C296.903 629.238 295.719 629.736 294.843 630.612C293.967 631.488 293.469 632.672 293.454 633.911Z" fill="#F5F6FE"/>
<path d="M261.533 633.907C261.533 634.527 261.717 635.133 262.062 635.648C262.407 636.164 262.896 636.565 263.469 636.802C264.042 637.038 264.672 637.1 265.28 636.978C265.888 636.856 266.446 636.557 266.883 636.118C267.321 635.679 267.618 635.12 267.738 634.512C267.858 633.903 267.794 633.273 267.555 632.701C267.317 632.129 266.914 631.641 266.397 631.298C265.881 630.955 265.274 630.773 264.654 630.776C263.828 630.787 263.039 631.121 262.456 631.706C261.873 632.291 261.542 633.081 261.533 633.907Z" fill="#F5F6FE"/>
<path d="M232.734 633.906C232.736 633.595 232.646 633.291 232.475 633.032C232.304 632.773 232.059 632.57 231.773 632.45C231.486 632.331 231.17 632.299 230.866 632.359C230.561 632.419 230.281 632.568 230.061 632.788C229.842 633.007 229.692 633.287 229.632 633.592C229.572 633.897 229.604 634.213 229.724 634.499C229.844 634.786 230.046 635.03 230.305 635.202C230.564 635.373 230.869 635.463 231.179 635.461C231.591 635.458 231.985 635.293 232.276 635.002C232.567 634.711 232.732 634.317 232.734 633.906Z" fill="#F5F6FE"/>
<path d="M199.258 633.906C199.26 633.596 199.17 633.292 198.999 633.033C198.828 632.774 198.585 632.572 198.299 632.451C198.013 632.331 197.698 632.299 197.393 632.358C197.089 632.417 196.809 632.565 196.589 632.784C196.368 633.003 196.218 633.282 196.157 633.586C196.096 633.89 196.126 634.205 196.244 634.492C196.362 634.779 196.563 635.024 196.821 635.196C197.079 635.369 197.382 635.461 197.692 635.461C198.104 635.455 198.497 635.29 198.789 635C199.081 634.71 199.249 634.318 199.258 633.906Z" fill="#F5F6FE"/>
<path d="M161.08 633.907C161.08 634.527 161.264 635.133 161.609 635.648C161.953 636.164 162.443 636.565 163.016 636.802C163.589 637.038 164.219 637.1 164.827 636.978C165.435 636.856 165.993 636.557 166.43 636.118C166.868 635.679 167.165 635.12 167.285 634.512C167.405 633.903 167.341 633.273 167.102 632.701C166.864 632.129 166.46 631.641 165.944 631.298C165.428 630.955 164.821 630.773 164.201 630.776C163.375 630.787 162.586 631.121 162.003 631.706C161.42 632.291 161.089 633.081 161.08 633.907Z" fill="#F5F6FE"/>
<path d="M127.588 633.907C127.588 634.527 127.772 635.132 128.116 635.647C128.46 636.162 128.949 636.564 129.521 636.801C130.094 637.038 130.723 637.1 131.331 636.979C131.938 636.858 132.496 636.56 132.934 636.122C133.372 635.684 133.671 635.126 133.791 634.518C133.912 633.911 133.85 633.281 133.613 632.709C133.376 632.137 132.975 631.647 132.46 631.303C131.945 630.959 131.339 630.776 130.72 630.776C129.892 630.784 129.1 631.117 128.515 631.702C127.929 632.288 127.596 633.079 127.588 633.907Z" fill="#F5F6FE"/>
<path d="M94.1136 633.909C94.1157 634.526 94.3006 635.129 94.6448 635.64C94.989 636.152 95.4772 636.55 96.0477 636.785C96.6181 637.02 97.2453 637.08 97.85 636.958C98.4547 636.837 99.0098 636.539 99.4452 636.102C99.8805 635.665 100.177 635.109 100.296 634.503C100.416 633.898 100.353 633.271 100.117 632.702C99.8803 632.132 99.4803 631.645 98.9673 631.303C98.4543 630.96 97.8513 630.778 97.2345 630.778C96.4084 630.789 95.6195 631.123 95.0363 631.708C94.4531 632.293 94.122 633.083 94.1136 633.909Z" fill="#F5F6FE"/>
<path d="M65.3125 633.906C65.3146 633.596 65.2246 633.292 65.0538 633.033C64.8831 632.774 64.6393 632.572 64.3533 632.451C64.0674 632.331 63.7522 632.299 63.4478 632.358C63.1433 632.417 62.8633 632.565 62.6432 632.784C62.4231 633.003 62.2729 633.282 62.2116 633.586C62.1503 633.89 62.1807 634.205 62.2989 634.492C62.4171 634.779 62.6178 635.024 62.8755 635.196C63.1332 635.369 63.4364 635.461 63.7466 635.461C64.1591 635.458 64.5542 635.294 64.8469 635.003C65.1397 634.712 65.3068 634.318 65.3125 633.906Z" fill="#F5F6FE"/>
<path d="M31.8242 633.906C31.8263 633.595 31.736 633.291 31.5648 633.032C31.3935 632.773 31.1491 632.57 30.8625 632.45C30.576 632.331 30.2602 632.299 29.9555 632.359C29.6507 632.419 29.3707 632.568 29.1511 632.788C28.9315 633.007 28.7821 633.287 28.722 633.592C28.662 633.897 28.6939 634.213 28.8137 634.499C28.9336 634.786 29.1359 635.03 29.3951 635.202C29.6543 635.373 29.9585 635.463 30.2691 635.461C30.6807 635.458 31.0746 635.293 31.3656 635.002C31.6566 634.711 31.8214 634.317 31.8242 633.906Z" fill="#F5F6FE"/>
<path d="M400.16 667.387C400.16 667.078 400.068 666.775 399.896 666.517C399.724 666.26 399.48 666.059 399.194 665.941C398.907 665.822 398.593 665.791 398.289 665.851C397.985 665.912 397.706 666.061 397.487 666.28C397.268 666.499 397.119 666.778 397.058 667.082C396.998 667.386 397.029 667.7 397.148 667.986C397.266 668.273 397.467 668.517 397.724 668.689C397.982 668.861 398.285 668.953 398.594 668.953C399.008 668.948 399.403 668.781 399.695 668.488C399.988 668.196 400.155 667.801 400.16 667.387Z" fill="#F5F6FE"/>
<path d="M366.672 667.387C366.672 667.078 366.58 666.775 366.408 666.517C366.236 666.26 365.991 666.059 365.705 665.941C365.419 665.822 365.104 665.791 364.801 665.851C364.497 665.912 364.218 666.061 363.999 666.28C363.78 666.499 363.631 666.778 363.57 667.082C363.51 667.386 363.541 667.7 363.659 667.986C363.778 668.273 363.979 668.517 364.236 668.689C364.494 668.861 364.796 668.953 365.106 668.953C365.52 668.95 365.917 668.784 366.21 668.491C366.503 668.198 366.669 667.802 366.672 667.387Z" fill="#F5F6FE"/>
<path d="M328.498 667.389C328.496 668.009 328.678 668.615 329.021 669.132C329.364 669.648 329.852 670.051 330.424 670.29C330.996 670.528 331.626 670.592 332.234 670.472C332.843 670.353 333.402 670.055 333.841 669.618C334.28 669.18 334.579 668.622 334.701 668.014C334.822 667.407 334.761 666.776 334.524 666.204C334.288 665.631 333.886 665.141 333.371 664.796C332.856 664.452 332.25 664.268 331.63 664.268C330.804 664.276 330.014 664.607 329.429 665.19C328.843 665.774 328.509 666.563 328.498 667.389Z" fill="#F5F6FE"/>
<path d="M295.02 667.387C295.02 668.004 295.203 668.608 295.546 669.121C295.889 669.634 296.376 670.034 296.946 670.27C297.517 670.506 298.144 670.568 298.75 670.448C299.355 670.327 299.911 670.03 300.348 669.594C300.784 669.157 301.081 668.601 301.202 667.996C301.322 667.39 301.26 666.763 301.024 666.193C300.788 665.622 300.388 665.135 299.875 664.792C299.361 664.449 298.758 664.266 298.141 664.266C297.317 664.277 296.529 664.609 295.946 665.192C295.363 665.775 295.031 666.563 295.02 667.387Z" fill="#F5F6FE"/>
<path d="M266.219 667.387C266.219 667.078 266.127 666.775 265.955 666.517C265.783 666.26 265.538 666.059 265.252 665.941C264.966 665.822 264.651 665.791 264.347 665.851C264.044 665.912 263.765 666.061 263.546 666.28C263.327 666.499 263.177 666.778 263.117 667.082C263.057 667.386 263.088 667.7 263.206 667.986C263.325 668.273 263.525 668.517 263.783 668.689C264.04 668.861 264.343 668.953 264.653 668.953C265.067 668.95 265.464 668.784 265.757 668.491C266.05 668.198 266.216 667.802 266.219 667.387Z" fill="#F5F6FE"/>
<path d="M228.045 667.389C228.043 668.009 228.225 668.615 228.568 669.132C228.91 669.648 229.399 670.051 229.971 670.29C230.543 670.528 231.173 670.592 231.781 670.472C232.389 670.353 232.948 670.055 233.387 669.618C233.827 669.18 234.126 668.622 234.248 668.014C234.369 667.407 234.308 666.776 234.071 666.204C233.835 665.631 233.433 665.141 232.918 664.796C232.403 664.452 231.797 664.268 231.177 664.268C230.351 664.276 229.561 664.607 228.975 665.19C228.39 665.774 228.056 666.563 228.045 667.389Z" fill="#F5F6FE"/>
<path d="M194.567 667.387C194.567 668.004 194.75 668.608 195.093 669.121C195.436 669.634 195.923 670.034 196.493 670.27C197.064 670.506 197.691 670.568 198.297 670.448C198.902 670.327 199.458 670.03 199.894 669.594C200.331 669.157 200.628 668.601 200.749 667.996C200.869 667.39 200.807 666.763 200.571 666.193C200.335 665.622 199.935 665.135 199.422 664.792C198.908 664.449 198.305 664.266 197.688 664.266C196.863 664.277 196.076 664.609 195.493 665.192C194.91 665.775 194.578 666.563 194.567 667.387Z" fill="#F5F6FE"/>
<path d="M161.08 667.389C161.078 668.009 161.26 668.616 161.604 669.133C161.947 669.649 162.436 670.052 163.009 670.291C163.581 670.529 164.212 670.592 164.82 670.472C165.429 670.351 165.988 670.053 166.426 669.614C166.865 669.175 167.164 668.616 167.284 668.008C167.405 667.399 167.342 666.769 167.103 666.196C166.865 665.623 166.462 665.134 165.945 664.791C165.429 664.448 164.822 664.266 164.201 664.268C163.377 664.279 162.59 664.611 162.007 665.194C161.424 665.777 161.091 666.564 161.08 667.389Z" fill="#F5F6FE"/>
<path d="M127.588 667.389C127.586 668.009 127.768 668.615 128.111 669.132C128.453 669.648 128.942 670.051 129.514 670.29C130.086 670.528 130.716 670.592 131.324 670.472C131.932 670.353 132.491 670.055 132.93 669.618C133.37 669.18 133.669 668.622 133.791 668.014C133.912 667.407 133.851 666.776 133.614 666.204C133.377 665.631 132.976 665.141 132.461 664.796C131.946 664.452 131.34 664.268 130.72 664.268C129.894 664.276 129.104 664.607 128.518 665.19C127.933 665.774 127.599 666.563 127.588 667.389Z" fill="#F5F6FE"/>
<path d="M98.7969 667.387C98.7969 667.078 98.7051 666.775 98.533 666.517C98.3609 666.26 98.1164 666.059 97.8302 665.941C97.5441 665.822 97.2293 665.791 96.9255 665.851C96.6218 665.912 96.3428 666.061 96.1238 666.28C95.9048 666.499 95.7556 666.778 95.6952 667.082C95.6348 667.386 95.6658 667.7 95.7843 667.986C95.9029 668.273 96.1036 668.517 96.3611 668.689C96.6186 668.861 96.9213 668.953 97.231 668.953C97.6446 668.948 98.0396 668.781 98.3321 668.488C98.6245 668.196 98.7913 667.801 98.7969 667.387Z" fill="#F5F6FE"/>
<path d="M65.3125 667.387C65.3125 667.078 65.2206 666.775 65.0486 666.517C64.8765 666.26 64.632 666.059 64.3459 665.941C64.0597 665.822 63.7449 665.791 63.4411 665.851C63.1374 665.912 62.8584 666.061 62.6394 666.28C62.4204 666.499 62.2712 666.778 62.2108 667.082C62.1504 667.386 62.1814 667.7 62.2999 667.986C62.4184 668.273 62.6192 668.517 62.8767 668.689C63.1342 668.861 63.4369 668.953 63.7466 668.953C64.161 668.95 64.5577 668.784 64.8507 668.491C65.1438 668.198 65.3097 667.802 65.3125 667.387Z" fill="#F5F6FE"/>
<path d="M27.1389 667.389C27.1367 668.009 27.3186 668.615 27.6614 669.132C28.0042 669.648 28.4926 670.051 29.0646 670.29C29.6367 670.528 30.2667 670.592 30.8749 670.472C31.4831 670.353 32.0422 670.055 32.4812 669.618C32.9203 669.18 33.2197 668.622 33.3414 668.014C33.4631 667.407 33.4017 666.776 33.165 666.204C32.9283 665.631 32.5269 665.141 32.0116 664.796C31.4964 664.452 30.8905 664.268 30.2706 664.268C29.4445 664.276 28.6544 664.607 28.0692 665.19C27.484 665.774 27.1501 666.563 27.1389 667.389Z" fill="#F5F6FE"/>
<path d="M395.473 700.867C395.473 701.485 395.656 702.088 395.999 702.601C396.342 703.114 396.829 703.514 397.4 703.751C397.97 703.987 398.597 704.049 399.203 703.928C399.808 703.808 400.364 703.511 400.801 703.074C401.237 702.638 401.534 702.082 401.655 701.476C401.775 700.871 401.713 700.243 401.477 699.673C401.241 699.103 400.841 698.615 400.328 698.272C399.815 697.929 399.211 697.746 398.594 697.746C397.769 697.755 396.98 698.086 396.396 698.67C395.813 699.253 395.481 700.042 395.473 700.867Z" fill="#F5F6FE"/>
<path d="M361.987 700.865C361.984 701.486 362.167 702.093 362.51 702.609C362.853 703.126 363.342 703.529 363.915 703.767C364.487 704.006 365.118 704.069 365.727 703.948C366.335 703.828 366.894 703.529 367.333 703.091C367.771 702.652 368.07 702.093 368.19 701.484C368.311 700.876 368.248 700.245 368.01 699.673C367.771 699.1 367.368 698.611 366.851 698.268C366.335 697.924 365.728 697.742 365.107 697.744C364.282 697.753 363.493 698.084 362.91 698.668C362.326 699.251 361.995 700.04 361.987 700.865Z" fill="#F5F6FE"/>
<path d="M328.498 700.865C328.496 701.485 328.678 702.092 329.021 702.608C329.364 703.125 329.852 703.528 330.424 703.766C330.996 704.005 331.626 704.069 332.234 703.949C332.843 703.829 333.402 703.532 333.841 703.094C334.28 702.657 334.579 702.099 334.701 701.491C334.822 700.883 334.761 700.253 334.524 699.68C334.288 699.107 333.886 698.617 333.371 698.273C332.856 697.928 332.25 697.744 331.63 697.744C330.804 697.753 330.014 698.084 329.429 698.667C328.843 699.25 328.509 700.039 328.498 700.865Z" fill="#F5F6FE"/>
<path d="M295.02 700.867C295.02 701.485 295.203 702.088 295.546 702.601C295.889 703.114 296.376 703.514 296.946 703.751C297.517 703.987 298.144 704.049 298.75 703.928C299.355 703.808 299.911 703.511 300.348 703.074C300.784 702.638 301.081 702.082 301.202 701.476C301.322 700.871 301.26 700.243 301.024 699.673C300.788 699.103 300.388 698.615 299.875 698.272C299.361 697.929 298.758 697.746 298.141 697.746C297.316 697.755 296.527 698.086 295.943 698.67C295.36 699.253 295.028 700.042 295.02 700.867Z" fill="#F5F6FE"/>
<path d="M261.533 700.865C261.531 701.486 261.713 702.093 262.057 702.609C262.4 703.126 262.889 703.529 263.462 703.767C264.034 704.006 264.665 704.069 265.273 703.948C265.882 703.828 266.441 703.529 266.88 703.091C267.318 702.652 267.617 702.093 267.737 701.484C267.858 700.876 267.795 700.245 267.556 699.673C267.318 699.1 266.915 698.611 266.398 698.268C265.882 697.924 265.275 697.742 264.654 697.744C263.829 697.753 263.04 698.084 262.457 698.668C261.873 699.251 261.542 700.04 261.533 700.865Z" fill="#F5F6FE"/>
<path d="M228.045 700.865C228.043 701.485 228.225 702.092 228.568 702.608C228.91 703.125 229.399 703.528 229.971 703.766C230.543 704.005 231.173 704.069 231.781 703.949C232.389 703.829 232.948 703.532 233.387 703.094C233.827 702.657 234.126 702.099 234.248 701.491C234.369 700.883 234.308 700.253 234.071 699.68C233.835 699.107 233.433 698.617 232.918 698.273C232.403 697.928 231.797 697.744 231.177 697.744C230.351 697.753 229.561 698.084 228.975 698.667C228.39 699.25 228.056 700.039 228.045 700.865Z" fill="#F5F6FE"/>
<path d="M194.567 700.867C194.567 701.485 194.75 702.088 195.093 702.601C195.436 703.114 195.923 703.514 196.493 703.751C197.064 703.987 197.691 704.049 198.297 703.928C198.902 703.808 199.458 703.511 199.894 703.074C200.331 702.638 200.628 702.082 200.749 701.476C200.869 700.871 200.807 700.243 200.571 699.673C200.335 699.103 199.935 698.615 199.422 698.272C198.908 697.929 198.305 697.746 197.688 697.746C196.863 697.755 196.074 698.086 195.49 698.67C194.907 699.253 194.575 700.042 194.567 700.867Z" fill="#F5F6FE"/>
<path d="M161.08 700.865C161.078 701.486 161.26 702.093 161.604 702.609C161.947 703.126 162.436 703.529 163.009 703.767C163.581 704.006 164.212 704.069 164.82 703.948C165.429 703.828 165.988 703.529 166.426 703.091C166.865 702.652 167.164 702.093 167.284 701.484C167.405 700.876 167.342 700.245 167.103 699.673C166.865 699.1 166.462 698.611 165.945 698.268C165.429 697.924 164.822 697.742 164.201 697.744C163.376 697.753 162.587 698.084 162.004 698.668C161.42 699.251 161.089 700.04 161.08 700.865Z" fill="#F5F6FE"/>
<path d="M132.277 700.864C132.277 700.554 132.185 700.25 132.013 699.993C131.84 699.735 131.595 699.534 131.308 699.416C131.021 699.298 130.706 699.268 130.402 699.329C130.098 699.39 129.819 699.54 129.6 699.76C129.382 699.98 129.234 700.26 129.174 700.565C129.115 700.869 129.148 701.185 129.268 701.471C129.388 701.756 129.59 702 129.849 702.171C130.108 702.342 130.412 702.432 130.722 702.43C131.135 702.424 131.529 702.257 131.819 701.964C132.11 701.671 132.275 701.276 132.277 700.864Z" fill="#F5F6FE"/>
<path d="M98.7969 700.864C98.7969 700.554 98.7051 700.251 98.533 699.994C98.3609 699.736 98.1164 699.536 97.8302 699.417C97.5441 699.299 97.2293 699.268 96.9255 699.328C96.6218 699.388 96.3428 699.538 96.1238 699.757C95.9048 699.976 95.7556 700.255 95.6952 700.558C95.6348 700.862 95.6658 701.177 95.7843 701.463C95.9029 701.749 96.1036 701.994 96.3611 702.166C96.6186 702.338 96.9213 702.43 97.231 702.43C97.6437 702.421 98.0372 702.254 98.3291 701.962C98.621 701.67 98.7886 701.276 98.7969 700.864Z" fill="#F5F6FE"/>
<path d="M60.6311 700.865C60.6289 701.486 60.8111 702.093 61.1544 702.609C61.4977 703.126 61.9867 703.529 62.5594 703.767C63.132 704.006 63.7626 704.069 64.3711 703.948C64.9796 703.828 65.5387 703.529 65.9773 703.091C66.4159 702.652 66.7144 702.093 66.8349 701.484C66.9554 700.876 66.8925 700.245 66.6541 699.673C66.4157 699.1 66.0126 698.611 65.496 698.268C64.9793 697.924 64.3723 697.742 63.752 697.744C62.9269 697.753 62.138 698.084 61.5545 698.668C60.971 699.251 60.6395 700.04 60.6311 700.865Z" fill="#F5F6FE"/>
<path d="M27.1389 700.865C27.1367 701.485 27.3186 702.092 27.6614 702.608C28.0042 703.125 28.4926 703.528 29.0646 703.766C29.6367 704.005 30.2667 704.069 30.8749 703.949C31.4831 703.829 32.0422 703.532 32.4812 703.094C32.9203 702.657 33.2197 702.099 33.3414 701.491C33.4631 700.883 33.4017 700.253 33.165 699.68C32.9283 699.107 32.5269 698.617 32.0116 698.273C31.4964 697.928 30.8905 697.744 30.2706 697.744C29.4445 697.753 28.6544 698.084 28.0692 698.667C27.484 699.25 27.1501 700.039 27.1389 700.865Z" fill="#F5F6FE"/>
<path d="M296.579 734.336C296.579 734.646 296.671 734.949 296.843 735.206C297.015 735.464 297.26 735.665 297.546 735.783C297.832 735.902 298.147 735.933 298.451 735.872C298.754 735.812 299.033 735.663 299.252 735.444C299.471 735.225 299.62 734.946 299.681 734.642C299.741 734.338 299.71 734.023 299.592 733.737C299.473 733.451 299.273 733.207 299.015 733.034C298.758 732.862 298.455 732.771 298.145 732.771C297.732 732.776 297.336 732.943 297.044 733.235C296.752 733.528 296.585 733.923 296.579 734.336Z" fill="#F5F6FE"/>
<path d="M261.533 734.337C261.533 734.957 261.717 735.563 262.062 736.078C262.407 736.593 262.896 736.995 263.469 737.231C264.042 737.468 264.672 737.529 265.28 737.408C265.888 737.286 266.446 736.987 266.883 736.548C267.321 736.109 267.618 735.55 267.738 734.941C267.858 734.333 267.794 733.703 267.555 733.131C267.317 732.559 266.914 732.071 266.397 731.728C265.881 731.385 265.274 731.203 264.654 731.205C263.828 731.217 263.039 731.55 262.456 732.136C261.873 732.721 261.542 733.511 261.533 734.337Z" fill="#F5F6FE"/>
<path d="M228.045 734.337C228.045 734.956 228.229 735.562 228.573 736.077C228.917 736.592 229.406 736.993 229.978 737.23C230.551 737.467 231.18 737.529 231.788 737.409C232.395 737.288 232.953 736.989 233.391 736.551C233.829 736.113 234.128 735.555 234.248 734.948C234.369 734.34 234.307 733.711 234.07 733.139C233.833 732.566 233.432 732.077 232.917 731.733C232.402 731.389 231.796 731.205 231.177 731.205C230.349 731.214 229.557 731.546 228.972 732.132C228.386 732.717 228.054 733.509 228.045 734.337Z" fill="#F5F6FE"/>
<path d="M199.258 734.339C199.26 734.029 199.17 733.725 198.999 733.467C198.828 733.208 198.585 733.005 198.299 732.885C198.013 732.765 197.698 732.732 197.393 732.792C197.089 732.851 196.809 732.999 196.589 733.218C196.368 733.436 196.218 733.715 196.157 734.019C196.096 734.323 196.126 734.639 196.244 734.925C196.362 735.212 196.563 735.457 196.821 735.63C197.079 735.802 197.382 735.895 197.692 735.895C198.104 735.889 198.497 735.724 198.789 735.434C199.081 735.143 199.249 734.751 199.258 734.339Z" fill="#F5F6FE"/>
<path d="M165.769 734.339C165.772 734.029 165.682 733.725 165.511 733.467C165.34 733.208 165.096 733.005 164.81 732.885C164.524 732.765 164.209 732.732 163.905 732.792C163.6 732.851 163.32 732.999 163.1 733.218C162.88 733.436 162.73 733.715 162.669 734.019C162.607 734.323 162.638 734.639 162.756 734.925C162.874 735.212 163.075 735.457 163.333 735.63C163.59 735.802 163.893 735.895 164.204 735.895C164.616 735.892 165.011 735.727 165.304 735.437C165.597 735.146 165.764 734.752 165.769 734.339Z" fill="#F5F6FE"/>
<path d="M127.588 734.337C127.588 734.956 127.772 735.562 128.116 736.077C128.46 736.592 128.949 736.993 129.521 737.23C130.094 737.467 130.723 737.529 131.331 737.409C131.938 737.288 132.496 736.989 132.934 736.551C133.372 736.113 133.671 735.555 133.791 734.948C133.912 734.34 133.85 733.711 133.613 733.139C133.376 732.566 132.975 732.077 132.46 731.733C131.945 731.389 131.339 731.205 130.72 731.205C129.892 731.214 129.1 731.546 128.515 732.132C127.929 732.717 127.596 733.509 127.588 734.337Z" fill="#F5F6FE"/>
<path d="M94.1136 734.339C94.1157 734.956 94.3006 735.558 94.6448 736.07C94.989 736.582 95.4772 736.98 96.0477 737.215C96.6181 737.449 97.2453 737.51 97.85 737.388C98.4547 737.266 99.0098 736.968 99.4452 736.531C99.8805 736.094 100.177 735.538 100.296 734.933C100.416 734.328 100.353 733.701 100.117 733.131C99.8803 732.562 99.4803 732.075 98.9673 731.733C98.4543 731.39 97.8513 731.207 97.2345 731.207C96.4084 731.219 95.6195 731.552 95.0363 732.138C94.4531 732.723 94.122 733.513 94.1136 734.339Z" fill="#F5F6FE"/>
<path d="M59.0717 734.344C59.0717 735.272 59.3468 736.178 59.8623 736.949C60.3778 737.72 61.1104 738.321 61.9674 738.676C62.8245 739.03 63.7674 739.122 64.6768 738.94C65.5863 738.759 66.4214 738.311 67.0764 737.655C67.7314 736.998 68.1769 736.162 68.3566 735.252C68.5362 734.342 68.4418 733.4 68.0854 732.543C67.729 731.687 67.1266 730.956 66.3545 730.442C65.5823 729.929 64.6751 729.655 63.7477 729.658C62.5109 729.674 61.3297 730.174 60.456 731.05C59.5824 731.925 59.0857 733.108 59.0717 734.344Z" fill="#F5F6FE"/>
<path d="M25.5873 734.344C25.5873 735.271 25.8621 736.178 26.3771 736.948C26.8921 737.719 27.6241 738.32 28.4805 738.674C29.3369 739.029 30.2793 739.122 31.1884 738.941C32.0976 738.76 32.9327 738.314 33.5882 737.659C34.2437 737.003 34.69 736.168 34.8709 735.259C35.0517 734.35 34.9589 733.407 34.6042 732.551C34.2494 731.694 33.6487 730.962 32.8779 730.447C32.1072 729.932 31.2011 729.658 30.2741 729.658C29.0354 729.672 27.8515 730.17 26.9755 731.046C26.0996 731.922 25.6013 733.106 25.5873 734.344Z" fill="#F5F6FE"/>
<path d="M199.258 767.821C199.258 767.511 199.166 767.208 198.994 766.951C198.822 766.693 198.577 766.493 198.291 766.374C198.005 766.256 197.69 766.225 197.386 766.285C197.083 766.345 196.804 766.495 196.585 766.714C196.366 766.933 196.217 767.212 196.156 767.515C196.096 767.819 196.127 768.134 196.245 768.42C196.364 768.706 196.564 768.951 196.822 769.123C197.079 769.295 197.382 769.387 197.692 769.387C198.105 769.378 198.498 769.211 198.79 768.919C199.082 768.627 199.25 768.234 199.258 767.821Z" fill="#F5F6FE"/>
<path d="M161.08 767.818C161.078 768.439 161.26 769.046 161.604 769.562C161.947 770.079 162.436 770.482 163.009 770.72C163.581 770.959 164.212 771.022 164.82 770.901C165.429 770.781 165.988 770.482 166.426 770.044C166.865 769.605 167.164 769.046 167.284 768.438C167.405 767.829 167.342 767.198 167.103 766.626C166.865 766.053 166.462 765.564 165.945 765.221C165.429 764.877 164.822 764.695 164.201 764.697C163.377 764.709 162.59 765.041 162.007 765.624C161.424 766.207 161.091 766.994 161.08 767.818Z" fill="#F5F6FE"/>
<path d="M126.036 767.817C126.036 768.744 126.311 769.65 126.826 770.421C127.341 771.192 128.073 771.792 128.93 772.147C129.786 772.502 130.729 772.595 131.638 772.414C132.547 772.233 133.382 771.787 134.037 771.131C134.693 770.476 135.139 769.641 135.32 768.731C135.501 767.822 135.408 766.88 135.053 766.024C134.699 765.167 134.098 764.435 133.327 763.92C132.556 763.405 131.65 763.13 130.723 763.13C129.485 763.144 128.301 763.643 127.425 764.519C126.549 765.394 126.051 766.578 126.036 767.817Z" fill="#F5F6FE"/>
<path d="M92.5443 767.817C92.5443 768.744 92.8192 769.65 93.3342 770.421C93.8492 771.192 94.5812 771.792 95.4376 772.147C96.294 772.502 97.2363 772.595 98.1455 772.414C99.0546 772.233 99.8898 771.787 100.545 771.131C101.201 770.476 101.647 769.641 101.828 768.731C102.009 767.822 101.916 766.88 101.561 766.024C101.206 765.167 100.606 764.435 99.835 763.92C99.0643 763.405 98.1581 763.13 97.2312 763.13C95.9925 763.144 94.8085 763.643 93.9326 764.519C93.0567 765.394 92.5584 766.578 92.5443 767.817Z" fill="#F5F6FE"/>
<path d="M57.5063 767.822C57.5042 769.06 57.8693 770.27 58.5556 771.3C59.2418 772.33 60.2183 773.133 61.3612 773.608C62.5042 774.083 63.7623 774.207 64.9762 773.966C66.1901 773.725 67.3052 773.13 68.1803 772.255C69.0554 771.379 69.6512 770.264 69.8921 769.05C70.133 767.837 70.0083 766.578 69.5337 765.435C69.0591 764.292 68.256 763.316 67.2261 762.63C66.1962 761.944 64.9858 761.578 63.7482 761.581C62.098 761.597 60.5201 762.26 59.3532 763.427C58.1862 764.594 57.5232 766.172 57.5063 767.822Z" fill="#F5F6FE"/>
<path d="M24.0141 767.822C24.012 769.06 24.3769 770.27 25.0627 771.299C25.7484 772.329 26.7242 773.132 27.8665 773.607C29.0089 774.082 30.2664 774.207 31.4801 773.967C32.6937 773.727 33.8088 773.132 34.6843 772.258C35.5599 771.384 36.1565 770.27 36.3986 769.057C36.6407 767.844 36.5175 766.586 36.0446 765.443C35.5717 764.3 34.7703 763.323 33.7418 762.635C32.7133 761.948 31.504 761.581 30.2668 761.581C28.6165 761.6 27.039 762.264 25.871 763.43C24.7029 764.596 24.0365 766.172 24.0141 767.822Z" fill="#F5F6FE"/>
<path d="M162.649 801.36C162.65 801.67 162.742 801.973 162.914 802.231C163.087 802.489 163.332 802.689 163.619 802.808C163.905 802.926 164.221 802.956 164.525 802.895C164.829 802.834 165.108 802.683 165.326 802.463C165.545 802.243 165.693 801.963 165.752 801.659C165.812 801.354 165.779 801.039 165.659 800.753C165.539 800.467 165.336 800.223 165.077 800.053C164.819 799.882 164.515 799.792 164.205 799.794C163.792 799.8 163.398 799.967 163.107 800.26C162.817 800.552 162.652 800.947 162.649 801.36Z" fill="#F5F6FE"/>
<path d="M126.036 801.356C126.036 802.283 126.311 803.189 126.826 803.96C127.341 804.731 128.073 805.331 128.93 805.686C129.786 806.041 130.729 806.134 131.638 805.953C132.547 805.772 133.382 805.326 134.037 804.67C134.693 804.015 135.139 803.18 135.32 802.27C135.501 801.361 135.408 800.419 135.053 799.563C134.699 798.706 134.098 797.974 133.327 797.459C132.556 796.944 131.65 796.669 130.723 796.669C129.485 796.683 128.301 797.182 127.425 798.058C126.549 798.933 126.051 800.117 126.036 801.356Z" fill="#F5F6FE"/>
<path d="M90.9946 801.361C90.9946 802.598 91.3616 803.807 92.0491 804.836C92.7367 805.864 93.7138 806.665 94.857 807.138C96.0002 807.611 97.2579 807.734 98.4711 807.492C99.6843 807.25 100.798 806.654 101.672 805.778C102.546 804.903 103.141 803.787 103.381 802.574C103.621 801.36 103.496 800.103 103.021 798.96C102.546 797.818 101.743 796.842 100.713 796.156C99.6836 795.471 98.4736 795.106 97.2365 795.108C95.5853 795.128 94.0074 795.793 92.8408 796.962C91.6741 798.13 91.0114 799.709 90.9946 801.361Z" fill="#F5F6FE"/>
<path d="M57.5063 801.361C57.5063 802.598 57.8733 803.807 58.5608 804.836C59.2484 805.864 60.2255 806.665 61.3687 807.138C62.5119 807.611 63.7696 807.734 64.9828 807.492C66.196 807.25 67.3101 806.654 68.1842 805.778C69.0582 804.903 69.6528 803.787 69.8929 802.574C70.1329 801.36 70.0076 800.103 69.5326 798.96C69.0577 797.818 68.2546 796.842 67.225 796.156C66.1953 795.471 64.9853 795.106 63.7482 795.108C62.097 795.128 60.5191 795.793 59.3525 796.962C58.1858 798.13 57.5231 799.709 57.5063 801.361Z" fill="#F5F6FE"/>
<path d="M24.0141 801.361C24.0141 802.597 24.3808 803.806 25.0679 804.834C25.755 805.863 26.7315 806.664 27.874 807.137C29.0166 807.611 30.2738 807.734 31.4867 807.493C32.6996 807.252 33.8137 806.656 34.6882 805.782C35.5626 804.907 36.1581 803.793 36.3994 802.58C36.6406 801.368 36.5168 800.11 36.0436 798.968C35.5703 797.825 34.7689 796.849 33.7407 796.162C32.7124 795.475 31.5035 795.108 30.2668 795.108C28.6155 795.13 27.038 795.796 25.8702 796.964C24.7024 798.132 24.0365 799.709 24.0141 801.361Z" fill="#F5F6FE"/>
<path d="M159.521 834.848C159.521 835.776 159.796 836.682 160.312 837.453C160.827 838.224 161.56 838.825 162.417 839.179C163.274 839.534 164.217 839.626 165.126 839.444C166.035 839.263 166.871 838.815 167.526 838.159C168.181 837.502 168.626 836.666 168.806 835.756C168.985 834.846 168.891 833.903 168.535 833.047C168.178 832.191 167.576 831.46 166.804 830.946C166.032 830.432 165.124 830.159 164.197 830.162C162.96 830.178 161.779 830.678 160.905 831.554C160.032 832.429 159.535 833.612 159.521 834.848Z" fill="#F5F6FE"/>
<path d="M124.471 834.849C124.471 836.086 124.838 837.294 125.525 838.323C126.212 839.351 127.189 840.152 128.331 840.626C129.474 841.099 130.731 841.223 131.944 840.981C133.157 840.74 134.271 840.145 135.145 839.27C136.02 838.396 136.615 837.282 136.856 836.069C137.098 834.856 136.974 833.599 136.501 832.456C136.027 831.314 135.226 830.337 134.198 829.65C133.169 828.963 131.961 828.596 130.724 828.596C129.072 828.616 127.493 829.281 126.324 830.449C125.156 831.618 124.491 833.197 124.471 834.849Z" fill="#F5F6FE"/>
<path d="M90.9946 834.849C90.9946 836.086 91.3616 837.295 92.0491 838.324C92.7367 839.352 93.7138 840.154 94.857 840.627C96.0002 841.1 97.2579 841.223 98.4711 840.981C99.6843 840.738 100.798 840.142 101.672 839.266C102.546 838.391 103.141 837.276 103.381 836.062C103.621 834.848 103.496 833.591 103.021 832.449C102.546 831.306 101.743 830.33 100.713 829.645C99.6836 828.959 98.4736 828.594 97.2365 828.596C95.5844 828.613 94.0049 829.278 92.8377 830.447C91.6705 831.616 91.0087 833.197 90.9946 834.849Z" fill="#F5F6FE"/>
<path d="M57.5063 834.849C57.5063 836.086 57.8733 837.295 58.5608 838.324C59.2484 839.352 60.2255 840.154 61.3687 840.627C62.5119 841.1 63.7696 841.223 64.9828 840.981C66.196 840.738 67.3101 840.142 68.1842 839.266C69.0582 838.391 69.6528 837.276 69.8929 836.062C70.1329 834.848 70.0076 833.591 69.5326 832.449C69.0577 831.306 68.2546 830.33 67.225 829.645C66.1953 828.959 64.9853 828.594 63.7482 828.596C62.0961 828.613 60.5167 829.278 59.3494 830.447C58.1822 831.616 57.5204 833.197 57.5063 834.849Z" fill="#F5F6FE"/>
<path d="M24.0141 834.849C24.0141 836.086 24.3808 837.294 25.0679 838.323C25.755 839.351 26.7315 840.152 27.874 840.626C29.0166 841.099 30.2738 841.223 31.4867 840.981C32.6996 840.74 33.8137 840.145 34.6882 839.27C35.5626 838.396 36.1581 837.282 36.3994 836.069C36.6406 834.856 36.5168 833.599 36.0436 832.456C35.5703 831.314 34.7689 830.337 33.7407 829.65C32.7124 828.963 31.5035 828.596 30.2668 828.596C28.6146 828.616 27.0356 829.281 25.8672 830.449C24.6988 831.618 24.0337 833.197 24.0141 834.849Z" fill="#F5F6FE"/>
<path d="M232.734 868.325C232.734 868.015 232.642 867.711 232.47 867.454C232.297 867.196 232.052 866.995 231.765 866.877C231.478 866.759 231.163 866.728 230.859 866.79C230.555 866.851 230.276 867.001 230.057 867.221C229.839 867.441 229.691 867.721 229.631 868.026C229.572 868.33 229.605 868.646 229.725 868.931C229.845 869.217 230.048 869.461 230.306 869.632C230.565 869.803 230.869 869.893 231.179 869.891C231.592 869.885 231.986 869.718 232.276 869.425C232.567 869.132 232.732 868.737 232.734 868.325Z" fill="#F5F6FE"/>
<path d="M194.567 868.332C194.567 868.949 194.75 869.553 195.093 870.066C195.436 870.579 195.923 870.979 196.493 871.216C197.064 871.452 197.691 871.514 198.297 871.393C198.902 871.273 199.458 870.975 199.894 870.539C200.331 870.103 200.628 869.546 200.749 868.941C200.869 868.336 200.807 867.708 200.571 867.138C200.335 866.568 199.935 866.08 199.422 865.737C198.908 865.394 198.305 865.211 197.688 865.211C196.863 865.222 196.076 865.555 195.493 866.138C194.91 866.721 194.578 867.508 194.567 868.332Z" fill="#F5F6FE"/>
<path d="M161.08 868.33C161.078 868.95 161.26 869.557 161.604 870.074C161.947 870.591 162.436 870.994 163.009 871.232C163.581 871.471 164.212 871.533 164.82 871.413C165.429 871.293 165.988 870.994 166.426 870.555C166.865 870.117 167.164 869.558 167.284 868.949C167.405 868.341 167.342 867.71 167.103 867.137C166.865 866.565 166.462 866.076 165.945 865.732C165.429 865.389 164.822 865.207 164.201 865.209C163.377 865.22 162.59 865.553 162.007 866.136C161.424 866.719 161.091 867.506 161.08 868.33Z" fill="#F5F6FE"/>
<path d="M126.036 868.325C126.036 869.252 126.311 870.158 126.826 870.929C127.341 871.7 128.073 872.3 128.93 872.655C129.786 873.01 130.729 873.103 131.638 872.922C132.547 872.741 133.382 872.294 134.037 871.639C134.693 870.984 135.139 870.148 135.32 869.239C135.501 868.33 135.408 867.388 135.053 866.531C134.699 865.675 134.098 864.943 133.327 864.428C132.556 863.913 131.65 863.638 130.723 863.638C129.485 863.652 128.301 864.15 127.425 865.026C126.549 865.902 126.051 867.086 126.036 868.325Z" fill="#F5F6FE"/>
<path d="M92.5443 868.325C92.5443 869.252 92.8192 870.158 93.3342 870.929C93.8492 871.7 94.5812 872.3 95.4376 872.655C96.294 873.01 97.2363 873.103 98.1455 872.922C99.0546 872.741 99.8898 872.294 100.545 871.639C101.201 870.984 101.647 870.148 101.828 869.239C102.009 868.33 101.916 867.388 101.561 866.531C101.206 865.675 100.606 864.943 99.835 864.428C99.0643 863.913 98.1581 863.638 97.2312 863.638C95.9925 863.652 94.8085 864.15 93.9326 865.026C93.0567 865.902 92.5584 867.086 92.5443 868.325Z" fill="#F5F6FE"/>
<path d="M57.5063 868.326C57.5042 869.564 57.8693 870.774 58.5556 871.804C59.2418 872.834 60.2183 873.637 61.3612 874.112C62.5042 874.586 63.7623 874.711 64.9762 874.47C66.1901 874.229 67.3052 873.634 68.1803 872.758C69.0554 871.883 69.6512 870.768 69.8921 869.554C70.133 868.34 70.0083 867.082 69.5337 865.939C69.0591 864.796 68.256 863.82 67.2261 863.134C66.1962 862.447 64.9858 862.082 63.7482 862.084C62.098 862.101 60.5201 862.764 59.3532 863.931C58.1862 865.098 57.5232 866.676 57.5063 868.326Z" fill="#F5F6FE"/>
<path d="M24.0141 868.326C24.012 869.563 24.3769 870.773 25.0627 871.803C25.7484 872.833 26.7242 873.636 27.8665 874.111C29.0089 874.586 30.2664 874.711 31.4801 874.471C32.6937 874.231 33.8088 873.636 34.6843 872.762C35.5599 871.888 36.1565 870.774 36.3986 869.561C36.6407 868.348 36.5175 867.09 36.0446 865.947C35.5717 864.804 34.7703 863.826 33.7418 863.139C32.7133 862.451 31.504 862.084 30.2668 862.084C28.6165 862.104 27.039 862.768 25.871 863.934C24.7029 865.1 24.0365 866.676 24.0141 868.326Z" fill="#F5F6FE"/>
<path d="M261.533 901.811C261.531 902.431 261.713 903.038 262.057 903.555C262.4 904.071 262.889 904.474 263.462 904.713C264.034 904.951 264.665 905.014 265.273 904.893C265.882 904.773 266.441 904.474 266.88 904.036C267.318 903.597 267.617 903.038 267.737 902.43C267.858 901.821 267.795 901.191 267.556 900.618C267.318 900.045 266.915 899.556 266.398 899.213C265.882 898.87 265.275 898.688 264.654 898.69C263.829 898.698 263.04 899.03 262.457 899.613C261.873 900.197 261.542 900.985 261.533 901.811Z" fill="#F5F6FE"/>
<path d="M232.734 901.812C232.736 901.501 232.646 901.197 232.475 900.938C232.304 900.679 232.059 900.477 231.773 900.357C231.486 900.237 231.17 900.205 230.866 900.265C230.561 900.325 230.281 900.474 230.061 900.694C229.842 900.914 229.692 901.194 229.632 901.498C229.572 901.803 229.604 902.119 229.724 902.406C229.844 902.692 230.046 902.937 230.305 903.108C230.564 903.279 230.869 903.369 231.179 903.367C231.591 903.364 231.985 903.2 232.276 902.909C232.567 902.618 232.732 902.224 232.734 901.812Z" fill="#F5F6FE"/>
<path d="M194.567 901.813C194.567 902.43 194.75 903.033 195.093 903.547C195.436 904.06 195.923 904.46 196.493 904.696C197.064 904.932 197.691 904.994 198.297 904.874C198.902 904.753 199.458 904.456 199.894 904.019C200.331 903.583 200.628 903.027 200.749 902.422C200.869 901.816 200.807 901.189 200.571 900.618C200.335 900.048 199.935 899.561 199.422 899.218C198.908 898.875 198.305 898.692 197.688 898.692C196.863 898.7 196.074 899.032 195.49 899.615C194.907 900.199 194.575 900.988 194.567 901.813Z" fill="#F5F6FE"/>
<path d="M161.08 901.811C161.078 902.434 161.262 903.043 161.608 903.561C161.953 904.078 162.446 904.481 163.021 904.718C163.597 904.955 164.231 905.014 164.841 904.889C165.451 904.764 166.009 904.461 166.446 904.016C166.882 903.572 167.176 903.008 167.291 902.396C167.405 901.784 167.334 901.152 167.087 900.58C166.841 900.009 166.429 899.524 165.906 899.187C165.382 898.85 164.77 898.677 164.147 898.69C163.332 898.713 162.556 899.05 161.984 899.632C161.412 900.214 161.088 900.995 161.08 901.811Z" fill="#F5F6FE"/>
<path d="M127.588 901.818C127.586 902.438 127.768 903.045 128.111 903.561C128.453 904.078 128.942 904.481 129.514 904.719C130.086 904.958 130.716 905.022 131.324 904.902C131.932 904.782 132.491 904.485 132.93 904.047C133.37 903.61 133.669 903.052 133.791 902.444C133.912 901.836 133.851 901.206 133.614 900.633C133.377 900.06 132.976 899.571 132.461 899.226C131.946 898.881 131.34 898.697 130.72 898.697C129.894 898.706 129.104 899.037 128.518 899.62C127.933 900.203 127.599 900.992 127.588 901.818Z" fill="#F5F6FE"/>
<path d="M92.5443 901.813C92.5444 902.742 92.8204 903.65 93.3373 904.422C93.8542 905.193 94.5888 905.794 95.4477 906.147C96.3066 906.501 97.2512 906.591 98.1615 906.407C99.0718 906.222 99.9068 905.772 100.561 905.112C101.214 904.452 101.657 903.613 101.833 902.701C102.009 901.789 101.91 900.845 101.549 899.99C101.187 899.134 100.58 898.405 99.8035 897.895C99.0271 897.386 98.1167 897.118 97.1879 897.127C95.9568 897.152 94.7838 897.655 93.9171 898.53C93.0504 899.404 92.5581 900.582 92.5443 901.813Z" fill="#F5F6FE"/>
<path d="M59.0717 901.813C59.0717 902.742 59.3477 903.65 59.8646 904.422C60.3816 905.193 61.1161 905.794 61.975 906.147C62.834 906.501 63.7785 906.591 64.6889 906.407C65.5992 906.222 66.4342 905.772 67.0879 905.112C67.7416 904.452 68.1845 903.613 68.3605 902.701C68.5364 901.789 68.4374 900.845 68.076 899.99C67.7147 899.134 67.1072 898.405 66.3308 897.895C65.5544 897.386 64.644 897.118 63.7153 897.127C62.4842 897.152 61.3111 897.655 60.4444 898.53C59.5778 899.404 59.0854 900.582 59.0717 901.813Z" fill="#F5F6FE"/>
<path d="M24.0141 901.818C24.0141 903.056 24.3817 904.266 25.0702 905.295C25.7587 906.324 26.7372 907.125 27.8816 907.597C29.026 908.07 30.2849 908.192 31.4986 907.948C32.7124 907.704 33.8265 907.105 34.6996 906.227C35.5728 905.35 36.1657 904.233 36.4033 903.018C36.6409 901.803 36.5125 900.544 36.0342 899.402C35.556 898.26 34.7495 897.286 33.717 896.603C32.6845 895.92 31.4725 895.559 30.2344 895.565C28.5887 895.596 27.0195 896.265 25.8586 897.432C24.6978 898.599 24.0363 900.172 24.0141 901.818Z" fill="#F5F6FE"/>
<path d="M199.258 935.294C199.258 934.984 199.166 934.681 198.994 934.424C198.822 934.166 198.577 933.965 198.291 933.847C198.005 933.728 197.69 933.697 197.386 933.758C197.083 933.818 196.804 933.967 196.585 934.186C196.366 934.405 196.217 934.684 196.156 934.988C196.096 935.292 196.127 935.607 196.245 935.893C196.364 936.179 196.564 936.423 196.822 936.595C197.079 936.768 197.382 936.859 197.692 936.859C198.105 936.854 198.501 936.687 198.793 936.395C199.085 936.102 199.252 935.707 199.258 935.294Z" fill="#F5F6FE"/>
<path d="M161.08 935.292C161.078 935.914 161.262 936.523 161.608 937.041C161.953 937.559 162.446 937.962 163.021 938.198C163.597 938.435 164.231 938.495 164.841 938.37C165.451 938.245 166.009 937.941 166.446 937.497C166.882 937.053 167.176 936.489 167.291 935.877C167.405 935.265 167.334 934.633 167.087 934.061C166.841 933.489 166.429 933.004 165.906 932.668C165.382 932.331 164.77 932.158 164.147 932.171C163.332 932.196 162.559 932.534 161.987 933.116C161.416 933.697 161.091 934.477 161.08 935.292Z" fill="#F5F6FE"/>
<path d="M127.588 935.295C127.586 935.915 127.768 936.521 128.111 937.038C128.453 937.554 128.942 937.957 129.514 938.196C130.086 938.435 130.716 938.498 131.324 938.379C131.932 938.259 132.491 937.962 132.93 937.524C133.37 937.087 133.669 936.529 133.791 935.921C133.912 935.313 133.851 934.683 133.614 934.11C133.377 933.537 132.976 933.047 132.461 932.703C131.946 932.358 131.34 932.174 130.72 932.174C129.894 932.182 129.104 932.514 128.518 933.097C127.933 933.68 127.599 934.469 127.588 935.295Z" fill="#F5F6FE"/>
<path d="M94.1135 935.29C94.1136 935.909 94.2978 936.514 94.6427 937.028C94.9876 937.542 95.4776 937.942 96.0504 938.177C96.6232 938.412 97.2529 938.471 97.8594 938.347C98.466 938.223 99.022 937.921 99.4567 937.481C99.8914 937.04 100.185 936.48 100.301 935.871C100.416 935.263 100.348 934.634 100.105 934.065C99.8625 933.495 99.4557 933.011 98.9368 932.673C98.418 932.336 97.8103 932.16 97.1913 932.169C96.3746 932.191 95.5982 932.528 95.0245 933.11C94.4508 933.692 94.1244 934.473 94.1135 935.29Z" fill="#F5F6FE"/>
<path d="M59.0717 935.291C59.0696 936.22 59.3438 937.129 59.8594 937.902C60.375 938.675 61.1088 939.278 61.9676 939.633C62.8263 939.988 63.7712 940.079 64.6822 939.896C65.5932 939.713 66.4293 939.263 67.0841 938.604C67.7389 937.945 68.1829 937.106 68.3597 936.193C68.5365 935.281 68.4381 934.337 68.0771 933.48C67.716 932.624 67.1086 931.895 66.3319 931.384C65.5553 930.874 64.6445 930.606 63.7153 930.615C62.4852 930.637 61.3121 931.138 60.4452 932.011C59.5782 932.884 59.0855 934.061 59.0717 935.291Z" fill="#F5F6FE"/>
<path d="M25.5873 935.291C25.5852 936.22 25.8591 937.128 26.3742 937.901C26.8894 938.674 27.6225 939.276 28.4806 939.632C29.3387 939.987 30.2831 940.079 31.1938 939.897C32.1046 939.715 32.9406 939.266 33.5959 938.608C34.2511 937.95 34.696 937.111 34.874 936.2C35.0521 935.288 34.9553 934.344 34.5959 933.488C34.2365 932.631 33.6307 931.901 32.8555 931.39C32.0803 930.878 31.1705 930.608 30.2417 930.615C29.0106 930.637 27.8364 931.138 26.9677 932.01C26.099 932.883 25.6039 934.06 25.5873 935.291Z" fill="#F5F6FE"/>
<path d="M395.473 265.606C395.473 266.223 395.656 266.826 395.999 267.34C396.342 267.853 396.829 268.253 397.4 268.489C397.97 268.725 398.597 268.787 399.203 268.667C399.808 268.546 400.364 268.249 400.801 267.812C401.237 267.376 401.534 266.82 401.655 266.214C401.775 265.609 401.713 264.982 401.477 264.411C401.241 263.841 400.841 263.354 400.328 263.011C399.815 262.668 399.211 262.485 398.594 262.485C397.77 262.496 396.982 262.828 396.399 263.411C395.817 263.994 395.484 264.781 395.473 265.606Z" fill="#F5F6FE"/>
<path d="M368.25 265.603C368.25 264.983 368.066 264.378 367.722 263.863C367.378 263.348 366.889 262.946 366.317 262.709C365.744 262.472 365.115 262.41 364.507 262.531C363.9 262.652 363.342 262.95 362.904 263.388C362.466 263.826 362.168 264.384 362.047 264.992C361.926 265.599 361.988 266.229 362.225 266.801C362.462 267.373 362.863 267.862 363.378 268.207C363.893 268.551 364.499 268.734 365.118 268.734C365.946 268.726 366.738 268.393 367.323 267.808C367.909 267.222 368.242 266.431 368.25 265.603Z" fill="#F5F6FE"/>
<path d="M328.498 265.604C328.496 266.223 328.678 266.83 329.021 267.346C329.364 267.863 329.852 268.266 330.424 268.505C330.996 268.743 331.626 268.807 332.234 268.687C332.843 268.568 333.402 268.27 333.841 267.833C334.28 267.395 334.579 266.837 334.701 266.229C334.822 265.622 334.761 264.991 334.524 264.418C334.288 263.846 333.886 263.356 333.371 263.011C332.856 262.667 332.25 262.483 331.63 262.483C330.804 262.491 330.014 262.822 329.429 263.405C328.843 263.988 328.509 264.777 328.498 265.604Z" fill="#F5F6FE"/>
<path d="M295.024 265.606C295.024 266.223 295.207 266.826 295.55 267.34C295.893 267.853 296.38 268.253 296.95 268.489C297.521 268.725 298.148 268.787 298.754 268.667C299.359 268.546 299.915 268.249 300.352 267.812C300.788 267.376 301.085 266.82 301.206 266.214C301.326 265.609 301.264 264.982 301.028 264.411C300.792 263.841 300.392 263.354 299.879 263.011C299.365 262.668 298.762 262.485 298.145 262.485C297.32 262.496 296.533 262.828 295.95 263.411C295.367 263.994 295.035 264.781 295.024 265.606Z" fill="#F5F6FE"/>
<path d="M261.533 265.604C261.531 266.224 261.713 266.831 262.057 267.347C262.4 267.864 262.889 268.267 263.462 268.506C264.034 268.744 264.665 268.807 265.273 268.686C265.882 268.566 266.441 268.267 266.88 267.829C267.318 267.39 267.617 266.831 267.737 266.223C267.858 265.614 267.795 264.984 267.556 264.411C267.318 263.838 266.915 263.349 266.398 263.006C265.882 262.663 265.275 262.48 264.654 262.483C263.83 262.494 263.043 262.826 262.46 263.409C261.877 263.992 261.545 264.779 261.533 265.604Z" fill="#F5F6FE"/>
<path d="M228.045 265.604C228.043 266.223 228.225 266.83 228.568 267.346C228.91 267.863 229.399 268.266 229.971 268.505C230.543 268.743 231.173 268.807 231.781 268.687C232.389 268.568 232.948 268.27 233.387 267.833C233.827 267.395 234.126 266.837 234.248 266.229C234.369 265.622 234.308 264.991 234.071 264.418C233.835 263.846 233.433 263.356 232.918 263.011C232.403 262.667 231.797 262.483 231.177 262.483C230.351 262.491 229.561 262.822 228.975 263.405C228.39 263.988 228.056 264.777 228.045 265.604Z" fill="#F5F6FE"/>
<path d="M194.567 265.606C194.567 266.223 194.75 266.826 195.093 267.34C195.436 267.853 195.923 268.253 196.493 268.489C197.064 268.725 197.691 268.787 198.297 268.667C198.902 268.546 199.458 268.249 199.894 267.812C200.331 267.376 200.628 266.82 200.749 266.214C200.869 265.609 200.807 264.982 200.571 264.411C200.335 263.841 199.935 263.354 199.422 263.011C198.908 262.668 198.305 262.485 197.688 262.485C196.863 262.496 196.076 262.828 195.493 263.411C194.91 263.994 194.578 264.781 194.567 265.606Z" fill="#F5F6FE"/>
<path d="M161.08 265.604C161.078 266.224 161.26 266.831 161.604 267.347C161.947 267.864 162.436 268.267 163.009 268.506C163.581 268.744 164.212 268.807 164.82 268.686C165.429 268.566 165.988 268.267 166.426 267.829C166.865 267.39 167.164 266.831 167.284 266.223C167.405 265.614 167.342 264.984 167.103 264.411C166.865 263.838 166.462 263.349 165.945 263.006C165.429 262.663 164.822 262.48 164.201 262.483C163.377 262.494 162.59 262.826 162.007 263.409C161.424 263.992 161.091 264.779 161.08 265.604Z" fill="#F5F6FE"/>
<path d="M129.161 265.607C129.159 265.917 129.249 266.221 129.42 266.48C129.591 266.739 129.834 266.941 130.12 267.061C130.406 267.181 130.721 267.214 131.026 267.155C131.33 267.096 131.61 266.947 131.83 266.729C132.051 266.51 132.201 266.231 132.262 265.927C132.323 265.623 132.293 265.308 132.175 265.021C132.057 264.734 131.856 264.489 131.598 264.316C131.34 264.144 131.037 264.052 130.727 264.052C130.315 264.055 129.92 264.219 129.627 264.51C129.334 264.8 129.167 265.194 129.161 265.607Z" fill="#F5F6FE"/>
<path d="M95.6652 265.607C95.663 265.917 95.753 266.221 95.9238 266.48C96.0946 266.739 96.3384 266.941 96.6243 267.061C96.9102 267.181 97.2254 267.214 97.5299 267.155C97.8343 267.096 98.1143 266.947 98.3344 266.729C98.5545 266.51 98.7047 266.231 98.766 265.927C98.8273 265.623 98.7969 265.308 98.6787 265.021C98.5605 264.734 98.3599 264.489 98.1021 264.316C97.8444 264.144 97.5412 264.052 97.231 264.052C96.8193 264.057 96.4259 264.223 96.1337 264.513C95.8415 264.803 95.6735 265.195 95.6652 265.607Z" fill="#F5F6FE"/>
<path d="M60.6311 265.604C60.6289 266.224 60.8111 266.831 61.1544 267.347C61.4977 267.864 61.9867 268.267 62.5594 268.506C63.132 268.744 63.7626 268.807 64.3711 268.686C64.9796 268.566 65.5387 268.267 65.9773 267.829C66.4159 267.39 66.7144 266.831 66.8349 266.223C66.9554 265.614 66.8925 264.984 66.6541 264.411C66.4157 263.838 66.0126 263.349 65.496 263.006C64.9793 262.663 64.3723 262.48 63.752 262.483C62.9278 262.494 62.1404 262.826 61.5575 263.409C60.9746 263.992 60.6423 264.779 60.6311 265.604Z" fill="#F5F6FE"/>
<path d="M27.1389 265.604C27.1367 266.223 27.3186 266.83 27.6614 267.346C28.0042 267.863 28.4926 268.266 29.0646 268.505C29.6367 268.743 30.2667 268.807 30.8749 268.687C31.4831 268.568 32.0422 268.27 32.4812 267.833C32.9203 267.395 33.2197 266.837 33.3414 266.229C33.4631 265.622 33.4017 264.991 33.165 264.418C32.9283 263.846 32.5269 263.356 32.0116 263.011C31.4964 262.667 30.8905 262.483 30.2706 262.483C29.4445 262.491 28.6544 262.822 28.0692 263.405C27.484 263.988 27.1501 264.777 27.1389 265.604Z" fill="#F5F6FE"/>
<path d="M363.552 299.133C363.552 299.444 363.644 299.747 363.817 300.004C363.989 300.262 364.234 300.463 364.521 300.581C364.808 300.699 365.123 300.73 365.427 300.668C365.731 300.607 366.01 300.457 366.229 300.237C366.447 300.017 366.596 299.737 366.655 299.432C366.714 299.128 366.681 298.813 366.561 298.527C366.441 298.241 366.239 297.997 365.98 297.826C365.721 297.655 365.417 297.565 365.107 297.567C364.694 297.573 364.3 297.74 364.01 298.033C363.719 298.326 363.555 298.721 363.552 299.133Z" fill="#F5F6FE"/>
<path d="M330.064 299.133C330.064 299.443 330.155 299.746 330.327 300.003C330.5 300.261 330.744 300.462 331.03 300.58C331.316 300.699 331.631 300.73 331.935 300.669C332.239 300.609 332.518 300.46 332.737 300.241C332.956 300.022 333.105 299.743 333.165 299.439C333.226 299.135 333.195 298.82 333.076 298.534C332.958 298.248 332.757 298.003 332.499 297.831C332.242 297.659 331.939 297.567 331.629 297.567C331.216 297.573 330.821 297.74 330.528 298.032C330.236 298.325 330.069 298.72 330.064 299.133Z" fill="#F5F6FE"/>
<path d="M295.02 299.133C295.02 299.75 295.203 300.354 295.546 300.867C295.889 301.38 296.376 301.78 296.946 302.016C297.517 302.253 298.144 302.314 298.75 302.194C299.355 302.074 299.911 301.776 300.348 301.34C300.784 300.903 301.081 300.347 301.202 299.742C301.322 299.136 301.26 298.509 301.024 297.939C300.788 297.368 300.388 296.881 299.875 296.538C299.361 296.195 298.758 296.012 298.141 296.012C297.317 296.023 296.529 296.356 295.946 296.938C295.363 297.521 295.031 298.309 295.02 299.133Z" fill="#F5F6FE"/>
<path d="M261.533 299.135C261.531 299.755 261.713 300.362 262.057 300.879C262.4 301.395 262.889 301.799 263.462 302.037C264.034 302.275 264.665 302.338 265.273 302.218C265.882 302.097 266.441 301.799 266.88 301.36C267.318 300.921 267.617 300.362 267.737 299.754C267.858 299.145 267.795 298.515 267.556 297.942C267.318 297.369 266.915 296.88 266.398 296.537C265.882 296.194 265.275 296.012 264.654 296.014C263.83 296.025 263.043 296.357 262.46 296.94C261.877 297.523 261.545 298.311 261.533 299.135Z" fill="#F5F6FE"/>
<path d="M229.61 299.133C229.61 299.443 229.702 299.746 229.874 300.003C230.046 300.261 230.291 300.462 230.577 300.58C230.863 300.699 231.178 300.73 231.482 300.669C231.786 300.609 232.065 300.46 232.284 300.241C232.503 300.022 232.652 299.743 232.712 299.439C232.773 299.135 232.742 298.82 232.623 298.534C232.504 298.248 232.304 298.003 232.046 297.831C231.789 297.659 231.486 297.567 231.176 297.567C230.763 297.573 230.368 297.74 230.075 298.032C229.783 298.325 229.616 298.72 229.61 299.133Z" fill="#F5F6FE"/>
<path d="M196.126 299.133C196.126 299.443 196.218 299.746 196.39 300.003C196.562 300.261 196.807 300.462 197.093 300.58C197.379 300.699 197.694 300.73 197.997 300.669C198.301 300.609 198.58 300.46 198.799 300.241C199.018 300.022 199.167 299.743 199.228 299.439C199.288 299.135 199.257 298.82 199.139 298.534C199.02 298.248 198.819 298.003 198.562 297.831C198.304 297.659 198.002 297.567 197.692 297.567C197.279 297.576 196.886 297.743 196.594 298.035C196.302 298.327 196.134 298.721 196.126 299.133Z" fill="#F5F6FE"/>
<path d="M161.08 299.135C161.078 299.755 161.26 300.362 161.604 300.879C161.947 301.395 162.436 301.799 163.009 302.037C163.581 302.275 164.212 302.338 164.82 302.218C165.429 302.097 165.988 301.799 166.426 301.36C166.865 300.921 167.164 300.362 167.284 299.754C167.405 299.145 167.342 298.515 167.103 297.942C166.865 297.369 166.462 296.88 165.945 296.537C165.429 296.194 164.822 296.012 164.201 296.014C163.377 296.025 162.59 296.357 162.007 296.94C161.424 297.523 161.091 298.311 161.08 299.135Z" fill="#F5F6FE"/>
<path d="M127.588 299.135C127.586 299.755 127.768 300.361 128.111 300.878C128.453 301.394 128.942 301.797 129.514 302.036C130.086 302.275 130.716 302.338 131.324 302.218C131.932 302.099 132.491 301.801 132.93 301.364C133.37 300.926 133.669 300.368 133.791 299.761C133.912 299.153 133.851 298.523 133.614 297.95C133.377 297.377 132.976 296.887 132.461 296.542C131.946 296.198 131.34 296.014 130.72 296.014C129.894 296.022 129.104 296.353 128.518 296.937C127.933 297.52 127.599 298.309 127.588 299.135Z" fill="#F5F6FE"/>
<path d="M92.5443 299.137C92.5443 300.064 92.8192 300.971 93.3342 301.741C93.8492 302.512 94.5812 303.113 95.4376 303.467C96.294 303.822 97.2363 303.915 98.1455 303.734C99.0546 303.553 99.8898 303.107 100.545 302.451C101.201 301.796 101.647 300.961 101.828 300.052C102.009 299.143 101.916 298.2 101.561 297.344C101.206 296.487 100.606 295.755 99.835 295.24C99.0643 294.725 98.1581 294.451 97.2312 294.451C95.9925 294.465 94.8085 294.963 93.9326 295.839C93.0567 296.715 92.5584 297.899 92.5443 299.137Z" fill="#F5F6FE"/>
<path d="M57.5063 299.139C57.5042 300.376 57.8693 301.587 58.5556 302.617C59.2418 303.647 60.2183 304.45 61.3612 304.924C62.5042 305.399 63.7623 305.524 64.9762 305.283C66.1901 305.042 67.3052 304.446 68.1803 303.571C69.0554 302.696 69.6512 301.581 69.8921 300.367C70.133 299.153 70.0083 297.895 69.5337 296.752C69.0591 295.609 68.256 294.632 67.2261 293.946C66.1962 293.26 64.9858 292.895 63.7482 292.897C62.098 292.914 60.5201 293.577 59.3532 294.744C58.1862 295.911 57.5232 297.489 57.5063 299.139Z" fill="#F5F6FE"/>
<path d="M25.5873 299.137C25.5873 300.064 25.8621 300.971 26.3771 301.741C26.8921 302.512 27.6241 303.113 28.4805 303.467C29.3369 303.822 30.2793 303.915 31.1884 303.734C32.0976 303.553 32.9327 303.107 33.5882 302.451C34.2437 301.796 34.69 300.961 34.8709 300.052C35.0517 299.143 34.9589 298.2 34.6042 297.344C34.2494 296.487 33.6487 295.755 32.8779 295.24C32.1072 294.725 31.2011 294.451 30.2741 294.451C29.0354 294.465 27.8515 294.963 26.9755 295.839C26.0996 296.715 25.6013 297.899 25.5873 299.137Z" fill="#F5F6FE"/>
<path d="M330.06 332.61C330.06 332.92 330.151 333.222 330.324 333.48C330.496 333.737 330.74 333.938 331.026 334.057C331.312 334.175 331.627 334.206 331.931 334.146C332.235 334.085 332.514 333.936 332.733 333.717C332.952 333.498 333.101 333.219 333.161 332.915C333.222 332.612 333.191 332.297 333.072 332.011C332.954 331.725 332.753 331.48 332.495 331.308C332.238 331.136 331.935 331.044 331.626 331.044C331.211 331.047 330.814 331.213 330.521 331.506C330.228 331.799 330.062 332.196 330.06 332.61Z" fill="#F5F6FE"/>
<path d="M295.02 332.609C295.022 333.225 295.207 333.828 295.551 334.34C295.895 334.851 296.383 335.25 296.954 335.484C297.524 335.719 298.152 335.779 298.756 335.657C299.361 335.536 299.916 335.238 300.351 334.801C300.787 334.364 301.083 333.808 301.203 333.203C301.322 332.598 301.26 331.971 301.023 331.401C300.787 330.831 300.387 330.345 299.874 330.002C299.361 329.66 298.758 329.477 298.141 329.477C297.315 329.488 296.526 329.822 295.943 330.407C295.359 330.992 295.028 331.782 295.02 332.609Z" fill="#F5F6FE"/>
<path d="M259.978 332.61C259.978 333.537 260.253 334.444 260.769 335.215C261.284 335.986 262.017 336.587 262.874 336.941C263.731 337.296 264.674 337.388 265.583 337.206C266.493 337.024 267.328 336.577 267.983 335.92C268.638 335.264 269.083 334.428 269.263 333.518C269.442 332.608 269.348 331.665 268.992 330.809C268.635 329.953 268.033 329.222 267.261 328.708C266.489 328.194 265.581 327.921 264.654 327.923C263.417 327.94 262.236 328.44 261.362 329.315C260.489 330.191 259.992 331.373 259.978 332.61Z" fill="#F5F6FE"/>
<path d="M228.045 332.61C228.045 333.23 228.229 333.835 228.573 334.35C228.917 334.865 229.406 335.267 229.978 335.504C230.551 335.741 231.18 335.803 231.788 335.682C232.395 335.561 232.953 335.263 233.391 334.825C233.829 334.387 234.128 333.829 234.248 333.221C234.369 332.614 234.307 331.984 234.07 331.412C233.833 330.84 233.432 330.351 232.917 330.006C232.402 329.662 231.796 329.479 231.177 329.479C230.349 329.487 229.557 329.82 228.972 330.405C228.386 330.991 228.054 331.782 228.045 332.61Z" fill="#F5F6FE"/>
<path d="M196.126 332.61C196.126 332.92 196.218 333.222 196.39 333.48C196.562 333.737 196.807 333.938 197.093 334.057C197.379 334.175 197.694 334.206 197.997 334.146C198.301 334.085 198.58 333.936 198.799 333.717C199.018 333.498 199.167 333.219 199.228 332.915C199.288 332.612 199.257 332.297 199.139 332.011C199.02 331.725 198.819 331.48 198.562 331.308C198.304 331.136 198.002 331.044 197.692 331.044C197.278 331.05 196.883 331.216 196.591 331.509C196.298 331.801 196.132 332.196 196.126 332.61Z" fill="#F5F6FE"/>
<path d="M162.649 332.61C162.65 332.92 162.742 333.223 162.914 333.481C163.087 333.739 163.332 333.939 163.619 334.058C163.905 334.176 164.221 334.206 164.525 334.145C164.829 334.084 165.108 333.933 165.326 333.713C165.545 333.493 165.693 333.213 165.752 332.909C165.812 332.604 165.779 332.289 165.659 332.003C165.539 331.717 165.336 331.473 165.077 331.303C164.819 331.132 164.515 331.042 164.205 331.044C163.792 331.05 163.398 331.217 163.107 331.51C162.817 331.802 162.652 332.197 162.649 332.61Z" fill="#F5F6FE"/>
<path d="M127.588 332.61C127.588 333.23 127.772 333.835 128.116 334.35C128.46 334.865 128.949 335.267 129.521 335.504C130.094 335.741 130.723 335.803 131.331 335.682C131.938 335.561 132.496 335.263 132.934 334.825C133.372 334.387 133.671 333.829 133.791 333.221C133.912 332.614 133.85 331.984 133.613 331.412C133.376 330.84 132.975 330.351 132.46 330.006C131.945 329.662 131.339 329.479 130.72 329.479C129.892 329.487 129.1 329.82 128.515 330.405C127.929 330.991 127.596 331.782 127.588 332.61Z" fill="#F5F6FE"/>
<path d="M94.1136 332.609C94.1157 333.225 94.3006 333.828 94.6448 334.34C94.989 334.851 95.4772 335.25 96.0477 335.484C96.6181 335.719 97.2453 335.779 97.85 335.657C98.4547 335.536 99.0098 335.238 99.4452 334.801C99.8805 334.364 100.177 333.808 100.296 333.203C100.416 332.598 100.353 331.971 100.117 331.401C99.8803 330.831 99.4803 330.345 98.9673 330.002C98.4543 329.66 97.8513 329.477 97.2345 329.477C96.4084 329.488 95.6195 329.822 95.0363 330.407C94.4531 330.992 94.122 331.782 94.1136 332.609Z" fill="#F5F6FE"/>
<path d="M60.631 332.61C60.631 333.23 60.815 333.836 61.1596 334.351C61.5042 334.867 61.9939 335.268 62.5668 335.505C63.1397 335.742 63.7699 335.803 64.3777 335.681C64.9855 335.559 65.5435 335.26 65.9811 334.821C66.4186 334.382 66.7161 333.823 66.8357 333.215C66.9553 332.607 66.8917 331.977 66.653 331.405C66.4143 330.832 66.0112 330.344 65.4948 330.001C64.9784 329.658 64.3718 329.477 63.752 329.479C62.9259 329.49 62.1369 329.824 61.5538 330.409C60.9706 330.994 60.6394 331.784 60.631 332.61Z" fill="#F5F6FE"/>
<path d="M27.1389 332.61C27.1389 333.23 27.3225 333.835 27.6666 334.35C28.0108 334.865 28.4999 335.267 29.0721 335.504C29.6444 335.741 30.2741 335.803 30.8816 335.682C31.4891 335.561 32.0471 335.263 32.4851 334.825C32.923 334.387 33.2213 333.829 33.3422 333.221C33.463 332.614 33.401 331.984 33.164 331.412C32.9269 330.84 32.5255 330.351 32.0105 330.006C31.4955 329.662 30.89 329.479 30.2706 329.479C29.4426 329.487 28.651 329.82 28.0655 330.405C27.48 330.991 27.1473 331.782 27.1389 332.61Z" fill="#F5F6FE"/>
<path d="M263.103 366.095C263.101 366.406 263.191 366.71 263.362 366.969C263.533 367.228 263.778 367.431 264.064 367.551C264.351 367.67 264.667 367.702 264.971 367.642C265.276 367.582 265.556 367.433 265.776 367.213C265.995 366.994 266.145 366.714 266.205 366.409C266.265 366.104 266.233 365.788 266.113 365.502C265.993 365.215 265.791 364.971 265.532 364.8C265.273 364.628 264.968 364.538 264.658 364.54C264.246 364.543 263.852 364.708 263.561 364.999C263.27 365.29 263.105 365.684 263.103 366.095Z" fill="#F5F6FE"/>
<path d="M228.045 366.088C228.043 366.708 228.225 367.314 228.568 367.831C228.91 368.347 229.399 368.75 229.971 368.989C230.543 369.228 231.173 369.291 231.781 369.172C232.389 369.052 232.948 368.755 233.387 368.317C233.827 367.879 234.126 367.322 234.248 366.714C234.369 366.106 234.308 365.476 234.071 364.903C233.835 364.33 233.433 363.84 232.918 363.496C232.403 363.151 231.797 362.967 231.177 362.967C230.351 362.975 229.561 363.307 228.975 363.89C228.39 364.473 228.056 365.262 228.045 366.088Z" fill="#F5F6FE"/>
<path d="M194.567 366.09C194.567 366.707 194.75 367.311 195.093 367.824C195.436 368.337 195.923 368.737 196.493 368.973C197.064 369.21 197.691 369.271 198.297 369.151C198.902 369.031 199.458 368.733 199.894 368.297C200.331 367.86 200.628 367.304 200.749 366.699C200.869 366.093 200.807 365.466 200.571 364.896C200.335 364.325 199.935 363.838 199.422 363.495C198.908 363.152 198.305 362.969 197.688 362.969C196.863 362.98 196.076 363.313 195.493 363.895C194.91 364.478 194.578 365.266 194.567 366.09Z" fill="#F5F6FE"/>
<path d="M162.65 366.095C162.647 366.406 162.738 366.71 162.909 366.969C163.08 367.228 163.325 367.431 163.611 367.551C163.898 367.67 164.213 367.702 164.518 367.642C164.823 367.582 165.103 367.433 165.323 367.213C165.542 366.994 165.692 366.714 165.752 366.409C165.812 366.104 165.78 365.788 165.66 365.502C165.54 365.215 165.338 364.971 165.079 364.8C164.819 364.628 164.515 364.538 164.205 364.54C163.793 364.543 163.399 364.708 163.108 364.999C162.817 365.29 162.652 365.684 162.65 366.095Z" fill="#F5F6FE"/>
<path d="M129.161 366.095C129.159 366.405 129.249 366.709 129.42 366.968C129.591 367.227 129.834 367.429 130.12 367.55C130.406 367.67 130.721 367.702 131.026 367.643C131.33 367.584 131.61 367.436 131.83 367.217C132.051 366.998 132.201 366.72 132.262 366.415C132.323 366.111 132.293 365.796 132.175 365.509C132.057 365.223 131.856 364.977 131.598 364.805C131.34 364.632 131.037 364.54 130.727 364.54C130.315 364.543 129.92 364.707 129.627 364.998C129.334 365.289 129.167 365.683 129.161 366.095Z" fill="#F5F6FE"/>
<path d="M94.1135 366.09C94.1135 366.707 94.2966 367.311 94.6395 367.824C94.9825 368.337 95.4699 368.737 96.0402 368.973C96.6105 369.21 97.238 369.271 97.8434 369.151C98.4488 369.031 99.0049 368.733 99.4413 368.297C99.8778 367.86 100.175 367.304 100.295 366.699C100.416 366.093 100.354 365.466 100.118 364.896C99.8817 364.325 99.4817 363.838 98.9684 363.495C98.4552 363.152 97.8518 362.969 97.2345 362.969C96.4103 362.98 95.6229 363.313 95.04 363.895C94.4571 364.478 94.1247 365.266 94.1135 366.09Z" fill="#F5F6FE"/>
<path d="M60.6311 366.088C60.6289 366.708 60.8111 367.315 61.1544 367.832C61.4977 368.349 61.9867 368.752 62.5594 368.99C63.132 369.228 63.7626 369.291 64.3711 369.171C64.9796 369.05 65.5387 368.752 65.9773 368.313C66.4159 367.875 66.7144 367.316 66.8349 366.707C66.9554 366.099 66.8925 365.468 66.6541 364.895C66.4157 364.323 66.0126 363.834 65.496 363.49C64.9793 363.147 64.3723 362.965 63.752 362.967C62.9278 362.978 62.1404 363.311 61.5575 363.893C60.9746 364.476 60.6423 365.264 60.6311 366.088Z" fill="#F5F6FE"/>
<path d="M27.1389 366.088C27.1367 366.708 27.3186 367.314 27.6614 367.831C28.0042 368.347 28.4926 368.75 29.0646 368.989C29.6367 369.228 30.2667 369.291 30.8749 369.172C31.4831 369.052 32.0422 368.755 32.4812 368.317C32.9203 367.879 33.2197 367.322 33.3414 366.714C33.4631 366.106 33.4017 365.476 33.165 364.903C32.9283 364.33 32.5269 363.84 32.0116 363.496C31.4964 363.151 30.8905 362.967 30.2706 362.967C29.4445 362.975 28.6544 363.307 28.0692 363.89C27.484 364.473 27.1501 365.262 27.1389 366.088Z" fill="#F5F6FE"/>
<path d="M60.6311 399.568C60.6289 400.189 60.8111 400.796 61.1544 401.312C61.4977 401.829 61.9867 402.232 62.5594 402.47C63.132 402.709 63.7626 402.772 64.3711 402.651C64.9796 402.531 65.5387 402.232 65.9773 401.794C66.4159 401.355 66.7144 400.796 66.8349 400.188C66.9554 399.579 66.8925 398.948 66.6541 398.376C66.4157 397.803 66.0126 397.314 65.496 396.971C64.9793 396.627 64.3723 396.445 63.752 396.447C62.9278 396.459 62.1404 396.791 61.5575 397.374C60.9746 397.957 60.6423 398.744 60.6311 399.568Z" fill="#F5F6FE"/>
<path d="M27.1389 399.568C27.1367 400.188 27.3186 400.795 27.6614 401.311C28.0042 401.828 28.4926 402.231 29.0646 402.469C29.6367 402.708 30.2667 402.772 30.8749 402.652C31.4831 402.532 32.0422 402.235 32.4812 401.798C32.9203 401.36 33.2197 400.802 33.3414 400.194C33.4631 399.586 33.4017 398.956 33.165 398.383C32.9283 397.81 32.5269 397.321 32.0116 396.976C31.4964 396.631 30.8905 396.447 30.2706 396.447C29.4445 396.456 28.6544 396.787 28.0692 397.37C27.484 397.953 27.1501 398.742 27.1389 399.568Z" fill="#F5F6FE"/>
<path d="M25.5873 433.044C25.5873 433.971 25.8621 434.877 26.3771 435.648C26.8921 436.418 27.6241 437.019 28.4805 437.374C29.3369 437.728 30.2793 437.821 31.1884 437.64C32.0976 437.46 32.9327 437.013 33.5882 436.358C34.2437 435.702 34.69 434.867 34.8709 433.958C35.0517 433.049 34.9589 432.107 34.6042 431.25C34.2494 430.394 33.6487 429.662 32.8779 429.147C32.1072 428.632 31.2011 428.357 30.2741 428.357C29.0354 428.371 27.8515 428.869 26.9755 429.745C26.0996 430.621 25.6013 431.805 25.5873 433.044Z" fill="#F5F6FE"/>
<path d="M129.161 466.525C129.159 466.835 129.249 467.139 129.42 467.398C129.591 467.657 129.834 467.859 130.12 467.979C130.406 468.099 130.721 468.132 131.026 468.073C131.33 468.014 131.61 467.865 131.83 467.647C132.051 467.428 132.201 467.149 132.262 466.845C132.323 466.541 132.293 466.226 132.175 465.939C132.057 465.652 131.856 465.407 131.598 465.234C131.34 465.062 131.037 464.97 130.727 464.97C130.315 464.973 129.92 465.137 129.627 465.428C129.334 465.718 129.167 466.112 129.161 466.525Z" fill="#F5F6FE"/>
<path d="M95.6652 466.525C95.663 466.835 95.753 467.139 95.9238 467.398C96.0946 467.657 96.3384 467.859 96.6243 467.979C96.9102 468.099 97.2254 468.132 97.5299 468.073C97.8343 468.014 98.1143 467.865 98.3344 467.647C98.5545 467.428 98.7047 467.149 98.766 466.845C98.8273 466.541 98.7969 466.226 98.6787 465.939C98.5605 465.652 98.3599 465.407 98.1021 465.234C97.8444 465.062 97.5412 464.97 97.231 464.97C96.8193 464.975 96.4259 465.141 96.1337 465.431C95.8415 465.721 95.6735 466.113 95.6652 466.525Z" fill="#F5F6FE"/>
<path d="M60.631 466.521C60.6311 467.142 60.8159 467.749 61.162 468.265C61.508 468.781 61.9997 469.182 62.5745 469.418C63.1493 469.654 63.7812 469.713 64.3898 469.589C64.9985 469.465 65.5564 469.162 65.9926 468.72C66.4288 468.277 66.7236 467.715 66.8395 467.105C66.9554 466.495 66.8872 465.864 66.6436 465.292C66.3999 464.721 65.9918 464.235 65.4711 463.896C64.9504 463.557 64.3408 463.381 63.7196 463.389C62.8991 463.409 62.1184 463.746 61.5422 464.331C60.9659 464.915 60.6392 465.7 60.631 466.521Z" fill="#F5F6FE"/>
<path d="M25.5873 466.52C25.5873 467.447 25.8621 468.353 26.3771 469.124C26.8921 469.895 27.6241 470.496 28.4805 470.85C29.3369 471.205 30.2793 471.298 31.1884 471.117C32.0976 470.936 32.9327 470.49 33.5882 469.834C34.2437 469.179 34.69 468.344 34.8709 467.435C35.0517 466.525 34.9589 465.583 34.6042 464.727C34.2494 463.87 33.6487 463.138 32.8779 462.623C32.1072 462.108 31.2011 461.833 30.2741 461.833C29.0354 461.847 27.8515 462.346 26.9755 463.222C26.0996 464.098 25.6013 465.282 25.5873 466.52Z" fill="#F5F6FE"/>
<path d="M95.6651 31.2192C95.6651 31.5289 95.757 31.8317 95.929 32.0892C96.1011 32.3467 96.3456 32.5474 96.6318 32.666C96.9179 32.7845 97.2327 32.8155 97.5365 32.7551C97.8402 32.6946 98.1193 32.5455 98.3382 32.3265C98.5572 32.1075 98.7064 31.8285 98.7668 31.5247C98.8272 31.221 98.7962 30.9062 98.6777 30.62C98.5592 30.3339 98.3585 30.0893 98.101 29.9173C97.8435 29.7452 97.5407 29.6534 97.231 29.6534C96.8183 29.6617 96.4248 29.8293 96.1329 30.1212C95.8411 30.4131 95.6734 30.8065 95.6651 31.2192Z" fill="#F5F6FE"/>
<path d="M60.6311 31.2192C60.6333 31.8399 60.8199 32.446 61.1672 32.9605C61.5146 33.475 62.007 33.8747 62.582 34.1087C63.1569 34.3428 63.7885 34.4007 64.3964 34.2751C65.0044 34.1495 65.5612 33.846 65.9964 33.4033C66.4315 32.9606 66.7252 32.3985 66.8403 31.7885C66.9553 31.1785 66.8865 30.548 66.6425 29.9772C66.3985 29.4064 65.9904 28.921 65.47 28.5826C64.9496 28.2442 64.3403 28.0681 63.7196 28.0766C62.8964 28.0936 62.1125 28.4318 61.5354 29.019C60.9583 29.6062 60.6337 30.3958 60.6311 31.2192Z" fill="#F5F6FE"/>
<path d="M25.5873 31.2194C25.5873 32.1464 25.8621 33.0525 26.3771 33.8233C26.8921 34.594 27.6241 35.1947 28.4805 35.5495C29.3369 35.9042 30.2793 35.997 31.1884 35.8162C32.0976 35.6354 32.9327 35.1889 33.5882 34.5335C34.2437 33.878 34.69 33.0429 34.8709 32.1338C35.0517 31.2246 34.9589 30.2822 34.6042 29.4258C34.2494 28.5694 33.6487 27.8374 32.8779 27.3224C32.1072 26.8074 31.2011 26.5326 30.2741 26.5326C29.0354 26.5466 27.8515 27.0449 26.9755 27.9208C26.0996 28.7968 25.6013 29.9807 25.5873 31.2194Z" fill="#F5F6FE"/>
<path d="M62.1886 64.7115C62.1886 65.0216 62.2807 65.3248 62.4532 65.5826C62.6258 65.8403 62.871 66.041 63.1577 66.1592C63.4445 66.2774 63.7599 66.3078 64.0639 66.2465C64.3679 66.1852 64.6469 66.0349 64.8655 65.8149C65.0841 65.5948 65.2323 65.3148 65.2915 65.0103C65.3507 64.7059 65.3182 64.3907 65.198 64.1048C65.0778 63.8188 64.8754 63.575 64.6165 63.4042C64.3576 63.2335 64.0538 63.1435 63.7436 63.1456C63.3311 63.1512 62.9372 63.3184 62.6465 63.6111C62.3558 63.9039 62.1913 64.2989 62.1886 64.7115Z" fill="#F5F6FE"/>
<path d="M27.1389 64.7064C27.1432 65.3262 27.3314 65.9309 27.6795 66.4437C28.0277 66.9566 28.5202 67.3545 29.0947 67.5873C29.6692 67.82 30.2999 67.877 30.9068 67.7511C31.5137 67.6252 32.0696 67.322 32.5041 66.8799C32.9386 66.4379 33.2322 65.8768 33.3476 65.2678C33.463 64.6588 33.3951 64.0292 33.1525 63.4588C32.9098 62.8884 32.5034 62.4029 31.9846 62.0636C31.4659 61.7244 30.8581 61.5467 30.2383 61.5531C29.4122 61.57 28.6256 61.9094 28.0464 62.4986C27.4673 63.0878 27.1416 63.8802 27.1389 64.7064Z" fill="#F5F6FE"/>
<path d="M28.7042 98.185C28.7021 98.4952 28.7921 98.799 28.9629 99.0579C29.1336 99.3168 29.3774 99.5192 29.6633 99.6394C29.9493 99.7596 30.2645 99.7921 30.5689 99.7329C30.8734 99.6737 31.1534 99.5255 31.3735 99.3069C31.5936 99.0884 31.7437 98.8094 31.805 98.5053C31.8664 98.2013 31.836 97.8859 31.7178 97.5991C31.5996 97.3124 31.3989 97.0672 31.1412 96.8947C30.8834 96.7221 30.5803 96.63 30.2701 96.63C29.8575 96.6327 29.4625 96.7972 29.1698 97.0879C28.877 97.3787 28.7099 97.7725 28.7042 98.185Z" fill="#F5F6FE"/>
<path d="M400.16 198.641C400.16 198.331 400.068 198.029 399.896 197.771C399.724 197.514 399.48 197.313 399.194 197.194C398.907 197.076 398.593 197.045 398.289 197.105C397.985 197.166 397.706 197.315 397.487 197.534C397.268 197.753 397.119 198.032 397.058 198.336C396.998 198.639 397.029 198.954 397.148 199.24C397.266 199.526 397.467 199.771 397.724 199.943C397.982 200.115 398.285 200.207 398.594 200.207C399.007 200.199 399.4 200.031 399.692 199.739C399.984 199.447 400.152 199.054 400.16 198.641Z" fill="#F5F6FE"/>
<path d="M368.25 198.637C368.252 198.017 368.07 197.41 367.727 196.894C367.385 196.378 366.896 195.974 366.324 195.736C365.752 195.497 365.122 195.434 364.514 195.553C363.906 195.673 363.347 195.97 362.908 196.408C362.469 196.845 362.169 197.403 362.047 198.011C361.926 198.619 361.987 199.249 362.224 199.822C362.461 200.395 362.862 200.885 363.377 201.229C363.892 201.574 364.498 201.758 365.118 201.758C365.944 201.749 366.734 201.418 367.32 200.835C367.905 200.252 368.239 199.463 368.25 198.637Z" fill="#F5F6FE"/>
<path d="M326.947 198.637C326.947 199.564 327.222 200.471 327.737 201.241C328.252 202.012 328.984 202.613 329.84 202.967C330.696 203.322 331.639 203.415 332.548 203.234C333.457 203.053 334.292 202.607 334.948 201.951C335.603 201.296 336.049 200.461 336.23 199.552C336.411 198.643 336.318 197.7 335.964 196.844C335.609 195.987 335.008 195.255 334.237 194.74C333.467 194.225 332.56 193.951 331.633 193.951C330.395 193.965 329.211 194.463 328.335 195.339C327.459 196.215 326.961 197.399 326.947 198.637Z" fill="#F5F6FE"/>
<path d="M293.454 198.637C293.454 199.564 293.729 200.471 294.244 201.241C294.759 202.012 295.491 202.613 296.348 202.967C297.204 203.322 298.147 203.415 299.056 203.234C299.965 203.053 300.8 202.607 301.455 201.951C302.111 201.296 302.557 200.461 302.738 199.552C302.919 198.643 302.826 197.7 302.471 196.844C302.117 195.987 301.516 195.255 300.745 194.74C299.974 194.225 299.068 193.951 298.141 193.951C296.903 193.965 295.719 194.463 294.843 195.339C293.967 196.215 293.469 197.399 293.454 198.637Z" fill="#F5F6FE"/>
<path d="M261.533 198.639C261.531 199.259 261.713 199.866 262.057 200.383C262.4 200.899 262.889 201.302 263.462 201.541C264.034 201.779 264.665 201.842 265.273 201.722C265.882 201.601 266.441 201.303 266.88 200.864C267.318 200.425 267.617 199.866 267.737 199.258C267.858 198.649 267.795 198.019 267.556 197.446C267.318 196.873 266.915 196.384 266.398 196.041C265.882 195.698 265.275 195.516 264.654 195.518C263.83 195.529 263.043 195.861 262.46 196.444C261.877 197.027 261.545 197.814 261.533 198.639Z" fill="#F5F6FE"/>
<path d="M229.61 198.638C229.608 198.948 229.698 199.252 229.869 199.511C230.04 199.77 230.284 199.972 230.57 200.093C230.856 200.213 231.171 200.245 231.475 200.186C231.78 200.127 232.06 199.979 232.28 199.76C232.5 199.541 232.65 199.262 232.711 198.958C232.773 198.654 232.742 198.339 232.624 198.052C232.506 197.766 232.305 197.52 232.047 197.348C231.79 197.175 231.487 197.083 231.176 197.083C230.764 197.086 230.369 197.25 230.076 197.541C229.783 197.832 229.616 198.226 229.61 198.638Z" fill="#F5F6FE"/>
<path d="M196.126 198.638C196.124 198.948 196.214 199.252 196.385 199.511C196.555 199.77 196.799 199.972 197.085 200.093C197.371 200.213 197.686 200.245 197.991 200.186C198.295 200.127 198.575 199.979 198.795 199.76C199.015 199.541 199.166 199.262 199.227 198.958C199.288 198.654 199.258 198.339 199.14 198.052C199.021 197.766 198.821 197.52 198.563 197.348C198.305 197.175 198.002 197.083 197.692 197.083C197.28 197.089 196.887 197.254 196.595 197.544C196.302 197.834 196.134 198.226 196.126 198.638Z" fill="#F5F6FE"/>
<path d="M161.081 198.639C161.089 199.259 161.282 199.863 161.634 200.373C161.986 200.884 162.482 201.278 163.059 201.507C163.636 201.735 164.267 201.787 164.873 201.656C165.48 201.525 166.033 201.217 166.464 200.771C166.895 200.325 167.184 199.76 167.294 199.15C167.404 198.54 167.33 197.91 167.082 197.342C166.834 196.773 166.423 196.291 165.9 195.957C165.378 195.623 164.768 195.451 164.148 195.464C163.323 195.489 162.542 195.835 161.969 196.428C161.396 197.021 161.077 197.814 161.081 198.639Z" fill="#F5F6FE"/>
<path d="M127.588 198.642C127.597 199.262 127.789 199.865 128.141 200.376C128.493 200.886 128.988 201.281 129.564 201.509C130.14 201.738 130.771 201.791 131.377 201.661C131.983 201.531 132.537 201.224 132.968 200.779C133.4 200.333 133.69 199.77 133.801 199.161C133.912 198.551 133.84 197.922 133.593 197.353C133.347 196.784 132.937 196.302 132.416 195.966C131.895 195.63 131.286 195.457 130.666 195.467C129.84 195.49 129.056 195.835 128.481 196.428C127.905 197.021 127.585 197.816 127.588 198.642Z" fill="#F5F6FE"/>
<path d="M94.114 198.636C94.1248 199.253 94.318 199.853 94.6693 200.36C95.0206 200.867 95.5142 201.258 96.0878 201.485C96.6615 201.711 97.2894 201.763 97.8923 201.633C98.4952 201.503 99.0461 201.197 99.4754 200.754C99.9047 200.312 100.193 199.751 100.304 199.145C100.416 198.538 100.344 197.912 100.1 197.346C99.8558 196.78 99.4492 196.298 98.9315 195.963C98.4139 195.628 97.8085 195.453 97.1918 195.462C96.3658 195.484 95.5814 195.829 95.0063 196.422C94.4311 197.015 94.1109 197.81 94.114 198.636Z" fill="#F5F6FE"/>
<path d="M62.1886 198.639C62.1866 198.951 62.2778 199.256 62.4505 199.516C62.6232 199.776 62.8696 199.978 63.1581 200.097C63.4466 200.216 63.764 200.246 64.0696 200.183C64.3751 200.12 64.655 199.967 64.8733 199.745C65.0916 199.522 65.2382 199.239 65.2946 198.932C65.3509 198.625 65.3143 198.308 65.1894 198.022C65.0646 197.736 64.8572 197.494 64.5938 197.327C64.3305 197.16 64.0231 197.075 63.7113 197.084C63.3054 197.095 62.9197 197.263 62.6356 197.553C62.3515 197.844 62.1912 198.233 62.1886 198.639Z" fill="#F5F6FE"/>
<path d="M28.7042 198.639C28.7021 198.95 28.793 199.255 28.9652 199.515C29.1375 199.774 29.3832 199.977 29.671 200.096C29.9589 200.215 30.2757 200.246 30.581 200.184C30.8863 200.122 31.1663 199.97 31.385 199.748C31.6037 199.527 31.7514 199.245 31.809 198.938C31.8665 198.632 31.8315 198.316 31.7083 198.03C31.5851 197.744 31.3794 197.501 31.1174 197.332C30.8555 197.164 30.5491 197.077 30.2377 197.083C29.8308 197.095 29.4439 197.263 29.1581 197.552C28.8723 197.842 28.7096 198.231 28.7042 198.639Z" fill="#F5F6FE"/>
<path d="M397.028 232.126C397.028 232.435 397.12 232.738 397.292 232.995C397.464 233.253 397.709 233.454 397.995 233.572C398.281 233.691 398.596 233.722 398.9 233.661C399.204 233.601 399.483 233.452 399.702 233.233C399.921 233.014 400.07 232.735 400.13 232.431C400.19 232.127 400.159 231.812 400.041 231.526C399.922 231.24 399.722 230.996 399.464 230.824C399.207 230.652 398.904 230.56 398.594 230.56C398.182 230.568 397.788 230.736 397.496 231.027C397.204 231.319 397.037 231.713 397.028 232.126Z" fill="#F5F6FE"/>
<path d="M366.672 232.129C366.674 231.818 366.584 231.515 366.413 231.256C366.242 230.997 365.999 230.794 365.713 230.674C365.427 230.554 365.112 230.521 364.807 230.581C364.503 230.64 364.223 230.788 364.003 231.007C363.783 231.225 363.632 231.504 363.571 231.808C363.51 232.112 363.54 232.428 363.658 232.714C363.776 233.001 363.977 233.246 364.235 233.419C364.493 233.591 364.796 233.684 365.106 233.684C365.519 233.681 365.914 233.516 366.206 233.226C366.499 232.935 366.666 232.541 366.672 232.129Z" fill="#F5F6FE"/>
<path d="M333.184 232.128C333.186 231.818 333.095 231.514 332.924 231.254C332.753 230.995 332.508 230.793 332.222 230.673C331.935 230.553 331.62 230.521 331.315 230.581C331.01 230.641 330.73 230.791 330.51 231.01C330.291 231.23 330.141 231.51 330.081 231.815C330.021 232.12 330.053 232.435 330.173 232.722C330.293 233.008 330.495 233.253 330.754 233.424C331.014 233.595 331.318 233.686 331.628 233.684C332.04 233.681 332.434 233.516 332.725 233.225C333.016 232.934 333.181 232.54 333.184 232.128Z" fill="#F5F6FE"/>
<path d="M295.024 232.129C295.024 232.746 295.207 233.35 295.55 233.863C295.893 234.376 296.38 234.776 296.95 235.012C297.521 235.249 298.148 235.31 298.754 235.19C299.359 235.07 299.915 234.772 300.352 234.336C300.788 233.899 301.085 233.343 301.206 232.738C301.326 232.132 301.264 231.505 301.028 230.935C300.792 230.364 300.392 229.877 299.879 229.534C299.365 229.191 298.762 229.008 298.145 229.008C297.32 229.017 296.531 229.348 295.947 229.932C295.364 230.515 295.032 231.304 295.024 232.129Z" fill="#F5F6FE"/>
<path d="M263.103 232.126C263.103 232.436 263.195 232.739 263.367 232.997C263.54 233.254 263.785 233.455 264.072 233.573C264.359 233.691 264.674 233.722 264.978 233.661C265.282 233.599 265.561 233.449 265.78 233.229C265.998 233.009 266.146 232.729 266.206 232.424C266.265 232.12 266.232 231.805 266.112 231.519C265.992 231.233 265.79 230.989 265.531 230.818C265.272 230.648 264.968 230.558 264.658 230.56C264.245 230.565 263.851 230.733 263.561 231.025C263.27 231.318 263.105 231.713 263.103 232.126Z" fill="#F5F6FE"/>
<path d="M228.045 232.127C228.043 232.747 228.225 233.353 228.568 233.87C228.91 234.386 229.399 234.789 229.971 235.028C230.543 235.267 231.173 235.33 231.781 235.211C232.389 235.091 232.948 234.794 233.387 234.356C233.827 233.919 234.126 233.361 234.248 232.753C234.369 232.145 234.308 231.515 234.071 230.942C233.835 230.369 233.433 229.879 232.918 229.535C232.403 229.19 231.797 229.006 231.177 229.006C230.351 229.014 229.561 229.346 228.975 229.929C228.39 230.512 228.056 231.301 228.045 232.127Z" fill="#F5F6FE"/>
<path d="M194.567 232.129C194.567 232.746 194.75 233.35 195.093 233.863C195.436 234.376 195.923 234.776 196.493 235.012C197.064 235.249 197.691 235.31 198.297 235.19C198.902 235.07 199.458 234.772 199.894 234.336C200.331 233.899 200.628 233.343 200.749 232.738C200.869 232.132 200.807 231.505 200.571 230.935C200.335 230.364 199.935 229.877 199.422 229.534C198.908 229.191 198.305 229.008 197.688 229.008C196.863 229.017 196.074 229.348 195.49 229.932C194.907 230.515 194.575 231.304 194.567 232.129Z" fill="#F5F6FE"/>
<path d="M161.08 232.127C161.078 232.747 161.26 233.354 161.604 233.871C161.947 234.388 162.436 234.791 163.009 235.029C163.581 235.267 164.212 235.33 164.82 235.21C165.429 235.089 165.988 234.791 166.426 234.352C166.865 233.914 167.164 233.355 167.284 232.746C167.405 232.138 167.342 231.507 167.103 230.934C166.865 230.362 166.462 229.873 165.945 229.529C165.429 229.186 164.822 229.004 164.201 229.006C163.376 229.014 162.587 229.346 162.004 229.929C161.42 230.513 161.089 231.302 161.08 232.127Z" fill="#F5F6FE"/>
<path d="M127.588 232.127C127.586 232.747 127.768 233.353 128.111 233.87C128.453 234.386 128.942 234.789 129.514 235.028C130.086 235.267 130.716 235.33 131.324 235.211C131.932 235.091 132.491 234.794 132.93 234.356C133.37 233.919 133.669 233.361 133.791 232.753C133.912 232.145 133.851 231.515 133.614 230.942C133.377 230.369 132.976 229.879 132.461 229.535C131.946 229.19 131.34 229.006 130.72 229.006C129.894 229.014 129.104 229.346 128.518 229.929C127.933 230.512 127.599 231.301 127.588 232.127Z" fill="#F5F6FE"/>
<path d="M95.6651 232.126C95.6653 232.438 95.7583 232.742 95.9323 233C96.1064 233.259 96.3535 233.459 96.6422 233.576C96.9308 233.694 97.2479 233.722 97.5527 233.658C97.8576 233.594 98.1364 233.441 98.3536 233.217C98.5708 232.994 98.7164 232.711 98.7719 232.404C98.8273 232.098 98.7901 231.782 98.6649 231.496C98.5398 231.211 98.3324 230.97 98.0692 230.803C97.8061 230.636 97.4992 230.552 97.1878 230.56C96.7827 230.579 96.4 230.752 96.1173 231.043C95.8345 231.333 95.6729 231.721 95.6651 232.126Z" fill="#F5F6FE"/>
<path d="M62.1886 232.126C62.1887 232.438 62.2817 232.742 62.4558 233C62.6298 233.259 62.877 233.459 63.1656 233.576C63.4543 233.694 63.7713 233.722 64.0762 233.658C64.381 233.594 64.6599 233.441 64.8771 233.217C65.0942 232.994 65.2398 232.711 65.2953 232.404C65.3508 232.098 65.3135 231.782 65.1884 231.496C65.0632 231.211 64.8558 230.97 64.5927 230.803C64.3295 230.636 64.0227 230.552 63.7113 230.56C63.3044 230.574 62.9187 230.745 62.6349 231.037C62.3511 231.329 62.1911 231.719 62.1886 232.126Z" fill="#F5F6FE"/>
<path d="M27.1389 232.127C27.1367 232.747 27.3186 233.353 27.6614 233.87C28.0042 234.386 28.4926 234.789 29.0646 235.028C29.6367 235.267 30.2667 235.33 30.8749 235.211C31.4831 235.091 32.0422 234.794 32.4812 234.356C32.9203 233.919 33.2197 233.361 33.3414 232.753C33.4631 232.145 33.4017 231.515 33.165 230.942C32.9283 230.369 32.5269 229.879 32.0116 229.535C31.4964 229.19 30.8905 229.006 30.2706 229.006C29.4445 229.014 28.6544 229.346 28.0692 229.929C27.484 230.512 27.1501 231.301 27.1389 232.127Z" fill="#F5F6FE"/>
<path d="M162.649 500.001C162.65 500.311 162.742 500.614 162.914 500.872C163.087 501.129 163.332 501.33 163.619 501.448C163.905 501.566 164.221 501.597 164.525 501.536C164.829 501.474 165.108 501.324 165.326 501.104C165.545 500.884 165.693 500.604 165.752 500.299C165.812 499.995 165.779 499.68 165.659 499.394C165.539 499.108 165.336 498.864 165.077 498.693C164.819 498.523 164.515 498.433 164.205 498.435C163.792 498.44 163.398 498.607 163.107 498.9C162.817 499.193 162.652 499.588 162.649 500.001Z" fill="#F5F6FE"/>
<path d="M129.161 500.001C129.161 500.31 129.253 500.613 129.425 500.87C129.597 501.128 129.842 501.329 130.128 501.447C130.414 501.566 130.729 501.597 131.033 501.536C131.336 501.476 131.615 501.327 131.834 501.108C132.053 500.889 132.202 500.61 132.263 500.306C132.323 500.002 132.292 499.687 132.174 499.401C132.055 499.115 131.855 498.871 131.597 498.699C131.34 498.526 131.037 498.435 130.727 498.435C130.314 498.44 129.919 498.607 129.626 498.899C129.334 499.192 129.167 499.587 129.161 500.001Z" fill="#F5F6FE"/>
<path d="M94.1135 500C94.1135 500.617 94.2966 501.221 94.6395 501.734C94.9825 502.247 95.4699 502.647 96.0402 502.884C96.6105 503.12 97.238 503.182 97.8434 503.061C98.4488 502.941 99.0049 502.643 99.4413 502.207C99.8778 501.771 100.175 501.214 100.295 500.609C100.416 500.004 100.354 499.376 100.118 498.806C99.8817 498.236 99.4817 497.748 98.9684 497.405C98.4552 497.062 97.8518 496.879 97.2345 496.879C96.4094 496.888 95.6205 497.219 95.037 497.803C94.4535 498.386 94.122 499.175 94.1135 500Z" fill="#F5F6FE"/>
<path d="M60.6311 500.002C60.6289 500.622 60.8111 501.229 61.1544 501.746C61.4977 502.263 61.9867 502.666 62.5594 502.904C63.132 503.142 63.7626 503.205 64.3711 503.085C64.9796 502.964 65.5387 502.666 65.9773 502.227C66.4159 501.789 66.7144 501.23 66.8349 500.621C66.9554 500.013 66.8925 499.382 66.6541 498.809C66.4157 498.237 66.0126 497.748 65.496 497.404C64.9793 497.061 64.3723 496.879 63.752 496.881C62.9269 496.889 62.138 497.221 61.5545 497.804C60.971 498.388 60.6395 499.177 60.6311 500.002Z" fill="#F5F6FE"/>
<path d="M25.5873 499.997C25.5873 500.924 25.8621 501.83 26.3771 502.601C26.8921 503.371 27.6241 503.972 28.4805 504.327C29.3369 504.682 30.2793 504.774 31.1884 504.594C32.0976 504.413 32.9327 503.966 33.5882 503.311C34.2437 502.655 34.69 501.82 34.8709 500.911C35.0517 500.002 34.9589 499.06 34.6042 498.203C34.2494 497.347 33.6487 496.615 32.8779 496.1C32.1072 495.585 31.2011 495.31 30.2741 495.31C29.0354 495.324 27.8515 495.822 26.9755 496.698C26.0996 497.574 25.6013 498.758 25.5873 499.997Z" fill="#F5F6FE"/>
<path d="M94.1136 533.48C94.1157 534.096 94.3006 534.699 94.6448 535.211C94.989 535.722 95.4772 536.121 96.0477 536.355C96.6181 536.59 97.2453 536.65 97.85 536.529C98.4547 536.407 99.0098 536.109 99.4452 535.672C99.8805 535.235 100.177 534.679 100.296 534.074C100.416 533.469 100.353 532.842 100.117 532.272C99.8803 531.702 99.4803 531.216 98.9673 530.873C98.4543 530.531 97.8513 530.348 97.2345 530.348C96.4084 530.359 95.6195 530.693 95.0363 531.278C94.4531 531.863 94.122 532.654 94.1136 533.48Z" fill="#F5F6FE"/>
<path d="M59.0717 533.477C59.0717 534.405 59.3468 535.311 59.8623 536.082C60.3778 536.853 61.1104 537.454 61.9674 537.808C62.8245 538.163 63.7674 538.255 64.6768 538.073C65.5863 537.891 66.4214 537.444 67.0764 536.787C67.7314 536.131 68.1769 535.295 68.3566 534.385C68.5362 533.475 68.4418 532.532 68.0854 531.676C67.729 530.82 67.1266 530.089 66.3545 529.575C65.5823 529.061 64.6751 528.788 63.7477 528.79C62.5109 528.807 61.3297 529.307 60.456 530.182C59.5824 531.058 59.0857 532.24 59.0717 533.477Z" fill="#F5F6FE"/>
<path d="M27.1389 533.478C27.1389 534.097 27.3225 534.703 27.6666 535.218C28.0108 535.733 28.4999 536.134 29.0721 536.371C29.6444 536.608 30.2741 536.67 30.8816 536.549C31.4891 536.428 32.0471 536.13 32.4851 535.692C32.923 535.254 33.2213 534.696 33.3422 534.089C33.463 533.481 33.401 532.851 33.164 532.279C32.9269 531.707 32.5255 531.218 32.0105 530.874C31.4955 530.53 30.89 530.346 30.2706 530.346C29.4426 530.354 28.651 530.687 28.0655 531.272C27.48 531.858 27.1473 532.65 27.1389 533.478Z" fill="#F5F6FE"/>
<path d="M196.126 566.955C196.124 567.265 196.214 567.569 196.385 567.827C196.555 568.086 196.799 568.289 197.085 568.409C197.371 568.529 197.686 568.562 197.991 568.502C198.295 568.443 198.575 568.295 198.795 568.076C199.015 567.858 199.166 567.579 199.227 567.275C199.288 566.971 199.258 566.655 199.14 566.369C199.021 566.082 198.821 565.837 198.563 565.664C198.305 565.492 198.002 565.4 197.692 565.399C197.28 565.405 196.887 565.57 196.595 565.86C196.302 566.151 196.134 566.543 196.126 566.955Z" fill="#F5F6FE"/>
<path d="M161.08 566.959C161.078 567.579 161.26 568.186 161.604 568.703C161.947 569.22 162.436 569.623 163.009 569.861C163.581 570.099 164.212 570.162 164.82 570.042C165.429 569.921 165.988 569.623 166.426 569.184C166.865 568.746 167.164 568.187 167.284 567.578C167.405 566.97 167.342 566.339 167.103 565.766C166.865 565.194 166.462 564.705 165.945 564.361C165.429 564.018 164.822 563.836 164.201 563.838C163.377 563.849 162.59 564.182 162.007 564.765C161.424 565.347 161.091 566.135 161.08 566.959Z" fill="#F5F6FE"/>
<path d="M127.588 566.959C127.586 567.579 127.768 568.185 128.111 568.702C128.453 569.218 128.942 569.621 129.514 569.86C130.086 570.099 130.716 570.162 131.324 570.043C131.932 569.923 132.491 569.626 132.93 569.188C133.37 568.751 133.669 568.193 133.791 567.585C133.912 566.977 133.851 566.347 133.614 565.774C133.377 565.201 132.976 564.711 132.461 564.367C131.946 564.022 131.34 563.838 130.72 563.838C129.894 563.846 129.104 564.178 128.518 564.761C127.933 565.344 127.599 566.133 127.588 566.959Z" fill="#F5F6FE"/>
<path d="M92.5443 566.958C92.5443 567.885 92.8192 568.791 93.3342 569.562C93.8492 570.332 94.5812 570.933 95.4376 571.288C96.294 571.642 97.2363 571.735 98.1455 571.554C99.0546 571.374 99.8898 570.927 100.545 570.272C101.201 569.616 101.647 568.781 101.828 567.872C102.009 566.963 101.916 566.021 101.561 565.164C101.206 564.308 100.606 563.576 99.835 563.061C99.0643 562.546 98.1581 562.271 97.2312 562.271C95.9925 562.285 94.8085 562.783 93.9326 563.659C93.0567 564.535 92.5584 565.719 92.5443 566.958Z" fill="#F5F6FE"/>
<path d="M59.0717 566.958C59.0717 567.885 59.3468 568.792 59.8623 569.563C60.3778 570.334 61.1104 570.934 61.9674 571.289C62.8245 571.643 63.7674 571.735 64.6768 571.554C65.5863 571.372 66.4214 570.924 67.0764 570.268C67.7314 569.611 68.1769 568.775 68.3566 567.865C68.5362 566.956 68.4418 566.013 68.0854 565.157C67.729 564.3 67.1266 563.569 66.3545 563.056C65.5823 562.542 64.6751 562.269 63.7477 562.271C62.5109 562.288 61.3297 562.787 60.456 563.663C59.5824 564.539 59.0857 565.721 59.0717 566.958Z" fill="#F5F6FE"/>
<path d="M27.1389 566.959C27.1367 567.579 27.3186 568.185 27.6614 568.702C28.0042 569.218 28.4926 569.621 29.0646 569.86C29.6367 570.099 30.2667 570.162 30.8749 570.043C31.4831 569.923 32.0422 569.626 32.4812 569.188C32.9203 568.751 33.2197 568.193 33.3414 567.585C33.4631 566.977 33.4017 566.347 33.165 565.774C32.9283 565.201 32.5269 564.711 32.0116 564.367C31.4964 564.022 30.8905 563.838 30.2706 563.838C29.4445 563.846 28.6544 564.178 28.0692 564.761C27.484 565.344 27.1501 566.133 27.1389 566.959Z" fill="#F5F6FE"/>
<path d="M229.61 600.43C229.61 600.74 229.702 601.043 229.874 601.3C230.046 601.558 230.291 601.758 230.577 601.877C230.863 601.995 231.178 602.026 231.482 601.966C231.786 601.906 232.065 601.756 232.284 601.537C232.503 601.318 232.652 601.039 232.712 600.736C232.773 600.432 232.742 600.117 232.623 599.831C232.504 599.545 232.304 599.3 232.046 599.128C231.789 598.956 231.486 598.864 231.176 598.864C230.763 598.87 230.368 599.037 230.075 599.329C229.783 599.622 229.616 600.017 229.61 600.43Z" fill="#F5F6FE"/>
<path d="M194.567 600.43C194.567 601.047 194.75 601.65 195.093 602.164C195.436 602.677 195.923 603.077 196.493 603.313C197.064 603.549 197.691 603.611 198.297 603.491C198.902 603.37 199.458 603.073 199.894 602.637C200.331 602.2 200.628 601.644 200.749 601.039C200.869 600.433 200.807 599.806 200.571 599.235C200.335 598.665 199.935 598.178 199.422 597.835C198.908 597.492 198.305 597.309 197.688 597.309C196.863 597.317 196.074 597.649 195.49 598.232C194.907 598.816 194.575 599.605 194.567 600.43Z" fill="#F5F6FE"/>
<path d="M161.08 600.432C161.078 601.052 161.26 601.659 161.604 602.176C161.947 602.692 162.436 603.095 163.009 603.334C163.581 603.572 164.212 603.635 164.82 603.515C165.429 603.394 165.988 603.096 166.426 602.657C166.865 602.218 167.164 601.659 167.284 601.051C167.405 600.442 167.342 599.812 167.103 599.239C166.865 598.666 166.462 598.177 165.945 597.834C165.429 597.491 164.822 597.309 164.201 597.311C163.376 597.319 162.587 597.651 162.004 598.234C161.42 598.818 161.089 599.607 161.08 600.432Z" fill="#F5F6FE"/>
<path d="M126.036 600.434C126.036 601.361 126.311 602.267 126.826 603.038C127.341 603.809 128.073 604.41 128.93 604.764C129.786 605.119 130.729 605.212 131.638 605.031C132.547 604.85 133.382 604.404 134.037 603.748C134.693 603.093 135.139 602.258 135.32 601.349C135.501 600.439 135.408 599.497 135.053 598.641C134.699 597.784 134.098 597.052 133.327 596.537C132.556 596.022 131.65 595.747 130.723 595.747C129.485 595.761 128.301 596.26 127.425 597.136C126.549 598.012 126.051 599.196 126.036 600.434Z" fill="#F5F6FE"/>
<path d="M92.5443 600.434C92.5443 601.361 92.8192 602.267 93.3342 603.038C93.8492 603.809 94.5812 604.41 95.4376 604.764C96.294 605.119 97.2363 605.212 98.1455 605.031C99.0546 604.85 99.8898 604.404 100.545 603.748C101.201 603.093 101.647 602.258 101.828 601.349C102.009 600.439 101.916 599.497 101.561 598.641C101.206 597.784 100.606 597.052 99.835 596.537C99.0643 596.022 98.1581 595.747 97.2312 595.747C95.9925 595.761 94.8085 596.26 93.9326 597.136C93.0567 598.012 92.5584 599.196 92.5443 600.434Z" fill="#F5F6FE"/>
<path d="M57.5063 600.431C57.5063 601.668 57.8733 602.877 58.5608 603.906C59.2484 604.934 60.2255 605.736 61.3687 606.209C62.5119 606.682 63.7696 606.805 64.9828 606.563C66.196 606.321 67.3101 605.724 68.1842 604.848C69.0582 603.973 69.6528 602.858 69.8929 601.644C70.1329 600.431 70.0076 599.173 69.5326 598.031C69.0577 596.888 68.2546 595.912 67.225 595.227C66.1953 594.541 64.9853 594.176 63.7482 594.178C62.097 594.198 60.5191 594.863 59.3525 596.032C58.1858 597.201 57.5231 598.78 57.5063 600.431Z" fill="#F5F6FE"/>
<path d="M27.1389 600.432C27.1367 601.052 27.3186 601.658 27.6614 602.174C28.0042 602.691 28.4926 603.094 29.0646 603.333C29.6367 603.571 30.2667 603.635 30.8749 603.515C31.4831 603.396 32.0422 603.098 32.4812 602.661C32.9203 602.223 33.2197 601.665 33.3414 601.057C33.4631 600.45 33.4017 599.819 33.165 599.246C32.9283 598.674 32.5269 598.184 32.0116 597.839C31.4964 597.495 30.8905 597.311 30.2706 597.311C29.4445 597.319 28.6544 597.65 28.0692 598.233C27.484 598.817 27.1501 599.606 27.1389 600.432Z" fill="#F5F6FE"/>
</g>
<defs>
<clipPath id="clip0_3045_98967">
<rect width="484" height="1000" fill="white" transform="translate(484 1000) rotate(-180)"/>
</clipPath>
</defs>
</svg>
