<svg width="131" height="32" viewBox="0 0 131 32" fill="none" xmlns="http://www.w3.org/2000/svg">
<path d="M78.3358 19.1802C78.2473 19.3312 78.2035 19.4233 78.1445 19.5041C77.4219 20.5012 76.6936 21.4945 75.9748 22.4944C75.831 22.6938 75.6815 22.7973 75.415 22.7964C71.3935 22.7869 67.3721 22.7897 63.3516 22.7888C63.263 22.7888 63.1745 22.7783 63.0545 22.7708C63.0545 20.0539 63.0545 17.3588 63.0545 14.6648C63.3944 14.5783 77.2457 14.5594 77.7713 14.6524C77.6923 14.7588 77.6275 14.8547 77.5542 14.9421C76.9344 15.6733 76.3051 16.3959 75.6968 17.1357C75.5064 17.3674 75.3045 17.4624 74.9999 17.4614C72.5322 17.45 70.0645 17.4548 67.5968 17.4548C67.4187 17.4548 67.2397 17.4548 67.036 17.4548C67.036 18.0549 67.036 18.5934 67.036 19.1802C70.7975 19.1802 74.5334 19.1802 78.3358 19.1802Z" fill="white"/>
<path d="M49.4194 12.9881C47.2639 12.9881 45.1694 12.9881 42.9883 12.9881C43.1006 12.8133 43.1616 12.7022 43.2377 12.6025C43.9813 11.6406 44.7362 10.6871 45.4674 9.71567C45.6521 9.46972 45.8482 9.38046 46.1519 9.38141C49.6231 9.3909 53.0952 9.3871 56.5664 9.3871C57.8907 9.3871 59.2159 9.3871 60.5402 9.3871C60.703 9.3871 60.8649 9.3871 61.1019 9.3871C60.9943 9.55044 60.9382 9.6511 60.8668 9.74036C60.0823 10.7289 59.2911 11.7108 58.5143 12.7051C58.3581 12.9055 58.1925 12.9833 57.9392 12.9814C56.6302 12.97 55.3201 12.9767 54.0111 12.9767C53.8483 12.9767 53.6845 12.9767 53.4713 12.9767C53.4713 16.2586 53.4713 19.4873 53.4713 22.7692C52.107 22.8129 50.7941 22.7806 49.4194 22.7929C49.4194 19.5072 49.4194 16.2681 49.4194 12.9881Z" fill="white"/>
<path d="M94.3778 22.79C93.1849 22.79 92.0881 22.7463 90.9971 22.8062C90.3164 22.8442 89.8984 22.6191 89.4824 22.0816C87.8011 19.9051 86.0655 17.7694 84.3499 15.6194C84.2575 15.5036 84.1576 15.3944 83.9833 15.1911C83.9443 15.9119 83.9672 16.5244 83.9624 17.1369C83.9586 17.7599 83.9615 18.3819 83.9615 19.0048C83.9615 19.6278 83.9615 20.2498 83.9615 20.8727C83.9615 21.4928 83.9615 22.112 83.9615 22.7615C82.8314 22.7615 81.7441 22.7615 80.6245 22.7615C80.6245 18.323 80.6245 13.8977 80.6245 9.42787C80.7511 9.41457 80.8806 9.38988 81.0101 9.38988C81.6499 9.38608 82.2897 9.40508 82.9285 9.38134C83.2646 9.36899 83.4826 9.4744 83.6996 9.73934C86.6729 13.3755 89.6585 17.0011 92.6403 20.6296C93.1325 21.2288 93.6257 21.8271 94.116 22.4273C94.1893 22.5165 94.2531 22.6162 94.3778 22.79Z" fill="white"/>
<path d="M63.0412 12.9755C63.0412 11.7533 63.0412 10.6033 63.0412 9.42008C68.1223 9.42008 73.1834 9.42008 78.2949 9.42008C78.2235 9.54353 78.1759 9.64704 78.1102 9.73821C77.4066 10.7106 76.6916 11.6764 75.9995 12.6574C75.831 12.8957 75.653 12.9831 75.3616 12.9821C72.118 12.9717 68.8744 12.9755 65.6308 12.9755C64.9301 12.9755 64.2294 12.9755 63.5296 12.9755C63.3801 12.9755 63.2307 12.9755 63.0412 12.9755Z" fill="white"/>
<path d="M94.6063 21.169C94.4474 20.9857 94.3579 20.885 94.2703 20.7825C93.4315 19.7996 92.5947 18.8139 91.7512 17.8348C91.6064 17.6668 91.5198 17.5006 91.5208 17.267C91.5284 14.7609 91.5255 12.2539 91.5265 9.74785C91.5265 9.64529 91.5427 9.54273 91.5531 9.41548C92.5785 9.41548 93.5753 9.41548 94.6063 9.41548C94.6063 13.3061 94.6063 17.1834 94.6063 21.169Z" fill="white"/>
<path d="M28.8948 25.5869C28.8358 25.5189 28.7937 25.4633 28.746 25.4157C28.5063 25.1798 28.2654 24.944 28.0246 24.7104C27.7031 24.3985 27.3815 24.089 27.0589 23.7782C26.7351 23.4653 26.4113 23.1523 26.0875 22.8393C25.7581 22.5207 25.4274 22.2009 25.098 21.8822C24.7787 21.5727 24.4583 21.2642 24.138 20.9558C23.8096 20.6394 23.4824 20.3219 23.1541 20.0044C22.828 19.6891 22.5031 19.375 22.1771 19.0598C21.8555 18.7491 21.534 18.4372 21.2114 18.1265C20.8853 17.8113 20.5604 17.496 20.2343 17.1819C19.9776 16.9347 19.7197 16.6898 19.464 16.4426C19.4265 16.4063 19.4004 16.4052 19.3629 16.438C19.2607 16.5288 19.1562 16.6149 19.055 16.7057C18.7506 16.9789 18.445 17.2511 18.1428 17.5255C17.9348 17.7149 17.7292 17.9065 17.5224 18.097C17.2611 18.3374 17.001 18.5801 16.7374 18.8183C16.6749 18.8749 16.6692 18.9124 16.734 18.9747C16.9942 19.2219 17.2486 19.476 17.5065 19.7266C17.8315 20.0418 18.1575 20.357 18.4836 20.6712C18.8131 20.9898 19.1437 21.3085 19.4731 21.6282C19.7946 21.9389 20.1173 22.2497 20.4388 22.5615C20.7683 22.8801 21.0978 23.1999 21.4284 23.5186C21.7476 23.827 22.068 24.1366 22.3872 24.445C22.7167 24.7637 23.0473 25.0834 23.3768 25.4021C23.6983 25.7128 24.0198 26.0246 24.3413 26.3354C24.6753 26.6585 25.0094 26.9817 25.3434 27.3049C25.6672 27.6179 25.991 27.9309 26.3147 28.2438C26.3227 28.2518 26.3284 28.2597 26.3431 28.2767C23.7028 30.4392 20.6956 31.7081 17.2884 31.9531C12.8951 32.2683 8.99485 30.9948 5.63199 28.1588C3.31093 26.2015 1.69312 23.751 0.769466 20.8594C-0.124647 18.0596 -0.242802 15.2213 0.432043 12.3569C1.03986 9.77935 2.20323 7.47625 3.96078 5.4952C6.89079 2.19308 10.5684 0.332229 14.981 0.0396639C19.3959 -0.252901 23.312 1.07385 26.6306 3.99269C29.9798 6.93762 31.7987 10.6797 32.0543 15.1306C32.2759 18.9725 31.1898 22.4504 28.8948 25.5869ZM18.5063 15.5229C18.2973 15.3222 18.1007 15.1317 17.9042 14.9412C17.5168 14.5659 17.1316 14.1894 16.7431 13.814C16.2091 13.2981 15.674 12.7855 15.14 12.2696C14.6924 11.8375 14.2471 11.4032 13.8006 10.97C13.1575 10.3463 12.5122 9.72379 11.8692 9.1001C11.7976 9.03093 11.7204 8.99578 11.6181 8.99578C11.141 8.99918 10.6638 8.99805 10.1866 8.99805C8.98576 8.99805 7.78604 8.99805 6.58518 8.99805C6.54541 8.99805 6.50565 9.00372 6.43862 9.00825C8.66538 11.1605 10.8706 13.2935 13.0837 15.4333C10.6308 17.6491 8.18254 19.8615 5.73424 22.0739C5.78082 22.0943 5.81376 22.0943 5.84557 22.0943C7.06802 22.0988 8.29047 22.1034 9.51405 22.1068C10.0401 22.1079 10.5661 22.1102 11.0921 22.1034C11.1648 22.1022 11.2546 22.0727 11.308 22.024C11.8374 21.5545 12.3611 21.0794 12.886 20.6043C13.2711 20.2561 13.6551 19.9069 14.0414 19.5587C14.5459 19.104 15.0503 18.6493 15.5547 18.1946C15.9546 17.8328 16.3534 17.47 16.7533 17.1082C17.2555 16.6546 17.7576 16.2033 18.2598 15.7497C18.3404 15.6783 18.4211 15.6023 18.5063 15.5229ZM16.9658 11.9305C17.8462 12.8093 18.7154 13.678 19.589 14.5511C21.6215 12.7152 23.6619 10.8714 25.7024 9.02866C25.6978 9.01846 25.6922 9.00938 25.6876 8.99918C25.6547 8.99918 25.6217 8.99918 25.5888 8.99918C23.9312 8.99918 22.2736 8.99918 20.6172 8.99918C20.5058 8.99918 20.3934 8.99351 20.2832 9.00145C20.2355 9.00485 20.1809 9.02413 20.1457 9.05588C19.8321 9.33484 19.5231 9.6172 19.213 9.89842C18.7801 10.2908 18.3461 10.682 17.9121 11.0744C17.6985 11.2671 17.4827 11.4588 17.2691 11.6515C17.1646 11.7457 17.0612 11.8432 16.9658 11.9305Z" fill="white"/>
<path d="M96.8618 22.7188C96.8799 22.6884 96.8866 22.6675 96.9009 22.6542C96.9951 22.5678 97.0922 22.4842 97.1865 22.3969C97.335 22.2601 97.4816 22.1215 97.6301 21.9847C97.7301 21.8926 97.8339 21.8034 97.9348 21.7113C98.0719 21.5869 98.208 21.4615 98.3441 21.3371C98.4641 21.2279 98.585 21.1177 98.705 21.0085C98.8278 20.8965 98.9506 20.7825 99.0734 20.6705C99.1829 20.5717 99.2933 20.4739 99.4028 20.3742C99.5285 20.2602 99.6532 20.1444 99.7779 20.0295C99.9027 19.9146 100.027 19.7997 100.152 19.6857C100.275 19.5727 100.399 19.4616 100.521 19.3486C100.632 19.2479 100.742 19.1473 100.853 19.0466C100.981 18.9298 101.111 18.813 101.239 18.6962C101.356 18.5898 101.473 18.4825 101.59 18.3762C101.709 18.2679 101.827 18.1606 101.946 18.0523C102.046 17.9621 102.147 17.8719 102.246 17.7808C102.391 17.6469 102.536 17.5111 102.682 17.3772C102.803 17.2661 102.925 17.1559 103.046 17.0448C103.16 16.9413 103.273 16.8378 103.387 16.7352C103.508 16.626 103.629 16.5168 103.75 16.4067C103.876 16.2908 104.002 16.174 104.13 16.0591C104.156 16.0353 104.191 16.0202 104.219 15.9983C104.294 15.9394 104.262 15.8445 104.179 15.7951C104.157 15.7818 104.134 15.7714 104.115 15.7543C103.986 15.627 103.86 15.4969 103.729 15.3706C103.561 15.2092 103.39 15.0515 103.22 14.892C103.068 14.7505 102.916 14.6109 102.765 14.4694C102.579 14.2956 102.394 14.1209 102.209 13.9462C102.045 13.7923 101.881 13.6385 101.717 13.4847C101.551 13.3289 101.385 13.1732 101.218 13.0174C101.064 12.8731 100.91 12.7307 100.756 12.5863C100.58 12.4211 100.413 12.2435 100.223 12.0944C100.054 11.9615 99.916 11.8 99.7598 11.6566C99.5751 11.4867 99.3952 11.3119 99.2124 11.14C99.0639 11.0004 98.9135 10.8618 98.764 10.7222C98.5869 10.557 98.4108 10.3917 98.2347 10.2265C98.0728 10.0746 97.911 9.92357 97.7482 9.77163C97.6054 9.63868 97.4616 9.50669 97.3188 9.37469C97.2988 9.3557 97.2817 9.33481 97.2502 9.30157C97.2883 9.29872 97.3083 9.29587 97.3283 9.29587C99.1229 9.29587 100.918 9.29587 102.711 9.29492C102.751 9.29492 102.777 9.30727 102.804 9.33766C102.884 9.42502 102.97 9.50574 103.053 9.59025C103.308 9.8533 103.562 10.1173 103.817 10.3803C104.063 10.6358 104.323 10.8817 104.553 11.1505C104.799 11.4373 105.093 11.6775 105.336 11.9643C105.564 12.2331 105.827 12.4638 106.067 12.7193C106.324 12.9928 106.588 13.2605 106.849 13.5312C107.084 13.7743 107.318 14.0183 107.553 14.2615C107.823 14.5406 108.105 14.8094 108.36 15.1019C108.589 15.3659 108.849 15.5976 109.087 15.8521C109.138 15.9062 109.134 15.9053 109.078 15.9527C109.004 16.0145 108.939 16.0857 108.87 16.1531C108.755 16.2671 108.642 16.3829 108.525 16.4959C108.316 16.6972 108.114 16.9071 107.892 17.0932C107.67 17.2784 107.489 17.5054 107.267 17.6877C107.035 17.8786 106.848 18.1141 106.617 18.3031C106.394 18.4873 106.203 18.7028 105.993 18.8994C105.78 19.0988 105.569 19.3011 105.357 19.5015C105.149 19.698 104.942 19.8946 104.734 20.0912C104.555 20.2602 104.376 20.4302 104.197 20.5992C103.958 20.8262 103.72 21.0541 103.481 21.2811C103.284 21.4691 103.095 21.6666 102.886 21.8404C102.646 22.0408 102.437 22.2734 102.21 22.4861C102.131 22.5602 102.048 22.6305 101.965 22.6998C101.951 22.7122 101.926 22.716 101.906 22.716C100.263 22.7169 98.6193 22.7169 96.9761 22.7169C96.9446 22.7188 96.9123 22.7188 96.8618 22.7188Z" fill="white"/>
<path d="M110.219 16.7834C110.264 16.8223 110.309 16.8603 110.352 16.8993C110.487 17.0227 110.62 17.1481 110.754 17.2706C110.863 17.3703 110.974 17.4671 111.083 17.5659C111.199 17.6713 111.314 17.7777 111.429 17.8831C111.542 17.9847 111.654 18.0863 111.766 18.1879C111.869 18.28 111.973 18.3721 112.076 18.4652C112.188 18.5668 112.299 18.6694 112.412 18.771C112.526 18.8745 112.64 18.977 112.754 19.0796C112.868 19.1822 112.979 19.2857 113.092 19.3882C113.205 19.4908 113.317 19.5924 113.429 19.694C113.541 19.7947 113.651 19.8963 113.763 19.9969C113.879 20.1023 113.995 20.2068 114.111 20.3122C114.222 20.4119 114.332 20.5126 114.442 20.6123C114.559 20.7177 114.676 20.8212 114.791 20.9266C114.903 21.0282 115.015 21.1317 115.127 21.2343C115.237 21.335 115.35 21.4337 115.46 21.5344C115.565 21.6293 115.67 21.7253 115.774 21.8202C115.885 21.9209 115.996 22.0206 116.108 22.1203C116.219 22.221 116.329 22.3226 116.441 22.4223C116.525 22.4973 116.611 22.5695 116.694 22.6445C116.711 22.6597 116.721 22.6834 116.742 22.7157C116.703 22.7176 116.682 22.7195 116.661 22.7195C114.818 22.7195 112.975 22.7195 111.133 22.7186C111.113 22.7186 111.087 22.7091 111.073 22.6948C110.803 22.427 110.544 22.1478 110.262 21.8924C109.628 21.316 109.047 20.6883 108.432 20.0938C108.15 19.8203 107.866 19.5497 107.583 19.2771C107.508 19.205 107.508 19.1993 107.583 19.1271C107.734 18.9827 107.888 18.8403 108.042 18.6998C108.148 18.6019 108.257 18.5051 108.366 18.4111C108.501 18.2952 108.639 18.1841 108.771 18.0654C108.931 17.922 109.086 17.772 109.244 17.6267C109.334 17.5441 109.425 17.4633 109.517 17.3826C109.713 17.2079 109.908 17.0332 110.105 16.8603C110.143 16.8252 110.189 16.8034 110.219 16.7834Z" fill="white"/>
<path d="M108.113 12.6251C108.248 12.4494 108.423 12.3032 108.579 12.1408C108.804 11.9044 109.043 11.6793 109.254 11.4305C109.425 11.2282 109.621 11.0525 109.802 10.8607C110.012 10.6385 110.225 10.4201 110.434 10.1998C110.594 10.0307 110.753 9.86076 110.912 9.69078C111.026 9.56828 111.138 9.44483 111.251 9.32233C111.264 9.30903 111.285 9.30238 111.304 9.29669C111.316 9.29289 111.329 9.29669 111.343 9.29669C113.078 9.29669 114.813 9.29669 116.548 9.29669C116.567 9.29669 116.586 9.29669 116.622 9.29669C116.605 9.32233 116.598 9.33942 116.586 9.35177C116.508 9.42963 116.432 9.50845 116.352 9.58252C116.229 9.69838 116.101 9.81138 115.976 9.92534C115.867 10.025 115.757 10.1248 115.649 10.2254C115.5 10.3631 115.353 10.5008 115.204 10.6376C115.083 10.7487 114.96 10.8598 114.839 10.9709C114.707 11.0924 114.575 11.214 114.442 11.3355C114.321 11.4466 114.2 11.5577 114.078 11.6688C113.94 11.7951 113.803 11.9224 113.664 12.0487C113.549 12.1532 113.434 12.2567 113.321 12.3611C113.19 12.4817 113.068 12.6156 112.926 12.722C112.779 12.8312 112.665 12.9698 112.531 13.0904C112.407 13.2025 112.284 13.3145 112.161 13.4266C112.034 13.5434 111.906 13.6612 111.778 13.778C111.646 13.8986 111.515 14.0182 111.384 14.1388C111.255 14.2566 111.126 14.3743 110.998 14.4921C110.871 14.6089 110.745 14.7257 110.617 14.8415C110.565 14.889 110.508 14.9327 110.454 14.9792C110.425 15.0049 110.406 14.9916 110.382 14.9678C110.202 14.7865 110.008 14.6165 109.842 14.4228C109.543 14.0733 109.197 13.7732 108.883 13.4399C108.631 13.1721 108.378 12.9043 108.113 12.6251Z" fill="white"/>
</svg>
