<?xml version="1.0" standalone="no"?>
<!DOCTYPE svg PUBLIC "-//W3C//DTD SVG 20010904//EN"
        "http://www.w3.org/TR/2001/REC-SVG-20010904/DTD/svg10.dtd">
<svg version="1.0" xmlns="http://www.w3.org/2000/svg"
     width="296.000000pt" height="296.000000pt" viewBox="0 0 296.000000 296.000000"
     preserveAspectRatio="xMidYMid meet">
    <metadata>
        Created by potrace 1.14, written by Peter Selinger 2001-2017
    </metadata>
    <g transform="translate(0.000000,296.000000) scale(0.100000,-0.100000)"
       fill="#3E4FE5" stroke="none">
        <path d="M567 2894 c-1 -2 -17 -6 -35 -9 -61 -10 -163 -67 -217 -120 -35 -34
-87 -115 -106 -163 -24 -63 -29 -91 -29 -173 -3 -192 127 -369 319 -435 87
-30 227 -28 312 5 265 101 380 404 248 652 -68 126 -184 213 -320 239 -48 9
-164 12 -172 4z"/>
        <path d="M1584 2834 c-134 -27 -241 -111 -295 -230 -109 -240 28 -509 291
-571 42 -10 142 -4 195 11 309 89 402 472 167 687 -104 95 -226 130 -358 103z"/>
        <path d="M2615 2641 c-176 -57 -209 -285 -56 -387 77 -51 196 -41 264 21 27
26 27 27 27 159 0 121 -2 134 -21 155 -46 49 -148 74 -214 52z"/>
        <path d="M571 1888 c-232 -41 -393 -232 -392 -463 1 -75 7 -106 33 -169 58
-137 155 -225 299 -271 160 -50 345 -5 464 113 143 143 179 343 94 529 -83
182 -302 297 -498 261z"/>
        <path d="M1565 1826 c-120 -29 -243 -135 -287 -245 -30 -79 -34 -201 -7 -278
109 -317 528 -381 726 -111 129 176 89 434 -86 562 -40 30 -92 57 -111 58 -3
0 -13 4 -22 9 -28 15 -159 18 -213 5z"/>
        <path d="M2628 1638 c-130 -27 -204 -174 -149 -295 62 -135 238 -171 349 -70
21 19 22 28 22 159 l0 138 -41 29 c-55 41 -115 53 -181 39z"/>
        <path d="M535 876 c-55 -13 -156 -64 -195 -99 -99 -87 -161 -220 -161 -346 -1
-84 9 -128 46 -206 42 -87 110 -161 192 -208 45 -25 407 -26 456 -1 96 49 193
168 223 272 72 245 -71 507 -318 583 -50 16 -187 18 -243 5z"/>
        <path d="M1598 630 c-98 -29 -161 -125 -151 -229 11 -111 101 -191 216 -191
184 0 284 219 163 354 -56 62 -150 90 -228 66z"/>
        <path d="M2583 615 c-162 -81 -162 -300 -1 -383 75 -39 173 -27 236 28 l32 28
0 137 c0 129 -1 138 -22 156 -42 36 -81 51 -138 55 -45 3 -66 -1 -107 -21z"/>
    </g>
</svg>
