<svg width="58" height="20" viewBox="0 0 58 20" fill="none" xmlns="http://www.w3.org/2000/svg">
<path fill-rule="evenodd" clip-rule="evenodd" d="M11.2386 19.998V11.3438H20.8843L21.9192 12.6254L22.9883 11.3438H58V19.4011C58 19.4011 57.0844 19.9893 56.0254 19.998H36.6387L35.4719 18.6337V19.998H31.6485V17.6692C31.6485 17.6692 31.1262 17.9943 29.997 17.9943H28.6956V19.998H22.9065L21.8731 18.6889L20.8238 19.998H11.2386ZM0 4.81737L2.17022 0H5.92339L7.15501 2.69849V0H11.8205L12.5537 1.95039L13.2645 0H34.2079V0.980525C34.2079 0.980525 35.3089 0 37.1183 0L43.9137 0.0226123L45.124 2.68579V0H49.0284L50.103 1.52978V0H54.0432V8.6542H50.103L49.0732 7.11947V8.6542H43.3368L42.7599 7.28999H41.2178L40.6503 8.6542H36.7601C35.2032 8.6542 34.2079 7.6937 34.2079 7.6937V8.6542H28.3424L27.1783 7.28999V8.6542H5.36738L4.7909 7.28999H3.25369L2.68129 8.6542H0V4.81737ZM0.0114136 7.55812L2.93857 1.07812H5.15772L8.08207 7.55812H6.13437L5.59707 6.26053H2.45724L1.91714 7.55812H0.0114136ZM4.97869 4.85401L4.02163 2.58612L3.06177 4.85401H4.97869ZM8.28339 7.53469V1.05469L10.9915 1.06426L12.5667 5.24216L14.1041 1.05469H16.7906V7.53469H15.0892V2.75995L13.2856 7.53469H11.7934L9.98483 2.75995V7.53469H8.28339ZM17.9548 7.53469V1.05469H23.5068V2.50416H19.6741V3.61258H23.4173V4.97679H19.6741V6.12784H23.5068V7.53469H17.9548ZM24.4917 7.55812V1.07812H28.278C29.5325 1.07812 30.6566 1.81678 30.6566 3.1804C30.6566 4.3461 29.7089 5.09693 28.7901 5.17076L31.0288 7.55812H28.9496L26.9095 5.25602H26.1931V7.55812H24.4917ZM28.1383 2.53125H26.1934V3.89571H28.1635C28.5045 3.89571 28.9442 3.64406 28.9442 3.21348C28.9442 2.8788 28.6048 2.53125 28.1383 2.53125ZM33.0886 7.53469H31.3513V1.05469H33.0886V7.53469ZM37.2078 7.53469H36.8328C35.0185 7.53469 33.9169 6.17368 33.9169 4.32133C33.9169 2.42322 35.0061 1.05469 37.2974 1.05469H39.1779V2.58942H37.2286C36.2985 2.58942 35.6407 3.28054 35.6407 4.33732C35.6407 5.59225 36.3929 6.11932 37.4765 6.11932H37.9242L37.2078 7.53469ZM37.9832 7.55812L40.9103 1.07812H43.1295L46.0538 7.55812H44.1061L43.5688 6.26053H40.429L39.8889 7.55812H37.9832ZM42.9506 4.85401L41.9935 2.58612L41.0336 4.85401H42.9506ZM46.2524 7.53469V1.05469H48.4156L51.1777 5.12601V1.05469H52.8791V7.53469H50.7859L47.9539 3.3568V7.53469H46.2524ZM12.4026 18.8862V12.4062H17.9547V13.8557H14.122V14.9641H17.8652V16.3284H14.122V17.4794H17.9547V18.8862H12.4026ZM39.6078 18.8862V12.4062H45.1599V13.8557H41.3272V14.9641H45.0525V16.3284H41.3272V17.4794H45.1599V18.8862H39.6078ZM18.1701 18.8862L20.8734 15.6862L18.1057 12.4062H20.2493L21.8976 14.4339L23.5514 12.4062H25.6111L22.8798 15.6462L25.5881 18.8862H23.4448L21.8444 16.8906L20.2829 18.8862H18.1701ZM25.7904 18.8784V12.3984H29.5487C31.0908 12.3984 31.9917 13.3448 31.9917 14.578C31.9917 16.0666 30.843 16.8321 29.3276 16.8321H27.5366V18.8784H25.7904ZM29.4226 13.867H27.5365V15.3593H29.417C29.914 15.3593 30.2622 15.0457 30.2622 14.6131C30.2622 14.1527 29.9122 13.867 29.4226 13.867ZM32.7305 18.8784V12.3984H36.5168C37.7714 12.3984 38.8955 13.1371 38.8955 14.5007C38.8955 15.6664 37.9477 16.4172 37.0289 16.4911L39.2677 18.8784H37.1884L35.1484 16.5763H34.432V18.8784H32.7305ZM36.377 13.8516H34.4321V15.216H36.4022C36.7432 15.216 37.1829 14.9644 37.1829 14.5338C37.1829 14.1991 36.8435 13.8516 36.377 13.8516ZM45.9478 18.8862V17.4794H49.353C49.8568 17.4794 50.075 17.2202 50.075 16.9359C50.075 16.6634 49.8575 16.388 49.353 16.388H47.8142C46.4767 16.388 45.7318 15.6121 45.7318 14.4472C45.7318 13.4082 46.414 12.4062 48.4015 12.4062H51.7148L50.9985 13.8642H48.1329C47.5851 13.8642 47.4165 14.1379 47.4165 14.3993C47.4165 14.6679 47.6248 14.9641 48.0433 14.9641H49.6552C51.1462 14.9641 51.7932 15.7694 51.7932 16.8239C51.7932 17.9577 51.0723 18.8862 49.574 18.8862H45.9478ZM51.9433 18.8862V17.4794H55.3485C55.8523 17.4794 56.0705 17.2202 56.0705 16.9359C56.0705 16.6634 55.853 16.388 55.3485 16.388H53.8097C52.4722 16.388 51.7273 15.6121 51.7273 14.4472C51.7273 13.4082 52.4094 12.4062 54.397 12.4062H57.7103L56.9939 13.8642H54.1283C53.5806 13.8642 53.4119 14.1379 53.4119 14.3993C53.4119 14.6679 53.6203 14.9641 54.0388 14.9641H55.6507C57.1417 14.9641 57.7887 15.7694 57.7887 16.8239C57.7887 17.9577 57.0677 18.8862 55.5695 18.8862H51.9433Z" fill="white"/>
</svg>
