<svg width="120" height="20" viewBox="0 0 120 20" fill="none" xmlns="http://www.w3.org/2000/svg">
<path fill-rule="evenodd" clip-rule="evenodd" d="M111.602 0.443401C116.022 0.443401 118.453 2.37757 118.453 6.031C118.674 8.8248 116.685 11.1888 114.033 11.6186L120 19.5702H115.359L110.276 11.8335H109.834V19.5702H106.077V0.443401H111.602ZM109.834 9.25476H110.939C113.37 9.25476 114.475 8.18022 114.475 6.24605C114.475 4.52679 113.37 3.45225 110.939 3.45225H109.834V9.25476ZM93.0387 19.5702H103.646V16.3466H96.7956V11.1888H103.425V7.96517H96.7956V3.66702H103.646V0.443401H93.0387V19.5702ZM81.9887 13.3379L76.9058 0.443401H72.9279L81.1047 20H83.0937L91.2705 0.443401H87.2926L81.9887 13.3379ZM37.1272 10.1141C37.1272 15.4868 41.547 19.9999 47.0719 19.9999C48.8399 19.9999 50.3868 19.5701 51.9338 18.9254V14.6272C50.8288 15.9166 49.2818 16.7763 47.5139 16.7763C43.978 16.7763 41.1051 14.1974 41.1051 10.7589V10.329C40.8841 6.89052 43.757 3.88182 47.2929 3.66691C49.0609 3.66691 50.8288 4.52654 51.9338 5.81598V1.51783C50.6078 0.6582 48.8399 0.443293 47.2929 0.443293C41.547 0.0134775 37.1272 4.52654 37.1272 10.1141ZM30.2762 7.75025C28.0663 6.89062 27.4033 6.46081 27.4033 5.38627C27.6243 4.09682 28.7293 3.02228 30.0552 3.23719C31.1602 3.23719 32.2652 3.88191 33.1492 4.74154L35.1381 2.16265C33.5911 0.873206 31.6022 0.013575 29.6132 0.013575C26.5193 -0.201333 23.8674 2.16265 23.6464 5.17136V5.38627C23.6464 7.96516 24.7514 9.46951 28.2873 10.5441C29.1713 10.759 30.0552 11.1888 30.9392 11.6186C31.6022 12.0484 32.0442 12.6931 32.0442 13.5528C32.0442 15.0571 30.7182 16.3466 29.3923 16.3466H29.1713C27.4033 16.3466 25.8563 15.272 25.1934 13.7677L22.7624 16.1317C24.0884 18.4956 26.7403 19.7851 29.3923 19.7851C32.9282 20 35.8011 17.4211 36.0221 13.9826V13.3379C35.8011 10.759 34.6961 9.46951 30.2762 7.75025ZM17.4586 19.5702H21.2155V0.443401H17.4586V19.5702ZM0 0.443401H5.52486H6.62984C11.9337 0.658308 16.1326 4.95646 15.9116 10.1142C15.9116 12.908 14.5856 15.4869 12.3757 17.4211C10.3867 18.9255 7.9558 19.7851 5.52486 19.5702H0V0.443401ZM4.86195 16.3465C6.6299 16.5614 8.61885 15.9167 9.94482 14.8421C11.2708 13.5527 11.9338 11.8334 11.9338 9.89925C11.9338 8.17998 11.2708 6.46072 9.94482 5.17128C8.61885 4.09674 6.6299 3.45201 4.86195 3.66692H3.75697V16.3465H4.86195Z" fill="white"/>
<path fill-rule="evenodd" clip-rule="evenodd" d="M63.2046 0C57.6797 0 53.0388 4.29815 53.0388 9.88575C53.0388 15.2584 57.4587 19.7715 63.2046 19.9864C68.9504 20.2013 73.3703 15.6883 73.5913 10.1007C73.3703 4.51306 68.9504 0 63.2046 0V0Z" fill="white"/>
</svg>
