<svg width="31" height="20" viewBox="0 0 31 20" fill="none" xmlns="http://www.w3.org/2000/svg">
<path d="M5.6412 25.0609V23.3921C5.6412 22.7523 5.26867 22.3351 4.63004 22.3351C4.31073 22.3351 3.96481 22.4464 3.72532 22.8079C3.53906 22.502 3.27296 22.3351 2.87382 22.3351C2.60773 22.3351 2.34163 22.4185 2.12876 22.7245V22.3907H1.59657V25.0609H2.15536V23.5868C2.15536 23.1139 2.39485 22.8914 2.76738 22.8914C3.13991 22.8914 3.32618 23.1417 3.32618 23.5868V25.0609H3.88498V23.5868C3.88498 23.1139 4.15107 22.8914 4.497 22.8914C4.86953 22.8914 5.05579 23.1417 5.05579 23.5868V25.0609H5.6412ZM13.9167 22.3907H13.012V21.5841H12.4532V22.3907H11.9476V22.9192H12.4532V24.143C12.4532 24.755 12.6927 25.1166 13.3313 25.1166C13.5708 25.1166 13.8369 25.0331 14.0232 24.9219L13.8635 24.4212C13.7039 24.5325 13.5176 24.5603 13.3845 24.5603C13.1185 24.5603 13.012 24.3934 13.012 24.1152V22.9192H13.9167V22.3907ZM18.6266 22.3351C18.3073 22.3351 18.0944 22.502 17.9614 22.7245V22.3907H17.4026V25.0609H17.9614V23.5589C17.9614 23.1139 18.1476 22.8636 18.4936 22.8636C18.6 22.8636 18.733 22.8914 18.8395 22.9192L18.9991 22.3629C18.8927 22.3629 18.733 22.3351 18.6266 22.3351ZM11.4953 22.6132C11.2292 22.4185 10.8567 22.3351 10.4575 22.3351C9.81888 22.3351 9.39313 22.6689 9.39313 23.1974C9.39313 23.6424 9.71245 23.8927 10.2712 23.9762L10.5373 24.004C10.83 24.0596 10.9897 24.143 10.9897 24.2821C10.9897 24.4768 10.7768 24.6159 10.4043 24.6159C10.0318 24.6159 9.73906 24.4768 9.55279 24.3377L9.2867 24.7828C9.5794 25.0053 9.97854 25.1166 10.3777 25.1166C11.1227 25.1166 11.5485 24.755 11.5485 24.2543C11.5485 23.7815 11.2026 23.5311 10.6704 23.4477L10.4043 23.4199C10.1648 23.3921 9.97854 23.3364 9.97854 23.1695C9.97854 22.9748 10.1648 22.8636 10.4575 22.8636C10.7768 22.8636 11.0961 23.0026 11.2558 23.0861L11.4953 22.6132ZM26.3167 22.3351C25.9974 22.3351 25.7845 22.502 25.6515 22.7245V22.3907H25.0927V25.0609H25.6515V23.5589C25.6515 23.1139 25.8378 22.8636 26.1837 22.8636C26.2901 22.8636 26.4232 22.8914 26.5296 22.9192L26.6893 22.3629C26.5828 22.3629 26.4232 22.3351 26.3167 22.3351ZM19.1854 23.7258C19.1854 24.5325 19.7176 25.1166 20.5425 25.1166C20.915 25.1166 21.1811 25.0331 21.4472 24.8106L21.1811 24.3377C20.9682 24.5046 20.7554 24.5881 20.5159 24.5881C20.0635 24.5881 19.7442 24.2543 19.7442 23.7258C19.7442 23.2252 20.0635 22.8914 20.5159 22.8636C20.7554 22.8636 20.9682 22.947 21.1811 23.1139L21.4472 22.6411C21.1811 22.4185 20.915 22.3351 20.5425 22.3351C19.7176 22.3351 19.1854 22.9192 19.1854 23.7258ZM24.3742 23.7258V22.3907H23.8155V22.7245C23.6292 22.4742 23.3631 22.3351 23.0172 22.3351C22.2987 22.3351 21.7399 22.9192 21.7399 23.7258C21.7399 24.5325 22.2987 25.1166 23.0172 25.1166C23.3897 25.1166 23.6558 24.9775 23.8155 24.7272V25.0609H24.3742V23.7258ZM22.2987 23.7258C22.2987 23.253 22.5914 22.8636 23.0704 22.8636C23.5227 22.8636 23.8421 23.2252 23.8421 23.7258C23.8421 24.1987 23.5227 24.5881 23.0704 24.5881C22.5914 24.5881 22.2987 24.1987 22.2987 23.7258ZM15.6197 22.3351C14.8747 22.3351 14.3425 22.8914 14.3425 23.7258C14.3425 24.5603 14.8747 25.1166 15.6464 25.1166C16.0189 25.1166 16.3914 25.0053 16.6841 24.755L16.418 24.3377C16.2052 24.5046 15.9391 24.6159 15.673 24.6159C15.327 24.6159 14.9811 24.449 14.9013 23.9762H16.7906C16.7906 23.8927 16.7906 23.8371 16.7906 23.7536C16.8438 22.8914 16.3382 22.3351 15.6197 22.3351ZM15.6197 22.8636C15.9657 22.8636 16.2051 23.0861 16.2584 23.5033H14.9279C15.0077 23.1139 15.2206 22.8636 15.6197 22.8636ZM29.5099 23.7258V21.3338H28.9511V22.7245C28.7648 22.4742 28.4987 22.3351 28.1528 22.3351C27.4343 22.3351 26.8755 22.9192 26.8755 23.7258C26.8755 24.5325 27.4343 25.1166 28.1528 25.1166C28.5253 25.1166 28.7914 24.9775 28.9511 24.7272V25.0609H29.5099V23.7258ZM27.4343 23.7258C27.4343 23.253 27.727 22.8636 28.206 22.8636C28.6584 22.8636 28.9777 23.2252 28.9777 23.7258C28.9777 24.1987 28.6584 24.5881 28.206 24.5881C27.727 24.5881 27.4343 24.1987 27.4343 23.7258ZM8.75451 23.7258V22.3907H8.19571V22.7245C8.00944 22.4742 7.74335 22.3351 7.39742 22.3351C6.67897 22.3351 6.12017 22.9192 6.12017 23.7258C6.12017 24.5325 6.67897 25.1166 7.39742 25.1166C7.76996 25.1166 8.03605 24.9775 8.19571 24.7272V25.0609H8.75451V23.7258ZM6.70558 23.7258C6.70558 23.253 6.99828 22.8636 7.47725 22.8636C7.92961 22.8636 8.24893 23.2252 8.24893 23.7258C8.24893 24.1987 7.92961 24.5881 7.47725 24.5881C6.99828 24.5881 6.70558 24.1987 6.70558 23.7258ZM30.4146 24.6715C30.4412 24.6715 30.4944 24.6715 30.521 24.6993C30.5476 24.6993 30.5742 24.7272 30.6009 24.755C30.6275 24.7828 30.6541 24.8106 30.6541 24.8384C30.6541 24.8662 30.6807 24.894 30.6807 24.9497C30.6807 24.9775 30.6807 25.0331 30.6541 25.0609C30.6275 25.0887 30.6275 25.1166 30.6009 25.1444C30.5742 25.1722 30.5476 25.2 30.521 25.2C30.4944 25.2278 30.4678 25.2278 30.4146 25.2278C30.388 25.2278 30.3348 25.2278 30.3082 25.2C30.2815 25.1722 30.2549 25.1722 30.2283 25.1444C30.2017 25.1166 30.1751 25.0887 30.1751 25.0609C30.1485 25.0331 30.1485 25.0053 30.1485 24.9497C30.1485 24.9219 30.1485 24.8662 30.1751 24.8384C30.2017 24.8106 30.2017 24.7828 30.2283 24.755C30.2549 24.7272 30.2815 24.6993 30.3082 24.6993C30.3614 24.6715 30.388 24.6715 30.4146 24.6715ZM30.4146 25.1444C30.4412 25.1444 30.4678 25.1444 30.4944 25.1166C30.521 25.1166 30.5476 25.0887 30.5476 25.0609C30.5742 25.0331 30.5742 25.0331 30.6009 25.0053C30.6009 24.9775 30.6275 24.9497 30.6275 24.9219C30.6275 24.894 30.6275 24.8662 30.6009 24.8384C30.6009 24.8106 30.5742 24.7828 30.5476 24.7828C30.521 24.755 30.521 24.755 30.4944 24.7272C30.4678 24.7272 30.4412 24.6993 30.4146 24.6993C30.388 24.6993 30.3614 24.6993 30.3348 24.7272C30.3082 24.7272 30.2815 24.755 30.2815 24.7828C30.2549 24.8106 30.2549 24.8106 30.2283 24.8384C30.2283 24.8662 30.2017 24.894 30.2017 24.9219C30.2017 24.9497 30.2017 24.9775 30.2283 25.0053C30.2283 25.0331 30.2549 25.0609 30.2815 25.0609C30.3082 25.0887 30.3082 25.0887 30.3348 25.1166C30.3614 25.1444 30.388 25.1444 30.4146 25.1444ZM30.4412 24.8106C30.4678 24.8106 30.4944 24.8106 30.521 24.8384C30.5476 24.8662 30.5476 24.8662 30.5476 24.894C30.5476 24.9219 30.5476 24.9219 30.521 24.9497C30.521 24.9497 30.4944 24.9775 30.4678 24.9775L30.5476 25.0609H30.4944L30.4146 24.9775H30.388V25.0609H30.3348V24.8106H30.4412ZM30.388 24.8662V24.9219H30.4412H30.4678C30.4678 24.9219 30.4678 24.9219 30.4678 24.894V24.8662H30.4412H30.388ZM30.0953 16.2159V15.8821H30.2283V15.8265H29.909V15.8821H30.0421V16.2159H30.0953ZM30.7073 16.2159V15.8265H30.6009L30.4944 16.1046L30.388 15.8265H30.2815V16.2159H30.3614V15.9099L30.4678 16.1603H30.5476L30.6541 15.9099V16.2159H30.7073ZM14.6618 18.1629C14.7416 18.2185 14.8215 18.302 14.9013 18.3576C13.3845 19.4146 11.5485 20.0265 9.60601 20.0265C4.28412 20.0265 0 15.5483 0 10.0132C0 4.47815 4.28412 0 9.5794 0C11.5485 0 13.3579 0.611921 14.8747 1.66887C14.7949 1.7245 14.715 1.80795 14.6352 1.86358C12.3734 3.92185 11.0961 6.8702 11.0961 10.0132C11.0961 13.1285 12.4 16.1046 14.6618 18.1629ZM21.4206 0C19.4515 0 17.6421 0.611921 16.1253 1.66887C16.2051 1.7245 16.285 1.80795 16.3648 1.86358C18.6266 3.92185 19.9039 6.8702 19.9039 10.0132C19.9039 13.1285 18.6 16.1046 16.3648 18.1629C16.285 18.2185 16.2051 18.302 16.1253 18.3576C17.6421 19.4146 19.4781 20.0265 21.4206 20.0265C26.7159 20.0265 31 15.5483 31 10.0132C31 4.47815 26.7159 0 21.4206 0ZM15.4867 2.14172C15.3536 2.25298 15.2472 2.33642 15.1142 2.44768C13.1185 4.28344 11.8412 7.00927 11.8412 10.0132C11.8412 13.0172 13.1185 15.743 15.1408 17.5788C15.2472 17.6901 15.3803 17.8013 15.5133 17.8848C15.6464 17.7735 15.7528 17.6901 15.8858 17.5788C17.8815 15.743 19.1588 13.0172 19.1588 10.0132C19.1588 7.00927 17.8815 4.28344 15.8592 2.44768C15.7528 2.36424 15.6197 2.25298 15.4867 2.14172Z" fill="white"/>
</svg>
