<svg xmlns="http://www.w3.org/2000/svg" width="48" height="49" fill="none" viewBox="0 0 48 49">
    <path fill="#1ED760" d="M24 .158c-13.255 0-24 10.745-24 24s10.745 24 24 24 24-10.745 24-24-10.742-24-24-24Zm11.005 34.616a1.495 1.495 0 0 1-2.057.496c-5.635-3.442-12.728-4.222-21.083-2.313a1.497 1.497 0 0 1-.665-2.918c9.143-2.09 16.984-1.19 23.313 2.677.705.433.928 1.353.495 2.058h-.003Zm2.938-6.538a1.872 1.872 0 0 1-2.573.617c-6.452-3.967-16.285-5.116-23.917-2.798a1.875 1.875 0 0 1-2.336-1.246 1.874 1.874 0 0 1 1.246-2.333c8.716-2.645 19.553-1.364 26.961 3.19a1.872 1.872 0 0 1 .616 2.573l.003-.003Zm.252-6.806c-7.735-4.595-20.497-5.016-27.883-2.774a2.247 2.247 0 0 1-2.8-1.497 2.247 2.247 0 0 1 1.496-2.8c8.478-2.573 22.573-2.075 31.477 3.21a2.244 2.244 0 1 1-2.29 3.86Z"/>
</svg>