<svg xmlns="http://www.w3.org/2000/svg" width="48" height="49" fill="none" viewBox="0 0 48 49">
    <rect width="48" height="48" y=".158" fill="#3E4FE5" rx="24"/>
    <path fill="#fff" d="M14.386 29.725c-2.422 0-4.386 1.994-4.386 4.453 0 2.46 1.964 4.454 4.386 4.454s4.386-1.995 4.386-4.454c-.062-2.509-1.978-4.453-4.386-4.453Zm0-20.04c-2.422 0-4.386 1.994-4.386 4.453 0 2.46 1.964 4.454 4.386 4.454s4.386-1.995 4.386-4.454c-.062-2.51-1.978-4.453-4.386-4.453Zm0 10.02C11.964 19.705 10 21.7 10 24.16c0 2.459 1.964 4.453 4.386 4.453s4.386-1.994 4.386-4.453c-.062-2.51-1.978-4.454-4.386-4.454Zm21.93-5.568c0-1.23-.983-2.228-2.193-2.226-1.211 0-2.193.998-2.193 2.228 0 1.23.982 2.226 2.193 2.226 1.208-.007 2.186-1.002 2.193-2.228Zm-7.676.558c0-2.154-1.719-3.897-3.837-3.897-2.121 0-3.838 1.745-3.838 3.897 0 2.153 1.719 3.896 3.838 3.896 2.16-.055 3.837-1.757 3.837-3.896Zm7.676 9.465c0-1.23-.983-2.228-2.192-2.228-1.212 0-2.194.997-2.194 2.225 0 1.23.982 2.228 2.192 2.228 1.209-.004 2.187-.998 2.194-2.226Zm-7.676.555c0-2.153-1.719-3.897-3.837-3.897-2.12 0-3.838 1.746-3.838 3.897s1.719 3.897 3.838 3.897c2.16-.055 3.837-1.757 3.837-3.897Zm7.676 9.463c0-1.23-.983-2.226-2.193-2.226-1.211 0-2.193.998-2.193 2.226 0 1.23.982 2.228 2.193 2.228 1.208-.007 2.186-1 2.193-2.228ZM27 34.177c0-1.23-.982-2.226-2.193-2.226-1.21 0-2.193.998-2.193 2.226 0 1.23.982 2.228 2.193 2.228 1.21-.007 2.189-1 2.193-2.228Z"/>
</svg>