<svg width="70" height="24" viewBox="0 0 70 24" fill="currentColor" xmlns="http://www.w3.org/2000/svg">
    <path d="M26.4659 1.32375L17.4308 22.8918H11.5322L7.07913 5.68642C6.80807 4.62802 6.57574 4.2408 5.74968 3.78904C4.40732 3.06623 2.20019 2.38215 0.238281 1.95621L0.380262 1.32375H9.88002C11.0933 1.32375 12.1775 2.12399 12.4486 3.51798L14.7977 15.9993L20.606 1.32375H26.4659ZM49.5699 15.8444C49.5957 10.1523 41.6965 9.82965 41.7481 7.29983C41.761 6.52539 42.4967 5.69931 44.1101 5.49279C44.9104 5.38954 47.1046 5.29918 49.6087 6.46084L50.5896 1.89167C49.2472 1.40119 47.5177 0.936523 45.3751 0.936523C39.8637 0.936523 35.9786 3.86648 35.9527 8.07425C35.914 11.172 38.7278 12.9016 40.8446 13.9471C43.013 15.0055 43.7487 15.6896 43.7358 16.6318C43.7229 18.0774 41.9934 18.7228 40.3928 18.7357C37.592 18.7873 35.9656 17.9741 34.662 17.3804L33.6552 22.1045C34.9589 22.6982 37.3596 23.2274 39.8636 23.2532C45.7236 23.2532 49.557 20.362 49.5828 15.8832L49.5699 15.8444ZM64.1422 22.9176H69.3052L64.8005 1.34957H60.0377C58.9664 1.34957 58.0629 1.96912 57.6628 2.92426L49.2989 22.9047H55.1459L56.3075 19.6779H63.4582L64.1293 22.9047L64.1422 22.9176ZM57.9209 15.2765L60.8638 7.18365L62.5547 15.2765H57.9209ZM34.4555 1.34957L29.8347 22.9176H24.2587L28.8666 1.34957H34.4426H34.4555Z" fill="currentColor" />
</svg>