<svg xmlns="http://www.w3.org/2000/svg" width="248" height="195" viewBox="0 0 248 195" fill="none">
  <g clip-path="url(#clip0_6737_2064)">
    <path d="M56.7784 156.267C54.4108 156.267 52.4875 158.189 52.4875 160.555C52.4875 162.922 54.4108 164.844 56.7784 164.844C59.146 164.844 61.0692 162.922 61.0692 160.555C61.0692 158.189 59.146 156.267 56.7784 156.267Z" fill="#F9F4E8"/>
    <path d="M82.8643 104.111C80.4968 104.111 78.5735 106.033 78.5735 108.399C78.5735 110.765 80.4968 112.688 82.8643 112.688C85.2319 112.688 87.1552 110.765 87.1552 108.399C87.1552 106.033 85.2319 104.111 82.8643 104.111Z" fill="#F9F4E8"/>
    <path d="M82.8643 156.267C80.4968 156.267 78.5735 158.189 78.5735 160.555C78.5735 162.922 80.4968 164.844 82.8643 164.844C85.2319 164.844 87.1552 162.922 87.1552 160.555C87.1552 158.189 85.2319 156.267 82.8643 156.267Z" fill="#F9F4E8"/>
    <path d="M108.958 104.111C106.591 104.111 104.667 106.033 104.667 108.399C104.667 110.765 106.591 112.688 108.958 112.688C111.326 112.688 113.249 110.765 113.249 108.399C113.249 106.033 111.326 104.111 108.958 104.111Z" fill="#F9F4E8"/>
    <path d="M108.958 130.181C106.591 130.181 104.667 132.103 104.667 134.47C104.667 136.836 106.591 138.758 108.958 138.758C111.326 138.758 113.249 136.836 113.249 134.47C113.249 132.103 111.326 130.181 108.958 130.181Z" fill="#F9F4E8"/>
    <path d="M108.963 154.111C105.409 154.111 102.527 156.991 102.527 160.543C102.527 164.096 105.409 166.976 108.963 166.976C112.517 166.976 115.399 164.096 115.399 160.543C115.399 156.991 112.517 154.111 108.963 154.111Z" fill="#F9F4E8"/>
    <path d="M108.958 78.0327C106.591 78.0327 104.667 79.9549 104.667 82.3211C104.667 84.6873 106.591 86.6095 108.958 86.6095C111.326 86.6095 113.249 84.6873 113.249 82.3211C113.249 79.9549 111.326 78.0327 108.958 78.0327Z" fill="#F9F4E8"/>
    <path d="M135.052 104.111C132.684 104.111 130.761 106.033 130.761 108.399C130.761 110.765 132.684 112.688 135.052 112.688C137.419 112.688 139.343 110.765 139.343 108.399C139.343 106.033 137.419 104.111 135.052 104.111Z" fill="#F9F4E8"/>
    <path d="M135.052 130.181C132.684 130.181 130.761 132.103 130.761 134.47C130.761 136.836 132.684 138.758 135.052 138.758C137.419 138.758 139.343 136.836 139.343 134.47C139.343 132.103 137.419 130.181 135.052 130.181Z" fill="#F9F4E8"/>
    <path d="M135.046 151.97C130.305 151.97 126.464 155.809 126.464 160.547C126.464 165.285 130.305 169.124 135.046 169.124C139.787 169.124 143.628 165.285 143.628 160.547C143.628 155.809 139.787 151.97 135.046 151.97Z" fill="#F9F4E8"/>
    <path d="M135.052 78.0327C132.684 78.0327 130.761 79.9549 130.761 82.3211C130.761 84.6873 132.684 86.6095 135.052 86.6095C137.419 86.6095 139.343 84.6873 139.343 82.3211C139.343 79.9549 137.419 78.0327 135.052 78.0327Z" fill="#F9F4E8"/>
    <path d="M161.146 104.111C158.778 104.111 156.855 106.033 156.855 108.399C156.855 110.765 158.778 112.688 161.146 112.688C163.513 112.688 165.436 110.765 165.436 108.399C165.436 106.033 163.513 104.111 161.146 104.111Z" fill="#F9F4E8"/>
    <path d="M161.143 128.033C157.588 128.033 154.706 130.913 154.706 134.465C154.706 138.018 157.588 140.898 161.143 140.898C164.697 140.898 167.579 138.018 167.579 134.465C167.579 130.913 164.697 128.033 161.143 128.033Z" fill="#F9F4E8"/>
    <path d="M161.143 154.111C157.588 154.111 154.706 156.991 154.706 160.543C154.706 164.096 157.588 166.976 161.143 166.976C164.697 166.976 167.579 164.096 167.579 160.543C167.579 156.991 164.697 154.111 161.143 154.111Z" fill="#F9F4E8"/>
    <path d="M161.143 75.8843C157.588 75.8843 154.706 78.7646 154.706 82.3169C154.706 85.8691 157.588 88.7494 161.143 88.7494C164.697 88.7494 167.579 85.8691 167.579 82.3169C167.579 78.7646 164.697 75.8843 161.143 75.8843Z" fill="#F9F4E8"/>
    <path d="M161.146 51.9546C158.778 51.9546 156.855 53.8768 156.855 56.243C156.855 58.6092 158.778 60.5314 161.146 60.5314C163.513 60.5314 165.436 58.6092 165.436 56.243C165.436 53.8768 163.513 51.9546 161.146 51.9546Z" fill="#F9F4E8"/>
    <path d="M187.233 99.814C182.492 99.814 178.652 103.652 178.652 108.391C178.652 113.129 182.492 116.968 187.233 116.968C191.974 116.968 195.815 113.129 195.815 108.391C195.815 103.652 191.974 99.814 187.233 99.814Z" fill="#F9F4E8"/>
    <path d="M187.233 125.892C182.492 125.892 178.652 129.731 178.652 134.469C178.652 139.207 182.492 143.046 187.233 143.046C191.974 143.046 195.815 139.207 195.815 134.469C195.815 129.731 191.974 125.892 187.233 125.892Z" fill="#F9F4E8"/>
    <path d="M187.235 147.681C180.127 147.681 174.363 153.442 174.363 160.546C174.363 167.651 180.127 173.411 187.235 173.411C194.344 173.411 200.108 167.651 200.108 160.546C200.108 153.442 194.344 147.681 187.235 147.681Z" fill="#F9F4E8"/>
    <path d="M187.232 78.0327C184.864 78.0327 182.941 79.9549 182.941 82.3211C182.941 84.6873 184.864 86.6095 187.232 86.6095C189.599 86.6095 191.522 84.6873 191.522 82.3211C191.522 79.9549 189.599 78.0327 187.232 78.0327Z" fill="#F9F4E8"/>
    <path d="M213.321 95.5327C206.212 95.5327 200.448 101.293 200.448 108.398C200.448 115.502 206.212 121.263 213.321 121.263C220.43 121.263 226.194 115.502 226.194 108.398C226.194 101.293 220.43 95.5327 213.321 95.5327Z" fill="#F9F4E8"/>
    <path d="M213.324 123.751C207.396 123.751 202.597 128.554 202.597 134.472C202.597 140.391 207.402 145.193 213.324 145.193C219.246 145.193 224.051 140.391 224.051 134.472C224.051 128.554 219.246 123.751 213.324 123.751Z" fill="#F9F4E8"/>
    <path d="M213.327 151.97C208.586 151.97 204.745 155.809 204.745 160.547C204.745 165.285 208.586 169.124 213.327 169.124C218.068 169.124 221.909 165.285 221.909 160.547C221.909 155.809 218.068 151.97 213.327 151.97Z" fill="#F9F4E8"/>
    <path d="M213.322 75.8843C209.768 75.8843 206.886 78.7646 206.886 82.3169C206.886 85.8691 209.768 88.7494 213.322 88.7494C216.877 88.7494 219.759 85.8691 219.759 82.3169C219.759 78.7646 216.877 75.8843 213.322 75.8843Z" fill="#F9F4E8"/>
    <path d="M213.322 49.814C209.768 49.814 206.886 52.6943 206.886 56.2465C206.886 59.7988 209.768 62.6791 213.322 62.6791C216.877 62.6791 219.759 59.7988 219.759 56.2465C219.759 52.6943 216.877 49.814 213.322 49.814Z" fill="#F9F4E8"/>
    <path d="M82.8613 180.189C79.3071 180.189 76.425 183.069 76.425 186.622C76.425 190.174 79.3071 193.054 82.8613 193.054C86.4156 193.054 89.2976 190.174 89.2976 186.622C89.2976 183.069 86.4156 180.189 82.8613 180.189Z" fill="#F9F4E8"/>
    <path d="M56.7754 180.189C53.2211 180.189 50.3391 183.069 50.3391 186.622C50.3391 190.174 53.2211 193.054 56.7754 193.054C60.3296 193.054 63.2116 190.174 63.2116 186.622C63.2116 183.069 60.3296 180.189 56.7754 180.189Z" fill="#F9F4E8"/>
    <path d="M30.6846 182.337C28.3171 182.337 26.3938 184.26 26.3938 186.626C26.3938 188.992 28.3171 190.914 30.6846 190.914C33.0522 190.914 34.9755 188.992 34.9755 186.626C34.9755 184.26 33.0522 182.337 30.6846 182.337Z" fill="#F9F4E8"/>
    <path d="M4.59089 182.337C2.22333 182.337 0.300049 184.26 0.300049 186.626C0.300049 188.992 2.22333 190.914 4.59089 190.914C6.95846 190.914 8.88174 188.992 8.88174 186.626C8.88174 184.26 6.95846 182.337 4.59089 182.337Z" fill="#F9F4E8"/>
    <path d="M108.96 178.048C104.219 178.048 100.378 181.887 100.378 186.625C100.378 191.363 104.219 195.202 108.96 195.202C113.701 195.202 117.542 191.363 117.542 186.625C117.542 181.887 113.701 178.048 108.96 178.048Z" fill="#F9F4E8"/>
    <path d="M135.049 180.189C131.495 180.189 128.613 183.069 128.613 186.622C128.613 190.174 131.495 193.054 135.049 193.054C138.603 193.054 141.485 190.174 141.485 186.622C141.485 183.069 138.603 180.189 135.049 180.189Z" fill="#F9F4E8"/>
    <path d="M161.146 182.337C158.778 182.337 156.855 184.26 156.855 186.626C156.855 188.992 158.778 190.914 161.146 190.914C163.513 190.914 165.436 188.992 165.436 186.626C165.436 184.26 163.513 182.337 161.146 182.337Z" fill="#F9F4E8"/>
    <path d="M187.236 180.189C183.682 180.189 180.8 183.069 180.8 186.622C180.8 190.174 183.682 193.054 187.236 193.054C190.791 193.054 193.673 190.174 193.673 186.622C193.673 183.069 190.791 180.189 187.236 180.189Z" fill="#F9F4E8"/>
    <path d="M213.322 180.189C209.768 180.189 206.886 183.069 206.886 186.622C206.886 190.174 209.768 193.054 213.322 193.054C216.877 193.054 219.759 190.174 219.759 186.622C219.759 183.069 216.877 180.189 213.322 180.189Z" fill="#F9F4E8"/>
    <path d="M239.416 101.962C235.862 101.962 232.98 104.843 232.98 108.395C232.98 111.947 235.862 114.828 239.416 114.828C242.97 114.828 245.852 111.947 245.852 108.395C245.852 104.843 242.97 101.962 239.416 101.962Z" fill="#F9F4E8"/>
    <path d="M239.421 125.892C234.68 125.892 230.839 129.731 230.839 134.469C230.839 139.207 234.68 143.046 239.421 143.046C244.162 143.046 248.003 139.207 248.003 134.469C248.003 129.731 244.162 125.892 239.421 125.892Z" fill="#F9F4E8"/>
    <path d="M239.416 154.111C235.862 154.111 232.98 156.991 232.98 160.543C232.98 164.096 235.862 166.976 239.416 166.976C242.97 166.976 245.852 164.096 245.852 160.543C245.852 156.991 242.97 154.111 239.416 154.111Z" fill="#F9F4E8"/>
    <path d="M239.419 78.0327C237.051 78.0327 235.128 79.9549 235.128 82.3211C235.128 84.6873 237.051 86.6095 239.419 86.6095C241.787 86.6095 243.71 84.6873 243.71 82.3211C243.71 79.9549 241.787 78.0327 239.419 78.0327Z" fill="#F9F4E8"/>
    <path d="M239.416 23.728C235.862 23.728 232.98 26.6084 232.98 30.1606C232.98 33.7128 235.862 36.5932 239.416 36.5932C242.97 36.5932 245.852 33.7128 245.852 30.1606C245.852 26.6084 242.97 23.728 239.416 23.728Z" fill="#F9F4E8"/>
    <path d="M239.419 -0.20166C237.051 -0.20166 235.128 1.72052 235.128 4.08672C235.128 6.45293 237.051 8.37511 239.419 8.37511C241.787 8.37511 243.71 6.45293 243.71 4.08672C243.71 1.72052 241.787 -0.20166 239.419 -0.20166Z" fill="#F9F4E8"/>
    <path d="M239.419 51.9546C237.051 51.9546 235.128 53.8768 235.128 56.243C235.128 58.6092 237.051 60.5314 239.419 60.5314C241.787 60.5314 243.71 58.6092 243.71 56.243C243.71 53.8768 241.787 51.9546 239.419 51.9546Z" fill="#F9F4E8"/>
    <path d="M239.416 180.189C235.862 180.189 232.98 183.069 232.98 186.622C232.98 190.174 235.862 193.054 239.416 193.054C242.97 193.054 245.852 190.174 245.852 186.622C245.852 183.069 242.97 180.189 239.416 180.189Z" fill="#F9F4E8"/>
  </g>
  <defs>
    <clipPath id="clip0_6737_2064">
      <rect width="247.7" height="195.403" fill="white" transform="translate(0.300049 -0.20166)"/>
    </clipPath>
  </defs>
</svg>